<svg width="182" height="54" viewBox="0 0 182 54" fill="none" xmlns="http://www.w3.org/2000/svg">
<path d="M163.145 35.689L152.841 33.2325L153.264 36.0391L162.569 40.7771L163.145 35.689Z" fill="#CC484E"/>
<path d="M165.905 22.0626C165.905 22.0626 163.991 23.3897 163.308 26.8062C162.625 30.2227 161.275 40.9354 161.275 40.9354L166.752 43.4145L165.905 22.0626Z" fill="#CC484E"/>
<path d="M146.178 30.0245C146.579 29.6066 146.946 29.2565 147.29 28.9685C148.651 27.8165 150.638 27.7882 152.022 28.9177L161.055 36.2646L169.812 45.9607C169.23 47.0167 168.333 47.7113 167.345 48.1688C164.77 49.366 161.721 48.8238 159.576 46.9603L149.419 37.603L146.178 30.0245Z" fill="#4429B7"/>
<path d="M135.203 44.8473H155.235V52.4269L133.579 51.8855L135.203 44.8473Z" fill="#5833C5"/>
<path d="M144.275 45.1821L142.491 49.2085L139.064 48.7454L140.865 44.7868L144.275 45.1821Z" fill="#D5AB95"/>
<path d="M138.816 48.1921L135.428 49.8862L133.334 50.242C132.368 50.4058 131.628 51.1851 131.516 52.1564L131.459 52.6081L142.491 52.9526L142.83 48.322L138.816 48.1921Z" fill="#050006"/>
<path d="M142.537 53.026L131.409 52.6815L131.431 51.9417C131.437 51.7949 131.555 51.6819 131.702 51.6876L142.565 52.0264L142.537 53.026Z" fill="#050006"/>
<path d="M144.654 47.0004L153.19 33.5037C153.953 31.3013 152.767 28.9013 150.548 28.1841C148.278 27.4443 145.856 28.7658 145.241 31.0698L138.229 45.3684L144.654 47.0004Z" fill="#4429B7"/>
<path d="M174.623 21.7688C174.849 21.7858 175.069 21.8366 175.284 21.9213L175.397 21.9665C177.282 22.7006 178.558 24.7279 178.643 26.6197L177.565 44.8261C166.188 44.7301 163.309 43.228 163.309 43.228L164.839 24.7957C164.98 23.0394 165.782 21.3848 167.78 21.2211L174.623 21.7688Z" fill="#DC5758"/>
<path d="M160.157 24.2367L157.599 25.1685C157.04 25.3718 156.397 25.1572 156.148 24.6885L153.088 18.8268C152.845 18.358 153.1 17.8159 153.653 17.6126L156.21 16.6808C156.769 16.4775 157.413 16.6921 157.661 17.1609L160.722 23.0226C160.97 23.4913 160.716 24.0334 160.157 24.2367Z" fill="#232322"/>
<path d="M158.465 26.309C157.443 27.1504 156.33 26.8568 155.489 25.8346C154.648 24.8125 154.388 23.4459 155.416 22.6045C156.438 21.763 157.951 21.9099 158.792 22.932C159.633 23.9598 159.487 25.4676 158.465 26.309Z" fill="#FAC4C4"/>
<path d="M158.487 28.4717L156.725 26.3315C156.262 25.7724 156.347 24.9366 156.906 24.4792C157.465 24.0161 158.301 24.1008 158.758 24.6599L160.52 26.8002C160.982 27.3592 160.898 28.195 160.339 28.6524C159.78 29.1155 158.95 29.0308 158.487 28.4717Z" fill="#FAC4C4"/>
<path d="M157.002 28.8673L160.288 25.4847L166.273 32.1653L173.72 23.8357C175.351 22.4183 177.073 23.847 177.813 24.7732C178.553 25.7049 178.479 27.4273 177.548 28.1671L168.147 38.2133C167.487 38.7385 166.583 38.8289 165.832 38.4449L157.002 28.8673Z" fill="#DC5758"/>
<path d="M171.253 26.4333L166.313 31.8038L164.145 29.4263" stroke="#CC484E" stroke-width="0.7438" stroke-miterlimit="10"/>
<path d="M162.958 35.7174L165.205 37.9819C166.018 38.9927 167.537 39.0435 168.418 38.0892L177.316 30.4938" stroke="#CC484E" stroke-width="0.7438" stroke-miterlimit="10"/>
<path d="M163.992 43.7646L151.987 44.8474C150.203 44.9265 149.115 45.7186 148.872 47.4861C148.81 47.9322 148.765 48.4348 148.748 49.0165C148.624 52.5968 143.866 51.3442 143.866 51.3442L150.905 52.427H156.86L170.022 52.7436C172.862 52.7097 175.498 51.0833 176.622 48.4744C177.051 47.4748 177.26 46.3623 176.995 45.1821L163.992 43.7646Z" fill="#5833C5"/>
<path d="M172.827 21.4234L172.387 15.4769L168.017 15.7988L168.457 21.7509C168.553 23.0272 169.575 23.541 170.783 23.4563C171.986 23.3603 172.923 22.6996 172.827 21.4234Z" fill="#FAC4C4"/>
<path d="M172.725 14.326C172.725 14.326 172.623 19.8885 168.315 19.8715L168.112 17.1044L172.725 14.326Z" fill="#F2B1B1"/>
<path d="M172.95 5.93496C172.95 5.93496 174.486 -0.339007 179.229 2.10056C182.74 3.90199 181.6 8.62865 175.852 9.18772L172.95 5.93496Z" fill="#1F2326"/>
<path d="M175.35 10.2373C175.35 10.2373 177.202 8.62223 175.475 6.40855C173.741 4.19487 171.754 6.25608 171.754 6.25608L175.35 10.2373Z" fill="#DC5758"/>
<path d="M163.951 11.395C164.2 14.7776 167.147 17.3132 170.529 17.0647C173.911 16.8163 176.451 13.8685 176.197 10.4915C175.949 7.10883 173.002 4.56762 169.62 4.81609C166.238 5.07021 163.703 8.01237 163.951 11.395Z" fill="#1F2326"/>
<path d="M169.067 18.6799L169.23 18.6686C171.647 18.5105 173.476 16.4267 173.318 14.0097L172.996 9.07413C172.957 8.4473 172.415 7.97294 171.794 8.01811L166.04 8.39083C164.923 8.46424 164.076 9.4299 164.149 10.5424L164.414 14.5914C164.567 17.0084 166.656 18.838 169.067 18.6799Z" fill="#FAC4C4"/>
<path d="M170.687 10.1471C170.687 10.1471 170.811 12.6488 172.488 12.7956C174.165 12.9481 173.047 9.97205 173.047 9.97205L170.687 10.1471Z" fill="#1F2326"/>
<path d="M172.02 12.9199C172.071 13.7331 172.777 14.3543 173.59 14.2978C174.403 14.247 175.024 13.5411 174.967 12.7279C174.916 11.9147 174.211 11.2935 173.398 11.35C172.585 11.4065 171.969 12.1067 172.02 12.9199Z" fill="#FAC4C4"/>
<path d="M164.708 9.01765C164.708 9.01765 167.904 12.3269 172.302 10.9094C172.302 10.9094 174.001 10.5988 173.143 8.02375C172.279 5.44866 165.222 5.73666 164.708 9.01765Z" fill="#1F2326"/>
<path d="M165.21 8.80324C165.21 8.80324 163.669 9.28325 164.166 12.4231C164.166 12.4231 162.071 9.30019 162.958 7.65687C164.386 5.00836 167.627 6.72509 167.627 6.72509L165.21 8.80324Z" fill="#1F2326"/>
<path d="M134.121 50.2609L131.679 50.6542L131.413 47.2045L134.662 47.2045L134.121 50.2609Z" fill="#D5AB95"/>
<path d="M131.935 46.9514L129.569 43.9929L128.784 42.0168C128.422 41.1078 127.508 40.5488 126.536 40.6392L126.079 40.6787L128.157 52.0497L132.646 50.9092L131.935 46.9514Z" fill="#050006"/>
<path d="M128.095 52.1116L126 40.6503L126.723 40.5204C126.864 40.4922 127.005 40.5882 127.028 40.735L129.078 51.9365L128.095 52.1116Z" fill="#050006"/>
<g clip-path="url(#clip0)">
<path d="M8.7622 19.0332L8.34599 18.804C6.9622 18.0487 6.47572 16.3558 7.2595 15.0223L12.4649 6.16199L17.4541 8.88103L11.7676 18.2831C11.119 19.3822 9.97842 19.5124 8.7622 19.0332Z" fill="#FAC4C4"/>
<path d="M13.0161 16.2152C13.0161 16.2152 11.4864 15.2203 11.6053 13.3138C11.6053 13.3138 10.3458 15.5485 12.2485 17.4862L13.0161 16.2152Z" fill="#F2B1B1"/>
<path d="M21.1676 10.9071C19.4758 13.7928 15.6703 14.8086 12.6812 13.173C9.68656 11.5426 8.63251 7.87554 10.3298 4.99502C12.0217 2.10929 15.8271 1.09355 18.8163 2.72915C21.8109 4.35953 22.8649 8.02139 21.1676 10.9071Z" fill="#D5AB95"/>
<path d="M13.2866 16.382C11.8649 15.6059 11.3622 13.8661 12.1677 12.4961L15.1082 7.49561L21.2163 10.8293L18.8217 14.9079C17.719 16.7831 15.2379 17.4446 13.2866 16.382Z" fill="#FAC4C4"/>
<path d="M20.3244 11.991L20.519 14.3193C20.5244 14.684 20.1082 14.9027 19.7622 14.7152L18.2433 14.2152L20.3244 11.991Z" fill="#FAC4C4"/>
<path d="M21.1676 10.9071C19.4758 13.7928 15.6703 14.8086 12.6812 13.173C9.68656 11.5426 8.63251 7.87554 10.3298 4.99502C12.0217 2.10929 15.8271 1.09355 18.8163 2.72915C21.8109 4.35953 22.8649 8.02139 21.1676 10.9071Z" fill="#FAC4C4"/>
<path d="M14.946 10.5168C14.946 10.5168 17.1136 10.7772 17.6757 7.56332C17.6757 7.56332 21.3136 10.1105 22.9136 9.27704C22.9136 9.27704 23.9676 0.140642 16.0811 0.00521114C8.20004 -0.13022 7.07031 8.01128 7.07031 8.01128L11.2433 12.1055L14.946 10.5168Z" fill="#1F2326"/>
<path d="M15.2543 10.6677C14.7895 11.4594 13.7462 11.7407 12.9192 11.2927C12.0976 10.8448 11.8057 9.83946 12.2706 9.0425C12.7354 8.25075 13.7787 7.96946 14.6057 8.41743C15.4273 8.8706 15.7192 9.87592 15.2543 10.6677Z" fill="#FAC4C4"/>
<path d="M10.5296 9.1676L9.19451 11.7252C9.19451 11.7252 11.6377 13.8608 13.0918 11.3814L11.2594 10.7667L10.5296 9.1676Z" fill="#1F2326"/>
<path d="M17.6756 7.56319C17.6756 7.56319 22.5675 11.6834 24.7892 8.59976C26.5621 6.14117 24.8756 4.38056 22.254 4.64621C21.1243 4.76081 20.6162 3.9951 19.7729 3.37524L17.6756 7.56319Z" fill="#1F2326"/>
<path d="M29.173 47.4946C29.173 47.4946 31.5838 48.7239 30.8324 50.8283C30.0757 52.9327 27.1189 52.1617 27.1189 52.1617L18.7189 50.6616C18.7189 50.6616 17.8649 49.4844 18.7189 48.9687C19.5676 48.453 29.173 47.4946 29.173 47.4946Z" fill="#141934"/>
<path d="M14.8867 41.1553H30.6975C32.3515 41.1553 33.2596 42.3951 33.5083 43.9734C33.7623 45.6089 33.1894 47.0831 31.5299 47.4946L18.0164 50.8439C18.0164 50.8439 3.76776 53.6723 2.09208 46.3069C0.416409 38.9468 14.8867 41.1553 14.8867 41.1553Z" fill="#DC5758"/>
<path d="M13.357 21.5544C13.357 21.5544 12.4111 18.9395 11.5138 18.1999C10.8705 17.6738 8.58947 16.0121 7.40568 15.7308C7.05433 15.6475 6.68676 15.7256 6.40028 15.9392C5.13001 16.8872 1.69757 19.8875 0.470547 25.3933C-0.707831 30.6908 0.713788 46.4269 0.713788 46.4269L14.6489 40.8065C13.3678 31.769 15.5084 29.9095 13.357 21.5544Z" fill="#5833C5"/>
<path d="M22.93 37.3269L27.1354 35.3528C27.476 35.1913 27.8814 35.2173 28.1949 35.4153L30.3192 36.7383C30.9409 37.1238 30.9138 38.0145 30.2652 38.3635C29.9354 38.5406 29.53 38.525 29.2165 38.3166L28.1895 37.629C28.1895 37.629 25.1895 39.7386 23.6165 39.4157L22.93 37.3269Z" fill="#FAC4C4"/>
<path d="M9.62723 19.7834L11.9786 33.5089L23.9678 35.1809V39.4366L9.56237 39.52C8.20561 39.5772 6.91912 38.9522 6.16237 37.8687L2.58399 23.0494L9.62723 19.7834Z" fill="#5833C5"/>
<path d="M14.2217 33.8214L11.9784 33.5088L10.0865 22.4712" stroke="#4228B2" stroke-width="0.75" stroke-miterlimit="10"/>
<path d="M14.6489 39.4937L8.17325 39.452C7.14623 39.4468 6.25974 38.7592 6.03271 37.7904L3.58947 27.3101" stroke="#4228B2" stroke-width="0.75" stroke-miterlimit="10"/>
<path d="M35.0761 41.2442H18.1896C17.6707 41.2442 17.2545 40.8379 17.2545 40.343C17.2545 39.843 17.6761 39.4419 18.1896 39.4419H35.0761C35.595 39.4419 36.0112 39.8482 36.0112 40.343C36.0112 40.8431 35.595 41.2442 35.0761 41.2442Z" fill="#141934"/>
<path d="M42.6489 27.6488L34.7408 40.0824" stroke="#141934" stroke-width="1.3" stroke-miterlimit="10" stroke-linecap="round" stroke-linejoin="round"/>
</g>
<defs>
<clipPath id="clip0">
<rect width="43" height="52.2973" fill="white" transform="matrix(-1 0 0 1 43 0)"/>
</clipPath>
</defs>
</svg>
