<svg width="219" height="67" viewBox="0 0 219 67" fill="none" xmlns="http://www.w3.org/2000/svg">
<g clip-path="url(#clip0)">
<path d="M75.8296 45.8624L73.5272 41.9009C73.375 41.9203 73.2227 41.9203 73.0513 41.9203H70.0456V45.8624H67.4966V32.4663H73.0513C76.4943 32.4663 78.4537 34.1311 78.4537 37.079C78.4537 39.1837 77.5212 40.6954 75.8103 41.4222L78.7408 45.8624H75.8296ZM70.0456 39.6624H73.0513C74.9529 39.6624 76.0184 38.8387 76.0184 37.1545C76.0184 35.5091 74.9529 34.7048 73.0513 34.7048H70.0456V39.6624Z" fill="#0367B4"/>
<path d="M90.7436 41.6157H83.2295C83.5531 43.0693 84.6571 43.9511 86.1407 43.9511C87.1869 43.9511 88.1579 43.5499 88.8805 42.8037L90.2118 44.2011C89.2041 45.3116 87.7206 45.9609 85.9307 45.9609C82.7728 45.9609 80.6997 43.8561 80.6997 40.7746C80.6997 37.6562 82.8306 35.5494 85.8748 35.5494C89.4508 35.5494 90.9902 37.9023 90.7436 41.6157ZM88.499 39.9509C88.4412 38.4391 87.4335 37.4817 85.8921 37.4817C84.4279 37.4817 83.399 38.4391 83.1717 39.9509H88.499Z" fill="#0367B4"/>
<path d="M94.0339 35.6206L96.6985 43.4098L99.3053 35.6206H101.798L97.9181 45.8596H95.3691L91.4502 35.64L94.0339 35.6206Z" fill="#0367B4"/>
<path d="M113.135 40.7358C113.135 43.8542 110.967 45.9609 107.788 45.9609C104.572 45.9609 102.405 43.8561 102.405 40.7358C102.405 37.6348 104.574 35.5494 107.788 35.5494C110.967 35.5494 113.135 37.6348 113.135 40.7358ZM104.898 40.7726C104.898 42.6099 106.077 43.8736 107.79 43.8736C109.464 43.8736 110.643 42.6099 110.643 40.7726C110.643 38.9353 109.464 37.6717 107.79 37.6717C106.077 37.6736 104.898 38.9353 104.898 40.7726Z" fill="#0367B4"/>
<path d="M118.329 31.6601V45.8605H115.855V31.6601H118.329Z" fill="#0367B4"/>
<path d="M131.382 35.6206V45.8596H128.889V43.9641C128.186 45.3227 126.968 45.9545 125.35 45.9545C123.067 45.9545 121.658 44.4428 121.658 42.0318V35.6206H124.149V41.305C124.149 42.7412 124.968 43.6017 126.338 43.6017C127.935 43.5823 128.887 42.3187 128.887 40.6732V35.6206H131.382Z" fill="#0367B4"/>
<path d="M140.89 45.2296C140.11 45.7083 139.235 45.9758 138.341 45.9758C136.686 45.9758 135.355 45.0183 135.355 42.9136V37.861H133.927L133.908 36.043H135.353V33.2289H137.807V36.043H140.719V37.861H137.807V42.4736C137.807 43.4504 138.206 43.7741 138.873 43.7741C139.291 43.7741 139.767 43.621 140.318 43.3535L140.89 45.2296Z" fill="#0367B4"/>
<path d="M145.873 32.6937C145.873 33.4981 145.322 34.0717 144.542 34.0717C143.761 34.0717 143.21 33.4981 143.21 32.6937C143.21 31.8894 143.761 31.3158 144.542 31.3158C145.322 31.3138 145.873 31.8894 145.873 32.6937ZM145.779 35.6203V45.8592H143.305V35.6203H145.779Z" fill="#0367B4"/>
<path d="M159.113 40.7358C159.113 43.8542 156.944 45.9609 153.766 45.9609C150.551 45.9609 148.381 43.8561 148.381 40.7358C148.381 37.6348 150.551 35.5494 153.766 35.5494C156.945 35.5494 159.113 37.6348 159.113 40.7358ZM150.876 40.7726C150.876 42.6099 152.056 43.8736 153.768 43.8736C155.443 43.8736 156.622 42.6099 156.622 40.7726C156.622 38.9353 155.443 37.6717 153.768 37.6717C152.056 37.6736 150.876 38.9353 150.876 40.7726Z" fill="#0367B4"/>
<path d="M171.628 39.4721V45.8639H169.137V40.1989C169.137 38.7628 168.282 37.8829 166.873 37.8829C165.199 37.9022 164.211 39.1465 164.211 40.8307V45.8639H161.737V35.625H164.211V37.5379C164.933 36.1793 166.209 35.5475 167.864 35.5281C170.201 35.53 171.628 37.0417 171.628 39.4721Z" fill="#0367B4"/>
<path d="M177.456 32.6937C177.456 33.4981 176.905 34.0717 176.124 34.0717C175.344 34.0717 174.793 33.4981 174.793 32.6937C174.793 31.8894 175.344 31.3158 176.124 31.3158C176.905 31.3138 177.456 31.8894 177.456 32.6937ZM177.361 35.6203V45.8592H174.887V35.6203H177.361Z" fill="#0367B4"/>
<path d="M183.939 37.4605C183.139 37.4605 182.569 37.7279 182.569 38.3597C182.569 40.0827 187.954 39.1834 187.954 42.8561C187.954 44.9415 186.108 45.9571 183.941 45.9571C182.4 45.9571 180.802 45.459 179.737 44.521L180.592 42.7786C181.525 43.5829 182.933 44.0422 184.035 44.0422C184.891 44.0422 185.538 43.7554 185.538 43.0848C185.538 41.1894 180.23 42.2243 180.249 38.5884C180.249 36.4837 182.037 35.5069 184.093 35.5069C185.424 35.5069 186.814 35.908 187.821 36.598L186.927 38.3966C185.937 37.8054 184.814 37.4605 183.939 37.4605Z" fill="#0367B4"/>
<path d="M193.108 32.6937C193.108 33.4981 192.557 34.0717 191.777 34.0717C190.996 34.0717 190.445 33.4981 190.445 32.6937C190.445 31.8894 190.996 31.3158 191.777 31.3158C192.557 31.3138 193.108 31.8894 193.108 32.6937ZM193.014 35.6203V45.8592H190.54V35.6203H193.014Z" fill="#0367B4"/>
<path d="M206.442 39.4721V45.8639H203.949V40.1989C203.949 38.7628 203.094 37.8829 201.685 37.8829C200.011 37.9022 199.023 39.1465 199.023 40.8307V45.8639H196.549V35.625H199.023V37.5379C199.745 36.1793 201.021 35.5475 202.676 35.5281C205.017 35.53 206.442 37.0417 206.442 39.4721Z" fill="#0367B4"/>
<path d="M218.998 35.6237V44.8859C218.998 47.8143 216.887 49.671 213.671 49.671C212.035 49.671 210.571 49.1342 209.371 48.3124L210.361 46.5139C211.293 47.2019 212.32 47.5856 213.538 47.5856C215.364 47.5856 216.524 46.572 216.524 44.944V43.7385C215.84 44.7715 214.736 45.3452 213.289 45.3452C210.588 45.3452 208.762 43.3548 208.762 40.4069C208.762 37.5172 210.569 35.5462 213.214 35.5462C214.679 35.5268 215.821 36.1199 216.524 37.1529V35.6218H218.998V35.6237ZM216.524 40.4651C216.524 38.7421 215.42 37.5366 213.823 37.5366C212.224 37.5366 211.122 38.7615 211.103 40.4651C211.122 42.188 212.207 43.3935 213.823 43.3935C215.42 43.3935 216.524 42.188 216.524 40.4651Z" fill="#0367B4"/>
<path d="M77.2558 53.4886V55.7271H70.0461V59.0373H76.514V61.2758H70.0461V64.6443H77.4851V66.8828H67.4971V53.4866H77.2558V53.4886Z" fill="#0367B4"/>
<path d="M90.2725 52.6846V66.8851H87.7986V65.2396C87.0761 66.3695 85.895 66.9994 84.3749 66.9994C81.4636 66.9994 79.5234 64.8559 79.5234 61.7375C79.5234 58.6365 81.4636 56.5511 84.3171 56.5511C85.8777 56.5511 87.0568 57.1829 87.7986 58.3303V52.6846H90.2725ZM87.7986 61.7937C87.7986 59.9564 86.6195 58.6753 84.9066 58.6753C83.2131 58.6753 82.0339 59.9757 82.0147 61.7937C82.0339 63.631 83.1938 64.9121 84.9066 64.9121C86.6195 64.9121 87.7986 63.631 87.7986 61.7937Z" fill="#0367B4"/>
<path d="M103.319 56.6485V66.8875H100.826V64.992C100.122 66.3506 98.9047 66.9824 97.2882 66.9824C95.0051 66.9824 93.5967 65.4707 93.5967 63.0597V56.6485H96.0879V62.3329C96.0879 63.7691 96.9067 64.6296 98.2766 64.6296C99.8739 64.6102 100.826 63.3466 100.826 61.7011V56.6485H103.319Z" fill="#0367B4"/>
<path d="M111.216 58.7539C109.58 58.7539 108.438 59.9787 108.438 61.7773C108.438 63.6146 109.58 64.8395 111.216 64.8395C112.395 64.8395 113.347 64.4383 113.956 63.634L115.497 64.917C114.603 66.2175 113.081 66.983 111.083 66.983C108.039 66.983 105.946 64.8782 105.946 61.7967C105.946 58.6783 108.058 56.5716 111.121 56.5716C112.986 56.5716 114.47 57.2615 115.383 58.4476L113.88 59.8838C113.233 59.1744 112.339 58.7539 111.216 58.7539Z" fill="#0367B4"/>
<path d="M123.734 66.8846V65.6403C123.031 66.5396 121.888 66.9989 120.443 66.9989C118.257 66.9989 116.887 65.6403 116.887 63.8224C116.887 61.9269 118.276 60.7602 120.748 60.7408H123.715V60.4733C123.715 59.2872 122.935 58.5779 121.413 58.5779C120.461 58.5779 119.434 58.9035 118.388 59.5353L117.494 57.8123C118.958 56.9886 120.1 56.5487 121.966 56.5487C124.628 56.5487 126.131 57.9073 126.15 60.1845L126.17 66.8826H123.734V66.8846ZM123.715 63.3262V62.4075H121.147C119.835 62.4075 119.226 62.7719 119.226 63.6712C119.226 64.5317 119.91 65.0879 121.033 65.0879C122.459 65.086 123.582 64.3205 123.715 63.3262Z" fill="#0367B4"/>
<path d="M135.38 66.2551C134.599 66.7338 133.725 67.0013 132.831 67.0013C131.176 67.0013 129.844 66.0438 129.844 63.9391V58.8864H128.417L128.397 57.0685H129.842V54.2544H132.297V57.0685H135.208V58.8864H132.297V63.4991C132.297 64.4759 132.698 64.7996 133.363 64.7996C133.781 64.7996 134.257 64.6465 134.808 64.379L135.38 66.2551Z" fill="#0367B4"/>
<path d="M140.359 53.718C140.359 54.5223 139.807 55.096 139.027 55.096C138.247 55.096 137.696 54.5223 137.696 53.718C137.696 52.9137 138.247 52.34 139.027 52.34C139.807 52.34 140.359 52.9137 140.359 53.718ZM140.264 56.6464V66.8854H137.79V56.6464H140.264Z" fill="#0367B4"/>
<path d="M153.6 61.7579C153.6 64.8763 151.431 66.983 148.254 66.983C145.038 66.983 142.871 64.8782 142.871 61.7579C142.871 58.6569 145.038 56.5716 148.254 56.5716C151.433 56.5716 153.6 58.6569 153.6 61.7579ZM145.364 61.7967C145.364 63.634 146.543 64.8976 148.256 64.8976C149.93 64.8976 151.109 63.634 151.109 61.7967C151.109 59.9594 149.93 58.6957 148.256 58.6957C146.543 58.6957 145.364 59.9594 145.364 61.7967Z" fill="#0367B4"/>
<path d="M166.119 60.4927V66.8845H163.627V61.2195C163.627 59.7834 162.772 58.9035 161.364 58.9035C159.689 58.9228 158.701 60.1671 158.701 61.8513V66.8845H156.227V56.6456H158.701V58.5585C159.423 57.1999 160.699 56.5681 162.354 56.5487C164.693 56.5506 166.119 58.0623 166.119 60.4927Z" fill="#0367B4"/>
<path d="M77.8372 14.3767C77.8372 17.3827 75.7467 19.4119 72.6852 19.4119C69.5871 19.4119 67.4966 17.3827 67.4966 14.3767C67.4966 11.3901 69.5871 9.37837 72.6852 9.37837C75.7467 9.38031 77.8372 11.3901 77.8372 14.3767ZM69.8992 14.4135C69.8992 16.185 71.0359 17.4002 72.6852 17.4002C74.2978 17.4002 75.4346 16.183 75.4346 14.4135C75.4346 12.6441 74.2978 11.4269 72.6852 11.4269C71.0359 11.4269 69.8992 12.6441 69.8992 14.4135Z" fill="#0367B4"/>
<path d="M89.8951 13.1591V19.3184H87.4945V13.8607C87.4945 12.4769 86.6698 11.6299 85.3135 11.6299C83.7008 11.6474 82.7471 12.8471 82.7471 14.4692V19.3184H80.3638V9.45345H82.7471V11.2966C83.4446 9.98643 84.6719 9.37786 86.2672 9.36042C88.5214 9.36042 89.8951 10.8179 89.8951 13.1591Z" fill="#0367B4"/>
<path d="M96.4152 28.773H60.9736V0H96.4152V28.773ZM62.8772 26.8601H94.5136V1.9129H62.8772V26.8601Z" fill="#0367B4"/>
<path d="M36.0068 37.7543C36.0068 38.6148 36.6927 39.171 37.8141 39.171C39.2418 39.171 40.3631 38.4055 40.496 37.4112V36.4926H37.9278C36.6157 36.4906 36.0068 36.855 36.0068 37.7543Z" fill="#0367B4"/>
<path d="M11.4795 35.9336H16.1594L13.8378 30.3073L11.4795 35.9336Z" fill="#0367B4"/>
<path d="M50.6483 38.9944C52.2455 38.9944 53.5403 37.5983 53.5403 35.8761C53.5403 34.1538 52.2455 32.7577 50.6483 32.7577C49.0511 32.7577 47.7563 34.1538 47.7563 35.8761C47.7563 37.5983 49.0511 38.9944 50.6483 38.9944Z" fill="#0367B4"/>
<path d="M0 19.2578V48.5909H62.7622V19.2578H0ZM18.2555 40.9664L17.0763 38.1348H10.5699L9.39072 40.9664H6.74537L12.5852 27.5703H15.2305L20.9952 40.9664H18.2555ZM29.8792 40.9664L27.1202 36.4894L25.5596 38.1348V40.9664H23.0857V26.766H25.5596V34.9951L29.7444 30.7468H32.5978L28.8311 34.6889L32.8271 40.9664H29.8792ZM40.5127 40.9664V39.7221C39.8094 40.6214 38.6669 41.0807 37.2219 41.0807C35.0331 41.0807 33.6652 39.7221 33.6652 37.9042C33.6652 36.0087 35.0543 34.842 37.5263 34.8226H40.4934V34.5552C40.4934 33.369 39.7131 32.6597 38.191 32.6597C37.2392 32.6597 36.2123 32.9853 35.1661 33.6171L34.2721 31.8942C35.7364 31.0705 36.8789 30.6305 38.742 30.6305C41.4047 30.6305 42.9076 31.9891 42.9268 34.2664L42.9461 40.9644H40.5127V40.9664ZM56.0168 40.9664H53.5429V39.3209C52.8204 40.4509 51.6413 41.0807 50.1192 41.0807C47.2079 41.0807 45.2678 38.9372 45.2678 35.8188C45.2678 32.7178 47.2079 30.6325 50.0614 30.6325C51.622 30.6325 52.8011 31.2643 53.5429 32.4116V26.766H56.0168V40.9664Z" fill="#0367B4"/>
</g>
<defs>
<clipPath id="clip0">
<rect width="219" height="67" fill="white"/>
</clipPath>
</defs>
</svg>
