<svg width="24" height="24" viewBox="0 0 24 24" fill="none" xmlns="http://www.w3.org/2000/svg">
<g clip-path="url(#clip0)">
<path d="M5.99974 0C5.52633 0 5.14258 0.383755 5.14258 0.857159V2.57143H6.85685V0.857159C6.85685 0.383755 6.47309 0 5.99974 0Z" fill="#0367B4"/>
<path d="M18.0007 0C17.5273 0 17.1436 0.383755 17.1436 0.857159V2.57143H18.8578V0.857159C18.8579 0.383755 18.4741 0 18.0007 0Z" fill="#0367B4"/>
<path d="M21.4286 2.57153H18.8571V6.00012C18.8571 6.47352 18.4734 6.85728 18 6.85728C17.5266 6.85728 17.1428 6.47352 17.1428 6.00012V2.57153H6.85712V6.00012C6.85712 6.47352 6.47337 6.85728 5.99996 6.85728C5.52656 6.85728 5.1428 6.47352 5.1428 6.00012V2.57153H2.57143C1.15127 2.57153 0 3.7228 0 5.14296V21.4287C0 22.8488 1.15127 24.0001 2.57143 24.0001H21.4286C22.8487 24.0001 24 22.8488 24 21.4287V5.14296C24 3.7228 22.8487 2.57153 21.4286 2.57153ZM22.2857 21.4287C22.2857 21.9021 21.9019 22.2858 21.4285 22.2858H2.57143C2.09802 22.2858 1.71427 21.9021 1.71427 21.4287V10.2858H22.2857V21.4287Z" fill="#0367B4"/>
<path d="M6.85756 12H5.14329C4.66989 12 4.28613 12.3838 4.28613 12.8572C4.28613 13.3306 4.66989 13.7143 5.14329 13.7143H6.85756C7.33097 13.7143 7.71472 13.3306 7.71472 12.8572C7.71472 12.3838 7.33097 12 6.85756 12Z" fill="#0367B4"/>
<path d="M12.8576 12H11.1433C10.6699 12 10.2861 12.3838 10.2861 12.8572C10.2861 13.3306 10.6699 13.7143 11.1433 13.7143H12.8576C13.331 13.7143 13.7147 13.3306 13.7147 12.8572C13.7147 12.3838 13.331 12 12.8576 12Z" fill="#0367B4"/>
<path d="M18.8566 12H17.1423C16.6689 12 16.2852 12.3838 16.2852 12.8572C16.2852 13.3306 16.6689 13.7143 17.1423 13.7143H18.8566C19.33 13.7143 19.7137 13.3306 19.7137 12.8572C19.7137 12.3838 19.3299 12 18.8566 12Z" fill="#0367B4"/>
<path d="M6.85756 15.4285H5.14329C4.66989 15.4285 4.28613 15.8122 4.28613 16.2856C4.28613 16.759 4.66989 17.1428 5.14329 17.1428H6.85756C7.33097 17.1428 7.71472 16.759 7.71472 16.2856C7.71472 15.8122 7.33097 15.4285 6.85756 15.4285Z" fill="#0367B4"/>
<path d="M12.8576 15.4285H11.1433C10.6699 15.4285 10.2861 15.8122 10.2861 16.2856C10.2861 16.759 10.6699 17.1428 11.1433 17.1428H12.8576C13.331 17.1428 13.7147 16.759 13.7147 16.2856C13.7147 15.8122 13.331 15.4285 12.8576 15.4285Z" fill="#0367B4"/>
<path d="M18.8566 15.4285H17.1423C16.6689 15.4285 16.2852 15.8122 16.2852 16.2856C16.2852 16.759 16.6689 17.1428 17.1423 17.1428H18.8566C19.33 17.1428 19.7137 16.759 19.7137 16.2856C19.7137 15.8122 19.3299 15.4285 18.8566 15.4285Z" fill="#0367B4"/>
<path d="M6.85756 18.8572H5.14329C4.66989 18.8572 4.28613 19.2409 4.28613 19.7143C4.28613 20.1877 4.66989 20.5714 5.14329 20.5714H6.85756C7.33097 20.5714 7.71472 20.1877 7.71472 19.7143C7.71472 19.2409 7.33097 18.8572 6.85756 18.8572Z" fill="#0367B4"/>
<path d="M12.8576 18.8572H11.1433C10.6699 18.8572 10.2861 19.2409 10.2861 19.7143C10.2861 20.1877 10.6699 20.5715 11.1433 20.5715H12.8576C13.331 20.5715 13.7147 20.1877 13.7147 19.7143C13.7147 19.2409 13.331 18.8572 12.8576 18.8572Z" fill="#0367B4"/>
<path d="M18.8566 18.8572H17.1423C16.6689 18.8572 16.2852 19.2409 16.2852 19.7143C16.2852 20.1877 16.6689 20.5715 17.1423 20.5715H18.8566C19.33 20.5715 19.7137 20.1877 19.7137 19.7143C19.7137 19.2409 19.3299 18.8572 18.8566 18.8572Z" fill="#0367B4"/>
</g>
<defs>
<clipPath id="clip0">
<rect width="24" height="24" fill="white"/>
</clipPath>
</defs>
</svg>
