<svg width="24" height="24" viewBox="0 0 24 24" fill="none" xmlns="http://www.w3.org/2000/svg">
<path d="M16.8082 17.1917C16.6519 17.0354 16.3985 17.0354 16.2422 17.1917L12.3998 21.0345V10.0001C12.3998 9.7792 12.2207 9.6001 11.9998 9.6001C11.7789 9.6001 11.5998 9.7792 11.5998 10.0001V21.0345L7.75744 17.1917C7.60114 17.0354 7.34774 17.0354 7.19144 17.1917C7.03514 17.348 7.03514 17.6014 7.19144 17.7577L11.7166 22.2825C11.8726 22.4389 12.1259 22.4393 12.2823 22.2832C12.2826 22.283 12.2828 22.2827 12.283 22.2825L16.8082 17.7577C16.9645 17.6014 16.9645 17.348 16.8082 17.1917Z" fill="white"/>
<path d="M22.8 1.6001H1.2C0.53725 1.6001 0 2.13735 0 2.8001V17.2001C0 17.8628 0.53725 18.4001 1.2 18.4001H5.2C5.4209 18.4001 5.6 18.221 5.6 18.0001C5.6 17.7792 5.4209 17.6001 5.2 17.6001H1.2C0.9791 17.6001 0.8 17.421 0.8 17.2001V6.4001H23.2V17.2001C23.2 17.421 23.0209 17.6001 22.8 17.6001H18.8C18.5791 17.6001 18.4 17.7792 18.4 18.0001C18.4 18.221 18.5791 18.4001 18.8 18.4001H22.8C23.4627 18.4001 24 17.8628 24 17.2001V2.8001C24 2.13735 23.4627 1.6001 22.8 1.6001ZM23.2 4.8001H0.8V2.8001C0.8 2.5792 0.9791 2.4001 1.2 2.4001H22.8C23.0209 2.4001 23.2 2.5792 23.2 2.8001V4.8001Z" fill="white"/>
<path d="M11.6004 7.2002H2.80039C2.57949 7.2002 2.40039 7.3793 2.40039 7.6002C2.40039 7.8211 2.57949 8.0002 2.80039 8.0002H11.6004C11.8213 8.0002 12.0004 7.8211 12.0004 7.6002C12.0004 7.3793 11.8213 7.2002 11.6004 7.2002Z" fill="white"/>
</svg>
