<svg width="21" height="21" viewBox="0 0 21 21" fill="none" xmlns="http://www.w3.org/2000/svg">
<g clip-path="url(#clip0)">
<path d="M18.8171 1.80518H10.0306C9.01544 1.80518 8.18948 2.63113 8.18948 3.6463V9.28275L6.55801 8.47144C6.50293 8.44397 6.44693 8.41803 6.39047 8.39346C6.86945 7.89343 7.1647 7.21594 7.1647 6.47055C7.1647 4.93628 5.91653 3.68796 4.38226 3.68796C2.84784 3.68796 1.59967 4.93628 1.59967 6.47055C1.59967 7.30429 1.96878 8.05319 2.55167 8.5636C1.47821 9.16754 0.658203 10.3457 0.658203 11.8052V13.688C0.658203 14.4985 1.18448 15.1884 1.91339 15.4336V18.7089C1.91339 19.0323 2.17569 19.2948 2.49933 19.2948H6.26489C6.58853 19.2948 6.85083 19.0323 6.85083 18.7089V12.1255L8.72675 13.0633C9.44467 13.4221 10.4185 13.2082 10.8589 12.3911H12.9597L10.7351 18.5085C10.6245 18.8126 10.7815 19.1489 11.0856 19.2594C11.4332 19.3859 11.7423 19.1678 11.8365 18.9091L14.2066 12.3911H14.6174L17.0118 18.9109C17.1028 19.1582 17.4096 19.3889 17.7639 19.2588C18.0676 19.1472 18.2235 18.8106 18.1118 18.5068L15.8657 12.3911H18.8171C19.8126 12.3911 20.6582 11.588 20.6582 10.55V3.6463C20.6582 2.60809 19.8126 1.80518 18.8171 1.80518ZM2.77155 6.47055C2.77155 5.58234 3.49405 4.85983 4.38211 4.85983C5.27032 4.85983 5.99283 5.58234 5.99283 6.47055C5.99283 7.35861 5.27032 8.08112 4.38211 8.08112C3.49405 8.08112 2.77155 7.35861 2.77155 6.47055ZM9.85742 11.7646C9.8559 11.7689 9.85437 11.7733 9.853 11.7777C9.81302 11.8893 9.72269 11.9832 9.61206 12.0287C9.49503 12.0763 9.36334 12.0713 9.25089 12.0151C8.13669 11.4577 6.52673 10.6534 6.52673 10.6534C6.13794 10.459 5.67896 10.7422 5.67896 11.1776V18.1229H3.08527V14.9431C3.08527 14.6197 2.82281 14.3572 2.49933 14.3572C2.13022 14.3572 1.83008 14.0571 1.83008 13.688V11.8052C1.83008 10.3734 2.99585 9.25314 4.38211 9.25314H4.89984C5.2926 9.25314 5.68491 9.34531 6.0354 9.52032C6.0354 9.52032 8.94174 10.9656 9.68195 11.3343C9.84048 11.413 9.91586 11.598 9.85742 11.7646ZM19.4863 10.55C19.4863 10.729 19.4169 10.897 19.2906 11.0233C19.1662 11.1478 18.9936 11.2192 18.8171 11.2192H10.9863C10.9852 11.216 10.9844 11.2128 10.9834 11.2098L12.4375 8.30161C12.5822 8.01215 12.465 7.66028 12.1755 7.51547C11.8862 7.37082 11.5342 7.48801 11.3894 7.77747L10.1492 10.2578C9.918 10.1426 9.64929 10.0088 9.36136 9.86563V3.6463C9.36136 3.27734 9.6615 2.97705 10.0306 2.97705H18.8171C18.9936 2.97705 19.1662 3.04846 19.2907 3.17328C19.4169 3.29932 19.4863 3.46732 19.4863 3.6463V10.55Z" fill="#8F8F8F"/>
<path d="M17.5612 4.31555H11.2852C10.9615 4.31555 10.6992 4.57785 10.6992 4.90149C10.6992 5.22513 10.9615 5.48743 11.2852 5.48743H17.5612C17.8847 5.48743 18.1472 5.22513 18.1472 4.90149C18.1472 4.57785 17.8849 4.31555 17.5612 4.31555Z" fill="#8F8F8F"/>
<path d="M17.5619 6.51221H14.4238C14.1003 6.51221 13.8379 6.77451 13.8379 7.09814C13.8379 7.42178 14.1003 7.68408 14.4238 7.68408H17.5619C17.8854 7.68408 18.1479 7.42178 18.1479 7.09814C18.1479 6.77451 17.8856 6.51221 17.5619 6.51221Z" fill="#8F8F8F"/>
<path d="M17.5619 8.70886H14.4238C14.1003 8.70886 13.8379 8.97116 13.8379 9.2948C13.8379 9.61829 14.1003 9.88074 14.4238 9.88074H17.5619C17.8854 9.88074 18.1479 9.61829 18.1479 9.2948C18.1479 8.97116 17.8856 8.70886 17.5619 8.70886Z" fill="#8F8F8F"/>
</g>
<defs>
<clipPath id="clip0">
<rect width="20" height="20" fill="white" transform="translate(0.658203 0.555176)"/>
</clipPath>
</defs>
</svg>
