<svg width="21" height="21" viewBox="0 0 21 21" fill="none" xmlns="http://www.w3.org/2000/svg">
<g clip-path="url(#clip0)">
<path d="M10.6367 0.0551758C5.12282 0.0551758 0.636719 4.54127 0.636719 10.0552C0.636719 15.5691 5.12282 20.0552 10.6367 20.0552C16.1506 20.0552 20.6367 15.5691 20.6367 10.0552C20.6367 4.54127 16.1506 0.0551758 10.6367 0.0551758ZM10.6367 18.8052C5.81188 18.8052 1.88672 14.88 1.88672 10.0552C1.88672 5.23034 5.81188 1.30518 10.6367 1.30518C15.4616 1.30518 19.3867 5.23034 19.3867 10.0552C19.3867 14.88 15.4616 18.8052 10.6367 18.8052Z" fill="#8F8F8F"/>
<path d="M11.2617 3.80566H10.0117V10.3144L13.9448 14.2475L14.8286 13.3637L11.2617 9.79686V3.80566Z" fill="#8F8F8F"/>
</g>
<defs>
<clipPath id="clip0">
<rect width="20" height="20" fill="white" transform="translate(0.636719 0.0551758)"/>
</clipPath>
</defs>
</svg>
