<svg width="48" height="48" viewBox="0 0 48 48" fill="none" xmlns="http://www.w3.org/2000/svg">
<path d="M12.75 19.6875C10.4237 19.6875 8.53125 21.5799 8.53125 23.9062V35.3438C8.53125 37.6701 10.4237 39.5625 12.75 39.5625C15.0763 39.5625 16.9688 37.6701 16.9688 35.3438V23.9062C16.9688 21.5799 15.0763 19.6875 12.75 19.6875Z" fill="#0367B4"/>
<path d="M5.71875 23.9064C5.71875 23.5007 5.77228 23.1088 5.83856 22.7219C4.14375 23.2697 2.90625 24.844 2.90625 26.7189V32.5314C2.90625 34.4063 4.14375 35.9805 5.83856 36.5283C5.77228 36.1414 5.71875 35.7495 5.71875 35.3439V23.9064Z" fill="#0367B4"/>
<path d="M35.25 19.6875C32.9237 19.6875 31.0312 21.5799 31.0312 23.9062V35.3438C31.0312 37.6701 32.9237 39.5625 35.25 39.5625C35.6728 39.5625 36.0733 39.4811 36.4586 39.3649C35.9351 41.1001 34.3411 42.375 32.4375 42.375H27.9597C27.3773 40.7417 25.8309 39.5625 24 39.5625C21.6737 39.5625 19.7812 41.4549 19.7812 43.7812C19.7812 46.1076 21.6737 48 24 48C25.8309 48 27.3773 46.8208 27.9597 45.1875H32.4375C36.3143 45.1875 39.4688 42.0331 39.4688 38.1562V35.3438V23.9062C39.4688 21.5799 37.5763 19.6875 35.25 19.6875Z" fill="#0367B4"/>
<path d="M42.1602 22.7219C42.2264 23.1088 42.28 23.5007 42.28 23.9064V35.3439C42.28 35.7495 42.2264 36.1414 42.1602 36.5283C43.855 35.9805 45.0925 34.4063 45.0925 32.5314V26.7189C45.0925 24.844 43.855 23.2697 42.1602 22.7219Z" fill="#0367B4"/>
<path d="M24 0C12.3682 0 2.90625 9.462 2.90625 21.0938V21.1297C3.74409 20.4953 4.71347 20.0312 5.78316 19.8233C6.44044 10.336 14.3488 2.8125 24 2.8125C33.6512 2.8125 41.5596 10.336 42.2168 19.8232C43.2864 20.0311 44.2558 20.4953 45.0938 21.1296V21.0938C45.0938 9.462 35.6317 0 24 0Z" fill="#0367B4"/>
</svg>
