<svg width="48" height="48" viewBox="0 0 48 48" fill="none" xmlns="http://www.w3.org/2000/svg">
<path d="M0 33C0 35.3262 1.89253 37.2188 4.21875 37.2188H43.7812C46.1075 37.2188 48 35.3262 48 33V30.4688H0V33Z" fill="#8A88F3"/>
<path d="M37.125 45.1875H34.0508L33.6513 44.6881C32.5558 43.3188 31.7799 41.722 31.3693 40.0312H16.6306C16.2201 41.722 15.4442 43.3188 14.3486 44.6881L13.9492 45.1875H10.875C10.0984 45.1875 9.46875 45.8171 9.46875 46.5938C9.46875 47.3704 10.0984 48 10.875 48H37.125C37.9016 48 38.5312 47.3704 38.5312 46.5938C38.5312 45.8171 37.9016 45.1875 37.125 45.1875Z" fill="#8A88F3"/>
<path d="M11.8125 20.1562C13.1069 20.1562 14.1562 19.1069 14.1562 17.8125C14.1562 16.5181 13.1069 15.4688 11.8125 15.4688C10.5181 15.4688 9.46875 16.5181 9.46875 17.8125C9.46875 19.1069 10.5181 20.1562 11.8125 20.1562Z" fill="#8A88F3"/>
<path d="M7.59375 27.1875V27.6562H16.0312V27.1875C16.0312 24.8613 14.1387 22.9688 11.8125 22.9688C9.48628 22.9688 7.59375 24.8613 7.59375 27.1875Z" fill="#8A88F3"/>
<path d="M21.3203 8.90625H23.0612C23.8378 8.90625 24.4674 9.53587 24.4674 10.3125V21.0938H40.4049V7.03125H23.5703L21.3203 8.90625ZM28.6862 9.84375H36.1862C36.9628 9.84375 37.5924 10.4734 37.5924 11.25C37.5924 12.0266 36.9628 12.6562 36.1862 12.6562H28.6862C27.9095 12.6562 27.2799 12.0266 27.2799 11.25C27.2799 10.4734 27.9095 9.84375 28.6862 9.84375ZM28.6862 15.4688H36.1862C36.9628 15.4688 37.5924 16.0984 37.5924 16.875C37.5924 17.6516 36.9628 18.2812 36.1862 18.2812H28.6862C27.9095 18.2812 27.2799 17.6516 27.2799 16.875C27.2799 16.0984 27.9095 15.4688 28.6862 15.4688Z" fill="#8A88F3"/>
<path d="M43.7812 0H4.21875C1.89253 0 0 1.89253 0 4.21875V27.6562H4.78125V27.1875C4.78125 24.7141 6.06609 22.5366 8.00231 21.2828C7.16653 20.3661 6.65625 19.1478 6.65625 17.8125C6.65625 14.9693 8.96934 12.6562 11.8125 12.6562C14.6557 12.6562 16.9688 14.9693 16.9688 17.8125C16.9688 19.1478 16.4585 20.3661 15.6227 21.2828C17.5589 22.5366 18.8438 24.7141 18.8438 27.1875V27.6562H48V4.21875C48 1.89253 46.1075 0 43.7812 0ZM43.2188 22.5C43.2188 23.2766 42.5891 23.9062 41.8125 23.9062H23.0625C22.2859 23.9062 21.6562 23.2766 21.6562 22.5V11.7188H17.4375C16.8455 11.7188 16.3168 11.348 16.1152 10.7912C15.9137 10.2344 16.0824 9.61116 16.5372 9.23212L22.1622 4.54463C22.415 4.33406 22.7335 4.21875 23.0625 4.21875H41.8125C42.5891 4.21875 43.2188 4.84837 43.2188 5.625V22.5Z" fill="#8A88F3"/>
</svg>
