<svg width="48" height="48" viewBox="0 0 48 48" fill="none" xmlns="http://www.w3.org/2000/svg">
<g clip-path="url(#clip0)">
<path d="M17.4901 26.4815C17.4901 25.8802 17.0024 25.3931 16.4006 25.3931H12.5987C11.9976 25.3931 11.5098 25.8802 11.5098 26.4815V30.2829C11.5098 30.885 11.9976 31.3723 12.5987 31.3723H16.4006C17.0024 31.3723 17.4901 30.885 17.4901 30.2829V26.4815Z" fill="#FF6D34"/>
<path d="M26.9905 26.4815C26.9905 25.8802 26.5027 25.3931 25.9021 25.3931H22.0997C21.4986 25.3931 21.0107 25.8802 21.0107 26.4815V30.2829C21.0107 30.885 21.4986 31.3723 22.0997 31.3723H25.9021C26.5027 31.3723 26.9905 30.885 26.9905 30.2829V26.4815Z" fill="#FF6D34"/>
<path d="M36.493 26.4815C36.493 25.8802 36.0052 25.3931 35.4041 25.3931H31.6022C31.0004 25.3931 30.5127 25.8802 30.5127 26.4815V30.2829C30.5127 30.885 31.0004 31.3723 31.6022 31.3723H35.4041C36.0052 31.3723 36.493 30.885 36.493 30.2829V26.4815Z" fill="#FF6D34"/>
<path d="M17.4901 35.9838C17.4901 35.3815 17.0024 34.8948 16.4006 34.8948H12.5987C11.9976 34.8948 11.5098 35.3815 11.5098 35.9838V39.7845C11.5098 40.3862 11.9976 40.8734 12.5987 40.8734H16.4006C17.0024 40.8734 17.4901 40.3861 17.4901 39.7845V35.9838Z" fill="#FF6D34"/>
<path d="M26.9905 35.9838C26.9905 35.3815 26.5027 34.8948 25.9021 34.8948H22.0997C21.4986 34.8948 21.0107 35.3815 21.0107 35.9838V39.7845C21.0107 40.3862 21.4986 40.8734 22.0997 40.8734H25.9021C26.5027 40.8734 26.9905 40.3861 26.9905 39.7845V35.9838Z" fill="#FF6D34"/>
<path d="M36.493 35.9838C36.493 35.3815 36.0052 34.8948 35.4046 34.8948H31.6022C31.0004 34.8948 30.5127 35.3815 30.5127 35.9838V39.7845C30.5127 40.3862 31.0004 40.8734 31.6022 40.8734H35.4046C36.0052 40.8734 36.493 40.3861 36.493 39.7845V35.9838Z" fill="#FF6D34"/>
<path d="M43.2913 5.34458V11.151C43.2913 13.7754 41.1623 15.8903 38.5382 15.8903H35.5399C32.9156 15.8903 30.7584 13.7754 30.7584 11.151V5.32373H17.2439V11.151C17.2439 13.7754 15.0867 15.8903 12.4629 15.8903H9.46393C6.83999 15.8903 4.71105 13.7754 4.71105 11.151V5.34458C2.4177 5.4137 0.533203 7.31137 0.533203 9.64386V43.6721C0.533203 46.0484 2.45929 48 4.83563 48H43.1666C45.5394 48 47.4691 46.0444 47.4691 43.6721V9.64386C47.4691 7.31137 45.5847 5.4137 43.2913 5.34458ZM41.8987 41.553C41.8987 42.58 41.066 43.4131 40.0387 43.4131H7.8817C6.85435 43.4131 6.02169 42.58 6.02169 41.553V23.9763C6.02169 22.9489 6.85425 22.1157 7.8817 22.1157H40.0386C41.0659 22.1157 41.8986 22.9489 41.8986 23.9763L41.8987 41.553Z" fill="#FF6D34"/>
<path d="M9.45336 12.7775H12.4192C13.3194 12.7775 14.0493 12.0487 14.0493 11.1485V1.62962C14.0493 0.729314 13.3194 0 12.4192 0H9.45336C8.55305 0 7.82324 0.729314 7.82324 1.62962V11.1485C7.82324 12.0487 8.55305 12.7775 9.45336 12.7775Z" fill="#FF6D34"/>
<path d="M35.5021 12.7775H38.4679C39.3675 12.7775 40.0974 12.0487 40.0974 11.1485V1.62962C40.0975 0.729314 39.3676 0 38.4679 0H35.5021C34.602 0 33.8721 0.729314 33.8721 1.62962V11.1485C33.8721 12.0487 34.602 12.7775 35.5021 12.7775Z" fill="#FF6D34"/>
</g>
<defs>
<clipPath id="clip0">
<rect width="48" height="48" fill="white"/>
</clipPath>
</defs>
</svg>
