<svg width="48" height="48" viewBox="0 0 48 48" fill="none" xmlns="http://www.w3.org/2000/svg">
<path d="M43.7806 3.09058H29.8098C27.4832 3.09058 25.5904 4.98339 25.5904 7.30995V19.2929L24.4719 23.0212C24.1322 24.1535 24.5199 25.3486 25.4597 26.0657C25.9659 26.452 26.5635 26.6473 27.1639 26.6473C27.6781 26.6473 28.1944 26.504 28.6569 26.2149L31.1507 24.6563H43.7805C46.1071 24.6563 47.9999 22.7635 47.9999 20.4369V7.30995C48 4.98339 46.1072 3.09058 43.7806 3.09058ZM38.2485 18.6554H35.2481C34.4714 18.6554 33.8416 18.0257 33.8416 17.2489C33.8416 16.4722 34.4714 15.8425 35.2481 15.8425H38.2485C39.0253 15.8425 39.655 16.4722 39.655 17.2489C39.655 18.0257 39.0253 18.6554 38.2485 18.6554ZM40.4989 11.9044H32.9978C32.221 11.9044 31.5913 11.2747 31.5913 10.4979C31.5913 9.72119 32.221 9.09147 32.9978 9.09147H40.4989C41.2756 9.09147 41.9053 9.72119 41.9053 10.4979C41.9053 11.2747 41.2756 11.9044 40.4989 11.9044Z" fill="#212E5E"/>
<path d="M0 38.1582C0.148335 41.9058 3.24189 44.9092 7.02517 44.9092H40.9677C44.751 44.9092 47.8445 41.9058 47.9929 38.1582H0Z" fill="#212E5E"/>
<path d="M14.9954 26.344C15.8757 26.344 16.5893 25.6303 16.5893 24.75C16.5893 23.8697 15.8757 23.156 14.9954 23.156C14.115 23.156 13.4014 23.8697 13.4014 24.75C13.4014 25.6303 14.115 26.344 14.9954 26.344Z" fill="#212E5E"/>
<path d="M12.6514 30.751V35.3454H17.3396V30.751C17.3396 30.2623 16.9801 29.9017 16.7656 29.7302C16.3103 29.3659 15.6651 29.157 14.9955 29.157C13.7467 29.157 12.6514 29.9018 12.6514 30.751Z" fill="#212E5E"/>
<path d="M31.9572 27.4691L30.1475 28.6002C29.2475 29.1628 28.2156 29.4601 27.1636 29.4601C25.9253 29.4601 24.7459 29.0596 23.753 28.3019C22.8352 27.6015 22.1634 26.6559 21.8101 25.5673C21.4569 24.4787 21.4456 23.3187 21.7773 22.213L22.7772 18.8801V12.842H8.05629C5.72973 12.842 3.83691 14.7349 3.83691 17.0614V33.9389C3.83691 34.4319 3.92271 34.9051 4.07883 35.3454H9.8378V30.7509C9.8378 29.4554 10.4957 28.2888 11.5406 27.4818C10.9449 26.7302 10.5879 25.7813 10.5879 24.7501C10.5879 22.3201 12.5648 20.3431 14.9948 20.3431C17.4248 20.3431 19.4017 22.3201 19.4017 24.7501C19.4017 25.7801 19.0455 26.7281 18.451 27.4792C18.4747 27.4974 18.499 27.515 18.5222 27.5335C19.5578 28.362 20.1518 29.5347 20.1518 30.7508V35.3453H43.9135C44.0696 34.9051 44.1554 34.4318 44.1554 33.9388V27.4709C44.0136 27.4709 31.9572 27.4691 31.9572 27.4691Z" fill="#212E5E"/>
</svg>
