<svg width="48" height="48" viewBox="0 0 48 48" fill="none" xmlns="http://www.w3.org/2000/svg">
<path d="M48 15.2812V12.75C48 9.8505 45.6495 7.5 42.75 7.5H5.25C2.3505 7.5 0 9.8505 0 12.75V15.2812C0 15.5401 0.209906 15.75 0.46875 15.75H47.5312C47.7901 15.75 48 15.5401 48 15.2812Z" fill="#03B0A9"/>
<path d="M0 19.2188V35.25C0 38.1495 2.3505 40.5 5.25 40.5H42.75C45.6495 40.5 48 38.1495 48 35.25V19.2188C48 18.9599 47.7901 18.75 47.5312 18.75H0.46875C0.209906 18.75 0 18.9599 0 19.2188ZM12 31.5C12 32.3284 11.3284 33 10.5 33H9C8.17163 33 7.5 32.3284 7.5 31.5V30C7.5 29.1716 8.17163 28.5 9 28.5H10.5C11.3284 28.5 12 29.1716 12 30V31.5Z" fill="#03B0A9"/>
</svg>
