<svg width="36" height="36" viewBox="0 0 36 36" fill="none" xmlns="http://www.w3.org/2000/svg">
<rect width="36" height="36" rx="3" fill="#EAF4FC"/>
<path d="M17.4697 22.0303C17.5393 22.1 17.622 22.1552 17.713 22.1929C17.804 22.2306 17.9015 22.25 18 22.25C18.0985 22.25 18.1961 22.2306 18.2871 22.1929C18.3781 22.1552 18.4607 22.1 18.5304 22.0303L21.3588 19.2019C21.4994 19.0613 21.5785 18.8705 21.5785 18.6716C21.5785 18.4727 21.4994 18.2819 21.3588 18.1412C21.2181 18.0006 21.0274 17.9216 20.8285 17.9216C20.6295 17.9216 20.4388 18.0006 20.2981 18.1412L18.75 19.6893V11.5C18.75 11.3011 18.671 11.1103 18.5304 10.9697C18.3897 10.829 18.1989 10.75 18 10.75C17.8011 10.75 17.6104 10.829 17.4697 10.9697C17.3291 11.1103 17.25 11.3011 17.25 11.5V19.6893L15.7019 18.1412C15.5613 18.0006 15.3705 17.9216 15.1716 17.9216C14.9727 17.9216 14.7819 18.0006 14.6413 18.1412C14.5006 18.2819 14.4216 18.4727 14.4216 18.6716C14.4216 18.8705 14.5006 19.0613 14.6413 19.2019L17.4697 22.0303Z" fill="#0367B4"/>
<path d="M24.5 17.25C24.3011 17.25 24.1103 17.329 23.9697 17.4697C23.829 17.6103 23.75 17.8011 23.75 18V23.75H12.25V18C12.25 17.8011 12.171 17.6103 12.0303 17.4697C11.8897 17.329 11.6989 17.25 11.5 17.25C11.3011 17.25 11.1103 17.329 10.9697 17.4697C10.829 17.6103 10.75 17.8011 10.75 18V24C10.75 24.3315 10.8817 24.6495 11.1161 24.8839C11.3505 25.1183 11.6685 25.25 12 25.25H24C24.3315 25.25 24.6495 25.1183 24.8839 24.8839C25.1183 24.6495 25.25 24.3315 25.25 24V18C25.25 17.8011 25.171 17.6103 25.0303 17.4697C24.8897 17.329 24.6989 17.25 24.5 17.25Z" fill="#0367B4"/>
</svg>
