<svg width="12" height="12" viewBox="0 0 12 12" fill="none" xmlns="http://www.w3.org/2000/svg">
<circle cx="6" cy="6" r="6" fill="#FF6D34"/>
<g clip-path="url(#clip0)">
<path d="M7.77691 8.27156L7.68259 8.65711C7.39965 8.76878 7.17364 8.85378 7.00534 8.91222C6.83685 8.97084 6.64109 9 6.41804 9C6.07551 9 5.80908 8.91609 5.61906 8.74942C5.42904 8.58209 5.334 8.37005 5.334 8.11282C5.334 8.01324 5.3409 7.91082 5.35524 7.80647C5.3697 7.70199 5.39268 7.58432 5.42414 7.45281L5.77774 6.20126C5.8092 6.08141 5.83594 5.96786 5.85736 5.86048C5.87907 5.75377 5.88954 5.65558 5.88954 5.5672C5.88954 5.40736 5.85645 5.29557 5.79057 5.23271C5.72469 5.17004 5.59898 5.13822 5.41235 5.13822C5.32094 5.13822 5.22698 5.15286 5.13122 5.18117C5.03503 5.2096 4.95282 5.23707 4.88379 5.2626L4.97834 4.87675C5.20999 4.78244 5.4314 4.70167 5.6432 4.63464C5.855 4.56743 6.05512 4.5338 6.24441 4.5338C6.58458 4.5338 6.84708 4.61601 7.03141 4.78044C7.21574 4.94499 7.30788 5.1583 7.30788 5.42116C7.30788 5.47554 7.30183 5.57137 7.28882 5.70833C7.27612 5.8456 7.25246 5.97137 7.21798 6.08577L6.86589 7.3323C6.83703 7.43242 6.81108 7.54688 6.78852 7.67567C6.76523 7.80362 6.75409 7.90139 6.75409 7.96696C6.75409 8.13248 6.791 8.24549 6.86498 8.30556C6.93952 8.36564 7.06789 8.39552 7.25022 8.39552C7.33583 8.39552 7.43323 8.38034 7.54145 8.35051C7.64938 8.32069 7.72808 8.29449 7.77691 8.27156ZM7.8662 3.03827C7.8662 3.25545 7.78435 3.44093 7.61986 3.59344C7.45579 3.7465 7.25809 3.82309 7.02681 3.82309C6.79481 3.82309 6.59662 3.7465 6.43068 3.59344C6.26504 3.44087 6.18204 3.25545 6.18204 3.03827C6.18204 2.82151 6.26504 2.63572 6.43068 2.48128C6.59632 2.32707 6.79487 2.25 7.02681 2.25C7.25803 2.25 7.45579 2.32725 7.61986 2.48128C7.78447 2.63572 7.8662 2.82157 7.8662 3.03827Z" fill="white"/>
</g>
<defs>
<clipPath id="clip0">
<rect width="6.75" height="6.75" fill="white" transform="translate(3 2.25)"/>
</clipPath>
</defs>
</svg>
