<svg width="32" height="33" viewBox="0 0 32 33" fill="none" xmlns="http://www.w3.org/2000/svg">
<rect y="0.667969" width="32" height="32" rx="6" fill="#066AB6"/>
<g clip-path="url(#clip0)">
<rect x="5.3335" y="6.00131" width="21.3333" height="21.3333" rx="6" fill="#066AB6"/>
<path d="M16.0063 9.17709C15.6611 9.17709 15.3813 8.89731 15.3813 8.55209V6.62631C15.3813 6.2811 15.6611 6.00131 16.0063 6.00131C16.3516 6.00131 16.6313 6.2811 16.6313 6.62631V8.55209C16.6313 8.89731 16.3516 9.17709 16.0063 9.17709Z" fill="white"/>
<path d="M24.6826 12.4559C24.5229 12.4559 24.3631 12.3951 24.2412 12.2733C23.9968 12.0295 23.9964 11.6338 24.2402 11.3895L25.5994 10.0277C25.8432 9.78342 26.239 9.78309 26.4834 10.0269C26.7277 10.2707 26.728 10.6664 26.4842 10.9107L25.1249 12.2725C25.0029 12.3947 24.8427 12.4559 24.6826 12.4559Z" fill="white"/>
<path d="M7.31773 12.4559C7.15757 12.4559 6.99742 12.3949 6.87535 12.2725L5.51613 10.9107C5.27232 10.6664 5.27264 10.2707 5.51695 10.0269C5.76125 9.78309 6.15708 9.78342 6.4009 10.0277L7.76011 11.3895C8.00393 11.6338 8.00344 12.0295 7.75914 12.2733C7.63723 12.3951 7.4774 12.4559 7.31773 12.4559Z" fill="white"/>
<path d="M21.3221 17.3556C21.2137 20.1976 18.8683 22.4762 16.0005 22.4762C13.1174 22.4762 10.7622 20.1735 10.6772 17.3107C10.5646 17.4166 10.4526 17.5247 10.3416 17.6351L10.3397 17.637C10.124 17.8582 8.52165 19.4908 7.83057 20.0586C8.04264 20.2506 8.26709 20.4458 8.50309 20.6414C9.59847 21.5486 10.7168 22.2731 11.827 22.7947C13.2391 23.4583 14.6432 23.7946 16.0005 23.7946C17.3577 23.7946 18.7619 23.4583 20.174 22.7947C21.2843 22.2731 22.4027 21.5486 23.498 20.6414C23.7163 20.4606 23.9243 20.2801 24.1222 20.102C22.95 18.9435 21.9613 17.9739 21.3221 17.3556Z" fill="white"/>
<path d="M19.9548 16.1619C18.1724 14.8426 16.8363 14.5476 16.0003 14.5476C15.168 14.5476 13.832 14.8406 12.0457 16.1621C11.9666 16.4785 11.9243 16.8095 11.9243 17.1502C11.9243 19.3977 13.7528 21.226 16.0003 21.226C18.2477 21.226 20.0762 19.3976 20.0762 17.1502C20.0762 16.8095 20.034 16.4785 19.9548 16.1619ZM16.5951 17.4002C16.5951 17.7454 16.3151 18.0252 15.9701 18.0252C15.6248 18.0252 15.3451 17.7454 15.3451 17.4002V16.783C15.3451 16.4378 15.6248 16.158 15.9701 16.158C16.3151 16.158 16.5951 16.4378 16.5951 16.783V17.4002Z" fill="white"/>
<path d="M23.3707 13.5556C22.316 12.6969 21.2411 12.0073 20.1737 11.5058C18.7616 10.8424 17.3575 10.506 16.0002 10.506C14.643 10.506 13.2388 10.8424 11.8267 11.5058C10.7553 12.0092 9.67648 12.7019 8.61789 13.5651C7.82736 14.2389 6.88172 15.1847 6.06222 16.0428C5.69048 16.4702 5.48003 16.7496 5.46017 16.7763C5.36186 16.908 5.32231 17.0688 5.34087 17.2244L5.34249 17.2374C5.35665 17.339 5.39572 17.4378 5.46017 17.5242C5.49207 17.567 6.016 18.2631 6.91525 19.1795C6.93104 19.1704 6.94682 19.1621 6.96261 19.1523C7.23849 18.9819 9.15679 17.0719 9.44959 16.7592L9.45464 16.7537L9.45985 16.7485C9.86707 16.3435 10.2875 15.9635 10.7092 15.6188C12.0044 14.5599 13.9738 13.2976 16.0001 13.2976C17.1358 13.2976 18.9895 13.7119 21.3713 15.6847C21.697 15.9544 24.0224 18.2459 25.0267 19.2387C25.9618 18.2933 26.5075 17.5678 26.5401 17.5242C26.7058 17.3024 26.7058 16.9982 26.5401 16.7763C26.5181 16.7467 26.261 16.4049 25.8075 15.8943C24.9193 14.9899 24.0253 14.1152 23.3707 13.5556Z" fill="white"/>
</g>
<defs>
<clipPath id="clip0">
<rect x="5.3335" y="6.00131" width="21.3333" height="21.3333" rx="6" fill="white"/>
</clipPath>
</defs>
</svg>
