<svg width="24" height="24" viewBox="0 0 24 24" fill="none" xmlns="http://www.w3.org/2000/svg">
<rect width="24" height="24" rx="12" fill="url(#paint0_linear)"/>
<g clip-path="url(#clip0)">
<path d="M9.66519 19H12.8894C13.7891 19 14.6216 18.4775 15.062 17.6315L17.851 12.2751L17.6936 12.1462C17.6906 12.1436 17.6877 12.1411 17.6848 12.1385C17.4425 11.9105 17.1164 11.7935 16.7845 11.8156C16.4455 11.8414 16.1325 12.007 15.9203 12.2728L15.1158 13.2522C15.0541 13.3272 14.9519 13.3555 14.8604 13.3227C14.7688 13.2899 14.7077 13.2033 14.7076 13.1061L14.703 6.36816C14.7026 5.90892 14.3605 5.53539 13.9403 5.53539C13.5294 5.53539 13.1937 5.89158 13.1781 6.33617C13.1781 7.01668 13.1777 7.75745 13.1776 8.46251C13.1773 10.0571 13.1771 11.4334 13.1776 11.5669C13.1779 11.6279 13.1537 11.6863 13.1107 11.7294C13.0675 11.7723 13.009 11.7963 12.9481 11.7961H12.9473C12.8866 11.7966 12.8282 11.7728 12.7849 11.7301C12.7417 11.6875 12.7173 11.6293 12.7171 11.5686C12.7166 11.4342 12.7168 10.0587 12.7171 8.46328C12.7171 7.77506 12.7173 7.0524 12.7175 6.38525C12.7171 6.37986 12.7168 6.37485 12.7168 6.36945C12.7168 6.35634 12.7171 6.34375 12.7175 6.33064C12.7175 5.77053 12.7175 5.25321 12.7175 4.82969C12.7177 4.37058 12.3755 4 11.9551 4H11.9317C11.5113 4 11.1624 4.36762 11.1624 4.82712V11.5696C11.1624 11.6967 11.0592 11.7999 10.9321 11.7999C10.8049 11.7999 10.7019 11.6967 10.7019 11.5696V5.69883C10.7019 5.23933 10.3669 4.86554 9.94646 4.86554C9.52359 4.86554 9.18873 5.23933 9.18873 5.69883V11.5696C9.18873 11.6967 9.08555 11.7999 8.95847 11.7999C8.83126 11.7999 8.7282 11.6967 8.7282 11.5696V8.10902C8.7282 7.64939 8.37857 7.28947 7.958 7.28947H7.93603C7.51662 7.28947 7.17444 7.65376 7.17341 8.11184C7.16904 10.0029 7.17174 13.337 7.17457 16.3214C7.17585 17.8001 8.29325 19 9.66519 19Z" fill="white"/>
</g>
<defs>
<linearGradient id="paint0_linear" x1="11.9998" y1="20.0377" x2="11.9998" y2="-2.38868e-05" gradientUnits="userSpaceOnUse">
<stop stop-color="#1071FF"/>
<stop offset="1" stop-color="#4E8FFC"/>
</linearGradient>
<clipPath id="clip0">
<rect width="15" height="15" fill="white" transform="translate(5 4)"/>
</clipPath>
</defs>
</svg>
