<svg width="24" height="24" viewBox="0 0 24 24" fill="none" xmlns="http://www.w3.org/2000/svg">
<path d="M22.875 14.25C22.875 20.2561 18.0061 22.875 12 22.875C5.99391 22.875 1.125 20.2561 1.125 14.25C1.125 8.24391 5.99391 1.125 12 1.125C18.0061 1.125 22.875 8.24391 22.875 14.25Z" fill="#FFC70D"/>
<path d="M12 21.375C6.24628 21.375 1.53933 18.9693 1.15364 13.4871C1.13672 13.7428 1.125 13.9976 1.125 14.25C1.125 20.2561 5.99391 22.875 12 22.875C18.0061 22.875 22.875 20.2561 22.875 14.25C22.875 13.9976 22.8633 13.7428 22.8464 13.4871C22.4607 18.9693 17.7537 21.375 12 21.375Z" fill="#F89F00"/>
<path d="M17.25 10.125C17.25 12.6103 14.8995 14.625 12 14.625C9.1005 14.625 6.75 12.6103 6.75 10.125H17.25Z" fill="white"/>
<path d="M12 0.75C5.7682 0.75 0.75 8.13539 0.75 14.25C0.75 19.8856 4.95558 23.25 12 23.25C19.0444 23.25 23.25 19.8856 23.25 14.25C23.25 8.13539 18.2318 0.75 12 0.75ZM12 22.5C5.42541 22.5 1.5 19.4156 1.5 14.25C1.5 8.475 6.18384 1.5 12 1.5C17.8162 1.5 22.5 8.475 22.5 14.25C22.5 19.4156 18.5746 22.5 12 22.5Z" fill="black"/>
<path d="M7.125 9C7.22446 9 7.31984 8.96049 7.39017 8.89017C7.46049 8.81984 7.5 8.72446 7.5 8.625C7.5 8.52554 7.53951 8.43016 7.60983 8.35983C7.68016 8.28951 7.77554 8.25 7.875 8.25C7.97446 8.25 8.06984 8.28951 8.14017 8.35983C8.21049 8.43016 8.25 8.52554 8.25 8.625C8.25 8.72446 8.28951 8.81984 8.35983 8.89017C8.43016 8.96049 8.52554 9 8.625 9C8.72446 9 8.81984 8.96049 8.89017 8.89017C8.96049 8.81984 9 8.72446 9 8.625C9 8.32663 8.88147 8.04048 8.6705 7.8295C8.45952 7.61853 8.17337 7.5 7.875 7.5C7.57663 7.5 7.29048 7.61853 7.0795 7.8295C6.86853 8.04048 6.75 8.32663 6.75 8.625C6.75 8.72446 6.78951 8.81984 6.85983 8.89017C6.93016 8.96049 7.02554 9 7.125 9Z" fill="black"/>
<path d="M15.375 9C15.4745 9 15.5698 8.96049 15.6402 8.89017C15.7105 8.81984 15.75 8.72446 15.75 8.625C15.75 8.52554 15.7895 8.43016 15.8598 8.35983C15.9302 8.28951 16.0255 8.25 16.125 8.25C16.2245 8.25 16.3198 8.28951 16.3902 8.35983C16.4605 8.43016 16.5 8.52554 16.5 8.625C16.5 8.72446 16.5395 8.81984 16.6098 8.89017C16.6802 8.96049 16.7755 9 16.875 9C16.9745 9 17.0698 8.96049 17.1402 8.89017C17.2105 8.81984 17.25 8.72446 17.25 8.625C17.25 8.32663 17.1315 8.04048 16.9205 7.8295C16.7095 7.61853 16.4234 7.5 16.125 7.5C15.8266 7.5 15.5405 7.61853 15.3295 7.8295C15.1185 8.04048 15 8.32663 15 8.625C15 8.72446 15.0395 8.81984 15.1098 8.89017C15.1802 8.96049 15.2755 9 15.375 9Z" fill="black"/>
<path d="M17.25 9.75H6.75C6.65054 9.75 6.55516 9.78951 6.48483 9.85983C6.41451 9.93016 6.375 10.0255 6.375 10.125C6.375 12.813 8.89819 15 12 15C15.1018 15 17.625 12.813 17.625 10.125C17.625 10.0255 17.5855 9.93016 17.5152 9.85983C17.4448 9.78951 17.3495 9.75 17.25 9.75ZM12 14.25C9.46106 14.25 7.36964 12.5995 7.14516 10.5H16.8548C16.6304 12.5995 14.5389 14.25 12 14.25Z" fill="black"/>
</svg>
