<svg width="24" height="24" viewBox="0 0 24 24" fill="none" xmlns="http://www.w3.org/2000/svg">
<path d="M22.875 14.25C22.875 20.2561 18.0061 22.875 12 22.875C5.99391 22.875 1.125 20.2561 1.125 14.25C1.125 8.24391 5.99391 1.125 12 1.125C18.0061 1.125 22.875 8.24391 22.875 14.25Z" fill="url(#paint0_linear)"/>
<path d="M12 21.375C6.24628 21.375 1.53933 18.9693 1.15364 13.4871C1.13672 13.7428 1.125 13.9976 1.125 14.25C1.125 20.2561 5.99391 22.875 12 22.875C18.0061 22.875 22.875 20.2561 22.875 14.25C22.875 13.9976 22.8633 13.7428 22.8464 13.4871C22.4607 18.9693 17.7537 21.375 12 21.375Z" fill="#F89F00"/>
<path d="M7.1992 8.2337C7.15114 8.35862 7.126 8.49118 7.125 8.62502C7.12489 8.88416 7.21428 9.13539 7.37806 9.33622C7.54183 9.53705 7.76993 9.67516 8.02379 9.7272C8.27766 9.77923 8.5417 9.742 8.77128 9.6218C9.00086 9.5016 9.18188 9.3058 9.28374 9.06752L7.1992 8.2337Z" fill="white"/>
<path d="M14.7158 9.06752C14.8177 9.3058 14.9987 9.5016 15.2283 9.6218C15.4579 9.742 15.7219 9.77923 15.9758 9.7272C16.2296 9.67516 16.4577 9.53705 16.6215 9.33622C16.7853 9.13539 16.8747 8.88416 16.8746 8.62502C16.8736 8.49118 16.8485 8.35862 16.8004 8.2337L14.7158 9.06752Z" fill="white"/>
<path d="M8.25 9C8.45711 9 8.625 8.83211 8.625 8.625C8.625 8.41789 8.45711 8.25 8.25 8.25C8.04289 8.25 7.875 8.41789 7.875 8.625C7.875 8.83211 8.04289 9 8.25 9Z" fill="white"/>
<path d="M15.75 9C15.9571 9 16.125 8.83211 16.125 8.625C16.125 8.41789 15.9571 8.25 15.75 8.25C15.5429 8.25 15.375 8.41789 15.375 8.625C15.375 8.83211 15.5429 9 15.75 9Z" fill="white"/>
<path d="M12 10.125C11.7468 10.126 11.4948 10.159 11.25 10.2234V13.125H12.75V10.2234C12.5052 10.159 12.2532 10.126 12 10.125Z" fill="white"/>
<path d="M13.5 10.5297V13.1251H15C14.9999 12.5988 14.8612 12.0819 14.5979 11.6263C14.3346 11.1707 13.9559 10.7925 13.5 10.5297Z" fill="white"/>
<path d="M9 13.1251H10.5V10.5297C10.0441 10.7925 9.66543 11.1707 9.40211 11.6263C9.13879 12.0819 9.0001 12.5988 9 13.1251Z" fill="white"/>
<path d="M17.4857 7.15178L13.7357 8.65178C13.69 8.67007 13.6483 8.69718 13.6131 8.73158C13.5779 8.76597 13.5497 8.80697 13.5303 8.85224C13.5109 8.8975 13.5006 8.94614 13.5 8.99538C13.4994 9.04463 13.5085 9.09351 13.5268 9.13923C13.5451 9.18495 13.5722 9.22663 13.6066 9.26187C13.641 9.29712 13.682 9.32525 13.7273 9.34465C13.7725 9.36405 13.8212 9.37434 13.8704 9.37494C13.9197 9.37554 13.9685 9.36644 14.0143 9.34815L14.7158 9.06751C14.8178 9.30568 14.9989 9.50135 15.2285 9.62145C15.4581 9.74156 15.7221 9.77874 15.9759 9.72672C16.2297 9.67469 16.4578 9.53665 16.6216 9.33592C16.7854 9.13519 16.8749 8.88406 16.875 8.62497C16.8749 8.49093 16.8504 8.35802 16.8028 8.23272L17.7643 7.84834C17.81 7.83006 17.8517 7.80294 17.8869 7.76855C17.9222 7.73415 17.9503 7.69315 17.9697 7.64789C17.9891 7.60262 17.9994 7.55398 18 7.50474C18.0006 7.4555 17.9915 7.40662 17.9732 7.36089C17.9549 7.31517 17.9278 7.27349 17.8934 7.23825C17.859 7.203 17.818 7.17488 17.7727 7.15548C17.7275 7.13608 17.6788 7.12578 17.6296 7.12518C17.5803 7.12458 17.5315 7.13368 17.4857 7.15197V7.15178ZM16.125 8.62497C16.1251 8.70981 16.0964 8.79216 16.0436 8.85856C15.9907 8.92496 15.917 8.97146 15.8343 8.99047C15.7516 9.00948 15.6649 8.99986 15.5884 8.96319C15.5119 8.92652 15.4501 8.86497 15.4131 8.78861L16.1063 8.51134C16.1186 8.54795 16.125 8.58632 16.125 8.62497Z" fill="black"/>
<path d="M9.28417 9.06755L9.98575 9.34819C10.0781 9.38512 10.1813 9.38386 10.2727 9.34468C10.3642 9.3055 10.4363 9.23161 10.4732 9.13927C10.5101 9.04692 10.5089 8.94369 10.4697 8.85227C10.4305 8.76086 10.3566 8.68875 10.2643 8.65181L6.51427 7.15182C6.46855 7.13353 6.41967 7.12443 6.37043 7.12503C6.32118 7.12563 6.27254 7.13592 6.22728 7.15532C6.18201 7.17472 6.14101 7.20285 6.10662 7.2381C6.07222 7.27334 6.04511 7.31502 6.02682 7.36074C6.00853 7.40646 5.99943 7.45534 6.00003 7.50459C6.00063 7.55383 6.01092 7.60247 6.03032 7.64773C6.04972 7.693 6.07785 7.734 6.1131 7.76839C6.14834 7.80279 6.19002 7.8299 6.23574 7.84819L7.19719 8.23257C7.14958 8.35793 7.12512 8.4909 7.12501 8.625C7.12509 8.8841 7.21459 9.13522 7.37841 9.33596C7.54222 9.53669 7.7703 9.67473 8.02412 9.72675C8.27794 9.77877 8.54193 9.74159 8.77151 9.62149C9.00109 9.50138 9.18217 9.30572 9.28417 9.06755ZM8.25001 9C8.15059 8.99989 8.05527 8.96034 7.98497 8.89004C7.91467 8.81974 7.87512 8.72442 7.87501 8.625C7.87504 8.58636 7.88137 8.54798 7.89376 8.51138L8.5869 8.78864C8.55621 8.85192 8.50835 8.90529 8.44878 8.94266C8.38921 8.98003 8.32033 8.9999 8.25001 9Z" fill="black"/>
<path d="M12 9.75C11.1052 9.751 10.2473 10.1069 9.61462 10.7396C8.98191 11.3723 8.626 12.2302 8.625 13.125C8.625 13.2245 8.66451 13.3198 8.73483 13.3902C8.80516 13.4605 8.90054 13.5 9 13.5H15C15.0995 13.5 15.1948 13.4605 15.2652 13.3902C15.3355 13.3198 15.375 13.2245 15.375 13.125C15.374 12.2302 15.0181 11.3723 14.3854 10.7396C13.7527 10.1069 12.8948 9.751 12 9.75ZM12.75 10.6097V12.75H11.25V10.6097C11.7393 10.4634 12.2607 10.4634 12.75 10.6097ZM10.5 10.9726V12.75H9.40172C9.45351 12.3944 9.5777 12.0532 9.76661 11.7475C9.95552 11.4418 10.2051 11.178 10.5 10.9726ZM13.5 12.75V10.9726C13.7949 11.178 14.0445 11.4418 14.2334 11.7475C14.4223 12.0532 14.5465 12.3944 14.5983 12.75H13.5Z" fill="black"/>
<path d="M12 0.75C5.7682 0.75 0.75 8.13539 0.75 14.25C0.75 19.8855 4.95558 23.25 12 23.25C19.0444 23.25 23.25 19.8855 23.25 14.25C23.25 8.13539 18.2318 0.75 12 0.75ZM12 22.5C5.42541 22.5 1.5 19.416 1.5 14.25C1.5 8.475 6.18384 1.5 12 1.5C17.8162 1.5 22.5 8.475 22.5 14.25C22.5 19.416 18.5746 22.5 12 22.5Z" fill="black"/>
<defs>
<linearGradient id="paint0_linear" x1="12" y1="22.875" x2="12" y2="1.125" gradientUnits="userSpaceOnUse">
<stop stop-color="#FFC70D"/>
<stop offset="1" stop-color="#E42E3D"/>
</linearGradient>
</defs>
</svg>
