<svg width="24" height="24" viewBox="0 0 24 24" fill="none" xmlns="http://www.w3.org/2000/svg">
<path d="M22.875 14.25C22.875 20.2561 18.0061 22.875 12 22.875C5.99391 22.875 1.125 20.2561 1.125 14.25C1.125 8.24391 5.99391 1.125 12 1.125C18.0061 1.125 22.875 8.24391 22.875 14.25Z" fill="#FFC70D"/>
<path d="M12 21.375C6.24628 21.375 1.53933 18.9693 1.15364 13.4871C1.13672 13.7428 1.125 13.9976 1.125 14.25C1.125 20.2561 5.99391 22.875 12 22.875C18.0061 22.875 22.875 20.2561 22.875 14.25C22.875 13.9976 22.8633 13.7428 22.8464 13.4871C22.4607 18.9693 17.7537 21.375 12 21.375Z" fill="#F89F00"/>
<path d="M12 0.75C5.7682 0.75 0.75 8.13539 0.75 14.25C0.75 19.8856 4.95558 23.25 12 23.25C19.0444 23.25 23.25 19.8856 23.25 14.25C23.25 8.13539 18.2318 0.75 12 0.75ZM12 22.5C5.42522 22.5 1.5 19.4156 1.5 14.25C1.5 8.475 6.18366 1.5 12 1.5C17.8163 1.5 22.5 8.475 22.5 14.25C22.5 19.4156 18.5748 22.5 12 22.5Z" fill="black"/>
<path d="M16.5 7.5H15C14.9005 7.5 14.8052 7.53951 14.7348 7.60983C14.6645 7.68016 14.625 7.77554 14.625 7.875C14.625 7.97446 14.6645 8.06984 14.7348 8.14017C14.8052 8.21049 14.9005 8.25 15 8.25H16.5C16.5995 8.25 16.6948 8.21049 16.7652 8.14017C16.8355 8.06984 16.875 7.97446 16.875 7.875C16.875 7.77554 16.8355 7.68016 16.7652 7.60983C16.6948 7.53951 16.5995 7.5 16.5 7.5Z" fill="black"/>
<path d="M9 7.5H7.5C7.40054 7.5 7.30516 7.53951 7.23483 7.60983C7.16451 7.68016 7.125 7.77554 7.125 7.875C7.125 7.97446 7.16451 8.06984 7.23483 8.14017C7.30516 8.21049 7.40054 8.25 7.5 8.25H9C9.09946 8.25 9.19484 8.21049 9.26517 8.14017C9.33549 8.06984 9.375 7.97446 9.375 7.875C9.375 7.77554 9.33549 7.68016 9.26517 7.60983C9.19484 7.53951 9.09946 7.5 9 7.5Z" fill="black"/>
<path d="M13.3327 11.313C13.2712 11.2718 13.1988 11.2498 13.1247 11.2498C13.0506 11.2498 12.9782 11.2718 12.9167 11.313L11.9997 11.9242L11.0827 11.313C11.0212 11.2718 10.9488 11.2498 10.8747 11.2498C10.8006 11.2498 10.7282 11.2718 10.6667 11.313L9.54168 12.063C9.50042 12.0902 9.46494 12.1253 9.43729 12.1662C9.40963 12.2072 9.39034 12.2532 9.38052 12.3016C9.3707 12.3501 9.37056 12.4 9.38008 12.4484C9.38961 12.4969 9.40863 12.5431 9.43604 12.5842C9.46346 12.6253 9.49872 12.6606 9.53982 12.688C9.58091 12.7155 9.62703 12.7345 9.67551 12.7441C9.72399 12.7536 9.77388 12.7535 9.82232 12.7437C9.87075 12.7339 9.91678 12.7147 9.95774 12.687L10.8747 12.0758L11.7917 12.687C11.8532 12.7282 11.9256 12.7502 11.9997 12.7502C12.0738 12.7502 12.1462 12.7282 12.2077 12.687L13.1247 12.0758L14.0417 12.687C14.1244 12.7416 14.2254 12.7611 14.3225 12.7414C14.4197 12.7218 14.5051 12.6644 14.5601 12.582C14.615 12.4995 14.6351 12.3986 14.616 12.3014C14.5968 12.2041 14.5399 12.1184 14.4577 12.063L13.3327 11.313Z" fill="black"/>
<path d="M8.13936 9.10991C8.06864 9.0416 7.97391 9.0038 7.87559 9.00465C7.77726 9.00551 7.68321 9.04495 7.61368 9.11447C7.54415 9.184 7.50471 9.27806 7.50386 9.37638C7.503 9.47471 7.5408 9.56943 7.60911 9.64016L8.09399 10.125L7.60911 10.6099C7.5733 10.6445 7.54473 10.6859 7.52507 10.7316C7.50542 10.7774 7.49508 10.8266 7.49464 10.8764C7.49421 10.9262 7.5037 10.9756 7.52255 11.0216C7.54141 11.0677 7.56925 11.1096 7.60446 11.1448C7.63967 11.18 7.68154 11.2079 7.72763 11.2267C7.77372 11.2456 7.82309 11.2551 7.87289 11.2546C7.92268 11.2542 7.97189 11.2439 8.01764 11.2242C8.06339 11.2045 8.10477 11.176 8.13936 11.1402L8.88936 10.3902C8.95966 10.3198 8.99915 10.2245 8.99915 10.125C8.99915 10.0256 8.95966 9.93023 8.88936 9.85991L8.13936 9.10991Z" fill="black"/>
<path d="M16.39 9.10989C16.3197 9.03958 16.2244 9.00009 16.1249 9.00009C16.0255 9.00009 15.9301 9.03958 15.8598 9.10989L15.1098 9.85988C15.0395 9.93021 15 10.0256 15 10.125C15 10.2244 15.0395 10.3198 15.1098 10.3901L15.8598 11.1401C15.9305 11.2084 16.0252 11.2462 16.1236 11.2454C16.2219 11.2445 16.3159 11.2051 16.3855 11.1356C16.455 11.066 16.4944 10.972 16.4953 10.8737C16.4962 10.7753 16.4584 10.6806 16.39 10.6099L15.9052 10.125L16.39 9.64014C16.4603 9.56981 16.4998 9.47445 16.4998 9.37501C16.4998 9.27557 16.4603 9.18021 16.39 9.10989Z" fill="black"/>
</svg>
