<svg width="24" height="24" viewBox="0 0 24 24" fill="none" xmlns="http://www.w3.org/2000/svg">
<path d="M22.875 14.25C22.875 20.2561 18.0061 22.875 12 22.875C5.99391 22.875 1.125 20.2561 1.125 14.25C1.125 8.24391 5.99391 1.125 12 1.125C18.0061 1.125 22.875 8.24391 22.875 14.25Z" fill="#FFC70D"/>
<path d="M12 21.375C6.24628 21.375 1.53933 18.9693 1.15364 13.4871C1.13672 13.7428 1.125 13.9976 1.125 14.25C1.125 20.2561 5.99391 22.875 12 22.875C18.0061 22.875 22.875 20.2561 22.875 14.25C22.875 13.9976 22.8633 13.7428 22.8464 13.4871C22.4607 18.9693 17.7537 21.375 12 21.375Z" fill="#F89F00"/>
<path d="M12 21.375C6.24628 21.375 1.53933 18.9693 1.15364 13.4871C1.13672 13.7428 1.125 13.9976 1.125 14.25C1.125 20.2561 5.99391 22.875 12 22.875C18.0061 22.875 22.875 20.2561 22.875 14.25C22.875 13.9976 22.8633 13.7428 22.8464 13.4871C22.4607 18.9693 17.7537 21.375 12 21.375Z" fill="#F89F00"/>
<path d="M4.5 11.625C5.12132 11.625 5.625 11.2892 5.625 10.875C5.625 10.4608 5.12132 10.125 4.5 10.125C3.87868 10.125 3.375 10.4608 3.375 10.875C3.375 11.2892 3.87868 11.625 4.5 11.625Z" fill="#F597A4"/>
<path d="M19.5 11.625C20.1213 11.625 20.625 11.2892 20.625 10.875C20.625 10.4608 20.1213 10.125 19.5 10.125C18.8787 10.125 18.375 10.4608 18.375 10.875C18.375 11.2892 18.8787 11.625 19.5 11.625Z" fill="#F597A4"/>
<path d="M12 0.75C5.7682 0.75 0.75 8.13539 0.75 14.25C0.75 19.8855 4.95558 23.25 12 23.25C19.0444 23.25 23.25 19.8855 23.25 14.25C23.25 8.13539 18.2318 0.75 12 0.75ZM12 22.5C5.42541 22.5 1.5 19.416 1.5 14.25C1.5 8.475 6.18384 1.5 12 1.5C17.8162 1.5 22.5 8.475 22.5 14.25C22.5 19.416 18.5746 22.5 12 22.5Z" fill="black"/>
<path d="M7.5 9C7.59946 9 7.69484 8.96049 7.76517 8.89017C7.83549 8.81984 7.875 8.72446 7.875 8.625C7.875 8.52554 7.91451 8.43016 7.98483 8.35983C8.05516 8.28951 8.15054 8.25 8.25 8.25C8.34946 8.25 8.44484 8.28951 8.51517 8.35983C8.58549 8.43016 8.625 8.52554 8.625 8.625C8.625 8.72446 8.66451 8.81984 8.73483 8.89017C8.80516 8.96049 8.90054 9 9 9C9.09946 9 9.19484 8.96049 9.26517 8.89017C9.33549 8.81984 9.375 8.72446 9.375 8.625C9.375 8.32663 9.25647 8.04048 9.0455 7.8295C8.83452 7.61853 8.54837 7.5 8.25 7.5C7.95163 7.5 7.66548 7.61853 7.4545 7.8295C7.24353 8.04048 7.125 8.32663 7.125 8.625C7.125 8.72446 7.16451 8.81984 7.23483 8.89017C7.30516 8.96049 7.40054 9 7.5 9Z" fill="black"/>
<path d="M15 9C15.0995 9 15.1948 8.96049 15.2652 8.89017C15.3355 8.81984 15.375 8.72446 15.375 8.625C15.375 8.52554 15.4145 8.43016 15.4848 8.35983C15.5552 8.28951 15.6505 8.25 15.75 8.25C15.8495 8.25 15.9448 8.28951 16.0152 8.35983C16.0855 8.43016 16.125 8.52554 16.125 8.625C16.125 8.72446 16.1645 8.81984 16.2348 8.89017C16.3052 8.96049 16.4005 9 16.5 9C16.5995 9 16.6948 8.96049 16.7652 8.89017C16.8355 8.81984 16.875 8.72446 16.875 8.625C16.875 8.32663 16.7565 8.04048 16.5455 7.8295C16.3345 7.61853 16.0484 7.5 15.75 7.5C15.4516 7.5 15.1655 7.61853 14.9545 7.8295C14.7435 8.04048 14.625 8.32663 14.625 8.625C14.625 8.72446 14.6645 8.81984 14.7348 8.89017C14.8052 8.96049 14.9005 9 15 9Z" fill="black"/>
<path d="M17.25 9.75C17.1505 9.75 17.0552 9.78951 16.9848 9.85983C16.9145 9.93016 16.875 10.0255 16.875 10.125C16.875 12.3995 14.688 14.25 12 14.25C9.312 14.25 7.125 12.3995 7.125 10.125C7.125 10.0255 7.08549 9.93016 7.01517 9.85983C6.94484 9.78951 6.84946 9.75 6.75 9.75C6.65054 9.75 6.55516 9.78951 6.48483 9.85983C6.41451 9.93016 6.375 10.0255 6.375 10.125C6.375 12.8132 8.89819 15 12 15C15.1018 15 17.625 12.8132 17.625 10.125C17.625 10.0255 17.5855 9.93016 17.5152 9.85983C17.4448 9.78951 17.3495 9.75 17.25 9.75Z" fill="black"/>
</svg>
