<svg width="24" height="30" viewBox="0 0 24 30" fill="none" xmlns="http://www.w3.org/2000/svg">
<path d="M22.875 20.25C22.875 26.2561 18.0061 28.875 12 28.875C5.99391 28.875 1.125 26.2561 1.125 20.25C1.125 14.2439 5.99391 7.125 12 7.125C18.0061 7.125 22.875 14.2439 22.875 20.25Z" fill="#FFC70D"/>
<path d="M12 27.375C6.24628 27.375 1.53933 24.9693 1.15364 19.4871C1.13672 19.7428 1.125 19.9976 1.125 20.25C1.125 26.2561 5.99391 28.875 12 28.875C18.0061 28.875 22.875 26.2561 22.875 20.25C22.875 19.9976 22.8633 19.7428 22.8464 19.4871C22.4607 24.9693 17.7537 27.375 12 27.375Z" fill="#F89F00"/>
<path d="M12 27.375C6.24628 27.375 1.53933 24.9693 1.15364 19.4871C1.13672 19.7428 1.125 19.9976 1.125 20.25C1.125 26.2561 5.99391 28.875 12 28.875C18.0061 28.875 22.875 26.2561 22.875 20.25C22.875 19.9976 22.8633 19.7428 22.8464 19.4871C22.4607 24.9693 17.7537 27.375 12 27.375Z" fill="#F89F00"/>
<path d="M8.4375 13.5C7.91972 13.5 7.5 13.9031 7.5 14.4C7.5 13.9031 7.08028 13.5 6.5625 13.5C6.04472 13.5 5.625 13.9031 5.625 14.4C5.625 14.8969 6.98222 16.5 7.5 16.5C8.01778 16.5 9.375 14.8969 9.375 14.4C9.375 13.9031 8.95528 13.5 8.4375 13.5Z" fill="#E42E3D"/>
<path d="M5.25 18C5.87132 18 6.375 17.6642 6.375 17.25C6.375 16.8358 5.87132 16.5 5.25 16.5C4.62868 16.5 4.125 16.8358 4.125 17.25C4.125 17.6642 4.62868 18 5.25 18Z" fill="#F597A4"/>
<path d="M18.75 18C19.3713 18 19.875 17.6642 19.875 17.25C19.875 16.8358 19.3713 16.5 18.75 16.5C18.1287 16.5 17.625 16.8358 17.625 17.25C17.625 17.6642 18.1287 18 18.75 18Z" fill="#F597A4"/>
<path d="M12 6.75C5.7682 6.75 0.75 14.1354 0.75 20.25C0.75 25.8856 4.95558 29.25 12 29.25C19.0444 29.25 23.25 25.8856 23.25 20.25C23.25 14.1354 18.2318 6.75 12 6.75ZM12 28.5C5.42541 28.5 1.5 25.4156 1.5 20.25C1.5 14.475 6.18384 7.5 12 7.5C17.8162 7.5 22.5 14.475 22.5 20.25C22.5 25.4156 18.5746 28.5 12 28.5Z" fill="black"/>
<path d="M8.4375 13.125C8.0866 13.1239 7.74954 13.2617 7.5 13.5084C7.25046 13.2617 6.9134 13.1239 6.5625 13.125C5.83884 13.125 5.25 13.6969 5.25 14.4C5.25 15.0991 6.75 16.875 7.5 16.875C8.25 16.875 9.75 15.0992 9.75 14.4C9.75 13.6969 9.16111 13.125 8.4375 13.125ZM7.51247 16.1257C7.17028 16.0635 6.03919 14.7689 6 14.4001C6 14.1104 6.25233 13.8751 6.5625 13.8751C6.87267 13.8751 7.125 14.1106 7.125 14.4001V14.5916C7.125 14.6911 7.16451 14.7865 7.23483 14.8568C7.30516 14.9271 7.40054 14.9666 7.5 14.9666C7.59946 14.9666 7.69484 14.9271 7.76517 14.8568C7.83549 14.7865 7.875 14.6911 7.875 14.5916V14.4C7.875 14.1103 8.12733 13.875 8.4375 13.875C8.74767 13.875 9 14.1104 9.00037 14.3943C8.96081 14.7689 7.82958 16.0635 7.51247 16.1257Z" fill="black"/>
<path d="M13.5008 16.5C13.5004 16.1023 13.3423 15.721 13.0611 15.4398C12.7798 15.1586 12.3985 15.0004 12.0008 15H11.8873L10.6678 15.813C10.5861 15.8686 10.5297 15.9542 10.5108 16.0512C10.4919 16.1482 10.5121 16.2487 10.5669 16.331C10.6217 16.4132 10.7068 16.4704 10.8036 16.4903C10.9004 16.5102 11.0011 16.491 11.0838 16.437L12.104 15.7569C12.2924 15.7827 12.464 15.8792 12.584 16.0267C12.704 16.1743 12.7635 16.3619 12.7504 16.5517C12.7373 16.7414 12.6526 16.9191 12.5134 17.0488C12.3743 17.1784 12.191 17.2503 12.0008 17.25C11.9014 17.25 11.806 17.2895 11.7357 17.3598C11.6654 17.4302 11.6258 17.5255 11.6258 17.625C11.6258 17.7245 11.6654 17.8198 11.7357 17.8902C11.806 17.9605 11.9014 18 12.0008 18C12.191 17.9997 12.3742 18.0717 12.5133 18.2014C12.6524 18.331 12.7371 18.5087 12.7502 18.6984C12.7633 18.8882 12.7038 19.0758 12.5838 19.2233C12.4637 19.3708 12.2922 19.4673 12.1037 19.4931L11.0838 18.813C11.0011 18.759 10.9004 18.7399 10.8036 18.7597C10.7068 18.7796 10.6217 18.8368 10.5669 18.919C10.5121 19.0013 10.4919 19.1018 10.5108 19.1988C10.5297 19.2958 10.5861 19.3814 10.6678 19.437L11.8873 20.25H12.0008C12.3062 20.2513 12.6046 20.1589 12.8559 19.9854C13.1072 19.8119 13.2992 19.5655 13.4062 19.2795C13.5132 18.9935 13.5299 18.6816 13.4542 18.3857C13.3784 18.0899 13.2138 17.8244 12.9826 17.625C13.1446 17.4856 13.2747 17.313 13.3641 17.1189C13.4535 16.9248 13.5001 16.7137 13.5008 16.5Z" fill="black"/>
<path d="M11.7079 9.27357C11.6969 9.26488 10.6449 8.43809 9.65605 8.43809C8.59301 8.43809 7.49704 8.86935 7.48604 8.87347C7.34137 8.93069 7.17748 8.91329 7.04928 8.82587C6.75191 8.62551 6.86913 8.29645 6.84326 8.07233C6.84326 6.68198 7.09322 5.75812 7.58489 4.43965C7.62883 4.32292 7.71674 4.2286 7.83029 4.17688C7.94383 4.12606 8.072 4.12103 8.18919 4.1645L12 5.59332L15.8108 4.1645C15.9271 4.12056 16.0562 4.12512 16.1697 4.17688C16.2832 4.22863 16.3711 4.32292 16.4151 4.43965C16.9067 5.75815 17.1567 6.68198 17.1567 8.07233C17.1311 8.29454 17.2473 8.62607 16.9507 8.82587C16.8216 8.91332 16.6577 8.93116 16.5139 8.87347C16.5029 8.86935 15.407 8.43809 14.3439 8.43809C13.5171 8.43809 12.5832 9.04055 12.2929 9.27313C12.1255 9.40733 11.8806 9.41096 11.7079 9.27357Z" fill="#1A396B"/>
<path d="M18.5635 11.2509C18.3044 11.2509 18.0947 11.0412 18.0947 10.7821V3.63752C18.0947 3.37841 18.3044 3.16873 18.5635 3.16873C18.8226 3.16873 19.0323 3.37841 19.0323 3.63752V10.7821C19.0323 11.0412 18.8226 11.2509 18.5635 11.2509Z" fill="#704C55"/>
<path d="M18.5635 11.2509C18.3044 11.2509 18.0947 11.0412 18.0947 10.7821V3.63752C18.0947 3.37841 18.3044 3.16873 18.5635 3.16873C18.8226 3.16873 19.0323 3.37841 19.0323 3.63752V10.7821C19.0323 11.0412 18.8226 11.2509 18.5635 11.2509Z" fill="#FF6D34"/>
<path d="M18.5626 10.3132C17.7606 10.3132 17.1562 11.3209 17.1562 12.6572V13.5948C17.1562 13.8539 17.3659 14.0636 17.625 14.0636H19.5002C19.7593 14.0636 19.969 13.8539 19.969 13.5948V12.6572C19.969 11.3209 19.3647 10.3132 18.5626 10.3132Z" fill="#FAF58C"/>
<path d="M11.8352 6.53313L4.30329 3.72037C3.8994 3.56892 3.8984 2.99412 4.30329 2.84229L11.8352 0.029534C11.9414 -0.00984465 12.0586 -0.00984465 12.1649 0.029534L19.6968 2.84229C20.0997 2.9934 20.103 3.56986 19.6949 3.72081C19.6011 3.75603 11.6666 6.71999 12.1649 6.5331C12.0615 6.57145 11.9458 6.57413 11.8352 6.53313Z" fill="#2D56A1"/>
<path d="M17.1875 13.3751C16.6697 13.3751 16.25 13.7782 16.25 14.2751C16.25 13.7782 15.8303 13.3751 15.3125 13.3751C14.7947 13.3751 14.375 13.7782 14.375 14.2751C14.375 14.7719 15.7322 16.3751 16.25 16.3751C16.7678 16.3751 18.125 14.7719 18.125 14.2751C18.125 13.7782 17.7053 13.3751 17.1875 13.3751Z" fill="#E42E3D"/>
<path d="M17.1875 13C16.8366 12.9989 16.4995 13.1367 16.25 13.3834C16.0005 13.1367 15.6634 12.9989 15.3125 13C14.5888 13 14 13.5719 14 14.275C14 14.9741 15.5 16.75 16.25 16.75C17 16.75 18.5 14.9742 18.5 14.275C18.5 13.5719 17.9111 13 17.1875 13ZM16.2625 16.0008C15.9203 15.9385 14.7892 14.6439 14.75 14.2751C14.75 13.9855 15.0023 13.7501 15.3125 13.7501C15.6227 13.7501 15.875 13.9856 15.875 14.2751V14.4667C15.875 14.5661 15.9145 14.6615 15.9848 14.7318C16.0552 14.8022 16.1505 14.8417 16.25 14.8417C16.3495 14.8417 16.4448 14.8022 16.5152 14.7318C16.5855 14.6615 16.625 14.5661 16.625 14.4667V14.275C16.625 13.9853 16.8773 13.75 17.1875 13.75C17.4977 13.75 17.75 13.9855 17.7504 14.2693C17.7108 14.6439 16.5796 15.9385 16.2625 16.0008Z" fill="black"/>
</svg>
