<svg width="24" height="24" viewBox="0 0 24 24" fill="none" xmlns="http://www.w3.org/2000/svg">
<path d="M22.875 14.25C22.875 20.2561 18.0061 22.875 12 22.875C5.99391 22.875 1.125 20.2561 1.125 14.25C1.125 8.24391 5.99391 1.125 12 1.125C18.0061 1.125 22.875 8.24391 22.875 14.25Z" fill="#FFC70D"/>
<path d="M12 21.375C6.24628 21.375 1.53933 18.9693 1.15364 13.4871C1.13672 13.7428 1.125 13.9976 1.125 14.25C1.125 20.2561 5.99391 22.875 12 22.875C18.0061 22.875 22.875 20.2561 22.875 14.25C22.875 13.9976 22.8633 13.7428 22.8464 13.4871C22.4607 18.9693 17.7537 21.375 12 21.375Z" fill="#F89F00"/>
<path d="M12 21.375C6.24628 21.375 1.53933 18.9693 1.15364 13.4871C1.13672 13.7428 1.125 13.9976 1.125 14.25C1.125 20.2561 5.99391 22.875 12 22.875C18.0061 22.875 22.875 20.2561 22.875 14.25C22.875 13.9976 22.8633 13.7428 22.8464 13.4871C22.4607 18.9693 17.7537 21.375 12 21.375Z" fill="#F89F00"/>
<path d="M12 21.375C6.24628 21.375 1.53933 18.9693 1.15364 13.4871C1.13672 13.7428 1.125 13.9976 1.125 14.25C1.125 20.2561 5.99391 22.875 12 22.875C18.0061 22.875 22.875 20.2561 22.875 14.25C22.875 13.9976 22.8633 13.7428 22.8464 13.4871C22.4607 18.9693 17.7537 21.375 12 21.375Z" fill="#F89F00"/>
<path d="M7.875 9.75C8.49632 9.75 9 9.24632 9 8.625C9 8.00368 8.49632 7.5 7.875 7.5C7.25368 7.5 6.75 8.00368 6.75 8.625C6.75 9.24632 7.25368 9.75 7.875 9.75Z" fill="white"/>
<path d="M7.875 9C8.08211 9 8.25 8.83211 8.25 8.625C8.25 8.41789 8.08211 8.25 7.875 8.25C7.66789 8.25 7.5 8.41789 7.5 8.625C7.5 8.83211 7.66789 9 7.875 9Z" fill="white"/>
<path d="M16.125 9.75C16.7463 9.75 17.25 9.24632 17.25 8.625C17.25 8.00368 16.7463 7.5 16.125 7.5C15.5037 7.5 15 8.00368 15 8.625C15 9.24632 15.5037 9.75 16.125 9.75Z" fill="white"/>
<path d="M16.125 9C16.3321 9 16.5 8.83211 16.5 8.625C16.5 8.41789 16.3321 8.25 16.125 8.25C15.9179 8.25 15.75 8.41789 15.75 8.625C15.75 8.83211 15.9179 9 16.125 9Z" fill="white"/>
<path d="M12 0.75C5.7682 0.75 0.75 8.13539 0.75 14.25C0.75 19.8855 4.95558 23.25 12 23.25C19.0444 23.25 23.25 19.8855 23.25 14.25C23.25 8.13539 18.2318 0.75 12 0.75ZM12 22.5C5.42522 22.5 1.5 19.416 1.5 14.25C1.5 8.475 6.18366 1.5 12 1.5C17.8163 1.5 22.5 8.475 22.5 14.25C22.5 19.416 18.5748 22.5 12 22.5Z" fill="black"/>
<path d="M14.25 10.5C14.1505 10.5 14.0552 10.5395 13.9848 10.6098C13.9145 10.6802 13.875 10.7755 13.875 10.875C13.875 11.3723 13.6775 11.8492 13.3258 12.2008C12.9742 12.5525 12.4973 12.75 12 12.75C11.5027 12.75 11.0258 12.5525 10.6742 12.2008C10.3225 11.8492 10.125 11.3723 10.125 10.875C10.125 10.7755 10.0855 10.6802 10.0152 10.6098C9.94484 10.5395 9.84946 10.5 9.75 10.5C9.65054 10.5 9.55516 10.5395 9.48483 10.6098C9.41451 10.6802 9.375 10.7755 9.375 10.875C9.375 11.5712 9.65156 12.2389 10.1438 12.7312C10.6361 13.2234 11.3038 13.5 12 13.5C12.6962 13.5 13.3639 13.2234 13.8562 12.7312C14.3484 12.2389 14.625 11.5712 14.625 10.875C14.625 10.7755 14.5855 10.6802 14.5152 10.6098C14.4448 10.5395 14.3495 10.5 14.25 10.5Z" fill="black"/>
<path d="M7.875 7.5C7.6525 7.5 7.43499 7.56598 7.24998 7.6896C7.06498 7.81321 6.92078 7.98891 6.83564 8.19448C6.75049 8.40005 6.72821 8.62625 6.77162 8.84447C6.81503 9.0627 6.92217 9.26316 7.0795 9.42049C7.23684 9.57783 7.43729 9.68497 7.65552 9.72838C7.87375 9.77179 8.09995 9.74951 8.30552 9.66436C8.51108 9.57921 8.68678 9.43502 8.8104 9.25001C8.93402 9.06501 9 8.8475 9 8.625C8.99966 8.32673 8.88103 8.04078 8.67012 7.82987C8.45922 7.61897 8.17326 7.50033 7.875 7.5ZM7.875 9C7.80083 9 7.72833 8.978 7.66666 8.9368C7.60499 8.89559 7.55693 8.83703 7.52854 8.7685C7.50016 8.69998 7.49274 8.62458 7.5072 8.55184C7.52167 8.4791 7.55739 8.41228 7.60983 8.35983C7.66228 8.30739 7.7291 8.27167 7.80184 8.2572C7.87458 8.24273 7.94998 8.25016 8.0185 8.27854C8.08703 8.30693 8.14559 8.35499 8.1868 8.41666C8.22801 8.47833 8.25 8.55083 8.25 8.625C8.24986 8.72441 8.21031 8.81972 8.14001 8.89001C8.06972 8.96031 7.97441 8.99986 7.875 9Z" fill="black"/>
<path d="M16.125 7.5C15.9025 7.5 15.685 7.56598 15.5 7.6896C15.315 7.81321 15.1708 7.98891 15.0856 8.19448C15.0005 8.40005 14.9782 8.62625 15.0216 8.84447C15.065 9.0627 15.1722 9.26316 15.3295 9.42049C15.4868 9.57783 15.6873 9.68497 15.9055 9.72838C16.1238 9.77179 16.35 9.74951 16.5555 9.66436C16.7611 9.57921 16.9368 9.43502 17.0604 9.25001C17.184 9.06501 17.25 8.8475 17.25 8.625C17.2497 8.32673 17.131 8.04078 16.9201 7.82987C16.7092 7.61897 16.4233 7.50033 16.125 7.5ZM16.125 9C16.0508 9 15.9783 8.978 15.9167 8.9368C15.855 8.89559 15.8069 8.83703 15.7785 8.7685C15.7502 8.69998 15.7427 8.62458 15.7572 8.55184C15.7717 8.4791 15.8074 8.41228 15.8598 8.35983C15.9123 8.30739 15.9791 8.27167 16.0518 8.2572C16.1246 8.24273 16.2 8.25016 16.2685 8.27854C16.337 8.30693 16.3956 8.35499 16.4368 8.41666C16.478 8.47833 16.5 8.55083 16.5 8.625C16.4999 8.72441 16.4603 8.81972 16.39 8.89001C16.3197 8.96031 16.2244 8.99986 16.125 9Z" fill="black"/>
</svg>
