<svg width="24" height="24" viewBox="0 0 24 24" fill="none" xmlns="http://www.w3.org/2000/svg">
<path d="M22.875 14.25C22.875 20.2561 18.0061 22.875 12 22.875C5.99391 22.875 1.125 20.2561 1.125 14.25C1.125 8.24391 5.99391 1.125 12 1.125C18.0061 1.125 22.875 8.24391 22.875 14.25Z" fill="#FFC70D"/>
<path d="M12 21.375C6.24628 21.375 1.53933 18.9693 1.15364 13.4871C1.13672 13.7428 1.125 13.9976 1.125 14.25C1.125 20.2561 5.99391 22.875 12 22.875C18.0061 22.875 22.875 20.2561 22.875 14.25C22.875 13.9976 22.8633 13.7428 22.8464 13.4871C22.4607 18.9693 17.7537 21.375 12 21.375Z" fill="#F89F00"/>
<path d="M7.875 11.25C8.49632 11.25 9 10.7463 9 10.125C9 9.50368 8.49632 9 7.875 9C7.25368 9 6.75 9.50368 6.75 10.125C6.75 10.7463 7.25368 11.25 7.875 11.25Z" fill="white"/>
<path d="M7.875 10.5C8.08211 10.5 8.25 10.3321 8.25 10.125C8.25 9.91789 8.08211 9.75 7.875 9.75C7.66789 9.75 7.5 9.91789 7.5 10.125C7.5 10.3321 7.66789 10.5 7.875 10.5Z" fill="white"/>
<path d="M16.125 11.25C16.7463 11.25 17.25 10.7463 17.25 10.125C17.25 9.50368 16.7463 9 16.125 9C15.5037 9 15 9.50368 15 10.125C15 10.7463 15.5037 11.25 16.125 11.25Z" fill="white"/>
<path d="M16.125 10.5C16.3321 10.5 16.5 10.3321 16.5 10.125C16.5 9.91789 16.3321 9.75 16.125 9.75C15.9179 9.75 15.75 9.91789 15.75 10.125C15.75 10.3321 15.9179 10.5 16.125 10.5Z" fill="white"/>
<path d="M12 0.75C5.7682 0.75 0.75 8.13539 0.75 14.25C0.75 19.8855 4.95558 23.25 12 23.25C19.0444 23.25 23.25 19.8855 23.25 14.25C23.25 8.13539 18.2318 0.75 12 0.75ZM12 22.5C5.42522 22.5 1.5 19.416 1.5 14.25C1.5 8.475 6.18366 1.5 12 1.5C17.8163 1.5 22.5 8.475 22.5 14.25C22.5 19.416 18.5748 22.5 12 22.5Z" fill="black"/>
<path d="M9.375 9H6.375C6.27554 9 6.18016 9.03951 6.10983 9.10983C6.03951 9.18016 6 9.27554 6 9.375C6 9.47446 6.03951 9.56984 6.10983 9.64017C6.18016 9.71049 6.27554 9.75 6.375 9.75H6.81909C6.77465 9.87009 6.75128 9.99695 6.75 10.125C6.75 10.4234 6.86853 10.7095 7.0795 10.9205C7.29048 11.1315 7.57663 11.25 7.875 11.25C8.17337 11.25 8.45952 11.1315 8.6705 10.9205C8.88147 10.7095 9 10.4234 9 10.125C8.99872 9.99695 8.97535 9.87009 8.93091 9.75H9.375C9.47446 9.75 9.56984 9.71049 9.64017 9.64017C9.71049 9.56984 9.75 9.47446 9.75 9.375C9.75 9.27554 9.71049 9.18016 9.64017 9.10983C9.56984 9.03951 9.47446 9 9.375 9ZM8.25 10.125C8.25 10.1992 8.22801 10.2717 8.1868 10.3333C8.1456 10.395 8.08703 10.4431 8.01851 10.4715C7.94998 10.4998 7.87458 10.5073 7.80184 10.4928C7.7291 10.4783 7.66228 10.4426 7.60983 10.3902C7.55739 10.3377 7.52167 10.2709 7.50721 10.1982C7.49274 10.1254 7.50016 10.05 7.52855 9.98149C7.55693 9.91297 7.60499 9.8544 7.66666 9.8132C7.72833 9.77199 7.80083 9.75 7.875 9.75C7.97441 9.75014 8.06972 9.78969 8.14001 9.85999C8.21031 9.93028 8.24986 10.0256 8.25 10.125Z" fill="black"/>
<path d="M17.625 9H14.625C14.5255 9 14.4302 9.03951 14.3598 9.10983C14.2895 9.18016 14.25 9.27554 14.25 9.375C14.25 9.47446 14.2895 9.56984 14.3598 9.64017C14.4302 9.71049 14.5255 9.75 14.625 9.75H15.0691C15.0247 9.87009 15.0013 9.99695 15 10.125C15 10.4234 15.1185 10.7095 15.3295 10.9205C15.5405 11.1315 15.8266 11.25 16.125 11.25C16.4234 11.25 16.7095 11.1315 16.9205 10.9205C17.1315 10.7095 17.25 10.4234 17.25 10.125C17.2487 9.99695 17.2253 9.87009 17.1809 9.75H17.625C17.7245 9.75 17.8198 9.71049 17.8902 9.64017C17.9605 9.56984 18 9.47446 18 9.375C18 9.27554 17.9605 9.18016 17.8902 9.10983C17.8198 9.03951 17.7245 9 17.625 9ZM16.5 10.125C16.5 10.1992 16.478 10.2717 16.4368 10.3333C16.3956 10.395 16.337 10.4431 16.2685 10.4715C16.2 10.4998 16.1246 10.5073 16.0518 10.4928C15.9791 10.4783 15.9123 10.4426 15.8598 10.3902C15.8074 10.3377 15.7717 10.2709 15.7572 10.1982C15.7427 10.1254 15.7502 10.05 15.7785 9.98149C15.8069 9.91297 15.855 9.8544 15.9167 9.8132C15.9783 9.77199 16.0508 9.75 16.125 9.75C16.2244 9.75014 16.3197 9.78969 16.39 9.85999C16.4603 9.93028 16.4999 10.0256 16.5 10.125Z" fill="black"/>
<path d="M13.125 11.25H10.875C10.7755 11.25 10.6802 11.2895 10.6098 11.3598C10.5395 11.4302 10.5 11.5255 10.5 11.625C10.5 11.7245 10.5395 11.8198 10.6098 11.8902C10.6802 11.9605 10.7755 12 10.875 12H13.125C13.2245 12 13.3198 11.9605 13.3902 11.8902C13.4605 11.8198 13.5 11.7245 13.5 11.625C13.5 11.5255 13.4605 11.4302 13.3902 11.3598C13.3198 11.2895 13.2245 11.25 13.125 11.25Z" fill="black"/>
</svg>
