<svg width="48" height="48" viewBox="0 0 48 48" fill="none" xmlns="http://www.w3.org/2000/svg">
<path d="M7.03125 40.875H40.9688C44.8458 40.875 48 37.7208 48 33.8438V32.4375H45.1875V7.125H2.8125V32.4375H0V33.8438C0 37.7208 3.15422 40.875 7.03125 40.875ZM40.9688 38.0625H7.03125C5.19778 38.0625 3.63384 36.886 3.05344 35.2491H44.9466C44.3662 36.886 42.8022 38.0625 40.9688 38.0625ZM5.625 9.9375H42.375V32.4375H5.625V9.9375Z" fill="#03B0A9"/>
<path d="M33.8438 17.5059L28.2188 20.3184V18.375H14.0625V29.625H28.2188V27.6817L33.8438 30.4942V17.5059ZM25.4062 26.8125H16.875V21.1875H25.4062V26.8125ZM31.0312 25.9434L28.2188 24.5371V23.4628L31.0312 22.0566V25.9434Z" fill="#03B0A9"/>
<path d="M8.4375 12.75H14.0625V15.5625H8.4375V12.75Z" fill="#03B0A9"/>
</svg>
