<svg width="48" height="48" viewBox="0 0 48 48" fill="none" xmlns="http://www.w3.org/2000/svg">
<path d="M39.2479 11.1202C35.5084 7.37297 30.6369 5.17303 25.4062 4.83778V2.8125H27.4687C28.2453 2.8125 28.8749 2.18288 28.8749 1.40625C28.8749 0.629625 28.2453 0 27.4687 0H20.5312C19.7545 0 19.1249 0.629625 19.1249 1.40625C19.1249 2.18288 19.7545 2.8125 20.5312 2.8125H22.5937V4.83778C19.0071 5.06766 15.5898 6.17438 12.5902 8.05566L11.2544 6.71709C10.6042 6.06563 9.73941 5.70694 8.81906 5.70694C7.89872 5.70694 7.03387 6.06572 6.38381 6.71709L4.35216 8.75316C3.01481 10.0931 3.01481 12.2736 4.35216 13.6136L5.69709 14.9614C3.57431 18.358 2.4375 22.2892 2.4375 26.3957C2.4375 32.1658 4.68 37.5908 8.75194 41.6712C12.8246 45.7523 18.2398 48 23.9999 48C29.76 48 35.1752 45.7523 39.2479 41.6712C43.3198 37.5908 45.5623 32.1658 45.5623 26.3957C45.5623 20.6256 43.3198 15.2005 39.2479 11.1202ZM6.34294 10.7399L8.37469 8.70394C8.53481 8.54353 8.72184 8.51953 8.81916 8.51953C8.91647 8.51953 9.10359 8.54344 9.26372 8.70394L10.2828 9.72506C9.75431 10.1632 9.24319 10.6281 8.75203 11.1202C8.26228 11.611 7.79962 12.1217 7.36359 12.6497L6.34294 11.627C6.09881 11.3824 6.09881 10.9844 6.34294 10.7399ZM23.9999 45.1875C13.6612 45.1875 5.25 36.7575 5.25 26.3957C5.25 16.0339 13.6612 7.60388 23.9999 7.60388C34.3387 7.60388 42.7498 16.0338 42.7498 26.3957C42.7498 36.7576 34.3387 45.1875 23.9999 45.1875Z" fill="#FF6D34"/>
<path d="M24.0001 10.2399C15.1087 10.2399 7.875 17.4873 7.875 26.3956C7.875 35.3039 15.1087 42.5514 24.0001 42.5514C32.8915 42.5514 40.1252 35.3039 40.1252 26.3956C40.1252 17.4873 32.8915 10.2399 24.0001 10.2399ZM25.4063 39.6644V38.0207C25.4063 37.2441 24.7767 36.6145 24.0001 36.6145C23.2235 36.6145 22.5938 37.2441 22.5938 38.0207V39.6644C16.373 39.0068 11.416 34.0375 10.7614 27.8019H12.3751C13.1517 27.8019 13.7813 27.1722 13.7813 26.3956C13.7813 25.619 13.1517 24.9894 12.3751 24.9894H10.7615C11.416 18.7538 16.373 13.7845 22.5938 13.1268V14.7705C22.5938 15.5471 23.2235 16.1768 24.0001 16.1768C24.7767 16.1768 25.4063 15.5471 25.4063 14.7705V13.1268C31.6272 13.7845 36.5842 18.7538 37.2388 24.9894H35.6251C34.8485 24.9894 34.2188 25.619 34.2188 26.3956C34.2188 27.1722 34.8485 27.8019 35.6251 27.8019H37.2387C36.5842 34.0375 31.6272 39.0068 25.4063 39.6644Z" fill="#FF6D34"/>
<path d="M27.4683 25.5841H25.4844V19.8966C25.4844 19.12 24.8548 18.4904 24.0781 18.4904C23.3015 18.4904 22.6719 19.12 22.6719 19.8966V26.9904C22.6719 27.767 23.3015 28.3967 24.0781 28.3967H27.4683C28.245 28.3967 28.8746 27.767 28.8746 26.9904C28.8746 26.2138 28.245 25.5841 27.4683 25.5841Z" fill="#FF6D34"/>
</svg>
