<svg width="48" height="48" viewBox="0 0 48 48" fill="none" xmlns="http://www.w3.org/2000/svg">
<path d="M15.9619 37.8634C16.9603 36.7164 17.567 35.22 17.567 33.5835C17.567 29.9842 14.6389 27.056 11.0395 27.056C9.68473 27.056 8.4252 27.4711 7.38102 28.1804C7.22802 27.2383 7.15011 26.2816 7.15011 25.3176C7.15011 20.7005 8.91655 16.3299 12.1239 13.0107C14.5059 10.5457 17.493 8.85487 20.7586 8.08247L18.589 10.6951L20.7577 12.496L26.3233 5.79384L18.8946 1.63416L17.5175 4.09378L19.853 5.40159C16.166 6.32344 12.7961 8.25872 10.0969 11.0519C6.37883 14.8995 4.33123 19.9657 4.33123 25.3177C4.33123 27.2114 4.58923 29.0822 5.09717 30.8877C4.72255 31.7101 4.51208 32.6225 4.51208 33.5836C4.51208 35.2234 5.12117 36.7226 6.12317 37.8704C2.58702 39.1844 0.0605469 42.5931 0.0605469 46.5811V47.9905H22.0424V46.5811C22.0426 42.586 19.5077 39.1724 15.9619 37.8634ZM11.0396 29.8749C13.0846 29.8749 14.7482 31.5386 14.7482 33.5835C14.7482 35.6284 13.0845 37.2921 11.0395 37.2921C8.99464 37.2921 7.33105 35.6284 7.33105 33.5835C7.33105 31.5386 8.99473 29.8749 11.0396 29.8749ZM3.0343 45.1715C3.6792 42.2793 6.26595 40.1111 9.34958 40.1111H12.7537C15.8374 40.1111 18.4241 42.2794 19.069 45.1715H3.0343Z" fill="#0367B4"/>
<path d="M47.9395 19.5249C47.9395 15.5302 45.4045 12.1163 41.8589 10.8073C42.8573 9.66047 43.4641 8.16394 43.4641 6.52744C43.4641 2.92819 40.5359 0 36.9365 0C33.3372 0 30.409 2.92819 30.409 6.52744C30.409 8.16722 31.0181 9.66647 32.0202 10.8142C28.484 12.1283 25.9577 15.5369 25.9577 19.525V20.9345H42.0516C42.3986 22.3306 42.5744 23.7689 42.5744 25.2236C42.5744 29.4803 41.0424 33.5947 38.2606 36.8089C36.2647 39.1149 33.7225 40.8535 30.9003 41.8782L32.7582 38.9712L30.383 37.4531L25.6914 44.7937L33.5785 48L34.6402 45.3886L32.2058 44.399C35.3398 43.1969 38.1611 41.2313 40.3922 38.6536C43.6173 34.9272 45.3934 30.1577 45.3934 25.2235C45.3934 23.7742 45.2424 22.3382 44.9441 20.9344H47.9396V19.5249H47.9395ZM36.9365 2.81897C38.9815 2.81897 40.6451 4.48266 40.6451 6.52744C40.6451 8.57241 38.9814 10.236 36.9365 10.236C34.8917 10.236 33.228 8.57231 33.228 6.52744C33.228 4.48256 34.8916 2.81897 36.9365 2.81897ZM28.9313 18.1155C29.5762 15.2232 32.163 13.0551 35.2466 13.0551H38.6508C41.7344 13.0551 44.3211 15.2233 44.966 18.1155H28.9313Z" fill="#0367B4"/>
</svg>
