<svg width="24" height="24" viewBox="0 0 24 24" fill="none" xmlns="http://www.w3.org/2000/svg">
<rect width="24" height="24" rx="12" fill="url(#paint0_linear)"/>
<path d="M5 15.1719V17.4961C5 18.3253 5.67465 19 6.50391 19H17.4961C18.3253 19 19 18.3253 19 17.4961V15.1719H5ZM16.9219 17.4961H13.5039V17.6328C13.5039 17.8593 13.3203 18.043 13.0938 18.043C12.8672 18.043 12.6836 17.8593 12.6836 17.6328V17.4961H7.07812C6.85161 17.4961 6.66797 17.3125 6.66797 17.0859C6.66797 16.8594 6.85161 16.6758 7.07812 16.6758H12.6836V16.5391C12.6836 16.3125 12.8672 16.1289 13.0938 16.1289C13.3203 16.1289 13.5039 16.3125 13.5039 16.5391V16.6758H16.9219C17.1484 16.6758 17.332 16.8594 17.332 17.0859C17.332 17.3125 17.1484 17.4961 16.9219 17.4961Z" fill="white"/>
<path d="M8.80511 8.82811L12 9.76777L15.1948 8.82811L12 7.88844L8.80511 8.82811Z" fill="white"/>
<path d="M12 10.6055C11.961 10.6055 11.922 10.5999 11.8843 10.5888L9.67578 9.93925V11.4258H14.3242V9.93922L12.1157 10.5888C12.078 10.5999 12.039 10.6055 12 10.6055Z" fill="white"/>
<path d="M17.4961 5H6.50391C5.67465 5 5 5.67465 5 6.50391V14.3516H19V6.50391C19 5.67465 18.3253 5 17.4961 5ZM17.0586 11.2891C17.0586 11.5156 16.875 11.6992 16.6484 11.6992C16.4219 11.6992 16.2383 11.5156 16.2383 11.2891V9.37629L15.1445 9.69798V11.8359C15.1445 12.0625 14.9609 12.2461 14.7344 12.2461H9.26562C9.03911 12.2461 8.85547 12.0625 8.85547 11.8359V9.69798L7.23584 9.22163C7.06128 9.17028 6.94141 9.01007 6.94141 8.82812C6.94141 8.64618 7.06128 8.48597 7.23584 8.43462L11.8843 7.06743C11.9598 7.0452 12.0402 7.0452 12.1157 7.06743L16.7642 8.43462C16.9387 8.48597 17.0586 8.64618 17.0586 8.82812V11.2891Z" fill="white"/>
<defs>
<linearGradient id="paint0_linear" x1="11.9998" y1="20.0377" x2="11.9998" y2="-2.38868e-05" gradientUnits="userSpaceOnUse">
<stop stop-color="#1071FF"/>
<stop offset="1" stop-color="#4E8FFC"/>
</linearGradient>
</defs>
</svg>
