<svg width="112" height="57" viewBox="0 0 112 57" fill="none" xmlns="http://www.w3.org/2000/svg">
<path d="M89.8785 16.8197C89.8785 20.3361 87.4647 22.7098 83.9296 22.7098C80.3523 22.7098 77.9385 20.3361 77.9385 16.8197C77.9385 13.326 80.3523 10.9727 83.9296 10.9727C87.4647 10.9749 89.8785 13.326 89.8785 16.8197ZM80.7127 16.8628C80.7127 18.935 82.0253 20.3565 83.9296 20.3565C85.7917 20.3565 87.1043 18.9327 87.1043 16.8628C87.1043 14.7929 85.7917 13.3691 83.9296 13.3691C82.0253 13.3691 80.7127 14.7929 80.7127 16.8628Z" fill="white"/>
<path d="M103.805 15.3942V22.5993H101.033V16.2149C101.033 14.5962 100.081 13.6054 98.515 13.6054C96.6529 13.6258 95.5517 15.0292 95.5517 16.9268V22.5993H92.7997V11.0594H95.5517V13.2155C96.357 11.6829 97.7741 10.971 99.6162 10.9506C102.219 10.9506 103.805 12.6555 103.805 15.3942Z" fill="white"/>
<path d="M111.334 33.6585H70.41V0H111.334V33.6585ZM72.6081 31.4208H109.138V2.23771H72.6081V31.4208Z" fill="white"/>
<path d="M41.5732 44.1624C41.5732 45.169 42.3652 45.8197 43.66 45.8197C45.3085 45.8197 46.6033 44.9241 46.7568 43.7611V42.6864H43.7912C42.2762 42.6841 41.5732 43.1104 41.5732 44.1624Z" fill="white"/>
<path d="M13.2593 42.0358H18.6632L15.9824 35.4542L13.2593 42.0358Z" fill="white"/>
<path d="M58.4878 45.6157C60.332 45.6157 61.8271 43.9825 61.8271 41.9678C61.8271 39.9532 60.332 38.3199 58.4878 38.3199C56.6436 38.3199 55.1485 39.9532 55.1485 41.9678C55.1485 43.9825 56.6436 45.6157 58.4878 45.6157Z" fill="white"/>
<path d="M0 22.5267V56.8405H72.4702V22.5267H0ZM21.0792 47.9214L19.7177 44.609H12.2048L10.8433 47.9214H7.78873L14.5319 32.2507H17.5864L24.2427 47.9214H21.0792ZM34.5009 47.9214L31.3151 42.6842L29.5131 44.609V47.9214H26.6566V31.3098H29.5131V40.9362L34.3452 35.9666H37.64L33.2907 40.578L37.9047 47.9214H34.5009ZM46.7791 47.9214V46.4659C45.9671 47.5178 44.6478 48.0552 42.9793 48.0552C40.452 48.0552 38.8725 46.4659 38.8725 44.3393C38.8725 42.122 40.4765 40.7571 43.3308 40.7344H46.7569V40.4216C46.7569 39.0341 45.8559 38.2043 44.0983 38.2043C42.9993 38.2043 41.8136 38.5852 40.6055 39.3243L39.5733 37.3087C41.2641 36.3452 42.5833 35.8305 44.7346 35.8305C47.8092 35.8305 49.5444 37.4198 49.5667 40.0838L49.5889 47.9191H46.7791V47.9214ZM64.6814 47.9214H61.8249V45.9966C60.9906 47.3183 59.6291 48.0552 57.8716 48.0552C54.51 48.0552 52.2697 45.5477 52.2697 41.8998C52.2697 38.2723 54.51 35.8328 57.8048 35.8328C59.6068 35.8328 60.9684 36.5719 61.8249 37.9141V31.3098H64.6814V47.9214Z" fill="white"/>
</svg>
