<svg width="54" height="50" viewBox="0 0 54 50" fill="none" xmlns="http://www.w3.org/2000/svg">
<g filter="url(#filter0_d)">
<path d="M51 3L46.4966 0L42.5 3H51Z" fill="#005394"/>
<path d="M6.12925 43.3605L3 41.5663L6.12925 37.6788V43.3605Z" fill="#005394"/>
<path d="M46.4966 0L3 41.5663V27.5115V20L24 0H46.4966Z" fill="#0367B4"/>
<path d="M15.1829 13.7137L15.9841 18.1898L11.7425 16.8465L10.734 17.7649L15.785 23.5767L16.7203 22.725L13.1125 18.5737L17.392 19.9271L17.5058 19.8234L16.6983 15.3233L20.2989 19.4664L21.2343 18.6147L16.1833 12.8028L15.1829 13.7137ZM19.6717 11.5598L20.5176 10.7896L20.4056 8.88369L19.3483 9.84648L19.6717 11.5598ZM24.3257 15.993C24.9276 15.4449 25.2515 14.7782 25.2983 13.977C25.3451 13.1759 25.1092 12.4685 24.5752 11.8541C24.0701 11.273 23.4573 10.9534 22.7224 10.879C23.0209 10.3841 22.8868 9.91132 22.3817 9.33013L22.259 9.18899L21.5189 9.86294L21.6415 10.0041C21.9157 10.3196 21.9824 10.4969 21.6815 10.7709L21.3236 11.0968C21.039 11.222 20.7825 11.3962 20.5303 11.6257C19.9366 12.1664 19.6046 12.8405 19.5578 13.6417C19.511 14.4428 19.7469 15.1502 20.2808 15.7646C20.8148 16.379 21.4736 16.7012 22.2564 16.7469C23.0392 16.7926 23.732 16.5336 24.3257 15.993ZM22.3406 15.5696C21.8801 15.5427 21.4839 15.3383 21.1592 14.9647C20.8345 14.5911 20.6823 14.1645 20.7099 13.6932C20.7374 13.222 20.9301 12.8234 21.288 12.4975C21.6458 12.1717 22.055 12.0222 22.5155 12.0491C22.9759 12.076 23.3721 12.2804 23.6968 12.654C24.0215 13.0276 24.1737 13.4542 24.1462 13.9255C24.1187 14.3967 23.926 14.7953 23.5681 15.1212C23.2102 15.447 22.8011 15.5965 22.3406 15.5696ZM23.8242 7.65961C23.8418 7.22717 23.5532 6.89506 23.1469 6.86345C22.7324 6.83924 22.3908 7.15029 22.3661 7.57443C22.3494 7.99116 22.6381 8.32327 23.0516 8.36318C23.4669 8.37168 23.7922 8.07544 23.8242 7.65961ZM28.0518 12.4067L24.444 8.25537L23.5656 9.05523L27.1734 13.2066L28.0518 12.4067Z" fill="white"/>
</g>
<defs>
<filter id="filter0_d" x="0" y="0" width="54" height="49.3605" filterUnits="userSpaceOnUse" color-interpolation-filters="sRGB">
<feFlood flood-opacity="0" result="BackgroundImageFix"/>
<feColorMatrix in="SourceAlpha" type="matrix" values="0 0 0 0 0 0 0 0 0 0 0 0 0 0 0 0 0 0 127 0"/>
<feOffset dy="3"/>
<feGaussianBlur stdDeviation="1.5"/>
<feColorMatrix type="matrix" values="0 0 0 0 0 0 0 0 0 0 0 0 0 0 0 0 0 0 0.13 0"/>
<feBlend mode="normal" in2="BackgroundImageFix" result="effect1_dropShadow"/>
<feBlend mode="normal" in="SourceGraphic" in2="effect1_dropShadow" result="shape"/>
</filter>
</defs>
</svg>
