<svg width="32" height="32" viewBox="0 0 32 32" fill="none" xmlns="http://www.w3.org/2000/svg">
<g filter="url(#filter0_d)">
<circle cx="16" cy="16" r="12" fill="white"/>
</g>
<path d="M20.4049 14.2068L18.0889 15.3649V13.0488L20.4049 14.2068Z" fill="#0367B4"/>
<path d="M9 10.1704V18.6491V18.5952C9.03008 17.5792 9.42738 16.6511 10.0522 15.982C10.2411 15.7797 10.4506 15.6044 10.6767 15.4584C10.5449 15.1896 10.4711 14.888 10.4711 14.5692C10.4711 13.4505 11.3811 12.5402 12.5 12.5402C13.6189 12.5402 14.5289 13.4505 14.5289 14.5692C14.5289 14.8836 14.457 15.1819 14.3285 15.4477C15.4687 16.1561 15.9304 17.3535 15.9645 18.6491H23V10.1704H9ZM17.2682 16.6921V11.7216L22.2388 14.2068L17.2682 16.6921Z" fill="#0367B4"/>
<path d="M12.5041 15.7872C13.1728 15.7872 13.7148 15.2451 13.7148 14.5765C13.7148 13.9079 13.1728 13.3658 12.5041 13.3658C11.8355 13.3658 11.2935 13.9079 11.2935 14.5765C11.2935 15.2451 11.8355 15.7872 12.5041 15.7872Z" fill="#0367B4"/>
<path d="M12.3757 21.8296C13.0443 21.8296 13.5864 21.2876 13.5864 20.619C13.5864 19.9503 13.0443 19.4083 12.3757 19.4083C11.7071 19.4083 11.165 19.9503 11.165 20.619C11.165 21.2876 11.7071 21.8296 12.3757 21.8296Z" fill="#0367B4"/>
<path d="M15.1474 18.6491H9.86133C9.89135 17.6657 10.3256 16.6682 11.188 16.1417C11.5424 16.4449 12.0023 16.6281 12.5044 16.6281C13.0111 16.6281 13.4748 16.4417 13.8305 16.1335C14.7654 16.674 15.121 17.623 15.1474 18.6491Z" fill="#0367B4"/>
<path d="M10.435 20.619C10.435 20.7595 10.45 20.8968 10.4787 21.0291H9V20.2088H10.4787C10.45 20.3411 10.435 20.4784 10.435 20.619Z" fill="#0367B4"/>
<path d="M22.9998 20.2088V21.0291H14.272C14.3007 20.8968 14.3157 20.7595 14.3157 20.619C14.3157 20.4784 14.3007 20.3411 14.272 20.2088H22.9998Z" fill="#0367B4"/>
<defs>
<filter id="filter0_d" x="0" y="0" width="32" height="32" filterUnits="userSpaceOnUse" color-interpolation-filters="sRGB">
<feFlood flood-opacity="0" result="BackgroundImageFix"/>
<feColorMatrix in="SourceAlpha" type="matrix" values="0 0 0 0 0 0 0 0 0 0 0 0 0 0 0 0 0 0 127 0"/>
<feOffset/>
<feGaussianBlur stdDeviation="2"/>
<feColorMatrix type="matrix" values="0 0 0 0 0 0 0 0 0 0 0 0 0 0 0 0 0 0 0.25 0"/>
<feBlend mode="normal" in2="BackgroundImageFix" result="effect1_dropShadow"/>
<feBlend mode="normal" in="SourceGraphic" in2="effect1_dropShadow" result="shape"/>
</filter>
</defs>
</svg>
