<svg width="32" height="32" viewBox="0 0 32 32" fill="none" xmlns="http://www.w3.org/2000/svg">
<g filter="url(#filter0_d)">
<circle cx="16" cy="16" r="12" fill="white"/>
</g>
<g clip-path="url(#clip0)">
<path d="M22.0013 13.8372C21.9447 13.4116 21.9367 12.6786 22.332 12.4325C22.339 12.428 22.3443 12.4215 22.3505 12.4159C22.6737 12.3125 22.8973 12.1674 22.7218 11.9722L17.9544 10.5358L10.2351 11.609C10.2351 11.609 9.35111 11.7354 9.43008 13.1087C9.47295 13.8562 9.70738 14.2233 9.9124 14.4039L9.27896 14.5948C9.10314 14.79 9.32675 14.9351 9.64997 15.0383C9.65611 15.0441 9.66129 15.0506 9.66848 15.0551C10.0635 15.3014 10.0559 16.0344 9.9991 16.46C8.57991 16.863 9.08935 16.9943 9.08935 16.9943L9.40066 17.0697C9.18169 17.2675 8.96422 17.6428 9.00495 18.3544C9.08396 19.7275 9.81004 19.8223 9.81004 19.8223L14.8615 21.4642L22.4862 19.6174C22.4862 19.6174 22.9958 19.4859 21.5762 19.0828C21.5192 18.6579 21.5112 17.925 21.9072 17.678C21.9145 17.6737 21.9198 17.667 21.9257 17.6615C22.2489 17.5581 22.4723 17.4132 22.2967 17.218L21.9653 17.1179C22.1863 16.9846 22.5183 16.6363 22.5703 15.7315C22.6062 15.1091 22.4439 14.7446 22.2559 14.53L22.911 14.3715C22.911 14.3718 23.4206 14.2402 22.0013 13.8372ZM15.6237 13.8196L16.9059 13.5561L21.2389 12.6657L21.8845 12.5329C21.6782 12.9104 21.6869 13.4271 21.721 13.7592C21.7285 13.8343 21.7371 13.9029 21.7455 13.955L21.0389 14.1307L15.5698 15.4913L15.6237 13.8196ZM10.116 15.1559L10.7615 15.2887L14.9228 16.1441L15.2863 16.2186L16.3765 16.4427L16.4303 18.1143L10.8093 16.7159L10.2551 16.5782C10.2633 16.5259 10.2719 16.4574 10.2797 16.3821C10.3136 16.0502 10.3224 15.5335 10.116 15.1559ZM9.86523 13.0426C9.85742 12.6773 9.92251 12.4132 10.0541 12.2789C10.1378 12.1931 10.2366 12.1753 10.3044 12.1753C10.3402 12.1753 10.366 12.1803 10.3677 12.1803L13.6938 13.2646L15.3532 13.8056L15.2988 15.489L10.6434 14.1838L10.3978 14.115C10.3887 14.1124 10.3765 14.1107 10.3671 14.1103C10.3479 14.1089 9.88762 14.0665 9.86523 13.0426ZM14.8736 20.7349L9.97269 19.3609C9.96362 19.3583 9.95151 19.3565 9.94206 19.3561C9.92255 19.3548 9.46208 19.3124 9.43981 18.2888C9.43187 17.923 9.4973 17.6591 9.62862 17.5247C9.71256 17.439 9.81141 17.4211 9.87906 17.4211C9.91495 17.4211 9.94064 17.4259 9.94252 17.4259C9.94252 17.4259 9.94273 17.4259 9.94252 17.4259L14.9277 19.0516L14.8736 20.7349ZM21.2956 19.0049C21.3033 19.0803 21.3119 19.1487 21.3203 19.201L15.1445 20.7373L15.1985 19.0656L16.5188 18.7942L16.7138 18.8414L17.4446 18.6038L20.8135 17.9116L21.4593 17.7787C21.2528 18.1562 21.2614 18.6731 21.2956 19.0049ZM21.6357 16.733C21.6245 16.7333 21.6133 16.7348 21.6027 16.7381L21.1369 16.8685L16.7019 18.1121L16.6477 16.4288L18.1028 15.9542L21.626 14.8052C21.6265 14.805 21.8114 14.7639 21.9471 14.9019C22.0785 15.0362 22.1436 15.3004 22.1359 15.6656C22.113 16.6892 21.6525 16.7317 21.6357 16.733Z" fill="#0367B4"/>
</g>
<defs>
<filter id="filter0_d" x="0" y="0" width="32" height="32" filterUnits="userSpaceOnUse" color-interpolation-filters="sRGB">
<feFlood flood-opacity="0" result="BackgroundImageFix"/>
<feColorMatrix in="SourceAlpha" type="matrix" values="0 0 0 0 0 0 0 0 0 0 0 0 0 0 0 0 0 0 127 0"/>
<feOffset/>
<feGaussianBlur stdDeviation="2"/>
<feColorMatrix type="matrix" values="0 0 0 0 0 0 0 0 0 0 0 0 0 0 0 0 0 0 0.25 0"/>
<feBlend mode="normal" in2="BackgroundImageFix" result="effect1_dropShadow"/>
<feBlend mode="normal" in="SourceGraphic" in2="effect1_dropShadow" result="shape"/>
</filter>
<clipPath id="clip0">
<rect width="14" height="14" fill="white" transform="translate(9 9)"/>
</clipPath>
</defs>
</svg>
