<svg width="100" height="82" viewBox="0 0 100 82" fill="none" xmlns="http://www.w3.org/2000/svg">
<rect x="-0.000244141" width="99.2386" height="82" fill="#0367B4"/>
<path d="M67.3787 34.7764C67.3787 36.5922 66.1322 37.818 64.3067 37.818C62.4594 37.818 61.2129 36.5922 61.2129 34.7764C61.2129 32.9722 62.4594 31.757 64.3067 31.757C66.1322 31.7581 67.3787 32.9722 67.3787 34.7764ZM62.6455 34.7986C62.6455 35.8687 63.3233 36.6028 64.3067 36.6028C65.2683 36.6028 65.9461 35.8675 65.9461 34.7986C65.9461 33.7297 65.2683 32.9945 64.3067 32.9945C63.3233 32.9945 62.6455 33.7297 62.6455 34.7986Z" fill="white"/>
<path d="M74.5705 34.0405V37.7612H73.1391V34.4643C73.1391 33.6284 72.6474 33.1168 71.8386 33.1168C70.877 33.1273 70.3083 33.852 70.3083 34.832V37.7612H68.8872V31.802H70.3083V32.9154C70.7242 32.124 71.456 31.7564 72.4072 31.7458C73.7514 31.7458 74.5705 32.6262 74.5705 34.0405Z" fill="white"/>
<path d="M78.4583 43.4721H57.3254V26.0909H78.4583V43.4721ZM58.4605 42.3166H77.3244V27.2465H58.4605V42.3166Z" fill="white"/>
<path d="M42.434 48.8963C42.434 49.4161 42.8429 49.7521 43.5116 49.7521C44.3629 49.7521 45.0315 49.2897 45.1107 48.6891V48.1341H43.5794C42.797 48.133 42.434 48.3531 42.434 48.8963Z" fill="white"/>
<path d="M27.8126 47.7982H30.6032L29.2188 44.3994L27.8126 47.7982Z" fill="white"/>
<path d="M51.1684 49.6468C52.1207 49.6468 52.8928 48.8034 52.8928 47.7631C52.8928 46.7227 52.1207 45.8793 51.1684 45.8793C50.216 45.8793 49.444 46.7227 49.444 47.7631C49.444 48.8034 50.216 49.6468 51.1684 49.6468Z" fill="white"/>
<path d="M20.9656 37.7237V55.4432H58.389V37.7237H20.9656ZM31.8508 50.8374L31.1477 49.1269H27.2681L26.565 50.8374H24.9877L28.4698 42.7451H30.0471L33.4845 50.8374H31.8508ZM38.7818 50.8374L37.1366 48.133L36.2061 49.1269V50.8374H34.731V42.2592H36.2061V47.2303L38.7013 44.664H40.4028L38.1568 47.0453L40.5395 50.8374H38.7818ZM45.1222 50.8374V50.0858C44.7029 50.629 44.0216 50.9065 43.16 50.9065C41.8549 50.9065 41.0392 50.0858 41.0392 48.9876C41.0392 47.8426 41.8675 47.1378 43.3415 47.1261H45.1107V46.9645C45.1107 46.248 44.6454 45.8195 43.7378 45.8195C43.1703 45.8195 42.558 46.0162 41.9342 46.3979L41.4011 45.3571C42.2742 44.8595 42.9555 44.5937 44.0664 44.5937C45.6541 44.5937 46.5502 45.4145 46.5617 46.7901L46.5732 50.8363H45.1222V50.8374ZM54.3669 50.8374H52.8918V49.8435C52.461 50.526 51.7579 50.9065 50.8503 50.9065C49.1144 50.9065 47.9575 49.6116 47.9575 47.7279C47.9575 45.8547 49.1144 44.5949 50.8158 44.5949C51.7464 44.5949 52.4495 44.9766 52.8918 45.6697V42.2592H54.3669V50.8374Z" fill="white"/>
</svg>
