<svg width="21" height="21" viewBox="0 0 21 21" fill="none" xmlns="http://www.w3.org/2000/svg">
<g clip-path="url(#clip0)">
<path d="M19.971 5.76051C19.0561 4.84566 17.5354 4.84258 16.6175 5.76051C16.4001 5.97785 16.1847 6.1932 15.9701 6.4077V3.43789C15.9701 2.46867 15.1866 1.68016 14.2236 1.68016H13.5874V1.0859C13.5874 0.762344 13.3251 0.5 13.0015 0.5C12.6779 0.5 12.4156 0.762344 12.4156 1.0859V1.68012H11.2438V1.0859C11.2438 0.762344 10.9814 0.5 10.6578 0.5C10.3342 0.5 10.0719 0.762344 10.0719 1.0859V1.68012H8.90008V1.0859C8.90008 0.762344 8.63773 0.5 8.31418 0.5C7.99059 0.5 7.72828 0.762344 7.72828 1.0859V1.68012H6.55645V1.0859C6.55641 0.762344 6.2941 0.5 5.97051 0.5C5.64691 0.5 5.38461 0.762344 5.38461 1.0859V1.68012H4.21277V1.0859C4.21277 0.762344 3.95043 0.5 3.62684 0.5C3.30324 0.5 3.04094 0.762344 3.04094 1.0859V1.68012H2.45496C1.46418 1.68012 0.658203 2.46613 0.658203 3.43227V18.7461C0.658203 19.7176 1.48195 20.4993 2.45426 20.5L14.2232 20.4992C14.2236 20.4992 14.224 20.4992 14.2244 20.4992C15.1951 20.4992 15.9701 19.7256 15.9701 18.7544V13.052C17.325 11.7093 18.6404 10.4056 19.971 9.07492C20.887 8.15898 20.887 6.67656 19.971 5.76051ZM14.7983 18.7545C14.7983 19.077 14.5485 19.3313 14.2239 19.3313C14.2238 19.3313 14.2237 19.3313 14.2236 19.3313L2.45469 19.3321C2.12195 19.3319 1.83012 19.0581 1.83012 18.7462L1.82996 3.4323C1.82996 3.12313 2.12203 2.84418 2.45496 2.84418H3.0409V3.42957C3.0409 3.75316 3.30324 4.01547 3.6268 4.01547C3.95035 4.01547 4.2127 3.75312 4.2127 3.42957V2.84418H5.38453V3.42957C5.38453 3.75316 5.64688 4.01547 5.97043 4.01547C6.29402 4.01547 6.55633 3.75312 6.55633 3.42957V2.84418H7.72816V3.42957C7.72816 3.75316 7.99051 4.01547 8.31406 4.01547C8.63762 4.01547 8.89996 3.75312 8.89996 3.42957V2.84418H10.0718V3.42957C10.0718 3.75316 10.3341 4.01547 10.6577 4.01547C10.9813 4.01547 11.2436 3.75312 11.2436 3.42957V2.84418H12.4154V3.42957C12.4154 3.75316 12.6778 4.01547 13.0013 4.01547C13.3249 4.01547 13.5872 3.75312 13.5872 3.42957V2.84418H14.2234C14.5457 2.84418 14.7981 3.10938 14.7981 3.43789V7.57871C13.6049 8.77078 12.4426 9.93113 11.283 11.0894H3.62684C3.30324 11.0894 3.04094 11.3517 3.04094 11.6753C3.04094 11.9989 3.30328 12.2573 3.62684 12.2573H10.1102C9.41273 12.9542 8.99121 13.3797 8.93789 13.433H3.62684C3.30324 13.433 3.04094 13.6954 3.04094 14.0189C3.04094 14.3425 3.30328 14.6048 3.62684 14.6048H8.41094L8.02031 15.7766H3.62684C3.30324 15.7766 3.04094 16.039 3.04094 16.3625C3.04094 16.6861 3.30328 16.9486 3.62684 16.9486H7.62973L7.44676 17.4974C7.29367 17.9568 7.73313 18.3902 8.18789 18.2386L11.9166 16.9956C12.0029 16.9668 12.0813 16.9184 12.1456 16.8541C13.0416 15.9581 13.9278 15.0772 14.7982 14.2137V18.7545H14.7983ZM10.8664 16.1105L8.92902 16.7563L9.57481 14.8189L10.8664 16.1105ZM11.8782 15.4651L10.2207 13.8076C12.0608 11.9681 13.829 10.2036 15.6759 8.35836L17.3632 10.0195C16.5888 10.7891 12.8945 14.4512 11.8782 15.4651ZM19.1424 8.24633C18.8248 8.56391 18.5087 8.87938 18.1939 9.19293L16.5049 7.53004C16.816 7.2191 17.1293 6.90586 17.4461 6.5891C17.9047 6.13047 18.6844 6.13105 19.1424 6.5891C19.5992 7.04598 19.5992 7.78945 19.1424 8.24633Z" fill="#8F8F8F"/>
<path d="M7.92301 6.4021H3.62691C3.30332 6.4021 3.04102 6.66444 3.04102 6.988C3.04102 7.31155 3.30336 7.57394 3.62691 7.57394H7.92301C8.2466 7.57394 8.50891 7.31159 8.50891 6.98804C8.50891 6.66448 8.2466 6.4021 7.92301 6.4021Z" fill="#8F8F8F"/>
<path d="M10.3525 8.74573H3.62692C3.30332 8.74573 3.04102 9.00807 3.04102 9.33163C3.04102 9.65522 3.30336 9.91752 3.62692 9.91752H10.3525C10.6761 9.91752 10.9384 9.65518 10.9384 9.33163C10.9384 9.00803 10.6761 8.74573 10.3525 8.74573Z" fill="#8F8F8F"/>
</g>
<defs>
<clipPath id="clip0">
<rect width="20" height="20" fill="white" transform="translate(0.658203 0.5)"/>
</clipPath>
</defs>
</svg>
