<svg width="60" height="56" viewBox="0 0 60 56" fill="none" xmlns="http://www.w3.org/2000/svg">
<path fill-rule="evenodd" clip-rule="evenodd" d="M28 56C43.464 56 56 43.464 56 28C56 12.536 43.464 0 28 0C12.536 0 0 12.536 0 28C0 43.464 12.536 56 28 56Z" fill="white"/>
<path d="M55.5 28C55.5 43.1878 43.1878 55.5 28 55.5C12.8122 55.5 0.5 43.1878 0.5 28C0.5 12.8122 12.8122 0.5 28 0.5C43.1878 0.5 55.5 12.8122 55.5 28Z" stroke="black" stroke-opacity="0.05"/>
<circle cx="28" cy="28" r="24" fill="#0367B4"/>
<g clip-path="url(#clip0)">
<path d="M37.4828 24.7831C37.4828 25.7577 36.8138 26.4156 35.834 26.4156C34.8425 26.4156 34.1735 25.7577 34.1735 24.7831C34.1735 23.8148 34.8425 23.1625 35.834 23.1625C36.8138 23.1632 37.4828 23.8148 37.4828 24.7831ZM34.9424 24.795C34.9424 25.3694 35.3062 25.7633 35.834 25.7633C36.3501 25.7633 36.7139 25.3687 36.7139 24.795C36.7139 24.2213 36.3501 23.8267 35.834 23.8267C35.3062 23.8267 34.9424 24.2213 34.9424 24.795Z" fill="white"/>
<path d="M41.3433 24.3898V26.3867H40.575V24.6173C40.575 24.1686 40.3111 23.894 39.877 23.894C39.3609 23.8997 39.0557 24.2886 39.0557 24.8146V26.3867H38.293V23.1884H39.0557V23.7859C39.2789 23.3612 39.6717 23.1639 40.1822 23.1582C40.9036 23.1582 41.3433 23.6307 41.3433 24.3898Z" fill="white"/>
<path d="M43.4293 29.4516H32.0869V20.1229H43.4293V29.4516ZM32.6961 28.8314H42.8207V20.7431H32.6961V28.8314Z" fill="white"/>
<path d="M24.0947 32.3629C24.0947 32.6419 24.3142 32.8223 24.6731 32.8223C25.13 32.8223 25.4888 32.5741 25.5314 32.2517V31.9539H24.7094C24.2895 31.9532 24.0947 32.0714 24.0947 32.3629Z" fill="white"/>
<path d="M16.2466 31.7734H17.7443L17.0013 29.9493L16.2466 31.7734Z" fill="white"/>
<path d="M28.782 32.7657C29.2932 32.7657 29.7075 32.313 29.7075 31.7546C29.7075 31.1963 29.2932 30.7436 28.782 30.7436C28.2709 30.7436 27.8565 31.1963 27.8565 31.7546C27.8565 32.313 28.2709 32.7657 28.782 32.7657Z" fill="white"/>
<path d="M12.572 26.3659V35.8762H32.6576V26.3659H12.572ZM18.4142 33.4042L18.0369 32.4862H15.9546L15.5773 33.4042H14.7307L16.5996 29.061H17.4462L19.291 33.4042H18.4142ZM22.1342 33.4042L21.2512 31.9527L20.7518 32.4862V33.4042H19.96V28.8002H20.7518V31.4682L22.091 30.0909H23.0042L21.7987 31.369L23.0776 33.4042H22.1342ZM25.5372 33.4042V33.0008C25.3121 33.2924 24.9465 33.4413 24.484 33.4413C23.7836 33.4413 23.3458 33.0008 23.3458 32.4114C23.3458 31.7969 23.7903 31.4186 24.5814 31.4123H25.531V31.3256C25.531 30.941 25.2813 30.7111 24.7942 30.7111C24.4896 30.7111 24.1609 30.8166 23.8261 31.0215L23.54 30.4629C24.0086 30.1958 24.3743 30.0532 24.9705 30.0532C25.8227 30.0532 26.3036 30.4936 26.3098 31.232L26.3159 33.4036H25.5372V33.4042ZM30.4989 33.4042H29.7072V32.8708C29.476 33.2371 29.0986 33.4413 28.6115 33.4413C27.6798 33.4413 27.0589 32.7463 27.0589 31.7353C27.0589 30.7299 27.6798 30.0538 28.593 30.0538C29.0925 30.0538 29.4698 30.2586 29.7072 30.6306V28.8002H30.4989V33.4042Z" fill="white"/>
</g>
<rect x="36" y="32" width="24" height="24" rx="12" fill="url(#paint0_linear)"/>
<path d="M47.125 41.3748V40.4998H41.875C41.3929 40.4998 41 40.8927 41 41.3748V43.1248H47.3096C47.188 42.5902 47.125 42.0144 47.125 41.3748Z" fill="white"/>
<path d="M54.9641 44.8748C54.3674 45.7944 53.4574 46.5767 52.1536 47.3257C51.9532 47.4403 51.7275 47.4998 51.5 47.4998C51.2725 47.4998 51.0468 47.4403 50.849 47.3274C49.5452 46.5767 48.6353 45.7936 48.0376 44.8748H41V49.2498C41 49.7328 41.3929 50.1248 41.875 50.1248H54.125C54.608 50.1248 55 49.7328 55 49.2498V44.8748H54.9641ZM44.9375 47.4998H43.1875C42.946 47.4998 42.75 47.3038 42.75 47.0623C42.75 46.8208 42.946 46.6248 43.1875 46.6248H44.9375C45.179 46.6248 45.375 46.8208 45.375 47.0623C45.375 47.3038 45.179 47.4998 44.9375 47.4998Z" fill="white"/>
<path d="M54.7349 39.2231L51.6724 37.9106C51.5612 37.8634 51.4379 37.8634 51.3268 37.9106L48.2643 39.2231C48.1041 39.2914 48 39.4497 48 39.6247V41.3747C48 43.7819 48.8899 45.1889 51.2821 46.567C51.3495 46.6055 51.4248 46.6247 51.5 46.6247C51.5752 46.6247 51.6505 46.6055 51.7179 46.567C54.1101 45.1924 55 43.7854 55 41.3747V39.6247C55 39.4497 54.8959 39.2914 54.7349 39.2231ZM53.1546 41.2111L51.4046 43.3986C51.3206 43.5019 51.1946 43.5622 51.0625 43.5622C51.0564 43.5622 51.0494 43.5622 51.0441 43.5622C50.905 43.5561 50.7764 43.4844 50.6985 43.368L49.8235 42.0555C49.6896 41.8542 49.7439 41.583 49.9451 41.4491C50.1446 41.3161 50.4168 41.3686 50.5515 41.5707L51.0949 42.3854L52.4704 40.6651C52.6218 40.477 52.8974 40.4472 53.0855 40.5969C53.2745 40.7465 53.3042 41.0221 53.1546 41.2111Z" fill="white"/>
<defs>
<linearGradient id="paint0_linear" x1="48" y1="32" x2="48" y2="56" gradientUnits="userSpaceOnUse">
<stop stop-color="#6DE58B"/>
<stop offset="1" stop-color="#1FB845"/>
</linearGradient>
<clipPath id="clip0">
<rect width="30.8571" height="30.8571" fill="white" transform="translate(12.572 12.5714)"/>
</clipPath>
</defs>
</svg>
