<svg width="48" height="48" viewBox="0 0 48 48" fill="none" xmlns="http://www.w3.org/2000/svg">
<circle opacity="0.1" cx="24" cy="24" r="24" fill="#03B0A9"/>
<path d="M29.8594 18.5799V23.3438H31.2656V18.5799C31.8863 18.3086 32.3203 17.6895 32.3203 16.9688C32.3203 15.9979 31.5333 15.2109 30.5625 15.2109C29.8417 15.2109 29.2227 15.6449 28.9514 16.2656H26.0625V17.6719H28.9514C29.1285 18.0773 29.454 18.4027 29.8594 18.5799Z" fill="#03B0A9"/>
<path d="M18.1406 28.0139V24.6562H16.7344V28.0139C16.1137 28.2852 15.6797 28.9043 15.6797 29.625C15.6797 30.5958 16.4667 31.3828 17.4375 31.3828C18.1583 31.3828 18.7773 30.9488 19.0486 30.3281H21.9375V28.9219H19.0486C18.8715 28.5165 18.546 28.191 18.1406 28.0139Z" fill="#03B0A9"/>
<path d="M25.5938 21.1406C25.5938 20.7523 25.2789 20.4375 24.8906 20.4375H12.7031C12.3148 20.4375 12 20.7523 12 21.1406C12 22.3056 12.9444 23.25 14.1094 23.25H23.4844C24.6494 23.25 25.5938 22.3056 25.5938 21.1406Z" fill="#03B0A9"/>
<path d="M24.6562 13.6406C24.6562 12.736 23.9203 12 23.0156 12H14.5781C13.6735 12 12.9375 12.736 12.9375 13.6406V19.0312H24.6562V13.6406Z" fill="#03B0A9"/>
<path d="M35.2969 33.1875H23.1094C22.7211 33.1875 22.4062 33.5023 22.4062 33.8906C22.4062 35.0556 23.3506 36 24.5156 36H33.8906C35.0556 36 36 35.0556 36 33.8906C36 33.5023 35.6852 33.1875 35.2969 33.1875Z" fill="#03B0A9"/>
<path d="M23.3438 26.3906V31.7812H35.0625V26.3906C35.0625 25.486 34.3265 24.75 33.4219 24.75H24.9844C24.0797 24.75 23.3438 25.486 23.3438 26.3906Z" fill="#03B0A9"/>
</svg>
