<svg width="48" height="48" viewBox="0 0 48 48" fill="none" xmlns="http://www.w3.org/2000/svg">
<circle opacity="0.1" cx="24" cy="24" r="24" fill="#FF6D34"/>
<path d="M28.9219 26.1562C26.2082 26.1562 24 28.3645 24 31.0781C24 33.7422 26.1532 36 28.9219 36C31.6355 36 33.8438 33.7918 33.8438 31.0781C33.8438 28.3645 31.6355 26.1562 28.9219 26.1562ZM30.8252 30.5205L28.7159 32.6299C28.4412 32.9046 27.9963 32.9046 27.7216 32.6299L26.6669 31.5752C26.3923 31.3006 26.3923 30.8556 26.6669 30.581C26.9415 30.3063 27.3865 30.3063 27.6612 30.581L28.2188 31.1385L29.831 29.5263C30.1057 29.2516 30.5506 29.2516 30.8253 29.5263C31.0999 29.8009 31.0999 30.2459 30.8252 30.5205Z" fill="#FF6D34"/>
<path d="M28.9219 12H14.8594C14.4707 12 14.1562 12.3145 14.1562 12.7031V32.4844C14.1562 32.873 14.4707 33.1875 14.8594 33.1875H22.9696C22.967 33.1801 22.963 33.1736 22.9604 33.1662C22.7242 32.562 22.5938 31.8403 22.5938 31.0781C22.5938 27.5886 25.4324 24.75 28.9219 24.75C29.1626 24.75 29.3911 24.7947 29.625 24.8211V12.7031C29.625 12.3145 29.3105 12 28.9219 12ZM17.6719 26.1562C17.2836 26.1562 16.9688 25.8414 16.9688 25.4531C16.9688 25.0647 17.2836 24.75 17.6719 24.75C18.0602 24.75 18.375 25.0647 18.375 25.4531C18.375 25.8414 18.0602 26.1562 17.6719 26.1562ZM17.6719 23.3438C17.2836 23.3438 16.9688 23.0289 16.9688 22.6406C16.9688 22.2522 17.2836 21.9375 17.6719 21.9375C18.0602 21.9375 18.375 22.2522 18.375 22.6406C18.375 23.0289 18.0602 23.3438 17.6719 23.3438ZM17.6719 20.5312C17.2836 20.5312 16.9688 20.2164 16.9688 19.8281C16.9688 19.4397 17.2836 19.125 17.6719 19.125C18.0602 19.125 18.375 19.4397 18.375 19.8281C18.375 20.2164 18.0602 20.5312 17.6719 20.5312ZM17.6719 17.7188C17.2836 17.7188 16.9688 17.4039 16.9688 17.0156C16.9688 16.6272 17.2836 16.3125 17.6719 16.3125C18.0602 16.3125 18.375 16.6272 18.375 17.0156C18.375 17.4039 18.0602 17.7188 17.6719 17.7188ZM23.2969 26.1562H20.4844C20.0957 26.1562 19.7812 25.8418 19.7812 25.4531C19.7812 25.0645 20.0957 24.75 20.4844 24.75H23.2969C23.6855 24.75 24 25.0645 24 25.4531C24 25.8418 23.6855 26.1562 23.2969 26.1562ZM26.1094 23.3438H20.4844C20.0957 23.3438 19.7812 23.0293 19.7812 22.6406C19.7812 22.252 20.0957 21.9375 20.4844 21.9375H26.1094C26.498 21.9375 26.8125 22.252 26.8125 22.6406C26.8125 23.0293 26.498 23.3438 26.1094 23.3438ZM26.1094 20.5312H20.4844C20.0957 20.5312 19.7812 20.2168 19.7812 19.8281C19.7812 19.4395 20.0957 19.125 20.4844 19.125H26.1094C26.498 19.125 26.8125 19.4395 26.8125 19.8281C26.8125 20.2168 26.498 20.5312 26.1094 20.5312ZM26.1094 17.7188H20.4844C20.0957 17.7188 19.7812 17.4043 19.7812 17.0156C19.7812 16.627 20.0957 16.3125 20.4844 16.3125H26.1094C26.498 16.3125 26.8125 16.627 26.8125 17.0156C26.8125 17.4043 26.498 17.7188 26.1094 17.7188Z" fill="#FF6D34"/>
</svg>
