<svg width="48" height="48" viewBox="0 0 48 48" fill="none" xmlns="http://www.w3.org/2000/svg">
<circle opacity="0.1" cx="24" cy="24" r="24" fill="#8A88F3"/>
<g clip-path="url(#clip0)">
<path d="M30.1328 29.8672C33.368 29.8672 36 27.2352 36 24C36 20.7648 33.368 18.1328 30.1328 18.1328C28.7542 18.1328 27.1045 18.94 25.0895 20.6005C25.0796 20.6086 25.07 20.6167 25.0602 20.6248L27.4916 23.0674C29.351 21.5801 30.1008 21.5621 30.1328 21.5621C31.4771 21.5621 32.5707 22.6557 32.5707 24C32.5707 25.3443 31.4771 26.4379 30.1328 26.4379C30.0995 26.4379 29.2917 26.4187 27.2703 24.753C27.0366 24.5604 23.2428 20.8743 22.9106 20.6005C20.8956 18.94 19.2458 18.1328 17.8672 18.1328C14.632 18.1328 12 20.7648 12 24C12 27.2352 14.632 29.8672 17.8672 29.8672C19.2458 29.8672 20.8955 29.06 22.9105 27.3995C22.9197 27.392 22.9286 27.3845 22.9377 27.3769L20.514 24.928C18.651 26.4195 17.8993 26.4379 17.8672 26.4379C16.5229 26.4379 15.4293 25.3443 15.4293 24C15.4293 22.6557 16.5229 21.5621 17.8672 21.5621C17.9002 21.5621 18.7934 21.4747 20.7034 23.2254C21.6778 24.1185 24.8468 27.2131 25.0894 27.3995C27.16 28.9903 28.7542 29.8672 30.1328 29.8672Z" fill="#8A88F3"/>
</g>
<defs>
<clipPath id="clip0">
<rect width="24" height="24" fill="white" transform="translate(12 12)"/>
</clipPath>
</defs>
</svg>
