<svg width="24" height="24" viewBox="0 0 24 24" fill="none" xmlns="http://www.w3.org/2000/svg">
<circle cx="12" cy="12" r="12" fill="#E0ECF5"/>
<g clip-path="url(#clip0)">
<path d="M11.7633 9.70558C11.4354 10.0238 11.0638 10.3845 10.8753 10.8078C10.8188 10.9346 10.8303 11.0814 10.9061 11.198C10.9817 11.3145 11.1112 11.3848 11.25 11.3848H12.6755C12.9021 11.3848 13.0857 11.201 13.0857 10.9746C13.0857 10.7481 12.9021 10.5645 12.6755 10.5645H12.0619C12.1515 10.472 12.245 10.3812 12.3347 10.2942C12.7377 9.90308 13.0858 9.56523 13.0858 9.14236C13.0858 8.51677 12.5768 8.00781 11.9513 8.00781C11.4942 8.00781 11.0841 8.27986 10.9066 8.70102C10.8186 8.90973 10.9164 9.15027 11.1251 9.23828C11.334 9.3264 11.5745 9.22845 11.6624 9.01974C11.7115 8.90332 11.8249 8.82812 11.9513 8.82812C12.1218 8.82812 12.2611 8.96474 12.2654 9.13435C12.2338 9.24886 11.9511 9.52325 11.7633 9.70558Z" fill="#0367B4"/>
<path d="M5.71789 9.59357L5.89156 9.41979V10.5611H5.60477C5.37823 10.5611 5.19462 10.7447 5.19462 10.9712C5.19462 11.1978 5.37823 11.3814 5.60477 11.3814H6.99845C7.22489 11.3814 7.40861 11.1978 7.40861 10.9712C7.40861 10.7447 7.22489 10.5611 6.99845 10.5611H6.71188V8.4289C6.71188 8.26302 6.6119 8.11338 6.45863 8.05004C6.30535 7.98649 6.1289 8.02174 6.01162 8.13901L5.13758 9.0138C4.97747 9.17402 4.97758 9.43378 5.1379 9.59389C5.29812 9.7539 5.55778 9.7539 5.71789 9.59357Z" fill="#0367B4"/>
<path d="M17.7563 12.0293C17.4241 12.0293 17.1118 12.1588 16.8769 12.3937C16.642 12.6287 16.5127 12.9411 16.5127 13.2733C16.5127 13.9593 17.0706 14.5174 17.7563 14.5175C18.0885 14.5175 18.4008 14.388 18.6357 14.153C18.8706 13.918 18.9999 13.6056 18.9999 13.2734C18.9999 12.5874 18.442 12.0293 17.7563 12.0293Z" fill="#0367B4"/>
<path d="M11.9682 14.5174C12.3004 14.5174 12.6127 14.3879 12.8476 14.1529C13.0825 13.9179 13.2117 13.6056 13.2117 13.2733C13.2117 12.5874 12.6538 12.0293 11.9682 12.0293C11.9681 12.0293 11.9682 12.0293 11.9681 12.0293C11.6359 12.0293 11.3236 12.1586 11.0887 12.3937C10.854 12.6286 10.7246 12.941 10.7246 13.2733C10.7246 13.9593 11.2825 14.5174 11.9682 14.5174Z" fill="#0367B4"/>
<path d="M8.75519 13.3097C8.75519 13.0959 8.58194 12.9226 8.36832 12.9226C8.15459 12.9226 7.98145 13.0959 7.98145 13.3097C7.98145 13.5234 8.15459 13.6968 8.36832 13.6968C8.58194 13.6968 8.75519 13.5234 8.75519 13.3097Z" fill="#0367B4"/>
<path d="M10.2453 13.3097C10.2453 13.0959 10.0722 12.9226 9.85855 12.9226C9.64482 12.9226 9.47168 13.0959 9.47168 13.3097C9.47168 13.5234 9.64482 13.6968 9.85855 13.6968C10.0722 13.6968 10.2453 13.5234 10.2453 13.3097Z" fill="#0367B4"/>
<path d="M14.4603 13.3097C14.4603 13.0959 14.2871 12.9226 14.0734 12.9226C13.8598 12.9226 13.6865 13.0959 13.6865 13.3097C13.6865 13.5234 13.8598 13.6968 14.0734 13.6968C14.2871 13.6968 14.4603 13.5234 14.4603 13.3097Z" fill="#0367B4"/>
<path d="M15.9505 13.3097C15.9505 13.0959 15.7774 12.9226 15.5636 12.9226C15.35 12.9226 15.1768 13.0959 15.1768 13.3097C15.1768 13.5234 15.35 13.6968 15.5636 13.6968C15.7774 13.6968 15.9505 13.5234 15.9505 13.3097Z" fill="#0367B4"/>
<path d="M13.0259 15.1609H10.9863C10.7598 15.1609 10.5762 15.3445 10.5762 15.571C10.5762 15.7976 10.7598 15.9812 10.9863 15.9812H13.0259C13.2524 15.9812 13.4361 15.7976 13.4361 15.571C13.4361 15.3445 13.2524 15.1609 13.0259 15.1609Z" fill="#0367B4"/>
<path d="M7.11284 12.0824L5.97626 13.2223L5.70026 12.9462C5.54015 12.7859 5.28049 12.7859 5.12027 12.946C4.95995 13.1061 4.95995 13.3658 5.12006 13.526L5.68648 14.0927C5.76338 14.1697 5.86774 14.213 5.97658 14.213H5.97679C6.08563 14.213 6.19009 14.1696 6.267 14.0925L7.69368 12.6617C7.85368 12.5012 7.85326 12.2416 7.69283 12.0817C7.5325 11.9217 7.27274 11.9221 7.11284 12.0824Z" fill="#0367B4"/>
<path d="M17.7449 11.3937C18.3632 11.3937 18.8615 10.9005 18.8793 10.2707C18.8837 10.1098 18.8612 9.7014 18.5544 9.38588C18.5041 9.33408 18.4397 9.27896 18.3591 9.22865L18.77 8.67516C18.8624 8.55072 18.8768 8.38474 18.8072 8.24631C18.7375 8.10788 18.5957 8.02051 18.4407 8.02051H17.211C16.9844 8.02051 16.8008 8.20412 16.8008 8.43066C16.8008 8.65721 16.9844 8.84082 17.211 8.84082H17.6254L17.348 9.21434C17.2556 9.33878 17.2412 9.50465 17.3109 9.64319C17.3806 9.78162 17.5223 9.86899 17.6773 9.86899C17.8118 9.86899 17.9091 9.8989 17.9663 9.95775C18.0389 10.0324 18.0617 10.1606 18.0593 10.2477C18.0541 10.4304 17.916 10.5734 17.7449 10.5734C17.6186 10.5734 17.5052 10.4982 17.4561 10.3819C17.3682 10.1731 17.1275 10.0752 16.9188 10.1633C16.7101 10.2513 16.6123 10.4918 16.7003 10.7005C16.8778 11.1217 17.2879 11.3937 17.7449 11.3937Z" fill="#0367B4"/>
</g>
<defs>
<clipPath id="clip0">
<rect width="14" height="14" fill="white" transform="translate(5 5)"/>
</clipPath>
</defs>
</svg>
