<svg width="48" height="48" viewBox="0 0 48 48" fill="none" xmlns="http://www.w3.org/2000/svg">
<circle opacity="0.1" cx="24" cy="24" r="24" fill="#FFC107"/>
<g clip-path="url(#clip0)">
<path d="M20.6039 29.4158L18.7969 26.2859L18.3589 26.1265V36H19.8538L23.3041 32.3467V28.433L20.6039 29.4158Z" fill="#FFC107"/>
<path d="M29.7078 16.7895L29.1968 13.8915H26.2541L23.9999 12L21.7456 13.8915H18.8029L18.2919 16.7895L16.0376 18.6811L17.509 21.2296L16.998 24.1276L19.7632 25.1341L21.2346 27.6825L23.9999 26.6761L26.7652 27.6825L28.2366 25.1341L31.0018 24.1276L30.4908 21.2296L31.9622 18.6811L29.7078 16.7895ZM22.7168 22.2444L20.8731 20.0934L21.9458 19.1739L22.928 20.3197L26.1663 17.8911L27.0141 19.0214L22.7168 22.2444Z" fill="#FFC107"/>
<path d="M29.2029 26.286L27.3959 29.4159L24.7168 28.4408V32.3437L28.1807 36.0001H29.662V26.1189L29.2029 26.286Z" fill="#FFC107"/>
</g>
<defs>
<clipPath id="clip0">
<rect width="24" height="24" fill="white" transform="translate(12 12)"/>
</clipPath>
</defs>
</svg>
