<svg width="32" height="32" viewBox="0 0 32 32" fill="none" xmlns="http://www.w3.org/2000/svg">
<path d="M1 8H31V28C31 29.1046 30.1046 30 29 30H3C1.89543 30 1 29.1046 1 28V8Z" fill="white"/>
<path d="M19.7333 13.3334H28.2667C28.5611 13.3334 28.8 13.0945 28.8 12.8001C28.8 12.5057 28.5611 12.2668 28.2667 12.2668H19.7333C19.4389 12.2668 19.2 12.5057 19.2 12.8001C19.2 13.0945 19.4389 13.3334 19.7333 13.3334ZM19.7333 17.6001H28.2667C28.5611 17.6001 28.8 17.3612 28.8 17.0668C28.8 16.7724 28.5611 16.5334 28.2667 16.5334H19.7333C19.4389 16.5334 19.2 16.7724 19.2 17.0668C19.2 17.3612 19.4389 17.6001 19.7333 17.6001ZM3.73333 26.1334H16.5333C16.8277 26.1334 17.0667 25.8934 17.0667 25.599C17.0667 24.0428 16.0128 22.6934 14.5045 22.3169L12.5216 21.8209L12.4117 21.3814C12.9301 20.8257 13.2939 20.1046 13.4336 19.358C13.7685 19.2033 14.0149 18.8865 14.0629 18.5014L14.2027 17.3868C14.24 17.0796 14.1451 16.7702 13.9424 16.5377C13.8667 16.4502 13.7771 16.3766 13.6789 16.318L13.7173 15.5372L13.8635 15.391C14.1696 15.0636 14.5856 14.3617 13.92 13.343C13.5979 12.8524 12.9344 12.2668 11.5979 12.2668C11.1968 12.2668 10.2848 12.2668 9.41013 12.8268C6.8704 12.9036 6.5408 14.1868 6.5408 15.3046C6.5408 15.5254 6.58347 15.9596 6.6208 16.2988C6.51307 16.3585 6.41493 16.4364 6.33173 16.5313C6.1248 16.7649 6.02773 17.0764 6.06613 17.3889L6.20587 18.5014C6.25493 18.8982 6.5152 19.2246 6.90133 19.3718C7.03893 20.0897 7.3824 20.7862 7.86987 21.3302L7.7472 21.822L5.76427 22.318C4.25493 22.6934 3.2 24.0438 3.2 25.6001C3.2 25.8945 3.43893 26.1334 3.73333 26.1334ZM28.7776 1.6001H3.22453C1.44533 1.6001 0 3.0241 0 4.7745V27.2246C0 28.9761 1.44533 30.4001 3.2224 30.4001H28.7765C30.5536 30.4001 31.9989 28.9761 31.9989 27.2246V4.7745C32 3.0241 30.5557 1.6001 28.7776 1.6001ZM9.6 3.73343C10.1888 3.73343 10.6667 4.2113 10.6667 4.8001C10.6667 5.3889 10.1888 5.86676 9.6 5.86676C9.0112 5.86676 8.53333 5.3889 8.53333 4.8001C8.53333 4.2113 9.0112 3.73343 9.6 3.73343ZM6.4 3.73343C6.9888 3.73343 7.46667 4.2113 7.46667 4.8001C7.46667 5.3889 6.9888 5.86676 6.4 5.86676C5.8112 5.86676 5.33333 5.3889 5.33333 4.8001C5.33333 4.2113 5.8112 3.73343 6.4 3.73343ZM3.2 3.73343C3.7888 3.73343 4.26667 4.2113 4.26667 4.8001C4.26667 5.3889 3.7888 5.86676 3.2 5.86676C2.6112 5.86676 2.13333 5.3889 2.13333 4.8001C2.13333 4.2113 2.6112 3.73343 3.2 3.73343ZM30.9355 27.2246H30.9333C30.9333 28.3873 29.9659 29.3334 28.7776 29.3334H3.22453C2.03627 29.3334 1.0688 28.3873 1.0688 27.2246V8.0001H30.9355V27.2246ZM19.7333 26.1334H24C24.2944 26.1334 24.5333 25.8945 24.5333 25.6001C24.5333 25.3057 24.2944 25.0668 24 25.0668H19.7333C19.4389 25.0668 19.2 25.3057 19.2 25.6001C19.2 25.8945 19.4389 26.1334 19.7333 26.1334ZM19.7333 21.8668H28.2667C28.5611 21.8668 28.8 21.6278 28.8 21.3334C28.8 21.039 28.5611 20.8001 28.2667 20.8001H19.7333C19.4389 20.8001 19.2 21.039 19.2 21.3334C19.2 21.6278 19.4389 21.8668 19.7333 21.8668Z" fill="#0367B4"/>
</svg>
