<svg width="60" height="56" viewBox="0 0 60 56" fill="none" xmlns="http://www.w3.org/2000/svg">
<path fill-rule="evenodd" clip-rule="evenodd" d="M28 56C43.464 56 56 43.464 56 28C56 12.536 43.464 0 28 0C12.536 0 0 12.536 0 28C0 43.464 12.536 56 28 56Z" fill="white"/>
<path d="M55.5 28C55.5 43.1878 43.1878 55.5 28 55.5C12.8122 55.5 0.5 43.1878 0.5 28C0.5 12.8122 12.8122 0.5 28 0.5C43.1878 0.5 55.5 12.8122 55.5 28Z" stroke="black" stroke-opacity="0.05"/>
<circle cx="28" cy="28" r="24" fill="#0367B4"/>
<g clip-path="url(#clip0)">
<path d="M37.4828 24.7831C37.4828 25.7577 36.8138 26.4156 35.834 26.4156C34.8425 26.4156 34.1735 25.7577 34.1735 24.7831C34.1735 23.8148 34.8425 23.1626 35.834 23.1626C36.8138 23.1632 37.4828 23.8148 37.4828 24.7831ZM34.9424 24.7951C34.9424 25.3694 35.3062 25.7634 35.834 25.7634C36.3501 25.7634 36.7139 25.3688 36.7139 24.7951C36.7139 24.2214 36.3501 23.8268 35.834 23.8268C35.3062 23.8268 34.9424 24.2214 34.9424 24.7951Z" fill="white"/>
<path d="M41.3433 24.3898V26.3867H40.575V24.6173C40.575 24.1686 40.3111 23.894 39.877 23.894C39.3609 23.8997 39.0557 24.2886 39.0557 24.8146V26.3867H38.293V23.1884H39.0557V23.7859C39.2789 23.3612 39.6717 23.1639 40.1822 23.1582C40.9036 23.1582 41.3433 23.6307 41.3433 24.3898Z" fill="white"/>
<path d="M43.4293 29.4516H32.0869V20.1229H43.4293V29.4516ZM32.6961 28.8314H42.8207V20.7431H32.6961V28.8314Z" fill="white"/>
<path d="M24.0947 32.363C24.0947 32.642 24.3142 32.8223 24.6731 32.8223C25.13 32.8223 25.4888 32.5741 25.5314 32.2517V31.9539H24.7094C24.2895 31.9533 24.0947 32.0714 24.0947 32.363Z" fill="white"/>
<path d="M16.2466 31.7735H17.7443L17.0013 29.9493L16.2466 31.7735Z" fill="white"/>
<path d="M28.782 32.7657C29.2932 32.7657 29.7075 32.313 29.7075 31.7547C29.7075 31.1963 29.2932 30.7436 28.782 30.7436C28.2709 30.7436 27.8565 31.1963 27.8565 31.7547C27.8565 32.313 28.2709 32.7657 28.782 32.7657Z" fill="white"/>
<path d="M12.572 26.3659V35.8763H32.6576V26.3659H12.572ZM18.4142 33.4043L18.0369 32.4862H15.9546L15.5773 33.4043H14.7307L16.5996 29.061H17.4462L19.291 33.4043H18.4142ZM22.1342 33.4043L21.2512 31.9527L20.7518 32.4862V33.4043H19.96V28.8002H20.7518V31.4683L22.091 30.0909H23.0042L21.7987 31.369L23.0776 33.4043H22.1342ZM25.5372 33.4043V33.0009C25.3121 33.2924 24.9465 33.4413 24.484 33.4413C23.7836 33.4413 23.3458 33.0009 23.3458 32.4115C23.3458 31.7969 23.7903 31.4186 24.5814 31.4123H25.531V31.3256C25.531 30.9411 25.2813 30.7111 24.7942 30.7111C24.4896 30.7111 24.1609 30.8167 23.8261 31.0215L23.54 30.4629C24.0086 30.1958 24.3743 30.0532 24.9705 30.0532C25.8227 30.0532 26.3036 30.4937 26.3098 31.232L26.3159 33.4036H25.5372V33.4043ZM30.4989 33.4043H29.7072V32.8708C29.476 33.2371 29.0986 33.4413 28.6115 33.4413C27.6798 33.4413 27.0589 32.7464 27.0589 31.7353C27.0589 30.7299 27.6798 30.0538 28.593 30.0538C29.0925 30.0538 29.4698 30.2587 29.7072 30.6307V28.8002H30.4989V33.4043Z" fill="white"/>
</g>
<rect x="36" y="32" width="24" height="24" rx="12" fill="#8A88F3"/>
<path d="M54.08 38.9594C54.0549 38.7789 53.925 38.6304 53.7494 38.5816L48.1226 37.0168C48.0424 36.9944 47.9576 36.9944 47.8774 37.0168L42.2505 38.5816C42.075 38.6304 41.9451 38.7788 41.92 38.9594C41.8873 39.1941 41.1428 44.7389 43.0525 47.4973C44.9599 50.2524 47.7737 50.9585 47.8926 50.9872C47.9279 50.9957 47.9639 50.9999 48 50.9999C48.0361 50.9999 48.0721 50.9957 48.1074 50.9872C48.2263 50.9585 51.0401 50.2524 52.9475 47.4973C54.8572 44.739 54.1126 39.1941 54.08 38.9594ZM51.6286 42.1965L47.7905 46.0346C47.7012 46.1239 47.5841 46.1686 47.467 46.1686C47.3499 46.1686 47.2328 46.124 47.1435 46.0346L44.7705 43.6616C44.6846 43.5758 44.6364 43.4594 44.6364 43.3381C44.6364 43.2167 44.6847 43.1003 44.7705 43.0146L45.2416 42.5434C45.4203 42.3648 45.71 42.3647 45.8886 42.5434L47.467 44.1218L50.5104 41.0783C50.5962 40.9925 50.7126 40.9443 50.8339 40.9443C50.9552 40.9443 51.0716 40.9925 51.1574 41.0783L51.6286 41.5495C51.8073 41.7282 51.8073 42.0179 51.6286 42.1965Z" fill="white"/>
<defs>
<clipPath id="clip0">
<rect width="30.8571" height="30.8571" fill="white" transform="translate(12.572 12.5714)"/>
</clipPath>
</defs>
</svg>
