<svg width="227" height="106" viewBox="0 0 227 106" fill="none" xmlns="http://www.w3.org/2000/svg">
<path d="M24.4781 47.1995V54.4475H23.0621V57.2075H24.4781V63.9995H31.1501C33.4541 63.9995 35.3741 63.1835 36.9101 61.5755C38.4701 59.9675 39.2381 57.9755 39.2381 55.5995C39.2381 53.2235 38.4701 51.2315 36.9101 49.6235C35.3741 48.0155 33.4541 47.1995 31.1501 47.1995H24.4781ZM27.7901 60.8315V57.2075H31.1981V54.4475H27.7901V50.3675H31.1501C32.6141 50.3675 33.7901 50.8475 34.7021 51.8315C35.6141 52.7915 36.0701 54.0395 36.0701 55.5995C36.0701 57.1595 35.6141 58.4075 34.7021 59.3915C33.7901 60.3515 32.6141 60.8315 31.1501 60.8315H27.7901ZM48.4553 50.8715C51.0233 50.8715 52.4633 49.5995 52.4633 47.3915H49.7033C49.7033 48.2315 49.2953 48.6395 48.4553 48.6395C47.6393 48.6395 47.2313 48.2315 47.2313 47.3915H44.4713C44.4713 49.5995 45.9353 50.8715 48.4553 50.8715ZM50.5673 53.4155C49.6313 52.2395 48.3353 51.6635 46.6553 51.6635C45.0473 51.6635 43.6793 52.2875 42.5273 53.5115C41.3993 54.7355 40.8232 56.2235 40.8232 57.9995C40.8232 59.7755 41.3993 61.2875 42.5273 62.5115C43.6793 63.7355 45.0473 64.3355 46.6553 64.3355C48.3353 64.3355 49.6313 63.7595 50.5673 62.5835V63.9995H53.6633V51.9995H50.5673V53.4155ZM44.8553 60.4475C44.2313 59.7995 43.9193 58.9835 43.9193 57.9995C43.9193 57.0155 44.2313 56.1995 44.8553 55.5755C45.4793 54.9275 46.2713 54.6155 47.2313 54.6155C48.1913 54.6155 48.9833 54.9275 49.6073 55.5755C50.2553 56.1995 50.5673 57.0155 50.5673 57.9995C50.5673 58.9835 50.2553 59.7995 49.6073 60.4475C48.9833 61.0715 48.1913 61.3835 47.2313 61.3835C46.2713 61.3835 45.4793 61.0715 44.8553 60.4475ZM63.1427 51.6635C61.5107 51.6635 60.3107 52.2155 59.5667 53.3435V51.9995H56.4707V63.9995H59.5667V57.5195C59.5667 55.5275 60.5987 54.5435 62.2067 54.5435C63.6467 54.5435 64.5827 55.4075 64.5827 57.0155V63.9995H67.6787V56.6315C67.6787 55.0715 67.2467 53.8715 66.3827 52.9835C65.5427 52.0955 64.4627 51.6635 63.1427 51.6635ZM79.5143 53.4875C78.6023 52.2635 77.3303 51.6635 75.6743 51.6635C73.9943 51.6635 72.5783 52.2635 71.4263 53.4635C70.2743 54.6635 69.6982 56.1035 69.6982 57.8075C69.6982 59.5115 70.2743 60.9755 71.4023 62.1755C72.5543 63.3515 73.9703 63.9515 75.6743 63.9515C77.3303 63.9515 78.6023 63.3515 79.5143 62.1275V63.4235C79.5143 65.3195 78.3143 66.3755 76.3703 66.3755C74.8823 66.3755 73.8263 65.8235 73.2263 64.6955L70.5863 66.2075C71.6423 68.1275 73.6823 69.1355 76.2743 69.1355C78.0023 69.1355 79.4663 68.6555 80.6903 67.6715C81.9143 66.6875 82.5383 65.2715 82.5383 63.4235V51.9995H79.5143V53.4875ZM79.5143 57.8075C79.5143 59.7275 78.0983 61.0955 76.1543 61.0955C74.2103 61.0955 72.7943 59.7275 72.7943 57.8075C72.7943 56.8715 73.1063 56.0795 73.7303 55.4795C74.3783 54.8555 75.1703 54.5435 76.1543 54.5435C77.1383 54.5435 77.9303 54.8555 78.5543 55.4795C79.2023 56.0795 79.5143 56.8715 79.5143 57.8075ZM97.4417 57.9275L102.266 51.9995H98.5697L94.4417 57.2795V47.1995H91.3457V63.9995H94.4417V58.5515L98.8097 63.9995H102.41L97.4417 57.9275ZM109.331 47.1995L107.411 50.4875H110.387L113.051 47.1995H109.331ZM109.115 60.0635L105.995 51.9995H102.611L107.531 63.6155C106.955 65.2475 106.043 65.9435 104.387 65.9195V68.7995C107.459 68.9675 109.475 67.4555 110.723 63.9995L115.091 51.9995H111.779L109.115 60.0635ZM129.428 51.9995H126.716V48.6395L123.62 49.5755V51.9995H121.532V54.9755H123.62V59.9675C123.62 63.2555 125.18 64.4795 129.428 63.9995V61.1915C127.652 61.2875 126.716 61.2635 126.716 59.9675V54.9755H129.428V51.9995ZM138.687 47.1995H134.967L137.631 50.4875H140.607L138.687 47.1995ZM140.919 53.4155C139.983 52.2395 138.687 51.6635 137.007 51.6635C135.399 51.6635 134.031 52.2875 132.879 53.5115C131.751 54.7355 131.175 56.2235 131.175 57.9995C131.175 59.7755 131.751 61.2875 132.879 62.5115C134.031 63.7355 135.399 64.3355 137.007 64.3355C138.687 64.3355 139.983 63.7595 140.919 62.5835V63.9995H144.015V51.9995H140.919V53.4155ZM135.207 60.4475C134.583 59.7995 134.271 58.9835 134.271 57.9995C134.271 57.0155 134.583 56.1995 135.207 55.5755C135.831 54.9275 136.623 54.6155 137.583 54.6155C138.543 54.6155 139.335 54.9275 139.959 55.5755C140.607 56.1995 140.919 57.0155 140.919 57.9995C140.919 58.9835 140.607 59.7995 139.959 60.4475C139.335 61.0715 138.543 61.3835 137.583 61.3835C136.623 61.3835 135.831 61.0715 135.207 60.4475ZM148.358 50.9435C149.414 50.9435 150.278 50.1035 150.278 49.0955C150.278 48.0875 149.414 47.2235 148.358 47.2235C147.326 47.2235 146.462 48.0875 146.462 49.0955C146.462 50.1035 147.326 50.9435 148.358 50.9435ZM149.918 63.9995V51.9995H146.822V63.9995H149.918ZM164.848 57.9275L169.672 51.9995H165.976L161.848 57.2795V47.1995H158.752V63.9995H161.848V58.5515L166.216 63.9995H169.816L164.848 57.9275ZM178.033 51.6635C176.401 51.6635 175.201 52.2155 174.457 53.3435V47.1995H171.361V63.9995H174.457V57.5195C174.457 55.5275 175.489 54.5435 177.097 54.5435C178.537 54.5435 179.473 55.4075 179.473 57.0155V63.9995H182.569V56.6315C182.569 55.0715 182.137 53.8715 181.273 52.9835C180.433 52.0955 179.353 51.6635 178.033 51.6635ZM195.437 62.5115C196.661 61.2875 197.285 59.7755 197.285 57.9995C197.285 56.2235 196.661 54.7355 195.437 53.5115C194.213 52.2875 192.701 51.6635 190.925 51.6635C189.149 51.6635 187.637 52.2875 186.413 53.5115C185.189 54.7355 184.589 56.2235 184.589 57.9995C184.589 59.7755 185.189 61.2875 186.413 62.5115C187.637 63.7355 189.149 64.3355 190.925 64.3355C192.701 64.3355 194.213 63.7355 195.437 62.5115ZM188.597 60.3755C187.997 59.7515 187.685 58.9595 187.685 57.9995C187.685 57.0395 187.997 56.2475 188.597 55.6235C189.221 54.9995 189.989 54.6875 190.925 54.6875C191.861 54.6875 192.629 54.9995 193.253 55.6235C193.877 56.2475 194.189 57.0395 194.189 57.9995C194.189 58.9595 193.877 59.7515 193.253 60.3755C192.629 60.9995 191.861 61.3115 190.925 61.3115C189.989 61.3115 189.221 60.9995 188.597 60.3755ZM207.503 50.6795C207.431 50.1035 207.599 49.9595 207.911 49.8155C208.415 49.5515 208.871 48.9755 208.871 48.0395C208.871 46.7675 207.839 46.0475 206.471 46.0475C205.127 46.0475 204.215 46.6475 203.687 47.8475L205.487 48.5195C205.703 47.9195 206.039 47.8235 206.423 47.8235C206.711 47.8235 206.807 47.9675 206.807 48.1115C206.807 48.3755 206.639 48.5435 206.519 48.6155C206.543 48.5915 206.303 48.7595 206.303 48.7595C205.679 49.0715 205.463 49.3115 205.463 50.6795H207.503ZM208.583 53.4155C207.647 52.2395 206.351 51.6635 204.671 51.6635C203.063 51.6635 201.695 52.2875 200.543 53.5115C199.415 54.7355 198.839 56.2235 198.839 57.9995C198.839 59.7755 199.415 61.2875 200.543 62.5115C201.695 63.7355 203.063 64.3355 204.671 64.3355C206.351 64.3355 207.647 63.7595 208.583 62.5835V63.9995H211.679V51.9995H208.583V53.4155ZM202.871 60.4475C202.247 59.7995 201.935 58.9835 201.935 57.9995C201.935 57.0155 202.247 56.1995 202.871 55.5755C203.495 54.9275 204.287 54.6155 205.247 54.6155C206.207 54.6155 206.999 54.9275 207.623 55.5755C208.271 56.1995 208.583 57.0155 208.583 57.9995C208.583 58.9835 208.271 59.7995 207.623 60.4475C206.999 61.0715 206.207 61.3835 205.247 61.3835C204.287 61.3835 203.495 61.0715 202.871 60.4475ZM221.158 51.6635C219.526 51.6635 218.326 52.2155 217.582 53.3435V51.9995H214.486V63.9995H217.582V57.5195C217.582 55.5275 218.614 54.5435 220.222 54.5435C221.662 54.5435 222.598 55.4075 222.598 57.0155V63.9995H225.694V56.6315C225.694 55.0715 225.262 53.8715 224.398 52.9835C223.558 52.0955 222.478 51.6635 221.158 51.6635Z" fill="black"/>
<path d="M123.472 32.5431C126.628 41.0751 123.443 51.1393 115.529 60.5577C107.626 69.9634 95.0725 78.6329 79.734 84.306C64.3956 89.9791 49.2223 91.5646 37.1008 89.5653C24.963 87.5632 15.9955 81.9939 12.8398 73.4618C9.68411 64.9298 12.8693 54.8656 20.7832 45.4472C28.6864 36.0415 41.2396 27.372 56.578 21.6989C71.9164 16.0258 87.0897 14.4403 99.2112 16.4396C111.349 18.4417 120.317 24.011 123.472 32.5431Z" stroke="#FF6D34"/>
<path d="M104.991 8.19582L104.914 17.4586L97.4262 19.9631L105.311 20.3897L107.804 29.0066L107.921 20.0369L115.264 17.552L107.525 17.1058L104.991 8.19582Z" fill="#002147"/>
</svg>
