<svg width="60" height="56" viewBox="0 0 60 56" fill="none" xmlns="http://www.w3.org/2000/svg">
<path fill-rule="evenodd" clip-rule="evenodd" d="M28 56C43.464 56 56 43.464 56 28C56 12.536 43.464 0 28 0C12.536 0 0 12.536 0 28C0 43.464 12.536 56 28 56Z" fill="white"/>
<path d="M55.5 28C55.5 43.1878 43.1878 55.5 28 55.5C12.8122 55.5 0.5 43.1878 0.5 28C0.5 12.8122 12.8122 0.5 28 0.5C43.1878 0.5 55.5 12.8122 55.5 28Z" stroke="black" stroke-opacity="0.05"/>
<circle cx="28" cy="28" r="24" fill="#0367B4"/>
<g clip-path="url(#clip0)">
<path d="M37.4828 24.7831C37.4828 25.7577 36.8138 26.4156 35.834 26.4156C34.8425 26.4156 34.1735 25.7577 34.1735 24.7831C34.1735 23.8148 34.8425 23.1625 35.834 23.1625C36.8138 23.1632 37.4828 23.8148 37.4828 24.7831ZM34.9424 24.795C34.9424 25.3694 35.3062 25.7633 35.834 25.7633C36.3501 25.7633 36.7139 25.3687 36.7139 24.795C36.7139 24.2213 36.3501 23.8267 35.834 23.8267C35.3062 23.8267 34.9424 24.2213 34.9424 24.795Z" fill="white"/>
<path d="M41.3433 24.3898V26.3867H40.575V24.6173C40.575 24.1686 40.3111 23.894 39.877 23.894C39.3609 23.8997 39.0557 24.2886 39.0557 24.8146V26.3867H38.293V23.1883H39.0557V23.7859C39.2789 23.3612 39.6717 23.1638 40.1822 23.1582C40.9036 23.1582 41.3433 23.6307 41.3433 24.3898Z" fill="white"/>
<path d="M43.4293 29.4516H32.0869V20.1228H43.4293V29.4516ZM32.6961 28.8314H42.8207V20.743H32.6961V28.8314Z" fill="white"/>
<path d="M24.0947 32.3629C24.0947 32.6419 24.3142 32.8223 24.6731 32.8223C25.13 32.8223 25.4888 32.5741 25.5314 32.2517V31.9539H24.7094C24.2895 31.9532 24.0947 32.0714 24.0947 32.3629Z" fill="white"/>
<path d="M16.2466 31.7735H17.7443L17.0013 29.9493L16.2466 31.7735Z" fill="white"/>
<path d="M28.782 32.7657C29.2932 32.7657 29.7075 32.313 29.7075 31.7546C29.7075 31.1963 29.2932 30.7436 28.782 30.7436C28.2709 30.7436 27.8565 31.1963 27.8565 31.7546C27.8565 32.313 28.2709 32.7657 28.782 32.7657Z" fill="white"/>
<path d="M12.572 26.3659V35.8762H32.6576V26.3659H12.572ZM18.4142 33.4043L18.0369 32.4862H15.9546L15.5773 33.4043H14.7307L16.5996 29.061H17.4462L19.291 33.4043H18.4142ZM22.1342 33.4043L21.2512 31.9527L20.7518 32.4862V33.4043H19.96V28.8002H20.7518V31.4683L22.091 30.0909H23.0042L21.7987 31.369L23.0776 33.4043H22.1342ZM25.5372 33.4043V33.0008C25.3121 33.2924 24.9465 33.4413 24.484 33.4413C23.7836 33.4413 23.3458 33.0008 23.3458 32.4114C23.3458 31.7969 23.7903 31.4186 24.5814 31.4123H25.531V31.3256C25.531 30.9411 25.2813 30.7111 24.7942 30.7111C24.4896 30.7111 24.1609 30.8166 23.8261 31.0215L23.54 30.4629C24.0086 30.1958 24.3743 30.0532 24.9705 30.0532C25.8227 30.0532 26.3036 30.4937 26.3098 31.232L26.3159 33.4036H25.5372V33.4043ZM30.4989 33.4043H29.7072V32.8708C29.476 33.2371 29.0986 33.4413 28.6115 33.4413C27.6798 33.4413 27.0589 32.7464 27.0589 31.7353C27.0589 30.7299 27.6798 30.0538 28.593 30.0538C29.0925 30.0538 29.4698 30.2587 29.7072 30.6306V28.8002H30.4989V33.4043Z" fill="white"/>
</g>
<rect x="36" y="32" width="24" height="24" rx="12" fill="url(#paint0_linear)"/>
<path d="M48 37C45.9646 37 44.3086 38.656 44.3086 40.6914C44.3086 42.7268 45.9646 44.3828 48 44.3828C50.0354 44.3828 51.6914 42.7268 51.6914 40.6914C51.6914 38.656 50.0354 37 48 37Z" fill="white"/>
<path d="M52.5928 46.7944C51.5822 45.7682 50.2424 45.2031 48.8203 45.2031H47.1797C45.7576 45.2031 44.4178 45.7682 43.4072 46.7944C42.4015 47.8155 41.8477 49.1634 41.8477 50.5898C41.8477 50.8164 42.0313 51 42.2578 51H53.7422C53.9687 51 54.1523 50.8164 54.1523 50.5898C54.1523 49.1634 53.5985 47.8155 52.5928 46.7944Z" fill="white"/>
<defs>
<linearGradient id="paint0_linear" x1="48" y1="32" x2="48" y2="56" gradientUnits="userSpaceOnUse">
<stop stop-color="#6DE58B"/>
<stop offset="1" stop-color="#1FB845"/>
</linearGradient>
<clipPath id="clip0">
<rect width="30.8571" height="30.8571" fill="white" transform="translate(12.572 12.5714)"/>
</clipPath>
</defs>
</svg>
