<svg width="60" height="56" viewBox="0 0 60 56" fill="none" xmlns="http://www.w3.org/2000/svg">
<path fill-rule="evenodd" clip-rule="evenodd" d="M28 56C43.464 56 56 43.464 56 28C56 12.536 43.464 0 28 0C12.536 0 0 12.536 0 28C0 43.464 12.536 56 28 56Z" fill="white"/>
<path d="M55.5 28C55.5 43.1878 43.1878 55.5 28 55.5C12.8122 55.5 0.5 43.1878 0.5 28C0.5 12.8122 12.8122 0.5 28 0.5C43.1878 0.5 55.5 12.8122 55.5 28Z" stroke="black" stroke-opacity="0.05"/>
<circle cx="28" cy="28" r="24" fill="#0367B4"/>
<g clip-path="url(#clip0)">
<path d="M37.4828 24.7831C37.4828 25.7577 36.8138 26.4156 35.834 26.4156C34.8425 26.4156 34.1735 25.7577 34.1735 24.7831C34.1735 23.8148 34.8425 23.1625 35.834 23.1625C36.8138 23.1632 37.4828 23.8148 37.4828 24.7831ZM34.9424 24.795C34.9424 25.3694 35.3062 25.7634 35.834 25.7634C36.3501 25.7634 36.7139 25.3687 36.7139 24.795C36.7139 24.2213 36.3501 23.8267 35.834 23.8267C35.3062 23.8267 34.9424 24.2213 34.9424 24.795Z" fill="white"/>
<path d="M41.3433 24.3898V26.3867H40.575V24.6173C40.575 24.1686 40.3111 23.894 39.877 23.894C39.3609 23.8997 39.0557 24.2886 39.0557 24.8146V26.3867H38.293V23.1884H39.0557V23.7859C39.2789 23.3612 39.6717 23.1639 40.1822 23.1582C40.9036 23.1582 41.3433 23.6307 41.3433 24.3898Z" fill="white"/>
<path d="M43.4293 29.4516H32.0869V20.1229H43.4293V29.4516ZM32.6961 28.8314H42.8207V20.7431H32.6961V28.8314Z" fill="white"/>
<path d="M24.0947 32.363C24.0947 32.642 24.3142 32.8223 24.6731 32.8223C25.13 32.8223 25.4888 32.5741 25.5314 32.2517V31.9539H24.7094C24.2895 31.9533 24.0947 32.0714 24.0947 32.363Z" fill="white"/>
<path d="M16.2466 31.7735H17.7443L17.0013 29.9493L16.2466 31.7735Z" fill="white"/>
<path d="M28.782 32.7657C29.2932 32.7657 29.7075 32.313 29.7075 31.7546C29.7075 31.1963 29.2932 30.7436 28.782 30.7436C28.2709 30.7436 27.8565 31.1963 27.8565 31.7546C27.8565 32.313 28.2709 32.7657 28.782 32.7657Z" fill="white"/>
<path d="M12.572 26.3659V35.8763H32.6576V26.3659H12.572ZM18.4142 33.4043L18.0369 32.4862H15.9546L15.5773 33.4043H14.7307L16.5996 29.061H17.4462L19.291 33.4043H18.4142ZM22.1342 33.4043L21.2512 31.9527L20.7518 32.4862V33.4043H19.96V28.8002H20.7518V31.4683L22.091 30.0909H23.0042L21.7987 31.369L23.0776 33.4043H22.1342ZM25.5372 33.4043V33.0009C25.3121 33.2924 24.9465 33.4413 24.484 33.4413C23.7836 33.4413 23.3458 33.0009 23.3458 32.4114C23.3458 31.7969 23.7903 31.4186 24.5814 31.4123H25.531V31.3256C25.531 30.9411 25.2813 30.7111 24.7942 30.7111C24.4896 30.7111 24.1609 30.8166 23.8261 31.0215L23.54 30.4629C24.0086 30.1958 24.3743 30.0532 24.9705 30.0532C25.8227 30.0532 26.3036 30.4937 26.3098 31.232L26.3159 33.4036H25.5372V33.4043ZM30.4989 33.4043H29.7072V32.8708C29.476 33.2371 29.0986 33.4413 28.6115 33.4413C27.6798 33.4413 27.0589 32.7464 27.0589 31.7353C27.0589 30.7299 27.6798 30.0538 28.593 30.0538C29.0925 30.0538 29.4698 30.2587 29.7072 30.6307V28.8002H30.4989V33.4043Z" fill="white"/>
</g>
<rect x="36" y="32" width="24" height="24" rx="12" fill="url(#paint0_linear)"/>
<g clip-path="url(#clip1)">
<path d="M43.2662 45.5072C43.3596 45.5698 43.4653 45.5997 43.5698 45.5997C43.7462 45.5997 43.9193 45.5145 44.0248 45.3569C44.9085 44.0364 46.3857 43.248 47.9763 43.248C49.5622 43.248 51.0369 44.0328 51.9212 45.3472C52.0899 45.5978 52.4297 45.6643 52.6802 45.4957C52.9308 45.3271 52.9973 44.9873 52.8287 44.7367C52.1222 43.6865 51.1092 42.9116 49.9516 42.4971C50.6458 41.93 51.0898 41.0677 51.0898 40.1035C51.0898 38.3998 49.7038 37.0137 48 37.0137C46.2962 37.0137 44.9102 38.3998 44.9102 40.1035C44.9102 41.0608 45.3477 41.9177 46.0333 42.4849C44.8577 42.8979 43.8294 43.6822 43.1158 44.7486C42.9478 44.9996 43.0152 45.3393 43.2662 45.5072ZM48 38.1074C49.1006 38.1074 49.9961 39.0029 49.9961 40.1035C49.9961 41.2042 49.1006 42.0996 48 42.0996C46.8994 42.0996 46.0039 41.2042 46.0039 40.1035C46.0039 39.0029 46.8994 38.1074 48 38.1074ZM50.1809 46.6969L49.3656 47.2851C49.2443 47.3726 49.1935 47.5277 49.2399 47.6693L49.5682 48.6209C49.5821 48.6633 49.5874 48.7047 49.5856 48.7441C49.574 48.9997 49.2537 49.1746 49.0187 49.0051L48.2035 48.4168C48.1428 48.373 48.0714 48.3512 48 48.3512C47.9286 48.3512 47.8572 48.373 47.7966 48.4168L46.9813 49.0051C46.7464 49.1746 46.4245 48.9997 46.4144 48.7441C46.4128 48.7047 46.4183 48.6632 46.4321 48.6209L46.7602 47.6693C46.8065 47.5277 46.7557 47.3726 46.6344 47.2851L45.8191 46.6969C45.5479 46.5012 45.6873 46.0371 46.0226 46.0371H47.0303C47.1803 46.0371 47.3132 45.9794 47.3595 45.8378L47.6709 44.88C47.7227 44.7217 47.8613 44.6426 48 44.6426C48.1387 44.6426 48.2774 44.7217 48.3292 44.88L48.6406 45.8378C48.6869 45.9794 48.8198 46.0371 48.9697 46.0371H49.9775C50.3127 46.0371 50.4521 46.5012 50.1809 46.6969ZM54.8567 48.611L54.0414 49.1991C53.9201 49.2866 53.8693 49.4417 53.9157 49.5833L54.244 50.5349C54.2578 50.5773 54.2632 50.6187 54.2614 50.6582C54.2498 50.9138 53.9294 51.0886 53.6945 50.9191L52.8792 50.3308C52.8186 50.2871 52.7472 50.2652 52.6758 50.2652C52.6044 50.2652 52.533 50.2871 52.4724 50.3308L51.6571 50.9191C51.4222 51.0886 51.1003 50.9138 51.0901 50.6582C51.0886 50.6187 51.0941 50.5773 51.1079 50.5349L51.4359 49.5833C51.4823 49.4417 51.4315 49.2866 51.3102 49.1991L50.4949 48.611C50.2237 48.4153 50.3631 47.9512 50.6984 47.9512H51.7061C51.856 47.9512 51.9889 47.8934 52.0353 47.7519L52.3466 46.7941C52.3985 46.6358 52.5371 46.5566 52.6758 46.5566C52.8145 46.5566 52.9532 46.6358 53.005 46.7941L53.3164 47.7519C53.3627 47.8934 53.4956 47.9512 53.6455 47.9512H54.6533C54.9885 47.9512 55.1279 48.4153 54.8567 48.611ZM45.5051 48.611L44.6898 49.1991C44.5685 49.2866 44.5177 49.4417 44.5641 49.5833L44.8924 50.5349C44.9063 50.5773 44.9116 50.6187 44.9098 50.6582C44.8982 50.9138 44.5779 51.0886 44.3429 50.9191L43.5277 50.3308C43.467 50.2871 43.3956 50.2652 43.3242 50.2652C43.2528 50.2652 43.1814 50.2871 43.1208 50.3308L42.3055 50.9191C42.0706 51.0886 41.7487 50.9138 41.7386 50.6582C41.737 50.6187 41.7425 50.5773 41.7563 50.5349L42.0843 49.5833C42.1307 49.4417 42.0799 49.2866 41.9586 49.1991L41.1433 48.611C40.8721 48.4153 41.0115 47.9512 41.3468 47.9512H42.3545C42.5045 47.9512 42.6373 47.8934 42.6837 47.7519L42.9951 46.7941C43.0469 46.6358 43.1855 46.5566 43.3242 46.5566C43.4629 46.5566 43.6016 46.6358 43.6534 46.7941L43.9648 47.7519C44.0111 47.8934 44.144 47.9512 44.2939 47.9512H45.3017C45.637 47.9512 45.7764 48.4153 45.5051 48.611Z" fill="white"/>
</g>
<defs>
<linearGradient id="paint0_linear" x1="48" y1="32" x2="48" y2="56" gradientUnits="userSpaceOnUse">
<stop stop-color="#FED96A"/>
<stop offset="1" stop-color="#FFC107"/>
</linearGradient>
<clipPath id="clip0">
<rect width="30.8571" height="30.8571" fill="white" transform="translate(12.572 12.5714)"/>
</clipPath>
<clipPath id="clip1">
<rect width="14" height="14" fill="white" transform="translate(41 37)"/>
</clipPath>
</defs>
</svg>
