<svg width="24" height="24" viewBox="0 0 24 24" fill="none" xmlns="http://www.w3.org/2000/svg">
<rect width="24" height="24" rx="12" fill="url(#paint0_linear)"/>
<g clip-path="url(#clip0)">
<path d="M10.1007 12.7237C10.1007 12.5483 9.95846 12.4062 9.78294 12.4062H8.67404C8.49872 12.4062 8.35645 12.5483 8.35645 12.7237V13.8325C8.35645 14.0081 8.49872 14.1502 8.67404 14.1502H9.78294C9.95846 14.1502 10.1007 14.0081 10.1007 13.8325V12.7237Z" fill="white"/>
<path d="M12.872 12.7237C12.872 12.5483 12.7297 12.4062 12.5546 12.4062H11.4455C11.2702 12.4062 11.1279 12.5483 11.1279 12.7237V13.8325C11.1279 14.0081 11.2702 14.1502 11.4455 14.1502H12.5546C12.7297 14.1502 12.872 14.0081 12.872 13.8325V12.7237Z" fill="white"/>
<path d="M15.6435 12.7237C15.6435 12.5483 15.5012 12.4062 15.3259 12.4062H14.217C14.0415 12.4062 13.8992 12.5483 13.8992 12.7237V13.8325C13.8992 14.0081 14.0415 14.1502 14.217 14.1502H15.3259C15.5012 14.1502 15.6435 14.0081 15.6435 13.8325V12.7237Z" fill="white"/>
<path d="M10.1007 15.4953C10.1007 15.3196 9.95846 15.1777 9.78294 15.1777H8.67404C8.49872 15.1777 8.35645 15.3196 8.35645 15.4953V16.6039C8.35645 16.7793 8.49872 16.9214 8.67404 16.9214H9.78294C9.95846 16.9214 10.1007 16.7793 10.1007 16.6039V15.4953Z" fill="white"/>
<path d="M12.872 15.4953C12.872 15.3196 12.7297 15.1777 12.5546 15.1777H11.4455C11.2702 15.1777 11.1279 15.3196 11.1279 15.4953V16.6039C11.1279 16.7793 11.2702 16.9214 11.4455 16.9214H12.5546C12.7297 16.9214 12.872 16.7793 12.872 16.6039V15.4953Z" fill="white"/>
<path d="M15.6435 15.4953C15.6435 15.3196 15.5012 15.1777 15.326 15.1777H14.217C14.0415 15.1777 13.8992 15.3196 13.8992 15.4953V16.6039C13.8992 16.7793 14.0415 16.9214 14.217 16.9214H15.326C15.5012 16.9214 15.6435 16.7793 15.6435 16.6039V15.4953Z" fill="white"/>
<path d="M17.6263 6.55888V8.25241C17.6263 9.01787 17.0053 9.63471 16.24 9.63471H15.3654C14.6 9.63471 13.9708 9.01787 13.9708 8.25241V6.5528H10.0291V8.25241C10.0291 9.01787 9.39993 9.63471 8.63465 9.63471H7.75995C6.99463 9.63471 6.37369 9.01787 6.37369 8.25241V6.55888C5.7048 6.57904 5.15515 7.13253 5.15515 7.81284V17.7377C5.15515 18.4308 5.71693 19.0001 6.41003 19.0001H17.5899C18.282 19.0001 18.8448 18.4297 18.8448 17.7377V7.81284C18.8448 7.13253 18.2952 6.57904 17.6263 6.55888ZM17.2201 17.1197C17.2201 17.4192 16.9772 17.6622 16.6776 17.6622H7.29846C6.99882 17.6622 6.75596 17.4192 6.75596 17.1197V11.9931C6.75596 11.6935 6.99879 11.4505 7.29846 11.4505H16.6775C16.9772 11.4505 17.2201 11.6935 17.2201 11.9931L17.2201 17.1197Z" fill="white"/>
<path d="M7.75682 8.72677H8.62186C8.88442 8.72677 9.09731 8.5142 9.09731 8.25163V5.47531C9.09731 5.21272 8.88442 5 8.62186 5H7.75682C7.49423 5 7.28137 5.21272 7.28137 5.47531V8.25163C7.28137 8.5142 7.49423 8.72677 7.75682 8.72677Z" fill="white"/>
<path d="M15.3543 8.72677H16.2194C16.4818 8.72677 16.6946 8.5142 16.6946 8.25163V5.47531C16.6947 5.21272 16.4818 5 16.2194 5H15.3543C15.0918 5 14.8789 5.21272 14.8789 5.47531V8.25163C14.8789 8.5142 15.0918 8.72677 15.3543 8.72677Z" fill="white"/>
</g>
<defs>
<linearGradient id="paint0_linear" x1="11.9998" y1="20.0377" x2="11.9998" y2="-2.38868e-05" gradientUnits="userSpaceOnUse">
<stop stop-color="#FF4755"/>
<stop offset="1" stop-color="#FFDE00"/>
</linearGradient>
<clipPath id="clip0">
<rect width="14" height="14" fill="white" transform="translate(5 5)"/>
</clipPath>
</defs>
</svg>
