<svg width="51" height="27" viewBox="0 0 51 27" fill="none" xmlns="http://www.w3.org/2000/svg">
<path d="M41.1717 8.06117C41.1717 9.70745 40.066 10.8188 38.4466 10.8188C36.8079 10.8188 35.7021 9.70745 35.7021 8.06117C35.7021 6.4255 36.8079 5.32373 38.4466 5.32373C40.066 5.32479 41.1717 6.4255 41.1717 8.06117ZM36.973 8.08134C36.973 9.05149 37.5742 9.71701 38.4466 9.71701C39.2996 9.71701 39.9009 9.05043 39.9009 8.08134C39.9009 7.11225 39.2996 6.44567 38.4466 6.44567C37.5742 6.44567 36.973 7.11225 36.973 8.08134Z" fill="#0367B4"/>
<path d="M47.5513 7.39438V10.7676H46.2815V7.77862C46.2815 7.02075 45.8453 6.55691 45.1278 6.55691C44.2749 6.56646 43.7704 7.22349 43.7704 8.11191V10.7676H42.5098V5.36491H43.7704V6.37434C44.1393 5.65681 44.7885 5.32352 45.6323 5.31396C46.8246 5.31396 47.5513 6.11216 47.5513 7.39438Z" fill="#0367B4"/>
<path d="M51.0003 15.9456H32.2539V0.1875H51.0003V15.9456ZM33.2608 14.8979H49.9944V1.23514H33.2608V14.8979Z" fill="#0367B4"/>
<path d="M19.0439 20.8634C19.0439 21.3346 19.4067 21.6393 19.9999 21.6393C20.755 21.6393 21.3481 21.22 21.4185 20.6755V20.1724H20.06C19.366 20.1713 19.0439 20.3709 19.0439 20.8634Z" fill="#0367B4"/>
<path d="M6.07324 19.8675H8.54864L7.32062 16.7861L6.07324 19.8675Z" fill="#0367B4"/>
<path d="M26.7924 21.5436C27.6372 21.5436 28.322 20.779 28.322 19.8358C28.322 18.8926 27.6372 18.1279 26.7924 18.1279C25.9476 18.1279 25.2627 18.8926 25.2627 19.8358C25.2627 20.779 25.9476 21.5436 26.7924 21.5436Z" fill="#0367B4"/>
<path d="M0 10.7339V26.7987H33.1973V10.7339H0ZM9.656 22.623L9.03231 21.0723H5.5908L4.96711 22.623H3.56788L6.65678 15.2864H8.05601L11.1052 22.623H9.656ZM15.8042 22.623L14.3449 20.1711L13.5194 21.0723V22.623H12.2109V14.8459H13.5194V19.3527L15.7329 17.0261H17.2422L15.2499 19.185L17.3635 22.623H15.8042ZM21.4287 22.623V21.9416C21.0567 22.4341 20.4524 22.6856 19.688 22.6856C18.5303 22.6856 17.8068 21.9416 17.8068 20.946C17.8068 19.9079 18.5416 19.2689 19.8491 19.2583H21.4185V19.1118C21.4185 18.4622 21.0057 18.0737 20.2007 18.0737C19.6972 18.0737 19.154 18.252 18.6007 18.5981L18.1278 17.6544C18.9023 17.2033 19.5066 16.9624 20.4921 16.9624C21.9005 16.9624 22.6954 17.7065 22.7056 18.9536L22.7158 22.622H21.4287V22.623ZM29.6294 22.623H28.3209V21.7219C27.9387 22.3407 27.315 22.6856 26.5099 22.6856C24.9701 22.6856 23.9438 21.5117 23.9438 19.8038C23.9438 18.1056 24.97 16.9634 26.4793 16.9634C27.3048 16.9634 27.9285 17.3095 28.3209 17.9378V14.8459H29.6294V22.623Z" fill="#0367B4"/>
</svg>
