<svg width="24" height="24" viewBox="0 0 24 24" fill="none" xmlns="http://www.w3.org/2000/svg">
<g clip-path="url(#clip0)">
<path d="M15.9727 5.24481C15.9711 5.24481 15.9695 5.24481 15.9678 5.24481C14.3795 5.24481 13.5619 4.84033 13.0735 4.59864C13.0028 4.56367 12.9195 4.52247 12.863 4.49866C12.7992 4.53756 12.696 4.61894 12.616 4.68222C12.0066 5.16325 10.9867 5.96833 8.01016 5.96833H7.36328C7.71288 8.52981 9.61493 11.1655 12 11.1655C14.6125 11.1655 16.6455 8.00308 16.6934 5.2398L15.9727 5.24481Z" fill="#0367B4"/>
<path d="M8.0096 4.56216C10.498 4.56216 11.2479 3.97022 11.7441 3.57853C11.9878 3.38616 12.2398 3.18722 12.5924 3.10645C13.0267 3.00689 13.3825 3.183 13.6965 3.33834C14.1231 3.54938 14.707 3.83831 15.9649 3.83869L16.5863 3.83438C16.4011 2.78025 15.9769 1.91756 15.3186 1.26019C14.4931 0.43575 13.3453 0 11.9994 0C10.6535 0 9.50575 0.43575 8.68019 1.26019C7.87619 2.06306 7.42155 3.17212 7.32471 4.56216H8.0096Z" fill="#0367B4"/>
<path d="M16.1458 11.288C16.1444 11.2867 16.143 11.2854 16.1417 11.284C15.9245 11.0692 15.5773 11.0607 15.3452 11.2592C15.1027 11.4666 14.8493 11.6517 14.5862 11.8137C13.7687 12.3168 12.8987 12.572 12.0002 12.572C11.1017 12.572 10.2316 12.3169 9.41415 11.8137C9.15099 11.6517 8.89768 11.4665 8.65515 11.2592C8.42303 11.0607 8.07582 11.0692 7.8587 11.284C7.85734 11.2853 7.85598 11.2866 7.85462 11.288C7.07261 12.0632 6.52422 13.0952 6.24878 14.297H17.7517C17.4762 13.0952 16.9278 12.0633 16.1458 11.288Z" fill="#0367B4"/>
<path d="M23.2768 22.5938H18.7966V16.4062C18.7966 16.0179 18.4818 15.7031 18.0935 15.7031H5.90601C5.5177 15.7031 5.20289 16.0179 5.20289 16.4062V22.5938H0.722762C0.344153 22.5938 0.0183713 22.8847 0.000558792 23.2629C-0.0184725 23.6667 0.303278 24 0.702887 24H23.2966C23.6962 24 24.018 23.6667 23.999 23.2629C23.9812 22.8847 23.6554 22.5938 23.2768 22.5938ZM11.9998 18.0467C12.3881 18.0467 12.7029 18.3615 12.7029 18.7499C12.7029 19.1382 12.3881 19.453 11.9998 19.453C11.6114 19.453 11.2966 19.1382 11.2966 18.7499C11.2966 18.3615 11.6114 18.0467 11.9998 18.0467Z" fill="#0367B4"/>
</g>
<defs>
<clipPath id="clip0">
<rect width="24" height="24" fill="white"/>
</clipPath>
</defs>
</svg>
