<svg width="24" height="24" viewBox="0 0 24 24" fill="none" xmlns="http://www.w3.org/2000/svg">
<circle cx="12" cy="12" r="12" fill="white"/>
<path d="M17.2719 5H12C11.0455 5 10.2719 5.77225 10.2719 6.7281V14.6359C10.2719 14.9714 10.6566 15.1676 10.9281 14.964L12.576 13.7281H17.2719C18.2263 13.7281 19 12.9559 19 12V6.7281C19 5.77364 18.2277 5 17.2719 5V5ZM14.2257 11.5315H12.4393C12.2128 11.5315 12.0291 11.3479 12.0291 11.1214C12.0291 10.8948 12.2128 10.7112 12.4393 10.7112H14.2257C14.4523 10.7112 14.6359 10.8948 14.6359 11.1214C14.6359 11.3479 14.4523 11.5315 14.2257 11.5315ZM16.8326 9.77426H12.4393C12.2128 9.77426 12.0291 9.59055 12.0291 9.3641C12.0291 9.13756 12.2128 8.95395 12.4393 8.95395H16.8326C17.059 8.95395 17.2427 9.13756 17.2427 9.3641C17.2427 9.59055 17.0591 9.77426 16.8326 9.77426ZM16.8326 8.01689H12.4393C12.2128 8.01689 12.0291 7.83328 12.0291 7.60673C12.0291 7.38029 12.2128 7.19658 12.4393 7.19658H16.8326C17.059 7.19658 17.2427 7.38029 17.2427 7.60673C17.2427 7.83328 17.0591 8.01689 16.8326 8.01689Z" fill="#0367B4"/>
<path d="M9.54553 13.5285C9.54553 14.5993 8.67747 15.4673 7.60669 15.4673C6.5359 15.4673 5.66785 14.5993 5.66785 13.5285C5.66785 12.4576 6.5359 11.5895 7.60669 11.5895C8.67747 11.5895 9.54553 12.4576 9.54553 13.5285Z" fill="#0367B4"/>
<path d="M7.60674 15.4673C6.16713 15.4673 5 16.6344 5 18.074V18.5898C5 18.8164 5.18361 19 5.41016 19H9.80342C10.0299 19 10.2136 18.8164 10.2136 18.5898V18.074C10.2136 16.6344 9.04645 15.4673 7.60674 15.4673Z" fill="#0367B4"/>
</svg>
