<svg width="24" height="24" viewBox="0 0 24 24" fill="none" xmlns="http://www.w3.org/2000/svg">
<rect width="24" height="24" rx="12" fill="#FF6D34"/>
<g clip-path="url(#clip0)">
<path d="M18.0012 9.83722C17.9446 9.41164 17.9366 8.67863 18.3319 8.4325C18.3389 8.42798 18.3442 8.42147 18.3504 8.41587C18.6735 8.3125 18.8972 8.16744 18.7216 7.97223L13.9543 6.5358L6.23495 7.60903C6.23495 7.60903 5.35099 7.73538 5.42996 9.10872C5.47282 9.85619 5.70726 10.2233 5.91228 10.4039L5.27883 10.5948C5.10302 10.79 5.32663 10.9351 5.64985 11.0383C5.65599 11.0441 5.66117 11.0506 5.66836 11.0551C6.0634 11.3014 6.0558 12.0344 5.99897 12.46C4.57979 12.863 5.08923 12.9943 5.08923 12.9943L5.40054 13.0697C5.18157 13.2675 4.9641 13.6428 5.00483 14.3544C5.08384 15.7275 5.80991 15.8223 5.80991 15.8223L10.8614 17.4642L18.4861 15.6174C18.4861 15.6174 18.9957 15.4859 17.5761 15.0828C17.5191 14.6579 17.5111 13.925 17.9071 13.678C17.9143 13.6737 17.9196 13.667 17.9255 13.6615C18.2488 13.5581 18.4722 13.4132 18.2966 13.218L17.9652 13.1179C18.1862 12.9846 18.5182 12.6363 18.5702 11.7315C18.6061 11.1091 18.4438 10.7446 18.2558 10.53L18.9109 10.3715C18.9109 10.3718 19.4205 10.2402 18.0012 9.83722ZM11.6236 9.81963L12.9058 9.55612L17.2388 8.66568L17.8844 8.5329C17.6781 8.91043 17.6868 9.4271 17.7209 9.75917C17.7284 9.8343 17.737 9.9029 17.7453 9.95504L17.0387 10.1307L11.5697 11.4913L11.6236 9.81963ZM6.11588 11.1559L6.76136 11.2887L10.9226 12.1441L11.2862 12.2186L12.3764 12.4427L12.4301 14.1143L6.80915 12.7159L6.25501 12.5782C6.26316 12.5259 6.27176 12.4574 6.27958 12.3821C6.3135 12.0502 6.32232 11.5335 6.11588 11.1559ZM5.86511 9.04263C5.85729 8.67733 5.92239 8.41315 6.05396 8.27887C6.13769 8.19313 6.2365 8.17529 6.30427 8.17529C6.34008 8.17529 6.36585 8.18026 6.36761 8.18026L9.69368 9.26461L11.3531 9.80563L11.2987 11.489L6.64332 10.1838L6.39765 10.115C6.38863 10.1124 6.37638 10.1107 6.36694 10.1103C6.34776 10.1089 5.8875 10.0665 5.86511 9.04263ZM10.8735 16.7349L5.97257 15.3609C5.9635 15.3583 5.95139 15.3565 5.94194 15.3561C5.92243 15.3548 5.46196 15.3124 5.43969 14.2888C5.43175 13.923 5.49718 13.6591 5.6285 13.5247C5.71244 13.439 5.81129 13.4211 5.87894 13.4211C5.91483 13.4211 5.94052 13.4259 5.9424 13.4259C5.9424 13.4259 5.94261 13.4259 5.9424 13.4259L10.9276 15.0516L10.8735 16.7349ZM17.2954 15.0049C17.3032 15.0803 17.3118 15.1487 17.3201 15.201L11.1444 16.7373L11.1984 15.0656L12.5187 14.7942L12.7137 14.8414L13.4445 14.6038L16.8134 13.9116L17.4592 13.7787C17.2527 14.1562 17.2613 14.6731 17.2954 15.0049ZM17.6356 12.733C17.6244 12.7333 17.6131 12.7348 17.6026 12.7381L17.1368 12.8685L12.7018 14.1121L12.6476 12.4288L14.1026 11.9542L17.6259 10.8052C17.6264 10.805 17.8113 10.7639 17.947 10.9019C18.0783 11.0362 18.1435 11.3004 18.1358 11.6656C18.1128 12.6892 17.6524 12.7317 17.6356 12.733Z" fill="white"/>
</g>
<defs>
<clipPath id="clip0">
<rect width="14" height="14" fill="white" transform="translate(5 5)"/>
</clipPath>
</defs>
</svg>
