<svg width="25" height="24" viewBox="0 0 25 24" fill="none" xmlns="http://www.w3.org/2000/svg">
<g clip-path="url(#clip0)">
<path d="M13.2745 9.24265C13.4194 9.24265 13.5591 9.26571 13.6936 9.30413L16.2031 6.25866C16.3635 6.064 16.661 6.02814 16.8551 6.19207C17.0439 6.34831 17.0698 6.6275 16.912 6.81704L14.4309 9.82921C14.5991 10.0597 14.7 10.3441 14.7 10.6514C14.7 11.2226 14.3533 11.717 13.8592 11.9372H23.5945C23.9515 11.9372 24.2413 11.6504 24.2413 11.2969V3.19015C24.2413 2.83668 23.9515 2.5498 23.5945 2.5498H11.2281C10.8711 2.5498 10.5813 2.83668 10.5813 3.19015V8.51266L11.166 9.24522H13.2745V9.24265Z" fill="#0367B4"/>
<path d="M5.2078 5.74385C6.67092 5.74385 7.85702 4.56956 7.85702 3.12101C7.85702 1.67245 6.67092 0.498169 5.2078 0.498169C3.74469 0.498169 2.55859 1.67245 2.55859 3.12101C2.55859 4.56956 3.74469 5.74385 5.2078 5.74385Z" fill="#0367B4"/>
<path d="M7.92435 22.8614C7.92435 23.2149 7.63459 23.5017 7.27757 23.5017H6.19098C5.83396 23.5017 5.5442 23.2149 5.5442 22.8614V17.4928C5.5442 17.3032 5.38897 17.1496 5.19752 17.1496C5.00608 17.1496 4.85085 17.3032 4.85085 17.4928V22.8358C4.85085 23.2021 4.54816 23.5017 4.1782 23.5017H3.11489C2.75787 23.5017 2.46811 23.2149 2.46811 22.8614L2.46294 9.90089C2.46294 9.72672 2.32065 9.58331 2.14214 9.58331C1.96621 9.58331 1.82133 9.72418 1.82133 9.90089V14.8853C1.82133 15.2388 1.53158 15.5257 1.17455 15.5257H0.64678C0.289757 15.5257 0 15.2388 0 14.8853V8.05159C0 7.23963 0.66489 6.58392 1.48242 6.58392H7.37329C8.00452 6.58392 8.60217 6.8708 8.99542 7.36002L10.5787 9.33739L10.9124 9.7549C10.9124 9.7549 12.413 9.7549 13.2771 9.75746C13.6341 9.75746 13.9239 10.0443 13.9239 10.3978V10.9075C13.9239 11.261 13.6341 11.5479 13.2771 11.5479H10.4778C10.201 11.5479 9.93972 11.4223 9.76897 11.2072L8.58924 9.7062C8.52973 9.62936 8.43401 9.58326 8.3357 9.58326H8.2555C8.07958 9.58326 7.93472 9.72413 7.93472 9.90084L7.92435 22.8614Z" fill="#0367B4"/>
</g>
<defs>
<clipPath id="clip0">
<rect width="24.2413" height="24" fill="white"/>
</clipPath>
</defs>
</svg>
