<svg width="104" height="38" viewBox="0 0 104 38" fill="none" xmlns="http://www.w3.org/2000/svg">
<path d="M104 5C104 3.34315 102.657 2 101 2H94V38H97C100.866 38 104 34.866 104 31V5Z" fill="#B61C11"/>
<path d="M104 4C104 1.79086 102.209 0 100 0L15.5 0C6.93958 0 0 6.93959 0 15.5C0 24.0604 6.93959 31 15.5 31L100 31C102.209 31 104 29.2091 104 27V4Z" fill="#ED2114"/>
<path d="M17.12 8.8L17.12 20H21.52C23.056 20 24.336 19.456 25.344 18.384C26.368 17.296 26.88 15.968 26.88 14.4C26.88 12.816 26.368 11.488 25.344 10.416C24.336 9.344 23.056 8.8 21.52 8.8H17.12ZM18.96 18.24V10.56H21.52C22.576 10.56 23.44 10.928 24.096 11.648C24.768 12.368 25.104 13.28 25.104 14.4C25.104 15.504 24.768 16.432 24.096 17.152C23.44 17.872 22.576 18.24 21.52 18.24H18.96ZM32.9895 23.2C33.4215 22.752 33.4215 22.112 33.0055 21.68C32.5735 21.248 31.9015 21.248 31.4695 21.68C31.0535 22.112 31.0535 22.752 31.4695 23.2C31.9175 23.616 32.5575 23.616 32.9895 23.2ZM34.7815 13.136C34.1255 12.24 33.1975 11.792 31.9815 11.792C30.8775 11.792 29.9495 12.192 29.1655 13.008C28.3815 13.824 27.9975 14.816 27.9975 16C27.9975 17.168 28.3815 18.176 29.1655 18.992C29.9495 19.808 30.8775 20.208 31.9815 20.208C33.1975 20.208 34.1255 19.76 34.7815 18.848V20H36.5095V12H34.7815V13.136ZM30.4455 17.84C29.9655 17.344 29.7255 16.736 29.7255 16C29.7255 15.264 29.9655 14.656 30.4455 14.176C30.9255 13.68 31.5335 13.44 32.2535 13.44C32.9735 13.44 33.5815 13.68 34.0615 14.176C34.5415 14.656 34.7815 15.264 34.7815 16C34.7815 16.736 34.5415 17.344 34.0615 17.84C33.5815 18.32 32.9735 18.56 32.2535 18.56C31.5335 18.56 30.9255 18.32 30.4455 17.84ZM41.8676 17.808L39.4836 12H37.5956L40.9876 19.856L40.9076 20.016C40.4756 21.12 39.8676 21.648 38.7796 21.584V23.2C40.6196 23.312 41.9156 22.32 42.6836 20.256L45.7556 12H43.9156L41.8676 17.808ZM55.0441 11.792C53.9081 11.792 53.0921 12.208 52.5641 13.024V12L50.8361 12V20H52.5641V15.712C52.5641 14.16 53.3801 13.408 54.5961 13.408C55.7001 13.408 56.3881 14.064 56.3881 15.264V20H58.1161V15.088C58.1161 13.04 56.8841 11.792 55.0441 11.792ZM66.3448 13.184C65.6888 12.256 64.7608 11.792 63.5608 11.792C62.4248 11.792 61.4808 12.192 60.6968 13.008C59.9128 13.808 59.5288 14.784 59.5288 15.92C59.5288 17.056 59.9128 18.032 60.6968 18.848C61.4808 19.648 62.4248 20.048 63.5608 20.048C64.7608 20.048 65.6888 19.584 66.3448 18.656V19.632C66.3448 21.024 65.4488 21.84 63.9608 21.84C62.8248 21.84 62.0408 21.424 61.6248 20.608L60.1368 21.472C60.8248 22.768 62.0888 23.408 63.9288 23.408C65.0648 23.408 66.0408 23.088 66.8408 22.432C67.6408 21.776 68.0408 20.848 68.0408 19.632V12H66.3448V13.184ZM61.9768 17.712C61.4968 17.232 61.2568 16.64 61.2568 15.92C61.2568 15.2 61.4968 14.608 61.9768 14.128C62.4728 13.648 63.0807 13.408 63.8008 13.408C64.5208 13.408 65.1288 13.648 65.6088 14.128C66.1048 14.608 66.3448 15.2 66.3448 15.92C66.3448 16.64 66.1048 17.232 65.6088 17.712C65.1288 18.192 64.5208 18.432 63.8008 18.432C63.0807 18.432 62.4728 18.192 61.9768 17.712ZM76.3909 13.136C75.7349 12.24 74.8069 11.792 73.5909 11.792C72.4869 11.792 71.5589 12.192 70.7749 13.008C69.9909 13.824 69.6069 14.816 69.6069 16C69.6069 17.168 69.9909 18.176 70.7749 18.992C71.5589 19.808 72.4869 20.208 73.5909 20.208C74.8069 20.208 75.7349 19.76 76.3909 18.848V20L78.1189 20V12H76.3909V13.136ZM72.0549 17.84C71.5749 17.344 71.3349 16.736 71.3349 16C71.3349 15.264 71.5749 14.656 72.0549 14.176C72.5349 13.68 73.1429 13.44 73.8629 13.44C74.5829 13.44 75.1909 13.68 75.6709 14.176C76.1509 14.656 76.3909 15.264 76.3909 16C76.3909 16.736 76.1509 17.344 75.6709 17.84C75.1909 18.32 74.5829 18.56 73.8629 18.56C73.1429 18.56 72.5349 18.32 72.0549 17.84ZM83.477 17.808L81.093 12H79.205L82.597 19.856L82.517 20.016C82.085 21.12 81.477 21.648 80.389 21.584V23.2C82.229 23.312 83.525 22.32 84.293 20.256L87.365 12H85.525L83.477 17.808Z" fill="white"/>
</svg>
