<svg width="60" height="56" viewBox="0 0 60 56" fill="none" xmlns="http://www.w3.org/2000/svg">
<path fill-rule="evenodd" clip-rule="evenodd" d="M28 56C43.464 56 56 43.464 56 28C56 12.536 43.464 0 28 0C12.536 0 0 12.536 0 28C0 43.464 12.536 56 28 56Z" fill="white"/>
<path d="M55.5 28C55.5 43.1878 43.1878 55.5 28 55.5C12.8122 55.5 0.5 43.1878 0.5 28C0.5 12.8122 12.8122 0.5 28 0.5C43.1878 0.5 55.5 12.8122 55.5 28Z" stroke="black" stroke-opacity="0.05"/>
<circle cx="28" cy="28" r="24" fill="#0367B4"/>
<g clip-path="url(#clip0)">
<path d="M37.4828 24.7831C37.4828 25.7577 36.8138 26.4156 35.834 26.4156C34.8425 26.4156 34.1735 25.7577 34.1735 24.7831C34.1735 23.8148 34.8425 23.1626 35.834 23.1626C36.8138 23.1632 37.4828 23.8148 37.4828 24.7831ZM34.9424 24.7951C34.9424 25.3694 35.3062 25.7634 35.834 25.7634C36.3501 25.7634 36.7139 25.3688 36.7139 24.7951C36.7139 24.2214 36.3501 23.8268 35.834 23.8268C35.3062 23.8268 34.9424 24.2214 34.9424 24.7951Z" fill="white"/>
<path d="M41.3433 24.3898V26.3867H40.575V24.6173C40.575 24.1686 40.3111 23.894 39.877 23.894C39.3609 23.8997 39.0557 24.2886 39.0557 24.8146V26.3867H38.293V23.1884H39.0557V23.7859C39.2789 23.3612 39.6717 23.1639 40.1822 23.1582C40.9036 23.1582 41.3433 23.6307 41.3433 24.3898Z" fill="white"/>
<path d="M43.4293 29.4516H32.0869V20.1229H43.4293V29.4516ZM32.6961 28.8314H42.8207V20.7431H32.6961V28.8314Z" fill="white"/>
<path d="M24.0947 32.363C24.0947 32.642 24.3142 32.8223 24.6731 32.8223C25.13 32.8223 25.4888 32.5741 25.5314 32.2517V31.9539H24.7094C24.2895 31.9533 24.0947 32.0714 24.0947 32.363Z" fill="white"/>
<path d="M16.2466 31.7735H17.7443L17.0013 29.9493L16.2466 31.7735Z" fill="white"/>
<path d="M28.782 32.7657C29.2932 32.7657 29.7075 32.313 29.7075 31.7547C29.7075 31.1963 29.2932 30.7436 28.782 30.7436C28.2709 30.7436 27.8565 31.1963 27.8565 31.7547C27.8565 32.313 28.2709 32.7657 28.782 32.7657Z" fill="white"/>
<path d="M12.572 26.3659V35.8763H32.6576V26.3659H12.572ZM18.4142 33.4043L18.0369 32.4862H15.9546L15.5773 33.4043H14.7307L16.5996 29.061H17.4462L19.291 33.4043H18.4142ZM22.1342 33.4043L21.2512 31.9527L20.7518 32.4862V33.4043H19.96V28.8002H20.7518V31.4683L22.091 30.0909H23.0042L21.7987 31.369L23.0776 33.4043H22.1342ZM25.5372 33.4043V33.0009C25.3121 33.2924 24.9465 33.4413 24.484 33.4413C23.7836 33.4413 23.3458 33.0009 23.3458 32.4115C23.3458 31.7969 23.7903 31.4186 24.5814 31.4123H25.531V31.3256C25.531 30.9411 25.2813 30.7111 24.7942 30.7111C24.4896 30.7111 24.1609 30.8167 23.8261 31.0215L23.54 30.4629C24.0086 30.1958 24.3743 30.0532 24.9705 30.0532C25.8227 30.0532 26.3036 30.4937 26.3098 31.232L26.3159 33.4036H25.5372V33.4043ZM30.4989 33.4043H29.7072V32.8708C29.476 33.2371 29.0986 33.4413 28.6115 33.4413C27.6798 33.4413 27.0589 32.7464 27.0589 31.7353C27.0589 30.7299 27.6798 30.0538 28.593 30.0538C29.0925 30.0538 29.4698 30.2587 29.7072 30.6307V28.8002H30.4989V33.4043Z" fill="white"/>
</g>
<rect x="36" y="32" width="24" height="24" rx="12" fill="url(#paint0_linear)"/>
<g clip-path="url(#clip1)">
<path d="M46.5455 45.5285C46.5455 46.5993 45.6775 47.4673 44.6067 47.4673C43.5359 47.4673 42.6678 46.5993 42.6678 45.5285C42.6678 44.4576 43.5359 43.5895 44.6067 43.5895C45.6775 43.5895 46.5455 44.4576 46.5455 45.5285Z" fill="white"/>
<path d="M44.6067 47.4673C43.1671 47.4673 42 48.6345 42 50.0741V50.5899C42 50.8164 42.1836 51 42.4102 51H46.8034C47.0299 51 47.2136 50.8164 47.2136 50.5899V50.0741C47.2136 48.6345 46.0464 47.4673 44.6067 47.4673Z" fill="white"/>
<path d="M54.1739 37H48.902C47.9476 37 47.1739 37.7722 47.1739 38.7281V46.6359C47.1739 46.9714 47.5587 47.1676 47.8302 46.964L49.4781 45.7281H54.1739C55.1284 45.7281 55.902 44.9559 55.902 44V38.7281C55.902 37.7736 55.1298 37 54.1739 37ZM51.5379 43.7511C51.3116 43.7511 51.1278 43.5674 51.1278 43.341C51.1278 43.1146 51.3116 42.9308 51.5379 42.9308C51.7644 42.9308 51.9481 43.1146 51.9481 43.341C51.9481 43.5674 51.7644 43.7511 51.5379 43.7511ZM51.9481 41.9373V42.023C51.9481 42.2496 51.7645 42.4332 51.5379 42.4332C51.3115 42.4332 51.1278 42.2496 51.1278 42.023V41.5837C51.1278 41.3572 51.3115 41.1736 51.5379 41.1736C51.9174 41.1736 52.2261 40.8649 52.2261 40.4854C52.2261 40.106 51.9174 39.7973 51.5379 39.7973C51.1565 39.7973 50.8498 40.1058 50.8498 40.4849C50.8498 40.7115 50.6661 40.8954 50.4397 40.8954C50.2131 40.8954 50.0295 40.7119 50.0295 40.4855V40.4849C50.0295 39.6507 50.7048 38.977 51.5375 38.977C52.3698 38.977 53.0464 39.6536 53.0464 40.4855C53.0464 41.175 52.5813 41.7581 51.9481 41.9373Z" fill="white"/>
<rect x="49" y="38.2174" width="5.47826" height="6.08696" fill="white"/>
<path d="M49 41.1702L50.7122 43L54 39.4965L53.528 39L50.7122 42L49.4655 40.6701L49 41.1702Z" fill="#FB7070"/>
</g>
<defs>
<linearGradient id="paint0_linear" x1="48" y1="32" x2="48" y2="56" gradientUnits="userSpaceOnUse">
<stop stop-color="#FB7070"/>
<stop offset="1" stop-color="#DE4F4F"/>
</linearGradient>
<clipPath id="clip0">
<rect width="30.8571" height="30.8571" fill="white" transform="translate(12.572 12.5714)"/>
</clipPath>
<clipPath id="clip1">
<rect width="14" height="14" fill="white" transform="translate(42 37)"/>
</clipPath>
</defs>
</svg>
