<svg width="24" height="24" viewBox="0 0 24 24" fill="none" xmlns="http://www.w3.org/2000/svg">
<rect width="24" height="24" rx="12" fill="url(#paint0_linear)"/>
<path d="M15.3075 11.3897C15.3308 11.3897 15.354 11.39 15.3773 11.3904L15.3833 11.3905C15.5139 11.3929 15.6434 11.4013 15.7717 11.4153V6.65184C15.7717 5.74106 15.0307 5 14.1199 5H6.95273C6.04184 5 5.30078 5.74106 5.30078 6.65184V16.153C5.30078 17.0639 6.04184 17.805 6.95262 17.805H11.7378C11.3248 17.1414 11.1082 16.3834 11.1082 15.5913C11.1082 13.2745 12.992 11.3897 15.3075 11.3897ZM11.225 7.6971H13.6729C13.8994 7.6971 14.083 7.88071 14.083 8.10725C14.083 8.3338 13.8994 8.51741 13.6729 8.51741H11.225C10.9985 8.51741 10.8148 8.3338 10.8148 8.10725C10.8148 7.88071 10.9985 7.6971 11.225 7.6971ZM11.225 9.33783H13.6729C13.8994 9.33783 14.083 9.52144 14.083 9.74799C14.083 9.97453 13.8994 10.1581 13.6729 10.1581H11.225C10.9985 10.1581 10.8148 9.97453 10.8148 9.74799C10.8148 9.52144 10.9985 9.33783 11.225 9.33783ZM9.84753 15.1078H7.39963C7.17308 15.1078 6.98947 14.9242 6.98947 14.6976C6.98947 14.4712 7.17308 14.2875 7.39963 14.2875H9.84753C10.074 14.2875 10.2577 14.4712 10.2577 14.6976C10.2577 14.9242 10.074 15.1078 9.84753 15.1078ZM9.84753 13.4396H7.39963C7.17308 13.4396 6.98947 13.256 6.98947 13.0294C6.98947 12.8029 7.17308 12.6193 7.39963 12.6193H9.84753C10.074 12.6193 10.2577 12.8029 10.2577 13.0294C10.2577 13.256 10.074 13.4396 9.84753 13.4396ZM9.84753 11.7989H7.39963C7.17308 11.7989 6.98947 11.6153 6.98947 11.3887C6.98947 11.1622 7.17308 10.9786 7.39963 10.9786H9.84753C10.074 10.9786 10.2577 11.1622 10.2577 11.3887C10.2577 11.6153 10.074 11.7989 9.84753 11.7989ZM9.84753 10.1581H7.39963C7.17308 10.1581 6.98947 9.97453 6.98947 9.74799C6.98947 9.52144 7.17308 9.33783 7.39963 9.33783H9.84753C10.074 9.33783 10.2577 9.52144 10.2577 9.74799C10.2577 9.97453 10.074 10.1581 9.84753 10.1581ZM9.84753 8.51741H7.39963C7.17308 8.51741 6.98947 8.3338 6.98947 8.10725C6.98947 7.88071 7.17308 7.6971 7.39963 7.6971H9.84753C10.074 7.6971 10.2577 7.88071 10.2577 8.10725C10.2577 8.3338 10.074 8.51741 9.84753 8.51741ZM10.8148 11.3887C10.8148 11.1622 10.9985 10.9786 11.225 10.9786H12.404C12.6305 10.9786 12.8141 11.1622 12.8141 11.3887C12.8141 11.6153 12.6305 11.7989 12.404 11.7989H11.225C10.9985 11.7989 10.8148 11.6153 10.8148 11.3887Z" fill="white"/>
<path d="M17.7363 13.2015C17.1068 12.5608 16.2659 12.1992 15.3688 12.1834L15.3629 12.1833C15.3445 12.1829 15.326 12.1826 15.3075 12.1826C13.4292 12.1826 11.9012 13.7117 11.9012 15.5913C11.9012 16.3378 12.1381 17.0467 12.5862 17.6415C13.2365 18.5049 14.2284 19 15.3075 19C17.1858 19 18.7138 17.4709 18.7138 15.5913C18.7138 14.6915 18.3667 13.8428 17.7363 13.2015ZM16.7629 15.0372L15.4622 16.6587C15.3813 16.7594 15.2623 16.8123 15.142 16.8123C15.0583 16.8123 14.9742 16.7867 14.9015 16.7342L13.9314 16.0312C13.748 15.8984 13.7069 15.6419 13.8399 15.4584C13.9728 15.275 14.2292 15.234 14.4126 15.367L15.0667 15.8408L16.1231 14.5238C16.2649 14.3472 16.5229 14.3188 16.6997 14.4606C16.8764 14.6023 16.9047 14.8605 16.7629 15.0372Z" fill="white"/>
<defs>
<linearGradient id="paint0_linear" x1="12" y1="0" x2="12" y2="24" gradientUnits="userSpaceOnUse">
<stop stop-color="#6DE58B"/>
<stop offset="1" stop-color="#1FB845"/>
</linearGradient>
</defs>
</svg>
