<svg width="24" height="24" viewBox="0 0 24 24" fill="none" xmlns="http://www.w3.org/2000/svg">
<circle cx="12" cy="12" r="12" fill="white"/>
<path d="M17.2715 5H11.9996C11.0451 5 10.2715 5.77225 10.2715 6.7281V14.6359C10.2715 14.9714 10.6562 15.1676 10.9277 14.964L12.5756 13.7281H17.2715C18.226 13.7281 18.9996 12.9559 18.9996 12V6.7281C18.9996 5.77364 18.2273 5 17.2715 5V5ZM14.2253 11.5315H12.4389C12.2124 11.5315 12.0287 11.3479 12.0287 11.1214C12.0287 10.8948 12.2124 10.7112 12.4389 10.7112H14.2253C14.4519 10.7112 14.6355 10.8948 14.6355 11.1214C14.6355 11.3479 14.4519 11.5315 14.2253 11.5315ZM16.8322 9.77426H12.4389C12.2124 9.77426 12.0287 9.59055 12.0287 9.3641C12.0287 9.13756 12.2124 8.95395 12.4389 8.95395H16.8322C17.0586 8.95395 17.2423 9.13756 17.2423 9.3641C17.2423 9.59055 17.0587 9.77426 16.8322 9.77426ZM16.8322 8.01689H12.4389C12.2124 8.01689 12.0287 7.83328 12.0287 7.60673C12.0287 7.38029 12.2124 7.19658 12.4389 7.19658H16.8322C17.0586 7.19658 17.2423 7.38029 17.2423 7.60673C17.2423 7.83328 17.0587 8.01689 16.8322 8.01689Z" fill="#0367B4"/>
<path d="M9.54565 13.5283C9.54565 14.5991 8.6776 15.4671 7.60681 15.4671C6.53603 15.4671 5.66797 14.5991 5.66797 13.5283C5.66797 12.4574 6.53603 11.5894 7.60681 11.5894C8.6776 11.5894 9.54565 12.4574 9.54565 13.5283Z" fill="#0367B4"/>
<path d="M7.60674 15.4673C6.16713 15.4673 5 16.6344 5 18.074V18.5898C5 18.8164 5.18361 19 5.41016 19H9.80342C10.0299 19 10.2136 18.8164 10.2136 18.5898V18.074C10.2136 16.6344 9.04645 15.4673 7.60674 15.4673Z" fill="#0367B4"/>
</svg>
