<svg width="24" height="24" viewBox="0 0 24 24" fill="none" xmlns="http://www.w3.org/2000/svg">
<circle cx="12" cy="12" r="12" fill="white"/>
<path d="M17.6815 4.96582H13.3156C12.5886 4.96582 11.9971 5.55732 11.9971 6.28437V10.029L11.6475 11.1941C11.5414 11.548 11.6625 11.9214 11.9562 12.1455C12.1144 12.2663 12.3012 12.3273 12.4888 12.3273C12.6495 12.3273 12.8108 12.2825 12.9553 12.1922L13.7347 11.7051H17.6815C18.4085 11.7051 19 11.1136 19 10.3865V6.28437C19.0001 5.55732 18.4086 4.96582 17.6815 4.96582ZM15.9527 9.82981H15.0151C14.7724 9.82981 14.5756 9.63303 14.5756 9.3903C14.5756 9.14757 14.7724 8.95078 15.0151 8.95078H15.9527C16.1955 8.95078 16.3922 9.14757 16.3922 9.3903C16.3922 9.63303 16.1955 9.82981 15.9527 9.82981ZM16.656 7.72013H14.3119C14.0691 7.72013 13.8723 7.52334 13.8723 7.28061C13.8723 7.03788 14.0691 6.84109 14.3119 6.84109H16.656C16.8987 6.84109 17.0955 7.03788 17.0955 7.28061C17.0955 7.52334 16.8987 7.72013 16.656 7.72013Z" fill="#0367B4"/>
<path d="M4 15.9245C4.04635 17.0956 5.01309 18.0342 6.19536 18.0342H16.8024C17.9847 18.0342 18.9514 17.0956 18.9978 15.9245H4Z" fill="#0367B4"/>
<path d="M8.68586 12.2325C8.96097 12.2325 9.18398 12.0095 9.18398 11.7344C9.18398 11.4593 8.96097 11.2363 8.68586 11.2363C8.41076 11.2363 8.18774 11.4593 8.18774 11.7344C8.18774 12.0095 8.41076 12.2325 8.68586 12.2325Z" fill="#0367B4"/>
<path d="M7.95337 13.6097V15.0455H9.41843V13.6097C9.41843 13.4569 9.30609 13.3443 9.23908 13.2907C9.09679 13.1768 8.89517 13.1115 8.6859 13.1115C8.29567 13.1115 7.95337 13.3443 7.95337 13.6097Z" fill="#0367B4"/>
<path d="M13.9866 12.5841L13.421 12.9376C13.1398 13.1134 12.8173 13.2063 12.4886 13.2063C12.1016 13.2063 11.733 13.0812 11.4228 12.8444C11.1359 12.6255 10.926 12.33 10.8156 11.9898C10.7052 11.6496 10.7017 11.2871 10.8054 10.9416L11.1178 9.90006V8.01318H6.51753C5.79048 8.01318 5.19897 8.60469 5.19897 9.33174V14.6059C5.19897 14.76 5.22579 14.9079 5.27457 15.0455H7.07425V13.6097C7.07425 13.2049 7.27983 12.8403 7.60636 12.5881C7.42021 12.3532 7.30866 12.0567 7.30866 11.7344C7.30866 10.9751 7.92645 10.3573 8.68582 10.3573C9.44519 10.3573 10.063 10.9751 10.063 11.7344C10.063 12.0563 9.95166 12.3526 9.76589 12.5873C9.77328 12.593 9.78087 12.5985 9.78813 12.6043C10.1118 12.8632 10.2974 13.2296 10.2974 13.6097V15.0454H17.7229C17.7717 14.9079 17.7985 14.76 17.7985 14.6059V12.5847C17.7542 12.5847 13.9866 12.5841 13.9866 12.5841Z" fill="#0367B4"/>
</svg>
