<svg width="24" height="24" viewBox="0 0 24 24" fill="none" xmlns="http://www.w3.org/2000/svg">
<path d="M12.1379 5.64721L9.27345 4.71993C8.76185 4.55433 8.20573 4.78467 7.96104 5.26354L6.59122 7.94474C6.48636 8.14996 6.31948 8.31683 6.11426 8.42169L3.43307 9.79152C2.95419 10.0362 2.72385 10.5923 2.88946 11.1039L3.81674 13.9684C3.88771 14.1876 3.88771 14.4236 3.81674 14.6429L2.88946 17.5074C2.72385 18.019 2.95419 18.5751 3.43307 18.8198L6.11426 20.1896C6.31948 20.2944 6.48636 20.4613 6.59122 20.6665L7.96104 23.3477C8.20568 23.8266 8.76185 24.057 9.27345 23.8913L12.1379 22.9641C12.3572 22.8931 12.5932 22.8931 12.8124 22.9641L15.6769 23.8913C16.1885 24.057 16.7446 23.8266 16.9893 23.3477L18.3591 20.6665C18.464 20.4613 18.6308 20.2944 18.8361 20.1896L21.5173 18.8198C21.9961 18.5751 22.2265 18.019 22.0609 17.5074L21.1336 14.6429C21.0626 14.4236 21.0626 14.1876 21.1336 13.9684L22.0608 11.1039C22.2264 10.5923 21.9961 10.0362 21.5172 9.79147L18.836 8.42165C18.6308 8.31679 18.4639 8.14991 18.3591 7.94469L16.9892 5.2635C16.7446 4.78462 16.1884 4.55428 15.6768 4.71989L12.8124 5.64717C12.5932 5.71818 12.3572 5.71818 12.1379 5.64721Z" fill="#FFE92F"/>
<path d="M16.642 4.2257L12.5835 6.69325L8.5249 4.2257L8.5249 0L16.642 0L16.642 4.2257Z" fill="#D31E2B"/>
<path d="M12.5814 0L12.5814 6.69192L12.5836 6.69325L16.6422 4.2257L16.6422 0L12.5814 0Z" fill="#C51926"/>
<path d="M10.2598 5.28066L12.5831 6.69325L14.9065 5.28066L14.9065 0L10.2598 0L10.2598 5.28066Z" fill="#FD5561"/>
<path d="M12.5836 6.69325L14.907 5.28066L14.907 0L12.5814 0L12.5836 6.69325Z" fill="#F02736"/>
<path d="M12.2047 7.36694L9.90911 6.62383C9.49915 6.49113 9.05346 6.67572 8.85738 7.05948L7.75962 9.20818C7.67562 9.37262 7.54184 9.5064 7.3774 9.5904L5.2287 10.6882C4.84494 10.8842 4.66034 11.3299 4.79305 11.7399L5.53615 14.0355C5.59301 14.2111 5.59301 14.4003 5.53615 14.576L4.79305 16.8715C4.66034 17.2815 4.84494 17.7272 5.2287 17.9233L7.3774 19.021C7.54184 19.105 7.67562 19.2388 7.75962 19.4032L8.85738 21.5519C9.05346 21.9357 9.49915 22.1203 9.90911 21.9876L12.2047 21.2445C12.3804 21.1876 12.5695 21.1876 12.7452 21.2445L15.0407 21.9876C15.4507 22.1203 15.8964 21.9357 16.0925 21.5519L17.1902 19.4032C17.2742 19.2388 17.408 19.105 17.5725 19.021L19.7212 17.9233C20.1049 17.7272 20.2895 17.2815 20.1568 16.8715L19.4137 14.576C19.3568 14.4003 19.3568 14.2111 19.4137 14.0355L20.1568 11.7399C20.2895 11.3299 20.1049 10.8842 19.7212 10.6882L17.5725 9.5904C17.408 9.5064 17.2742 9.37262 17.1902 9.20818L16.0925 7.05948C15.8964 6.67572 15.4507 6.49113 15.0407 6.62383L12.7452 7.36694C12.5695 7.4238 12.3804 7.4238 12.2047 7.36694Z" fill="#FFC600"/>
<path d="M12.4754 20.9655C8.79718 20.9655 5.8154 17.9837 5.8154 14.3055C5.8154 10.6273 8.79718 7.64551 12.4754 7.64551C16.1536 7.64551 19.1354 10.6273 19.1354 14.3055C19.1354 17.9837 16.1536 20.9655 12.4754 20.9655Z" fill="#FF7B05"/>
<path d="M12.4754 19.7044C9.49388 19.7044 7.07685 17.2874 7.07685 14.3058C7.07685 11.3243 9.49388 8.90723 12.4754 8.90723C15.457 8.90723 17.874 11.3243 17.874 14.3058C17.874 17.2874 15.457 19.7044 12.4754 19.7044Z" fill="#FF9400"/>
<path d="M10.6816 15.3251V13.4434H15.1978V15.3251C15.1978 15.7408 14.1868 16.0777 12.9397 16.0777C11.6927 16.0777 10.6816 15.7408 10.6816 15.3251Z" fill="#FFE07D"/>
<path d="M10.682 17.5832C10.8899 17.5832 11.0583 17.4148 11.0583 17.2069C11.0583 16.9991 10.8899 16.8306 10.682 16.8306C10.4742 16.8306 10.3057 16.9991 10.3057 17.2069C10.3057 17.4148 10.4742 17.5832 10.682 17.5832Z" fill="#FFF0AF"/>
<path d="M16.326 12.7244L13.5629 11.4684C13.1671 11.2885 12.7128 11.2885 12.317 11.4684L9.55385 12.7244C9.25972 12.8581 9.25972 13.2759 9.55385 13.4096L10.3055 13.7513V16.0778C10.3055 16.2858 10.4738 16.4541 10.6818 16.4541C10.8899 16.4541 11.0582 16.2858 11.0582 16.0778V14.0934L12.3169 14.6656C12.7127 14.8455 13.167 14.8455 13.5628 14.6656L16.3259 13.4097C16.6201 13.2759 16.6201 12.8581 16.326 12.7244Z" fill="#FFF0AF"/>
<path d="M13.3162 13.4431H12.5635C12.3554 13.4431 12.1871 13.2748 12.1871 13.0668C12.1871 12.8588 12.3555 12.6904 12.5635 12.6904H13.3162C13.5242 12.6904 13.6925 12.8588 13.6925 13.0668C13.6925 13.2748 13.5242 13.4431 13.3162 13.4431Z" fill="#FFE07D"/>
<path d="M20.7275 4.22189C20.8071 4.2236 20.8766 4.27581 20.9003 4.35162C21.2333 5.41241 21.4936 5.68417 22.5391 6.0622C22.6139 6.08934 22.6631 6.16102 22.6614 6.24054C22.6597 6.32005 22.6075 6.38963 22.5316 6.41332C21.4709 6.74625 21.1991 7.0066 20.821 8.05221C20.794 8.12693 20.7222 8.17611 20.6428 8.17441C20.5632 8.1727 20.4937 8.12049 20.47 8.04468C20.137 6.98389 19.8767 6.71213 18.8312 6.33396C18.7564 6.30696 18.7072 6.2352 18.7089 6.15576C18.7106 6.07625 18.7628 6.00667 18.8387 5.98283C19.8994 5.65005 20.1712 5.3897 20.5493 4.3441C20.5763 4.26937 20.648 4.22019 20.7275 4.22189Z" fill="#FFD00D"/>
<path d="M1.70687 21.8647C1.66502 21.8647 1.62784 21.838 1.61448 21.7984C1.42736 21.244 1.2873 21.104 0.732954 20.9169C0.693345 20.9035 0.666626 20.8663 0.666626 20.8244C0.666626 20.7826 0.693345 20.7454 0.732954 20.732C1.28725 20.5449 1.42731 20.4049 1.61448 19.8505C1.62784 19.8109 1.66502 19.7842 1.70687 19.7842C1.74873 19.7842 1.78591 19.8109 1.79927 19.8505C1.98639 20.4049 2.1265 20.5449 2.6808 20.732C2.72041 20.7454 2.74712 20.7826 2.74712 20.8244C2.74712 20.8663 2.72041 20.9035 2.6808 20.9169C2.1265 21.104 1.98644 21.244 1.79927 21.7984C1.78586 21.838 1.74869 21.8647 1.70687 21.8647Z" fill="#FFD00D"/>
</svg>
