<svg width="36" height="36" viewBox="0 0 36 36" fill="none" xmlns="http://www.w3.org/2000/svg">
<g filter="url(#filter0_d)">
<circle cx="18" cy="18" r="12" fill="white"/>
</g>
<g clip-path="url(#clip0)">
<path d="M26.0002 21.3104C26.0002 22.8331 25.7519 24.069 25.4484 24.069C23.5971 23.7731 21.7282 23.5999 19.854 23.5504L19.1698 23.2249C19.551 22.5479 19.4086 21.6967 18.8278 21.1807C18.8195 20.2649 19.2471 19.4814 19.0733 19.0924C21.2086 19.0659 23.3392 18.8852 25.4484 18.5518C25.7519 18.5518 26.0002 19.7876 26.0002 21.3104Z" fill="#F8E8AB"/>
<path d="M14.1377 14.7062L10.1846 13.2938C10.0755 13.2542 10.0028 13.1505 10.0028 13.0345C10.0028 12.9184 10.0755 12.8148 10.1846 12.7752L17.9032 10.0165C17.9657 9.99448 18.0338 9.99448 18.0963 10.0165L25.8149 12.7752C25.924 12.8148 25.9966 12.9184 25.9966 13.0345C25.9966 13.1505 25.924 13.2542 25.8149 13.2938L24.0494 13.9255L23.2852 14.1986L21.8618 14.7062H14.1377Z" fill="#393F4B"/>
<path d="M10.5906 24.0605L10.552 24.0688C10.5653 24.069 10.5785 24.0662 10.5906 24.0605Z" fill="#F8E8AB"/>
<path d="M10.5851 18.5573C10.574 18.556 10.5629 18.5542 10.552 18.5518C10.5632 18.5522 10.5743 18.5541 10.5851 18.5573Z" fill="#F8E8AB"/>
<path d="M10.5878 18.5571C12.5733 18.87 14.5781 19.0461 16.5878 19.084C16.7698 19.4868 17.4485 20.3337 17.4485 21.3102C17.4485 21.3764 17.4485 21.4399 17.4457 21.5033C17.105 22.0206 17.0816 22.6848 17.385 23.2247L16.7036 23.5337C14.6563 23.5695 12.6138 23.7455 10.5905 24.0606L10.5878 18.5571Z" fill="#F8E8AB"/>
<path d="M16.894 21.5033C16.8967 21.4398 16.8967 21.3764 16.8967 21.3102C16.9273 20.5556 16.8226 19.8017 16.5878 19.084C17.0402 19.0978 17.5119 19.1033 18.0002 19.1033C18.3671 19.1033 18.7257 19.1005 19.0733 19.0923C19.296 19.7652 19.3987 20.472 19.3767 21.1805L16.894 21.5033Z" fill="#BA3A23"/>
<path d="M18.2762 24.0687L17.5424 25.826C17.5016 25.9302 17.4019 25.9994 17.29 26.0012C17.1781 26.003 17.0762 25.9371 17.032 25.8343L16.8307 25.3708L16.3672 25.5694C16.2653 25.6141 16.1464 25.5927 16.0665 25.5152C15.9866 25.4377 15.9615 25.3196 16.0031 25.2163L16.7038 23.5336L16.8334 23.2246L18.2762 24.0687Z" fill="#BA3A23"/>
<path d="M19.7189 23.2246L19.8541 23.5501L20.5492 25.2163C20.5908 25.3196 20.5657 25.4377 20.4858 25.5152C20.4059 25.5927 20.287 25.6141 20.1851 25.5694L19.7216 25.3708L19.5203 25.8343C19.4761 25.9371 19.3742 26.003 19.2623 26.0012C19.1504 25.9994 19.0507 25.9302 19.0099 25.826L18.2761 24.0687L19.7189 23.2246Z" fill="#BA3A23"/>
<path d="M14.1382 16.6209V13.5864C14.1382 13.1284 15.8678 12.7588 18.0002 12.7588C20.1327 12.7588 21.8623 13.1284 21.8623 13.5864V16.6209H14.1382Z" fill="#464F5E"/>
<path d="M23.7934 14.1377C23.6411 14.1377 23.5176 14.0142 23.5176 13.8619V12.0522C23.5176 11.8999 23.6411 11.7764 23.7934 11.7764C23.9458 11.7764 24.0693 11.8999 24.0693 12.0522V13.8619C24.0693 14.0142 23.9458 14.1377 23.7934 14.1377Z" fill="#EDC100"/>
<path d="M23.2417 14.414V15.2416C23.2417 15.394 23.3652 15.5175 23.5176 15.5175H24.0693C24.2216 15.5175 24.3452 15.394 24.3452 15.2416V14.414C24.3452 14.1093 24.0981 13.8623 23.7934 13.8623C23.4887 13.8623 23.2417 14.1093 23.2417 14.414Z" fill="#F1D24B"/>
<path d="M18.0002 17.4481C20.1332 17.4481 21.8623 17.0776 21.8623 16.6206C21.8623 16.1635 20.1332 15.793 18.0002 15.793C15.8673 15.793 14.1382 16.1635 14.1382 16.6206C14.1382 17.0776 15.8673 17.4481 18.0002 17.4481Z" fill="#393F4B"/>
<path d="M11.1037 21.3105C11.1037 22.767 10.8775 23.9615 10.5906 24.0608C10.5785 24.0665 10.5653 24.0693 10.552 24.0691C10.2485 24.0691 10.0002 22.8332 10.0002 21.3105C10.0002 19.7877 10.2485 18.5518 10.552 18.5518C10.555 18.5515 10.558 18.5525 10.5602 18.5546C10.5658 18.5546 10.574 18.5573 10.5851 18.5573H10.5878C10.8747 18.6539 11.1037 19.8484 11.1037 21.3105Z" fill="#E2BE50"/>
<path d="M19.9312 22.414C19.9312 23.3281 19.1902 24.0692 18.276 24.0692C17.3619 24.0692 16.6208 23.3281 16.6208 22.414C16.6208 21.4999 17.3619 20.7588 18.276 20.7588C18.6829 20.7564 19.0758 20.9071 19.3767 21.1809C19.7298 21.4934 19.9317 21.9425 19.9312 22.414Z" fill="#E04C34"/>
</g>
<defs>
<filter id="filter0_d" x="0" y="0" width="36" height="36" filterUnits="userSpaceOnUse" color-interpolation-filters="sRGB">
<feFlood flood-opacity="0" result="BackgroundImageFix"/>
<feColorMatrix in="SourceAlpha" type="matrix" values="0 0 0 0 0 0 0 0 0 0 0 0 0 0 0 0 0 0 127 0"/>
<feOffset/>
<feGaussianBlur stdDeviation="3"/>
<feColorMatrix type="matrix" values="0 0 0 0 1 0 0 0 0 0.654902 0 0 0 0 0.121569 0 0 0 0.7 0"/>
<feBlend mode="normal" in2="BackgroundImageFix" result="effect1_dropShadow"/>
<feBlend mode="normal" in="SourceGraphic" in2="effect1_dropShadow" result="shape"/>
</filter>
<clipPath id="clip0">
<rect width="16" height="16" fill="white" transform="translate(10.0002 10)"/>
</clipPath>
</defs>
</svg>
