<svg width="36" height="36" viewBox="0 0 36 36" fill="none" xmlns="http://www.w3.org/2000/svg">
<circle cx="18" cy="18" r="18" fill="white"/>
<g clip-path="url(#clip0)">
<path d="M30 22.9656C30 25.2497 29.6276 27.1035 29.1724 27.1035C26.3954 26.6597 23.592 26.3998 20.7807 26.3256L19.7545 25.8373C20.3263 24.8218 20.1127 23.5451 19.2414 22.7711C19.229 21.3973 19.8704 20.2221 19.6097 19.6387C22.8126 19.5989 26.0085 19.3278 29.1724 18.8276C29.6276 18.8276 30 20.6814 30 22.9656Z" fill="#F8E8AB"/>
<path d="M12.2072 13.0593L6.2775 10.9407C6.11385 10.8813 6.00488 10.7258 6.00488 10.5517C6.00488 10.3776 6.11385 10.2222 6.2775 10.1628L17.8554 6.02482C17.9491 5.99173 18.0514 5.99173 18.1451 6.02482L29.723 10.1628C29.8867 10.2222 29.9956 10.3776 29.9956 10.5517C29.9956 10.7258 29.8867 10.8813 29.723 10.9407L27.0747 11.8883L25.9285 12.2979L23.7934 13.0593H12.2072Z" fill="#393F4B"/>
<path d="M6.88508 27.0911L6.82715 27.1035C6.84715 27.1038 6.86696 27.0995 6.88508 27.0911Z" fill="#F8E8AB"/>
<path d="M6.8768 18.8359C6.86012 18.8341 6.84354 18.8313 6.82715 18.8276C6.84398 18.8284 6.86065 18.8311 6.8768 18.8359Z" fill="#F8E8AB"/>
<path d="M6.88086 18.8359C9.85921 19.3053 12.8663 19.5693 15.8809 19.6263C16.154 20.2304 17.1719 21.5008 17.1719 22.9656C17.1719 23.0649 17.1719 23.1601 17.1678 23.2552C16.6567 24.0311 16.6216 25.0274 17.0767 25.8373L16.0547 26.3008C12.9836 26.3544 9.91991 26.6185 6.885 27.0911L6.88086 18.8359Z" fill="#F8E8AB"/>
<path d="M16.3402 23.2552C16.3443 23.16 16.3443 23.0648 16.3443 22.9655C16.3901 21.8337 16.2332 20.7028 15.8809 19.6262C16.5595 19.6469 17.2671 19.6552 17.9995 19.6552C18.5498 19.6552 19.0878 19.651 19.6091 19.6386C19.9432 20.648 20.0973 21.7083 20.0643 22.771L16.3402 23.2552Z" fill="#BA3A23"/>
<path d="M18.414 27.1034L17.3133 29.7392C17.2521 29.8955 17.1025 29.9994 16.9347 30.0021C16.7668 30.0048 16.614 29.9059 16.5478 29.7516L16.2457 29.0565L15.5505 29.3544C15.3976 29.4214 15.2193 29.3893 15.0995 29.2731C14.9796 29.1568 14.942 28.9796 15.0043 28.8247L16.0553 26.3006L16.2498 25.8372L18.414 27.1034Z" fill="#BA3A23"/>
<path d="M20.5782 25.8372L20.781 26.3254L21.8237 28.8247C21.886 28.9796 21.8484 29.1568 21.7286 29.2731C21.6087 29.3893 21.4304 29.4214 21.2775 29.3544L20.5823 29.0565L20.2803 29.7516C20.214 29.9059 20.0612 30.0048 19.8934 30.0021C19.7255 29.9994 19.576 29.8955 19.5148 29.7392L18.4141 27.1034L20.5782 25.8372Z" fill="#BA3A23"/>
<path d="M12.207 15.931V11.3793C12.207 10.6924 14.8015 10.1379 18.0001 10.1379C21.1987 10.1379 23.7932 10.6924 23.7932 11.3793V15.931H12.207Z" fill="#464F5E"/>
<path d="M26.6902 12.2069C26.4616 12.2069 26.2764 12.0216 26.2764 11.7931V9.07859C26.2764 8.85006 26.4616 8.66479 26.6902 8.66479C26.9187 8.66479 27.1039 8.85006 27.1039 9.07859V11.7931C27.1039 12.0216 26.9187 12.2069 26.6902 12.2069Z" fill="#EDC100"/>
<path d="M25.8623 12.6208V13.8622C25.8623 14.0907 26.0476 14.276 26.2761 14.276H27.1037C27.3322 14.276 27.5175 14.0907 27.5175 13.8622V12.6208C27.5175 12.1637 27.147 11.7932 26.6899 11.7932C26.2328 11.7932 25.8623 12.1637 25.8623 12.6208Z" fill="#F1D24B"/>
<path d="M18.0001 17.1725C21.1996 17.1725 23.7932 16.6167 23.7932 15.9311C23.7932 15.2455 21.1996 14.6897 18.0001 14.6897C14.8007 14.6897 12.207 15.2455 12.207 15.9311C12.207 16.6167 14.8007 17.1725 18.0001 17.1725Z" fill="#393F4B"/>
<path d="M7.65517 22.9654C7.65517 25.1503 7.31586 26.942 6.88552 27.091C6.8674 27.0994 6.84759 27.1037 6.82759 27.1034C6.37241 27.1034 6 25.2496 6 22.9654C6 20.6813 6.37241 18.8275 6.82759 18.8275C6.83213 18.827 6.83669 18.8285 6.84 18.8316C6.84828 18.8316 6.86069 18.8358 6.87724 18.8358H6.88138C7.31172 18.9806 7.65517 20.7723 7.65517 22.9654Z" fill="#E2BE50"/>
<path d="M20.8962 24.6207C20.8962 25.9919 19.7846 27.1035 18.4134 27.1035C17.0422 27.1035 15.9307 25.9919 15.9307 24.6207C15.9307 23.2496 17.0422 22.138 18.4134 22.138C19.0237 22.1344 19.613 22.3604 20.0645 22.7711C20.5941 23.2399 20.897 23.9135 20.8962 24.6207Z" fill="#E04C34"/>
</g>
<defs>
<clipPath id="clip0">
<rect width="24" height="24" fill="white" transform="translate(6 6)"/>
</clipPath>
</defs>
</svg>
