<svg width="162" height="51" viewBox="0 0 162 51" fill="none" xmlns="http://www.w3.org/2000/svg">
<g clip-path="url(#clip0)">
<path d="M56.3175 34.9094L54.6248 31.8939C54.5129 31.9087 54.401 31.9087 54.275 31.9087H52.0653V34.9094H50.1914V24.7123H54.275C56.8062 24.7123 58.2467 25.9796 58.2467 28.2235C58.2467 29.8256 57.5611 30.9763 56.3033 31.5296L58.4577 34.9094H56.3175ZM52.0653 30.19H54.275C55.673 30.19 56.4563 29.563 56.4563 28.281C56.4563 27.0285 55.673 26.4163 54.275 26.4163H52.0653V30.19Z" fill="#0367B4"/>
<path d="M67.2823 31.6756H61.7582C61.9962 32.782 62.8078 33.4533 63.8984 33.4533C64.6676 33.4533 65.3814 33.1479 65.9126 32.5799L66.8914 33.6436C66.1506 34.4889 65.0599 34.9831 63.744 34.9831C61.4225 34.9831 59.8984 33.381 59.8984 31.0353C59.8984 28.6616 61.465 27.058 63.703 27.058C66.3319 27.058 67.4636 28.849 67.2823 31.6756ZM65.6321 30.4083C65.5897 29.2576 64.8489 28.5288 63.7157 28.5288C62.6392 28.5288 61.8829 29.2576 61.7157 30.4083H65.6321Z" fill="#0367B4"/>
<path d="M69.7022 27.1154L71.6611 33.0445L73.5775 27.1154H75.4104L72.5577 34.9093H70.6838L67.8027 27.1302L69.7022 27.1154Z" fill="#0367B4"/>
<path d="M83.7436 31.0058C83.7436 33.3795 82.1501 34.9831 79.813 34.9831C77.449 34.9831 75.8555 33.381 75.8555 31.0058C75.8555 28.6454 77.4504 27.058 79.813 27.058C82.1501 27.058 83.7436 28.6454 83.7436 31.0058ZM77.6883 31.0338C77.6883 32.4324 78.5552 33.3943 79.8144 33.3943C81.0453 33.3943 81.9121 32.4324 81.9121 31.0338C81.9121 29.6353 81.0453 28.6734 79.8144 28.6734C78.5552 28.6749 77.6883 29.6353 77.6883 31.0338Z" fill="#0367B4"/>
<path d="M87.5609 24.1V34.9093H85.7422V24.1H87.5609Z" fill="#0367B4"/>
<path d="M97.1546 27.1154V34.9093H95.3217V33.4664C94.8047 34.5006 93.9095 34.9815 92.7197 34.9815C91.0413 34.9815 90.0059 33.8308 90.0059 31.9956V27.1154H91.8373V31.4424C91.8373 32.5355 92.4393 33.1906 93.4464 33.1906C94.6206 33.1758 95.3203 32.2139 95.3203 30.9614V27.1154H97.1546Z" fill="#0367B4"/>
<path d="M104.147 34.4283C103.573 34.7927 102.93 34.9963 102.273 34.9963C101.056 34.9963 100.077 34.2675 100.077 32.6654V28.8193H99.0278L99.0137 27.4355H100.076V25.2935H101.881V27.4355H104.021V28.8193H101.881V32.3305C101.881 33.074 102.174 33.3204 102.664 33.3204C102.971 33.3204 103.321 33.2038 103.726 33.0003L104.147 34.4283Z" fill="#0367B4"/>
<path d="M107.811 24.8878C107.811 25.5 107.406 25.9367 106.832 25.9367C106.259 25.9367 105.854 25.5 105.854 24.8878C105.854 24.2756 106.259 23.8389 106.832 23.8389C107.406 23.8374 107.811 24.2756 107.811 24.8878ZM107.742 27.1154V34.9093H105.923V27.1154H107.742Z" fill="#0367B4"/>
<path d="M117.546 31.0058C117.546 33.3795 115.951 34.9831 113.615 34.9831C111.251 34.9831 109.656 33.381 109.656 31.0058C109.656 28.6454 111.251 27.058 113.615 27.058C115.952 27.058 117.546 28.6454 117.546 31.0058ZM111.491 31.0338C111.491 32.4324 112.357 33.3943 113.617 33.3943C114.847 33.3943 115.714 32.4324 115.714 31.0338C115.714 29.6353 114.847 28.6734 113.617 28.6734C112.357 28.6749 111.491 29.6353 111.491 31.0338Z" fill="#0367B4"/>
<path d="M126.747 30.0439V34.9093H124.915V30.5971C124.915 29.5039 124.286 28.8341 123.251 28.8341C122.02 28.8489 121.293 29.796 121.293 31.078V34.9093H119.475V27.1155H121.293V28.5715C121.824 27.5374 122.762 27.0564 123.979 27.0417C125.697 27.0432 126.747 28.1939 126.747 30.0439Z" fill="#0367B4"/>
<path d="M131.026 24.8878C131.026 25.5 130.621 25.9367 130.047 25.9367C129.473 25.9367 129.068 25.5 129.068 24.8878C129.068 24.2756 129.473 23.8389 130.047 23.8389C130.621 23.8374 131.026 24.2756 131.026 24.8878ZM130.956 27.1154V34.9093H129.138V27.1154H130.956Z" fill="#0367B4"/>
<path d="M135.796 28.5139C135.208 28.5139 134.789 28.7175 134.789 29.1984C134.789 30.5099 138.748 29.8254 138.748 32.621C138.748 34.2084 137.391 34.9814 135.798 34.9814C134.665 34.9814 133.49 34.6023 132.707 33.8883L133.336 32.562C134.021 33.1742 135.057 33.5239 135.867 33.5239C136.496 33.5239 136.972 33.3055 136.972 32.7951C136.972 31.3523 133.07 32.1401 133.084 29.3725C133.084 27.7703 134.398 27.0268 135.91 27.0268C136.888 27.0268 137.91 27.3322 138.65 27.8574L137.993 29.2264C137.265 28.7765 136.439 28.5139 135.796 28.5139Z" fill="#0367B4"/>
<path d="M142.536 24.8878C142.536 25.5 142.131 25.9367 141.557 25.9367C140.983 25.9367 140.578 25.5 140.578 24.8878C140.578 24.2756 140.983 23.8389 141.557 23.8389C142.131 23.8374 142.536 24.2756 142.536 24.8878ZM142.466 27.1154V34.9093H140.648V27.1154H142.466Z" fill="#0367B4"/>
<path d="M152.34 30.0439V34.9093H150.507V30.5971C150.507 29.5039 149.878 28.8341 148.843 28.8341C147.612 28.8489 146.885 29.796 146.885 31.078V34.9093H145.066V27.1155H146.885V28.5715C147.416 27.5374 148.354 27.0564 149.571 27.0417C151.292 27.0432 152.34 28.1939 152.34 30.0439Z" fill="#0367B4"/>
<path d="M161.57 27.1155V34.1658C161.57 36.3949 160.018 37.8082 157.654 37.8082C156.451 37.8082 155.375 37.3995 154.493 36.774L155.221 35.405C155.906 35.9287 156.661 36.2208 157.556 36.2208C158.899 36.2208 159.752 35.4492 159.752 34.21V33.2924C159.249 34.0787 158.437 34.5154 157.374 34.5154C155.388 34.5154 154.045 33.0003 154.045 30.7564C154.045 28.5568 155.374 27.0564 157.318 27.0564C158.395 27.0417 159.235 27.4931 159.752 28.2794V27.114H161.57V27.1155ZM159.752 30.8007C159.752 29.4892 158.94 28.5715 157.766 28.5715C156.59 28.5715 155.78 29.5039 155.766 30.8007C155.78 32.1122 156.578 33.0298 157.766 33.0298C158.94 33.0298 159.752 32.1122 159.752 30.8007Z" fill="#0367B4"/>
<path d="M57.3676 40.7159V42.4199H52.0673V44.9396H56.8223V46.6436H52.0673V49.2076H57.5361V50.9115H50.1934V40.7145H57.3676V40.7159Z" fill="#0367B4"/>
<path d="M66.9335 40.1051V50.9144H65.1148V49.6619C64.5837 50.522 63.7154 51.0014 62.5978 51.0014C60.4576 51.0014 59.0312 49.3698 59.0312 46.9961C59.0312 44.6357 60.4576 43.0483 62.5553 43.0483C63.7026 43.0483 64.5695 43.5292 65.1148 44.4026V40.1051H66.9335ZM65.1148 47.0389C65.1148 45.6403 64.248 44.6652 62.9888 44.6652C61.7437 44.6652 60.8769 45.6551 60.8627 47.0389C60.8769 48.4374 61.7295 49.4126 62.9888 49.4126C64.248 49.4126 65.1148 48.4374 65.1148 47.0389Z" fill="#0367B4"/>
<path d="M76.5282 43.1206V50.9144H74.6953V49.4716C74.1783 50.5058 73.2831 50.9867 72.0947 50.9867C70.4163 50.9867 69.3809 49.836 69.3809 48.0008V43.1206H71.2123V47.4476C71.2123 48.5407 71.8143 49.1958 72.8214 49.1958C73.9956 49.181 74.6953 48.2191 74.6953 46.9666V43.1206H76.5282Z" fill="#0367B4"/>
<path d="M82.331 44.7226C81.1284 44.7226 80.2885 45.655 80.2885 47.024C80.2885 48.4226 81.1284 49.355 82.331 49.355C83.1978 49.355 83.8975 49.0496 84.3451 48.4373L85.4783 49.414C84.821 50.4039 83.7021 50.9866 82.2332 50.9866C79.9953 50.9866 78.457 49.3845 78.457 47.0388C78.457 44.6651 80.0094 43.0615 82.2616 43.0615C83.6327 43.0615 84.7233 43.5867 85.3947 44.4895L84.2899 45.5827C83.814 45.0427 83.1567 44.7226 82.331 44.7226Z" fill="#0367B4"/>
<path d="M91.534 50.913V49.9658C91.017 50.6504 90.1771 51 89.1147 51C87.5071 51 86.5 49.9658 86.5 48.582C86.5 47.1392 87.5213 46.2511 89.3385 46.2364H91.5198V46.0328C91.5198 45.1299 90.9462 44.59 89.8272 44.59C89.1275 44.59 88.3725 44.8378 87.6034 45.3187L86.9462 44.0072C88.0227 43.3802 88.8626 43.0453 90.2337 43.0453C92.1912 43.0453 93.296 44.0795 93.3102 45.813L93.3244 50.9115H91.534V50.913ZM91.5198 48.2044V47.5051H89.6317C88.6671 47.5051 88.2196 47.7824 88.2196 48.467C88.2196 49.122 88.7224 49.5454 89.5482 49.5454C90.5963 49.5439 91.4221 48.9612 91.5198 48.2044Z" fill="#0367B4"/>
<path d="M100.092 50.4321C99.5185 50.7965 98.8754 51.0001 98.2182 51.0001C97.0015 51.0001 96.0227 50.2713 96.0227 48.6692V44.8231H94.9731L94.959 43.4393H96.0213V41.2972H97.8258V43.4393H99.966V44.8231H97.8258V48.3343C97.8258 49.0778 98.1204 49.3242 98.6091 49.3242C98.9165 49.3242 99.2663 49.2076 99.6714 49.004L100.092 50.4321Z" fill="#0367B4"/>
<path d="M103.756 40.8915C103.756 41.5037 103.351 41.9404 102.778 41.9404C102.204 41.9404 101.799 41.5037 101.799 40.8915C101.799 40.2793 102.204 39.8426 102.778 39.8426C103.351 39.8426 103.756 40.2793 103.756 40.8915ZM103.687 43.1206V50.9145H101.868V43.1206H103.687Z" fill="#0367B4"/>
<path d="M113.49 47.0093C113.49 49.383 111.895 50.9866 109.559 50.9866C107.195 50.9866 105.602 49.3845 105.602 47.0093C105.602 44.6488 107.195 43.0615 109.559 43.0615C111.896 43.0615 113.49 44.6488 113.49 47.0093ZM107.434 47.0388C107.434 48.4373 108.301 49.3992 109.56 49.3992C110.791 49.3992 111.658 48.4373 111.658 47.0388C111.658 45.6402 110.791 44.6784 109.56 44.6784C108.301 44.6784 107.434 45.6402 107.434 47.0388Z" fill="#0367B4"/>
<path d="M122.692 46.0475V50.913H120.86V46.6007C120.86 45.5076 120.232 44.8378 119.196 44.8378C117.965 44.8526 117.239 45.7997 117.239 47.0817V50.913H115.42V43.1191H117.239V44.5752C117.77 43.541 118.707 43.0601 119.924 43.0453C121.644 43.0468 122.692 44.1975 122.692 46.0475Z" fill="#0367B4"/>
<path d="M57.7934 10.9439C57.7934 13.232 56.2566 14.7766 54.0059 14.7766C51.7282 14.7766 50.1914 13.232 50.1914 10.9439C50.1914 8.67049 51.7282 7.13916 54.0059 7.13916C56.2566 7.14064 57.7934 8.67049 57.7934 10.9439ZM51.9577 10.9719C51.9577 12.3203 52.7934 13.2453 54.0059 13.2453C55.1914 13.2453 56.0271 12.3188 56.0271 10.9719C56.0271 9.62499 55.1914 8.69852 54.0059 8.69852C52.7934 8.69852 51.9577 9.62499 51.9577 10.9719Z" fill="#0367B4"/>
<path d="M66.6594 10.0171V14.7055H64.8946V10.5512C64.8946 9.49784 64.2883 8.85315 63.2912 8.85315C62.1056 8.86643 61.4045 9.77962 61.4045 11.0144V14.7055H59.6523V7.19642H61.4045V8.5994C61.9172 7.60212 62.8195 7.13889 63.9923 7.12561C65.6495 7.12561 66.6594 8.23501 66.6594 10.0171Z" fill="#0367B4"/>
<path d="M71.4537 21.9018H45.3984V0H71.4537V21.9018ZM46.7979 20.4457H70.0557V1.45609H46.7979V20.4457Z" fill="#0367B4"/>
<path d="M27.0391 28.7367C27.0391 29.3917 27.5433 29.8151 28.3677 29.8151C29.4172 29.8151 30.2416 29.2324 30.3393 28.4756V27.7763H28.4512C27.4867 27.7748 27.0391 28.0522 27.0391 28.7367Z" fill="#0367B4"/>
<path d="M9.01172 27.353H12.4522L10.7454 23.0703L9.01172 27.353Z" fill="#0367B4"/>
<path d="M37.8077 29.6824C38.9819 29.6824 39.9338 28.6197 39.9338 27.3087C39.9338 25.9977 38.9819 24.935 37.8077 24.935C36.6335 24.935 35.6816 25.9977 35.6816 27.3087C35.6816 28.6197 36.6335 29.6824 37.8077 29.6824Z" fill="#0367B4"/>
<path d="M0.570312 14.6583V36.9864H46.7105V14.6583H0.570312ZM13.991 31.1827L13.1241 29.0274H8.34085L7.47399 31.1827H5.52924L9.82244 20.9857H11.7672L16.0052 31.1827H13.991ZM22.5363 31.1827L20.508 27.7749L19.3607 29.0274V31.1827H17.542V20.3735H19.3607V26.6374L22.4372 23.4036H24.5349L21.7658 26.4043L24.7035 31.1827H22.5363ZM30.3536 31.1827V30.2356C29.8366 30.9201 28.9967 31.2698 27.9343 31.2698C26.3253 31.2698 25.3196 30.2356 25.3196 28.8518C25.3196 27.409 26.3408 26.5209 28.1581 26.5061H30.3394V26.3025C30.3394 25.3997 29.7658 24.8597 28.6468 24.8597C27.9471 24.8597 27.1921 25.1076 26.423 25.5885L25.7658 24.277C26.8423 23.65 27.6822 23.3151 29.0519 23.3151C31.0094 23.3151 32.1142 24.3493 32.1284 26.0827L32.1425 31.1813H30.3536V31.1827ZM41.7516 31.1827H39.9329V29.9302C39.4018 30.7903 38.5349 31.2698 37.4159 31.2698C35.2757 31.2698 33.8493 29.6381 33.8493 27.2644C33.8493 24.904 35.2757 23.3166 37.3734 23.3166C38.5207 23.3166 39.3876 23.7975 39.9329 24.6709V20.3735H41.7516V31.1827Z" fill="#0367B4"/>
</g>
<defs>
<clipPath id="clip0">
<rect width="161" height="51" fill="white" transform="translate(0.570312)"/>
</clipPath>
</defs>
</svg>
