<svg width="478" height="291" viewBox="0 0 478 291" fill="none" xmlns="http://www.w3.org/2000/svg">
<path d="M327.828 96.2895C327.402 88.7187 314.841 88.4037 314.841 88.4037C314.841 88.4037 303.985 99.2018 301.534 98.9963C299.083 98.7909 309.011 87.9517 309.011 87.9517C304.48 86.5272 291.493 89.7066 291.493 89.7066C291.493 89.7066 289.15 104.485 286.826 103.682C284.502 102.879 289.568 90.703 289.568 90.703C284.807 91.1002 279.525 95.4386 279.525 95.4386C272.505 102.84 282.373 111.469 282.373 111.469C282.373 111.469 281.45 116.573 277.088 121.729C277.088 121.729 276.155 122.654 275.048 124.328L276.269 124.585C276.439 124.279 276.615 123.986 276.8 123.709C276.8 123.707 276.802 123.705 276.804 123.704C276.807 123.7 276.809 123.695 276.812 123.692C276.936 123.52 277.112 123.277 277.331 122.983C277.331 122.983 277.331 122.983 277.331 122.981C277.331 122.981 277.333 122.981 277.333 122.979C277.86 122.329 278.225 121.842 278.467 121.486C278.467 121.485 278.468 121.485 278.468 121.483C280.07 119.428 282.31 116.783 283.516 116.384C283.516 116.384 283.421 116.165 283.373 115.77C283.42 115.967 283.466 116.17 283.516 116.384C284.66 121.301 294.947 124.253 301.02 124.289C307.093 124.325 304.903 122.147 302.33 118.822C299.76 115.497 293.045 114.813 291.325 113.359C289.606 111.905 292.661 111.46 296.478 112.577C300.296 113.695 301.416 117.983 307.557 119.903C313.699 121.824 320.966 111.046 320.966 111.046C316.353 111.474 309.099 107.449 309.116 105.894C309.133 104.34 320.592 106.915 322.478 106.846C324.363 106.78 328.254 103.86 327.828 96.2895Z" fill="#DFEBFD"/>
<path opacity="0.5" d="M286.742 79.2372C286.742 79.2372 294.303 52.1108 311.012 37.8012C313.231 35.8991 316.621 37.8509 316.114 40.7289C316.105 40.7768 316.096 40.8248 316.086 40.8744C315.144 45.7761 296.078 64.1263 286.742 79.2372Z" fill="#AFCDFB"/>
<path opacity="0.5" d="M283.802 86.8829C283.802 86.8829 303.243 54.5159 329.709 42.9559C331.322 42.2505 333.262 42.896 334.026 44.4814C334.525 45.5138 334.588 47.017 333.516 49.1845C330.658 54.9645 300.615 71.2721 283.802 86.8829Z" fill="#AFCDFB"/>
<path opacity="0.5" d="M280.732 223.82C280.732 223.82 310.241 209.034 315.581 214.184C320.921 219.334 280.732 223.82 280.732 223.82Z" fill="#AFCDFB"/>
<path opacity="0.5" d="M275.932 225.59C275.932 225.59 315.444 222.121 316.062 230.353C316.682 238.585 275.932 225.59 275.932 225.59Z" fill="#AFCDFB"/>
<path d="M139.757 51.6502C144.796 36.1164 171.129 42.3416 171.129 42.3416C171.129 42.3416 187.821 70.7776 193.037 71.6919C198.254 72.6061 183.515 44.5947 183.515 44.5947C193.734 44.1102 219.04 57.8463 219.04 57.8463C219.04 57.8463 215.82 89.9068 221.102 89.5096C226.384 89.1107 222.503 60.9759 222.503 60.9759C232.2 64.4104 240.823 76.3419 240.823 76.3419C251.387 95.5995 226.105 108.168 226.105 108.168C226.105 108.168 225.23 119.303 231.491 132.432C231.491 132.432 232.93 134.87 234.313 138.961L231.63 138.83C231.446 138.1 231.239 137.393 231.005 136.712C231.005 136.707 231.003 136.703 230.999 136.7C230.996 136.69 230.993 136.681 230.989 136.671C230.826 136.248 230.59 135.645 230.297 134.909C230.297 134.909 230.297 134.907 230.296 134.906C230.296 134.904 230.294 134.904 230.294 134.902C229.552 133.257 229.057 132.045 228.749 131.173C228.747 131.17 228.747 131.168 228.747 131.165C226.538 126.008 223.322 119.272 221.03 117.781C221.03 117.781 221.347 117.379 221.666 116.579C221.464 116.963 221.253 117.362 221.03 117.781C215.954 127.395 192.907 127.908 180.241 124.655C167.574 121.404 173.328 118.069 180.506 112.553C187.684 107.036 202.042 109.288 206.421 107.201C210.799 105.114 204.678 102.513 196.117 102.749C187.553 102.985 182.871 111.304 169.026 111.94C155.183 112.575 145.957 86.1488 145.957 86.1488C155.327 89.5678 172.645 85.1575 173.462 81.9096C174.279 78.6618 149 77.7493 145.113 76.5731C141.222 75.3934 134.719 67.184 139.757 51.6502Z" fill="#DFEBFD"/>
<path d="M320.416 168.855C317.907 159.596 302.277 162.489 302.277 162.489C302.277 162.489 291.664 178.692 288.578 179.079C285.49 179.464 294.946 163.455 294.946 163.455C288.963 162.876 273.719 170.205 273.719 170.205C273.719 170.205 274.684 189.11 271.597 188.723C268.51 188.338 271.597 171.942 271.597 171.942C265.809 173.678 260.405 180.43 260.405 180.43C253.652 191.425 268.124 199.527 268.124 199.527C268.124 199.527 268.318 206.086 264.266 213.609C264.266 213.609 263.351 214.997 262.421 217.358H264C264.129 216.935 264.271 216.526 264.428 216.134C264.428 216.131 264.43 216.129 264.432 216.127C264.433 216.122 264.437 216.115 264.439 216.11C264.547 215.867 264.702 215.519 264.896 215.096V215.095C264.896 215.093 264.898 215.093 264.898 215.093C265.379 214.15 265.706 213.453 265.911 212.949C265.911 212.948 265.913 212.946 265.913 212.944C267.357 209.982 269.439 206.123 270.827 205.314C270.827 205.314 270.652 205.067 270.489 204.589C270.597 204.82 270.709 205.06 270.827 205.314C273.528 211.1 287.035 212.064 294.56 210.522C302.086 208.979 298.806 206.856 294.754 203.413C290.702 199.968 282.212 200.878 279.703 199.527C277.194 198.176 280.861 196.827 285.877 197.212C290.894 197.597 293.403 202.614 301.507 203.384C309.611 204.156 315.787 188.917 315.787 188.917C310.191 190.653 300.157 187.566 299.77 185.638C299.385 183.709 314.242 183.902 316.557 183.323C318.871 182.743 322.923 178.114 320.416 168.855Z" fill="#DFEBFD"/>
<path d="M158.432 158.024C163.99 147.496 182.123 155.252 182.123 155.252C182.123 155.252 190.559 177.755 194.192 179.062C197.824 180.368 190.737 158.414 190.737 158.414C198.136 159.34 214.596 172.362 214.596 172.362C214.596 172.362 208.282 194.986 212.125 195.359C215.968 195.732 216.694 175.042 216.694 175.042C223.229 178.718 227.932 188.362 227.932 188.362C233.115 203.51 213.389 209.381 213.389 209.381C213.389 209.381 211.369 217.269 214.228 227.478C214.228 227.478 214.957 229.409 215.44 232.52L213.529 232.09C213.488 231.542 213.428 231.01 213.344 230.491C213.344 230.488 213.344 230.484 213.342 230.481C213.341 230.474 213.339 230.466 213.339 230.459C213.274 230.133 213.181 229.671 213.061 229.108V229.106C213.061 229.104 213.06 229.104 213.061 229.103C212.734 227.829 212.531 226.898 212.418 226.232C212.418 226.23 212.418 226.228 212.418 226.225C211.476 222.246 210.006 217.008 208.545 215.651C208.545 215.651 208.824 215.401 209.152 214.867C208.958 215.117 208.758 215.377 208.545 215.651C203.7 221.922 187.084 219.414 178.394 215.498C169.705 211.583 174.253 209.907 180.097 206.84C185.94 203.774 195.971 207.183 199.376 206.231C202.781 205.279 198.71 202.647 192.53 201.749C186.351 200.852 181.95 206.239 171.928 204.969C161.907 203.699 158.579 183.57 158.579 183.57C164.882 187.194 177.869 186.187 178.86 183.957C179.852 181.726 161.813 177.918 159.167 176.588C156.521 175.257 152.875 168.551 158.432 158.024Z" fill="#CDE0FB"/>
<path d="M153.349 243.928C150.41 237.559 160.533 231.851 160.533 231.851C160.533 231.851 174.089 235.96 176.002 234.729C177.915 233.496 165.098 228.952 165.098 228.952C168.18 225.823 180.169 222.784 180.169 222.784C180.169 222.784 188.499 233.837 190.05 232.173C191.6 230.509 182.174 222.761 182.174 222.761C186.235 221.02 192.434 222.272 192.434 222.272C201.383 225.27 197.069 236.602 197.069 236.602C197.069 236.602 200.039 240.37 205.841 242.688C205.841 242.688 207.006 243.038 208.636 243.926L207.751 244.666C207.48 244.489 207.208 244.327 206.935 244.18C206.934 244.178 206.932 244.178 206.93 244.176C206.927 244.174 206.922 244.173 206.918 244.169C206.743 244.084 206.493 243.962 206.187 243.815C206.187 243.815 206.187 243.815 206.185 243.815H206.183C205.471 243.512 204.961 243.274 204.61 243.089C204.608 243.089 204.608 243.087 204.606 243.087C202.405 242.103 199.427 240.916 198.269 241.113C198.269 241.113 198.252 240.894 198.119 240.548C198.167 240.728 198.216 240.916 198.269 241.113C199.47 245.626 192.349 252.502 187.404 255.166C182.46 257.83 183.304 255.101 183.96 251.269C184.616 247.438 189.804 243.964 190.576 242.031C191.349 240.098 188.66 241.06 186.028 243.628C183.395 246.198 184.342 250.187 180.16 254.421C175.978 258.655 165.363 253.005 165.363 253.005C169.316 251.355 173.495 244.917 172.806 243.654C172.118 242.39 163.875 249.468 162.306 250.23C160.732 250.992 156.288 250.297 153.349 243.928Z" fill="#D9E8FA"/>
<path d="M121.504 204.472C121.504 204.472 124.842 204.855 127.425 204.699C130.656 204.506 134.64 204.425 135.38 205.285C136.12 206.146 136.12 206.146 134.684 206.903C133.566 207.493 129.255 209.392 126.344 208.493C123.432 207.593 119.714 207.776 119.714 207.776L121.504 204.472Z" fill="#FFBA94"/>
<path d="M85.8677 172.685C85.8677 172.685 92.0862 203.478 99.4899 205.829C103.143 206.988 119.11 209.161 123.797 209.195C123.797 209.195 124.885 208.2 124.383 204.441C124.383 204.441 107.486 199.356 104.941 196.195C101.153 191.492 105.917 176.001 101.256 171.649C96.5939 167.299 89.0874 165.756 85.8677 172.685Z" fill="#7AA9E2"/>
<path d="M87.2482 287.441H91.3003C91.3311 287.441 91.3585 287.415 91.3585 287.383V234.524C91.3585 234.493 91.3328 234.465 91.3003 234.465H87.2482C87.2156 234.465 87.1899 234.491 87.1899 234.524V287.383C87.1899 287.415 87.2156 287.441 87.2482 287.441Z" fill="#96C1ED"/>
<path d="M70.5876 290.923C72.5469 286.87 80.1681 283.849 89.2724 283.849C98.3768 283.849 106 286.87 107.957 290.923H70.5876Z" fill="#96C1ED"/>
<path d="M75.0697 277.18H103.477C103.492 277.18 103.506 277.166 103.506 277.151V275.076C103.506 275.061 103.492 275.047 103.477 275.047H75.0697C75.0542 275.047 75.0406 275.061 75.0406 275.076V277.151C75.0388 277.168 75.0525 277.18 75.0697 277.18Z" fill="#96C1ED"/>
<path d="M86.8475 229.639C88.1251 231.805 89.6014 233.834 91.1239 235.756C95.8302 241.696 100.953 246.592 101.845 251.22C102.023 252.143 102.304 253.136 102.672 254.182C103.046 255.242 103.506 256.356 104.037 257.51C106.034 261.847 109.021 266.706 112.003 271.121C117.158 278.755 122.004 285.128 122.004 285.128L130.893 284.749C130.537 283.859 126.661 273.316 121.473 260.434C119.367 255.204 117.128 249.641 114.967 244.276C114.679 243.56 114.392 242.846 114.107 242.139C113.446 240.497 112.797 238.881 112.162 237.307C107.293 225.21 103.414 215.578 103.414 215.578C103.414 215.578 83.9514 208.207 81.9305 212.982C80.2624 216.922 81.6205 220.779 86.8475 229.639Z" fill="#163560"/>
<path d="M122.282 283.513C122.282 283.513 122.737 290.846 124.155 290.95C124.344 290.964 131.352 290.964 131.352 290.964L140.299 290.913C140.299 290.913 140.24 288.757 137.625 288.302C135.01 287.846 130.633 286.009 129.048 282.553C127.382 278.918 122.282 283.513 122.282 283.513Z" fill="#163560"/>
<path d="M101.699 262.565C101.699 262.565 95.5167 266.537 96.1161 267.827C96.1966 267.998 99.6116 274.115 99.6116 274.115L104.018 281.898C104.018 281.898 105.871 280.797 104.994 278.293C104.118 275.788 103.588 271.071 105.834 268.005C108.199 264.777 101.699 262.565 101.699 262.565Z" fill="#163560"/>
<path d="M110.405 212.297C110.405 212.297 136.748 231.214 139.625 237.158C141.872 241.8 106.075 271.302 106.075 271.302C106.075 271.302 100.86 266.139 100.178 263.641C100.178 263.641 112.509 245.926 122.282 240.175C125.191 238.463 87.4022 234.282 83.3124 227.921C79.2227 221.561 81.4765 213.138 81.4765 213.138L110.405 212.297Z" fill="#1C468A"/>
<path d="M62.4835 240.156H115.779C115.871 240.156 115.948 240.079 115.948 239.987V228.088C115.948 227.995 115.871 227.918 115.779 227.918H62.4835C62.391 227.918 62.314 227.995 62.314 228.088V239.987C62.314 240.079 62.3893 240.156 62.4835 240.156Z" fill="#FB7369"/>
<path d="M98.7673 158.765C101.167 160.251 102.489 162.136 102.489 162.136C96.6367 163.65 86.9347 158.228 86.9347 158.228C86.9347 158.228 90.7025 155.697 92.0966 150.138C92.1668 149.857 92.2319 149.57 92.2884 149.275C92.4716 148.339 92.5847 147.325 92.6052 146.231L95.294 148.638L99.764 152.643C99.764 152.643 99.663 154.303 99.1029 157.163C99.007 157.661 98.8957 158.197 98.7673 158.765Z" fill="#FFBA94"/>
<path d="M110.802 211.266C110.788 211.326 110.771 211.386 110.751 211.448C110.187 213.03 101.669 218.397 95.9159 220.53C92.3245 221.862 79.8651 224.836 79.0465 222.275C78.0943 219.304 81.5778 197.662 80.7369 186.39C79.7487 172.611 83.5661 160.07 88.8701 155.976C89.2709 155.682 90.0638 156.464 92.3639 157.555C94.4858 158.56 96.8321 158.847 98.8171 158.412L100.596 159.94C103.058 162.15 105.76 165.168 106.985 169.794C107.735 172.633 108.3 177.125 108.721 182.173C108.882 184.13 109.024 186.172 109.146 188.232C109.334 191.514 109.5 194.825 109.581 197.974C109.583 198.033 109.586 198.092 109.586 198.155L109.59 198.268C109.624 198.587 109.629 198.932 109.631 199.251C109.641 199.569 109.648 199.886 109.656 200.199C109.713 202.663 109.711 204.95 109.797 206.928C109.841 207.921 110.04 208.631 110.252 209.196C110.47 209.773 110.699 210.196 110.795 210.602C110.841 210.819 110.853 211.037 110.802 211.266Z" fill="#B0D4FF"/>
<path d="M99.764 152.643C99.764 152.643 99.6629 154.303 99.1029 157.163C94.7374 155.752 92.7576 151.811 92.0965 150.14C91.9081 149.667 91.8276 149.376 91.8276 149.376C91.8276 149.376 91.9972 149.34 92.2883 149.278C92.9015 149.148 94.0575 148.904 95.294 148.642L99.764 152.643Z" fill="#F5A579"/>
<path d="M101.096 154.052C101.096 154.052 91.4475 153.807 91.6941 147.803C91.939 141.799 90.8583 137.724 97.0289 137.626C103.2 137.529 104.302 139.869 104.708 141.893C105.114 143.917 103.614 153.962 101.096 154.052Z" fill="#FFBA94"/>
<path d="M135.634 205.756L136.473 206.029L143.615 184.055L142.776 183.782L135.634 205.756Z" fill="#1C468A"/>
<path d="M112.23 205.485L136.48 206.003L136.511 204.554L112.261 204.035L112.23 205.485Z" fill="#1C468A"/>
<path d="M90.4935 136.642C90.4319 136.541 90.2692 136.44 89.8821 136.349C89.8821 136.349 90.2298 136.209 90.6494 136.274C90.8275 135.745 91.2882 134.834 92.2644 134.767C92.2644 134.767 91.7146 134.945 91.5451 135.512C92.8261 134.591 95.2923 134.193 101.631 135.84C109.985 138.011 106.231 142.941 105.02 143.392C103.808 143.844 101.362 141.583 99.2879 141.382C97.2156 141.182 96.3028 144.065 95.5372 144.348C94.7717 144.63 95.1724 143.963 94.3093 143.372C93.4461 142.781 93.0813 144.32 93.1738 145.379C93.2663 146.437 91.7403 147.541 91.7403 147.541C91.7403 147.541 91.7403 147.541 90.687 145.908C89.6338 144.274 89.4591 138.116 90.276 136.955C90.3479 136.851 90.4199 136.746 90.4935 136.642Z" fill="#2C3A64"/>
<path d="M110.249 209.197C107.906 208.817 102.121 207.659 97.9179 205.03C90.3343 200.284 85.8661 176.203 85.8661 176.203L97.7449 191.408L109.637 200.111L109.653 200.198C109.709 202.662 109.708 204.949 109.793 206.927C109.838 207.92 110.036 208.63 110.249 209.197Z" fill="#91B8EF"/>
<path d="M121.538 198.032C121.538 198.032 122.381 198.312 123.364 198.032C124.347 197.751 127.716 196.909 128.278 197.189C128.839 197.47 130.593 198.874 131.014 199.153C131.436 199.434 132.068 200.627 132.068 200.627C131.679 200.91 130.631 199.947 130.105 199.877C129.579 199.807 125.364 201.293 124.207 201.153C123.049 201.012 121.293 200.487 121.293 200.487L121.538 198.032Z" fill="#FFBA94"/>
<path d="M128.528 199.338C128.528 199.403 129.679 201.196 130.831 200.872L129.845 199.523L128.528 199.338Z" fill="#FFBA94"/>
<path d="M123.364 198.032C123.364 198.032 124.813 197.07 125.322 196.577C125.322 196.577 125.555 196.732 125.531 196.946C125.489 197.304 125.037 197.9 125.037 197.9L123.364 198.032Z" fill="#FFBA94"/>
<path d="M97.9332 164.203C91.6907 158.865 82.3209 164.907 84.5679 172.806C87.1728 181.966 92.2028 197.077 97.3749 198.544C101.062 199.59 117.089 201.266 121.775 201.155C121.775 201.155 122.643 201.487 122.023 197.744C122.023 197.744 104.45 192.317 102.523 188.746C101.49 186.832 102.871 168.531 98.0771 164.326C98.0309 164.287 97.9829 164.244 97.9332 164.203Z" fill="#B0D4FF"/>
<path d="M248.309 177.254C248.128 177.511 247.353 178.743 248.347 180.135C248.41 180.223 248.453 180.293 248.479 180.354C260.361 187.492 296.001 216.363 296.001 236.713V278.871H188.437V236.697C188.437 216.217 224.563 186.886 236.184 180.135C236.185 180.135 236.185 180.135 236.185 180.135C236.559 179.615 236.68 179.115 236.68 178.68C236.68 177.812 236.185 177.204 236.185 177.204C224.536 170.303 188.436 141.189 188.436 120.709V78.5503H295.999V120.724C296.002 141.172 259.994 170.443 248.309 177.254Z" fill="#B0D4FF"/>
<path d="M302.173 289.733H181.414V279.174C181.414 279.008 181.549 278.875 181.715 278.875H301.885C302.044 278.875 302.173 279.003 302.173 279.162V289.733Z" fill="#FF6D34"/>
<path d="M219.229 239.305C218.679 248.742 220.474 269.095 220.311 278.871H188.439V236.697C188.439 216.217 224.565 186.886 236.185 180.135C236.187 180.135 236.187 180.135 236.187 180.135C236.56 179.615 236.682 179.115 236.682 178.68C236.682 177.812 236.187 177.204 236.187 177.204C224.538 170.303 188.437 141.189 188.437 120.709V78.5503H209.759L224.98 82.7141V116.054C224.98 116.054 223.472 125.657 227.245 135.089C231.02 144.52 239.122 174.78 238.997 178.711C238.874 182.642 220.172 223.131 219.229 239.305Z" fill="#A4C8FC"/>
<path d="M282.065 106.577C275.543 106.676 264.334 107.851 246.197 112.424C233.781 115.555 212.371 113.196 201.047 111.575C197.076 111.006 193.52 114.085 193.52 118.096V122.955C193.52 136.343 229.556 165.346 239.085 172.78C240.529 173.907 241.373 175.634 241.373 177.466V251.918C241.373 254.459 240.118 256.828 238.035 258.285C230.541 263.529 217.913 278.873 217.913 278.873H265.672C265.672 278.873 252.865 264.065 245.677 258.569C244.036 257.314 243.068 255.373 243.068 253.308V177.445C243.068 175.626 243.896 173.903 245.319 172.765C254.661 165.285 289.909 136.176 289.909 122.797V114.299C289.907 109.986 286.377 106.512 282.065 106.577Z" fill="#739AF0"/>
<path d="M301.871 82.714H181.703C181.542 82.714 181.414 82.5839 181.414 82.4247V71.856H302.173V82.4144C302.173 82.5788 302.038 82.714 301.871 82.714Z" fill="#FF6D34"/>
<path d="M90.8123 101.46L119.108 105.496L100.331 92.7012L99.3771 96.8033L92.4958 98.048L90.8123 101.46Z" fill="#9EC3F6"/>
<path d="M119.108 105.496L95.5613 93.3588L72.4836 92.1997L119.108 105.496Z" fill="#CDE0FB"/>
<path d="M100.331 92.701L119.108 105.495L104.571 85.5L100.331 92.701Z" fill="#CDE0FB"/>
<path d="M477.983 291H0.0171263C0.00685052 291 0 290.991 0 290.983V289.75C0 289.74 0.00856315 289.733 0.0171263 289.733H477.983C477.993 289.733 478 289.741 478 289.75V290.983C478 290.991 477.991 291 477.983 291Z" fill="#2E3552"/>
</svg>
