<svg width="212" height="211" viewBox="0 0 212 211" fill="none" xmlns="http://www.w3.org/2000/svg">
<g clip-path="url(#clip0)">
<path d="M181.748 172.334C176.478 177.744 171.762 180.925 168.151 183.326C132.937 206.744 92.6824 199.994 80.237 197.687C60.1575 193.965 43.208 191.339 28.6451 178.236C-4.44725 148.461 -2.83726 86.3459 22.4481 47.8688C25.4459 43.3065 50.6936 6.03315 91.0348 0.780917C92.0212 0.652272 92.7578 0.579527 93.4029 0.511375C99.6437 -0.146399 138.316 -3.61981 169.85 22.6919C174.364 26.4586 181.628 33.2523 188.364 43.6136C212.994 81.4995 213.072 140.177 181.748 172.334Z" fill="url(#paint0_linear)"/>
<path d="M162.653 73.1117L180.615 68.9468C180.615 68.9468 192.625 67.8717 194.249 78.5025C195.872 89.1334 195.402 152.117 194.894 165.107C194.726 169.388 194.747 173.344 195.113 176.793C195.875 183.978 190.246 190.254 182.993 190.38L149.553 190.957L162.653 73.1117Z" fill="url(#paint1_linear)"/>
<path d="M153.097 196.075C153.097 196.075 156.685 145.965 182.207 115.42C182.54 115.021 183.116 115.121 183.292 115.611C186.073 123.349 201.704 173.109 153.097 196.075Z" fill="#BDD0FB"/>
<path d="M181.105 129.961C180.89 132.885 180.465 135.769 179.972 138.649C179.463 141.525 178.865 144.385 178.161 147.221C176.756 152.894 174.999 158.487 172.838 163.931C171.749 166.649 170.593 169.342 169.3 171.972C168.673 173.296 167.974 174.586 167.303 175.888C166.59 177.169 165.895 178.459 165.124 179.708C162.137 184.75 158.638 189.502 154.644 193.779C154.525 193.906 154.325 193.914 154.196 193.795C154.076 193.683 154.063 193.5 154.16 193.372L154.163 193.368C157.718 188.78 160.92 183.957 163.697 178.894C164.413 177.641 165.05 176.344 165.732 175.073C166.365 173.775 167.027 172.493 167.617 171.176C167.913 170.519 168.234 169.872 168.521 169.21L169.395 167.23C169.682 166.567 169.951 165.898 170.229 165.233C170.512 164.569 170.775 163.897 171.034 163.223C171.574 161.885 172.075 160.531 172.582 159.179C173.065 157.818 173.548 156.457 173.999 155.085C174.93 152.35 175.758 149.58 176.556 146.801C177.338 144.018 178.066 141.216 178.718 138.396C179.384 135.581 179.975 132.738 180.477 129.894L180.478 129.884C180.508 129.713 180.673 129.598 180.845 129.629C181.006 129.656 181.116 129.802 181.105 129.961Z" fill="url(#paint2_linear)"/>
<path d="M156.26 190.59C156.26 190.59 182.57 146.514 211.193 145.824C211.702 145.812 212.087 146.277 211.982 146.772C210.764 152.533 202.242 182.692 156.26 190.59Z" fill="#91B3FA"/>
<path d="M205.134 152.817C203.399 154.63 201.613 156.376 199.802 158.103C198.888 158.956 197.973 159.808 197.049 160.651C196.117 161.485 195.195 162.331 194.254 163.154C190.498 166.457 186.625 169.63 182.65 172.67C180.678 174.21 178.634 175.656 176.618 177.138L173.534 179.278C173.018 179.633 172.507 179.994 171.987 180.341L170.413 181.364C166.253 184.152 161.907 186.651 157.53 189.079C157.377 189.164 157.185 189.109 157.099 188.957C157.016 188.807 157.068 188.619 157.215 188.532L157.224 188.527L160.454 186.641L162.068 185.697C162.602 185.375 163.126 185.036 163.655 184.707L166.828 182.729C167.873 182.051 168.907 181.352 169.946 180.666L171.504 179.632L173.037 178.563L176.102 176.421C178.105 174.939 180.135 173.491 182.095 171.951C184.081 170.445 186.023 168.882 187.967 167.323L190.845 164.937L193.688 162.51C194.636 161.7 195.562 160.867 196.5 160.047C197.43 159.216 198.35 158.377 199.27 157.537C201.103 155.851 202.924 154.143 204.673 152.381L204.678 152.376C204.801 152.252 205.001 152.251 205.125 152.374C205.25 152.497 205.252 152.693 205.134 152.817Z" fill="#BDD0FB"/>
<path d="M126.137 73.976C126.137 73.976 158.843 75.7655 180.614 68.9466C180.614 68.9466 166.141 67.9588 166.141 101.24C166.141 126.684 169.93 175.252 166.621 184.471C163.313 193.691 150.943 206.084 133.21 195.433C115.478 184.782 126.137 73.976 126.137 73.976Z" fill="#7D97F4"/>
<path d="M117.442 24.0805C117.442 24.0805 153.528 27.998 158.176 21.9066C158.176 21.9066 154.478 10.9434 143.496 11.6724C132.515 12.4014 117.442 24.0805 117.442 24.0805Z" fill="url(#paint3_linear)"/>
<path d="M0.0791611 36.415C3.22609 71.6353 9.83519 146.132 12.7107 182.422C13.3519 190.512 19.8626 196.902 27.9941 197.422C56.96 199.273 122.148 202.866 147.164 199.524C141.434 196.71 137.824 190.879 137.877 184.516L139.205 21.6759C139.252 15.9221 145.006 11.7871 150.417 13.8064C153.825 15.0783 156.406 17.7882 158.176 21.9072C155.814 15.0522 152.1 10.0374 143.496 11.673C143.496 11.673 59.355 12.5107 18.524 15.0323C7.4302 15.7169 -0.906513 25.3875 0.0791611 36.415Z" fill="#91B3FA"/>
<mask id="mask0" mask-type="alpha" maskUnits="userSpaceOnUse" x="3" y="15" width="137" height="184">
<path d="M20.8938 19.6925L133.955 15.3577C129.292 49.7403 131.26 119.759 133.039 188.763C133.145 192.854 135.553 196.536 139.269 198.285C139.269 198.285 63.8575 199.15 31.4548 196.861C23.8254 196.322 17.6015 190.573 16.4682 183.04C12.0204 153.475 1.37786 77.0996 3.59294 36.6653C4.09961 27.4051 11.5898 20.0494 20.8938 19.6925Z" fill="url(#paint4_linear)"/>
</mask>
<g mask="url(#mask0)">
<path opacity="0.53" d="M20.8938 19.6925L133.955 15.3577C129.292 49.7403 131.26 119.759 133.039 188.763C133.145 192.854 135.553 196.536 139.269 198.285C139.269 198.285 63.8575 199.15 31.4548 196.861C23.8254 196.322 17.6015 190.573 16.4682 183.04C12.0204 153.475 1.37786 77.0996 3.59294 36.6653C4.09961 27.4051 11.5898 20.0494 20.8938 19.6925Z" fill="url(#paint5_linear)"/>
<path d="M19.3975 73.0243L20.7169 85.6369C20.9591 87.9487 22.8705 89.7321 25.2024 89.8209L32.5757 90.1027C35.2352 90.2046 37.4465 88.085 37.4465 85.434V71.8283C37.4465 69.0968 35.1045 66.9482 32.3712 67.1718L23.6785 67.8831C21.0567 68.0983 19.1246 70.4185 19.3975 73.0243Z" fill="url(#paint6_linear)"/>
<path d="M45.3257 69.1366C57.5975 68.7568 104.707 67.2315 116.603 66.8455C118.103 66.7973 119.344 67.9949 119.344 69.4904C119.344 70.9139 118.213 72.0817 116.785 72.1345L45.5541 74.7687C44.1817 74.8193 42.9969 73.8207 42.8208 72.4646L42.7762 72.1215C42.574 70.5709 43.7565 69.1849 45.3257 69.1366Z" fill="url(#paint7_linear)"/>
<path d="M44.5546 85.7641C44.7629 86.1117 45.1427 86.3215 45.5495 86.3131L94.4603 85.2549C95.0747 85.2418 95.566 84.7418 95.566 84.1292V80.9177C95.566 80.2798 95.0339 79.769 94.3935 79.7928L46.8465 81.5632C44.7291 81.6428 43.4697 83.9516 44.5546 85.7641Z" fill="url(#paint8_linear)"/>
<path d="M19.3975 108.03L20.7169 120.642C20.9591 122.954 22.8705 124.737 25.2024 124.826L32.5757 125.108C35.2352 125.21 37.4465 123.09 37.4465 120.439V106.833C37.4465 104.101 35.1045 101.953 32.3712 102.176L23.6785 102.888C21.0567 103.104 19.1246 105.424 19.3975 108.03Z" fill="url(#paint9_linear)"/>
<path d="M45.3257 104.142C57.5975 103.762 104.707 102.237 116.603 101.851C118.103 101.802 119.344 103 119.344 104.496C119.344 105.919 118.213 107.087 116.785 107.14L45.5541 109.773C44.1817 109.824 42.9969 108.825 42.8208 107.469L42.7762 107.126C42.574 105.576 43.7565 104.191 45.3257 104.142Z" fill="url(#paint10_linear)"/>
<path opacity="0.78" d="M44.5546 120.77C44.7629 121.118 45.1427 121.328 45.5495 121.319L94.4603 120.261C95.0747 120.248 95.566 119.748 95.566 119.136V115.925C95.566 115.287 95.0339 114.776 94.3935 114.8L46.8465 116.57C44.7291 116.648 43.4697 118.957 44.5546 120.77Z" fill="white"/>
<path d="M19.3975 143.035L20.7169 155.648C20.9591 157.96 22.8705 159.743 25.2024 159.832L32.5757 160.114C35.2352 160.216 37.4465 158.096 37.4465 155.445V141.839C37.4465 139.107 35.1045 136.958 32.3712 137.182L23.6785 137.893C21.0567 138.109 19.1246 140.429 19.3975 143.035Z" fill="url(#paint11_linear)"/>
<path d="M45.3257 139.148C57.5975 138.768 104.707 137.243 116.603 136.857C118.103 136.809 119.344 138.006 119.344 139.502C119.344 140.925 118.213 142.093 116.785 142.146L45.5541 144.779C44.1817 144.83 42.9969 143.831 42.8208 142.475L42.7762 142.132C42.574 140.582 43.7565 139.196 45.3257 139.148Z" fill="url(#paint12_linear)"/>
<path d="M44.5546 155.775C44.7629 156.123 45.1427 156.333 45.5495 156.324L94.4603 155.266C95.0747 155.253 95.566 154.753 95.566 154.141V150.929C95.566 150.292 95.0339 149.781 94.3935 149.805L46.8465 151.575C44.7291 151.654 43.4697 153.963 44.5546 155.775Z" fill="url(#paint13_linear)"/>
<path d="M81.7288 191.354C81.1706 191.354 80.6124 191.091 80.0219 190.551C77.8545 188.568 77.2948 185.519 77.1425 182.62C76.1423 183.735 75.1189 184.821 74.1071 185.894L73.5474 185.372C74.7352 184.11 75.94 182.832 77.1018 181.512C77.0057 177.541 77.1894 173.528 77.6484 169.58C77.9298 167.16 78.3358 164.599 79.3891 162.263C79.7251 161.518 80.2818 160.45 81.2405 159.783C82.2408 159.086 83.5517 159.01 84.4297 159.597C85.4162 160.257 85.6822 161.509 85.796 162.392C86.4664 167.586 84.4321 172.346 82.6076 175.424C81.2528 177.71 79.6129 179.801 77.876 181.79C77.966 184.758 78.3789 188.009 80.5409 189.987C80.996 190.404 81.3928 190.602 81.7641 190.588C82.3738 190.566 82.8667 189.977 83.2688 189.404C85.0963 186.797 86.518 183.969 87.5121 180.972C87.6282 180.069 87.8811 179.184 88.2663 178.359L88.9875 178.61C88.7784 179.466 88.537 180.31 88.264 181.141C88.1625 181.99 88.1933 182.854 88.3624 183.695C88.4524 184.141 88.8307 185.614 89.9225 185.821C90.7374 185.974 91.5863 185.361 92.5243 183.941L96.3685 178.121L95.8826 180.204C95.7112 180.94 95.4236 182.697 96.4547 183.119C97.0413 183.359 97.6618 183.011 98.3799 182.608C99.0941 182.207 99.8315 181.792 100.67 181.904L101.066 181.957L100.999 182.348C100.959 182.573 100.649 184.543 101.675 184.769C102.145 184.873 102.538 184.548 103.13 184.003C103.595 183.574 104.076 183.132 104.71 182.979L104.891 183.722C104.452 183.828 104.063 184.185 103.652 184.564C103.068 185.103 102.407 185.712 101.51 185.515C100.341 185.258 100.054 183.947 100.181 182.668C99.72 182.734 99.2494 182.998 98.7574 183.275C97.9778 183.712 97.0936 184.208 96.1633 183.826C95.3952 183.512 94.9792 182.752 94.9477 181.665L93.1663 184.361C92.4474 185.45 91.3156 186.865 89.7787 186.573C88.7238 186.373 87.9127 185.353 87.609 183.845C87.5667 183.636 87.5321 183.423 87.5059 183.211C86.5633 185.543 85.357 187.761 83.8977 189.843C83.4172 190.528 82.7437 191.319 81.7918 191.354C81.7718 191.353 81.7503 191.354 81.7288 191.354ZM83.0658 159.963C82.5614 159.963 82.0517 160.151 81.6819 160.409C80.8792 160.968 80.3894 161.914 80.0903 162.576C79.0801 164.817 78.6864 167.31 78.4119 169.668C77.989 173.299 77.8022 176.987 77.8537 180.645C79.3576 178.878 80.7669 177.028 81.9479 175.035C83.7116 172.06 85.6791 167.468 85.0364 162.489C84.8849 161.32 84.5566 160.603 84.003 160.232C83.7178 160.041 83.3926 159.963 83.0658 159.963Z" fill="url(#paint14_linear)"/>
<path opacity="0.78" d="M115.426 53.3771L25.3584 56.0389C22.123 56.1346 19.4059 53.6337 19.2475 50.4137L18.9169 43.7035C18.7539 40.3871 21.3619 37.5852 24.6949 37.4979L115.211 35.1142C118.595 35.0253 121.37 37.7659 121.309 41.1367L121.192 47.569C121.134 50.7269 118.596 53.283 115.426 53.3771Z" fill="white"/>
</g>
<g clip-path="url(#clip1)">
<path d="M17.0751 137C12.8972 137 9.35594 133.888 8.83072 129.754L4.06393 91.7593C3.78541 89.5657 4.39021 87.3959 5.75101 85.6538C7.11181 83.9116 9.07741 82.7951 11.2817 82.5258L175.883 62.0634C176.225 62.0238 176.575 62 176.917 62C181.095 62 184.645 65.1121 185.162 69.2458L189.929 107.233C190.494 111.762 187.255 115.904 182.711 116.466L18.1176 136.937C17.7754 136.976 17.4252 137 17.0751 137ZM176.925 66.395C176.766 66.395 176.599 66.4029 176.432 66.4267L11.8308 86.8891C10.7963 87.0158 9.8732 87.5385 9.23657 88.3541C8.59994 89.1698 8.31345 90.1913 8.44874 91.2208L13.2155 129.208C13.4622 131.148 15.1175 132.605 17.0751 132.605C17.2343 132.605 17.4014 132.597 17.5685 132.573L182.17 112.111C184.302 111.842 185.822 109.901 185.56 107.779L180.793 69.7922C180.546 67.8521 178.883 66.395 176.925 66.395Z" fill="#F91919"/>
<path d="M25.4704 106.774C24.8497 101.856 28.208 97.8648 33.309 97.2312C36.142 96.8828 38.6408 97.6114 40.4154 99.2822L38.2588 101.824C37.0014 100.7 35.5372 100.225 33.8979 100.423C30.8261 100.803 28.9162 103.218 29.3062 106.298C29.6961 109.371 32.1392 111.248 35.2109 110.868C36.8502 110.662 38.1474 109.838 39.0944 108.421L41.808 110.353C40.5029 112.436 38.2588 113.75 35.4019 114.106C30.3248 114.74 26.0832 111.691 25.4704 106.774Z" fill="#F91919"/>
<path d="M54.7236 107.874L47.1079 108.825L46.0972 112.499L42.2058 112.982L47.466 95.7584L51.2142 95.2911L60.5965 110.693L56.6176 111.192L54.7236 107.874ZM53.1638 105.15L49.7817 99.2268L47.9673 105.8L53.1638 105.15Z" fill="#F91919"/>
<path d="M75.2948 92.2899L77.34 108.603L74.2205 108.991L64.8063 100.106L66.0477 110.012L62.2996 110.48L60.2544 94.1667L63.3898 93.7787L72.7881 102.672L71.5467 92.7651L75.2948 92.2899Z" fill="#F91919"/>
<path d="M79.1704 100.098C78.5497 95.1803 81.9079 91.1892 87.0089 90.5557C89.842 90.2073 92.3407 90.9358 94.1153 92.6067L91.9588 95.1487C90.7014 94.0242 89.2372 93.5491 87.5978 93.747C84.5261 94.1271 82.6162 96.5424 83.0061 99.6229C83.396 102.695 85.8391 104.572 88.9109 104.192C90.5502 103.986 91.8473 103.163 92.7943 101.745L95.508 103.677C94.2029 105.76 91.9588 107.075 89.1019 107.431C84.0247 108.064 79.7911 105.016 79.1704 100.098Z" fill="#F91919"/>
<path d="M110.708 101.381L111.09 104.414L98.3967 105.99L96.3516 89.6766L108.734 88.1324L109.116 91.1654L100.498 92.2344L100.943 95.7742L108.559 94.8239L108.925 97.7618L101.317 98.7121L101.795 102.489L110.708 101.381Z" fill="#F91919"/>
<path d="M112.06 87.7206L115.856 87.2455L117.519 100.486L125.74 99.4644L126.13 102.545L114.113 104.041L112.06 87.7206Z" fill="#F91919"/>
<path d="M126.209 85.9627L130.005 85.4875L131.669 98.728L139.889 97.7064L140.279 100.787L128.263 102.284L126.209 85.9627Z" fill="#F91919"/>
<path d="M154.715 95.9089L155.097 98.9418L142.404 100.518L140.359 84.2047L152.749 82.6605L153.131 85.6935L144.513 86.7625L144.958 90.3023L152.574 89.352L152.94 92.2899L145.324 93.2402L145.802 97.0175L154.715 95.9089Z" fill="#F91919"/>
<path d="M156.067 82.2487L163.516 81.3222C168.88 80.657 172.962 83.4128 173.583 88.3542C174.203 93.2956 170.933 96.9699 165.569 97.6351L158.121 98.5616L156.067 82.2487ZM164.988 94.5626C168.243 94.1587 170.129 91.9573 169.739 88.8372C169.349 85.7092 166.97 84.0463 163.715 84.4501L160.245 84.8778L161.519 94.9902L164.988 94.5626Z" fill="#F91919"/>
</g>
</g>
<defs>
<linearGradient id="paint0_linear" x1="224.616" y1="233.063" x2="82.4571" y2="81.1172" gradientUnits="userSpaceOnUse">
<stop stop-color="#DAE3FE"/>
<stop offset="1" stop-color="#E9EFFD"/>
</linearGradient>
<linearGradient id="paint1_linear" x1="149.553" y1="129.937" x2="195.372" y2="129.937" gradientUnits="userSpaceOnUse">
<stop stop-color="#4F52FF"/>
<stop offset="1" stop-color="#4042E2"/>
</linearGradient>
<linearGradient id="paint2_linear" x1="154.095" y1="161.751" x2="181.106" y2="161.751" gradientUnits="userSpaceOnUse">
<stop stop-color="#DAE3FE"/>
<stop offset="1" stop-color="#E9EFFD"/>
</linearGradient>
<linearGradient id="paint3_linear" x1="155.884" y1="60.3331" x2="90.99" y2="-75.1074" gradientUnits="userSpaceOnUse">
<stop stop-color="#4042E2"/>
<stop offset="1" stop-color="#4F52FF"/>
</linearGradient>
<linearGradient id="paint4_linear" x1="122.4" y1="49.8898" x2="-50.8209" y2="272.46" gradientUnits="userSpaceOnUse">
<stop stop-color="white"/>
<stop offset="1"/>
</linearGradient>
<linearGradient id="paint5_linear" x1="122.4" y1="49.8898" x2="-50.8209" y2="272.46" gradientUnits="userSpaceOnUse">
<stop stop-color="white"/>
<stop offset="1" stop-color="white"/>
</linearGradient>
<linearGradient id="paint6_linear" x1="19.3717" y1="78.6315" x2="37.4467" y2="78.6315" gradientUnits="userSpaceOnUse">
<stop stop-color="#DAE3FE"/>
<stop offset="1" stop-color="#E9EFFD"/>
</linearGradient>
<linearGradient id="paint7_linear" x1="42.7533" y1="70.8075" x2="119.343" y2="70.8075" gradientUnits="userSpaceOnUse">
<stop stop-color="#DAE3FE"/>
<stop offset="1" stop-color="#E9EFFD"/>
</linearGradient>
<linearGradient id="paint8_linear" x1="44.1573" y1="83.053" x2="95.5666" y2="83.053" gradientUnits="userSpaceOnUse">
<stop stop-color="#DAE3FE"/>
<stop offset="1" stop-color="#E9EFFD"/>
</linearGradient>
<linearGradient id="paint9_linear" x1="19.3717" y1="113.637" x2="37.4467" y2="113.637" gradientUnits="userSpaceOnUse">
<stop stop-color="#DAE3FE"/>
<stop offset="1" stop-color="#E9EFFD"/>
</linearGradient>
<linearGradient id="paint10_linear" x1="42.7533" y1="105.813" x2="119.343" y2="105.813" gradientUnits="userSpaceOnUse">
<stop stop-color="#DAE3FE"/>
<stop offset="1" stop-color="#E9EFFD"/>
</linearGradient>
<linearGradient id="paint11_linear" x1="19.3717" y1="148.642" x2="37.4467" y2="148.642" gradientUnits="userSpaceOnUse">
<stop stop-color="#DAE3FE"/>
<stop offset="1" stop-color="#E9EFFD"/>
</linearGradient>
<linearGradient id="paint12_linear" x1="42.7533" y1="140.819" x2="119.343" y2="140.819" gradientUnits="userSpaceOnUse">
<stop stop-color="#DAE3FE"/>
<stop offset="1" stop-color="#E9EFFD"/>
</linearGradient>
<linearGradient id="paint13_linear" x1="44.1573" y1="153.064" x2="95.5666" y2="153.064" gradientUnits="userSpaceOnUse">
<stop stop-color="#DAE3FE"/>
<stop offset="1" stop-color="#E9EFFD"/>
</linearGradient>
<linearGradient id="paint14_linear" x1="104.64" y1="141.096" x2="80.7448" y2="202.523" gradientUnits="userSpaceOnUse">
<stop stop-color="#09005D"/>
<stop offset="1" stop-color="#1A0F91"/>
</linearGradient>
<clipPath id="clip0">
<rect width="212" height="211" fill="white"/>
</clipPath>
<clipPath id="clip1">
<rect width="186" height="75" fill="white" transform="translate(4 62)"/>
</clipPath>
</defs>
</svg>
