<svg width="515" height="255" viewBox="0 0 515 255" fill="none" xmlns="http://www.w3.org/2000/svg">
<path d="M133.409 123.497C129.67 129.874 125.235 134.859 126.536 142.427C127.489 147.998 129.23 150.601 127.324 156.648C125.822 161.449 122.724 167.204 118.49 171.052H99.9059C98.458 168.083 98.9896 164.143 97.1751 160.79C93.3996 153.844 85.317 150.252 81.7614 142.574C80.4418 139.715 79.507 135.793 79.5987 132.348C79.727 127.07 83.3742 125.293 84.4922 121.444C86.1234 115.818 77.8942 111.127 79.3054 103.082C80.4967 96.3383 82.5128 95.6052 87.1681 91.6102C88.9092 90.1258 89.5874 87.6702 89.3858 85.3978C88.7076 77.8843 85.6285 69.876 87.5163 62.3258C89.4407 54.629 98.8246 51.2021 106.156 53.4378C116.804 56.6631 114.751 64.7448 116.493 73.3578C118.949 85.5444 135.187 87.2487 138.688 98.8489C141.254 107.315 137.661 116.24 133.409 123.497Z" fill="#03B0A9"/>
<path opacity="0.3" d="M111.599 171.07H109.162C113.139 139.752 111.453 108.25 103.407 77.6826C103.004 76.1799 105.368 75.7034 105.753 77.2062C113.854 107.627 116.108 139.862 111.599 171.07Z" fill="white"/>
<path d="M116.089 188.535C116.071 188.608 116.052 188.681 116.034 188.736C113.633 196.69 113.248 204.808 109.601 212.578C108.428 215.089 106.687 219.469 104.506 221.888H76.4092C70.8009 217.013 66.5672 210.636 64.8444 203.599C63.4148 197.734 63.3598 191.394 60.4273 186.116C55.8454 177.906 45.8567 174.809 37.1143 171.364C28.3719 167.918 18.8781 161.816 18.4016 152.433C17.9068 142.427 28.1887 133.924 26.7224 124.01C25.9527 118.787 22.0122 114.591 20.326 109.569C17.9251 102.422 20.8392 93.846 27.089 89.6311C33.3388 85.4162 42.3744 85.9109 48.1294 90.8039C56.047 97.5478 56.9267 110.302 65.2842 116.515C73.2202 122.416 85.8297 120.73 91.9146 128.537C99.2824 137.993 91.3464 154.522 100.272 162.512C103.663 165.536 108.575 166.269 112.094 169.146C117.702 173.746 117.977 182.084 116.089 188.535Z" fill="url(#paint0_linear)"/>
<path opacity="0.3" d="M88.873 221.888H86.8386C79.9106 186.721 67.0995 152.836 49.0465 121.866C48.3501 120.656 50.2012 119.539 50.916 120.748C69.2072 152.067 82.055 186.281 88.873 221.888Z" fill="white"/>
<path d="M108.574 192.237C108.849 194.124 109.362 195.847 110.058 197.386H138.723C141.729 191.43 140.519 184.192 150.086 181.076C154.357 179.684 158.151 179.28 161.358 178.034C165.042 176.623 167.956 174.094 169.99 167.717C173.473 156.795 164.437 149.886 167.241 140.283C169.514 132.477 177.67 128.958 171.658 119.887C167.645 113.803 159.727 108.525 152.139 110.211C142.884 112.263 143.58 121.188 137.202 126.136C131.795 130.332 125.655 127.51 119.919 130.461C108.024 136.563 118.398 144.535 114.237 153.258C113.101 155.622 110.645 156.978 108.83 158.884C101.719 166.342 107.218 183.184 108.574 192.237Z" fill="url(#paint1_linear)"/>
<path opacity="0.3" d="M121.238 197.386H123.419C124.592 186.574 128.148 176.275 133.811 166.856C134.507 165.701 132.785 164.528 132.07 165.683C126.058 175.285 122.411 186.153 121.238 197.386Z" fill="white"/>
<path d="M130.073 239.114H75.7675C69.7559 239.114 64.4775 235.155 62.7913 229.401L54.6538 201.674C54.0306 199.53 55.6435 197.368 57.8795 197.368H147.979C150.215 197.368 151.828 199.53 151.205 201.674L143.067 229.401C141.363 235.174 136.066 239.114 130.073 239.114Z" fill="url(#paint2_linear)"/>
<path d="M352.519 161.615C349.256 154.559 348.193 145.47 353.27 139.55C356.551 135.72 361.793 133.961 364.908 129.984C373.119 119.502 361.224 102.954 367.456 91.1706C372.588 81.4579 386.718 80.8532 394.233 72.8449C402.151 64.4334 400.629 50.3043 407.997 41.3796C413.33 34.9107 423.118 32.6016 430.779 36.0102C438.44 39.4188 443.278 48.2335 442.05 56.5167C441.189 62.3259 437.707 67.677 437.871 73.5596C438.183 84.7016 451.104 91.9952 452.515 103.046C453.835 113.4 444.634 121.939 435.745 127.4C426.838 132.862 416.538 138.194 413.111 148.072C410.911 154.413 412.103 161.358 411.681 168.047C410.6 185.09 396.506 201.106 379.9 205.046C368.189 207.814 366.338 203.086 365.183 192.732C363.735 180.233 357.705 172.812 352.519 161.615Z" fill="url(#paint3_linear)"/>
<path opacity="0.3" d="M375.923 184.008C381.898 150.381 393.609 117.963 410.507 88.2749C411.149 87.1387 412.927 88.165 412.267 89.3012C395.515 118.842 383.804 151.095 377.737 184.503C377.536 185.694 375.721 185.2 375.923 184.008Z" fill="white"/>
<path d="M410.893 208.785C413.715 208.034 417.069 206.384 419.47 204.277C423.154 201.051 422.256 197.405 424.345 194.344C427.406 189.836 435.617 192.933 440.51 187.161C444.304 182.707 446.009 176.862 449.179 171.95C453.395 165.445 460.103 160.753 463.86 153.954C467.617 147.174 466.481 136.435 459.003 134.328C451.434 132.183 445.624 139.844 439.686 143.032C429.532 148.493 418.7 137.919 408.363 142.299C400.812 145.488 396.56 153.331 393.903 160.68C391.575 167.112 390.64 173.233 384.464 176.788C379.918 179.409 377.041 179.702 373.852 184.65C369.197 191.815 365.403 204.735 373.54 210.966C380.138 216.024 383.163 209.701 388.734 208.583C395.974 207.154 403.305 210.801 410.893 208.785Z" fill="url(#paint4_linear)"/>
<path opacity="0.3" d="M371.709 206.824C388.387 186.721 409.519 170.228 432.759 158.389C433.895 157.803 434.885 159.507 433.749 160.094C410.472 172.024 390.147 188.425 373.102 208.235C372.277 209.188 370.903 207.795 371.709 206.824Z" fill="white"/>
<path d="M445.33 254.452H407.226C406.401 254.452 405.705 253.829 405.632 253.005L397.97 171.419C397.879 170.484 398.63 169.659 399.565 169.659H453.009C453.962 169.659 454.695 170.466 454.604 171.419L446.943 253.005C446.851 253.811 446.154 254.452 445.33 254.452Z" fill="url(#paint5_linear)"/>
<path d="M449.344 232.883H403.231C402.516 232.883 401.93 232.333 401.893 231.637L398.521 197.441C398.448 196.635 399.071 195.92 399.896 195.92H452.698C453.504 195.92 454.146 196.616 454.073 197.441L450.7 231.637C450.627 232.333 450.041 232.883 449.344 232.883Z" fill="#8A88F3"/>
<path d="M455.557 171.803H396.982C396.12 171.803 395.497 170.96 395.754 170.136L396.798 166.746C396.963 166.196 397.458 165.829 398.026 165.829H454.513C455.081 165.829 455.576 166.196 455.741 166.746L456.785 170.136C457.06 170.979 456.437 171.803 455.557 171.803Z" fill="#E6E6E6"/>
<path d="M448.977 157.711H403.762C401.985 157.711 400.537 159.159 400.537 160.936V165.848H452.185V160.936C452.203 159.159 450.755 157.711 448.977 157.711Z" fill="white"/>
<path d="M378.709 223.684H139.549V57.0664C139.549 52.6132 143.159 49.0031 147.613 49.0031H370.663C375.116 49.0031 378.727 52.6132 378.727 57.0664V223.684H378.709Z" fill="url(#paint6_linear)"/>
<path d="M373.082 243.567H145.193C134.16 243.567 125.216 234.624 125.216 223.592C125.216 221.649 126.792 220.073 128.735 220.073H389.558C391.501 220.073 393.077 221.649 393.077 223.592C393.059 234.624 384.115 243.567 373.082 243.567Z" fill="url(#paint7_linear)"/>
<path d="M376.436 62.3259H141.821V220.073H376.436V62.3259Z" fill="white"/>
<g opacity="0.5">
<path opacity="0.5" d="M390.53 220.092H128.716V221.668H390.53V220.092Z" fill="white"/>
</g>
<path d="M277.52 57.7444H240.736C239.435 57.7444 238.39 56.6999 238.39 55.3987C238.39 54.0976 239.435 53.053 240.736 53.053H277.52C278.822 53.053 279.866 54.0976 279.866 55.3987C279.866 56.6999 278.822 57.7444 277.52 57.7444Z" fill="#EAF4FC"/>
<path d="M352.921 83.0887H162.257V201.399H352.921V83.0887Z" fill="#E6E6E6"/>
<path d="M259.486 138.909C258.753 138.909 258.001 138.872 257.268 138.799C251.477 138.212 246.253 135.409 242.551 130.901C238.867 126.392 237.162 120.711 237.731 114.921C238.317 109.13 241.121 103.907 245.63 100.205C250.139 96.5032 255.82 94.8172 261.612 95.3853C273.58 96.5948 282.341 107.297 281.131 119.264C280.544 125.055 277.74 130.277 273.232 133.979C269.31 137.186 264.489 138.909 259.486 138.909ZM259.412 103.852C256.37 103.852 253.456 104.896 251.055 106.839C248.324 109.075 246.62 112.245 246.271 115.764C245.923 119.282 246.95 122.727 249.186 125.458C251.422 128.188 254.592 129.893 258.111 130.241C261.612 130.589 265.076 129.563 267.807 127.327C270.537 125.091 272.242 121.921 272.59 118.402C273.323 111.145 268.008 104.64 260.75 103.925C260.311 103.888 259.852 103.852 259.412 103.852Z" fill="url(#paint8_linear)"/>
<path d="M282.854 184.008L225.378 178.236C220.521 177.741 216.984 173.416 217.479 168.578L222.134 122.214C222.629 117.358 226.954 113.821 231.793 114.316L289.269 120.088C294.126 120.583 297.663 124.908 297.168 129.746L292.513 176.11C292.036 180.966 287.711 184.503 282.854 184.008Z" fill="url(#paint9_linear)"/>
<path d="M257.782 156.465C264.219 156.465 269.438 151.247 269.438 144.81C269.438 138.373 264.219 133.155 257.782 133.155C251.344 133.155 246.125 138.373 246.125 144.81C246.125 151.247 251.344 156.465 257.782 156.465Z" fill="url(#paint10_linear)"/>
<path d="M257.562 146.954C259.688 147.174 261.246 149.08 261.044 151.205L259.926 162.366C259.707 164.492 257.8 166.049 255.674 165.848C253.548 165.628 251.991 163.722 252.192 161.596L253.31 150.436C253.53 148.292 255.418 146.734 257.562 146.954Z" fill="url(#paint11_linear)"/>
<path d="M39.4221 148.951C38.8723 148.951 38.4141 148.512 38.4141 147.943C38.4141 144.773 35.8299 142.189 32.6592 142.189C32.1093 142.189 31.6511 141.749 31.6511 141.181C31.6511 140.631 32.091 140.173 32.6592 140.173C35.8299 140.173 38.4141 137.589 38.4141 134.419C38.4141 133.869 38.854 133.411 39.4221 133.411C39.9903 133.411 40.4302 133.851 40.4302 134.419C40.4302 137.589 43.0144 140.173 46.1851 140.173C46.7349 140.173 47.1931 140.613 47.1931 141.181C47.1931 141.731 46.7533 142.189 46.1851 142.189C43.0144 142.189 40.4302 144.773 40.4302 147.943C40.4302 148.493 39.972 148.951 39.4221 148.951Z" fill="white"/>
<path d="M204.263 23.2736C203.713 23.2736 203.255 22.8338 203.255 22.2657C203.255 19.0954 200.67 16.5115 197.5 16.5115C196.95 16.5115 196.492 16.0717 196.492 15.5036C196.492 14.9355 196.932 14.4956 197.5 14.4956C200.67 14.4956 203.255 11.9117 203.255 8.74137C203.255 8.1916 203.695 7.73346 204.263 7.73346C204.813 7.73346 205.271 8.17327 205.271 8.74137C205.271 11.9117 207.855 14.4956 211.026 14.4956C211.576 14.4956 212.034 14.9355 212.034 15.5036C212.034 16.0717 211.594 16.5115 211.026 16.5115C207.855 16.5115 205.271 19.0954 205.271 22.2657C205.271 22.8338 204.813 23.2736 204.263 23.2736Z" fill="#F9C649"/>
<path d="M426.378 88.5497C425.828 88.5497 425.37 88.1099 425.37 87.5418C425.37 84.3714 422.786 81.7875 419.615 81.7875C419.065 81.7875 418.607 81.3477 418.607 80.7796C418.607 80.2115 419.047 79.7717 419.615 79.7717C422.786 79.7717 425.37 77.1878 425.37 74.0174C425.37 73.4677 425.81 73.0095 426.378 73.0095C426.928 73.0095 427.386 73.4493 427.386 74.0174C427.386 77.1878 429.97 79.7717 433.141 79.7717C433.691 79.7717 434.149 80.2115 434.149 80.7796C434.149 81.3477 433.709 81.7875 433.141 81.7875C429.97 81.7875 427.386 84.3714 427.386 87.5418C427.368 88.0916 426.928 88.5497 426.378 88.5497Z" fill="white"/>
<path d="M226.514 141.749C225.964 141.749 225.506 141.309 225.506 140.741C225.506 137.571 222.921 134.987 219.751 134.987C219.201 134.987 218.743 134.547 218.743 133.979C218.743 133.411 219.183 132.971 219.751 132.971C222.921 132.971 225.506 130.387 225.506 127.217C225.506 126.667 225.946 126.209 226.514 126.209C227.082 126.209 227.522 126.649 227.522 127.217C227.522 130.387 230.106 132.971 233.277 132.971C233.826 132.971 234.285 133.411 234.285 133.979C234.285 134.547 233.845 134.987 233.277 134.987C230.106 134.987 227.522 137.571 227.522 140.741C227.503 141.291 227.064 141.749 226.514 141.749Z" fill="white"/>
<path d="M15.523 246.865C14.9731 246.865 14.5149 246.426 14.5149 245.857C14.5149 242.687 11.9307 240.103 8.75998 240.103C8.21015 240.103 7.75195 239.663 7.75195 239.095C7.75195 238.527 8.19182 238.087 8.75998 238.087C11.9307 238.087 14.5149 235.503 14.5149 232.333C14.5149 231.783 14.9548 231.325 15.523 231.325C16.0728 231.325 16.531 231.765 16.531 232.333C16.531 235.503 19.1152 238.087 22.2859 238.087C22.8358 238.087 23.294 238.527 23.294 239.095C23.294 239.663 22.8541 240.103 22.2859 240.103C19.1152 240.103 16.531 242.687 16.531 245.857C16.5127 246.426 16.0728 246.865 15.523 246.865Z" fill="#F9C649"/>
<path d="M7.77101 15.5402C7.22117 15.5402 6.76297 15.1004 6.76297 14.5323C6.76297 11.3619 4.17875 8.77801 1.00803 8.77801C0.458196 8.77801 0 8.33819 0 7.77009C0 7.22032 0.439869 6.76218 1.00803 6.76218C4.17875 6.76218 6.76297 4.17826 6.76297 1.00792C6.76297 0.458144 7.20285 0 7.77101 0C8.32084 0 8.77904 0.439819 8.77904 1.00792C8.77904 4.17826 11.3633 6.76218 14.534 6.76218C15.0838 6.76218 15.542 7.202 15.542 7.77009C15.542 8.31987 15.1021 8.77801 14.534 8.77801C11.3633 8.77801 8.77904 11.3619 8.77904 14.5323C8.76071 15.082 8.32084 15.5402 7.77101 15.5402Z" fill="#F9C649"/>
<path d="M412.413 203.672C411.863 203.672 411.405 203.232 411.405 202.664C411.405 199.494 408.82 196.91 405.65 196.91C405.1 196.91 404.642 196.47 404.642 195.902C404.642 195.334 405.081 194.894 405.65 194.894C408.82 194.894 411.405 192.31 411.405 189.14C411.405 188.59 411.844 188.132 412.413 188.132C412.962 188.132 413.421 188.571 413.421 189.14C413.421 192.31 416.005 194.894 419.176 194.894C419.725 194.894 420.184 195.334 420.184 195.902C420.184 196.47 419.744 196.91 419.176 196.91C416.005 196.91 413.421 199.494 413.421 202.664C413.402 203.214 412.962 203.672 412.413 203.672Z" fill="white"/>
<path d="M327.811 56.7547C327.261 56.7547 326.803 56.3149 326.803 55.7468C326.803 52.5765 324.219 49.9925 321.048 49.9925C320.498 49.9925 320.04 49.5527 320.04 48.9846C320.04 48.4349 320.48 47.9767 321.048 47.9767C324.219 47.9767 326.803 45.3928 326.803 42.2225C326.803 41.6727 327.243 41.2145 327.811 41.2145C328.379 41.2145 328.819 41.6544 328.819 42.2225C328.819 45.3928 331.403 47.9767 334.574 47.9767C335.124 47.9767 335.582 48.4165 335.582 48.9846C335.582 49.5344 335.142 49.9925 334.574 49.9925C331.403 49.9925 328.819 52.5765 328.819 55.7468C328.801 56.2966 328.361 56.7547 327.811 56.7547Z" fill="white"/>
<path d="M506.49 109.881C505.941 109.881 505.482 109.441 505.482 108.873C505.482 105.703 502.898 103.119 499.727 103.119C499.178 103.119 498.719 102.679 498.719 102.111C498.719 101.561 499.159 101.103 499.727 101.103C502.898 101.103 505.482 98.519 505.482 95.3487C505.482 94.7989 505.922 94.3408 506.49 94.3408C507.04 94.3408 507.498 94.7806 507.498 95.3487C507.498 98.519 510.083 101.103 513.253 101.103C513.803 101.103 514.261 101.543 514.261 102.111C514.261 102.661 513.822 103.119 513.253 103.119C510.083 103.119 507.498 105.703 507.498 108.873C507.48 109.441 507.04 109.881 506.49 109.881Z" fill="#F9C649"/>
<path d="M500.771 235.558C500.221 235.558 499.763 235.119 499.763 234.551C499.763 231.38 497.179 228.796 494.008 228.796C493.458 228.796 493 228.356 493 227.788C493 227.22 493.44 226.78 494.008 226.78C497.179 226.78 499.763 224.196 499.763 221.026C499.763 220.476 500.203 220.018 500.771 220.018C501.321 220.018 501.779 220.458 501.779 221.026C501.779 224.196 504.364 226.78 507.534 226.78C508.084 226.78 508.542 227.22 508.542 227.788C508.542 228.356 508.102 228.796 507.534 228.796C504.364 228.796 501.779 231.38 501.779 234.551C501.761 235.119 501.321 235.558 500.771 235.558Z" fill="#F9C649"/>
<defs>
<linearGradient id="paint0_linear" x1="22.0909" y1="154.331" x2="117.141" y2="154.331" gradientUnits="userSpaceOnUse">
<stop stop-color="#036BB3"/>
<stop offset="1" stop-color="#03B0A9"/>
</linearGradient>
<linearGradient id="paint1_linear" x1="139.547" y1="109.893" x2="139.547" y2="197.386" gradientUnits="userSpaceOnUse">
<stop offset="0.9999" stop-color="#34B780"/>
<stop offset="1" stop-color="#0865B7"/>
</linearGradient>
<linearGradient id="paint2_linear" x1="54.516" y1="218.249" x2="151.33" y2="218.249" gradientUnits="userSpaceOnUse">
<stop stop-color="#FBC733"/>
<stop offset="1" stop-color="#FB7F37"/>
</linearGradient>
<linearGradient id="paint3_linear" x1="349.768" y1="120.152" x2="452.619" y2="120.152" gradientUnits="userSpaceOnUse">
<stop stop-color="#03B0A9"/>
<stop offset="1" stop-color="#53BC67"/>
</linearGradient>
<linearGradient id="paint4_linear" x1="372.428" y1="173.428" x2="465.948" y2="173.428" gradientUnits="userSpaceOnUse">
<stop stop-color="#036BB3"/>
<stop offset="1" stop-color="#03B0A9"/>
</linearGradient>
<linearGradient id="paint5_linear" x1="397.948" y1="212.055" x2="454.6" y2="212.055" gradientUnits="userSpaceOnUse">
<stop stop-color="#FBC733"/>
<stop offset="1" stop-color="#FB7F37"/>
</linearGradient>
<linearGradient id="paint6_linear" x1="148.526" y1="136.343" x2="378.727" y2="136.343" gradientUnits="userSpaceOnUse">
<stop stop-color="#036BB3"/>
<stop offset="1" stop-color="#03B0A9"/>
</linearGradient>
<linearGradient id="paint7_linear" x1="233.189" y1="193.717" x2="254.344" y2="220.416" gradientUnits="userSpaceOnUse">
<stop stop-color="#553D93"/>
<stop offset="1" stop-color="#2B1E6E"/>
</linearGradient>
<linearGradient id="paint8_linear" x1="242.918" y1="102.832" x2="275.939" y2="131.36" gradientUnits="userSpaceOnUse">
<stop stop-color="#FBC733"/>
<stop offset="1" stop-color="#FB7F37"/>
</linearGradient>
<linearGradient id="paint9_linear" x1="240.759" y1="134.84" x2="285.029" y2="173.088" gradientUnits="userSpaceOnUse">
<stop stop-color="#FBC733"/>
<stop offset="1" stop-color="#FB7F37"/>
</linearGradient>
<linearGradient id="paint10_linear" x1="255.982" y1="137.274" x2="261.164" y2="159.039" gradientUnits="userSpaceOnUse">
<stop stop-color="#553D93"/>
<stop offset="1" stop-color="#2B1E6E"/>
</linearGradient>
<linearGradient id="paint11_linear" x1="252.268" y1="138.159" x2="257.45" y2="159.924" gradientUnits="userSpaceOnUse">
<stop stop-color="#553D93"/>
<stop offset="1" stop-color="#2B1E6E"/>
</linearGradient>
</defs>
</svg>
