<svg width="330" height="200" viewBox="0 0 330 200" fill="none" xmlns="http://www.w3.org/2000/svg">
<path d="M202.234 5.71143C195.053 5.71007 188.033 7.8377 182.061 11.8254C176.089 15.813 171.434 21.4817 168.683 28.1148C165.932 34.7479 165.209 42.0477 166.607 49.0913C168.004 56.135 171.458 62.6064 176.532 67.6874C181.606 72.7684 188.073 76.2309 195.115 77.6374C202.157 79.0438 209.457 78.3309 216.094 75.5888C222.731 72.8468 228.406 68.1987 232.401 62.232C236.397 56.2654 238.534 49.2481 238.542 42.0672C238.542 32.4334 234.718 23.1934 227.91 16.3767C221.103 9.5601 211.868 5.72415 202.234 5.71143ZM202.234 77.1334C195.287 77.1347 188.495 75.0753 182.719 71.2156C176.942 67.3559 172.441 61.8694 169.783 55.4505C167.126 49.0315 166.432 41.9685 167.79 35.1553C169.148 28.342 172.497 22.0847 177.412 17.1751C182.328 12.2656 188.589 8.92438 195.404 7.57436C202.219 6.22434 209.281 6.92617 215.697 9.59105C222.112 12.2559 227.594 16.7641 231.446 22.545C235.299 28.326 237.351 35.1199 237.341 42.0672C237.323 51.3701 233.618 60.2865 227.037 66.8621C220.456 73.4377 211.537 77.1362 202.234 77.1471V77.1334Z" fill="#FF6D34"/>
<path d="M306.253 62.934L304.579 59.2778L302.899 62.934L299.661 64.5529L302.899 66.1649L304.579 69.821L306.253 66.1649L309.491 64.5529L306.253 62.934Z" fill="#FFC107"/>
<path d="M310.54 128.175L309.49 125.884L308.441 128.175L306.41 129.191L308.441 130.206L309.49 132.49L310.54 130.206L312.57 129.191L310.54 128.175Z" fill="#FFC107"/>
<path d="M77.4849 173.483L76.4354 171.199L75.3791 173.483L73.3555 174.498L75.3791 175.513L76.4354 177.805L77.4849 175.513L79.5154 174.498L77.4849 173.483Z" fill="#FFC107"/>
<path d="M324.622 106.52L321.837 100.456L319.052 106.52L313.674 109.209L319.052 111.898L321.837 117.962L324.622 111.898L330 109.209L324.622 106.52Z" fill="#FFC107"/>
<path d="M40.3615 53.1113L37.5765 47.0405L34.7915 53.1113L29.4136 55.7933L34.7915 58.4823L37.5765 64.553L40.3615 58.4823L45.7394 55.7933L40.3615 53.1113Z" fill="#FFC107"/>
<path d="M18.9529 92.2655L17.2792 88.6094L15.5986 92.2655L12.3608 93.8775L15.5986 95.4964L17.2792 99.1525L18.9529 95.4964L22.1906 93.8775L18.9529 92.2655Z" fill="#FFC107"/>
<path d="M78.8023 17.4483L77.7528 15.1572L76.6964 17.4483L74.6729 18.4635L76.6964 19.4788L77.7528 21.763L78.8023 19.4788L80.8259 18.4635L78.8023 17.4483Z" fill="#FFC107"/>
<path d="M267.317 14.7594C267.724 15.2332 267.927 15.848 267.884 16.4707C267.84 17.0934 267.553 17.6738 267.084 18.0863L251.163 34.0074C250.973 34.2623 250.73 34.4734 250.452 34.6263C250.173 34.7792 249.864 34.8702 249.547 34.8932C249.23 34.9163 248.911 34.8707 248.613 34.7598C248.315 34.6488 248.045 34.475 247.82 34.2501C247.595 34.0252 247.421 33.7546 247.31 33.4566C247.199 33.1585 247.154 32.8401 247.177 32.5229C247.2 32.2058 247.291 31.8973 247.444 31.6184C247.597 31.3395 247.808 31.0968 248.063 30.9068L263.984 14.9857C264.399 14.5193 264.981 14.2343 265.604 14.192C266.228 14.1497 266.843 14.3534 267.317 14.7594Z" fill="#8A88F3"/>
<path d="M265.445 0.477543C265.773 0.859191 265.938 1.35462 265.903 1.85659C265.868 2.35856 265.638 2.82668 265.26 3.15964L252.399 16.0008C252.246 16.208 252.05 16.3798 251.824 16.5044C251.599 16.629 251.349 16.7034 251.092 16.7227C250.835 16.7419 250.577 16.7054 250.335 16.6158C250.094 16.5261 249.875 16.3854 249.692 16.2033C249.51 16.0211 249.369 15.8017 249.28 15.5602C249.19 15.3187 249.154 15.0606 249.173 14.8037C249.192 14.5468 249.267 14.297 249.391 14.0715C249.516 13.846 249.688 13.6501 249.895 13.497L262.757 0.635311C263.094 0.25997 263.565 0.0328331 264.069 0.00328864C264.572 -0.0262558 265.067 0.144184 265.445 0.477543Z" fill="#8A88F3"/>
<path d="M109.438 179.259C109.844 179.733 110.047 180.347 110.004 180.97C109.96 181.593 109.673 182.173 109.204 182.586L93.2901 198.466C93.1 198.721 92.8574 198.932 92.5785 199.085C92.2996 199.237 91.9911 199.329 91.6739 199.352C91.3568 199.375 91.0384 199.329 90.7403 199.218C90.4423 199.107 90.1717 198.933 89.9468 198.708C89.7219 198.484 89.5481 198.213 89.4371 197.915C89.3261 197.617 89.2806 197.298 89.3037 196.981C89.3267 196.664 89.4177 196.356 89.5706 196.077C89.7235 195.798 89.9346 195.555 90.1895 195.365L106.117 179.444C106.537 178.986 107.119 178.71 107.74 178.676C108.36 178.641 108.969 178.85 109.438 179.259Z" fill="#8A88F3"/>
<path d="M107.572 164.964C107.9 165.345 108.064 165.841 108.03 166.343C107.995 166.845 107.764 167.313 107.387 167.646L94.525 180.507C94.372 180.715 94.176 180.887 93.9505 181.011C93.725 181.136 93.4753 181.21 93.2184 181.229C92.9614 181.249 92.7034 181.212 92.4619 181.122C92.2203 181.033 92.001 180.892 91.8188 180.71C91.6366 180.528 91.4959 180.308 91.4063 180.067C91.3167 179.825 91.2802 179.567 91.2994 179.31C91.3186 179.053 91.3931 178.804 91.5177 178.578C91.6422 178.353 91.814 178.157 92.0213 178.004L104.883 165.142C105.217 164.764 105.687 164.533 106.191 164.499C106.694 164.466 107.191 164.633 107.572 164.964Z" fill="#8A88F3"/>
<path opacity="0.2" d="M62.4561 113.976L82.5409 34.2817H268.106V94.3305H81.951L62.4561 113.976Z" fill="#0367B4"/>
<path d="M53.8677 122.564L73.9525 42.8696H259.518V102.918H73.3557L53.8677 122.564Z" fill="#EAF4FC"/>
<path d="M73.3555 102.918L259.518 42.8696V102.918H73.3555Z" fill="white"/>
<path d="M111.151 78.464C109.005 78.464 107.072 78.0193 105.351 77.13C103.63 76.2213 102.277 74.9647 101.291 73.36C100.324 71.736 99.841 69.8993 99.841 67.85C99.841 65.8007 100.324 63.9737 101.291 62.369C102.277 60.745 103.63 59.4883 105.351 58.599C107.072 57.6903 109.005 57.236 111.151 57.236C113.123 57.236 114.882 57.584 116.429 58.28C117.976 58.976 119.252 59.9813 120.257 61.296L115.936 65.153C114.679 63.5677 113.2 62.775 111.499 62.775C110.068 62.775 108.918 63.239 108.048 64.167C107.178 65.0757 106.743 66.3033 106.743 67.85C106.743 69.3967 107.178 70.634 108.048 71.562C108.918 72.4707 110.068 72.925 111.499 72.925C113.2 72.925 114.679 72.1323 115.936 70.547L120.257 74.404C119.252 75.7187 117.976 76.724 116.429 77.42C114.882 78.116 113.123 78.464 111.151 78.464ZM132.451 78.464C130.267 78.464 128.304 78.0097 126.564 77.101C124.824 76.1923 123.461 74.9357 122.475 73.331C121.489 71.707 120.996 69.88 120.996 67.85C120.996 65.82 121.489 64.0027 122.475 62.398C123.461 60.774 124.824 59.5077 126.564 58.599C128.304 57.6903 130.267 57.236 132.451 57.236C134.636 57.236 136.598 57.6903 138.338 58.599C140.078 59.5077 141.441 60.774 142.427 62.398C143.413 64.0027 143.906 65.82 143.906 67.85C143.906 69.88 143.413 71.707 142.427 73.331C141.441 74.9357 140.078 76.1923 138.338 77.101C136.598 78.0097 134.636 78.464 132.451 78.464ZM132.451 72.925C133.302 72.925 134.066 72.722 134.742 72.316C135.438 71.8907 135.989 71.301 136.395 70.547C136.801 69.7737 137.004 68.8747 137.004 67.85C137.004 66.8253 136.801 65.936 136.395 65.182C135.989 64.4087 135.438 63.819 134.742 63.413C134.066 62.9877 133.302 62.775 132.451 62.775C131.601 62.775 130.827 62.9877 130.131 63.413C129.455 63.819 128.913 64.4087 128.507 65.182C128.101 65.936 127.898 66.8253 127.898 67.85C127.898 68.8747 128.101 69.7737 128.507 70.547C128.913 71.301 129.455 71.8907 130.131 72.316C130.827 72.722 131.601 72.925 132.451 72.925ZM164.515 78L164.457 68.749L160.049 76.173H157.033L152.625 69.068V78H146.39V57.7H152.016L158.628 68.517L165.066 57.7H170.692L170.75 78H164.515ZM174.059 57.7H180.903V78H174.059V57.7ZM204.208 57.7V78H198.582L190.868 68.778V78H184.198V57.7H189.824L197.538 66.922V57.7H204.208ZM220.933 67.299H226.878V75.883C225.679 76.7143 224.287 77.3523 222.702 77.797C221.116 78.2417 219.56 78.464 218.033 78.464C215.867 78.464 213.924 78.0193 212.204 77.13C210.483 76.2213 209.13 74.9647 208.144 73.36C207.177 71.736 206.694 69.8993 206.694 67.85C206.694 65.8007 207.177 63.9737 208.144 62.369C209.13 60.745 210.493 59.4883 212.233 58.599C213.992 57.6903 215.974 57.236 218.178 57.236C220.169 57.236 221.948 57.5743 223.514 58.251C225.099 58.9083 226.414 59.875 227.458 61.151L223.079 65.008C221.803 63.5193 220.285 62.775 218.526 62.775C217.018 62.775 215.819 63.2293 214.93 64.138C214.04 65.0467 213.596 66.284 213.596 67.85C213.596 69.3773 214.031 70.605 214.901 71.533C215.79 72.461 216.969 72.925 218.439 72.925C219.309 72.925 220.14 72.7607 220.933 72.432V67.299Z" fill="#0367B4"/>
<path opacity="0.3" d="M291.408 165.327L98.9277 160.066L109.443 109.47L283.896 100.456L291.408 165.327Z" fill="white"/>
<path d="M279.96 153.872L87.4736 148.617L97.9962 98.014L272.442 89.0005L279.96 153.872Z" fill="#F2F2F2"/>
<path opacity="0.2" d="M87.23 148.385L272.199 88.7686L279.717 153.64L87.23 148.385Z" fill="#FFC107"/>
<path d="M131.481 132.26L131.362 132.746L131.369 132.748L131.481 132.26ZM127.161 130.564L126.703 130.362L126.528 130.759L126.896 130.989L127.161 130.564ZM129.593 125.06L129.843 124.628L129.361 124.348L129.135 124.858L129.593 125.06ZM133.177 126.564L133.037 127.045L133.044 127.047L133.177 126.564ZM139.225 126.82L139.422 127.28L139.431 127.276L139.44 127.272L139.225 126.82ZM139.001 124.836L138.812 125.3L138.818 125.302L139.001 124.836ZM136.121 124.068L136.018 124.558L136.02 124.558L136.121 124.068ZM131.801 122.916L131.627 123.385L131.635 123.388L131.801 122.916ZM128.793 120.868L128.419 121.201L128.423 121.205L128.793 120.868ZM128.697 113.156L129.109 113.439L128.697 113.156ZM132.217 110.436L132.023 109.975L132.021 109.976L132.217 110.436ZM142.457 109.956L142.344 110.444L142.352 110.445L142.457 109.956ZM146.393 111.396L146.854 111.588L147.024 111.179L146.639 110.961L146.393 111.396ZM144.121 116.868L143.895 117.315L144.376 117.557L144.582 117.06L144.121 116.868ZM135.833 117.636L135.644 118.099L135.651 118.103L135.659 118.105L135.833 117.636ZM138.681 118.34L138.586 118.831L138.588 118.832L138.681 118.34ZM143.001 119.46L142.83 119.93L142.837 119.933L143.001 119.46ZM146.041 121.476L145.671 121.813L145.675 121.817L146.041 121.476ZM146.169 129.156L146.579 129.443L146.581 129.439L146.169 129.156ZM142.617 131.876L142.812 132.337L142.815 132.335L142.617 131.876ZM136.921 132.368C135.101 132.368 133.325 132.17 131.592 131.773L131.369 132.748C133.177 133.162 135.028 133.368 136.921 133.368V132.368ZM131.599 131.775C129.884 131.356 128.498 130.808 127.425 130.14L126.896 130.989C128.085 131.729 129.578 132.311 131.362 132.746L131.599 131.775ZM127.618 130.767L130.05 125.263L129.135 124.858L126.703 130.362L127.618 130.767ZM129.342 125.493C130.447 126.134 131.68 126.651 133.037 127.045L133.316 126.084C132.028 125.71 130.871 125.224 129.843 124.628L129.342 125.493ZM133.044 127.047C134.405 127.42 135.719 127.608 136.985 127.608V126.608C135.819 126.608 134.594 126.435 133.309 126.082L133.044 127.047ZM136.985 127.608C138.038 127.608 138.873 127.515 139.422 127.28L139.028 126.361C138.68 126.51 138.022 126.608 136.985 126.608V127.608ZM139.44 127.272C139.717 127.14 139.96 126.961 140.134 126.722C140.311 126.476 140.397 126.194 140.397 125.892H139.397C139.397 125.997 139.37 126.071 139.324 126.135C139.273 126.205 139.18 126.288 139.01 126.369L139.44 127.272ZM140.397 125.892C140.397 125.541 140.281 125.221 140.054 124.953C139.834 124.694 139.531 124.507 139.183 124.371L138.818 125.302C139.068 125.4 139.212 125.507 139.291 125.6C139.363 125.684 139.397 125.774 139.397 125.892H140.397ZM139.189 124.373C138.568 124.12 137.569 123.857 136.222 123.579L136.02 124.558C137.361 124.835 138.282 125.083 138.812 125.299L139.189 124.373ZM136.223 123.579C134.508 123.219 133.091 122.84 131.967 122.445L131.635 123.388C132.814 123.803 134.277 124.192 136.018 124.558L136.223 123.579ZM131.974 122.448C130.9 122.05 129.964 121.414 129.163 120.532L128.423 121.205C129.328 122.201 130.397 122.93 131.627 123.385L131.974 122.448ZM129.166 120.536C128.414 119.69 128.013 118.529 128.013 116.996H127.013C127.013 118.707 127.465 120.127 128.419 121.201L129.166 120.536ZM128.013 116.996C128.013 115.688 128.377 114.507 129.109 113.439L128.284 112.874C127.437 114.11 127.013 115.488 127.013 116.996H128.013ZM129.109 113.439C129.834 112.381 130.924 111.529 132.412 110.897L132.021 109.976C130.395 110.667 129.138 111.628 128.284 112.874L129.109 113.439ZM132.41 110.898C133.912 110.268 135.751 109.944 137.945 109.944V108.944C135.658 108.944 133.679 109.282 132.023 109.975L132.41 110.898ZM137.945 109.944C139.443 109.944 140.909 110.111 142.344 110.444L142.57 109.469C141.06 109.119 139.518 108.944 137.945 108.944V109.944ZM142.352 110.445C143.804 110.757 145.067 111.221 146.146 111.832L146.639 110.961C145.457 110.292 144.096 109.796 142.561 109.468L142.352 110.445ZM145.931 111.205L143.659 116.677L144.582 117.06L146.854 111.588L145.931 111.205ZM144.346 116.422C142.096 115.286 139.939 114.704 137.881 114.704V115.704C139.748 115.704 141.75 116.232 143.895 117.315L144.346 116.422ZM137.881 114.704C136.886 114.704 136.067 114.822 135.479 115.106C135.178 115.252 134.921 115.449 134.739 115.713C134.554 115.98 134.469 116.287 134.469 116.612H135.469C135.469 116.469 135.504 116.365 135.562 116.28C135.623 116.192 135.73 116.096 135.914 116.007C136.297 115.821 136.934 115.704 137.881 115.704V114.704ZM134.469 116.612C134.469 116.954 134.582 117.266 134.802 117.527C135.015 117.779 135.309 117.963 135.644 118.099L136.021 117.173C135.78 117.075 135.642 116.971 135.567 116.882C135.499 116.802 135.469 116.719 135.469 116.612H134.469ZM135.659 118.105C136.276 118.334 137.26 118.575 138.586 118.831L138.776 117.85C137.456 117.594 136.541 117.366 136.006 117.168L135.659 118.105ZM138.588 118.832C140.278 119.149 141.69 119.516 142.83 119.93L143.172 118.991C141.965 118.552 140.497 118.172 138.773 117.849L138.588 118.832ZM142.837 119.933C143.93 120.31 144.872 120.935 145.671 121.813L146.411 121.14C145.502 120.141 144.418 119.421 143.164 118.988L142.837 119.933ZM145.675 121.817C146.442 122.641 146.853 123.787 146.853 125.316H147.853C147.853 123.603 147.388 122.189 146.406 121.136L145.675 121.817ZM146.853 125.316C146.853 126.624 146.488 127.806 145.756 128.874L146.581 129.439C147.428 128.203 147.853 126.824 147.853 125.316H146.853ZM145.759 128.87C145.034 129.908 143.933 130.763 142.418 131.418L142.815 132.335C144.458 131.625 145.724 130.666 146.579 129.443L145.759 128.87ZM142.421 131.416C140.942 132.044 139.114 132.368 136.921 132.368V133.368C139.207 133.368 141.176 133.031 142.812 132.337L142.421 131.416ZM154.848 131.364L155.079 130.921L154.848 131.364ZM150.336 127.204L149.908 127.464L149.91 127.466L150.336 127.204ZM150.336 115.14L150.762 115.402L150.763 115.4L150.336 115.14ZM167.84 110.948L168.071 110.505L167.84 110.948ZM172.352 115.14L171.924 115.4L171.926 115.402L172.352 115.14ZM172.352 127.204L172.778 127.466L172.779 127.464L172.352 127.204ZM167.84 131.364L168.071 131.808L167.84 131.364ZM163.872 126.084L164.129 126.513L164.133 126.511L163.872 126.084ZM165.696 124.132L166.136 124.37L166.139 124.365L165.696 124.132ZM165.696 118.212L165.253 118.445L165.256 118.449L165.696 118.212ZM163.872 116.26L163.606 116.684L163.613 116.688L163.62 116.692L163.872 116.26ZM158.784 116.26L159.041 116.689L159.045 116.687L158.784 116.26ZM156.992 118.212L157.432 118.45L157.435 118.445L156.992 118.212ZM156.992 124.132L156.549 124.365L156.552 124.369L156.992 124.132ZM158.784 126.084L158.518 126.508L158.525 126.512L158.532 126.516L158.784 126.084ZM161.344 132.368C159.005 132.368 156.92 131.883 155.079 130.921L154.616 131.808C156.616 132.852 158.862 133.368 161.344 133.368V132.368ZM155.079 130.921C153.236 129.959 151.801 128.633 150.762 126.943L149.91 127.466C151.047 129.317 152.62 130.765 154.616 131.808L155.079 130.921ZM150.763 126.945C149.726 125.237 149.204 123.311 149.204 121.156H148.204C148.204 123.481 148.77 125.588 149.908 127.464L150.763 126.945ZM149.204 121.156C149.204 119.001 149.726 117.088 150.762 115.402L149.91 114.879C148.77 116.734 148.204 118.832 148.204 121.156H149.204ZM150.763 115.4C151.802 113.689 153.237 112.354 155.079 111.392L154.616 110.505C152.618 111.549 151.045 113.008 149.908 114.881L150.763 115.4ZM155.079 111.392C156.92 110.43 159.005 109.944 161.344 109.944V108.944C158.862 108.944 156.616 109.461 154.616 110.505L155.079 111.392ZM161.344 109.944C163.683 109.944 165.768 110.43 167.608 111.392L168.071 110.505C166.072 109.461 163.826 108.944 161.344 108.944V109.944ZM167.608 111.392C169.45 112.354 170.885 113.689 171.924 115.4L172.779 114.881C171.642 113.008 170.069 111.549 168.071 110.505L167.608 111.392ZM171.926 115.402C172.962 117.088 173.484 119.001 173.484 121.156H174.484C174.484 118.832 173.918 116.734 172.778 114.879L171.926 115.402ZM173.484 121.156C173.484 123.311 172.962 125.237 171.924 126.945L172.779 127.464C173.918 125.588 174.484 123.481 174.484 121.156H173.484ZM171.926 126.943C170.887 128.633 169.452 129.959 167.608 130.921L168.071 131.808C170.068 130.765 171.641 129.317 172.778 127.466L171.926 126.943ZM167.608 130.921C165.768 131.883 163.683 132.368 161.344 132.368V133.368C163.826 133.368 166.072 132.852 168.071 131.808L167.608 130.921ZM161.344 127.256C162.366 127.256 163.299 127.011 164.129 126.513L163.615 125.656C162.952 126.053 162.199 126.256 161.344 126.256V127.256ZM164.133 126.511C164.98 125.993 165.648 125.275 166.136 124.369L165.256 123.895C164.847 124.653 164.3 125.237 163.611 125.658L164.133 126.511ZM166.139 124.365C166.63 123.428 166.868 122.354 166.868 121.156H165.868C165.868 122.22 165.658 123.13 165.253 123.9L166.139 124.365ZM166.868 121.156C166.868 119.959 166.63 118.893 166.136 117.975L165.256 118.449C165.657 119.196 165.868 120.092 165.868 121.156H166.868ZM166.139 117.98C165.651 117.051 164.98 116.328 164.124 115.829L163.62 116.692C164.3 117.089 164.845 117.667 165.253 118.445L166.139 117.98ZM164.138 115.837C163.306 115.314 162.37 115.056 161.344 115.056V116.056C162.195 116.056 162.944 116.268 163.606 116.684L164.138 115.837ZM161.344 115.056C160.317 115.056 159.373 115.314 158.523 115.834L159.045 116.687C159.731 116.268 160.493 116.056 161.344 116.056V115.056ZM158.527 115.832C157.693 116.332 157.035 117.054 156.549 117.98L157.435 118.445C157.845 117.664 158.381 117.085 159.041 116.689L158.527 115.832ZM156.552 117.975C156.057 118.893 155.82 119.959 155.82 121.156H156.82C156.82 120.092 157.03 119.196 157.432 118.449L156.552 117.975ZM155.82 121.156C155.82 122.354 156.058 123.428 156.549 124.365L157.435 123.9C157.03 123.13 156.82 122.22 156.82 121.156H155.82ZM156.552 124.369C157.038 125.272 157.693 125.989 158.518 126.508L159.05 125.661C158.382 125.241 157.842 124.657 157.432 123.895L156.552 124.369ZM158.532 126.516C159.381 127.011 160.322 127.256 161.344 127.256V126.256C160.489 126.256 159.723 126.053 159.036 125.653L158.532 126.516ZM181.973 131.364L182.204 130.921L181.973 131.364ZM177.461 127.204L177.033 127.464L177.035 127.466L177.461 127.204ZM177.461 115.14L177.887 115.402L177.888 115.4L177.461 115.14ZM194.965 110.948L195.196 110.505L194.965 110.948ZM199.477 115.14L199.049 115.4L199.051 115.402L199.477 115.14ZM199.477 127.204L199.903 127.466L199.904 127.464L199.477 127.204ZM194.965 131.364L195.196 131.808L194.965 131.364ZM190.997 126.084L191.254 126.513L191.258 126.511L190.997 126.084ZM192.821 124.132L193.261 124.37L193.264 124.365L192.821 124.132ZM192.821 118.212L192.378 118.445L192.381 118.449L192.821 118.212ZM190.997 116.26L190.731 116.684L190.738 116.688L190.745 116.692L190.997 116.26ZM185.909 116.26L186.166 116.689L186.17 116.687L185.909 116.26ZM184.117 118.212L184.557 118.45L184.56 118.445L184.117 118.212ZM184.117 124.132L183.674 124.365L183.677 124.369L184.117 124.132ZM185.909 126.084L185.643 126.508L185.65 126.512L185.657 126.516L185.909 126.084ZM188.469 132.368C186.13 132.368 184.045 131.883 182.204 130.921L181.741 131.808C183.741 132.852 185.987 133.368 188.469 133.368V132.368ZM182.204 130.921C180.361 129.959 178.926 128.633 177.887 126.943L177.035 127.466C178.172 129.317 179.745 130.765 181.741 131.808L182.204 130.921ZM177.888 126.945C176.851 125.237 176.329 123.311 176.329 121.156H175.329C175.329 123.481 175.895 125.588 177.033 127.464L177.888 126.945ZM176.329 121.156C176.329 119.001 176.851 117.088 177.887 115.402L177.035 114.879C175.895 116.734 175.329 118.832 175.329 121.156H176.329ZM177.888 115.4C178.927 113.689 180.362 112.354 182.204 111.392L181.741 110.505C179.743 111.549 178.17 113.008 177.033 114.881L177.888 115.4ZM182.204 111.392C184.045 110.43 186.13 109.944 188.469 109.944V108.944C185.987 108.944 183.741 109.461 181.741 110.505L182.204 111.392ZM188.469 109.944C190.808 109.944 192.893 110.43 194.733 111.392L195.196 110.505C193.197 109.461 190.951 108.944 188.469 108.944V109.944ZM194.733 111.392C196.575 112.354 198.01 113.689 199.049 115.4L199.904 114.881C198.767 113.008 197.194 111.549 195.196 110.505L194.733 111.392ZM199.051 115.402C200.087 117.088 200.609 119.001 200.609 121.156H201.609C201.609 118.832 201.043 116.734 199.903 114.879L199.051 115.402ZM200.609 121.156C200.609 123.311 200.087 125.237 199.049 126.945L199.904 127.464C201.043 125.588 201.609 123.481 201.609 121.156H200.609ZM199.051 126.943C198.012 128.633 196.577 129.959 194.733 130.921L195.196 131.808C197.193 130.765 198.766 129.317 199.903 127.466L199.051 126.943ZM194.733 130.921C192.893 131.883 190.808 132.368 188.469 132.368V133.368C190.951 133.368 193.197 132.852 195.196 131.808L194.733 130.921ZM188.469 127.256C189.491 127.256 190.424 127.011 191.254 126.513L190.74 125.656C190.077 126.053 189.324 126.256 188.469 126.256V127.256ZM191.258 126.511C192.105 125.993 192.773 125.275 193.261 124.369L192.381 123.895C191.972 124.653 191.425 125.237 190.736 125.658L191.258 126.511ZM193.264 124.365C193.755 123.428 193.993 122.354 193.993 121.156H192.993C192.993 122.22 192.783 123.13 192.378 123.9L193.264 124.365ZM193.993 121.156C193.993 119.959 193.755 118.893 193.261 117.975L192.381 118.449C192.782 119.196 192.993 120.092 192.993 121.156H193.993ZM193.264 117.98C192.776 117.051 192.105 116.328 191.249 115.829L190.745 116.692C191.425 117.089 191.97 117.667 192.378 118.445L193.264 117.98ZM191.263 115.837C190.431 115.314 189.495 115.056 188.469 115.056V116.056C189.32 116.056 190.069 116.268 190.731 116.684L191.263 115.837ZM188.469 115.056C187.442 115.056 186.498 115.314 185.648 115.834L186.17 116.687C186.856 116.268 187.618 116.056 188.469 116.056V115.056ZM185.652 115.832C184.818 116.332 184.16 117.054 183.674 117.98L184.56 118.445C184.97 117.664 185.506 117.085 186.166 116.689L185.652 115.832ZM183.677 117.975C183.182 118.893 182.945 119.959 182.945 121.156H183.945C183.945 120.092 184.155 119.196 184.557 118.449L183.677 117.975ZM182.945 121.156C182.945 122.354 183.183 123.428 183.674 124.365L184.56 123.9C184.155 123.13 183.945 122.22 183.945 121.156H182.945ZM183.677 124.369C184.163 125.272 184.818 125.989 185.643 126.508L186.175 125.661C185.507 125.241 184.967 124.657 184.557 123.895L183.677 124.369ZM185.657 126.516C186.506 127.011 187.447 127.256 188.469 127.256V126.256C187.614 126.256 186.848 126.053 186.161 125.653L185.657 126.516ZM225.93 109.956H226.43V109.456H225.93V109.956ZM225.93 132.356V132.856H226.43V132.356H225.93ZM219.722 132.356L219.338 132.677L219.488 132.856H219.722V132.356ZM211.21 122.18L211.593 121.86L210.71 120.803V122.18H211.21ZM211.21 132.356V132.856H211.71V132.356H211.21ZM203.85 132.356H203.35V132.856H203.85V132.356ZM203.85 109.956V109.456H203.35V109.956H203.85ZM210.058 109.956L210.441 109.636L210.292 109.456H210.058V109.956ZM218.57 120.132L218.186 120.453L219.07 121.509V120.132H218.57ZM218.57 109.956V109.456H218.07V109.956H218.57ZM225.43 109.956V132.356H226.43V109.956H225.43ZM225.93 131.856H219.722V132.856H225.93V131.856ZM220.105 132.036L211.593 121.86L210.826 122.501L219.338 132.677L220.105 132.036ZM210.71 122.18V132.356H211.71V122.18H210.71ZM211.21 131.856H203.85V132.856H211.21V131.856ZM204.35 132.356V109.956H203.35V132.356H204.35ZM203.85 110.456H210.058V109.456H203.85V110.456ZM209.674 110.277L218.186 120.453L218.953 119.812L210.441 109.636L209.674 110.277ZM219.07 120.132V109.956H218.07V120.132H219.07ZM218.57 110.456H225.93V109.456H218.57V110.456Z" fill="#FF6D34"/>
<path d="M133.908 131.366C132.052 131.366 130.239 131.164 128.468 130.758C126.719 130.332 125.279 129.766 124.148 129.062L126.58 123.558C127.647 124.177 128.842 124.678 130.164 125.062C131.487 125.425 132.756 125.606 133.972 125.606C135.018 125.606 135.764 125.51 136.212 125.318C136.66 125.105 136.884 124.796 136.884 124.39C136.884 123.921 136.586 123.569 135.988 123.334C135.412 123.1 134.452 122.844 133.108 122.566C131.38 122.204 129.94 121.82 128.788 121.414C127.636 120.988 126.634 120.305 125.78 119.366C124.927 118.406 124.5 117.116 124.5 115.494C124.5 114.086 124.895 112.806 125.684 111.654C126.474 110.502 127.647 109.596 129.204 108.934C130.783 108.273 132.692 107.942 134.932 107.942C136.468 107.942 137.972 108.113 139.444 108.454C140.938 108.774 142.25 109.254 143.38 109.894L141.108 115.366C138.911 114.257 136.831 113.702 134.868 113.702C132.927 113.702 131.956 114.172 131.956 115.11C131.956 115.558 132.244 115.9 132.82 116.134C133.396 116.348 134.346 116.582 135.668 116.838C137.375 117.158 138.815 117.532 139.988 117.958C141.162 118.364 142.175 119.036 143.028 119.974C143.903 120.913 144.34 122.193 144.34 123.814C144.34 125.222 143.946 126.502 143.156 127.654C142.367 128.785 141.183 129.692 139.604 130.374C138.047 131.036 136.148 131.366 133.908 131.366ZM158.332 131.366C155.921 131.366 153.756 130.865 151.836 129.862C149.916 128.86 148.412 127.473 147.324 125.702C146.236 123.91 145.692 121.894 145.692 119.654C145.692 117.414 146.236 115.409 147.324 113.638C148.412 111.846 149.916 110.449 151.836 109.446C153.756 108.444 155.921 107.942 158.332 107.942C160.742 107.942 162.908 108.444 164.828 109.446C166.748 110.449 168.252 111.846 169.34 113.638C170.428 115.409 170.972 117.414 170.972 119.654C170.972 121.894 170.428 123.91 169.34 125.702C168.252 127.473 166.748 128.86 164.828 129.862C162.908 130.865 160.742 131.366 158.332 131.366ZM158.332 125.254C159.27 125.254 160.113 125.03 160.86 124.582C161.628 124.113 162.236 123.462 162.684 122.63C163.132 121.777 163.356 120.785 163.356 119.654C163.356 118.524 163.132 117.542 162.684 116.71C162.236 115.857 161.628 115.206 160.86 114.758C160.113 114.289 159.27 114.054 158.332 114.054C157.393 114.054 156.54 114.289 155.772 114.758C155.025 115.206 154.428 115.857 153.98 116.71C153.532 117.542 153.308 118.524 153.308 119.654C153.308 120.785 153.532 121.777 153.98 122.63C154.428 123.462 155.025 124.113 155.772 124.582C156.54 125.03 157.393 125.254 158.332 125.254ZM185.457 131.366C183.046 131.366 180.881 130.865 178.961 129.862C177.041 128.86 175.537 127.473 174.449 125.702C173.361 123.91 172.817 121.894 172.817 119.654C172.817 117.414 173.361 115.409 174.449 113.638C175.537 111.846 177.041 110.449 178.961 109.446C180.881 108.444 183.046 107.942 185.457 107.942C187.867 107.942 190.033 108.444 191.953 109.446C193.873 110.449 195.377 111.846 196.465 113.638C197.553 115.409 198.097 117.414 198.097 119.654C198.097 121.894 197.553 123.91 196.465 125.702C195.377 127.473 193.873 128.86 191.953 129.862C190.033 130.865 187.867 131.366 185.457 131.366ZM185.457 125.254C186.395 125.254 187.238 125.03 187.985 124.582C188.753 124.113 189.361 123.462 189.809 122.63C190.257 121.777 190.481 120.785 190.481 119.654C190.481 118.524 190.257 117.542 189.809 116.71C189.361 115.857 188.753 115.206 187.985 114.758C187.238 114.289 186.395 114.054 185.457 114.054C184.518 114.054 183.665 114.289 182.897 114.758C182.15 115.206 181.553 115.857 181.105 116.71C180.657 117.542 180.433 118.524 180.433 119.654C180.433 120.785 180.657 121.777 181.105 122.63C181.553 123.462 182.15 124.113 182.897 124.582C183.665 125.03 184.518 125.254 185.457 125.254ZM222.918 108.454V130.854H216.71L208.198 120.678V130.854H200.838V108.454H207.046L215.558 118.63V108.454H222.918Z" fill="#FF6D34"/>
<path d="M62.4292 122.18L78.4326 36.5316H78.7276L271.688 24.5205L275.611 87.6287H275.234L82.1917 99.6192L62.4292 122.18ZM79.0637 37.2656L63.6708 119.615L81.8349 98.8852H81.9859L274.816 86.881L270.981 25.3094L79.0637 37.2656Z" fill="white"/>
<path d="M285.66 159.538H285.221L92.2886 154.256L102.955 102.933H103.25L278.053 93.8984L278.094 94.2551L285.66 159.538ZM93.2078 153.522L284.81 158.756L277.388 94.6667L103.579 103.653L93.2078 153.522Z" fill="#FF6D34"/>
<path d="M41.0804 179.821C39.0155 182.055 36.3345 183.626 33.3767 184.336C30.4189 185.046 27.317 184.862 24.4633 183.809C21.6096 182.756 19.1323 180.88 17.3447 178.419C15.5571 175.958 14.5394 173.022 14.4205 169.983C14.3015 166.943 15.0865 163.937 16.6763 161.343C18.2661 158.75 20.5892 156.686 23.3518 155.413C26.1145 154.14 29.1926 153.715 32.1968 154.192C35.2011 154.668 37.9966 156.025 40.2298 158.09C43.2208 160.861 44.9902 164.706 45.1496 168.78C45.3091 172.854 43.8456 176.825 41.0804 179.821ZM20.5977 160.875C18.917 162.693 17.813 164.968 17.4251 167.413C17.0373 169.858 17.383 172.363 18.4187 174.612C19.4544 176.86 21.1334 178.751 23.2436 180.045C25.3538 181.34 27.8004 181.979 30.2741 181.884C32.7478 181.788 35.1376 180.961 37.1413 179.507C39.1449 178.053 40.6726 176.038 41.5311 173.716C42.3896 171.394 42.5404 168.869 41.9645 166.462C41.3886 164.054 40.1117 161.871 38.2954 160.189C35.8565 157.936 32.6229 156.742 29.3046 156.871C25.9864 156.999 22.8548 158.44 20.5977 160.875Z" fill="#D3D3D3"/>
<path d="M65.3428 156.883L22.7997 174.498L9.80762 162.22L24.9947 118.75L65.3428 156.883Z" fill="#8A88F3"/>
<path d="M9.7882 162.199L5.39807 166.843C3.81001 168.528 2.95502 170.774 3.0206 173.089C3.08618 175.404 4.06697 177.598 5.74791 179.19L6.09775 179.52C7.78203 181.109 10.0277 181.965 12.3423 181.9C14.6569 181.836 16.8515 180.857 18.445 179.177L22.8283 174.533L9.7882 162.199Z" fill="#D3D3D3"/>
<path opacity="0.1" d="M17.2717 169.278L14.6033 172.242C11.2902 175.747 7.83293 178.258 4.31397 174.937L3.95727 174.608C3.62543 174.284 3.31819 173.935 3.03809 173.566C3.21001 175.711 4.17035 177.718 5.73391 179.197L6.08374 179.527C7.76802 181.115 10.0137 181.972 12.3283 181.907C14.6429 181.843 16.8375 180.864 18.431 179.184L22.8143 174.54L17.2717 169.278Z" fill="#3B3528"/>
<path opacity="0.1" d="M17.2725 169.278C17.2725 169.278 51.9476 149.57 36.0403 129.184L65.3444 156.876L22.815 174.532L17.2725 169.278Z" fill="#3B3528"/>
<path d="M65.7285 156.455C67.7965 154.219 60.3521 143.972 49.1009 133.568C37.8498 123.164 27.0526 116.543 24.9846 118.779C22.9166 121.015 30.3611 131.262 41.6122 141.666C52.8633 152.07 63.6606 158.692 65.7285 156.455Z" fill="#844AF4"/>
<path d="M45.5882 136.489C46.3194 137.181 46.829 138.074 47.0525 139.056C47.2761 140.037 47.2036 141.063 46.8442 142.003C46.4848 142.944 45.8546 143.756 45.0334 144.338C44.2122 144.92 43.2367 145.246 42.2305 145.274C41.2242 145.302 40.2323 145.031 39.3802 144.495C38.528 143.959 37.8539 143.182 37.4431 142.263C37.0323 141.344 36.9032 140.324 37.0722 139.332C37.2412 138.339 37.7007 137.419 38.3925 136.688C38.8519 136.202 39.4025 135.812 40.0127 135.539C40.623 135.267 41.281 135.117 41.9492 135.098C42.6173 135.08 43.2826 135.193 43.907 135.432C44.5314 135.67 45.1027 136.03 45.5882 136.489Z" fill="#FF6D34"/>
<path opacity="0.1" d="M45.5877 136.489C44.7457 135.689 43.6527 135.204 42.494 135.117C43.02 135.913 43.3119 136.84 43.3366 137.793C43.3613 138.746 43.1178 139.687 42.6337 140.508C42.1497 141.33 41.4446 141.999 40.5989 142.439C39.7531 142.88 38.8007 143.074 37.8501 142.999C38.0663 143.322 38.317 143.621 38.5978 143.891C39.0838 144.35 39.6554 144.708 40.28 144.946C40.9047 145.184 41.5701 145.297 42.2383 145.278C42.9064 145.259 43.5643 145.108 44.1743 144.835C44.7843 144.562 45.3345 144.171 45.7935 143.685C46.2525 143.199 46.6112 142.627 46.8493 142.003C47.0873 141.378 47.2 140.713 47.1809 140.044C47.1618 139.376 47.0112 138.718 46.7379 138.108C46.4645 137.498 46.0737 136.948 45.5877 136.489Z" fill="#3B3528"/>
<path d="M67.0302 157.679C62.2285 162.885 42.617 145.043 40.3945 142.992C38.172 140.941 18.8554 122.791 23.6708 117.612C28.4862 112.433 48.0909 130.247 50.3066 132.298C52.5222 134.349 71.8456 152.507 67.0302 157.679ZM26.4352 120.129C26.7302 122.311 31.5182 129.911 42.8228 140.372C54.1273 150.833 62.0844 155.003 64.2864 155.134C63.9846 152.952 59.2034 145.345 47.892 134.891C36.5805 124.437 28.6234 120.267 26.4352 120.129Z" fill="#C5C6D1"/>
<g opacity="0.2">
<path opacity="0.2" d="M22.6297 132.353L19.5017 141.092C17.828 145.766 16.1566 150.437 14.4874 155.106L13.335 158.33C12.8411 159.702 15.0224 160.292 15.5095 158.927L18.6374 150.188L23.6929 136.174L24.8454 132.95C25.3324 131.578 23.151 130.988 22.664 132.353H22.6297Z" fill="white"/>
</g>
<path d="M47.269 120.129L48.2568 102.918H42.3096L47.269 120.129Z" fill="#FF6D34"/>
<path d="M61.1123 131.578L76.4366 120.129L77.7536 123.093L61.1123 131.578Z" fill="#FF6D34"/>
<path d="M63.6699 137.628L82.0605 135.351L80.6817 142.471L63.6699 137.628Z" fill="#FF6D34"/>
<path d="M298.466 91.2161C298.466 91.6546 298.336 92.0833 298.093 92.4478C297.849 92.8123 297.502 93.0963 297.097 93.2638C296.692 93.4313 296.246 93.4747 295.816 93.3887C295.386 93.3027 294.991 93.0909 294.682 92.7804C294.372 92.4698 294.162 92.0744 294.077 91.6442C293.992 91.2139 294.037 90.7682 294.206 90.3635C294.375 89.9588 294.66 89.6132 295.025 89.3706C295.39 89.1279 295.819 88.9991 296.258 89.0005C296.844 89.0023 297.406 89.2365 297.82 89.6519C298.234 90.0672 298.466 90.6297 298.466 91.2161Z" fill="#0367B4"/>
<path d="M318.359 42.0328C320.947 42.0328 323.045 39.9352 323.045 37.3477C323.045 34.7602 320.947 32.6626 318.359 32.6626C315.772 32.6626 313.674 34.7602 313.674 37.3477C313.674 39.9352 315.772 42.0328 318.359 42.0328Z" fill="#FF6D34"/>
<path d="M181.154 22.0362C183.541 19.1137 183.107 14.8097 180.184 12.4229C177.262 10.036 172.958 10.4701 170.571 13.3926C168.184 16.315 168.618 20.619 171.541 23.0059C174.463 25.3928 178.767 24.9586 181.154 22.0362Z" fill="#0367B4"/>
<path d="M124.699 194.672C124.699 195.11 124.569 195.539 124.326 195.903C124.083 196.268 123.736 196.551 123.332 196.719C122.927 196.887 122.481 196.931 122.051 196.845C121.622 196.76 121.227 196.549 120.917 196.239C120.607 195.929 120.396 195.534 120.311 195.104C120.225 194.675 120.269 194.229 120.437 193.824C120.604 193.419 120.888 193.073 121.253 192.83C121.617 192.587 122.046 192.457 122.484 192.457C123.071 192.457 123.635 192.69 124.05 193.105C124.466 193.521 124.699 194.085 124.699 194.672Z" fill="#DC7840"/>
<path d="M61.1114 193.671C63.6989 193.671 65.7965 191.573 65.7965 188.986C65.7965 186.398 63.6989 184.301 61.1114 184.301C58.5239 184.301 56.4263 186.398 56.4263 188.986C56.4263 191.573 58.5239 193.671 61.1114 193.671Z" fill="#03B0A9"/>
<path d="M3.01136 127.455C4.67448 127.455 6.02271 126.107 6.02271 124.444C6.02271 122.781 4.67448 121.433 3.01136 121.433C1.34823 121.433 0 122.781 0 124.444C0 126.107 1.34823 127.455 3.01136 127.455Z" fill="#0367B4"/>
<path d="M311.569 149.529C311.569 150.379 311.317 151.209 310.845 151.915C310.374 152.621 309.703 153.172 308.918 153.497C308.134 153.822 307.27 153.907 306.437 153.741C305.604 153.575 304.839 153.166 304.239 152.566C303.638 151.965 303.229 151.2 303.063 150.367C302.898 149.534 302.983 148.671 303.308 147.886C303.633 147.102 304.183 146.431 304.889 145.959C305.596 145.487 306.426 145.235 307.275 145.235C307.839 145.234 308.398 145.345 308.919 145.56C309.441 145.776 309.915 146.092 310.313 146.491C310.712 146.89 311.029 147.364 311.244 147.885C311.46 148.407 311.57 148.965 311.569 149.529Z" fill="#FFC107"/>
</svg>
