<svg width="330" height="200" viewBox="0 0 330 200" fill="none" xmlns="http://www.w3.org/2000/svg">
<path d="M127.766 5.71143C134.947 5.71007 141.967 7.8377 147.939 11.8254C153.911 15.813 158.566 21.4817 161.317 28.1148C164.068 34.7479 164.791 42.0477 163.393 49.0913C161.996 56.135 158.542 62.6064 153.468 67.6874C148.394 72.7684 141.927 76.2309 134.885 77.6374C127.843 79.0438 120.543 78.3309 113.906 75.5888C107.269 72.8468 101.594 68.1987 97.5988 62.232C93.6032 56.2654 91.4663 49.2481 91.4582 42.0672C91.4582 32.4334 95.2819 23.1934 102.09 16.3767C108.897 9.5601 118.132 5.72415 127.766 5.71143ZM127.766 77.1334C134.713 77.1347 141.505 75.0753 147.281 71.2156C153.058 67.3559 157.559 61.8694 160.217 55.4505C162.874 49.0315 163.568 41.9685 162.21 35.1553C160.852 28.342 157.503 22.0847 152.588 17.1751C147.672 12.2656 141.411 8.92438 134.596 7.57436C127.781 6.22434 120.719 6.92617 114.303 9.59105C107.888 12.2559 102.406 16.7641 98.5535 22.545C94.7006 28.326 92.6491 35.1199 92.6586 42.0672C92.6768 51.3701 96.3823 60.2865 102.963 66.8621C109.544 73.4377 118.463 77.1362 127.766 77.1471V77.1334Z" fill="#FF6D34"/>
<path d="M23.7468 62.934L25.4206 59.2778L27.1011 62.934L30.3389 64.5529L27.1011 66.1649L25.4206 69.821L23.7468 66.1649L20.5091 64.5529L23.7468 62.934Z" fill="#FFC107"/>
<path d="M19.4604 128.175L20.5099 125.884L21.5594 128.175L23.5898 129.191L21.5594 130.206L20.5099 132.49L19.4604 130.206L17.43 129.191L19.4604 128.175Z" fill="#FFC107"/>
<path d="M252.515 173.483L253.565 171.199L254.621 173.483L256.645 174.498L254.621 175.513L253.565 177.805L252.515 175.513L250.485 174.498L252.515 173.483Z" fill="#FFC107"/>
<path d="M5.37778 106.52L8.16277 100.456L10.9478 106.52L16.3257 109.209L10.9478 111.898L8.16277 117.962L5.37778 111.898L-0.000110626 109.209L5.37778 106.52Z" fill="#FFC107"/>
<path d="M289.639 53.1113L292.424 47.0405L295.209 53.1113L300.586 55.7933L295.209 58.4823L292.424 64.553L289.639 58.4823L284.261 55.7933L289.639 53.1113Z" fill="#FFC107"/>
<path d="M311.047 92.2655L312.72 88.6094L314.401 92.2655L317.639 93.8775L314.401 95.4964L312.72 99.1525L311.047 95.4964L307.809 93.8775L311.047 92.2655Z" fill="#FFC107"/>
<path d="M251.198 17.4483L252.247 15.1572L253.304 17.4483L255.327 18.4635L253.304 19.4788L252.247 21.763L251.198 19.4788L249.174 18.4635L251.198 17.4483Z" fill="#FFC107"/>
<path d="M62.6826 14.7594C62.2761 15.2332 62.0727 15.848 62.1164 16.4707C62.16 17.0934 62.4472 17.6738 62.9158 18.0863L78.8369 34.0074C79.0269 34.2623 79.2696 34.4734 79.5485 34.6263C79.8273 34.7792 80.1358 34.8702 80.453 34.8932C80.7702 34.9163 81.0886 34.8707 81.3866 34.7598C81.6846 34.6488 81.9553 34.475 82.1802 34.2501C82.405 34.0252 82.5788 33.7546 82.6898 33.4566C82.8008 33.1585 82.8463 32.8401 82.8233 32.5229C82.8003 32.2058 82.7092 31.8973 82.5564 31.6184C82.4035 31.3395 82.1924 31.0968 81.9374 30.9068L66.0163 14.9857C65.6008 14.5193 65.0189 14.2343 64.3956 14.192C63.7724 14.1497 63.1574 14.3534 62.6826 14.7594Z" fill="#8A88F3"/>
<path d="M64.5545 0.477543C64.2266 0.859191 64.0622 1.35462 64.0968 1.85659C64.1315 2.35856 64.3625 2.82668 64.7397 3.15964L77.6014 16.0008C77.7545 16.208 77.9504 16.3798 78.1759 16.5044C78.4014 16.629 78.6512 16.7034 78.9081 16.7227C79.165 16.7419 79.423 16.7054 79.6646 16.6158C79.9061 16.5261 80.1255 16.3854 80.3077 16.2033C80.4898 16.0211 80.6305 15.8017 80.7202 15.5602C80.8098 15.3187 80.8463 15.0606 80.827 14.8037C80.8078 14.5468 80.7334 14.297 80.6088 14.0715C80.4842 13.846 80.3124 13.6501 80.1052 13.497L67.2434 0.635311C66.9065 0.25997 66.435 0.0328331 65.9314 0.00328864C65.4279 -0.0262558 64.933 0.144184 64.5545 0.477543Z" fill="#8A88F3"/>
<path d="M220.562 179.259C220.156 179.733 219.953 180.347 219.996 180.97C220.04 181.593 220.327 182.173 220.796 182.586L236.71 198.466C236.9 198.721 237.143 198.932 237.422 199.085C237.7 199.237 238.009 199.329 238.326 199.352C238.643 199.375 238.962 199.329 239.26 199.218C239.558 199.107 239.828 198.933 240.053 198.708C240.278 198.484 240.452 198.213 240.563 197.915C240.674 197.617 240.719 197.298 240.696 196.981C240.673 196.664 240.582 196.356 240.429 196.077C240.277 195.798 240.065 195.555 239.81 195.365L223.883 179.444C223.463 178.986 222.881 178.71 222.26 178.676C221.64 178.641 221.031 178.85 220.562 179.259Z" fill="#8A88F3"/>
<path d="M222.428 164.964C222.1 165.345 221.936 165.841 221.97 166.343C222.005 166.845 222.236 167.313 222.613 167.646L235.475 180.507C235.628 180.715 235.824 180.887 236.049 181.011C236.275 181.136 236.525 181.21 236.782 181.229C237.039 181.249 237.297 181.212 237.538 181.122C237.78 181.033 237.999 180.892 238.181 180.71C238.363 180.528 238.504 180.308 238.594 180.067C238.683 179.825 238.72 179.567 238.701 179.31C238.681 179.053 238.607 178.804 238.482 178.578C238.358 178.353 238.186 178.157 237.979 178.004L225.117 165.142C224.783 164.764 224.313 164.533 223.809 164.499C223.306 164.466 222.809 164.633 222.428 164.964Z" fill="#8A88F3"/>
<path opacity="0.2" d="M267.544 113.976L247.459 34.2817H61.8937V94.3305H248.049L267.544 113.976Z" fill="#0367B4"/>
<path d="M276.132 122.564L256.047 42.8696H70.4821V102.918H256.644L276.132 122.564Z" fill="#EAF4FC"/>
<path d="M256.645 102.918L70.4824 42.8696V102.918H256.645Z" fill="white"/>
<path d="M114.151 78.464C112.005 78.464 110.072 78.0193 108.351 77.13C106.63 76.2213 105.277 74.9647 104.291 73.36C103.324 71.736 102.841 69.8993 102.841 67.85C102.841 65.8007 103.324 63.9737 104.291 62.369C105.277 60.745 106.63 59.4883 108.351 58.599C110.072 57.6903 112.005 57.236 114.151 57.236C116.123 57.236 117.882 57.584 119.429 58.28C120.976 58.976 122.252 59.9813 123.257 61.296L118.936 65.153C117.679 63.5677 116.2 62.775 114.499 62.775C113.068 62.775 111.918 63.239 111.048 64.167C110.178 65.0757 109.743 66.3033 109.743 67.85C109.743 69.3967 110.178 70.634 111.048 71.562C111.918 72.4707 113.068 72.925 114.499 72.925C116.2 72.925 117.679 72.1323 118.936 70.547L123.257 74.404C122.252 75.7187 120.976 76.724 119.429 77.42C117.882 78.116 116.123 78.464 114.151 78.464ZM135.451 78.464C133.267 78.464 131.304 78.0097 129.564 77.101C127.824 76.1923 126.461 74.9357 125.475 73.331C124.489 71.707 123.996 69.88 123.996 67.85C123.996 65.82 124.489 64.0027 125.475 62.398C126.461 60.774 127.824 59.5077 129.564 58.599C131.304 57.6903 133.267 57.236 135.451 57.236C137.636 57.236 139.598 57.6903 141.338 58.599C143.078 59.5077 144.441 60.774 145.427 62.398C146.413 64.0027 146.906 65.82 146.906 67.85C146.906 69.88 146.413 71.707 145.427 73.331C144.441 74.9357 143.078 76.1923 141.338 77.101C139.598 78.0097 137.636 78.464 135.451 78.464ZM135.451 72.925C136.302 72.925 137.066 72.722 137.742 72.316C138.438 71.8907 138.989 71.301 139.395 70.547C139.801 69.7737 140.004 68.8747 140.004 67.85C140.004 66.8253 139.801 65.936 139.395 65.182C138.989 64.4087 138.438 63.819 137.742 63.413C137.066 62.9877 136.302 62.775 135.451 62.775C134.601 62.775 133.827 62.9877 133.131 63.413C132.455 63.819 131.913 64.4087 131.507 65.182C131.101 65.936 130.898 66.8253 130.898 67.85C130.898 68.8747 131.101 69.7737 131.507 70.547C131.913 71.301 132.455 71.8907 133.131 72.316C133.827 72.722 134.601 72.925 135.451 72.925ZM167.515 78L167.457 68.749L163.049 76.173H160.033L155.625 69.068V78H149.39V57.7H155.016L161.628 68.517L168.066 57.7H173.692L173.75 78H167.515ZM177.059 57.7H183.903V78H177.059V57.7ZM207.208 57.7V78H201.582L193.868 68.778V78H187.198V57.7H192.824L200.538 66.922V57.7H207.208ZM223.933 67.299H229.878V75.883C228.679 76.7143 227.287 77.3523 225.702 77.797C224.116 78.2417 222.56 78.464 221.033 78.464C218.867 78.464 216.924 78.0193 215.204 77.13C213.483 76.2213 212.13 74.9647 211.144 73.36C210.177 71.736 209.694 69.8993 209.694 67.85C209.694 65.8007 210.177 63.9737 211.144 62.369C212.13 60.745 213.493 59.4883 215.233 58.599C216.992 57.6903 218.974 57.236 221.178 57.236C223.169 57.236 224.948 57.5743 226.514 58.251C228.099 58.9083 229.414 59.875 230.458 61.151L226.079 65.008C224.803 63.5193 223.285 62.775 221.526 62.775C220.018 62.775 218.819 63.2293 217.93 64.138C217.04 65.0467 216.596 66.284 216.596 67.85C216.596 69.3773 217.031 70.605 217.901 71.533C218.79 72.461 219.969 72.925 221.439 72.925C222.309 72.925 223.14 72.7607 223.933 72.432V67.299Z" fill="#0367B4"/>
<path opacity="0.3" d="M38.5924 165.327L231.072 160.066L220.557 109.47L46.1036 100.456L38.5924 165.327Z" fill="white"/>
<path d="M50.0396 153.872L242.526 148.617L232.004 98.014L57.5578 89.0005L50.0396 153.872Z" fill="#F2F2F2"/>
<path opacity="0.2" d="M242.77 148.385L57.8014 88.7686L50.2833 153.64L242.77 148.385Z" fill="#FFC107"/>
<path d="M87.7487 135.406L87.6302 135.892L87.6371 135.894L87.7487 135.406ZM83.4287 133.71L82.9714 133.508L82.7959 133.905L83.1644 134.135L83.4287 133.71ZM85.8607 128.206L86.1116 127.774L85.6289 127.494L85.4034 128.004L85.8607 128.206ZM89.4447 129.71L89.3053 130.191L89.3125 130.193L89.4447 129.71ZM95.4927 129.966L95.6897 130.426L95.6987 130.422L95.7077 130.418L95.4927 129.966ZM95.2687 127.982L95.08 128.446L95.0859 128.448L95.2687 127.982ZM92.3887 127.214L92.286 127.704L92.2877 127.704L92.3887 127.214ZM88.0687 126.062L87.895 126.531L87.9027 126.534L88.0687 126.062ZM85.0607 124.014L84.687 124.347L84.6907 124.351L85.0607 124.014ZM84.9647 116.302L85.3772 116.585L84.9647 116.302ZM88.4847 113.582L88.2915 113.121L88.2893 113.122L88.4847 113.582ZM98.7247 113.102L98.6117 113.59L98.6199 113.591L98.7247 113.102ZM102.661 114.542L103.122 114.734L103.292 114.325L102.907 114.107L102.661 114.542ZM100.389 120.014L100.163 120.461L100.644 120.703L100.85 120.206L100.389 120.014ZM92.1007 120.782L91.912 121.245L91.9195 121.249L91.927 121.251L92.1007 120.782ZM94.9487 121.486L94.8537 121.977L94.8566 121.978L94.9487 121.486ZM99.2687 122.606L99.0978 123.076L99.1054 123.079L99.2687 122.606ZM102.309 124.622L101.939 124.959L101.943 124.963L102.309 124.622ZM102.437 132.302L102.847 132.589L102.849 132.585L102.437 132.302ZM98.8847 135.022L99.0801 135.483L99.0832 135.481L98.8847 135.022ZM93.1887 135.514C91.3694 135.514 89.5935 135.316 87.8603 134.919L87.6371 135.894C89.4452 136.308 91.296 136.514 93.1887 136.514V135.514ZM87.8672 134.921C86.1525 134.502 84.7659 133.954 83.693 133.286L83.1644 134.135C84.3528 134.875 85.8462 135.457 87.6302 135.892L87.8672 134.921ZM83.886 133.913L86.318 128.409L85.4034 128.004L82.9714 133.508L83.886 133.913ZM85.6098 128.639C86.7154 129.28 87.9481 129.797 89.3053 130.191L89.5841 129.23C88.2959 128.856 87.1393 128.37 86.1116 127.774L85.6098 128.639ZM89.3125 130.193C90.6728 130.566 91.9867 130.754 93.2527 130.754V129.754C92.0866 129.754 90.8619 129.581 89.5769 129.228L89.3125 130.193ZM93.2527 130.754C94.3058 130.754 95.1413 130.661 95.6897 130.426L95.2957 129.507C94.9481 129.656 94.2902 129.754 93.2527 129.754V130.754ZM95.7077 130.418C95.9853 130.286 96.2281 130.107 96.4017 129.868C96.5793 129.622 96.6647 129.34 96.6647 129.038H95.6647C95.6647 129.143 95.6381 129.217 95.5917 129.281C95.5413 129.351 95.4481 129.434 95.2777 129.515L95.7077 130.418ZM96.6647 129.038C96.6647 128.687 96.5493 128.367 96.3219 128.099C96.1024 127.84 95.7986 127.653 95.4515 127.517L95.0859 128.448C95.3361 128.546 95.4803 128.653 95.5594 128.746C95.6307 128.83 95.6647 128.92 95.6647 129.038H96.6647ZM95.4573 127.519C94.8356 127.266 93.8368 127.003 92.4897 126.725L92.2877 127.704C93.6286 127.981 94.5498 128.229 95.08 128.445L95.4573 127.519ZM92.4914 126.725C90.7763 126.365 89.3591 125.986 88.2346 125.591L87.9027 126.534C89.0823 126.949 90.5451 127.338 92.286 127.704L92.4914 126.725ZM88.2424 125.594C87.168 125.196 86.2319 124.56 85.4307 123.678L84.6907 124.351C85.5961 125.347 86.6654 126.076 87.895 126.531L88.2424 125.594ZM85.4344 123.682C84.6821 122.836 84.2807 121.675 84.2807 120.142H83.2807C83.2807 121.853 83.7326 123.273 84.687 124.347L85.4344 123.682ZM84.2807 120.142C84.2807 118.834 84.6453 117.653 85.3772 116.585L84.5522 116.02C83.7054 117.256 83.2807 118.634 83.2807 120.142H84.2807ZM85.3772 116.585C86.1021 115.527 87.1919 114.675 88.6801 114.043L88.2893 113.122C86.6628 113.813 85.4059 114.774 84.5522 116.02L85.3772 116.585ZM88.6779 114.044C90.1796 113.414 92.0195 113.09 94.2127 113.09V112.09C91.9259 112.09 89.9471 112.428 88.2915 113.121L88.6779 114.044ZM94.2127 113.09C95.7113 113.09 97.1774 113.257 98.6118 113.59L98.8376 112.615C97.328 112.265 95.7861 112.09 94.2127 112.09V113.09ZM98.6199 113.591C100.072 113.903 101.335 114.367 102.414 114.978L102.907 114.107C101.725 113.438 100.364 112.942 98.8295 112.614L98.6199 113.591ZM102.199 114.351L99.9269 119.823L100.85 120.206L103.122 114.734L102.199 114.351ZM100.614 119.568C98.3642 118.432 96.207 117.85 94.1487 117.85V118.85C96.0157 118.85 98.0186 119.378 100.163 120.461L100.614 119.568ZM94.1487 117.85C93.1537 117.85 92.3347 117.968 91.747 118.252C91.4464 118.398 91.1888 118.595 91.007 118.859C90.8226 119.126 90.7367 119.433 90.7367 119.758H91.7367C91.7367 119.615 91.7722 119.511 91.8304 119.426C91.8913 119.338 91.9976 119.242 92.1823 119.153C92.5653 118.967 93.2023 118.85 94.1487 118.85V117.85ZM90.7367 119.758C90.7367 120.1 90.8502 120.412 91.0705 120.673C91.2831 120.925 91.5769 121.109 91.912 121.245L92.2893 120.319C92.0485 120.221 91.9102 120.117 91.8348 120.028C91.7672 119.948 91.7367 119.865 91.7367 119.758H90.7367ZM91.927 121.251C92.5442 121.48 93.5281 121.721 94.8537 121.977L95.0437 120.996C93.724 120.74 92.8092 120.512 92.2744 120.314L91.927 121.251ZM94.8566 121.978C96.546 122.295 97.9578 122.662 99.0978 123.076L99.4396 122.137C98.2329 121.698 96.7648 121.318 95.0408 120.995L94.8566 121.978ZM99.1054 123.079C100.198 123.456 101.14 124.081 101.939 124.959L102.679 124.286C101.77 123.287 100.686 122.567 99.432 122.134L99.1054 123.079ZM101.943 124.963C102.71 125.787 103.121 126.933 103.121 128.462H104.121C104.121 126.749 103.656 125.335 102.675 124.282L101.943 124.963ZM103.121 128.462C103.121 129.77 102.756 130.952 102.024 132.02L102.849 132.585C103.696 131.349 104.121 129.97 104.121 128.462H103.121ZM102.027 132.016C101.302 133.054 100.201 133.909 98.6862 134.564L99.0832 135.481C100.726 134.771 101.993 133.812 102.847 132.589L102.027 132.016ZM98.6893 134.562C97.2103 135.19 95.3822 135.514 93.1887 135.514V136.514C95.4752 136.514 97.4445 136.177 99.0801 135.483L98.6893 134.562ZM111.116 134.51L111.347 134.067L111.116 134.51ZM106.604 130.35L106.177 130.61L106.178 130.612L106.604 130.35ZM106.604 118.286L107.03 118.548L107.031 118.546L106.604 118.286ZM124.108 114.094L124.339 113.651L124.108 114.094ZM128.62 118.286L128.193 118.546L128.194 118.548L128.62 118.286ZM128.62 130.35L129.046 130.612L129.047 130.61L128.62 130.35ZM124.108 134.51L124.339 134.954L124.108 134.51ZM120.14 129.23L120.397 129.659L120.401 129.657L120.14 129.23ZM121.964 127.278L122.404 127.516L122.407 127.511L121.964 127.278ZM121.964 121.358L121.521 121.591L121.524 121.595L121.964 121.358ZM120.14 119.406L119.874 119.83L119.881 119.834L119.888 119.838L120.14 119.406ZM115.052 119.406L115.309 119.835L115.313 119.833L115.052 119.406ZM113.26 121.358L113.7 121.596L113.703 121.591L113.26 121.358ZM113.26 127.278L112.817 127.511L112.82 127.515L113.26 127.278ZM115.052 129.23L114.786 129.654L114.793 129.658L114.8 129.662L115.052 129.23ZM117.612 135.514C115.273 135.514 113.188 135.029 111.347 134.067L110.884 134.954C112.884 135.998 115.13 136.514 117.612 136.514V135.514ZM111.347 134.067C109.504 133.105 108.069 131.779 107.03 130.089L106.178 130.612C107.315 132.463 108.888 133.911 110.884 134.954L111.347 134.067ZM107.031 130.091C105.994 128.383 105.472 126.457 105.472 124.302H104.472C104.472 126.627 105.038 128.734 106.177 130.61L107.031 130.091ZM105.472 124.302C105.472 122.147 105.994 120.234 107.03 118.548L106.178 118.025C105.038 119.88 104.472 121.977 104.472 124.302H105.472ZM107.031 118.546C108.07 116.835 109.505 115.5 111.347 114.538L110.884 113.651C108.886 114.695 107.314 116.154 106.177 118.027L107.031 118.546ZM111.347 114.538C113.188 113.576 115.273 113.09 117.612 113.09V112.09C115.13 112.09 112.884 112.607 110.884 113.651L111.347 114.538ZM117.612 113.09C119.951 113.09 122.036 113.576 123.876 114.538L124.339 113.651C122.34 112.607 120.094 112.09 117.612 112.09V113.09ZM123.876 114.538C125.718 115.5 127.154 116.835 128.193 118.546L129.047 118.027C127.91 116.154 126.337 114.695 124.339 113.651L123.876 114.538ZM128.194 118.548C129.23 120.234 129.752 122.147 129.752 124.302H130.752C130.752 121.977 130.186 119.88 129.046 118.025L128.194 118.548ZM129.752 124.302C129.752 126.457 129.23 128.383 128.193 130.091L129.047 130.61C130.186 128.734 130.752 126.627 130.752 124.302H129.752ZM128.194 130.089C127.155 131.779 125.72 133.105 123.876 134.067L124.339 134.954C126.336 133.911 127.909 132.463 129.046 130.612L128.194 130.089ZM123.876 134.067C122.036 135.029 119.951 135.514 117.612 135.514V136.514C120.094 136.514 122.34 135.998 124.339 134.954L123.876 134.067ZM117.612 130.402C118.634 130.402 119.567 130.157 120.397 129.659L119.883 128.802C119.22 129.199 118.467 129.402 117.612 129.402V130.402ZM120.401 129.657C121.248 129.139 121.916 128.421 122.404 127.515L121.524 127.041C121.116 127.799 120.568 128.383 119.879 128.804L120.401 129.657ZM122.407 127.511C122.898 126.574 123.136 125.5 123.136 124.302H122.136C122.136 125.366 121.926 126.276 121.521 127.046L122.407 127.511ZM123.136 124.302C123.136 123.105 122.898 122.039 122.404 121.121L121.524 121.595C121.925 122.342 122.136 123.238 122.136 124.302H123.136ZM122.407 121.126C121.919 120.197 121.248 119.474 120.392 118.975L119.888 119.838C120.568 120.235 121.113 120.813 121.521 121.591L122.407 121.126ZM120.406 118.983C119.574 118.46 118.638 118.202 117.612 118.202V119.202C118.463 119.202 119.212 119.414 119.874 119.83L120.406 118.983ZM117.612 118.202C116.585 118.202 115.641 118.46 114.791 118.98L115.313 119.833C115.999 119.414 116.761 119.202 117.612 119.202V118.202ZM114.795 118.978C113.961 119.478 113.303 120.2 112.817 121.126L113.703 121.591C114.113 120.81 114.649 120.231 115.309 119.835L114.795 118.978ZM112.82 121.121C112.325 122.039 112.088 123.105 112.088 124.302H113.088C113.088 123.238 113.298 122.342 113.7 121.595L112.82 121.121ZM112.088 124.302C112.088 125.5 112.326 126.574 112.817 127.511L113.703 127.046C113.298 126.276 113.088 125.366 113.088 124.302H112.088ZM112.82 127.515C113.306 128.418 113.961 129.135 114.786 129.654L115.318 128.807C114.65 128.387 114.11 127.803 113.7 127.041L112.82 127.515ZM114.8 129.662C115.649 130.157 116.59 130.402 117.612 130.402V129.402C116.757 129.402 115.991 129.199 115.304 128.799L114.8 129.662ZM138.241 134.51L138.472 134.067L138.241 134.51ZM133.729 130.35L133.302 130.61L133.303 130.612L133.729 130.35ZM133.729 118.286L134.155 118.548L134.156 118.546L133.729 118.286ZM151.233 114.094L151.464 113.651L151.233 114.094ZM155.745 118.286L155.318 118.546L155.319 118.548L155.745 118.286ZM155.745 130.35L156.171 130.612L156.172 130.61L155.745 130.35ZM151.233 134.51L151.464 134.954L151.233 134.51ZM147.265 129.23L147.522 129.659L147.526 129.657L147.265 129.23ZM149.089 127.278L149.529 127.516L149.532 127.511L149.089 127.278ZM149.089 121.358L148.646 121.591L148.649 121.595L149.089 121.358ZM147.265 119.406L146.999 119.83L147.006 119.834L147.013 119.838L147.265 119.406ZM142.177 119.406L142.434 119.835L142.438 119.833L142.177 119.406ZM140.385 121.358L140.825 121.596L140.828 121.591L140.385 121.358ZM140.385 127.278L139.942 127.511L139.945 127.515L140.385 127.278ZM142.177 129.23L141.911 129.654L141.918 129.658L141.925 129.662L142.177 129.23ZM144.737 135.514C142.398 135.514 140.313 135.029 138.472 134.067L138.009 134.954C140.009 135.998 142.255 136.514 144.737 136.514V135.514ZM138.472 134.067C136.629 133.105 135.194 131.779 134.155 130.089L133.303 130.612C134.44 132.463 136.013 133.911 138.009 134.954L138.472 134.067ZM134.156 130.091C133.119 128.383 132.597 126.457 132.597 124.302H131.597C131.597 126.627 132.163 128.734 133.302 130.61L134.156 130.091ZM132.597 124.302C132.597 122.147 133.119 120.234 134.155 118.548L133.303 118.025C132.163 119.88 131.597 121.977 131.597 124.302H132.597ZM134.156 118.546C135.195 116.835 136.63 115.5 138.472 114.538L138.009 113.651C136.011 114.695 134.439 116.154 133.302 118.027L134.156 118.546ZM138.472 114.538C140.313 113.576 142.398 113.09 144.737 113.09V112.09C142.255 112.09 140.009 112.607 138.009 113.651L138.472 114.538ZM144.737 113.09C147.076 113.09 149.161 113.576 151.001 114.538L151.464 113.651C149.465 112.607 147.219 112.09 144.737 112.09V113.09ZM151.001 114.538C152.843 115.5 154.279 116.835 155.318 118.546L156.172 118.027C155.035 116.154 153.462 114.695 151.464 113.651L151.001 114.538ZM155.319 118.548C156.355 120.234 156.877 122.147 156.877 124.302H157.877C157.877 121.977 157.311 119.88 156.171 118.025L155.319 118.548ZM156.877 124.302C156.877 126.457 156.355 128.383 155.318 130.091L156.172 130.61C157.311 128.734 157.877 126.627 157.877 124.302H156.877ZM155.319 130.089C154.28 131.779 152.845 133.105 151.001 134.067L151.464 134.954C153.461 133.911 155.034 132.463 156.171 130.612L155.319 130.089ZM151.001 134.067C149.161 135.029 147.076 135.514 144.737 135.514V136.514C147.219 136.514 149.465 135.998 151.464 134.954L151.001 134.067ZM144.737 130.402C145.759 130.402 146.692 130.157 147.522 129.659L147.008 128.802C146.345 129.199 145.592 129.402 144.737 129.402V130.402ZM147.526 129.657C148.373 129.139 149.041 128.421 149.529 127.515L148.649 127.041C148.241 127.799 147.693 128.383 147.004 128.804L147.526 129.657ZM149.532 127.511C150.023 126.574 150.261 125.5 150.261 124.302H149.261C149.261 125.366 149.051 126.276 148.646 127.046L149.532 127.511ZM150.261 124.302C150.261 123.105 150.023 122.039 149.529 121.121L148.649 121.595C149.05 122.342 149.261 123.238 149.261 124.302H150.261ZM149.532 121.126C149.044 120.197 148.373 119.474 147.517 118.975L147.013 119.838C147.693 120.235 148.238 120.813 148.646 121.591L149.532 121.126ZM147.531 118.983C146.699 118.46 145.763 118.202 144.737 118.202V119.202C145.588 119.202 146.337 119.414 146.999 119.83L147.531 118.983ZM144.737 118.202C143.71 118.202 142.766 118.46 141.916 118.98L142.438 119.833C143.124 119.414 143.886 119.202 144.737 119.202V118.202ZM141.92 118.978C141.086 119.478 140.428 120.2 139.942 121.126L140.828 121.591C141.238 120.81 141.774 120.231 142.434 119.835L141.92 118.978ZM139.945 121.121C139.45 122.039 139.213 123.105 139.213 124.302H140.213C140.213 123.238 140.423 122.342 140.825 121.595L139.945 121.121ZM139.213 124.302C139.213 125.5 139.451 126.574 139.942 127.511L140.828 127.046C140.423 126.276 140.213 125.366 140.213 124.302H139.213ZM139.945 127.515C140.431 128.418 141.086 129.135 141.911 129.654L142.443 128.807C141.775 128.387 141.235 127.803 140.825 127.041L139.945 127.515ZM141.925 129.662C142.774 130.157 143.715 130.402 144.737 130.402V129.402C143.882 129.402 143.116 129.199 142.429 128.799L141.925 129.662ZM182.198 113.102H182.698V112.602H182.198V113.102ZM182.198 135.502V136.002H182.698V135.502H182.198ZM175.99 135.502L175.606 135.823L175.756 136.002H175.99V135.502ZM167.478 125.326L167.861 125.006L166.978 123.949V125.326H167.478ZM167.478 135.502V136.002H167.978V135.502H167.478ZM160.118 135.502H159.618V136.002H160.118V135.502ZM160.118 113.102V112.602H159.618V113.102H160.118ZM166.326 113.102L166.709 112.782L166.56 112.602H166.326V113.102ZM174.838 123.278L174.454 123.599L175.338 124.655V123.278H174.838ZM174.838 113.102V112.602H174.338V113.102H174.838ZM181.698 113.102V135.502H182.698V113.102H181.698ZM182.198 135.002H175.99V136.002H182.198V135.002ZM176.373 135.182L167.861 125.006L167.094 125.647L175.606 135.823L176.373 135.182ZM166.978 125.326V135.502H167.978V125.326H166.978ZM167.478 135.002H160.118V136.002H167.478V135.002ZM160.618 135.502V113.102H159.618V135.502H160.618ZM160.118 113.602H166.326V112.602H160.118V113.602ZM165.942 113.423L174.454 123.599L175.221 122.958L166.709 112.782L165.942 113.423ZM175.338 123.278V113.102H174.338V123.278H175.338ZM174.838 113.602H182.198V112.602H174.838V113.602Z" fill="#FF6D34"/>
<path d="M90.176 134.512C88.32 134.512 86.5067 134.309 84.736 133.904C82.9867 133.477 81.5467 132.912 80.416 132.208L82.848 126.704C83.9147 127.323 85.1093 127.824 86.432 128.208C87.7547 128.571 89.024 128.752 90.24 128.752C91.2853 128.752 92.032 128.656 92.48 128.464C92.928 128.251 93.152 127.941 93.152 127.536C93.152 127.067 92.8533 126.715 92.256 126.48C91.68 126.245 90.72 125.989 89.376 125.712C87.648 125.349 86.208 124.965 85.056 124.56C83.904 124.133 82.9013 123.451 82.048 122.512C81.1947 121.552 80.768 120.261 80.768 118.64C80.768 117.232 81.1627 115.952 81.952 114.8C82.7413 113.648 83.9147 112.741 85.472 112.08C87.0507 111.419 88.96 111.088 91.2 111.088C92.736 111.088 94.24 111.259 95.712 111.6C97.2053 111.92 98.5173 112.4 99.648 113.04L97.376 118.512C95.1787 117.403 93.0987 116.848 91.136 116.848C89.1947 116.848 88.224 117.317 88.224 118.256C88.224 118.704 88.512 119.045 89.088 119.28C89.664 119.493 90.6133 119.728 91.936 119.984C93.6427 120.304 95.0827 120.677 96.256 121.104C97.4293 121.509 98.4427 122.181 99.296 123.12C100.171 124.059 100.608 125.339 100.608 126.96C100.608 128.368 100.213 129.648 99.424 130.8C98.6347 131.931 97.4507 132.837 95.872 133.52C94.3147 134.181 92.416 134.512 90.176 134.512ZM114.599 134.512C112.189 134.512 110.023 134.011 108.103 133.008C106.183 132.005 104.679 130.619 103.591 128.848C102.503 127.056 101.959 125.04 101.959 122.8C101.959 120.56 102.503 118.555 103.591 116.784C104.679 114.992 106.183 113.595 108.103 112.592C110.023 111.589 112.189 111.088 114.599 111.088C117.01 111.088 119.175 111.589 121.095 112.592C123.015 113.595 124.519 114.992 125.607 116.784C126.695 118.555 127.239 120.56 127.239 122.8C127.239 125.04 126.695 127.056 125.607 128.848C124.519 130.619 123.015 132.005 121.095 133.008C119.175 134.011 117.01 134.512 114.599 134.512ZM114.599 128.4C115.538 128.4 116.381 128.176 117.127 127.728C117.895 127.259 118.503 126.608 118.951 125.776C119.399 124.923 119.623 123.931 119.623 122.8C119.623 121.669 119.399 120.688 118.951 119.856C118.503 119.003 117.895 118.352 117.127 117.904C116.381 117.435 115.538 117.2 114.599 117.2C113.661 117.2 112.807 117.435 112.039 117.904C111.293 118.352 110.695 119.003 110.247 119.856C109.799 120.688 109.575 121.669 109.575 122.8C109.575 123.931 109.799 124.923 110.247 125.776C110.695 126.608 111.293 127.259 112.039 127.728C112.807 128.176 113.661 128.4 114.599 128.4ZM141.724 134.512C139.314 134.512 137.148 134.011 135.228 133.008C133.308 132.005 131.804 130.619 130.716 128.848C129.628 127.056 129.084 125.04 129.084 122.8C129.084 120.56 129.628 118.555 130.716 116.784C131.804 114.992 133.308 113.595 135.228 112.592C137.148 111.589 139.314 111.088 141.724 111.088C144.135 111.088 146.3 111.589 148.22 112.592C150.14 113.595 151.644 114.992 152.732 116.784C153.82 118.555 154.364 120.56 154.364 122.8C154.364 125.04 153.82 127.056 152.732 128.848C151.644 130.619 150.14 132.005 148.22 133.008C146.3 134.011 144.135 134.512 141.724 134.512ZM141.724 128.4C142.663 128.4 143.506 128.176 144.252 127.728C145.02 127.259 145.628 126.608 146.076 125.776C146.524 124.923 146.748 123.931 146.748 122.8C146.748 121.669 146.524 120.688 146.076 119.856C145.628 119.003 145.02 118.352 144.252 117.904C143.506 117.435 142.663 117.2 141.724 117.2C140.786 117.2 139.932 117.435 139.164 117.904C138.418 118.352 137.82 119.003 137.372 119.856C136.924 120.688 136.7 121.669 136.7 122.8C136.7 123.931 136.924 124.923 137.372 125.776C137.82 126.608 138.418 127.259 139.164 127.728C139.932 128.176 140.786 128.4 141.724 128.4ZM179.185 111.6V134H172.977L164.465 123.824V134H157.105V111.6H163.313L171.825 121.776V111.6H179.185Z" fill="#FF6D34"/>
<path d="M267.571 122.18L251.567 36.5316H251.272L58.3124 24.5205L54.3887 87.6287H54.766L247.808 99.6192L267.571 122.18ZM250.936 37.2656L266.329 119.615L248.165 98.8852H248.014L55.1844 86.881L59.019 25.3094L250.936 37.2656Z" fill="white"/>
<path d="M44.3398 159.538H44.7789L237.711 154.256L227.045 102.933H226.75L51.9471 93.8984L51.906 94.2551L44.3398 159.538ZM236.792 153.522L45.1904 158.756L52.6125 94.6667L226.421 103.653L236.792 153.522Z" fill="#FF6D34"/>
<path d="M311.51 179.821C309.445 182.055 306.764 183.626 303.806 184.336C300.848 185.046 297.746 184.862 294.892 183.809C292.039 182.756 289.562 180.88 287.774 178.419C285.986 175.958 284.969 173.022 284.85 169.983C284.731 166.943 285.516 163.937 287.106 161.343C288.695 158.75 291.018 156.686 293.781 155.413C296.544 154.14 299.622 153.715 302.626 154.192C305.63 154.668 308.426 156.025 310.659 158.09C313.65 160.861 315.419 164.706 315.579 168.78C315.738 172.854 314.275 176.825 311.51 179.821ZM291.027 160.875C289.346 162.693 288.242 164.968 287.854 167.413C287.466 169.858 287.812 172.363 288.848 174.612C289.884 176.86 291.563 178.751 293.673 180.045C295.783 181.34 298.23 181.979 300.703 181.884C303.177 181.788 305.567 180.961 307.57 179.507C309.574 178.053 311.102 176.038 311.96 173.716C312.819 171.394 312.97 168.869 312.394 166.462C311.818 164.054 310.541 161.871 308.725 160.189C306.286 157.936 303.052 156.742 299.734 156.871C296.416 156.999 293.284 158.44 291.027 160.875Z" fill="#D3D3D3"/>
<path d="M264.659 156.883L307.202 174.498L320.194 162.22L305.007 118.75L264.659 156.883Z" fill="#8A88F3"/>
<path d="M320.211 162.199L324.601 166.843C326.19 168.528 327.044 170.774 326.979 173.089C326.913 175.404 325.933 177.598 324.252 179.19L323.902 179.52C322.217 181.109 319.972 181.965 317.657 181.9C315.343 181.836 313.148 180.857 311.555 179.177L307.171 174.533L320.211 162.199Z" fill="#D3D3D3"/>
<path opacity="0.1" d="M312.728 169.278L315.397 172.242C318.71 175.747 322.167 178.258 325.686 174.937L326.043 174.608C326.375 174.284 326.682 173.935 326.962 173.566C326.79 175.711 325.83 177.718 324.266 179.197L323.916 179.527C322.232 181.115 319.986 181.972 317.672 181.907C315.357 181.843 313.162 180.864 311.569 179.184L307.186 174.54L312.728 169.278Z" fill="#3B3528"/>
<path opacity="0.1" d="M312.728 169.278C312.728 169.278 278.052 149.57 293.96 129.184L264.656 156.876L307.185 174.532L312.728 169.278Z" fill="#3B3528"/>
<path d="M264.271 156.455C262.204 154.219 269.648 143.972 280.899 133.568C292.15 123.164 302.947 116.543 305.015 118.779C307.083 121.015 299.639 131.262 288.388 141.666C277.137 152.07 266.339 158.692 264.271 156.455Z" fill="#844AF4"/>
<path d="M284.412 136.489C283.681 137.181 283.171 138.074 282.947 139.056C282.724 140.037 282.796 141.063 283.156 142.003C283.515 142.944 284.145 143.756 284.967 144.338C285.788 144.92 286.763 145.246 287.77 145.274C288.776 145.302 289.768 145.031 290.62 144.495C291.472 143.959 292.146 143.182 292.557 142.263C292.968 141.344 293.097 140.324 292.928 139.332C292.759 138.339 292.299 137.419 291.607 136.688C291.148 136.202 290.598 135.812 289.987 135.539C289.377 135.267 288.719 135.117 288.051 135.098C287.383 135.08 286.717 135.193 286.093 135.432C285.469 135.67 284.897 136.03 284.412 136.489Z" fill="#FF6D34"/>
<path opacity="0.1" d="M284.412 136.489C285.254 135.689 286.347 135.204 287.506 135.117C286.98 135.913 286.688 136.84 286.663 137.793C286.639 138.746 286.882 139.687 287.366 140.508C287.85 141.33 288.555 141.999 289.401 142.439C290.247 142.88 291.199 143.074 292.15 142.999C291.934 143.322 291.683 143.621 291.402 143.891C290.916 144.35 290.345 144.708 289.72 144.946C289.095 145.184 288.43 145.297 287.762 145.278C287.094 145.259 286.436 145.108 285.826 144.835C285.216 144.562 284.665 144.171 284.207 143.685C283.748 143.199 283.389 142.627 283.151 142.003C282.913 141.378 282.8 140.713 282.819 140.044C282.838 139.376 282.989 138.718 283.262 138.108C283.535 137.498 283.926 136.948 284.412 136.489Z" fill="#3B3528"/>
<path d="M262.969 157.679C267.771 162.885 287.383 145.043 289.605 142.992C291.828 140.941 311.144 122.791 306.329 117.612C301.513 112.433 281.909 130.247 279.693 132.298C277.477 134.349 258.154 152.507 262.969 157.679ZM303.564 120.129C303.269 122.311 298.481 129.911 287.177 140.372C275.872 150.833 267.915 155.003 265.713 155.134C266.015 152.952 270.796 145.345 282.108 134.891C293.419 124.437 301.376 120.267 303.564 120.129Z" fill="#C5C6D1"/>
<g opacity="0.2">
<path opacity="0.2" d="M307.37 132.353L310.498 141.092C312.172 145.766 313.843 150.437 315.513 155.106L316.665 158.33C317.159 159.702 314.978 160.292 314.491 158.927L311.363 150.188L306.307 136.174L305.155 132.95C304.668 131.578 306.849 130.988 307.336 132.353H307.37Z" fill="white"/>
</g>
<path d="M282.731 120.129L281.743 102.918H287.69L282.731 120.129Z" fill="#FF6D34"/>
<path d="M268.888 131.578L253.563 120.129L252.246 123.093L268.888 131.578Z" fill="#FF6D34"/>
<path d="M266.33 137.628L247.94 135.351L249.318 142.471L266.33 137.628Z" fill="#FF6D34"/>
<path d="M31.5335 91.2161C31.5335 91.6546 31.6637 92.0833 31.9074 92.4478C32.1512 92.8123 32.4977 93.0963 32.9029 93.2638C33.3082 93.4313 33.754 93.4747 34.184 93.3887C34.614 93.3027 35.0087 93.0909 35.3183 92.7804C35.6279 92.4698 35.8384 92.0744 35.9231 91.6442C36.0078 91.2139 35.9629 90.7682 35.7942 90.3635C35.6254 89.9588 35.3404 89.6132 34.9751 89.3706C34.6099 89.1279 34.1809 88.9991 33.7424 89.0005C33.1559 89.0023 32.5941 89.2365 32.1801 89.6519C31.766 90.0672 31.5335 90.6297 31.5335 91.2161Z" fill="#0367B4"/>
<path d="M11.6406 42.0328C9.05307 42.0328 6.95547 39.9352 6.95547 37.3477C6.95547 34.7602 9.05307 32.6626 11.6406 32.6626C14.2281 32.6626 16.3257 34.7602 16.3257 37.3477C16.3257 39.9352 14.2281 42.0328 11.6406 42.0328Z" fill="#FF6D34"/>
<path d="M148.846 22.0362C146.459 19.1137 146.893 14.8097 149.816 12.4229C152.738 10.036 157.042 10.4701 159.429 13.3926C161.816 16.315 161.382 20.619 158.459 23.0059C155.537 25.3928 151.233 24.9586 148.846 22.0362Z" fill="#0367B4"/>
<path d="M205.301 194.672C205.301 195.11 205.431 195.539 205.674 195.903C205.917 196.268 206.264 196.551 206.668 196.719C207.073 196.887 207.519 196.931 207.949 196.845C208.378 196.76 208.773 196.549 209.083 196.239C209.393 195.929 209.604 195.534 209.689 195.104C209.775 194.675 209.731 194.229 209.563 193.824C209.396 193.419 209.112 193.073 208.747 192.83C208.383 192.587 207.954 192.457 207.516 192.457C206.929 192.457 206.365 192.69 205.95 193.105C205.534 193.521 205.301 194.085 205.301 194.672Z" fill="#DC7840"/>
<path d="M268.889 193.671C266.301 193.671 264.204 191.573 264.204 188.986C264.204 186.398 266.301 184.301 268.889 184.301C271.476 184.301 273.574 186.398 273.574 188.986C273.574 191.573 271.476 193.671 268.889 193.671Z" fill="#03B0A9"/>
<path d="M326.989 127.455C325.326 127.455 323.977 126.107 323.977 124.444C323.977 122.781 325.326 121.433 326.989 121.433C328.652 121.433 330 122.781 330 124.444C330 126.107 328.652 127.455 326.989 127.455Z" fill="#0367B4"/>
<path d="M18.4308 149.529C18.4308 150.379 18.6827 151.209 19.1545 151.915C19.6264 152.621 20.297 153.172 21.0817 153.497C21.8663 153.822 22.7297 153.907 23.5627 153.741C24.3957 153.575 25.1608 153.166 25.7613 152.566C26.3619 151.965 26.7708 151.2 26.9365 150.367C27.1022 149.534 27.0172 148.671 26.6922 147.886C26.3671 147.102 25.8168 146.431 25.1106 145.959C24.4044 145.487 23.5742 145.235 22.725 145.235C22.1608 145.234 21.602 145.345 21.0806 145.56C20.5592 145.776 20.0855 146.092 19.6865 146.491C19.2876 146.89 18.9713 147.364 18.7559 147.885C18.5404 148.407 18.4299 148.965 18.4308 149.529Z" fill="#FFC107"/>
</svg>
