<svg width="405" height="423" viewBox="0 0 405 423" fill="none" xmlns="http://www.w3.org/2000/svg">
<g clip-path="url(#clip0)">
<path d="M332.356 321.448C324.705 329.497 317.466 334.687 311.747 338.788C244.518 386.993 164.968 372.942 148.061 369.51C123.095 364.443 74.8373 354.648 39.9474 313.646C-12.838 251.613 -4.61855 153.883 36.3254 89.3697C43.8147 77.5691 83.3754 12.073 163.783 1.56954C212.444 -4.78711 269.168 8.03347 310.245 42.425C396.47 114.616 390.331 260.454 332.356 321.448Z" fill="url(#paint0_linear)"/>
<path d="M31.2305 5.16544C22.5053 27.3627 -22.9921 158.61 92.5837 223.397C92.5837 223.397 144.794 144.698 34.6956 4.65062C34.4753 4.37182 34.1853 4.15605 33.8549 4.02512C33.5245 3.8942 33.1654 3.85276 32.8138 3.90499C32.4622 3.95723 32.1307 4.10129 31.8526 4.32261C31.5746 4.54393 31.36 4.83466 31.2305 5.16544Z" fill="#91B3FA"/>
<path opacity="0.5" d="M38.1131 28.8591C37.9531 36.8623 38.1266 44.8853 38.46 52.8909C38.7995 60.8985 39.3344 68.8942 40.0646 76.878C41.5343 92.8362 43.7594 108.732 47.0197 124.417C50.2961 140.09 54.5864 155.58 60.514 170.443C61.9832 174.163 63.5939 177.823 65.296 181.438C66.9929 185.056 68.8266 188.604 70.7971 192.081C74.6888 199.05 79.2202 205.643 84.333 211.774L84.3373 211.779C84.4646 211.932 84.5261 212.129 84.5082 212.327C84.4904 212.526 84.3947 212.708 84.2421 212.836C84.0895 212.964 83.8925 213.026 83.6942 213.009C83.496 212.991 83.3127 212.896 83.1844 212.744L83.1824 212.741C78.0388 206.518 73.4853 199.83 69.5807 192.764C67.6105 189.249 65.7777 185.664 64.0824 182.008C62.3839 178.359 60.7788 174.666 59.3178 170.918C53.4219 155.938 49.1867 140.367 45.9715 124.633C42.7723 108.886 40.6147 92.9467 39.2144 76.9531C38.5172 68.9554 38.0175 60.9444 37.7154 52.92C37.4183 44.8975 37.2796 36.8734 37.4765 28.8377C37.4813 28.7553 37.5179 28.6779 37.5787 28.622C37.6395 28.566 37.7196 28.5359 37.8022 28.5379C37.8849 28.54 37.9634 28.574 38.0214 28.6329C38.0793 28.6918 38.1121 28.7708 38.1128 28.8534L38.1131 28.8591Z" fill="white"/>
<path d="M1.65282 98.7422C-0.545936 112.133 -10.1571 190.583 61.8893 212.82C61.8893 212.82 81.5211 162.801 3.51891 98.0418C3.36304 97.9131 3.17592 97.8277 2.97645 97.7943C2.77698 97.761 2.57223 97.7808 2.38289 97.8519C2.19355 97.9229 2.02634 98.0426 1.89815 98.199C1.76996 98.3553 1.68533 98.5427 1.65282 98.7422Z" fill="#BDD0FB"/>
<path opacity="0.5" d="M8.4017 110.754C9.30625 115.115 10.3864 119.452 11.5311 123.763C12.6844 128.074 13.9314 132.358 15.2721 136.616C16.6065 140.873 18.0425 145.097 19.5803 149.286C21.1205 153.472 22.7308 157.632 24.495 161.728C27.995 169.926 31.9521 177.936 36.5669 185.547C37.122 186.512 37.7483 187.432 38.3377 188.375L39.2342 189.781C39.5321 190.25 39.8584 190.701 40.1684 191.161C40.8014 192.075 41.415 193.002 42.0639 193.904L44.0469 196.581C46.737 200.109 49.6586 203.453 52.7923 206.594L52.7992 206.601C52.8678 206.669 52.9222 206.75 52.9594 206.839C52.9966 206.928 53.0159 207.024 53.0161 207.121C53.0163 207.217 52.9975 207.313 52.9607 207.402C52.9239 207.492 52.8698 207.573 52.8016 207.641C52.7334 207.71 52.6523 207.764 52.563 207.802C52.4738 207.839 52.3781 207.858 52.2813 207.858C52.1846 207.858 52.0888 207.84 51.9994 207.803C51.91 207.766 51.8286 207.712 51.7601 207.644L51.756 207.64C48.5988 204.427 45.6589 201.007 42.9556 197.405L40.9708 194.679C40.3222 193.762 39.7095 192.82 39.0772 191.892C38.767 191.424 38.4416 190.966 38.1441 190.49L37.2505 189.064C36.6633 188.107 36.0385 187.174 35.4865 186.197C30.8934 178.483 26.9793 170.397 23.5287 162.134C21.7899 158.007 20.2065 153.818 18.6944 149.605C17.1895 145.39 15.7826 141.143 14.4737 136.863C13.1667 132.584 11.9507 128.279 10.8255 123.948C9.71161 119.614 8.66517 115.269 7.78946 110.872C7.77298 110.791 7.78937 110.707 7.83504 110.638C7.8807 110.569 7.9519 110.521 8.03296 110.505C8.11402 110.488 8.19831 110.504 8.26728 110.55C8.33626 110.596 8.38427 110.667 8.40075 110.748L8.4017 110.754Z" fill="white"/>
<path d="M257.215 76.8859C257.114 76.8483 257.026 76.7826 256.96 76.6966C256.895 76.6106 256.856 76.5078 256.847 76.4003C256.792 75.6602 256.751 74.9067 256.727 74.1608C256.725 74.0877 256.737 74.0149 256.764 73.9467C256.79 73.8785 256.83 73.8163 256.881 73.7637C256.932 73.7112 256.993 73.6693 257.06 73.6406C257.127 73.6118 257.2 73.5968 257.273 73.5965C258.029 73.5794 257.824 74.3332 257.974 76.3357C257.979 76.4087 257.97 76.4819 257.946 76.5512C257.922 76.6204 257.885 76.6842 257.837 76.7388C257.788 76.7934 257.729 76.8378 257.663 76.8692C257.597 76.9006 257.525 76.9185 257.452 76.9219C257.371 76.9266 257.291 76.9143 257.215 76.8859Z" fill="#91B3FA"/>
<path d="M256.951 67.1839C257.09 65.7649 257.287 64.3342 257.539 62.9319C257.553 62.8598 257.58 62.7912 257.621 62.73C257.661 62.6688 257.713 62.6161 257.774 62.5752C257.835 62.5342 257.903 62.5057 257.975 62.4913C258.047 62.4768 258.121 62.4768 258.193 62.4912C259.03 62.6535 258.484 63.1244 258.076 67.3062C258.068 67.3791 258.046 67.4497 258.011 67.5139C257.976 67.5782 257.928 67.6347 257.871 67.6804C257.813 67.726 257.747 67.7598 257.677 67.7797C257.606 67.7997 257.533 67.8054 257.46 67.7966C257.312 67.7816 257.175 67.709 257.08 67.5944C256.985 67.4797 256.939 67.3323 256.951 67.1839ZM259.204 56.1684C259.635 54.8029 260.128 53.4292 260.654 52.1333C260.935 51.4364 261.975 51.8898 261.704 52.5569C261.181 53.8493 260.705 55.1747 260.284 56.5112C260.236 56.6505 260.135 56.7654 260.003 56.8315C259.871 56.8975 259.718 56.9094 259.577 56.8648C259.437 56.8201 259.319 56.7223 259.249 56.5923C259.18 56.4622 259.163 56.3101 259.204 56.1684ZM263.678 45.8607C264.379 44.6214 265.139 43.3943 265.938 42.2132C266.35 41.6043 267.292 42.2313 266.882 42.8369C266.099 43.9941 265.354 45.1965 264.668 46.4104C264.308 47.0492 263.318 46.4974 263.678 45.8607ZM270.28 37.4811C270.224 37.4341 270.177 37.3763 270.144 37.3113C270.11 37.2462 270.09 37.1751 270.085 37.1021C270.079 37.0292 270.088 36.9558 270.111 36.8864C270.134 36.817 270.171 36.7528 270.219 36.6978C271.166 35.6289 272.169 34.5846 273.201 33.5923C273.731 33.0823 274.528 33.881 273.998 34.3905C272.987 35.3627 272.004 36.3865 271.076 37.4333C270.976 37.5439 270.837 37.6108 270.688 37.6197C270.539 37.6287 270.392 37.5789 270.28 37.4811ZM278.447 29.8476C278.402 29.7902 278.369 29.7244 278.349 29.654C278.33 29.5835 278.325 29.5099 278.334 29.4375C278.344 29.3651 278.368 29.2953 278.405 29.2324C278.442 29.1694 278.492 29.1145 278.55 29.071C279.703 28.2171 280.904 27.398 282.12 26.6364C282.747 26.2462 283.364 27.183 282.738 27.5752C281.546 28.3215 280.368 29.124 279.239 29.9607C279.119 30.0485 278.968 30.0858 278.82 30.0647C278.672 30.0436 278.539 29.9657 278.447 29.8476ZM288.358 24.3094C288.221 24.2584 288.11 24.1572 288.046 24.0266C288.013 23.9612 287.994 23.89 287.989 23.8171C287.985 23.7442 287.995 23.6711 288.02 23.6023C288.044 23.5335 288.082 23.4702 288.131 23.4164C288.181 23.3625 288.24 23.3191 288.307 23.2888C289.616 22.6841 290.964 22.1236 292.315 21.6223C292.455 21.5708 292.61 21.5758 292.747 21.6364C292.883 21.697 292.991 21.8084 293.047 21.947C293.074 22.0148 293.087 22.0873 293.086 22.1603C293.085 22.2333 293.069 22.3053 293.039 22.372C293.009 22.4387 292.966 22.4987 292.913 22.5485C292.859 22.5982 292.796 22.6368 292.728 22.6618C291.404 23.1527 290.083 23.7024 288.8 24.2949C288.731 24.3266 288.656 24.3443 288.58 24.3468C288.504 24.3493 288.428 24.3365 288.357 24.3094H288.358ZM299.022 20.644C298.936 20.6121 298.859 20.56 298.798 20.4922C298.737 20.4243 298.693 20.3427 298.669 20.2542C298.651 20.1834 298.647 20.1097 298.658 20.0375C298.669 19.9653 298.694 19.8959 298.733 19.8336C298.771 19.7713 298.821 19.7173 298.88 19.6748C298.94 19.6323 299.007 19.6021 299.079 19.5861C300.487 19.2571 301.926 18.979 303.358 18.7595C303.506 18.7364 303.657 18.772 303.778 18.8584C303.9 18.9449 303.983 19.0756 304.01 19.2225C304.023 19.2945 304.02 19.3683 304.004 19.4394C303.987 19.5106 303.956 19.5777 303.913 19.6368C303.87 19.6958 303.816 19.7457 303.753 19.7834C303.691 19.821 303.621 19.8458 303.549 19.8561C302.146 20.0712 300.735 20.3439 299.356 20.6661C299.245 20.6921 299.129 20.6844 299.022 20.644ZM309.887 18.6969C309.884 18.6237 309.896 18.5507 309.922 18.4822C309.948 18.4137 309.987 18.3511 310.038 18.298C310.088 18.245 310.149 18.2025 310.216 18.1732C310.283 18.1438 310.355 18.1282 310.428 18.1273C311.878 18.0891 313.351 18.1075 314.805 18.1814C315.553 18.222 315.508 19.3274 314.763 19.2896C313.339 19.2171 311.896 19.1994 310.476 19.2367C310.326 19.2416 310.181 19.1878 310.071 19.0869C309.961 18.9859 309.895 18.8459 309.887 18.6969H309.887ZM346.079 30.7521C342.695 28.1697 341.934 28.2115 342.398 27.5115C342.482 27.3885 342.611 27.3033 342.757 27.2745C342.903 27.2456 343.055 27.2753 343.179 27.3571C344.401 28.1479 345.606 28.9967 346.763 29.8795C347.357 30.3324 346.675 31.2059 346.079 30.7521H346.079ZM321.226 19.4347C321.239 19.3625 321.266 19.2936 321.306 19.232C321.346 19.1704 321.397 19.1173 321.458 19.0758C321.518 19.0342 321.586 19.0051 321.658 18.9901C321.73 18.975 321.804 18.9744 321.876 18.9882C323.308 19.2424 324.75 19.5549 326.162 19.9178C326.887 20.1045 326.616 21.1776 325.891 20.9913C324.507 20.6358 323.094 20.3293 321.691 20.0802C321.544 20.0555 321.413 19.9738 321.326 19.8529C321.239 19.7321 321.203 19.5818 321.226 19.4347ZM336.481 24.8594C332.652 23.0095 331.906 23.1998 332.215 22.4164C332.41 21.9196 333.013 22.1052 332.945 22.1083C334.305 22.6415 335.659 23.2328 336.967 23.8645C337.034 23.8954 337.094 23.9394 337.144 23.9938C337.194 24.0482 337.232 24.112 337.257 24.1814C337.282 24.2509 337.292 24.3245 337.288 24.3981C337.284 24.4717 337.265 24.5437 337.233 24.6099C337.201 24.6762 337.155 24.7353 337.1 24.7838C337.044 24.8323 336.98 24.8693 336.91 24.8925C336.84 24.9158 336.766 24.9248 336.692 24.9191C336.619 24.9134 336.547 24.8931 336.481 24.8594Z" fill="#91B3FA"/>
<path d="M352.922 36.9366C351.625 35.5519 350.82 35.083 351.36 34.5542C351.467 34.4506 351.611 34.3934 351.76 34.3948C351.91 34.3962 352.053 34.456 352.158 34.5615C353.558 35.9396 354.26 36.4892 353.721 36.9752C353.603 37.0596 353.46 37.1017 353.315 37.0947C353.17 37.0877 353.032 37.032 352.922 36.9366Z" fill="#91B3FA"/>
<path d="M368.031 77.3826C367.919 77.3409 367.823 77.2647 367.756 77.1651C367.69 77.0654 367.657 76.9473 367.663 76.8279C367.702 76.0987 367.726 75.3608 367.735 74.634C367.737 74.5608 367.752 74.4886 367.782 74.4217C367.812 74.3547 367.854 74.2944 367.908 74.2441C367.961 74.1939 368.024 74.1547 368.092 74.129C368.161 74.1033 368.234 74.0916 368.307 74.0944C368.456 74.0978 368.598 74.1593 368.702 74.2658C368.806 74.3723 368.865 74.5153 368.865 74.6643C368.856 75.406 368.831 76.1589 368.791 76.9031C368.787 76.9762 368.768 77.0476 368.735 77.1133C368.703 77.179 368.658 77.2375 368.602 77.2856C368.547 77.3336 368.483 77.3701 368.413 77.3931C368.344 77.416 368.27 77.4249 368.197 77.4191C368.14 77.4152 368.084 77.4029 368.031 77.3826Z" fill="#91B3FA"/>
<path d="M291.845 123.985C290.392 123.391 288.946 122.729 287.549 122.019C287.483 121.986 287.424 121.941 287.376 121.886C287.327 121.831 287.29 121.766 287.267 121.697C287.244 121.627 287.234 121.554 287.24 121.48C287.245 121.407 287.265 121.336 287.298 121.27C287.693 120.505 288.013 121.223 292.265 122.961C292.334 122.988 292.396 123.029 292.449 123.08C292.502 123.131 292.544 123.192 292.573 123.259C292.602 123.327 292.618 123.399 292.619 123.473C292.62 123.546 292.607 123.619 292.579 123.688C292.377 124.181 291.777 123.987 291.845 123.985ZM298.714 125.735C298.928 124.903 299.422 125.539 303.919 126.333C304.066 126.358 304.197 126.439 304.284 126.56C304.371 126.68 304.407 126.831 304.384 126.978C304.371 127.05 304.344 127.119 304.305 127.18C304.265 127.242 304.214 127.295 304.153 127.337C304.093 127.379 304.025 127.408 303.953 127.423C303.881 127.438 303.807 127.439 303.735 127.426C302.197 127.154 300.645 126.814 299.124 126.415C298.98 126.379 298.856 126.287 298.779 126.16C298.702 126.032 298.679 125.88 298.714 125.735ZM280.961 118.092C279.673 117.201 278.407 116.246 277.196 115.251C277.139 115.205 277.092 115.148 277.057 115.084C277.022 115.019 277 114.949 276.993 114.876C276.986 114.803 276.993 114.729 277.015 114.659C277.036 114.589 277.071 114.525 277.118 114.468C277.677 113.809 277.827 114.577 281.602 117.187C281.663 117.228 281.715 117.28 281.755 117.342C281.795 117.403 281.823 117.472 281.836 117.544C281.85 117.616 281.849 117.69 281.834 117.761C281.818 117.833 281.789 117.901 281.747 117.961C281.659 118.081 281.528 118.163 281.381 118.187C281.234 118.212 281.083 118.177 280.961 118.092ZM311.171 128.214C311.061 128.173 310.967 128.099 310.9 128.002C310.834 127.905 310.8 127.79 310.802 127.673C310.805 127.6 310.822 127.528 310.852 127.461C310.883 127.395 310.926 127.335 310.98 127.286C311.034 127.236 311.098 127.198 311.167 127.173C311.235 127.148 311.309 127.138 311.382 127.141C312.917 127.203 314.469 127.202 315.996 127.137C316.146 127.129 316.292 127.181 316.403 127.28C316.515 127.379 316.583 127.518 316.594 127.667C316.598 127.74 316.587 127.813 316.563 127.882C316.538 127.951 316.5 128.014 316.45 128.068C316.401 128.122 316.341 128.165 316.275 128.196C316.208 128.226 316.136 128.243 316.063 128.245C314.504 128.312 312.919 128.314 311.352 128.25C311.29 128.248 311.229 128.236 311.171 128.214ZM323.343 127.378C323.253 127.344 323.172 127.288 323.109 127.215C323.047 127.142 323.003 127.054 322.984 126.959C322.97 126.888 322.97 126.814 322.985 126.742C322.999 126.671 323.028 126.603 323.07 126.543C323.111 126.482 323.164 126.431 323.226 126.392C323.287 126.353 323.356 126.326 323.428 126.314C324.93 126.043 326.439 125.707 327.914 125.313C328.058 125.274 328.212 125.293 328.343 125.366C328.473 125.439 328.57 125.56 328.613 125.703C328.633 125.773 328.639 125.846 328.631 125.919C328.623 125.992 328.6 126.062 328.564 126.125C328.528 126.189 328.479 126.244 328.421 126.289C328.363 126.333 328.297 126.365 328.226 126.384C326.721 126.787 325.181 127.13 323.648 127.406C323.545 127.425 323.44 127.415 323.342 127.378L323.343 127.378ZM334.993 123.935C334.922 123.908 334.858 123.868 334.803 123.816C334.747 123.765 334.703 123.703 334.672 123.634C334.642 123.567 334.626 123.495 334.624 123.422C334.622 123.349 334.635 123.277 334.662 123.209C334.689 123.141 334.729 123.079 334.781 123.027C334.832 122.975 334.893 122.934 334.961 122.906C336.363 122.319 337.756 121.665 339.102 120.964C339.235 120.896 339.389 120.882 339.532 120.925C339.676 120.969 339.796 121.066 339.869 121.197C339.904 121.26 339.927 121.331 339.935 121.403C339.943 121.476 339.936 121.549 339.915 121.619C339.894 121.689 339.859 121.754 339.812 121.81C339.766 121.866 339.708 121.913 339.643 121.946C338.27 122.662 336.848 123.329 335.417 123.928C335.282 123.985 335.13 123.987 334.993 123.935H334.993ZM345.565 118.068C345.462 118.029 345.372 117.961 345.306 117.873C345.262 117.814 345.23 117.748 345.212 117.677C345.194 117.606 345.191 117.533 345.202 117.46C345.213 117.388 345.239 117.319 345.277 117.257C345.316 117.195 345.366 117.141 345.426 117.099C346.66 116.224 347.87 115.286 349.024 114.311C349.139 114.215 349.287 114.168 349.436 114.18C349.585 114.192 349.723 114.262 349.821 114.374C349.87 114.429 349.908 114.492 349.931 114.561C349.955 114.63 349.965 114.704 349.96 114.776C349.955 114.849 349.936 114.921 349.903 114.986C349.87 115.051 349.824 115.109 349.768 115.156C348.59 116.152 347.356 117.109 346.096 118.002C346.02 118.056 345.931 118.09 345.838 118.101C345.746 118.113 345.651 118.101 345.564 118.068H345.565ZM354.373 109.952C353.709 109.377 354.49 109.262 357.192 105.663C357.632 105.077 358.546 105.744 358.105 106.331C357.183 107.559 356.196 108.763 355.17 109.909C355.069 110.019 354.929 110.085 354.78 110.093C354.631 110.101 354.484 110.051 354.372 109.952H354.373ZM361.416 100.238C360.642 99.8191 361.371 99.5426 363.193 95.4313C363.489 94.7647 364.528 95.2166 364.23 95.8869C363.609 97.2899 362.919 98.6812 362.181 100.022C362.107 100.152 361.986 100.247 361.843 100.288C361.699 100.328 361.546 100.31 361.416 100.238L361.416 100.238ZM366.044 89.1993C365.912 89.1508 365.803 89.0545 365.738 88.9295C365.674 88.8045 365.659 88.6599 365.696 88.5243C366.111 87.0734 366.468 85.5934 366.755 84.1254C366.77 84.0535 366.799 83.9853 366.84 83.9247C366.882 83.8641 366.935 83.8122 366.996 83.7722C367.058 83.7322 367.127 83.7047 367.199 83.6915C367.271 83.6782 367.345 83.6794 367.417 83.695C367.563 83.7235 367.692 83.8084 367.776 83.9312C367.86 84.0541 367.892 84.205 367.865 84.3513C367.571 85.8494 367.208 87.3593 366.784 88.8395C366.763 88.9099 366.728 88.9754 366.682 89.0324C366.635 89.0893 366.578 89.1366 366.514 89.1714C366.449 89.2062 366.378 89.2278 366.305 89.2351C366.232 89.2424 366.158 89.2352 366.088 89.2139C366.072 89.2098 366.057 89.2051 366.043 89.1997L366.044 89.1993Z" fill="#91B3FA"/>
<path d="M271.604 109.981C270.268 108.539 269.594 107.961 270.156 107.5C270.74 107.021 271.067 107.764 272.434 109.241C272.484 109.294 272.523 109.357 272.549 109.425C272.575 109.493 272.586 109.566 272.583 109.639C272.58 109.712 272.563 109.784 272.532 109.85C272.501 109.916 272.456 109.976 272.402 110.024C272.29 110.122 272.143 110.173 271.994 110.165C271.845 110.157 271.705 110.091 271.604 109.981Z" fill="#91B3FA"/>
<path d="M277.78 95.9532L285.809 94.9595C288.296 97.8829 291.235 100.389 294.515 102.383C294.829 110.12 294.302 110.684 295.13 110.96L304.382 114.04C304.513 114.085 304.654 114.088 304.786 114.048C304.918 114.009 305.035 113.93 305.12 113.822L309.993 107.536C313.81 107.905 317.661 107.66 321.4 106.808L327.241 112.419C327.341 112.515 327.467 112.578 327.604 112.6C327.741 112.622 327.881 112.602 328.006 112.542L336.667 108.325C336.79 108.266 336.891 108.169 336.955 108.049C337.019 107.929 337.043 107.791 337.024 107.656L335.891 99.7536C338.817 97.3696 341.326 94.517 343.317 91.3122L351.419 91.2822C351.556 91.2828 351.69 91.2404 351.801 91.1608C351.913 91.0813 351.996 90.9687 352.04 90.839L355.036 81.795C355.079 81.6646 355.079 81.5242 355.037 81.3936C354.995 81.2631 354.913 81.1489 354.803 81.0672L348.329 76.1848C348.646 72.4209 348.338 68.6305 347.416 64.9672C352.791 59.3304 353.546 59.3252 353.154 58.5642C348.667 50.2314 348.922 49.522 348.043 49.6306L340.014 50.6241C337.528 47.7007 334.588 45.1945 331.308 43.2006C330.995 35.4688 331.522 34.8997 330.694 34.6237C321.448 31.721 321.227 31.0852 320.703 31.7613L315.83 38.048C312.013 37.6783 308.162 37.9239 304.423 38.7754C298.674 33.4749 298.598 32.6613 297.817 33.0418C289.32 37.3652 288.677 37.0737 288.799 37.9273L289.932 45.8301C287.007 48.214 284.497 51.0665 282.506 54.2714C274.772 54.4587 274.056 53.9196 273.783 54.745C270.98 63.7447 270.32 63.9882 271.02 64.5166L277.494 69.3991C277.177 73.163 277.486 76.9533 278.407 80.6165C273.05 86.2343 272.275 86.2542 272.67 87.0197C277.156 95.3524 276.901 96.0617 277.78 95.9532Z" fill="#91B3FA"/>
<path d="M303.449 72.0378C303.793 66.9179 308.318 63.0908 313.535 63.5065C318.752 63.9221 322.718 68.4257 322.374 73.5457C322.03 78.6657 317.504 82.4927 312.286 82.0771C307.068 81.6615 303.104 77.1564 303.449 72.0378ZM312.343 81.2475L312.348 81.2494L312.343 81.2475ZM313.424 65.1661C309.189 64.8278 305.427 67.9044 305.14 72.1724C304.857 76.3774 308.113 80.0774 312.399 80.4177C316.684 80.758 320.4 77.6158 320.683 73.4109C320.966 69.1997 317.702 65.5053 313.424 65.1661H313.424Z" fill="#BDD0FB"/>
<path d="M304.656 94.9637C303.345 94.4692 302.078 93.8658 300.867 93.1596C300.696 93.0616 300.565 92.9062 300.497 92.7209C300.429 92.5356 300.429 92.3322 300.497 92.1469C300.514 92.1019 300.534 92.0586 300.559 92.0174C300.676 91.8272 300.863 91.6906 301.08 91.6372C301.296 91.5838 301.526 91.6179 301.717 91.732C303.112 92.5449 304.587 93.2116 306.118 93.7217C317.69 97.5738 330.13 91.7538 334.305 80.7082C334.411 80.4261 334.512 80.1407 334.608 79.8518C338.474 68.1826 331.903 55.6004 320.056 51.6529C308.225 47.7143 295.427 53.8853 291.566 65.5229C289.271 72.4502 291.277 77.0995 291.007 77.8127C290.716 78.5839 289.575 78.4932 289.386 77.6883C288.324 73.1594 288.635 68.4169 290.28 64.0654C297.593 44.7197 325.141 43.5415 334.741 62.1451C337.696 67.87 338.221 74.3491 336.22 80.3886C336.117 80.7012 336.007 81.0106 335.891 81.3169C333.771 86.9273 329.633 91.4509 324.148 94.1209C318.364 96.9365 311.775 97.3545 305.596 95.2973C305.281 95.1924 304.967 95.0812 304.656 94.9637Z" fill="#BDD0FB"/>
<path d="M213.041 90.3408C214.634 91.9701 216.482 93.3288 218.512 94.3637L218.948 99.1503C218.996 99.6815 219.437 99.4437 224.853 100.877C225.354 101 225.267 100.547 227.889 96.6692C230.168 96.6942 232.436 96.3477 234.603 95.6434L238.301 98.7221C238.712 99.0636 238.854 98.584 243.698 95.7703C243.768 95.7277 243.823 95.6643 243.856 95.5888C243.889 95.5133 243.897 95.4295 243.88 95.3491L242.867 90.6473C244.497 89.0557 245.857 87.209 246.892 85.1801C251.461 84.6684 251.905 84.9548 252.03 84.4454C253.299 78.8746 253.677 78.6987 253.241 78.4171L249.2 75.8098C249.225 73.5323 248.878 71.266 248.173 69.1L251.254 65.405C251.596 64.9953 251.116 64.8524 248.301 60.0117C248.035 59.5726 247.794 59.9483 243.174 60.842C241.581 59.2127 239.733 57.8539 237.703 56.8191L237.267 52.0324C237.219 51.5006 236.778 51.7392 231.362 50.3058C230.864 50.1832 230.961 50.6162 228.327 54.5129C226.047 54.4878 223.78 54.8344 221.612 55.5389L217.915 52.4602C217.852 52.4075 217.773 52.3759 217.691 52.3697C217.609 52.3635 217.527 52.3831 217.457 52.4257L212.518 55.4119C212.447 55.4545 212.392 55.5179 212.359 55.5935C212.327 55.669 212.318 55.7528 212.336 55.8332L213.348 60.5349C211.718 62.1265 210.358 63.9732 209.323 66.0022C204.754 66.5138 204.31 66.2272 204.185 66.7369C202.917 72.3055 202.538 72.483 202.975 72.765L207.015 75.3724C206.99 77.6498 207.337 79.9161 208.042 82.0821C205.173 85.6722 204.654 85.7841 204.926 86.2346L207.915 91.1705C208.182 91.6124 208.445 91.2299 213.041 90.3408Z" fill="#91B3FA"/>
<path d="M222.084 75.6278C222.077 74.4372 222.423 73.2713 223.079 72.2775C223.735 71.2836 224.671 70.5065 225.769 70.0443C226.867 69.5821 228.078 69.4557 229.248 69.681C230.418 69.9064 231.494 70.4733 232.342 71.3101C233.189 72.1469 233.769 73.2161 234.009 74.3824C234.248 75.5487 234.136 76.7597 233.687 77.8623C233.237 78.965 232.471 79.9097 231.484 80.577C230.497 81.2443 229.335 81.6043 228.144 81.6114C226.547 81.6191 225.012 80.9934 223.876 79.8716C222.74 78.7499 222.095 77.2237 222.084 75.6278ZM228.138 80.7144L228.144 80.7165L228.138 80.7144ZM223.879 75.6168C223.888 76.737 224.34 77.8082 225.137 78.5956C225.934 79.383 227.012 79.8224 228.133 79.8173C231.877 79.7946 233.752 75.2255 231.08 72.5864C228.419 69.9591 223.857 71.8507 223.879 75.6168H223.879Z" fill="#BDD0FB"/>
<path d="M198.586 86.7078C198.3 85.9516 198.041 85.1735 197.815 84.3949C197.793 84.3195 197.786 84.2405 197.795 84.1624C197.803 84.0844 197.827 84.0088 197.865 83.94C197.903 83.8712 197.954 83.8105 198.015 83.7614C198.077 83.7124 198.147 83.6759 198.223 83.654C199.021 83.4221 198.97 84.3355 199.706 86.2857C199.762 86.4341 199.756 86.5986 199.691 86.7431C199.626 86.8876 199.505 87.0003 199.357 87.0562C199.208 87.1122 199.044 87.1069 198.899 87.0416C198.755 86.9763 198.642 86.8562 198.586 86.7078Z" fill="#91B3FA"/>
<path d="M196.579 76.4958C196.532 74.8519 196.613 73.2069 196.819 71.5755C196.919 70.7888 198.106 70.944 198.007 71.7265C197.455 76.0586 198.196 77.0491 197.194 77.0769C197.116 77.0791 197.038 77.0658 196.964 77.0378C196.891 77.0098 196.824 76.9677 196.766 76.9137C196.709 76.8597 196.663 76.795 196.631 76.7233C196.599 76.6516 196.582 76.5743 196.579 76.4958ZM199.163 64.6147C199.016 64.5555 198.898 64.4402 198.836 64.2943C198.773 64.1484 198.772 63.9838 198.831 63.8366C199.445 62.3105 200.178 60.8347 201.023 59.4229C201.43 58.7445 202.457 59.3578 202.051 60.0372C201.238 61.3952 200.533 62.8147 199.942 64.2827C199.725 64.8208 199.091 64.618 199.163 64.6147ZM206.173 54.1241C206.079 54.0887 205.995 54.0303 205.93 53.9542C205.864 53.878 205.819 53.7867 205.798 53.6886C205.778 53.5904 205.782 53.4886 205.811 53.3926C205.84 53.2965 205.892 53.2093 205.964 53.1389C207.136 51.9845 208.396 50.9227 209.732 49.9632C209.861 49.8727 210.021 49.8368 210.176 49.8631C210.332 49.8894 210.47 49.9759 210.562 50.1039C210.654 50.2318 210.692 50.3908 210.667 50.5464C210.643 50.7019 210.557 50.8415 210.43 50.9347C209.145 51.858 207.932 52.8797 206.805 53.9906C206.723 54.0709 206.62 54.1262 206.508 54.1499C206.396 54.1735 206.28 54.1646 206.173 54.1241ZM216.771 47.2809C216.657 47.2381 216.56 47.1619 216.49 47.0624C216.421 46.9629 216.384 46.8447 216.384 46.7236C216.383 46.6024 216.42 46.484 216.488 46.384C216.556 46.284 216.654 46.2071 216.767 46.1635C218.303 45.5721 219.882 45.1023 221.492 44.7585C221.569 44.7412 221.649 44.7393 221.727 44.753C221.805 44.7667 221.88 44.7957 221.946 44.8384C222.013 44.8811 222.07 44.9365 222.115 45.0016C222.161 45.0666 222.192 45.14 222.209 45.2173C222.225 45.2947 222.226 45.3746 222.212 45.4524C222.197 45.5301 222.167 45.6042 222.124 45.6704C222.08 45.7365 222.024 45.7934 221.959 45.8377C221.893 45.882 221.819 45.9129 221.742 45.9285C220.193 46.2588 218.674 46.7105 217.197 47.2792C217.06 47.332 216.908 47.3325 216.771 47.2804V47.2809ZM228.838 44.6634C228.845 44.505 228.914 44.3557 229.031 44.2483C229.148 44.141 229.303 44.0843 229.461 44.0908C231.106 44.16 232.742 44.357 234.356 44.6802C235.131 44.8319 234.899 46.0088 234.121 45.8528C232.568 45.5419 230.993 45.3524 229.411 45.2862C229.253 45.2794 229.103 45.21 228.996 45.0933C228.888 44.9765 228.832 44.8219 228.838 44.6634Z" fill="#91B3FA"/>
<path d="M243.502 49.4422C241.611 48.3278 240.807 48.2559 241.162 47.5306C241.196 47.4596 241.244 47.396 241.303 47.3437C241.361 47.2913 241.43 47.2512 241.505 47.2256C241.579 47.2001 241.658 47.1897 241.737 47.1949C241.815 47.2002 241.892 47.2211 241.963 47.2564C242.687 47.6102 243.409 47.9991 244.11 48.4119C244.178 48.4518 244.237 48.5046 244.284 48.5673C244.331 48.6301 244.366 48.7015 244.386 48.7776C244.405 48.8536 244.41 48.9328 244.399 49.0106C244.388 49.0883 244.361 49.1632 244.322 49.2308C244.282 49.2985 244.229 49.3576 244.166 49.4048C244.103 49.4521 244.032 49.4865 243.956 49.5061C243.802 49.5457 243.639 49.5227 243.502 49.4422Z" fill="#91B3FA"/>
<path d="M257.87 69.6049C257.437 67.4454 256.956 66.8058 257.734 66.5868C257.809 66.5654 257.888 66.5591 257.966 66.5683C258.044 66.5775 258.12 66.6019 258.188 66.6403C258.257 66.6786 258.317 66.7301 258.366 66.7917C258.415 66.8534 258.451 66.924 258.472 66.9996C258.691 67.7754 258.884 68.5729 259.043 69.3698C259.06 69.4471 259.061 69.5269 259.046 69.6046C259.031 69.6823 259.001 69.7562 258.958 69.8222C258.914 69.8883 258.858 69.945 258.792 69.9892C258.727 70.0334 258.653 70.0641 258.576 70.0797C258.498 70.0952 258.418 70.0952 258.341 70.0797C258.263 70.0642 258.189 70.0335 258.124 69.9894C258.058 69.9452 258.002 69.8885 257.958 69.8225C257.915 69.7565 257.885 69.6826 257.87 69.6049Z" fill="#91B3FA"/>
<path d="M219.878 105.413C220.123 104.45 220.897 105.369 225.202 105.778C225.988 105.851 225.879 107.044 225.088 106.969C223.477 106.815 221.879 106.538 220.31 106.14C220.234 106.121 220.163 106.087 220.1 106.04C220.037 105.993 219.984 105.934 219.943 105.866C219.903 105.799 219.877 105.724 219.866 105.646C219.854 105.568 219.858 105.489 219.878 105.413ZM232.268 106.242C232.256 106.164 232.259 106.085 232.278 106.009C232.297 105.933 232.33 105.861 232.377 105.797C232.423 105.734 232.482 105.681 232.549 105.64C232.616 105.599 232.691 105.572 232.769 105.56C237.078 104.897 237.758 103.937 238.061 104.887C238.109 105.038 238.095 105.202 238.022 105.343C237.949 105.484 237.823 105.59 237.671 105.638C236.128 106.127 234.55 106.496 232.95 106.743C232.793 106.767 232.633 106.727 232.505 106.633C232.377 106.54 232.292 106.399 232.268 106.242ZM243.985 102.148C243.457 101.303 244.647 101.388 247.929 98.5575C248.529 98.0415 249.311 98.9458 248.711 99.4632C247.486 100.519 246.181 101.481 244.809 102.338C244.675 102.422 244.512 102.449 244.357 102.414C244.203 102.378 244.069 102.282 243.985 102.148ZM253.15 93.7772C252.331 93.205 253.464 92.8175 255.373 88.9301C255.721 88.2206 256.797 88.746 256.448 89.4568C255.734 90.9088 254.91 92.3039 253.983 93.6299C253.892 93.7598 253.753 93.8482 253.597 93.8758C253.441 93.9035 253.28 93.868 253.15 93.7772ZM257.828 81.7762C258.713 77.5131 258.051 76.5342 259.049 76.5851C259.128 76.589 259.205 76.6084 259.276 76.642C259.347 76.6757 259.41 76.723 259.463 76.7813C259.516 76.8396 259.557 76.9077 259.583 76.9817C259.609 77.0557 259.621 77.1342 259.617 77.2126C259.535 78.8283 259.329 80.4352 259 82.0193C258.984 82.0962 258.953 82.1692 258.909 82.2341C258.865 82.299 258.808 82.3546 258.743 82.3977C258.677 82.4408 258.603 82.4705 258.526 82.4851C258.449 82.4998 258.369 82.4991 258.293 82.4831C258.216 82.4671 258.143 82.4361 258.078 82.3919C258.013 82.3477 257.957 82.2912 257.914 82.2255C257.871 82.1598 257.841 82.0863 257.826 82.0091C257.812 81.9319 257.812 81.8526 257.828 81.7757V81.7762Z" fill="#91B3FA"/>
<path d="M212.964 103.245C212.253 102.856 211.55 102.433 210.872 101.992C210.74 101.905 210.647 101.769 210.614 101.614C210.582 101.458 210.612 101.297 210.699 101.164C211.155 100.468 211.708 101.192 213.539 102.197C213.608 102.234 213.669 102.285 213.718 102.347C213.768 102.408 213.804 102.478 213.826 102.554C213.848 102.629 213.855 102.708 213.847 102.786C213.838 102.864 213.814 102.94 213.776 103.009C213.739 103.077 213.687 103.138 213.626 103.187C213.565 103.236 213.495 103.273 213.419 103.295C213.344 103.317 213.265 103.324 213.186 103.315C213.108 103.307 213.033 103.283 212.964 103.245Z" fill="#91B3FA"/>
<path d="M221.728 88.8509C221.619 88.8029 221.52 88.7337 221.438 88.6471C221.355 88.5605 221.291 88.4584 221.249 88.3467C221.206 88.235 221.187 88.116 221.191 87.9966C221.195 87.8772 221.224 87.7599 221.274 87.6515C221.324 87.5432 221.395 87.4459 221.484 87.3655C221.572 87.285 221.676 87.223 221.788 87.1831C221.901 87.1431 222.02 87.126 222.14 87.1329C222.259 87.1397 222.376 87.1702 222.483 87.2227C224.443 88.1774 226.611 88.6264 228.79 88.5286C230.968 88.4308 233.087 87.7894 234.954 86.6629C244.841 80.6843 242.557 65.6355 231.323 62.874C228.23 62.1175 224.967 62.5169 222.148 63.9971C219.329 65.4773 217.149 67.9362 216.018 70.9108C213.706 77.0281 217.012 79.8923 215.154 80.463C215.041 80.4977 214.923 80.5099 214.805 80.4989C214.688 80.4879 214.574 80.4538 214.47 80.3987C214.365 80.3436 214.273 80.2685 214.198 80.1778C214.123 80.087 214.066 79.9823 214.032 79.8697C213.339 77.6145 213.195 75.2267 213.612 72.9048C214.029 70.5829 214.994 68.394 216.428 66.5201C217.862 64.6462 219.723 63.1415 221.856 62.131C223.989 61.1205 226.333 60.6335 228.692 60.7105C231.051 60.7875 233.358 61.4262 235.42 62.5736C237.483 63.721 239.242 65.3438 240.55 67.3072C241.859 69.2706 242.679 71.5178 242.944 73.8619C243.208 76.2061 242.908 78.5794 242.07 80.7846C239.51 87.56 232.159 91.7521 224.664 89.9085C223.651 89.6594 222.667 89.3049 221.728 88.8509Z" fill="#BDD0FB"/>
<path d="M173.454 273.875L165.898 341.593H253.56L242.142 273.875H173.454Z" fill="url(#paint1_linear)"/>
<path d="M20.916 102.191V261.783C20.9157 268.096 23.3831 274.159 27.792 278.681C32.201 283.202 38.2029 285.823 44.5181 285.986C102.848 287.489 306.86 291.134 362.386 290.315C366.98 290.246 371.369 288.408 374.639 285.183C377.908 281.959 379.806 277.597 379.936 273.009C381.007 235.933 382.746 146.779 376.311 105.388C375.656 101.164 373.544 97.3017 370.342 94.4685C367.139 91.6353 363.046 90.0097 358.77 89.8728C309.897 88.3105 93.6316 83.3492 38.1309 84.5948C33.5296 84.6978 29.1515 86.597 25.934 89.8857C22.7164 93.1744 20.9153 97.5913 20.916 102.191Z" fill="url(#paint2_linear)"/>
<path d="M30.9375 101.414V253.037C30.9375 256.721 32.3877 260.257 34.9748 262.882C37.562 265.506 41.0783 267.008 44.7643 267.063L354.399 270.886C356.206 270.913 358 270.581 359.677 269.911C361.355 269.24 362.883 268.243 364.172 266.979C365.462 265.714 366.487 264.206 367.19 262.542C367.892 260.879 368.257 259.092 368.264 257.287L368.782 107.018C368.792 104.405 367.776 101.893 365.954 100.02C364.131 98.1475 361.647 97.063 359.034 96.9995L42.0252 90.5999C40.582 90.5648 39.1464 90.8187 37.8028 91.3464C36.4592 91.8741 35.2348 92.665 34.2016 93.6727C33.1685 94.6803 32.3475 95.8843 31.7869 97.2138C31.2263 98.5432 30.9375 99.9713 30.9375 101.414Z" fill="url(#paint3_linear)"/>
<path d="M36.4219 109.181V248.952C36.4219 256.018 42.3611 261.775 49.7591 261.881L348.432 265.405C355.767 265.509 361.779 259.874 361.806 252.869L362.306 114.347C362.325 109.338 358.147 105.234 352.903 105.112L47.1179 99.213C41.253 99.0761 36.4219 103.579 36.4219 109.181Z" fill="#91B3FA"/>
<path d="M370.595 277.168H370.586L30.9288 271.385C30.7982 271.381 30.6745 271.325 30.5844 271.23C30.4944 271.136 30.4451 271.01 30.4473 270.879C30.4496 270.748 30.5031 270.624 30.5963 270.532C30.6895 270.441 30.815 270.39 30.9457 270.39L370.603 276.173C370.734 276.176 370.858 276.23 370.949 276.324C371.04 276.418 371.09 276.544 371.089 276.675C371.088 276.805 371.036 276.93 370.943 277.023C370.851 277.115 370.725 277.167 370.595 277.168Z" fill="#91B3FA"/>
<path d="M272.441 355.448H144.143C140.657 355.448 138.04 352.968 138.714 350.305L140.36 343.799C140.855 341.842 143.009 340.405 145.568 340.326L269.251 336.469C271.924 336.385 274.291 337.803 274.873 339.837L277.841 350.2C278.613 352.892 275.983 355.448 272.441 355.448Z" fill="url(#paint4_linear)"/>
<path d="M362.284 120.357L362.305 114.386C362.325 109.377 358.146 105.254 352.903 105.132L47.0764 99.222C41.212 99.0858 36.3398 103.579 36.3398 109.181V120.357L362.284 120.357Z" fill="#BDD0FB"/>
<path d="M339.03 116.36C340.533 116.36 341.752 115.142 341.752 113.64C341.752 112.138 340.533 110.92 339.03 110.92C337.527 110.92 336.309 112.138 336.309 113.64C336.309 115.142 337.527 116.36 339.03 116.36Z" fill="url(#paint5_linear)"/>
<path d="M329.864 116.36C331.367 116.36 332.586 115.142 332.586 113.64C332.586 112.138 331.367 110.92 329.864 110.92C328.361 110.92 327.143 112.138 327.143 113.64C327.143 115.142 328.361 116.36 329.864 116.36Z" fill="url(#paint6_linear)"/>
<path d="M319.593 116.36C321.096 116.36 322.314 115.142 322.314 113.64C322.314 112.138 321.096 110.92 319.593 110.92C318.09 110.92 316.871 112.138 316.871 113.64C316.871 115.142 318.09 116.36 319.593 116.36Z" fill="url(#paint7_linear)"/>
<path d="M265.332 232.442L51.4416 229.979C49.8735 229.961 48.3758 229.326 47.2733 228.212C46.1709 227.097 45.5526 225.593 45.5527 224.026V133.276C45.5527 132.489 45.7088 131.71 46.012 130.983C46.3152 130.257 46.7594 129.598 47.3191 129.045C47.8788 128.491 48.5427 128.054 49.2725 127.758C50.0024 127.463 50.7836 127.315 51.571 127.323L265.461 129.503C267.031 129.519 268.531 130.153 269.635 131.268C270.739 132.382 271.358 133.887 271.358 135.456V226.489C271.358 227.276 271.202 228.056 270.898 228.783C270.594 229.509 270.149 230.169 269.589 230.722C269.029 231.276 268.364 231.713 267.633 232.008C266.902 232.303 266.12 232.451 265.332 232.442Z" fill="#BDD0FB"/>
<path d="M350.541 168.076L283.563 166.093C282.067 166.048 280.647 165.423 279.604 164.35C278.561 163.277 277.978 161.84 277.979 160.344V135.685C277.978 134.176 278.572 132.727 279.632 131.651C280.692 130.575 282.132 129.959 283.643 129.935L350.621 128.888C351.384 128.876 352.142 129.016 352.851 129.299C353.559 129.583 354.204 130.004 354.748 130.54C355.292 131.075 355.724 131.713 356.019 132.416C356.314 133.12 356.466 133.875 356.466 134.638V162.329C356.465 163.098 356.311 163.86 356.011 164.569C355.711 165.277 355.272 165.919 354.719 166.455C354.167 166.99 353.512 167.41 352.794 167.689C352.077 167.967 351.31 168.099 350.541 168.076Z" fill="#BDD0FB"/>
<path d="M345.427 258.177L283.211 256.335C281.715 256.29 280.295 255.665 279.252 254.592C278.21 253.519 277.627 252.082 277.627 250.586L277.927 222.112C277.933 221.499 278.061 220.895 278.303 220.332C278.546 219.77 278.897 219.261 279.338 218.836C279.778 218.411 280.299 218.077 280.869 217.854C281.44 217.631 282.049 217.524 282.661 217.538L350.27 219.129C351.033 219.117 351.791 219.257 352.5 219.54C353.208 219.824 353.853 220.245 354.397 220.781C354.941 221.316 355.373 221.954 355.668 222.657C355.963 223.361 356.115 224.116 356.115 224.879V247.808C356.115 249.196 355.836 250.57 355.295 251.849C354.754 253.127 353.961 254.284 352.965 255.251C351.968 256.218 350.787 256.975 349.492 257.478C348.198 257.98 346.815 258.218 345.427 258.177Z" fill="#BDD0FB"/>
<path d="M350.191 215.143L283.213 213.027C280.103 212.929 277.629 210.213 277.629 206.898L277.921 176.591C277.952 173.368 280.468 170.804 283.491 170.914L350.272 173.351C353.485 173.297 356.117 176.059 356.117 179.483V209.013C356.116 212.471 353.435 215.245 350.191 215.143Z" fill="#BDD0FB"/>
<path d="M267.919 245.443L51.4081 244.475C49.5279 244.466 48.0098 243.314 48.0098 241.896V240.166C48.0098 238.736 49.5532 237.579 51.4506 237.588L267.962 238.637C269.841 238.646 271.358 239.798 271.358 241.215V242.864C271.358 244.294 269.815 245.451 267.919 245.443Z" fill="#BDD0FB"/>
<path d="M166.348 257.314L49.6868 256.346C48.6736 256.337 47.8555 255.186 47.8555 253.768V252.038C47.8555 250.607 48.6875 249.45 49.7095 249.459L166.371 250.508C167.383 250.517 168.201 251.669 168.201 253.087V254.735C168.201 256.166 167.37 257.323 166.348 257.314Z" fill="#BDD0FB"/>
<path d="M389.834 401.063L390.594 414.385C390.594 414.385 377.298 419.631 377.199 422.106L403.1 421.561L402.768 400.757L389.834 401.063Z" fill="#455A64"/>
<path d="M398.578 413.095C398.829 413.166 399.045 413.326 399.184 413.546C399.324 413.765 399.377 414.029 399.335 414.285C399.274 414.538 399.118 414.758 398.899 414.899C398.681 415.041 398.416 415.093 398.16 415.045C397.654 414.928 397.204 414.274 397.366 413.78C397.527 413.285 398.212 412.89 398.675 413.125" fill="#E0E0E0"/>
<g opacity="0.6">
<g opacity="0.6">
<g opacity="0.6">
<g opacity="0.6">
<g opacity="0.6">
<g opacity="0.6">
<g opacity="0.6">
<g opacity="0.6">
<g opacity="0.6">
<g opacity="0.6">
<g opacity="0.6">
<g opacity="0.6">
<g opacity="0.6">
<path opacity="0.6" d="M403.099 421.562L402.983 419.466L378.194 420.771C378.194 420.771 377.051 421.297 377.199 422.106L403.099 421.562Z" fill="white"/>
</g>
</g>
</g>
</g>
</g>
</g>
</g>
</g>
</g>
</g>
</g>
</g>
</g>
<path d="M390.171 414.262C390.177 414.388 390.811 414.432 391.442 414.825C392.083 415.202 392.415 415.743 392.531 415.69C392.646 415.663 392.442 414.911 391.67 414.449C390.902 413.98 390.141 414.147 390.171 414.262Z" fill="#263238"/>
<path d="M387.478 415.442C387.45 415.565 388.004 415.768 388.444 416.294C388.9 416.807 389.021 417.383 389.146 417.375C389.266 417.392 389.338 416.65 388.778 416.007C388.222 415.358 387.478 415.321 387.478 415.442Z" fill="#263238"/>
<path d="M386.003 418.723C386.118 418.747 386.281 418.112 385.942 417.427C385.607 416.739 385.005 416.479 384.953 416.585C384.884 416.691 385.276 417.054 385.546 417.621C385.829 418.182 385.877 418.714 386.003 418.723Z" fill="#263238"/>
<path d="M390.333 411.206C390.388 411.321 390.965 411.134 391.681 411.168C392.397 411.187 392.958 411.415 393.022 411.305C393.094 411.212 392.54 410.756 391.697 410.728C390.853 410.694 390.268 411.109 390.333 411.206Z" fill="#263238"/>
<path d="M372.038 401.575L373.213 414.866C373.213 414.866 360.089 420.524 360.066 423.001L385.936 421.649L384.955 400.865L372.038 401.575Z" fill="#455A64"/>
<path d="M381.154 413.327C381.407 413.39 381.628 413.544 381.774 413.759C381.921 413.974 381.983 414.236 381.948 414.494C381.895 414.749 381.745 414.973 381.531 415.121C381.317 415.269 381.054 415.33 380.797 415.29C380.287 415.188 379.816 414.548 379.963 414.051C380.109 413.553 380.781 413.134 381.251 413.355" fill="#E0E0E0"/>
<g opacity="0.6">
<g opacity="0.6">
<g opacity="0.6">
<g opacity="0.6">
<g opacity="0.6">
<g opacity="0.6">
<g opacity="0.6">
<g opacity="0.6">
<g opacity="0.6">
<g opacity="0.6">
<g opacity="0.6">
<g opacity="0.6">
<g opacity="0.6">
<path opacity="0.6" d="M385.936 421.649L385.755 419.557L361.019 421.636C361.019 421.636 359.894 422.196 360.067 423L385.936 421.649Z" fill="white"/>
</g>
</g>
</g>
</g>
</g>
</g>
</g>
</g>
</g>
</g>
</g>
</g>
</g>
<path d="M372.786 414.756C372.797 414.882 373.432 414.906 374.074 415.279C374.727 415.636 375.076 416.166 375.19 416.11C375.305 416.079 375.077 415.334 374.29 414.896C373.509 414.451 372.753 414.641 372.786 414.756Z" fill="#263238"/>
<path d="M370.132 416.019C370.109 416.143 370.667 416.329 371.124 416.841C371.596 417.338 371.735 417.91 371.86 417.898C371.98 417.912 372.029 417.168 371.448 416.543C370.874 415.913 370.127 415.899 370.132 416.019Z" fill="#263238"/>
<path d="M368.761 419.344C368.877 419.366 369.02 418.726 368.659 418.051C368.304 417.374 367.694 417.133 367.646 417.241C367.58 417.348 367.983 417.699 368.27 418.257C368.571 418.808 368.635 419.339 368.761 419.344Z" fill="#263238"/>
<path d="M372.855 411.696C372.914 411.809 373.484 411.604 374.201 411.615C374.918 411.612 375.486 411.823 375.546 411.711C375.615 411.616 375.048 411.176 374.203 411.175C373.36 411.168 372.788 411.601 372.855 411.696Z" fill="#263238"/>
<path d="M400.413 307.089C400.413 307.089 371.634 314.882 370.738 315.169L369.879 317.709C369.7 318.437 363.904 346.036 361.197 358.933C360.294 363.236 360.281 367.678 361.157 371.987L369.718 414.167L386.578 414.196L381.029 366.335C381.029 366.335 397.3 327.39 398.063 326.413C398.826 325.436 405.711 318.209 400.413 307.089Z" fill="#263238"/>
<path d="M399.601 320.455L405 411.528L388.718 411.5L383.503 368.175L379.619 346.552L383.894 319.492L399.601 320.455Z" fill="#263238"/>
<path d="M401.425 320.792C401.353 321.129 401.246 321.458 401.106 321.773C400.712 322.682 400.233 323.551 399.675 324.37C399.32 324.91 398.906 325.498 398.429 326.124C398.189 326.436 397.936 326.76 397.665 327.09C397.376 327.417 397.15 327.794 396.997 328.202C396.245 329.875 395.434 331.809 394.537 333.951C392.76 338.25 390.637 343.382 388.266 349.118C387.087 351.992 385.847 355.018 384.556 358.164C383.912 359.738 383.256 361.342 382.587 362.975C382.421 363.382 382.254 363.792 382.085 364.204C381.907 364.605 381.754 365.017 381.63 365.438C381.4 366.287 381.367 367.178 381.533 368.042L381.535 368.049L381.535 368.056C381.742 369.886 381.963 371.829 382.185 373.795C383.948 389.561 385.543 403.832 386.7 414.183L386.715 414.32L386.579 414.319L374.242 414.243C372.799 414.226 371.672 414.213 370.888 414.205C370.517 414.197 370.228 414.191 370.016 414.186C369.917 414.188 369.817 414.181 369.719 414.168C369.817 414.154 369.917 414.149 370.016 414.15L370.888 414.135C371.672 414.129 372.799 414.12 374.242 414.108C377.172 414.1 381.382 414.088 386.579 414.074L386.457 414.21C385.274 403.862 383.644 389.594 381.842 373.833C381.62 371.867 381.4 369.924 381.194 368.093L381.196 368.106C381.021 367.191 381.056 366.248 381.3 365.348C381.429 364.914 381.586 364.488 381.77 364.074L382.274 362.845C382.945 361.215 383.603 359.612 384.25 358.037C385.548 354.893 386.796 351.871 387.982 349C390.361 343.263 392.501 338.136 394.323 333.86C395.236 331.723 396.06 329.796 396.832 328.125C396.996 327.705 397.235 327.318 397.535 326.981C397.808 326.655 398.064 326.336 398.307 326.027C398.79 325.41 399.21 324.831 399.571 324.299C400.136 323.493 400.63 322.638 401.047 321.746C401.325 321.133 401.402 320.785 401.425 320.792Z" fill="#455A64"/>
<path d="M329.15 273.561L334.944 267.567L343.59 284.707L344.083 282.921L350.717 285.293C350.717 285.293 347.29 298.235 346.221 298.709C345.152 299.184 336.707 297.868 335.777 296.159C334.848 294.449 329.15 273.561 329.15 273.561Z" fill="#FFBE9D"/>
<path d="M351.382 239.419C351.575 237.767 351.767 236.098 351.587 234.445C351.408 232.792 350.819 231.131 349.647 229.95C348.962 229.26 348.099 228.751 347.483 227.998C346.635 226.962 346.283 225.5 345.171 224.755C343.432 223.592 341.11 224.872 339.024 224.698C337.399 224.562 335.914 223.52 334.286 223.593C332.863 223.656 331.621 224.56 330.589 225.54C329.556 226.52 328.607 227.632 327.347 228.296C326.449 228.768 325.441 228.986 324.497 229.359C323.553 229.732 322.619 230.317 322.2 231.241C321.781 232.165 322.102 233.465 323.056 233.811C321.286 234.145 320.333 236.387 320.981 238.067C321.628 239.746 323.451 240.761 325.247 240.894C327.043 241.026 328.814 240.424 330.449 239.67C335.079 237.534 339.197 233.95 341.142 229.24" fill="#263238"/>
<path d="M348.145 233.838L360.136 256.223C362.175 260.03 359.909 269.236 356.003 271.083C352.359 272.807 350.068 270.576 348.168 267.021C347.267 265.336 345.149 260.252 345.044 260.085C345.044 260.085 339.055 262.599 335.621 257.18C333.962 254.56 330.985 248.888 328.351 243.725C326.987 241.049 326.682 237.96 327.495 235.07C328.308 232.18 330.18 229.701 332.739 228.128L333.266 227.804C339.157 224.636 345.14 227.866 348.145 233.838Z" fill="#FFBE9D"/>
<path d="M345.045 260.084C345.045 260.084 348.614 258.167 350.865 253.604C350.865 253.604 351.564 258.965 345.807 261.83L345.045 260.084Z" fill="#EB996E"/>
<path d="M332.13 248.298C332.29 248.34 332.611 247.539 333.453 247.024C334.285 246.498 335.168 246.55 335.196 246.392C335.213 246.319 335.001 246.196 334.613 246.166C334.094 246.137 333.579 246.27 333.139 246.546C332.701 246.813 332.36 247.213 332.165 247.687C332.029 248.044 332.055 248.282 332.13 248.298Z" fill="#263238"/>
<path d="M340.56 242.945C340.683 243.149 340.881 243.297 341.112 243.358C341.343 243.418 341.589 243.386 341.797 243.268C341.901 243.215 341.993 243.142 342.069 243.052C342.144 242.963 342.201 242.859 342.235 242.747C342.27 242.636 342.282 242.518 342.27 242.402C342.259 242.285 342.224 242.173 342.168 242.07C342.045 241.866 341.847 241.717 341.616 241.657C341.385 241.596 341.139 241.628 340.931 241.745C340.827 241.798 340.734 241.872 340.659 241.962C340.584 242.051 340.527 242.155 340.492 242.267C340.458 242.379 340.446 242.496 340.457 242.613C340.469 242.729 340.504 242.842 340.56 242.945Z" fill="#263238"/>
<path d="M339.198 240.388C339.358 240.43 339.68 239.629 340.521 239.114C341.354 238.589 342.236 238.641 342.264 238.482C342.281 238.409 342.07 238.286 341.68 238.256C341.162 238.228 340.648 238.361 340.208 238.636C339.77 238.904 339.429 239.303 339.233 239.777C339.098 240.134 339.123 240.372 339.198 240.388Z" fill="#263238"/>
<path d="M340.316 248.858C340.29 248.808 339.713 249.039 338.801 249.451C338.572 249.561 338.343 249.644 338.217 249.519C338.071 249.395 338.018 249.109 337.968 248.796C337.851 248.153 337.727 247.479 337.597 246.774C337.046 243.908 336.506 241.605 336.391 241.629C336.276 241.652 336.628 243.993 337.18 246.858C337.321 247.562 337.456 248.234 337.584 248.874C337.653 249.168 337.684 249.53 337.991 249.784C338.068 249.84 338.158 249.878 338.252 249.895C338.347 249.912 338.444 249.907 338.536 249.881C338.675 249.839 338.808 249.781 338.932 249.707C339.811 249.229 340.342 248.908 340.316 248.858Z" fill="#263238"/>
<path d="M343.145 247.918C343.004 247.994 343.563 248.905 343.182 250.033C342.801 251.16 341.768 251.656 341.839 251.788C341.862 251.853 342.164 251.832 342.582 251.59C343.12 251.269 343.529 250.769 343.735 250.177C343.931 249.608 343.899 248.985 343.646 248.439C343.445 248.037 343.204 247.874 343.145 247.918Z" fill="#263238"/>
<path d="M337.285 237.602C337.508 237.779 338.28 237.155 339.339 236.668C340.388 236.159 341.359 235.958 341.364 235.673C341.362 235.539 341.091 235.409 340.634 235.386C340.038 235.38 339.449 235.508 338.91 235.763C338.372 236.018 337.898 236.391 337.526 236.856C337.254 237.225 337.183 237.516 337.285 237.602Z" fill="#263238"/>
<path d="M330.844 245.515C331.11 245.614 331.566 245.061 332.256 244.623C332.93 244.162 333.62 243.96 333.632 243.677C333.632 243.544 333.422 243.41 333.053 243.388C332.574 243.385 332.105 243.524 331.705 243.787C331.305 244.051 330.992 244.427 330.807 244.869C330.682 245.216 330.722 245.462 330.844 245.515Z" fill="#263238"/>
<path d="M350.191 238.157C350.259 238.059 353.263 234.736 355.445 238.543C357.627 242.351 353.35 243.754 353.281 243.648C353.212 243.543 350.191 238.157 350.191 238.157Z" fill="#FFBE9D"/>
<path d="M353.618 241.541C353.628 241.519 353.711 241.549 353.852 241.536C354.049 241.513 354.229 241.415 354.354 241.262C354.672 240.885 354.646 240.052 354.271 239.355C354.093 239.023 353.844 238.735 353.541 238.512C353.265 238.3 352.973 238.208 352.75 238.289C352.662 238.312 352.585 238.365 352.533 238.44C352.48 238.514 352.455 238.604 352.463 238.695C352.473 238.83 352.54 238.892 352.524 238.911C352.518 238.926 352.405 238.894 352.346 238.719C352.313 238.612 352.318 238.498 352.359 238.394C352.419 238.255 352.531 238.145 352.671 238.087C352.977 237.939 353.396 238.058 353.703 238.281C354.054 238.518 354.341 238.837 354.541 239.21C354.956 239.992 354.974 240.934 354.515 241.408C354.43 241.496 354.326 241.564 354.211 241.607C354.096 241.65 353.972 241.666 353.85 241.655C353.678 241.629 353.609 241.555 353.618 241.541Z" fill="#EB996E"/>
<path d="M325.151 238.679C326.404 239.92 330.201 239.173 332.534 237.409C334.685 235.782 334.994 233.921 336.038 232.012C336.699 230.804 336.699 230.804 338.228 230.05C339.465 229.441 340.971 230.339 342.258 230.83C342.913 234.256 345.531 236.917 348.026 239.356C348.302 239.626 348.608 239.911 348.992 239.95C349.643 240.017 350.141 239.345 350.278 238.705C350.497 237.68 350.175 236.621 349.791 235.647C348.917 233.426 347.69 231.321 346.022 229.613C344.355 227.904 342.23 226.604 339.894 226.105C336.976 225.481 333.84 226.155 331.323 227.758C328.806 229.362 326.903 231.847 325.819 234.626C325.315 235.915 324.978 237.306 325.152 238.679" fill="#263238"/>
<path d="M358.018 251.991C358.018 251.991 350.892 267.032 348.539 266.503C348.069 266.397 346.939 263.989 346.939 263.989L344.846 270.844C344.846 270.844 361.08 297.545 364.17 302.245C365.714 304.595 366.582 306.418 367.064 307.653C367.555 308.913 367.769 312.293 369.017 312.895L368.937 318.265C368.937 318.265 391.108 326.391 404.395 316.482L403.361 311.591C403.361 311.591 394.159 287.941 391.017 282.224C390.14 280.63 382.932 264.83 372.832 258.473C364.038 252.94 358.018 251.991 358.018 251.991Z" fill="#FF6D34"/>
<path d="M345.033 271.05C344.523 271.451 343.014 283.158 343.014 283.158L353.509 287.344L354.062 280.072L345.033 271.05Z" fill="#FF6D34"/>
<path d="M320.488 283.619L343.869 288.539L350.72 278.706L362.798 287.359C362.798 287.359 355.969 295.569 351.649 299.514C350.262 300.781 348.349 301.466 346.489 301.022C344.247 300.487 317.717 290.314 317.717 290.314L320.488 283.619Z" fill="#FFBE9D"/>
<path d="M320.488 283.619C320.488 283.619 320.434 283.779 320.319 284.074C320.196 284.382 320.025 284.814 319.802 285.374C319.339 286.522 318.665 288.191 317.795 290.345L317.747 290.235L336.24 297.18L342.31 299.414C343.361 299.794 344.433 300.182 345.525 300.548C346.073 300.73 346.613 300.918 347.179 300.969C347.751 301.019 348.327 300.975 348.885 300.837C350.03 300.531 351.069 299.916 351.887 299.058C352.777 298.228 353.643 297.347 354.506 296.445C356.23 294.639 357.934 292.738 359.641 290.785C360.671 289.602 361.679 288.424 362.666 287.248L362.697 287.498C358.474 284.468 354.421 281.561 350.625 278.837L350.851 278.798C348.396 282.31 346.095 285.601 343.985 288.621L343.931 288.698L343.839 288.678C336.8 287.167 330.979 285.917 326.898 285.041C324.87 284.598 323.276 284.25 322.17 284.008C321.636 283.888 321.22 283.795 320.922 283.728C320.639 283.662 320.488 283.62 320.488 283.62C320.488 283.62 320.625 283.637 320.902 283.689C321.197 283.748 321.607 283.828 322.133 283.931C323.237 284.155 324.828 284.476 326.85 284.886C330.956 285.732 336.814 286.941 343.898 288.401L343.752 288.459C345.852 285.433 348.142 282.135 350.586 278.615L350.68 278.48L350.813 278.576C354.614 281.294 358.671 284.196 362.898 287.22L363.049 287.327L362.93 287.47C361.945 288.648 360.935 289.829 359.902 291.013C358.192 292.969 356.485 294.873 354.752 296.682C353.886 297.586 353.017 298.47 352.118 299.305C351.257 300.201 350.165 300.843 348.963 301.161C348.369 301.306 347.756 301.352 347.147 301.298C346.539 301.242 345.968 301.041 345.422 300.858C344.322 300.487 343.253 300.096 342.201 299.713C340.103 298.932 338.082 298.181 336.137 297.458C328.387 294.537 322.003 292.072 317.687 290.392L317.605 290.361L317.639 290.281C318.553 288.124 319.262 286.454 319.749 285.305C319.985 284.758 320.166 284.336 320.296 284.035C320.419 283.753 320.488 283.619 320.488 283.619Z" fill="#EB996E"/>
<path d="M333.846 265.215C333.846 265.215 328.23 258.871 326.236 258.326C324.243 257.782 317.361 259.35 317.305 260.229C317.249 261.108 318.293 262.382 318.293 262.382C318.293 262.382 316.319 262.835 316.063 263.522C315.91 263.939 315.89 264.392 316.006 264.821L318.76 265.409L321.647 267.256C321.816 268.041 322.254 268.742 322.884 269.239C323.921 270.029 327.441 271.344 328.294 271.467L329.52 274.716L335.778 269.353L333.846 265.215Z" fill="#FFBE9D"/>
<path d="M358.822 262.808C358.562 263.206 347.195 281.29 347.195 281.29C347.195 281.29 358.493 288.301 363.839 288.539L368.281 282.751L375.152 272.162C375.152 272.162 377.456 264.643 374.204 261.276C370.241 257.175 363.566 255.563 358.822 262.808Z" fill="#FF6D34"/>
<path d="M345.758 273.116C345.753 273.118 345.745 273.116 345.735 273.107C345.732 273.102 345.729 273.097 345.727 273.092C345.793 273.049 345.764 273.094 345.777 273.084L345.8 273.105C345.844 273.151 345.885 273.201 345.922 273.254C346.02 273.387 346.149 273.586 346.301 273.835C346.606 274.335 347.004 275.038 347.423 275.824C348.263 277.398 348.871 278.712 348.787 278.757C348.702 278.801 347.958 277.561 347.118 275.988C346.699 275.202 346.336 274.48 346.086 273.952C345.961 273.688 345.864 273.472 345.804 273.319C345.779 273.261 345.758 273.201 345.74 273.141L345.733 273.114C345.737 273.1 345.717 273.127 345.763 273.091C345.777 273.091 345.763 273.091 345.767 273.094C345.766 273.106 345.764 273.114 345.758 273.116Z" fill="#263238"/>
<path d="M375.15 272.162L367.998 282.526L363.837 288.539C358.491 288.301 347.193 281.29 347.193 281.29C347.193 281.29 358.56 263.205 358.82 262.808C358.82 262.808 363.556 254.843 370.078 258.214" fill="#FF6D34"/>
<path d="M370.079 258.214C370.019 258.203 369.961 258.185 369.905 258.16C369.776 258.111 369.613 258.048 369.411 257.97C368.786 257.713 368.125 257.553 367.451 257.495C366.578 257.4 365.485 257.536 364.328 257.996C363.171 258.463 361.984 259.3 360.878 260.423C360.301 261.015 359.772 261.652 359.297 262.329C358.816 263.036 358.352 263.826 357.851 264.614C356.856 266.206 355.793 267.907 354.672 269.698C352.423 273.281 349.948 277.226 347.341 281.382L347.285 281.143C347.677 281.378 348.099 281.631 348.522 281.885C351.148 283.425 353.763 284.818 356.319 286C358.878 287.138 361.398 288.18 363.844 288.386L363.711 288.451C367.095 283.6 369.937 279.526 371.95 276.64C372.946 275.228 373.735 274.109 374.292 273.321C374.556 272.955 374.765 272.666 374.921 272.451C374.989 272.348 375.066 272.251 375.151 272.161C375.098 272.272 375.034 272.379 374.962 272.479C374.816 272.701 374.62 272.999 374.372 273.375C373.832 274.176 373.066 275.311 372.1 276.743C370.112 279.646 367.305 283.745 363.964 288.625L363.915 288.698L363.832 288.691C361.289 288.489 358.762 287.443 356.181 286.305C353.608 285.122 350.984 283.728 348.348 282.182C347.922 281.926 347.498 281.672 347.104 281.436L346.955 281.346L347.05 281.198C349.667 277.048 352.151 273.109 354.407 269.531C355.537 267.746 356.61 266.051 357.614 264.465C358.124 263.674 358.582 262.905 359.085 262.178C359.573 261.494 360.117 260.851 360.709 260.254C361.846 259.123 363.067 258.282 364.259 257.82C365.453 257.365 366.576 257.246 367.466 257.364C368.352 257.482 369.022 257.692 369.438 257.906C369.636 257.997 369.795 258.069 369.922 258.128C369.978 258.15 370.031 258.179 370.079 258.214Z" fill="#263238"/>
<path d="M370.062 310.668C375.664 309.506 381.109 307.685 386.282 305.243L370.062 310.668Z" fill="#FF6D34"/>
<path d="M386.282 305.242C386.292 305.264 386.084 305.385 385.699 305.587C385.313 305.788 384.748 306.063 384.041 306.385C382.195 307.218 380.308 307.957 378.388 308.598C376.467 309.242 374.515 309.788 372.538 310.233C371.78 310.401 371.162 310.523 370.733 310.592C370.304 310.662 370.065 310.692 370.061 310.668C370.05 310.618 370.983 310.392 372.48 309.996C373.978 309.6 376.037 309.019 378.277 308.272C380.516 307.521 382.51 306.746 383.943 306.161C385.377 305.576 386.26 305.195 386.282 305.242Z" fill="#263238"/>
<path d="M374.156 312.895C381.966 312.925 389.728 311.683 397.138 309.219L374.156 312.895Z" fill="#FF6D34"/>
<path d="M397.138 309.219C397.145 309.241 396.84 309.363 396.283 309.564C395.727 309.768 394.912 310.034 393.897 310.336C391.247 311.116 388.551 311.726 385.824 312.163C383.097 312.599 380.344 312.86 377.583 312.945C376.525 312.975 375.667 312.976 375.075 312.956C374.483 312.939 374.156 312.917 374.156 312.894C374.156 312.87 374.483 312.845 375.074 312.821C375.665 312.8 376.519 312.762 377.573 312.701C379.681 312.582 382.589 312.328 385.77 311.821C388.95 311.311 391.791 310.646 393.831 310.101C394.852 309.831 395.676 309.601 396.243 309.436C396.811 309.275 397.13 309.196 397.138 309.219Z" fill="#263238"/>
<g opacity="0.3">
<g opacity="0.3">
<path opacity="0.3" d="M358.205 292.753C360.07 292.385 361.26 291.88 363.125 291.511C363.932 291.351 364.753 291.186 365.474 290.792C366.187 290.399 366.763 289.804 367.299 289.192C370.977 284.976 373.26 279.726 373.835 274.162L363.839 288.539L362.072 288.337L358.205 292.753Z" fill="black"/>
</g>
</g>
<g opacity="0.3">
<g opacity="0.3">
<path opacity="0.3" d="M371.317 311.999L370.521 312.028C376.996 313.38 383.703 313.135 390.061 311.312C391.396 310.928 392.795 310.416 393.62 309.299C386.287 310.892 378.82 311.796 371.317 311.999Z" fill="black"/>
</g>
</g>
<path d="M287.055 275.243L285.989 267.567C285.989 267.567 281.275 270.947 281.275 271.053V275.455L287.055 275.243Z" fill="#E0E0E0"/>
<path d="M285.157 267.646L284.32 269.289L299.963 277.242L300.8 275.599L285.157 267.646Z" fill="#E0E0E0"/>
<path d="M299.964 277.242C300.02 277.087 300.085 276.936 300.16 276.789C300.307 276.476 300.498 276.072 300.736 275.566L300.768 275.664C298.034 274.34 292.026 271.331 285.081 267.8H285.079L285.312 267.724V267.726L285.31 267.73L285.306 267.736L285.3 267.749L285.286 267.776L285.259 267.829L285.205 267.935L285.098 268.144L284.886 268.56C284.746 268.835 284.608 269.105 284.475 269.367L284.4 269.136C288.762 271.358 292.629 273.363 295.428 274.826C296.801 275.547 297.92 276.136 298.74 276.567L299.643 277.053C299.754 277.108 299.862 277.171 299.964 277.242C299.859 277.21 299.758 277.168 299.662 277.115C299.427 277.002 299.133 276.862 298.773 276.689C297.95 276.286 296.827 275.734 295.45 275.057C292.626 273.661 288.672 271.689 284.244 269.442L284.09 269.364L284.168 269.211C284.301 268.949 284.438 268.68 284.579 268.404L284.79 267.987L284.897 267.777L284.951 267.673L284.978 267.62L284.992 267.593L284.998 267.579L285.002 267.572L285.003 267.569L285.004 267.568V267.568C285.108 267.534 284.773 267.644 285.237 267.493H285.238C292.184 271.024 298.154 274.106 300.834 275.534L300.9 275.57L300.866 275.632C300.589 276.138 300.368 276.542 300.197 276.854C300.13 276.99 300.053 277.12 299.964 277.242Z" fill="#263238"/>
<path d="M293.127 275.293C293.127 275.293 295.148 270.944 295.323 271.084C295.498 271.224 313.404 280.108 313.355 280.267C313.306 280.426 309.531 285.638 309.531 285.638L293.127 275.293Z" fill="#263238"/>
<path d="M223.614 210.603C221.492 212.732 220.051 216.027 219.946 219.029C219.84 222.032 220.574 225.021 221.734 227.792L230.97 207.229C228.031 207.457 225.618 208.592 223.614 210.603Z" fill="#EBEBEB"/>
<path d="M284.073 260.77L280.795 259.009L280.218 260.081L283.497 261.842L284.073 260.77Z" fill="#E0E0E0"/>
<path d="M281.964 258.093L280.479 257.296L278.551 260.884L280.036 261.681L281.964 258.093Z" fill="#E0E0E0"/>
<path d="M234.747 418.91C234.565 418.859 234.394 418.772 234.246 418.654C234.098 418.536 233.976 418.39 233.885 418.224C233.795 418.057 233.738 417.875 233.72 417.687C233.701 417.499 233.72 417.309 233.777 417.128L276.184 285.82L279.003 286.665L236.596 417.974C236.47 418.34 236.206 418.642 235.861 418.817C235.516 418.991 235.116 419.025 234.747 418.91Z" fill="#E0E0E0"/>
<path d="M234.746 418.91C234.98 418.965 235.222 418.973 235.459 418.932C235.748 418.874 236.013 418.733 236.222 418.526C236.492 418.288 236.594 417.881 236.732 417.437C237.3 415.653 238.135 413.034 239.209 409.662C241.377 402.908 244.511 393.142 248.385 381.07C256.171 356.921 266.931 323.546 278.838 286.612L278.953 286.83C278.515 286.699 278.04 286.556 277.565 286.413C277.074 286.266 276.586 286.119 276.134 285.984L276.349 285.872C264.402 322.798 253.61 356.155 245.802 380.287C241.885 392.343 238.716 402.091 236.525 408.834C235.424 412.196 234.57 414.807 233.987 416.585C233.844 417.028 233.678 417.415 233.754 417.765C233.8 418.055 233.936 418.324 234.143 418.534C234.315 418.7 234.521 418.828 234.746 418.91C234.687 418.896 234.629 418.877 234.572 418.854C234.347 418.763 234.149 418.616 233.997 418.427C233.845 418.237 233.743 418.013 233.702 417.773C233.619 417.408 233.785 417.001 233.922 416.564C234.49 414.781 235.324 412.164 236.398 408.794C238.564 402.042 241.697 392.282 245.571 380.213C253.353 356.072 264.111 322.704 276.02 285.766L276.072 285.605L276.234 285.653C276.686 285.789 277.174 285.936 277.665 286.083L279.053 286.499L279.222 286.55L279.168 286.718C267.221 323.64 256.427 357.004 248.616 381.145C244.698 393.203 241.528 402.956 239.336 409.703C238.235 413.066 237.38 415.678 236.798 417.458C236.722 417.679 236.662 417.887 236.585 418.083C236.511 418.263 236.4 418.427 236.259 418.563C236.041 418.773 235.764 418.913 235.465 418.966C235.285 418.996 235.102 418.994 234.923 418.959C234.863 418.947 234.804 418.93 234.746 418.91Z" fill="#263238"/>
<path d="M283.709 417.552L282.805 286.167L285.756 286.15L286.661 417.534C286.659 417.724 286.619 417.912 286.544 418.087C286.469 418.262 286.361 418.421 286.225 418.554C286.088 418.687 285.927 418.791 285.751 418.862C285.574 418.933 285.385 418.968 285.194 418.966C284.81 418.975 284.438 418.831 284.159 418.566C283.881 418.301 283.719 417.936 283.709 417.552Z" fill="#E0E0E0"/>
<path d="M283.709 417.552C283.725 417.783 283.791 418.008 283.902 418.211C284.046 418.455 284.259 418.653 284.513 418.779C284.866 418.953 285.273 418.981 285.647 418.856C285.881 418.78 286.091 418.644 286.256 418.462C286.421 418.28 286.536 418.058 286.589 417.818C286.644 417.285 286.593 416.661 286.599 416.008C286.586 414.69 286.57 413.172 286.552 411.464C286.492 404.617 286.405 394.725 286.297 382.503C286.116 358.043 285.866 324.264 285.589 286.956C285.587 286.68 285.586 286.404 285.584 286.15L285.757 286.321C284.73 286.327 283.738 286.333 282.806 286.339L282.978 286.165C283.208 322.642 283.416 355.485 283.566 379.218C283.624 391.076 283.672 400.657 283.705 407.282C283.714 410.585 283.721 413.15 283.725 414.899C283.724 415.763 283.723 416.424 283.722 416.878C283.719 417.324 283.709 417.552 283.709 417.552C283.709 417.552 283.696 417.324 283.687 416.878C283.68 416.425 283.67 415.763 283.657 414.899C283.638 413.151 283.609 410.586 283.573 407.284C283.514 400.658 283.43 391.078 283.325 379.22C283.148 355.487 282.904 322.644 282.632 286.168L282.631 285.995H282.804C283.737 285.99 284.728 285.984 285.756 285.978L285.928 285.976L285.929 286.149C285.931 286.403 285.933 286.679 285.935 286.955C286.172 324.263 286.386 358.042 286.542 382.503C286.603 394.725 286.652 404.618 286.687 411.464C286.692 413.172 286.697 414.691 286.702 416.008C286.69 416.67 286.738 417.267 286.674 417.837C286.615 418.09 286.492 418.323 286.316 418.514C286.139 418.705 285.916 418.846 285.668 418.924C285.278 419.049 284.854 419.014 284.489 418.827C284.229 418.692 284.014 418.484 283.872 418.228C283.787 418.073 283.734 417.904 283.714 417.729C283.708 417.67 283.706 417.611 283.709 417.552Z" fill="#263238"/>
<path d="M332.154 417.608L290.475 286.545L293.298 285.716L334.975 416.775C335.03 416.956 335.049 417.146 335.029 417.334C335.009 417.523 334.952 417.705 334.861 417.871C334.769 418.037 334.645 418.182 334.496 418.299C334.348 418.417 334.177 418.503 333.994 418.552C333.625 418.665 333.226 418.63 332.882 418.453C332.539 418.277 332.277 417.974 332.154 417.608Z" fill="#E0E0E0"/>
<path d="M332.153 417.609C332.24 417.835 332.377 418.038 332.554 418.204C332.775 418.402 333.05 418.53 333.345 418.57C333.547 418.598 333.752 418.585 333.948 418.531C334.144 418.478 334.328 418.385 334.487 418.258C334.687 418.096 334.837 417.882 334.921 417.639C335.004 417.396 335.017 417.134 334.958 416.884C334.782 416.331 334.589 415.728 334.379 415.074C333.958 413.763 333.472 412.251 332.924 410.551C330.744 403.735 327.592 393.885 323.697 381.715C315.935 357.35 305.216 323.702 293.378 286.54C293.294 286.276 293.21 286.012 293.133 285.768L293.346 285.882L290.524 286.71L290.639 286.492C302.188 322.878 312.59 355.646 320.106 379.326C323.846 391.164 326.868 400.729 328.958 407.342C329.993 410.642 330.797 413.205 331.344 414.951C331.612 415.816 331.816 416.477 331.956 416.93C332.091 417.377 332.153 417.608 332.153 417.608C332.153 417.608 332.07 417.384 331.923 416.941C331.776 416.49 331.561 415.833 331.279 414.972C330.717 413.23 329.893 410.674 328.832 407.382C326.718 400.777 323.66 391.223 319.876 379.399C312.335 355.727 301.898 322.97 290.31 286.597L290.256 286.429L290.426 286.379C291.317 286.117 292.266 285.839 293.248 285.551L293.41 285.503L293.462 285.664C293.538 285.907 293.623 286.171 293.706 286.434C305.508 323.609 316.193 357.268 323.929 381.64C327.78 393.825 330.896 403.686 333.052 410.509C333.588 412.214 334.064 413.728 334.477 415.042C334.681 415.699 334.87 416.306 335.042 416.863C335.103 417.128 335.086 417.405 334.996 417.661C334.905 417.918 334.744 418.143 334.531 418.312C334.363 418.442 334.171 418.537 333.966 418.59C333.761 418.644 333.547 418.655 333.338 418.622C333.035 418.577 332.753 418.44 332.53 418.23C332.396 418.104 332.288 417.952 332.214 417.783C332.188 417.727 332.168 417.668 332.153 417.609Z" fill="#263238"/>
<path d="M293.652 282.225H274.279V287.237H293.652V282.225Z" fill="#263238"/>
<path d="M287.803 276.126H279.547V282.772H287.803V276.126Z" fill="#263238"/>
<path d="M289.037 273.724H278.201V276.126H289.037V273.724Z" fill="#263238"/>
<path d="M282.835 271.325C284.821 271.325 286.43 269.717 286.43 267.733C286.43 265.749 284.821 264.14 282.835 264.14C280.85 264.14 279.24 265.749 279.24 267.733C279.24 269.717 280.85 271.325 282.835 271.325Z" fill="#E0E0E0"/>
<path d="M290.768 257.791L285.381 255.175L280.369 265.478L285.756 268.095L290.768 257.791Z" fill="#E0E0E0"/>
<path d="M294.998 256.749L283.59 251.203L281.351 255.804L292.759 261.35L294.998 256.749Z" fill="#E0E0E0"/>
<path d="M310.614 251.845L260.689 227.593L255.783 237.68L305.708 261.931L310.614 251.845Z" fill="#455A64"/>
<path d="M268.776 245.537L220.73 227.683L230.729 206.906L274.919 232.918L268.776 245.537Z" fill="#455A64"/>
<path d="M230.158 205.298L219.24 227.727L223.282 229.692L234.2 207.263L230.158 205.298Z" fill="#263238"/>
<path d="M311.328 252.672L323.246 258.138L318.881 266.465L307.207 261.137L311.328 252.672Z" fill="#455A64"/>
<path d="M321.793 260.632L325.999 252.225L329.921 254.359L326.255 262.675L321.793 260.632Z" fill="#455A64"/>
<path d="M330.577 253.983L325.988 251.518L325.41 252.593L329.999 255.058L330.577 253.983Z" fill="#455A64"/>
<path d="M318.883 266.466L326.255 262.675L321.793 260.632L318.883 266.466Z" fill="#455A64"/>
<path d="M284.371 252.307L289.463 240.942L299.169 245.445L294.012 256.928L284.371 252.307Z" fill="#E0E0E0"/>
<path d="M274.89 232.85C274.976 232.892 273.683 235.718 272.002 239.163C270.321 242.607 268.889 245.366 268.803 245.325C268.717 245.283 270.01 242.457 271.692 239.012C273.373 235.566 274.805 232.808 274.89 232.85Z" fill="#263238"/>
<path d="M302.406 260.245C302.365 260.331 298.177 258.4 293.053 255.932C287.929 253.464 283.807 251.393 283.848 251.307C283.889 251.222 288.077 253.152 293.203 255.621C298.329 258.09 302.448 260.159 302.406 260.245Z" fill="#263238"/>
<path d="M292.76 261.35C292.718 261.435 290.131 260.263 286.981 258.732C283.831 257.201 281.31 255.889 281.352 255.804C281.394 255.718 283.981 256.89 287.132 258.422C290.283 259.954 292.802 261.264 292.76 261.35Z" fill="#263238"/>
<path d="M284.372 257.224C284.453 257.267 283.66 258.996 282.665 261.125C281.67 263.258 280.734 264.927 280.646 264.88C280.565 264.837 281.359 263.108 282.353 260.978C283.347 258.848 284.285 257.177 284.372 257.224Z" fill="#263238"/>
<path d="M286.186 267.733C286.152 267.735 286.158 267.436 286.016 266.932C285.812 266.225 285.381 265.605 284.789 265.169C284.313 264.814 283.748 264.598 283.156 264.546C282.564 264.494 281.97 264.607 281.439 264.873C280.908 265.139 280.462 265.547 280.15 266.052C279.838 266.557 279.673 267.139 279.673 267.733C279.673 268.326 279.838 268.908 280.15 269.413C280.462 269.918 280.908 270.326 281.439 270.593C281.97 270.859 282.564 270.972 283.156 270.92C283.748 270.867 284.313 270.652 284.789 270.297C285.381 269.86 285.812 269.24 286.016 268.533C286.158 268.03 286.151 267.731 286.186 267.733C286.198 267.732 286.206 267.806 286.21 267.948C286.214 268.156 286.193 268.363 286.147 268.566C285.981 269.329 285.553 270.01 284.937 270.491C284.477 270.851 283.934 271.088 283.357 271.182C282.781 271.276 282.19 271.222 281.64 271.026C280.959 270.785 280.37 270.338 279.953 269.748C279.536 269.159 279.312 268.454 279.312 267.732C279.312 267.01 279.536 266.306 279.953 265.716C280.37 265.126 280.959 264.68 281.64 264.438C282.19 264.242 282.781 264.189 283.357 264.282C283.934 264.376 284.477 264.614 284.937 264.974C285.553 265.454 285.982 266.136 286.147 266.899C286.193 267.102 286.214 267.31 286.21 267.517C286.206 267.66 286.198 267.733 286.186 267.733Z" fill="#263238"/>
<path d="M308.057 248.628L301.602 261.899L306.295 264.179L312.75 250.908L308.057 248.628Z" fill="#263238"/>
<path d="M261.321 229.333C261.332 229.428 256.551 230.029 250.645 230.674C244.739 231.32 239.942 231.768 239.932 231.673C239.922 231.578 244.7 230.977 250.608 230.332C256.515 229.685 261.312 229.239 261.321 229.333Z" fill="#263238"/>
<path d="M260.05 226.931C260.056 226.978 259.309 227.119 258.094 227.289C256.879 227.46 255.196 227.655 253.33 227.812C251.465 227.969 249.771 228.056 248.545 228.091C247.318 228.125 246.559 228.111 246.557 228.064C246.555 228.015 247.31 227.943 248.531 227.846C249.861 227.741 251.494 227.611 253.301 227.467C255.106 227.308 256.738 227.164 258.067 227.047C259.287 226.939 260.044 226.883 260.05 226.931Z" fill="#263238"/>
<path d="M271.712 233.651C271.664 233.734 263.098 228.793 252.582 222.619C242.062 216.442 233.577 211.369 233.625 211.287C233.674 211.204 242.237 216.144 252.757 222.321C263.273 228.496 271.76 233.569 271.712 233.651Z" fill="white"/>
<path d="M283.408 239.934C283.369 240.021 281.65 239.323 279.57 238.376C277.49 237.429 275.836 236.59 275.876 236.504C275.916 236.417 277.633 237.114 279.713 238.062C281.793 239.01 283.448 239.848 283.408 239.934Z" fill="white"/>
<path d="M312.941 339.304H255.047V343.121H312.941V339.304Z" fill="#263238"/>
<path d="M318.488 290.405L306.232 288.96C306.232 288.96 304.864 287.731 304.956 287.047C305.047 286.364 305.73 286.182 306.551 286.728C307.371 287.275 309.558 286.911 309.558 286.911C309.558 286.911 309.786 286.592 308.875 286.501C307.964 286.41 302.815 285.773 302.495 285.271C302.176 284.77 301.721 284.072 302.313 283.602C302.313 283.602 300.399 283.404 300.126 282.926C299.852 282.448 299.716 281.355 300.49 281.355C301.265 281.355 303.498 281.218 303.498 281.218C303.498 281.218 302.404 280.672 302.496 280.217C302.588 279.762 302.633 279.216 303.179 279.079C303.726 278.942 309.651 278.59 309.651 278.59C309.651 278.59 308.055 277.551 307.634 276.897C307.415 276.557 307.554 275.754 307.554 275.754C307.554 275.754 310.425 277.472 312.43 278.065C312.43 278.065 315.799 279.004 316.892 279.732C317.985 280.461 321.134 283.906 321.134 283.906" fill="#FFBE9D"/>
<path d="M321.134 283.905C321.055 283.845 320.982 283.778 320.916 283.703C320.763 283.547 320.563 283.344 320.312 283.088C319.782 282.551 319.014 281.75 317.989 280.785C317.466 280.312 316.918 279.757 316.13 279.448C315.287 279.093 314.426 278.785 313.549 278.525C313.077 278.385 312.59 278.239 312.088 278.09C311.575 277.916 311.07 277.716 310.577 277.49C309.517 277.007 308.483 276.47 307.478 275.88L307.701 275.779C307.651 276.062 307.649 276.351 307.694 276.635C307.731 276.864 307.992 277.091 308.206 277.298C308.688 277.721 309.2 278.108 309.739 278.456L310.128 278.716L309.661 278.747L305.138 279.055C304.747 279.087 304.353 279.12 303.956 279.153C303.566 279.209 303.118 279.175 302.935 279.411C302.831 279.552 302.762 279.717 302.734 279.89L302.676 280.186C302.669 280.22 302.664 280.253 302.663 280.287C302.67 280.317 302.68 280.346 302.695 280.373C302.858 280.646 303.239 280.884 303.576 281.063L304.131 281.36L303.51 281.388C302.948 281.414 302.37 281.441 301.781 281.467C301.487 281.481 301.19 281.495 300.891 281.508L300.455 281.53C300.404 281.529 300.354 281.54 300.308 281.563C300.263 281.585 300.223 281.617 300.193 281.658C300.062 281.837 300.065 282.161 300.128 282.436C300.159 282.574 300.208 282.707 300.274 282.832C300.352 282.926 300.453 282.996 300.568 283.035C301.107 283.26 301.739 283.353 302.332 283.429L302.764 283.483L302.422 283.734C302.138 283.94 302.153 284.291 302.329 284.637C302.415 284.812 302.512 284.982 302.62 285.144C302.744 285.249 302.892 285.323 303.05 285.357C303.804 285.568 304.57 285.732 305.343 285.848C306.109 285.975 306.867 286.085 307.612 286.183C307.984 286.229 308.354 286.275 308.72 286.32C308.912 286.335 309.102 286.364 309.29 286.408C309.399 286.434 309.502 286.48 309.594 286.545C309.666 286.594 309.716 286.668 309.734 286.753C309.752 286.838 309.736 286.927 309.69 287L309.649 287.055L309.586 287.065C308.918 287.171 308.241 287.203 307.566 287.159C307.224 287.142 306.888 287.058 306.579 286.911C306.289 286.736 306.053 286.597 305.773 286.561C305.653 286.534 305.527 286.547 305.415 286.6C305.304 286.654 305.214 286.743 305.16 286.854C305.043 287.094 305.114 287.325 305.251 287.578C305.547 288.053 305.908 288.484 306.324 288.858L306.25 288.824C309.982 289.288 313.036 289.669 315.188 289.937L317.635 290.261C317.897 290.301 318.108 290.332 318.273 290.356C318.347 290.363 318.42 290.378 318.49 290.402C318.416 290.409 318.342 290.407 318.269 290.396C318.102 290.381 317.89 290.363 317.626 290.34L315.17 290.087C313.015 289.847 309.957 289.506 306.218 289.091L306.175 289.086L306.144 289.057C305.702 288.667 305.318 288.215 305.004 287.716C304.921 287.574 304.862 287.419 304.828 287.258C304.798 287.081 304.822 286.898 304.897 286.735C305.034 286.381 305.471 286.205 305.809 286.269C306.154 286.304 306.472 286.499 306.722 286.646C306.996 286.771 307.292 286.841 307.592 286.854C308.242 286.891 308.893 286.857 309.535 286.752L309.432 286.816C309.419 286.824 309.444 286.834 309.401 286.797C309.342 286.759 309.276 286.731 309.206 286.715C309.035 286.677 308.861 286.652 308.686 286.639C308.318 286.595 307.946 286.551 307.571 286.506C306.822 286.41 306.061 286.303 305.29 286.176C304.498 286.06 303.715 285.894 302.945 285.679C302.841 285.649 302.74 285.61 302.643 285.564C302.585 285.543 302.531 285.514 302.482 285.476C302.425 285.435 302.375 285.384 302.334 285.327C302.218 285.152 302.113 284.97 302.021 284.782C301.913 284.576 301.857 284.345 301.86 284.112C301.869 283.986 301.904 283.862 301.965 283.751C302.025 283.639 302.108 283.542 302.21 283.465L302.298 283.769C301.672 283.688 301.053 283.606 300.428 283.35C300.244 283.284 300.086 283.161 299.975 283.001C299.892 282.847 299.83 282.683 299.792 282.512C299.729 282.183 299.68 281.807 299.918 281.45C299.978 281.37 300.056 281.305 300.144 281.26C300.233 281.214 300.331 281.188 300.43 281.185L300.889 281.162C301.186 281.148 301.481 281.135 301.773 281.122L303.49 281.044L303.424 281.369C303.044 281.152 302.667 280.962 302.393 280.528C302.359 280.465 302.337 280.396 302.326 280.325C302.322 280.257 302.328 280.188 302.343 280.121L302.403 279.815C302.443 279.586 302.538 279.37 302.681 279.187C302.847 279.007 303.077 278.897 303.321 278.881L303.928 278.817L305.115 278.721C306.684 278.62 308.2 278.522 309.645 278.429L309.567 278.721C309.016 278.361 308.492 277.96 308 277.523C307.877 277.414 307.761 277.297 307.653 277.172C307.597 277.107 307.546 277.038 307.499 276.965C307.452 276.883 307.418 276.794 307.399 276.701C307.346 276.379 307.349 276.05 307.408 275.728L307.44 275.514L307.631 275.626C309.714 276.855 311.705 277.814 313.622 278.294C314.504 278.566 315.37 278.888 316.216 279.258C317.027 279.588 317.603 280.184 318.109 280.66C319.121 281.648 319.869 282.469 320.378 283.026L320.951 283.672C321.02 283.743 321.081 283.821 321.134 283.905Z" fill="#EB996E"/>
<path d="M310.255 284.31C310.255 284.355 309.809 284.404 309.09 284.376C308.371 284.352 307.386 284.248 306.306 284.106C305.314 283.969 304.41 283.845 303.546 283.726C302.841 283.629 302.404 283.579 302.404 283.529C302.404 283.414 304.193 283.451 306.351 283.764C307.343 283.896 308.246 284.017 309.11 284.133C309.815 284.222 310.254 284.259 310.255 284.31Z" fill="#EB996E"/>
<path d="M309.855 281.509C309.838 281.59 308.363 281.491 306.516 281.526C305.723 281.538 304.93 281.502 304.142 281.42C303.535 281.346 303.169 281.243 303.176 281.198C303.193 281.118 304.667 281.217 306.516 281.181C307.308 281.169 308.101 281.205 308.889 281.287C309.496 281.361 309.862 281.464 309.855 281.509Z" fill="#EB996E"/>
<path d="M330.012 262.303C329.851 262.261 326.586 262.406 324.928 261.873C323.27 261.341 322.91 261.681 322.685 262.176C322.461 262.672 322.957 264.326 325.288 264.816C327.244 265.228 328.66 265.532 328.66 265.658C328.66 265.658 328.134 268.067 329.245 269.834" fill="#FFBE9D"/>
<path d="M329.247 269.834C329.234 269.842 329.169 269.757 329.057 269.586C328.906 269.332 328.783 269.062 328.692 268.782C328.384 267.759 328.325 266.678 328.521 265.628L328.518 265.658C328.5 265.689 328.554 265.75 328.549 265.741L328.536 265.735C328.52 265.727 328.503 265.719 328.486 265.713L328.356 265.669L328.072 265.59C327.874 265.543 327.672 265.495 327.467 265.447L326.171 265.172C325.722 265.074 325.264 264.998 324.777 264.858C324.278 264.715 323.813 264.473 323.41 264.146C322.874 263.693 322.432 263.063 322.48 262.308C322.513 262.122 322.594 261.949 322.713 261.804C322.832 261.657 322.993 261.55 323.175 261.498C323.493 261.425 323.823 261.427 324.14 261.503C324.425 261.563 324.707 261.639 324.983 261.731C325.233 261.809 325.487 261.872 325.745 261.919C326.214 262.005 326.688 262.067 327.163 262.105C328.916 262.243 330.016 262.225 330.013 262.303C329.759 262.342 329.503 262.361 329.246 262.359C328.751 262.378 328.034 262.392 327.146 262.349C326.66 262.326 326.175 262.277 325.695 262.201C325.423 262.157 325.155 262.097 324.891 262.02C324.625 261.937 324.356 261.869 324.083 261.816C323.816 261.754 323.538 261.753 323.27 261.812C323.154 261.846 323.05 261.916 322.975 262.012C322.894 262.111 322.84 262.229 322.815 262.354C322.777 262.887 323.146 263.491 323.63 263.88C323.999 264.178 324.423 264.4 324.878 264.533C325.32 264.663 325.795 264.747 326.24 264.849C326.685 264.95 327.119 265.049 327.537 265.144L328.149 265.3L328.446 265.389C328.497 265.407 328.544 265.422 328.597 265.445C328.625 265.456 328.653 265.469 328.68 265.484L328.729 265.517C328.771 265.553 328.798 265.603 328.804 265.658L328.803 265.677L328.801 265.689C328.595 266.695 328.611 267.735 328.85 268.735C329.042 269.452 329.284 269.813 329.247 269.834Z" fill="#EB996E"/>
<path d="M87.9698 142.807C87.9698 144.23 87.0307 145.19 85.6553 145.19C84.2634 145.19 83.3242 144.23 83.3242 142.807C83.3242 141.393 84.2634 140.441 85.6553 140.441C87.0307 140.442 87.9698 141.393 87.9698 142.807ZM84.4036 142.824C84.4036 143.663 84.9143 144.238 85.6553 144.238C86.3798 144.238 86.8904 143.662 86.8904 142.824C86.8904 141.986 86.3798 141.41 85.6553 141.41C84.9143 141.41 84.4036 141.986 84.4036 142.824Z" fill="#0367B4"/>
<path d="M93.3895 142.229V145.145H92.311V142.561C92.311 141.906 91.9405 141.505 91.3311 141.505C90.6066 141.514 90.1782 142.082 90.1782 142.849V145.145H89.1074V140.475H90.1782V141.348C90.4915 140.727 91.0429 140.439 91.7596 140.431C92.7723 140.431 93.3895 141.121 93.3895 142.229Z" fill="#0367B4"/>
<path d="M96.317 149.62H80.3945V136H96.317V149.62ZM81.2497 148.714H95.4627V136.905H81.2497V148.714Z" fill="#0367B4"/>
<path d="M69.1758 153.87C69.1758 154.277 69.4839 154.541 69.9877 154.541C70.6291 154.541 71.1329 154.178 71.1926 153.708V153.273H70.0388C69.4493 153.272 69.1758 153.444 69.1758 153.87Z" fill="#0367B4"/>
<path d="M58.1582 153.009H60.2607L59.2177 150.346L58.1582 153.009Z" fill="#0367B4"/>
<path d="M75.7563 154.458C76.4738 154.458 77.0555 153.797 77.0555 152.982C77.0555 152.167 76.4738 151.506 75.7563 151.506C75.0387 151.506 74.457 152.167 74.457 152.982C74.457 153.797 75.0387 154.458 75.7563 154.458Z" fill="#0367B4"/>
<path d="M53 145.115V159H81.1965V145.115H53ZM61.2015 155.391L60.6717 154.051H57.7486L57.2189 155.391H56.0304L58.654 149.05H59.8425L62.4323 155.391H61.2015ZM66.4235 155.391L65.184 153.272L64.4829 154.051V155.391H63.3715V148.669H64.4829V152.564L66.363 150.554H67.6449L65.9527 152.42L67.7479 155.391H66.4235ZM71.2007 155.391V154.802C70.8848 155.228 70.3715 155.445 69.7223 155.445C68.739 155.445 68.1244 154.802 68.1244 153.941C68.1244 153.044 68.7485 152.492 69.8591 152.483H71.1921V152.356C71.1921 151.795 70.8415 151.459 70.1577 151.459C69.7301 151.459 69.2687 151.613 68.7987 151.912L68.3971 151.097C69.0549 150.707 69.5682 150.498 70.4053 150.498C71.6015 150.498 72.2767 151.142 72.2853 152.22L72.294 155.39H71.2007V155.391ZM78.1661 155.391H77.0547V154.612C76.7301 155.147 76.2004 155.445 75.5166 155.445C74.2087 155.445 73.337 154.43 73.337 152.954C73.337 151.487 74.2087 150.499 75.4906 150.499C76.1917 150.499 76.7215 150.798 77.0547 151.342V148.669H78.1661V155.391Z" fill="#0367B4"/>
</g>
<defs>
<linearGradient id="paint0_linear" x1="423.977" y1="484.413" x2="89.2876" y2="72.3776" gradientUnits="userSpaceOnUse">
<stop stop-color="#DAE3FE"/>
<stop offset="1" stop-color="#E9EFFD"/>
</linearGradient>
<linearGradient id="paint1_linear" x1="209.291" y1="302.452" x2="210.389" y2="481.978" gradientUnits="userSpaceOnUse">
<stop stop-color="#09005D"/>
<stop offset="1" stop-color="#1A0F91"/>
</linearGradient>
<linearGradient id="paint2_linear" x1="207.432" y1="58.4355" x2="203.185" y2="296.976" gradientUnits="userSpaceOnUse">
<stop stop-color="#09005D"/>
<stop offset="1" stop-color="#1A0F91"/>
</linearGradient>
<linearGradient id="paint3_linear" x1="30.9375" y1="180.742" x2="368.782" y2="180.742" gradientUnits="userSpaceOnUse">
<stop stop-color="#4F52FF"/>
<stop offset="1" stop-color="#4042E2"/>
</linearGradient>
<linearGradient id="paint4_linear" x1="208.292" y1="262.015" x2="208.292" y2="347.627" gradientUnits="userSpaceOnUse">
<stop stop-color="#09005D"/>
<stop offset="1" stop-color="#1A0F91"/>
</linearGradient>
<linearGradient id="paint5_linear" x1="336.309" y1="113.64" x2="341.752" y2="113.64" gradientUnits="userSpaceOnUse">
<stop stop-color="#DAE3FE"/>
<stop offset="1" stop-color="#E9EFFD"/>
</linearGradient>
<linearGradient id="paint6_linear" x1="327.143" y1="113.64" x2="332.586" y2="113.64" gradientUnits="userSpaceOnUse">
<stop stop-color="#DAE3FE"/>
<stop offset="1" stop-color="#E9EFFD"/>
</linearGradient>
<linearGradient id="paint7_linear" x1="316.871" y1="113.64" x2="322.314" y2="113.64" gradientUnits="userSpaceOnUse">
<stop stop-color="#DAE3FE"/>
<stop offset="1" stop-color="#E9EFFD"/>
</linearGradient>
<clipPath id="clip0">
<rect width="405" height="423" fill="white"/>
</clipPath>
</defs>
</svg>
