<svg width="1920" height="1080" viewBox="0 0 1920 1080" fill="none" xmlns="http://www.w3.org/2000/svg">
<path d="M0 1084L1920 1084L1920 0L0 0L0 1084Z" fill="#ED2114"/>
<path d="M1143.84 1084C1143.84 1084 1000.74 622.88 1415.7 488.816C1830.66 354.753 1759.84 0 1759.84 0H1920V1084H1143.84Z" fill="#FD9644"/>
<path d="M776.156 0C776.156 0 919.261 461.12 504.302 595.184C89.3444 729.247 160.161 1084 160.161 1084H0V0H776.156Z" fill="#59B2EF"/>
<path d="M888 1084C888 1084 996.057 791.204 1276.84 760.168C1557.63 729.131 1657.88 583.634 1680.53 546.433C1703.18 509.233 1785.21 348.698 1920 345V1084H888Z" fill="#FDBD47"/>
<path d="M765 0C765 0 684.897 216.721 476.762 239.692C268.612 262.664 194.303 370.361 177.511 397.894C160.735 425.441 99.9051 544.252 0 547V0H765Z" fill="#4B52D1"/>
<g opacity="0.25">
<path d="M1550.27 537.041L1529.99 530.156C1527.85 529.43 1526.71 527.102 1527.43 524.96C1528.16 522.818 1530.49 521.675 1532.62 522.4L1552.9 529.285C1555.04 530.011 1556.19 532.339 1555.46 534.475C1554.73 536.623 1552.41 537.772 1550.27 537.041Z" stroke="white" stroke-width="4" stroke-miterlimit="10"/>
<path d="M1547.6 544.889L1527.33 538.004C1525.19 537.279 1524.04 534.951 1524.77 532.815C1525.49 530.673 1527.82 529.529 1529.97 530.255L1550.24 537.134C1552.38 537.859 1553.53 540.187 1552.8 542.329C1552.08 544.471 1549.75 545.615 1547.6 544.889Z" stroke="white" stroke-width="4" stroke-miterlimit="10"/>
<path d="M1529.58 501.229C1529.61 501.298 1529.62 501.362 1529.65 501.432C1530.1 502.877 1532.77 512.038 1531.66 522.203L1553.41 529.378C1558.56 520.548 1566.16 514.784 1567.39 513.89C1567.44 513.849 1567.5 513.809 1567.55 513.768C1568.15 513.344 1568.72 512.891 1569.28 512.409C1572.55 509.582 1575.13 505.861 1576.58 501.461C1580.86 488.504 1573.83 474.531 1560.87 470.252C1547.91 465.974 1533.93 473.01 1529.65 485.967C1528.19 490.373 1528.05 494.895 1529 499.116C1529.16 499.824 1529.36 500.532 1529.58 501.229Z" stroke="white" stroke-width="4" stroke-miterlimit="10"/>
<path d="M1528.44 538.48C1528.2 542.776 1530.85 546.869 1535.13 548.285C1539.36 549.679 1543.86 548.024 1546.25 544.524L1528.44 538.48Z" stroke="white" stroke-width="4" stroke-miterlimit="10"/>
<path d="M1538.47 524.333L1544.93 504.753C1545.57 502.825 1544.52 500.747 1542.59 500.108C1540.66 499.47 1538.58 500.521 1537.94 502.448C1537.3 504.375 1538.36 506.453 1540.28 507.092L1548.04 509.652" stroke="white" stroke-width="4" stroke-miterlimit="10"/>
<path d="M1547 527.149L1553.46 507.568C1554.1 505.641 1556.17 504.596 1558.1 505.228C1560.03 505.867 1561.07 507.945 1560.44 509.873C1559.8 511.8 1557.72 512.845 1555.8 512.212L1548.04 509.652" stroke="white" stroke-width="4" stroke-miterlimit="10"/>
<path d="M1581.18 508.207L1587.73 510.372" stroke="white" stroke-width="4" stroke-miterlimit="10" stroke-linecap="round"/>
<path d="M1584.18 499.958L1591 498.93" stroke="white" stroke-width="4" stroke-miterlimit="10" stroke-linecap="round"/>
<path d="M1576.59 515.283L1581.46 520.171" stroke="white" stroke-width="4" stroke-miterlimit="10" stroke-linecap="round"/>
<path d="M1520.35 488.132L1513.8 485.973" stroke="white" stroke-width="4" stroke-miterlimit="10" stroke-linecap="round"/>
<path d="M1522.85 479.715L1517.98 474.827" stroke="white" stroke-width="4" stroke-miterlimit="10" stroke-linecap="round"/>
<path d="M1519.82 496.544L1513 497.572" stroke="white" stroke-width="4" stroke-miterlimit="10" stroke-linecap="round"/>
<path d="M353.102 580.194C369.175 580.194 382.205 567.167 382.205 551.097C382.205 535.027 369.175 522 353.102 522C337.03 522 324 535.027 324 551.097C324 567.167 337.03 580.194 353.102 580.194Z" stroke="#FA8231" stroke-width="4" stroke-miterlimit="10" stroke-linecap="round" stroke-linejoin="round"/>
<path d="M97.1023 394.194C113.175 394.194 126.205 381.167 126.205 365.097C126.205 349.027 113.175 336 97.1023 336C81.0296 336 68 349.027 68 365.097C68 381.167 81.0296 394.194 97.1023 394.194Z" stroke="#BF085B" stroke-width="4" stroke-miterlimit="10" stroke-linecap="round" stroke-linejoin="round"/>
<path d="M1772.27 692.098C1788.34 692.098 1801.37 679.071 1801.37 663.001C1801.37 646.931 1788.34 633.904 1772.27 633.904C1756.2 633.904 1743.17 646.931 1743.17 663.001C1743.17 679.071 1756.2 692.098 1772.27 692.098Z" stroke="#FDA14D" stroke-width="4" stroke-miterlimit="10" stroke-linecap="round" stroke-linejoin="round"/>
<path d="M984.102 590.194C1000.17 590.194 1013.2 577.167 1013.2 561.097C1013.2 545.027 1000.17 532 984.102 532C968.029 532 955 545.027 955 561.097C955 577.167 968.029 590.194 984.102 590.194Z" stroke="#FA8231" stroke-width="4" stroke-miterlimit="10" stroke-linecap="round" stroke-linejoin="round"/>
<path d="M1542.27 174.35C1558.34 174.35 1571.37 161.323 1571.37 145.253C1571.37 129.183 1558.34 116.156 1542.27 116.156C1526.2 116.156 1513.17 129.183 1513.17 145.253C1513.17 161.323 1526.2 174.35 1542.27 174.35Z" stroke="#BF085B" stroke-width="4" stroke-miterlimit="10" stroke-linecap="round" stroke-linejoin="round"/>
<path d="M1012.6 269.195C1025.64 269.195 1036.2 258.63 1036.2 245.597C1036.2 232.565 1025.64 222 1012.6 222C999.567 222 989 232.565 989 245.597C989 258.63 999.567 269.195 1012.6 269.195Z" stroke="#BF085B" stroke-width="4" stroke-miterlimit="10" stroke-linecap="round" stroke-linejoin="round"/>
<path d="M1723.18 828.617C1736.22 828.617 1746.79 818.052 1746.79 805.019C1746.79 791.987 1736.22 781.422 1723.18 781.422C1710.15 781.422 1699.58 791.987 1699.58 805.019C1699.58 818.052 1710.15 828.617 1723.18 828.617Z" stroke="#FDA14D" stroke-width="4" stroke-miterlimit="10" stroke-linecap="round" stroke-linejoin="round"/>
<path d="M534.602 808.195C547.636 808.195 558.203 797.63 558.203 784.597C558.203 771.565 547.636 761 534.602 761C521.567 761 511 771.565 511 784.597C511 797.63 521.567 808.195 534.602 808.195Z" stroke="#BF085B" stroke-width="4" stroke-miterlimit="10" stroke-linecap="round" stroke-linejoin="round"/>
<path d="M1648.91 48.1948C1661.95 48.1948 1672.51 37.6299 1672.51 24.5974C1672.51 11.5649 1661.95 1 1648.91 1C1635.88 1 1625.31 11.5649 1625.31 24.5974C1625.31 37.6299 1635.88 48.1948 1648.91 48.1948Z" stroke="#BF085B" stroke-width="4" stroke-miterlimit="10" stroke-linecap="round" stroke-linejoin="round"/>
<path d="M1390.16 1093.67C1403.2 1093.67 1413.76 1083.11 1413.76 1070.08C1413.76 1057.04 1403.2 1046.48 1390.16 1046.48C1377.13 1046.48 1366.56 1057.04 1366.56 1070.08C1366.56 1083.11 1377.13 1093.67 1390.16 1093.67Z" stroke="#FDA14D" stroke-width="4" stroke-miterlimit="10" stroke-linecap="round" stroke-linejoin="round"/>
<path d="M597.276 170.636C597.276 177.057 592.06 182.272 585.638 182.272C579.216 182.272 574 177.057 574 170.636C574 164.215 579.216 159 585.638 159C592.074 159 597.276 164.215 597.276 170.636Z" stroke="#BF085B" stroke-width="4" stroke-miterlimit="10" stroke-linecap="round" stroke-linejoin="round"/>
<path d="M1803.05 469.887C1809.48 469.887 1814.69 464.677 1814.69 458.251C1814.69 451.824 1809.48 446.615 1803.05 446.615C1796.62 446.615 1791.41 451.824 1791.41 458.251C1791.41 464.677 1796.62 469.887 1803.05 469.887Z" stroke="#FDA14D" stroke-width="4" stroke-miterlimit="10" stroke-linecap="round" stroke-linejoin="round"/>
<path d="M1721.63 579.936C1728.05 579.936 1733.26 574.726 1733.26 568.3C1733.26 561.873 1728.05 556.664 1721.63 556.664C1715.2 556.664 1709.99 561.873 1709.99 568.3C1709.99 574.726 1715.2 579.936 1721.63 579.936Z" stroke="#FDA14D" stroke-width="4" stroke-miterlimit="10" stroke-linecap="round" stroke-linejoin="round"/>
<path d="M1451.19 38.6037C1452.49 32.3103 1448.45 26.1545 1442.15 24.8544C1435.86 23.5543 1429.7 27.6023 1428.4 33.8957C1427.1 40.1892 1431.15 46.3449 1437.44 47.645C1443.74 48.9451 1449.89 44.8972 1451.19 38.6037Z" stroke="#BF085B" stroke-width="4" stroke-miterlimit="10" stroke-linecap="round" stroke-linejoin="round"/>
<path d="M130.638 985.272C137.066 985.272 142.276 980.063 142.276 973.636C142.276 967.21 137.066 962 130.638 962C124.211 962 119 967.21 119 973.636C119 980.063 124.211 985.272 130.638 985.272Z" stroke="#BF085B" stroke-width="4" stroke-miterlimit="10" stroke-linecap="round" stroke-linejoin="round"/>
<path d="M1160.5 38.1105C1161.53 31.7675 1157.22 25.7889 1150.88 24.7569C1144.54 23.7248 1138.56 28.03 1137.52 34.3729C1136.49 40.7159 1140.8 46.6945 1147.14 47.7266C1153.49 48.7587 1159.46 44.4534 1160.5 38.1105Z" stroke="#BF085B" stroke-width="4" stroke-miterlimit="10" stroke-linecap="round" stroke-linejoin="round"/>
<path d="M464.498 181.273C466.165 175.066 462.484 168.684 456.276 167.017C450.068 165.351 443.684 169.031 442.018 175.238C440.351 181.445 444.032 187.827 450.24 189.494C456.448 191.16 462.831 187.479 464.498 181.273Z" stroke="#BF085B" stroke-width="4" stroke-miterlimit="10" stroke-linecap="round" stroke-linejoin="round"/>
<path d="M1294.69 463.684C1299.23 459.14 1299.23 451.772 1294.69 447.228C1290.14 442.684 1282.77 442.684 1278.23 447.228C1273.68 451.772 1273.68 459.14 1278.23 463.684C1282.77 468.228 1290.14 468.228 1294.69 463.684Z" stroke="#FDA14D" stroke-width="4" stroke-miterlimit="10" stroke-linecap="round" stroke-linejoin="round"/>
<path d="M1279.55 970.2C1285.67 968.222 1289.02 961.662 1287.04 955.548C1285.07 949.433 1278.5 946.079 1272.39 948.056C1266.27 950.034 1262.92 956.594 1264.9 962.708C1266.87 968.823 1273.43 972.177 1279.55 970.2Z" stroke="#FDA14D" stroke-width="4" stroke-miterlimit="10" stroke-linecap="round" stroke-linejoin="round"/>
<path d="M1577.04 929.806C1578.38 923.52 1574.37 917.34 1568.08 916.003C1561.79 914.666 1555.61 918.677 1554.27 924.963C1552.94 931.249 1556.95 937.428 1563.24 938.766C1569.52 940.103 1575.7 936.092 1577.04 929.806Z" stroke="#FDA14D" stroke-width="4" stroke-miterlimit="10" stroke-linecap="round" stroke-linejoin="round"/>
<path d="M117 864.309C144.062 864.309 166 853.912 166 841.086C166 828.261 144.062 817.864 117 817.864C89.938 817.864 68 828.261 68 841.086C68 853.912 89.938 864.309 117 864.309Z" stroke="white" stroke-width="4" stroke-miterlimit="10" stroke-linecap="round" stroke-linejoin="round"/>
<path d="M136.813 853.187C150.885 830.077 153.411 805.937 142.455 799.267C131.499 792.598 111.21 805.926 97.1375 829.035C83.0653 852.145 80.5392 876.285 91.4953 882.955C102.451 889.624 122.741 876.296 136.813 853.187Z" stroke="white" stroke-width="4" stroke-miterlimit="10" stroke-linecap="round" stroke-linejoin="round"/>
<path d="M142.448 882.946C153.404 876.276 150.878 852.136 136.806 829.026C122.733 805.917 102.444 792.589 91.4877 799.258C80.5316 805.928 83.0577 830.068 97.1299 853.178C111.202 876.287 131.492 889.615 142.448 882.946Z" stroke="white" stroke-width="4" stroke-miterlimit="10" stroke-linecap="round" stroke-linejoin="round"/>
<path d="M117 847.233C120.396 847.233 123.148 844.481 123.148 841.086C123.148 837.691 120.396 834.939 117 834.939C113.604 834.939 110.852 837.691 110.852 841.086C110.852 844.481 113.604 847.233 117 847.233Z" stroke="white" stroke-width="4" stroke-miterlimit="10" stroke-linecap="round" stroke-linejoin="round"/>
<path d="M463.85 567.438C463.85 570.983 460.97 573.862 457.425 573.862C453.88 573.862 451 570.983 451 567.438C451 563.893 453.88 561.014 457.425 561.014C460.97 561.014 463.85 563.886 463.85 567.438Z" stroke="white" stroke-width="4" stroke-miterlimit="10" stroke-linecap="round" stroke-linejoin="round"/>
<path d="M526.193 623.151C529.741 623.151 532.618 620.275 532.618 616.728C532.618 613.18 529.741 610.304 526.193 610.304C522.644 610.304 519.768 613.18 519.768 616.728C519.768 620.275 522.644 623.151 526.193 623.151Z" stroke="white" stroke-width="4" stroke-miterlimit="10" stroke-linecap="round" stroke-linejoin="round"/>
<path d="M501.996 603.521C509.564 603.521 515.699 597.387 515.699 589.821C515.699 582.254 509.564 576.12 501.996 576.12C494.428 576.12 488.293 582.254 488.293 589.821C488.293 597.387 494.428 603.521 501.996 603.521Z" stroke="white" stroke-width="4" stroke-miterlimit="10" stroke-linecap="round" stroke-linejoin="round"/>
<path d="M525.878 589.82L521.301 597.807L518.885 606.699L509.992 609.114L501.996 613.691L494 609.114L485.114 606.699L482.691 597.807L478.114 589.82L482.691 581.826L485.114 572.934L494 570.519L501.996 565.942L509.992 570.519L518.885 572.934L521.301 581.826L525.878 589.82Z" stroke="white" stroke-width="4" stroke-miterlimit="10" stroke-linecap="round" stroke-linejoin="round"/>
<path d="M519.767 616.727C519.767 613.183 522.647 610.304 526.192 610.304C528.107 610.304 529.828 611.149 531.002 612.48C535.894 606.228 538.818 598.368 538.818 589.813C538.818 569.479 522.333 552.997 501.996 552.997C481.659 552.997 465.174 569.479 465.174 589.813C465.174 610.146 481.659 626.629 501.996 626.629C509.146 626.629 515.811 624.587 521.458 621.065C520.411 619.921 519.767 618.403 519.767 616.727Z" stroke="white" stroke-width="4" stroke-miterlimit="10" stroke-linecap="round" stroke-linejoin="round"/>
<path d="M501.996 540C484.815 540 469.662 548.697 460.709 561.926C462.586 563.048 463.85 565.097 463.85 567.445C463.85 570.99 460.97 573.869 457.425 573.869C456.55 573.869 455.72 573.69 454.964 573.376C453.162 578.528 452.174 584.055 452.174 589.82C452.174 617.333 474.486 639.641 502.003 639.641C529.521 639.641 551.833 617.333 551.833 589.82C551.833 562.308 529.513 540 501.996 540Z" stroke="white" stroke-width="4" stroke-miterlimit="10" stroke-linecap="round" stroke-linejoin="round"/>
<path d="M456.484 993.112L431.427 1017.74C428.783 1020.35 424.523 1020.31 421.927 1017.66C419.324 1015.02 419.365 1010.76 422.01 1008.16L447.066 983.532C449.711 980.928 453.971 980.969 456.566 983.614C459.162 986.258 459.129 990.509 456.484 993.112Z" stroke="white" stroke-width="4" stroke-miterlimit="10" stroke-linecap="round"/>
<path d="M486.023 982.732C501.968 982.732 514.894 969.809 514.894 953.866C514.894 937.924 501.968 925 486.023 925C470.077 925 457.151 937.924 457.151 953.866C457.151 969.809 470.077 982.732 486.023 982.732Z" stroke="white" stroke-width="4" stroke-miterlimit="10" stroke-linecap="round"/>
<path d="M486.023 974.684C497.526 974.684 506.852 965.36 506.852 953.858C506.852 942.356 497.526 933.032 486.023 933.032C474.519 933.032 465.193 942.356 465.193 953.858C465.193 965.36 474.519 974.684 486.023 974.684Z" stroke="white" stroke-width="4" stroke-miterlimit="10" stroke-linecap="round"/>
<path d="M465.605 974.272L457.506 982.37" stroke="white" stroke-width="4" stroke-miterlimit="10" stroke-linecap="round"/>
<path d="M1812.07 947.553L1779.65 955.035L1778.2 948.718C1777.86 947.253 1778.77 945.796 1780.23 945.454L1807.35 939.193C1808.81 938.859 1810.27 939.765 1810.61 941.229L1812.07 947.553Z" stroke="white" stroke-width="4" stroke-miterlimit="10" stroke-linecap="round"/>
<path d="M1801.41 913.584C1815.69 902.066 1817.94 881.149 1806.42 866.865C1794.9 852.58 1773.98 850.337 1759.69 861.855C1745.4 873.372 1743.16 894.289 1754.68 908.574C1766.2 922.858 1787.12 925.101 1801.41 913.584Z" stroke="white" stroke-width="4" stroke-miterlimit="10"/>
<path d="M1796.01 917.112L1765.02 858.334L1761.15 851.201C1740.95 861.848 1733.21 886.851 1743.86 907.05C1754.51 927.25 1779.51 934.989 1799.72 924.342L1795.93 917.16" stroke="white" stroke-width="4" stroke-miterlimit="10" stroke-linecap="round" stroke-linejoin="round"/>
<path d="M1771.85 871.214C1782 865.866 1788.7 858.639 1786.82 855.072C1784.94 851.506 1775.19 852.95 1765.04 858.299C1754.9 863.647 1748.2 870.874 1750.08 874.441C1751.96 878.007 1761.71 876.563 1771.85 871.214Z" stroke="white" stroke-width="4" stroke-miterlimit="10"/>
<path d="M1774.24 920.34C1781.4 921.72 1789.07 920.779 1796.02 917.112C1802.97 913.444 1808.09 907.657 1810.99 900.97C1803.83 899.59 1796.17 900.531 1789.21 904.199C1782.26 907.866 1777.14 913.653 1774.24 920.34Z" stroke="white" stroke-width="4" stroke-miterlimit="10"/>
<path d="M1796.04 917.077C1804.16 912.798 1803.8 896.172 1795.24 879.941C1786.68 863.709 1773.16 854.019 1765.04 858.297C1756.93 862.575 1757.29 879.202 1765.85 895.433C1774.41 911.665 1787.92 921.355 1796.04 917.077Z" stroke="white" stroke-width="4" stroke-miterlimit="10"/>
<path d="M1751.12 903.215L1809.91 872.23" stroke="white" stroke-width="4" stroke-miterlimit="10"/>
<path d="M1790.17 927.961L1793.6 942.268" stroke="white" stroke-width="4" stroke-miterlimit="10"/>
<path d="M1775.76 956.366L1817.07 946.458" stroke="white" stroke-width="4" stroke-miterlimit="10" stroke-linecap="round"/>
<path d="M1787.88 173.717C1788.74 175.518 1787.98 177.676 1786.18 178.54C1784.38 179.403 1782.22 178.645 1781.36 176.844C1780.49 175.043 1781.25 172.885 1783.05 172.021C1784.85 171.158 1787.01 171.917 1787.88 173.717Z" stroke="white" stroke-width="4" stroke-miterlimit="10" stroke-linecap="round" stroke-linejoin="round"/>
<path d="M1794.44 156.462C1795.3 158.263 1794.54 160.422 1792.74 161.285C1790.94 162.148 1788.78 161.39 1787.92 159.589C1787.06 157.788 1787.81 155.63 1789.62 154.767C1791.42 153.903 1793.58 154.662 1794.44 156.462Z" stroke="white" stroke-width="4" stroke-miterlimit="10" stroke-linecap="round" stroke-linejoin="round"/>
<path d="M1839.58 152.898C1840.44 154.699 1839.68 156.857 1837.88 157.72C1836.08 158.584 1833.92 157.825 1833.06 156.025C1832.19 154.224 1832.95 152.066 1834.75 151.202C1836.55 150.339 1838.71 151.097 1839.58 152.898Z" stroke="white" stroke-width="4" stroke-miterlimit="10" stroke-linecap="round" stroke-linejoin="round"/>
<path d="M1810.18 186.069L1790.92 195.116C1789.89 195.603 1788.66 195.159 1788.17 194.129L1786.94 191.502C1786.45 190.472 1786.9 189.245 1787.93 188.758L1807.19 179.711C1808.22 179.224 1809.45 179.668 1809.93 180.698L1811.17 183.325C1811.65 184.361 1811.21 185.588 1810.18 186.069Z" stroke="white" stroke-width="4" stroke-miterlimit="10" stroke-linecap="round"/>
<path d="M1817.66 206.617L1808.24 186.994L1792.99 194.314L1802.41 213.937L1808.36 246.769C1810.31 250.845 1815.21 252.56 1819.28 250.605L1835.74 242.699C1839.82 240.744 1841.53 235.854 1839.58 231.784L1817.66 206.617Z" stroke="white" stroke-width="4" stroke-miterlimit="10" stroke-linecap="round"/>
<path d="M1805.09 228.743C1805.09 228.743 1808.24 223.65 1816.6 223.939C1824.96 224.229 1826.37 216.613 1826.37 216.613" stroke="white" stroke-width="4" stroke-miterlimit="10" stroke-linecap="round"/>
<path d="M1849.35 167.267L1830.08 176.313C1829.05 176.801 1827.83 176.357 1827.34 175.327L1826.1 172.7C1825.62 171.67 1826.06 170.443 1827.09 169.955L1846.35 160.909C1847.38 160.422 1848.61 160.866 1849.1 161.895L1850.33 164.523C1850.82 165.552 1850.38 166.78 1849.35 167.267Z" stroke="white" stroke-width="4" stroke-miterlimit="10" stroke-linecap="round"/>
<path d="M1855.48 224.088C1857.51 228.3 1862.56 230.07 1866.77 228.053C1870.98 226.03 1872.75 220.98 1870.74 216.768L1847.4 168.192L1832.16 175.512L1855.48 224.088Z" stroke="white" stroke-width="4" stroke-miterlimit="10" stroke-linecap="round"/>
<path d="M1855.48 224.088C1857.51 228.3 1862.56 230.07 1866.77 228.053C1870.98 226.03 1872.75 220.98 1870.74 216.768L1847.4 168.192L1832.16 175.512L1855.48 224.088Z" stroke="white" stroke-width="4" stroke-miterlimit="10" stroke-linecap="round"/>
<path d="M1847.35 207.154C1849.19 205.982 1851.99 204.89 1855.98 205.032C1859.81 205.162 1862.17 203.639 1863.62 201.949" stroke="white" stroke-width="4" stroke-miterlimit="10" stroke-linecap="round"/>
<path d="M256.342 273.024L172.249 247.908C166.133 246.084 162.661 239.648 164.486 233.533L181.28 177.3C183.105 171.185 189.542 167.714 195.658 169.539L279.751 194.655C285.867 196.479 289.339 202.915 287.514 209.03L270.72 265.263C268.895 271.371 262.458 274.849 256.342 273.024Z" stroke="white" stroke-width="4" stroke-miterlimit="10" stroke-linecap="round"/>
<path d="M166.468 226.883L272.708 258.613" stroke="white" stroke-width="4" stroke-miterlimit="10" stroke-linecap="round"/>
<path d="M219.852 251.963C219.395 253.489 217.785 254.358 216.259 253.902C214.734 253.446 213.864 251.835 214.32 250.31C214.776 248.785 216.387 247.915 217.913 248.371C219.438 248.827 220.308 250.438 219.852 251.963Z" fill="white"/>
<path d="M226.213 264.033L202.396 256.921L199.187 267.663L223.004 274.776L226.213 264.033Z" stroke="white" stroke-width="4" stroke-miterlimit="10" stroke-linecap="round"/>
<path d="M190.362 265.64L231.471 277.92" stroke="white" stroke-width="4" stroke-miterlimit="10" stroke-linecap="round"/>
<path d="M1310.39 23L1287.36 34.1346L1333.27 129.067L1356.3 117.932L1310.39 23Z" stroke="white" stroke-width="4" stroke-miterlimit="10" stroke-linecap="round" stroke-linejoin="round"/>
<path d="M1315.88 34.394L1304.37 39.9564" stroke="white" stroke-width="4" stroke-miterlimit="10" stroke-linecap="round" stroke-linejoin="round"/>
<path d="M1326.52 56.3875L1315.01 61.9579" stroke="white" stroke-width="4" stroke-miterlimit="10" stroke-linecap="round" stroke-linejoin="round"/>
<path d="M1337.16 78.381L1325.64 83.9513" stroke="white" stroke-width="4" stroke-miterlimit="10" stroke-linecap="round" stroke-linejoin="round"/>
<path d="M1347.8 100.383L1336.28 105.945" stroke="white" stroke-width="4" stroke-miterlimit="10" stroke-linecap="round" stroke-linejoin="round"/>
<path d="M1319.4 41.6771L1313.65 44.4543" stroke="white" stroke-width="4" stroke-miterlimit="10" stroke-linecap="round" stroke-linejoin="round"/>
<path d="M1322.97 49.0323L1317.21 51.8175" stroke="white" stroke-width="4" stroke-miterlimit="10" stroke-linecap="round" stroke-linejoin="round"/>
<path d="M1330.06 63.7107L1324.3 66.4878" stroke="white" stroke-width="4" stroke-miterlimit="10" stroke-linecap="round" stroke-linejoin="round"/>
<path d="M1333.62 71.0659L1327.86 73.851" stroke="white" stroke-width="4" stroke-miterlimit="10" stroke-linecap="round" stroke-linejoin="round"/>
<path d="M1340.71 85.7442L1334.96 88.5214" stroke="white" stroke-width="4" stroke-miterlimit="10" stroke-linecap="round" stroke-linejoin="round"/>
<path d="M1344.27 93.0993L1338.52 95.8844" stroke="white" stroke-width="4" stroke-miterlimit="10" stroke-linecap="round" stroke-linejoin="round"/>
<path d="M1282.14 77.8447L1275.23 81.1822" stroke="white" stroke-width="4" stroke-miterlimit="10" stroke-linecap="round" stroke-linejoin="round"/>
<path d="M1292.78 99.8382L1285.87 103.176" stroke="white" stroke-width="4" stroke-miterlimit="10" stroke-linecap="round" stroke-linejoin="round"/>
<path d="M1303.41 121.832L1296.51 125.169" stroke="white" stroke-width="4" stroke-miterlimit="10" stroke-linecap="round" stroke-linejoin="round"/>
<path d="M1275.02 63.1263L1271.57 64.799" stroke="white" stroke-width="4" stroke-miterlimit="10" stroke-linecap="round" stroke-linejoin="round"/>
<path d="M1278.58 70.4895L1275.13 72.1542" stroke="white" stroke-width="4" stroke-miterlimit="10" stroke-linecap="round" stroke-linejoin="round"/>
<path d="M1285.68 85.1599L1282.23 86.8327" stroke="white" stroke-width="4" stroke-miterlimit="10" stroke-linecap="round" stroke-linejoin="round"/>
<path d="M1289.23 92.515L1285.78 94.1877" stroke="white" stroke-width="4" stroke-miterlimit="10" stroke-linecap="round" stroke-linejoin="round"/>
<path d="M1296.33 107.193L1292.88 108.866" stroke="white" stroke-width="4" stroke-miterlimit="10" stroke-linecap="round" stroke-linejoin="round"/>
<path d="M1307.15 129.547L1303.69 131.22" stroke="white" stroke-width="4" stroke-miterlimit="10" stroke-linecap="round" stroke-linejoin="round"/>
<path d="M1299.9 114.549L1296.44 116.221" stroke="white" stroke-width="4" stroke-miterlimit="10" stroke-linecap="round" stroke-linejoin="round"/>
<path d="M1261 164.002L1266 44.4623L1311.9 139.391L1261 164.002Z" stroke="white" stroke-width="4" stroke-miterlimit="10" stroke-linecap="round" stroke-linejoin="round"/>
<path d="M1277.44 138.975L1278.8 106.273L1291.36 132.236L1277.44 138.975Z" stroke="white" stroke-width="4" stroke-miterlimit="10" stroke-linecap="round" stroke-linejoin="round"/>
<path d="M1469.75 921.93L1482.95 908.732L1446.37 872.161L1433.17 885.359L1469.75 921.93Z" stroke="white" stroke-width="4" stroke-miterlimit="10" stroke-linecap="round" stroke-linejoin="round"/>
<path d="M1486.52 925.502L1482.94 908.731L1469.74 921.929L1486.52 925.502Z" stroke="white" stroke-width="4" stroke-miterlimit="10" stroke-linecap="round" stroke-linejoin="round"/>
<path d="M1484.84 917.677L1478.69 923.835" stroke="white" stroke-width="4" stroke-miterlimit="10" stroke-linecap="round" stroke-linejoin="round"/>
<path d="M1429.28 875.299L1436.3 868.281C1438.01 866.573 1440.77 866.573 1442.48 868.281L1446.36 872.162L1433.16 885.36L1429.28 881.48C1427.57 879.772 1427.57 877.001 1429.28 875.299Z" stroke="white" stroke-width="4" stroke-miterlimit="10" stroke-linecap="round" stroke-linejoin="round"/>
<path d="M1449.93 875.723L1436.73 888.927" stroke="white" stroke-width="4" stroke-miterlimit="10" stroke-linecap="round" stroke-linejoin="round"/>
<path d="M1476.34 915.33L1443.33 882.328" stroke="white" stroke-width="4" stroke-miterlimit="10" stroke-linecap="round" stroke-linejoin="round"/>
</g>
</svg>
