<svg width="375" height="768" viewBox="0 0 375 768" fill="none" xmlns="http://www.w3.org/2000/svg">
<mask id="mask0" mask-type="alpha" maskUnits="userSpaceOnUse" x="0" y="0" width="375" height="768">
<rect width="375" height="768" fill="white"/>
</mask>
<g mask="url(#mask0)">
<rect width="375" height="768" fill="white"/>
<path d="M173.063 419.012C188.356 419.012 351.18 436.562 430.68 445.338L505 500.834V768H338.674C329.206 758.395 184.318 545.658 161.093 510.083C137.869 474.509 128.4 461.702 133.224 435.732C139.119 417.945 153.947 419.012 173.063 419.012Z" fill="#76B2FE"/>
<path d="M181.726 252.014C194.162 251.205 367.485 285.149 452.591 302.221L504.763 329.178C504.942 448.687 505.192 699.365 504.763 746C438.834 742.63 391.307 593.693 312.335 504.062C226.216 416.788 147.243 302.221 149.03 279.982C151.531 248.645 166.182 253.025 181.726 252.014Z" fill="#5A54E6" stroke="#5A54EA"/>
<path d="M516 306V0H157C251.555 88.451 435.731 240.855 516 306Z" fill="url(#paint0_linear)"/>
<path d="M375 105L229 0H375V105Z" fill="url(#paint1_linear)"/>
<path d="M51.6731 708.282C11.084 677.513 -19.6877 670.806 -30 671.3V768.439H134.089C123.364 760.385 91.8661 737.078 51.6731 708.282Z" fill="#5A54EA"/>
<path opacity="0.2" d="M-29.7521 704.985V587C15.3599 591.957 45.3519 617.736 58.489 629.138C71.626 640.539 127.892 679.455 146.482 692.344C163.833 704.242 169.782 714.9 163.585 720.353C157.388 725.806 121.447 725.31 102.857 725.31C84.2672 725.31 52.2923 726.55 24.0353 725.31C-1.3464 723.327 -22.3987 710.934 -29.7521 704.985Z" fill="url(#paint2_linear)"/>
</g>
<defs>
<linearGradient id="paint0_linear" x1="170.475" y1="153" x2="516" y2="153" gradientUnits="userSpaceOnUse">
<stop stop-color="#036BB3"/>
<stop offset="1" stop-color="#03B0A9"/>
</linearGradient>
<linearGradient id="paint1_linear" x1="302" y1="0" x2="302" y2="105" gradientUnits="userSpaceOnUse">
<stop stop-color="#6DE58B"/>
<stop offset="1" stop-color="#1FB845"/>
</linearGradient>
<linearGradient id="paint2_linear" x1="68.1083" y1="587" x2="5.94093" y2="722.584" gradientUnits="userSpaceOnUse">
<stop stop-color="#5A54EA"/>
<stop offset="1" stop-color="white"/>
</linearGradient>
</defs>
</svg>
