<svg width="521" height="79" viewBox="0 0 521 79" fill="none" xmlns="http://www.w3.org/2000/svg">
<path d="M17.0293 36.9516H7.66933V26.9436H2.70133V52.1436H7.66933V41.7036H17.0293V52.1436H21.9613V26.9436H17.0293V36.9516ZM36.5067 31.1196C39.5667 33.0636 43.0587 32.5236 43.0587 26.7636H39.2787C39.2787 28.4916 38.8107 28.5996 37.4067 27.6276C34.3107 25.6116 30.8547 26.3316 30.8547 31.9836H34.5987C34.5987 30.2556 35.1027 30.1476 36.5067 31.1196ZM40.1067 36.2676C38.7027 34.5036 36.7587 33.6396 34.2387 33.6396C31.8267 33.6396 29.7747 34.5756 28.0467 36.4116C26.3547 38.2476 25.4907 40.4796 25.4907 43.1436C25.4907 45.8076 26.3547 48.0756 28.0467 49.9116C29.7747 51.7476 31.8267 52.6476 34.2387 52.6476C36.7587 52.6476 38.7027 51.7836 40.1067 50.0196V52.1436H44.7507V34.1436H40.1067V36.2676ZM31.5387 46.8156C30.6027 45.8436 30.1347 44.6196 30.1347 43.1436C30.1347 41.6676 30.6027 40.4436 31.5387 39.5076C32.4747 38.5356 33.6627 38.0676 35.1027 38.0676C36.5427 38.0676 37.7307 38.5356 38.6667 39.5076C39.6387 40.4436 40.1067 41.6676 40.1067 43.1436C40.1067 44.6196 39.6387 45.8436 38.6667 46.8156C37.7307 47.7516 36.5427 48.2196 35.1027 48.2196C33.6627 48.2196 32.4747 47.7516 31.5387 46.8156ZM56.7019 46.2396L52.0219 34.1436H46.9459L54.3259 51.5676C53.4619 54.0156 52.0939 55.0596 49.6099 55.0236V59.3436C54.2179 59.5956 57.2419 57.3276 59.1139 52.1436L65.6659 34.1436H60.6979L56.7019 46.2396ZM85.444 52.6476C88.936 52.6476 91.996 50.8116 93.58 47.9676L89.548 45.6636C88.828 47.1396 87.28 48.0396 85.408 48.0396C84.004 48.0396 82.852 47.5716 81.952 46.6716C81.052 45.7356 80.584 44.5476 80.584 43.1436C80.584 40.2636 82.636 38.2116 85.408 38.2116C87.244 38.2116 88.792 39.1476 89.512 40.6236L93.508 38.2836C92.032 35.4396 88.936 33.6396 85.444 33.6396C82.744 33.6396 80.476 34.5396 78.64 36.3756C76.84 38.2116 75.94 40.4436 75.94 43.1436C75.94 45.8436 76.84 48.0756 78.64 49.9116C80.476 51.7476 82.744 52.6476 85.444 52.6476ZM106.185 33.6396C103.737 33.6396 101.937 34.4676 100.821 36.1596V26.9436H96.1767V52.1436H100.821V42.4236C100.821 39.4356 102.369 37.9596 104.781 37.9596C106.941 37.9596 108.345 39.2556 108.345 41.6676V52.1436H112.989V41.0916C112.989 38.7516 112.341 36.9516 111.045 35.6196C109.785 34.2876 108.165 33.6396 106.185 33.6396ZM132.29 49.9116C134.126 48.0756 135.062 45.8076 135.062 43.1436C135.062 40.4796 134.126 38.2476 132.29 36.4116C130.454 34.5756 128.186 33.6396 125.522 33.6396C122.858 33.6396 120.59 34.5756 118.754 36.4116C116.918 38.2476 116.018 40.4796 116.018 43.1436C116.018 45.8076 116.918 48.0756 118.754 49.9116C120.59 51.7476 122.858 52.6476 125.522 52.6476C128.186 52.6476 130.454 51.7476 132.29 49.9116ZM122.03 46.7076C121.13 45.7716 120.662 44.5836 120.662 43.1436C120.662 41.7036 121.13 40.5156 122.03 39.5796C122.966 38.6436 124.118 38.1756 125.522 38.1756C126.926 38.1756 128.078 38.6436 129.014 39.5796C129.95 40.5156 130.418 41.7036 130.418 43.1436C130.418 44.5836 129.95 45.7716 129.014 46.7076C128.078 47.6436 126.926 48.1116 125.522 48.1116C124.118 48.1116 122.966 47.6436 122.03 46.7076ZM178.145 52.1436L169.289 26.9436H163.133L154.313 52.1436H159.677L161.189 47.6076H171.233L172.745 52.1436H178.145ZM166.229 32.6676L169.685 42.9636H162.773L166.229 32.6676ZM190.6 39.1836L199.924 26.9436H194.2L185.56 38.0676V26.9436H180.592V52.1436H185.56V40.3356L194.56 52.1436H200.284L190.6 39.1836ZM224.973 52.1436L216.117 26.9436H209.961L201.141 52.1436H206.505L208.017 47.6076H218.061L219.573 52.1436H224.973ZM213.057 32.6676L216.513 42.9636H209.601L213.057 32.6676ZM227.42 26.9436V52.1436H237.428C240.884 52.1436 243.764 50.9196 246.068 48.5076C248.408 46.0956 249.56 43.1076 249.56 39.5436C249.56 35.9796 248.408 32.9916 246.068 30.5796C243.764 28.1676 240.884 26.9436 237.428 26.9436H227.42ZM232.388 47.3916V31.6956H237.428C239.624 31.6956 241.388 32.4156 242.756 33.8916C244.124 35.3316 244.808 37.2036 244.808 39.5436C244.808 41.8836 244.124 43.7556 242.756 45.2316C241.388 46.6716 239.624 47.3916 237.428 47.3916H232.388ZM274.288 48.8676C276.844 46.3116 278.104 43.2156 278.104 39.5436C278.104 35.8716 276.844 32.7756 274.288 30.2556C271.732 27.6996 268.636 26.4396 265 26.4396C261.364 26.4396 258.268 27.6996 255.712 30.2556C253.192 32.7756 251.932 35.8716 251.932 39.5436C251.932 43.2156 253.192 46.3116 255.712 48.8676C258.268 51.3876 261.364 52.6476 265 52.6476C268.636 52.6476 271.732 51.3876 274.288 48.8676ZM259.204 45.4836C257.656 43.9356 256.864 41.9556 256.864 39.5436C256.864 37.1316 257.656 35.1516 259.204 33.6036C260.752 32.0556 262.696 31.2636 265 31.2636C267.304 31.2636 269.248 32.0556 270.796 33.6036C272.344 35.1516 273.136 37.1316 273.136 39.5436C273.136 41.9556 272.344 43.9356 270.796 45.4836C269.248 47.0316 267.304 47.7876 265 47.7876C262.696 47.7876 260.752 47.0316 259.204 45.4836ZM296.176 42.3156L285.376 26.9436H281.596V52.1436H286.564V36.7356L297.364 52.1436H301.144V26.9436H296.176V42.3156ZM343.079 33.6396C340.559 33.6396 338.615 34.5036 337.247 36.2676V26.9436H332.603V52.1436H337.247V50.0196C338.615 51.7836 340.559 52.6476 343.079 52.6476C345.491 52.6476 347.579 51.7476 349.271 49.9116C350.999 48.0756 351.863 45.8076 351.863 43.1436C351.863 40.4796 350.999 38.2476 349.271 36.4116C347.579 34.5756 345.491 33.6396 343.079 33.6396ZM338.651 46.8156C337.715 45.8436 337.247 44.6196 337.247 43.1436C337.247 41.6676 337.715 40.4436 338.651 39.5076C339.587 38.5356 340.775 38.0676 342.215 38.0676C343.655 38.0676 344.843 38.5356 345.779 39.5076C346.751 40.4436 347.219 41.6676 347.219 43.1436C347.219 44.6196 346.751 45.8436 345.779 46.8156C344.843 47.7516 343.655 48.2196 342.215 48.2196C340.775 48.2196 339.587 47.7516 338.651 46.8156ZM357.442 32.5596C359.026 32.5596 360.322 31.2996 360.322 29.7876C360.322 28.2756 359.026 26.9796 357.442 26.9796C355.894 26.9796 354.598 28.2756 354.598 29.7876C354.598 31.2996 355.894 32.5596 357.442 32.5596ZM359.782 52.1436V34.1436H355.138V52.1436H359.782ZM374.148 32.0196H378.432L374.868 27.1596H370.476L366.948 32.0196H371.232L372.708 29.8236L374.148 32.0196ZM381.528 45.0516C381.636 44.3676 381.708 43.7556 381.708 43.1436C381.708 40.4436 380.844 38.2116 379.116 36.3756C377.424 34.5396 375.228 33.6396 372.6 33.6396C369.828 33.6396 367.524 34.5396 365.76 36.3756C363.996 38.1756 363.096 40.4436 363.096 43.1436C363.096 45.8796 363.996 48.1476 365.796 49.9476C367.596 51.7476 369.972 52.6476 372.96 52.6476C376.416 52.6476 379.044 51.3516 380.808 48.7956L377.064 46.6356C376.164 47.8236 374.796 48.4356 373.032 48.4356C370.26 48.4356 368.568 47.3196 367.956 45.0516H381.528ZM367.884 41.4516C368.424 39.1476 370.116 37.8156 372.6 37.8156C374.724 37.8156 376.524 39.0036 377.064 41.4516H367.884ZM376.956 28.4196H381.132L384.84 23.8476H379.656L376.956 28.4196ZM395.246 34.1436H391.178V29.1036L386.534 30.5076V34.1436H383.402V38.6076H386.534V46.0956C386.534 51.0276 388.874 52.8636 395.246 52.1436V47.9316C392.582 48.0756 391.178 48.0396 391.178 46.0956V38.6076H395.246V34.1436ZM415.254 46.7436L410.898 34.1436H405.786L412.626 52.1436H417.918L424.758 34.1436H419.646L415.254 46.7436ZM437.113 32.0196H441.397L437.833 27.1596H433.441L429.913 32.0196H434.197L435.673 29.8236L437.113 32.0196ZM444.493 45.0516C444.601 44.3676 444.673 43.7556 444.673 43.1436C444.673 40.4436 443.809 38.2116 442.081 36.3756C440.389 34.5396 438.193 33.6396 435.565 33.6396C432.793 33.6396 430.489 34.5396 428.725 36.3756C426.961 38.1756 426.061 40.4436 426.061 43.1436C426.061 45.8796 426.961 48.1476 428.761 49.9476C430.561 51.7476 432.937 52.6476 435.925 52.6476C439.381 52.6476 442.009 51.3516 443.773 48.7956L440.029 46.6356C439.129 47.8236 437.761 48.4356 435.997 48.4356C433.225 48.4356 431.533 47.3196 430.921 45.0516H444.493ZM430.849 41.4516C431.389 39.1476 433.081 37.8156 435.565 37.8156C437.689 37.8156 439.489 39.0036 440.029 41.4516H430.849ZM444.349 28.4196L441.649 23.8476H436.465L440.173 28.4196H444.349ZM467.391 33.6396C464.871 33.6396 462.927 34.5036 461.559 36.2676V26.9436H456.915V52.1436H461.559V50.0196C462.927 51.7836 464.871 52.6476 467.391 52.6476C469.803 52.6476 471.891 51.7476 473.583 49.9116C475.311 48.0756 476.175 45.8076 476.175 43.1436C476.175 40.4796 475.311 38.2476 473.583 36.4116C471.891 34.5756 469.803 33.6396 467.391 33.6396ZM462.963 46.8156C462.027 45.8436 461.559 44.6196 461.559 43.1436C461.559 41.6676 462.027 40.4436 462.963 39.5076C463.899 38.5356 465.087 38.0676 466.527 38.0676C467.967 38.0676 469.155 38.5356 470.091 39.5076C471.063 40.4436 471.531 41.6676 471.531 43.1436C471.531 44.6196 471.063 45.8436 470.091 46.8156C469.155 47.7516 467.967 48.2196 466.527 48.2196C465.087 48.2196 463.899 47.7516 462.963 46.8156ZM488.162 60.3516C489.746 60.3516 491.042 59.0916 491.042 57.5796C491.042 56.0676 489.746 54.7716 488.162 54.7716C486.614 54.7716 485.318 56.0676 485.318 57.5796C485.318 59.0916 486.614 60.3516 488.162 60.3516ZM493.13 36.2676C491.726 34.5036 489.782 33.6396 487.262 33.6396C484.85 33.6396 482.798 34.5756 481.07 36.4116C479.378 38.2476 478.514 40.4796 478.514 43.1436C478.514 45.8076 479.378 48.0756 481.07 49.9116C482.798 51.7476 484.85 52.6476 487.262 52.6476C489.782 52.6476 491.726 51.7836 493.13 50.0196V52.1436H497.774V34.1436H493.13V36.2676ZM484.562 46.8156C483.626 45.8436 483.158 44.6196 483.158 43.1436C483.158 41.6676 483.626 40.4436 484.562 39.5076C485.498 38.5356 486.686 38.0676 488.126 38.0676C489.566 38.0676 490.754 38.5356 491.69 39.5076C492.662 40.4436 493.13 41.6676 493.13 43.1436C493.13 44.6196 492.662 45.8436 491.69 46.8156C490.754 47.7516 489.566 48.2196 488.126 48.2196C486.686 48.2196 485.498 47.7516 484.562 46.8156ZM511.993 33.6396C509.545 33.6396 507.745 34.4676 506.629 36.1596V34.1436H501.985V52.1436H506.629V42.4236C506.629 39.4356 508.177 37.9596 510.589 37.9596C512.749 37.9596 514.153 39.2556 514.153 41.6676V52.1436H518.797V41.0916C518.797 38.7516 518.149 36.9516 516.853 35.6196C515.593 34.2876 513.973 33.6396 511.993 33.6396Z" fill="black"/>
<path fill-rule="evenodd" clip-rule="evenodd" d="M146.766 20.3092C146.746 20.4525 146.727 20.5935 146.709 20.732L147.496 20.6843L310.245 10.829L310.922 10.788C310.334 8.46647 309.702 5.54805 310.527 3.89473C311.099 2.74895 312.073 1.9466 313.201 1.57945C314.317 1.20658 315.583 1.25173 316.729 1.82386C317.875 2.39599 318.677 3.36922 319.044 4.49732C319.417 5.61396 319.366 6.8912 318.8 8.02552C317.945 9.73819 315.069 11.006 312.817 11.9487L312.892 13.1733L315.491 56.0946L315.539 56.8899C317.885 57.5534 320.877 58.4643 321.93 60.0565C322.629 61.1142 322.834 62.376 322.598 63.5295C322.37 64.6936 321.691 65.7566 320.623 66.4628C319.554 67.169 318.303 67.3665 317.15 67.1311C315.985 66.9028 314.922 66.2238 314.216 65.1554C313.259 63.7079 313.444 60.9983 313.721 58.7064L313.146 58.7412L150.397 68.5966L149.193 68.6695C149.776 70.9787 150.386 73.8532 149.569 75.4891C148.997 76.6349 148.024 77.4372 146.896 77.8044C145.779 78.1772 144.513 78.1321 143.368 77.56C142.222 76.9878 141.419 76.0146 141.052 74.8865C140.679 73.7699 140.73 72.4926 141.297 71.3583C142.197 69.5543 145.339 68.2439 147.633 67.2871L147.658 67.277C147.708 67.2551 147.759 67.2334 147.808 67.212L147.75 66.2523L145.151 23.3309L145.01 21.0031C142.676 20.3414 139.739 19.4332 138.698 17.8587C137.999 16.801 137.794 15.5392 138.029 14.3858C138.258 13.2216 138.937 12.1587 140.005 11.4524C141.074 10.7462 142.325 10.5487 143.478 10.7841C144.642 11.0124 145.705 11.6915 146.411 12.7598C147.527 14.4479 147.091 17.8525 146.766 20.3092ZM310.396 13.3244L147.647 23.1798L150.246 66.1011L312.995 56.2458L310.396 13.3244Z" fill="#FF6D34"/>
</svg>
