<svg width="548" height="80" viewBox="0 0 548 80" fill="none" xmlns="http://www.w3.org/2000/svg">
<path d="M13.6445 52.1489L18.3605 35.5169L23.1125 52.1489H28.7645L35.8205 26.9489H30.6005L25.7765 45.6329L20.4845 26.9489H16.2365L10.9805 45.6329L6.15648 26.9489H0.936484L7.99248 52.1489H13.6445ZM48.4933 33.6449C46.0453 33.6449 44.2453 34.4729 43.1293 36.1649V26.9489H38.4853V52.1489H43.1293V42.4289C43.1293 39.4409 44.6773 37.9649 47.0893 37.9649C49.2493 37.9649 50.6533 39.2609 50.6533 41.6729V52.1489H55.2973V41.0969C55.2973 38.7569 54.6493 36.9569 53.3533 35.6249C52.0933 34.2929 50.4733 33.6449 48.4933 33.6449ZM72.9427 36.2729C71.5387 34.5089 69.5947 33.6449 67.0747 33.6449C64.6627 33.6449 62.6107 34.5809 60.8827 36.4169C59.1907 38.2529 58.3267 40.4849 58.3267 43.1489C58.3267 45.8129 59.1907 48.0809 60.8827 49.9169C62.6107 51.7529 64.6627 52.6529 67.0747 52.6529C69.5947 52.6529 71.5387 51.7889 72.9427 50.0249V52.1489H77.5867V34.1489H72.9427V36.2729ZM64.3747 46.8209C63.4387 45.8489 62.9707 44.6249 62.9707 43.1489C62.9707 41.6729 63.4387 40.4489 64.3747 39.5129C65.3107 38.5409 66.4987 38.0729 67.9387 38.0729C69.3787 38.0729 70.5667 38.5409 71.5027 39.5129C72.4747 40.4489 72.9427 41.6729 72.9427 43.1489C72.9427 44.6249 72.4747 45.8489 71.5027 46.8209C70.5667 47.7569 69.3787 48.2249 67.9387 48.2249C66.4987 48.2249 65.3107 47.7569 64.3747 46.8209ZM92.0938 34.1489H88.0258V29.1089L83.3818 30.5129V34.1489H80.2498V38.6129H83.3818V46.1009C83.3818 51.0329 85.7218 52.8689 92.0938 52.1489V47.9369C89.4298 48.0809 88.0258 48.0449 88.0258 46.1009V38.6129H92.0938V34.1489ZM113.217 52.6529C116.709 52.6529 119.769 50.8169 121.353 47.9729L117.321 45.6689C116.601 47.1449 115.053 48.0449 113.181 48.0449C111.777 48.0449 110.625 47.5769 109.725 46.6769C108.825 45.7409 108.357 44.5529 108.357 43.1489C108.357 40.2689 110.409 38.2169 113.181 38.2169C115.017 38.2169 116.565 39.1529 117.285 40.6289L121.281 38.2889C119.805 35.4449 116.709 33.6449 113.217 33.6449C110.517 33.6449 108.249 34.5449 106.413 36.3809C104.613 38.2169 103.713 40.4489 103.713 43.1489C103.713 45.8489 104.613 48.0809 106.413 49.9169C108.249 51.7529 110.517 52.6529 113.217 52.6529ZM137.208 36.2729C135.804 34.5089 133.86 33.6449 131.34 33.6449C128.928 33.6449 126.876 34.5809 125.148 36.4169C123.456 38.2529 122.592 40.4849 122.592 43.1489C122.592 45.8129 123.456 48.0809 125.148 49.9169C126.876 51.7529 128.928 52.6529 131.34 52.6529C133.86 52.6529 135.804 51.7889 137.208 50.0249V52.1489H141.852V34.1489H137.208V36.2729ZM128.64 46.8209C127.704 45.8489 127.236 44.6249 127.236 43.1489C127.236 41.6729 127.704 40.4489 128.64 39.5129C129.576 38.5409 130.764 38.0729 132.204 38.0729C133.644 38.0729 134.832 38.5409 135.768 39.5129C136.74 40.4489 137.208 41.6729 137.208 43.1489C137.208 44.6249 136.74 45.8489 135.768 46.8209C134.832 47.7569 133.644 48.2249 132.204 48.2249C130.764 48.2249 129.576 47.7569 128.64 46.8209ZM156.071 33.6449C153.623 33.6449 151.823 34.4729 150.707 36.1649V34.1489H146.063V52.1489H150.707V42.4289C150.707 39.4409 152.255 37.9649 154.667 37.9649C156.827 37.9649 158.231 39.2609 158.231 41.6729V52.1489H162.875V41.0969C162.875 38.7569 162.227 36.9569 160.931 35.6249C159.671 34.2929 158.051 33.6449 156.071 33.6449ZM206.657 52.1489L197.801 26.9489H191.645L182.825 52.1489H188.189L189.701 47.6129H199.745L201.257 52.1489H206.657ZM194.741 32.6729L198.197 42.9689H191.285L194.741 32.6729ZM219.112 39.1889L228.436 26.9489H222.712L214.072 38.0729V26.9489H209.104V52.1489H214.072V40.3409L223.072 52.1489H228.796L219.112 39.1889ZM253.485 52.1489L244.629 26.9489H238.473L229.653 52.1489H235.017L236.529 47.6129H246.573L248.085 52.1489H253.485ZM241.569 32.6729L245.025 42.9689H238.113L241.569 32.6729ZM255.932 26.9489V52.1489H265.94C269.396 52.1489 272.276 50.9249 274.58 48.5129C276.92 46.1009 278.072 43.1129 278.072 39.5489C278.072 35.9849 276.92 32.9969 274.58 30.5849C272.276 28.1729 269.396 26.9489 265.94 26.9489H255.932ZM260.9 47.3969V31.7009H265.94C268.136 31.7009 269.9 32.4209 271.268 33.8969C272.636 35.3369 273.32 37.2089 273.32 39.5489C273.32 41.8889 272.636 43.7609 271.268 45.2369C269.9 46.6769 268.136 47.3969 265.94 47.3969H260.9ZM302.8 48.8729C305.356 46.3169 306.616 43.2209 306.616 39.5489C306.616 35.8769 305.356 32.7809 302.8 30.2609C300.244 27.7049 297.148 26.4449 293.512 26.4449C289.876 26.4449 286.78 27.7049 284.224 30.2609C281.704 32.7809 280.444 35.8769 280.444 39.5489C280.444 43.2209 281.704 46.3169 284.224 48.8729C286.78 51.3929 289.876 52.6529 293.512 52.6529C297.148 52.6529 300.244 51.3929 302.8 48.8729ZM287.716 45.4889C286.168 43.9409 285.376 41.9609 285.376 39.5489C285.376 37.1369 286.168 35.1569 287.716 33.6089C289.264 32.0609 291.208 31.2689 293.512 31.2689C295.816 31.2689 297.76 32.0609 299.308 33.6089C300.856 35.1569 301.648 37.1369 301.648 39.5489C301.648 41.9609 300.856 43.9409 299.308 45.4889C297.76 47.0369 295.816 47.7929 293.512 47.7929C291.208 47.7929 289.264 47.0369 287.716 45.4889ZM324.688 42.3209L313.888 26.9489H310.108V52.1489H315.076V36.7409L325.876 52.1489H329.656V26.9489H324.688V42.3209ZM374.758 36.2729C373.39 34.5089 371.446 33.6449 368.926 33.6449C366.514 33.6449 364.426 34.5809 362.698 36.4169C361.006 38.2529 360.142 40.4849 360.142 43.1489C360.142 45.8129 361.006 48.0809 362.698 49.9169C364.426 51.7529 366.514 52.6529 368.926 52.6529C371.446 52.6529 373.39 51.7889 374.758 50.0249V52.1489H379.402V26.9489H374.758V36.2729ZM366.19 46.8209C365.254 45.8489 364.786 44.6249 364.786 43.1489C364.786 41.6729 365.254 40.4489 366.19 39.5129C367.162 38.5409 368.35 38.0729 369.79 38.0729C371.23 38.0729 372.418 38.5409 373.354 39.5129C374.29 40.4489 374.758 41.6729 374.758 43.1489C374.758 44.6249 374.29 45.8489 373.354 46.8209C372.418 47.7569 371.23 48.2249 369.79 48.2249C368.35 48.2249 367.162 47.7569 366.19 46.8209ZM398.985 49.9169C400.821 48.0809 401.757 45.8129 401.757 43.1489C401.757 40.4849 400.821 38.2529 398.985 36.4169C397.149 34.5809 394.881 33.6449 392.217 33.6449C389.553 33.6449 387.285 34.5809 385.449 36.4169C383.613 38.2529 382.713 40.4849 382.713 43.1489C382.713 45.8129 383.613 48.0809 385.449 49.9169C387.285 51.7529 389.553 52.6529 392.217 52.6529C394.881 52.6529 397.149 51.7529 398.985 49.9169ZM388.725 46.7129C387.825 45.7769 387.357 44.5889 387.357 43.1489C387.357 41.7089 387.825 40.5209 388.725 39.5849C389.661 38.6489 390.813 38.1809 392.217 38.1809C393.621 38.1809 394.773 38.6489 395.709 39.5849C396.645 40.5209 397.113 41.7089 397.113 43.1489C397.113 44.5889 396.645 45.7769 395.709 46.7129C394.773 47.6489 393.621 48.1169 392.217 48.1169C390.813 48.1169 389.661 47.6489 388.725 46.7129ZM423.708 26.4449C418.092 26.1209 415.248 28.8929 415.248 33.9689V34.1489H412.656V38.6129H415.248V52.1489H419.892V38.6129H423.708V34.1489H419.892V33.9689C419.892 31.7369 421.152 30.7289 423.708 30.9089V26.4449ZM441.173 49.9169C443.009 48.0809 443.945 45.8129 443.945 43.1489C443.945 40.4849 443.009 38.2529 441.173 36.4169C439.337 34.5809 437.069 33.6449 434.405 33.6449C431.741 33.6449 429.473 34.5809 427.637 36.4169C425.801 38.2529 424.901 40.4849 424.901 43.1489C424.901 45.8129 425.801 48.0809 427.637 49.9169C429.473 51.7529 431.741 52.6529 434.405 52.6529C437.069 52.6529 439.337 51.7529 441.173 49.9169ZM430.913 46.7129C430.013 45.7769 429.545 44.5889 429.545 43.1489C429.545 41.7089 430.013 40.5209 430.913 39.5849C431.849 38.6489 433.001 38.1809 434.405 38.1809C435.809 38.1809 436.961 38.6489 437.897 39.5849C438.833 40.5209 439.301 41.7089 439.301 43.1489C439.301 44.5889 438.833 45.7769 437.897 46.7129C436.961 47.6489 435.809 48.1169 434.405 48.1169C433.001 48.1169 431.849 47.6489 430.913 46.7129ZM451.856 34.1489H447.212V52.1489H451.856V43.5449C451.856 41.8169 452.396 40.5929 453.512 39.8369C454.628 39.0809 455.924 38.7929 457.328 38.9729V33.7889C454.88 33.7889 452.72 34.9409 451.856 37.2449V34.1489ZM476.784 46.2449L472.104 34.1489H467.028L474.408 51.5729C473.544 54.0209 472.176 55.0649 469.692 55.0289V59.3489C474.3 59.6009 477.324 57.3329 479.196 52.1489L485.748 34.1489H480.78L476.784 46.2449ZM503.294 49.9169C505.13 48.0809 506.066 45.8129 506.066 43.1489C506.066 40.4849 505.13 38.2529 503.294 36.4169C501.458 34.5809 499.19 33.6449 496.526 33.6449C493.862 33.6449 491.594 34.5809 489.758 36.4169C487.922 38.2529 487.022 40.4849 487.022 43.1489C487.022 45.8129 487.922 48.0809 489.758 49.9169C491.594 51.7529 493.862 52.6529 496.526 52.6529C499.19 52.6529 501.458 51.7529 503.294 49.9169ZM493.034 46.7129C492.134 45.7769 491.666 44.5889 491.666 43.1489C491.666 41.7089 492.134 40.5209 493.034 39.5849C493.97 38.6489 495.122 38.1809 496.526 38.1809C497.93 38.1809 499.082 38.6489 500.018 39.5849C500.954 40.5209 501.422 41.7089 501.422 43.1489C501.422 44.5889 500.954 45.7769 500.018 46.7129C499.082 47.6489 497.93 48.1169 496.526 48.1169C495.122 48.1169 493.97 47.6489 493.034 46.7129ZM521.213 43.8689C521.213 46.8569 519.665 48.3329 517.253 48.3329C515.093 48.3329 513.689 47.0369 513.689 44.6249V34.1489H509.045V45.2009C509.045 47.5409 509.693 49.3409 510.953 50.6729C512.249 52.0049 513.869 52.6529 515.849 52.6529C518.297 52.6529 520.097 51.8249 521.213 50.1329V52.1489H525.857V34.1489H521.213V43.8689ZM539.693 43.6889C539.693 40.5569 545.741 38.9009 545.741 33.5369C545.741 31.3409 544.949 29.6129 543.329 28.3529C541.745 27.0929 539.873 26.4449 537.677 26.4449C533.789 26.4449 530.405 28.4609 528.965 32.0249L533.213 34.4729C534.041 32.3489 535.481 31.2689 537.497 31.2689C539.549 31.2689 540.773 32.2049 540.773 33.8969C540.773 35.4809 539.225 37.1729 537.749 38.3609C536.273 39.5129 534.725 41.5649 534.725 43.6889H539.693ZM539.369 51.7169C540.557 50.5289 540.557 48.5849 539.369 47.3969C538.181 46.2089 536.237 46.2089 535.049 47.3969C533.861 48.5849 533.861 50.5289 535.049 51.7169C536.237 52.9049 538.181 52.9049 539.369 51.7169Z" fill="black"/>
<path fill-rule="evenodd" clip-rule="evenodd" d="M170.739 20.6769C170.72 20.8202 170.701 20.9612 170.683 21.0996L171.469 21.052L339.843 10.856L341.119 10.7788L341.087 10.6568C340.467 8.25733 339.623 4.93017 340.527 3.11983C341.099 1.97405 342.073 1.1717 343.201 0.80455C344.317 0.431677 345.583 0.476825 346.729 1.04896C347.875 1.62109 348.677 2.59432 349.044 3.72242C349.417 4.83906 349.366 6.1163 348.8 7.25062C347.899 9.05461 344.757 10.365 342.463 11.3218L342.439 11.3319L342.378 11.3581L342.49 13.2004L345.089 56.1217L345.204 58.0205C347.591 58.6921 350.827 59.6125 351.93 61.2816C352.629 62.3393 352.834 63.6011 352.598 64.7546C352.37 65.9187 351.691 66.9817 350.623 67.6879C349.554 68.3941 348.303 68.5916 347.15 68.3562C345.985 68.1279 344.922 67.4489 344.216 66.3805C343.1 64.6925 343.537 61.2878 343.862 58.8311C343.868 58.787 343.874 58.7432 343.88 58.6995L342.744 58.7683L174.371 68.9642L173.167 69.0371C173.75 71.3464 174.36 74.2209 173.543 75.8568C172.971 77.0026 171.998 77.8049 170.869 78.1721C169.753 78.5449 168.487 78.4998 167.341 77.9277C166.195 77.3555 165.393 76.3823 165.026 75.2542C164.653 74.1375 164.704 72.8603 165.27 71.726C166.171 69.922 169.313 68.6116 171.607 67.6548L171.631 67.6447C171.682 67.6227 171.732 67.6011 171.782 67.5797L171.724 66.6199L169.125 23.6986L168.984 21.3708C166.65 20.7091 163.712 19.8008 162.671 18.2264C161.972 17.1687 161.768 15.9069 162.003 14.7534C162.231 13.5893 162.911 12.5263 163.979 11.8201C165.047 11.1139 166.298 10.9164 167.452 11.1518C168.616 11.3801 169.679 12.0592 170.385 13.1275C171.501 14.8156 171.065 18.2202 170.739 20.6769ZM339.994 13.3515L171.62 23.5474L174.219 66.4688L342.593 56.2728L339.994 13.3515Z" fill="#FF6D34"/>
</svg>
