<svg width="739" height="631" viewBox="0 0 739 631" fill="none" xmlns="http://www.w3.org/2000/svg">
<g filter="url(#filter0_d)">
<rect x="45" y="45" width="649" height="541" rx="24" fill="white"/>
</g>
<path d="M45 69C45 55.7452 55.7452 45 69 45H670C683.255 45 694 55.7452 694 69V93H45V69Z" fill="url(#paint0_linear)"/>
<circle cx="77" cy="69" r="8" fill="#FF4C44"/>
<circle cx="101" cy="69" r="8" fill="#FFBE00"/>
<circle cx="125" cy="69" r="8" fill="#00D22B"/>
<g opacity="0.5" clip-path="url(#clip0)">
<path d="M298.211 443.442L282.031 446.623L285.724 422.767L295.674 422.97C295.612 423.39 295.547 423.797 295.509 424.217C295.141 427.424 295.331 430.642 295.737 433.518C296.548 439.167 298.211 443.442 298.211 443.442Z" fill="#F9B384"/>
<path d="M295.736 433.518C289.518 430.579 287.208 424.407 287.208 424.407L295.509 424.217C295.139 427.424 295.329 430.642 295.736 433.518Z" fill="#102048"/>
<path d="M299.158 409.191C299.793 411.416 303.388 425.52 296.831 427.109C290.273 428.7 283.506 422.655 283.506 422.655L285.726 409.083L295.244 406.221L299.158 409.191Z" fill="#F9B384"/>
<path d="M290.474 416.865C290.474 416.865 292.179 405.586 299.158 409.191C298.908 409.061 298.547 407.937 298.391 407.68C297.687 406.522 296.782 405.472 295.687 404.67C291.715 401.751 285.017 402.813 281.814 406.169C278.661 409.474 278.562 415.347 280.187 419.618C280.45 420.308 280.782 420.972 281.181 421.593C281.545 422.159 281.973 422.628 282.456 423.093C282.871 423.493 285.985 425.951 286.018 424.061C286.096 419.45 290.474 416.865 290.474 416.865Z" fill="#EB5D60"/>
<path d="M292.01 419.448C293.197 418.474 293.185 416.49 291.982 415.016C290.779 413.542 288.842 413.136 287.655 414.11C286.467 415.083 286.48 417.067 287.682 418.542C288.885 420.016 290.822 420.422 292.01 419.448Z" fill="#F9B384"/>
<path d="M300.477 418.813C301.293 418.813 301.955 418.093 301.955 417.204C301.955 416.316 301.293 415.595 300.477 415.595C299.661 415.595 299 416.316 299 417.204C299 418.093 299.661 418.813 300.477 418.813Z" fill="#F9B384"/>
<path d="M279.275 535.471L260.028 543.742C260.028 543.742 275.892 584.245 280.543 586.79C285.197 589.335 282.87 566.856 286.042 560.071L290.061 544.167L279.275 535.471Z" fill="#102048"/>
<path d="M277.763 558.481L277.622 560.51L285.976 561.093L286.117 559.064L277.763 558.481Z" fill="white"/>
<path d="M274.412 532.501L286.044 560.069C286.044 560.069 331.307 536.318 342.517 514.688L324.75 491.364L274.412 532.501Z" fill="#7D69ED"/>
<path d="M335.112 554.768C335.112 554.768 356.263 555.618 365.992 538.864L344.418 535.684L335.112 554.768Z" fill="#102048"/>
<path d="M368.197 557.662L344.336 566.114L342.412 559.289L338.915 546.927L358.804 537.489L360.204 540.495L368.197 557.662Z" fill="#F9B384"/>
<path d="M398.354 587L372.233 566.326L368.201 557.667L344.338 566.112L350.236 587H398.354Z" fill="#102048"/>
<path d="M371.429 565.709L366.035 572.601L367.629 573.855L373.023 566.963L371.429 565.709Z" fill="white"/>
<path d="M360.204 540.495L342.412 559.289L338.915 546.927L358.804 537.489L360.204 540.495Z" fill="#E28B6D"/>
<path d="M365.999 538.861C354.752 541.706 344.469 547.018 335.117 554.768L319.037 512.357C319.037 512.357 286.595 543.36 267.223 538.231C248.815 533.355 256.848 502.811 256.848 502.811C282.126 485.065 322.338 461.233 339.958 480.108C340.049 480.188 340.121 480.26 340.192 480.343C343.799 484.314 347.873 492.167 351.702 500.862C359.341 518.179 365.999 538.861 365.999 538.861Z" fill="#7D69ED"/>
<path d="M351.702 500.86C334.174 504.994 316.14 485.471 316.14 485.471L334.254 479.509L339.958 480.108C340.049 480.188 340.121 480.26 340.192 480.343C343.799 484.311 347.873 492.164 351.702 500.86Z" fill="#5B4DAD"/>
<path d="M334.642 554.949L318.835 513.258C315.407 516.523 296.755 533.634 277.091 538.83L276.833 537.849C298.237 532.193 318.476 512.201 318.679 511.998L319.231 511.446L335.587 554.587L334.642 554.949Z" fill="#5B4DAD"/>
<path d="M282.917 434.588L275.816 457.606L266.261 488.569C266.261 488.569 259.291 491.078 253.141 490.296C247.711 489.606 242.919 486.334 244.214 476.45C247.072 454.661 282.917 434.588 282.917 434.588Z" fill="#FBC343"/>
<path d="M275.816 457.606L266.261 488.569C266.261 488.569 259.291 491.078 253.141 490.296C258.299 458.511 275.359 444.971 275.359 444.971L275.816 457.606Z" fill="#E49B31"/>
<path d="M352.4 457.372L347.113 477.567L329.259 460.684L336.343 448.779L345.916 453.899L352.4 457.372Z" fill="#FBC343"/>
<path d="M336.383 448.799L343.157 437.943L356.847 432.094L352.36 457.412L336.383 448.799Z" fill="#F9B384"/>
<path d="M402.888 428.025C399.291 427.162 396.05 427.303 393.121 428.38C391.186 429.091 389.383 430.22 387.72 431.744L381.105 416.364C383.405 415.957 385.503 415.267 387.397 414.261C390.143 412.809 392.432 410.706 394.216 407.852L402.888 428.025Z" fill="#1F3C88"/>
<path d="M387.736 431.73L381.125 416.355L283.725 462.71L287.244 470.899L387.736 431.73L381.125 416.355L387.736 431.73Z" fill="#1F3C88"/>
<path d="M402.888 428.025C399.291 427.162 396.05 427.303 393.121 428.38L387.397 414.261C390.143 412.809 392.432 410.706 394.215 407.852L402.888 428.025Z" fill="#102048"/>
<path d="M478.745 436.07C499.065 415.697 499.066 382.666 478.746 362.293C458.426 341.92 425.481 341.921 405.16 362.295C384.84 382.668 384.839 415.699 405.159 436.072C425.478 456.444 458.424 456.444 478.745 436.07Z" fill="#1F3C88"/>
<path d="M472.606 429.915C489.535 412.942 489.535 385.423 472.606 368.449C455.676 351.476 428.229 351.476 411.299 368.449C394.37 385.423 394.37 412.942 411.299 429.915C428.229 446.889 455.676 446.889 472.606 429.915Z" fill="white"/>
<path d="M402.436 381.323H481.463C481.291 380.943 481.122 380.561 480.941 380.188H402.975C402.793 380.564 402.608 380.941 402.436 381.323Z" fill="#86A7FF"/>
<path d="M481.331 417.35H402.587C402.761 417.73 402.931 418.112 403.113 418.485H480.785C480.972 418.107 481.158 417.73 481.331 417.35Z" fill="#86A7FF"/>
<path d="M409.582 399.778V398.895C409.582 395.331 406.673 392.414 403.118 392.414H399.142C398.424 396.942 398.413 401.613 399.182 406.261H403.118C406.671 406.259 409.582 403.342 409.582 399.778Z" fill="#D3DFFF"/>
<path d="M430.119 392.412C426.517 392.412 423.568 395.366 423.568 398.98V399.691C423.568 403.302 426.515 406.259 430.119 406.259H458.353C461.955 406.259 464.904 403.304 464.904 399.691V398.98C464.904 395.369 461.957 392.412 458.353 392.412H430.119Z" fill="#D3DFFF"/>
<path d="M484.784 392.412H483.329C479.53 392.412 476.423 395.527 476.423 399.335C476.423 403.143 479.53 406.259 483.329 406.259H484.719C485.468 401.736 485.52 397.065 484.784 392.412Z" fill="#D3DFFF"/>
<path d="M352.4 457.372L345.916 453.897L349.868 445.293C349.868 445.293 355.369 435.328 358.115 435.755C360.861 436.173 352.4 457.372 352.4 457.372Z" fill="#F9B384"/>
<path d="M329.264 460.684L327.918 462.95C325.241 459.26 319.339 451.396 311.916 445.15C305.241 439.538 296.184 430.812 288.278 432.021C267.11 435.239 256.853 502.813 256.853 502.813L311.624 482.935L323.895 492.52C326.563 494.605 329.919 495.601 333.29 495.309C338.951 494.819 343.692 490.806 345.121 485.29L347.118 477.574L329.264 460.684Z" fill="#FBC343"/>
<path d="M297.095 469.345L296.424 470.105L311.284 483.307L311.955 482.548L297.095 469.345Z" fill="#E49B31"/>
<path d="M326.856 460.852L326.029 461.437L334.98 474.137L335.806 473.551L326.856 460.852Z" fill="#E49B31"/>
</g>
<path d="M405.875 126.754C405.875 130.466 403.327 132.971 399.595 132.971C395.819 132.971 393.271 130.466 393.271 126.754C393.271 123.066 395.819 120.582 399.595 120.582C403.327 120.584 405.875 123.066 405.875 126.754ZM396.199 126.799C396.199 128.987 397.585 130.487 399.595 130.487C401.561 130.487 402.946 128.984 402.946 126.799C402.946 124.614 401.561 123.111 399.595 123.111C397.585 123.111 396.199 124.614 396.199 126.799Z" fill="#0367B4"/>
<path d="M420.575 125.25V132.855H417.649V126.116C417.649 124.407 416.644 123.362 414.991 123.362C413.025 123.383 411.863 124.865 411.863 126.868V132.855H408.958V120.674H411.863V122.95C412.713 121.332 414.209 120.581 416.153 120.559C418.901 120.559 420.575 122.359 420.575 125.25Z" fill="#0367B4"/>
<path d="M428.522 144.529H385.324V109H428.522V144.529ZM387.644 142.167H426.204V111.362H387.644V142.167Z" fill="#0367B4"/>
<path d="M354.884 155.617C354.884 156.68 355.72 157.367 357.087 157.367C358.827 157.367 360.194 156.421 360.356 155.194V154.059H357.226C355.626 154.057 354.884 154.507 354.884 155.617Z" fill="#0367B4"/>
<path d="M324.996 153.372H330.7L327.871 146.425L324.996 153.372Z" fill="#0367B4"/>
<path d="M372.739 157.151C374.686 157.151 376.264 155.427 376.264 153.301C376.264 151.174 374.686 149.45 372.739 149.45C370.793 149.45 369.214 151.174 369.214 153.301C369.214 155.427 370.793 157.151 372.739 157.151Z" fill="#0367B4"/>
<path d="M311 132.779V169H387.498V132.779H311ZM333.251 159.585L331.814 156.089H323.883L322.446 159.585H319.222L326.34 143.043H329.564L336.59 159.585H333.251ZM347.419 159.585L344.056 154.057L342.154 156.089V159.585H339.138V142.05H342.154V152.212L347.254 146.966H350.732L346.141 151.833L351.012 159.585H347.419ZM360.379 159.585V158.049C359.522 159.159 358.13 159.726 356.368 159.726C353.701 159.726 352.033 158.049 352.033 155.804C352.033 153.463 353.726 152.023 356.739 151.999H360.356V151.668C360.356 150.204 359.405 149.328 357.55 149.328C356.389 149.328 355.138 149.73 353.863 150.51L352.773 148.382C354.558 147.365 355.95 146.822 358.221 146.822C361.467 146.822 363.298 148.5 363.322 151.312L363.345 159.583H360.379V159.585ZM379.277 159.585H376.261V157.553C375.381 158.948 373.944 159.726 372.088 159.726C368.54 159.726 366.175 157.079 366.175 153.229C366.175 149.4 368.54 146.824 372.018 146.824C373.92 146.824 375.357 147.605 376.261 149.021V142.05H379.277V159.585Z" fill="#0367B4"/>
<defs>
<filter id="filter0_d" x="0" y="0" width="739" height="631" filterUnits="userSpaceOnUse" color-interpolation-filters="sRGB">
<feFlood flood-opacity="0" result="BackgroundImageFix"/>
<feColorMatrix in="SourceAlpha" type="matrix" values="0 0 0 0 0 0 0 0 0 0 0 0 0 0 0 0 0 0 127 0" result="hardAlpha"/>
<feOffset/>
<feGaussianBlur stdDeviation="22.5"/>
<feColorMatrix type="matrix" values="0 0 0 0 0 0 0 0 0 0 0 0 0 0 0 0 0 0 0.1 0"/>
<feBlend mode="normal" in2="BackgroundImageFix" result="effect1_dropShadow"/>
<feBlend mode="normal" in="SourceGraphic" in2="effect1_dropShadow" result="shape"/>
</filter>
<linearGradient id="paint0_linear" x1="69.3593" y1="69" x2="694" y2="69" gradientUnits="userSpaceOnUse">
<stop stop-color="#FF005A"/>
<stop offset="0.0001" stop-color="#FF005A"/>
<stop offset="1" stop-color="#FF480D"/>
</linearGradient>
<clipPath id="clip0">
<rect width="250" height="240" fill="white" transform="translate(244 347)"/>
</clipPath>
</defs>
</svg>
