<svg width="739" height="631" viewBox="0 0 739 631" fill="none" xmlns="http://www.w3.org/2000/svg">
<g filter="url(#filter0_d)">
<rect x="45" y="45" width="649" height="541" rx="24" fill="white"/>
</g>
<path d="M45 69C45 55.7452 55.7452 45 69 45H670C683.255 45 694 55.7452 694 69V93H45V69Z" fill="url(#paint0_linear)"/>
<circle cx="77" cy="69" r="8" fill="#FF4C44"/>
<circle cx="101" cy="69" r="8" fill="#FFBE00"/>
<circle cx="125" cy="69" r="8" fill="#00D22B"/>
<path d="M405.875 126.754C405.875 130.466 403.327 132.971 399.595 132.971C395.819 132.971 393.271 130.466 393.271 126.754C393.271 123.066 395.819 120.582 399.595 120.582C403.327 120.584 405.875 123.066 405.875 126.754ZM396.199 126.799C396.199 128.987 397.585 130.487 399.595 130.487C401.561 130.487 402.946 128.984 402.946 126.799C402.946 124.614 401.561 123.111 399.595 123.111C397.585 123.111 396.199 124.614 396.199 126.799Z" fill="#0367B4"/>
<path d="M420.575 125.25V132.855H417.649V126.116C417.649 124.407 416.644 123.362 414.991 123.362C413.025 123.383 411.863 124.865 411.863 126.868V132.855H408.958V120.674H411.863V122.95C412.713 121.332 414.209 120.581 416.153 120.559C418.901 120.559 420.575 122.359 420.575 125.25Z" fill="#0367B4"/>
<path d="M428.522 144.529H385.324V109H428.522V144.529ZM387.644 142.167H426.204V111.362H387.644V142.167Z" fill="#0367B4"/>
<path d="M354.884 155.617C354.884 156.68 355.72 157.367 357.087 157.367C358.827 157.367 360.194 156.421 360.356 155.194V154.059H357.225C355.626 154.057 354.884 154.507 354.884 155.617Z" fill="#0367B4"/>
<path d="M324.996 153.372H330.7L327.871 146.425L324.996 153.372Z" fill="#0367B4"/>
<path d="M372.739 157.151C374.686 157.151 376.264 155.427 376.264 153.301C376.264 151.174 374.686 149.45 372.739 149.45C370.792 149.45 369.214 151.174 369.214 153.301C369.214 155.427 370.792 157.151 372.739 157.151Z" fill="#0367B4"/>
<path d="M311 132.779V169H387.498V132.779H311ZM333.251 159.585L331.814 156.089H323.883L322.446 159.585H319.222L326.34 143.043H329.564L336.59 159.585H333.251ZM347.419 159.585L344.056 154.057L342.154 156.089V159.585H339.138V142.05H342.154V152.212L347.254 146.966H350.732L346.141 151.833L351.012 159.585H347.419ZM360.379 159.585V158.049C359.522 159.159 358.13 159.726 356.368 159.726C353.701 159.726 352.033 158.049 352.033 155.804C352.033 153.463 353.726 152.023 356.739 151.999H360.356V151.668C360.356 150.204 359.405 149.328 357.55 149.328C356.389 149.328 355.138 149.73 353.863 150.51L352.773 148.382C354.558 147.365 355.95 146.822 358.221 146.822C361.467 146.822 363.298 148.5 363.322 151.312L363.345 159.583H360.379V159.585ZM379.277 159.585H376.261V157.553C375.381 158.948 373.944 159.726 372.088 159.726C368.54 159.726 366.175 157.079 366.175 153.229C366.175 149.4 368.54 146.824 372.018 146.824C373.92 146.824 375.357 147.605 376.261 149.021V142.05H379.277V159.585Z" fill="#0367B4"/>
<g opacity="0.5" clip-path="url(#clip0)">
<path d="M514.236 566.549H208.346" stroke="#E9F4FF" stroke-width="0.98" stroke-miterlimit="10" stroke-linecap="round" stroke-linejoin="round"/>
<path d="M313.474 371.343H301.665V376.21H313.474V371.343Z" stroke="#E9F4FF" stroke-width="0.98" stroke-miterlimit="10" stroke-linecap="round" stroke-linejoin="round"/>
<path d="M289.849 371.343H301.665V376.21H289.849" stroke="#E9F4FF" stroke-width="0.98" stroke-miterlimit="10" stroke-linecap="round" stroke-linejoin="round"/>
<path d="M307.566 376.21H295.757V381.076H307.566V376.21Z" stroke="#E9F4FF" stroke-width="0.98" stroke-miterlimit="10" stroke-linecap="round" stroke-linejoin="round"/>
<path d="M304.51 366.477V371.343H297.945V366.477" stroke="#E9F4FF" stroke-width="0.98" stroke-miterlimit="10" stroke-linecap="round" stroke-linejoin="round"/>
<path d="M495.207 451.263H483.398V456.129H495.207V451.263Z" stroke="#E9F4FF" stroke-width="0.98" stroke-miterlimit="10" stroke-linecap="round" stroke-linejoin="round"/>
<path d="M471.589 451.263H483.398V456.129H471.589" stroke="#E9F4FF" stroke-width="0.98" stroke-miterlimit="10" stroke-linecap="round" stroke-linejoin="round"/>
<path d="M489.306 456.129H477.497V460.996H489.306V456.129Z" stroke="#E9F4FF" stroke-width="0.98" stroke-miterlimit="10" stroke-linecap="round" stroke-linejoin="round"/>
<path d="M486.25 446.397V451.263H479.685V446.397" stroke="#E9F4FF" stroke-width="0.98" stroke-miterlimit="10" stroke-linecap="round" stroke-linejoin="round"/>
<path d="M522.177 532.796C522.177 532.796 512.465 532.796 503.635 532.796C494.805 532.796 494.628 538.588 497.628 549.474C500.628 560.36 502.399 566.556 502.399 566.556" stroke="#E9F4FF" stroke-width="0.98" stroke-miterlimit="10" stroke-linecap="round" stroke-linejoin="round"/>
<path d="M512.931 500.188C512.931 500.188 517.293 486.141 500.804 479.598C503.395 483.432 503.395 483.432 503.395 483.432C503.395 483.432 495.143 479.047 486.913 479.598C487.626 497.939 503.861 501.016 512.931 500.188Z" fill="#293E77"/>
<path d="M518.705 532.796C518.705 532.796 524.238 506.208 505.167 492.047" stroke="#E9F4FF" stroke-width="0.98" stroke-miterlimit="10" stroke-linecap="round" stroke-linejoin="round"/>
<path d="M502.576 513.125C500.924 505.613 489.857 510.444 490.923 517.765C491.981 525.079 495.885 528.269 495.885 528.269C495.885 528.269 502.343 524.845 506.232 522.249C510.114 519.654 510.933 509.079 502.576 513.125Z" fill="#293E77"/>
<path d="M519.375 521.061C516.001 509.978 508.463 505.96 502.103 514.455" stroke="#E9F4FF" stroke-width="0.98" stroke-miterlimit="10" stroke-linecap="round" stroke-linejoin="round"/>
<path d="M517.999 538.058H495.99" stroke="#E9F4FF" stroke-width="0.98" stroke-miterlimit="10" stroke-linecap="round" stroke-linejoin="round"/>
<path d="M344.686 447.359C348.335 439.189 387.276 429.987 398.125 438.065C393.784 449.686 393.784 449.686 393.784 449.686L354.575 454.757L344.686 447.359Z" fill="#100D14"/>
<path d="M397.3 373.126C407.09 382.908 404.972 395.06 407.795 404.616C410.619 414.171 417.924 425.029 410.739 433.991C403.553 442.959 387.192 444.254 382.364 433.991C377.536 423.727 368.12 422.426 361.817 426.557C355.521 430.687 344.1 430.921 341.27 421.952C338.447 412.983 349.627 405.316 356.813 405.79C363.998 406.271 370.082 365.232 397.3 373.126Z" fill="#100D14"/>
<path d="M361.175 419.483L356.347 453.696L384.834 452.989L391.314 414.928L361.175 419.483Z" fill="#E5987D"/>
<path d="M358.902 435.589L382.039 419.215L361.175 419.483L358.902 435.589Z" fill="#DB785E"/>
<path d="M382.484 376.061C367.937 371.803 351.519 383.021 350.813 401.546C350.107 420.07 363.765 426.323 377.543 423.727C391.321 421.131 399.558 408.272 397.928 394.536C396.721 384.457 390.135 378.303 382.484 376.061Z" fill="#E5987D"/>
<path d="M350.418 389.833L377.303 394.586C377.303 394.586 382.011 386.091 388.251 384.436C382.95 392.577 387.425 399.721 387.425 399.721L386.013 406.738L390.961 408.272C390.961 408.272 393.382 402.953 397.646 403.194C405.085 402.373 405.558 384.323 399.671 375.828C396.566 371.35 386.19 362.848 368.261 366.746C355.041 369.618 349.91 380.51 348.124 386.034C347.573 387.732 348.66 389.521 350.418 389.833Z" fill="#100D14"/>
<path d="M362.968 411.781C362.968 411.781 366.765 414.433 370.824 411.25" stroke="#100D14" stroke-width="0.98" stroke-miterlimit="10" stroke-linecap="round" stroke-linejoin="round"/>
<path d="M362.968 397.627L358.231 406.914L361.817 407.89" stroke="#100D14" stroke-width="0.98" stroke-miterlimit="10" stroke-linecap="round" stroke-linejoin="round"/>
<path d="M357.187 401.015L357.017 400.98C356.552 400.881 356.248 400.407 356.354 399.94L356.679 398.462C356.777 397.995 357.25 397.691 357.716 397.797L357.886 397.832C358.351 397.931 358.655 398.405 358.549 398.872L358.224 400.35C358.118 400.817 357.653 401.114 357.187 401.015Z" fill="#100D14"/>
<path d="M353.665 406.674C357.493 406.674 360.596 403.564 360.596 399.728C360.596 395.892 357.493 392.782 353.665 392.782C349.836 392.782 346.733 395.892 346.733 399.728C346.733 403.564 349.836 406.674 353.665 406.674Z" stroke="#100D14" stroke-width="0.98" stroke-miterlimit="10" stroke-linecap="round" stroke-linejoin="round"/>
<path d="M374.19 403.434L374.021 403.399C373.555 403.3 373.252 402.826 373.358 402.359L373.682 400.881C373.781 400.414 374.254 400.11 374.72 400.216L374.889 400.251C375.355 400.35 375.659 400.824 375.553 401.291L375.228 402.769C375.129 403.236 374.663 403.54 374.19 403.434Z" fill="#100D14"/>
<path d="M370.823 408.768C374.652 408.768 377.755 405.658 377.755 401.822C377.755 397.986 374.652 394.876 370.823 394.876C366.995 394.876 363.892 397.986 363.892 401.822C363.892 405.658 366.995 408.768 370.823 408.768Z" stroke="#100D14" stroke-width="0.98" stroke-miterlimit="10" stroke-linecap="round" stroke-linejoin="round"/>
<path d="M394.137 401.341C399.085 396.559 404.344 398.688 403.702 405.054C403.059 411.427 397.561 416.626 391.653 415.706C388.575 409.574 394.137 401.341 394.137 401.341Z" fill="#E5987D"/>
<path d="M400.631 402.274C397.278 401.171 393.742 406.787 395.599 411.653" stroke="#100D14" stroke-width="0.98" stroke-miterlimit="10" stroke-linecap="round" stroke-linejoin="round"/>
<path d="M395.104 408.272C395.112 405.146 400.01 405.542 399.7 407.89" stroke="#100D14" stroke-width="0.98" stroke-miterlimit="10" stroke-linecap="round" stroke-linejoin="round"/>
<path d="M344.686 447.359C344.686 447.359 347.778 451.871 366.892 451.786C386.013 451.695 398.125 438.072 398.125 438.072L395.429 452.876C395.429 452.876 398.02 450.987 414.974 447.274C431.928 443.56 440.758 452.543 441.288 467.34C441.817 482.137 424.157 498.066 424.157 498.066L413.802 566.556H337.444V497.005C337.444 497.005 321.019 484.083 322.431 470.106C323.843 456.122 336.47 450.287 347.171 453.703C346.098 451.857 344.686 447.359 344.686 447.359Z" fill="#C9493B"/>
<path d="M375.122 488.885H399.022" stroke="#100D14" stroke-width="0.98" stroke-miterlimit="10" stroke-linecap="round" stroke-linejoin="round"/>
<path d="M375.122 484.585H399.022V500.705C399.022 504.227 396.17 507.085 392.655 507.085H381.489C377.974 507.085 375.122 504.227 375.122 500.705V484.585Z" stroke="#100D14" stroke-width="0.98" stroke-miterlimit="10" stroke-linecap="round" stroke-linejoin="round"/>
<path d="M324.915 461.958C313.255 481.777 304.065 504.071 304.065 504.071L337.444 510.975L339.032 481.954L324.915 461.958Z" fill="#C9493B"/>
<path d="M339.039 481.954L337.444 527.087" stroke="#100D14" stroke-width="0.98" stroke-miterlimit="10" stroke-linecap="round" stroke-linejoin="round"/>
<path d="M392.726 465.494L398.125 438.065" stroke="#100D14" stroke-width="0.98" stroke-miterlimit="10" stroke-linecap="round" stroke-linejoin="round"/>
<path d="M351.632 463.974L344.686 447.359" stroke="#100D14" stroke-width="0.98" stroke-miterlimit="10" stroke-linecap="round" stroke-linejoin="round"/>
<path d="M333.506 485.858L338.701 491.453" stroke="#100D14" stroke-width="0.98" stroke-miterlimit="10" stroke-linecap="round" stroke-linejoin="round"/>
<path d="M475.112 483.368C480.088 484.486 475.26 498.413 457.247 505.493C439.234 512.573 425.752 505.493 425.752 505.493C425.752 505.493 436.82 479.775 475.112 483.368Z" fill="#100D14"/>
<path d="M455.242 475.948C455.242 475.948 466.931 495.852 478.027 510.982C497.098 536.997 460.917 558.719 441.302 529.033C425.745 505.493 423.726 502.31 423.726 502.31L455.242 475.948Z" fill="#E5987D"/>
<path d="M469.309 498.406L425.752 505.493C425.752 505.493 427.693 491.509 458.157 480.801C469.309 498.406 469.309 498.406 469.309 498.406Z" fill="#DB785E"/>
<path d="M420.543 446.482C438.627 445.145 442.269 462.665 458.687 473.02C475.112 483.375 475.112 483.375 475.112 483.375C475.112 483.375 452.242 485.32 437.758 494.523C424.947 502.664 425.752 505.493 425.752 505.493C425.752 505.493 412.151 484.429 407.916 473.989C403.673 463.549 404.916 447.635 420.543 446.482Z" fill="#C9493B"/>
<path d="M481.46 533.134C486.268 523.414 482.302 511.629 472.602 506.812C462.903 501.994 451.142 505.968 446.335 515.688C441.527 525.408 445.493 537.193 455.193 542.011C464.892 546.828 476.653 542.854 481.46 533.134Z" fill="#E5987D"/>
<path d="M453.576 507.728L394.49 539.826L411.727 563.67L475.112 540.541L453.576 507.728Z" fill="#E5987D"/>
<path d="M410.358 554.694H393.926C390.142 554.694 387.072 551.617 387.072 547.826V546.461C387.072 542.67 390.142 539.593 393.926 539.593H410.358C414.141 539.593 417.211 542.67 417.211 546.461V547.826C417.218 551.617 414.148 554.694 410.358 554.694Z" fill="#E5987D"/>
<path d="M396.643 554.779H395.761C393.319 554.779 391.314 552.777 391.314 550.323V538.617C391.314 536.169 393.312 534.161 395.761 534.161H396.643C399.086 534.161 401.09 536.162 401.09 538.617V550.323C401.083 552.777 399.086 554.779 396.643 554.779Z" fill="#E5987D"/>
<path d="M395.775 541.503L395.013 541.948C392.895 543.172 390.164 542.436 388.943 540.314L383.098 530.171C381.877 528.049 382.611 525.312 384.729 524.089L385.491 523.643C387.609 522.419 390.34 523.155 391.561 525.277L397.406 535.42C398.627 537.535 397.893 540.272 395.775 541.503Z" fill="#E5987D"/>
<path d="M406.412 554.779H405.53C403.088 554.779 401.083 552.777 401.083 550.323V538.617C401.083 536.169 403.081 534.161 405.53 534.161H406.412C408.854 534.161 410.859 536.162 410.859 538.617V550.323C410.859 552.777 408.861 554.779 406.412 554.779Z" fill="#E5987D"/>
<path d="M416.188 554.779H415.306C412.863 554.779 410.859 552.777 410.859 550.323V538.617C410.859 536.169 412.856 534.161 415.306 534.161H416.188C418.63 534.161 420.635 536.162 420.635 538.617V550.323C420.635 552.777 418.63 554.779 416.188 554.779Z" fill="#E5987D"/>
<path d="M400.278 536.382C400.787 537.153 401.083 538.072 401.083 539.062V549.884C401.083 552.579 398.881 554.779 396.199 554.779C393.509 554.779 391.314 552.572 391.314 549.884V539.062C391.314 536.368 393.516 534.168 396.199 534.168" stroke="#100D14" stroke-width="0.98" stroke-miterlimit="10" stroke-linecap="round" stroke-linejoin="round"/>
<path d="M408.494 534.875C409.906 535.738 410.859 537.294 410.859 539.062V549.884C410.859 552.579 408.657 554.779 405.975 554.779C403.285 554.779 401.09 552.572 401.09 549.884V539.062C401.09 537.245 402.092 535.646 403.575 534.804" stroke="#100D14" stroke-width="0.98" stroke-miterlimit="10" stroke-linecap="round" stroke-linejoin="round"/>
<path d="M420.635 541.481V549.884C420.635 552.579 418.433 554.779 415.75 554.779C413.061 554.779 410.866 552.572 410.866 549.884V539.062C410.866 536.368 413.068 534.168 415.75 534.168C420.635 534.168 425.244 534.168 425.244 534.168" stroke="#100D14" stroke-width="0.98" stroke-miterlimit="10" stroke-linecap="round" stroke-linejoin="round"/>
<path d="M385.11 523.862C379.308 527.675 379.188 541.595 379.068 547.14C378.948 552.685 388.484 554.22 389.55 545.959C390.608 537.697 391.314 532.789 391.314 532.789L385.11 523.862Z" fill="#E5987D"/>
<path d="M385.11 523.862C379.308 527.675 379.188 541.595 379.068 547.14C378.948 552.685 388.484 554.22 389.55 545.959C390.608 537.697 391.314 532.789 391.314 532.789" stroke="#100D14" stroke-width="0.98" stroke-miterlimit="10" stroke-linecap="round" stroke-linejoin="round"/>
<path d="M420.635 544.077C420.635 544.077 421.284 549.036 425.244 549.474" stroke="#100D14" stroke-width="0.98" stroke-miterlimit="10" stroke-linecap="round" stroke-linejoin="round"/>
<path d="M450.054 509.645L400.419 536.608" stroke="#100D14" stroke-width="0.98" stroke-miterlimit="10" stroke-linecap="round" stroke-linejoin="round"/>
<path d="M434.194 518.26L409.56 479.598" stroke="#100D14" stroke-width="0.98" stroke-miterlimit="10" stroke-linecap="round" stroke-linejoin="round"/>
<path d="M438.528 509.645L434.194 518.26" stroke="#100D14" stroke-width="0.98" stroke-miterlimit="10" stroke-linecap="round" stroke-linejoin="round"/>
<path d="M450.951 466.966C454.141 470.021 457.303 472.575 460.289 473.841" stroke="#EFF6FF" stroke-width="0.98" stroke-miterlimit="10" stroke-linecap="round" stroke-linejoin="round"/>
<path d="M395.436 452.685C412.863 446.552 423.649 443.072 432.091 448.646C436.121 451.306 440.66 456.292 445.29 461.187" stroke="#EFF6FF" stroke-width="0.98" stroke-miterlimit="10" stroke-linecap="round" stroke-linejoin="round"/>
<path d="M298.919 412.87C294.501 427.391 267.418 511.279 267.418 511.279L298.919 520.835L325.346 446.383C325.346 446.383 335.877 444.112 339.83 443.256C345.011 442.139 346.719 432.286 336.943 433.877C327.167 435.469 327.167 435.469 327.167 435.469L331.049 419.894L298.919 412.87Z" fill="#E5987D"/>
<path d="M280.017 472.178L310.636 487.817L304.037 511.512L272.74 494.77L280.017 472.178Z" fill="#DB785E"/>
<path d="M344.51 403.639C350.34 399.572 355.902 406.271 349.719 410.974C343.536 415.678 328.522 427.356 328.522 427.356L322.784 418.769C322.791 418.776 339.788 406.943 344.51 403.639Z" fill="#E5987D"/>
<path d="M306.564 410.713C309.394 412.134 310.552 415.409 309.161 418.019C307.771 420.629 304.347 421.591 301.517 420.169C298.687 418.748 297.529 415.473 298.92 412.863C300.317 410.253 303.733 409.291 306.564 410.713Z" fill="#E5987D"/>
<path d="M313.799 412.962C316.629 414.383 317.787 417.658 316.396 420.268C315.006 422.878 311.582 423.84 308.752 422.419C305.922 420.997 304.764 417.722 306.154 415.112C307.545 412.502 310.968 411.54 313.799 412.962Z" fill="#E5987D"/>
<path d="M313.119 412.666L305.622 410.335L302.458 420.557L309.954 422.887L313.119 412.666Z" fill="#E5987D"/>
<path d="M316.205 411.087C318.881 412.438 319.982 415.529 318.662 418.005C317.342 420.474 314.102 421.386 311.427 420.042C308.752 418.691 307.651 415.6 308.971 413.125C310.291 410.656 313.53 409.744 316.205 411.087Z" fill="#E5987D"/>
<path d="M323.052 413.217C325.727 414.568 326.828 417.658 325.508 420.134C324.189 422.603 320.949 423.515 318.274 422.171C315.598 420.82 314.497 417.729 315.817 415.254C317.137 412.785 320.377 411.873 323.052 413.217Z" fill="#E5987D"/>
<path d="M322.412 412.93L315.32 410.725L312.325 420.399L319.417 422.604L322.412 412.93Z" fill="#E5987D"/>
<path d="M323.906 421.938C323.906 421.938 327.287 427.229 329.567 431.968C331.847 436.707 340.38 433.05 337.133 424.619C334.952 418.96 331.501 415.508 331.501 415.508L323.906 421.938Z" fill="#E5987D"/>
<path d="M332.687 416.916C334.07 419.349 333.223 422.44 330.802 423.826C328.374 425.213 325.29 424.364 323.906 421.938C322.523 419.505 323.37 416.414 325.791 415.027C328.212 413.641 331.303 414.49 332.687 416.916Z" fill="#E5987D"/>
<path d="M323.906 421.938C323.906 421.938 327.287 427.228 329.567 431.967C331.847 436.706 340.381 433.05 337.134 424.618C334.953 418.96 331.501 415.508 331.501 415.508C329.927 413.804 326.426 413.994 325.029 415.565" stroke="#100D14" stroke-width="0.98" stroke-miterlimit="10" stroke-linecap="round" stroke-linejoin="round"/>
<path d="M316.177 417.955C316.177 417.955 316.488 424.088 316.135 429.223C315.782 434.358 324.796 435.391 326.115 426.655C326.998 420.785 325.741 416.18 325.741 416.18L316.177 417.955Z" fill="#E5987D"/>
<path d="M326.064 417.955C326.064 420.693 323.848 422.914 321.116 422.914C318.385 422.914 316.168 420.693 316.168 417.955C316.168 415.218 318.385 412.997 321.116 412.997C323.848 413.004 326.064 415.218 326.064 417.955Z" fill="#E5987D"/>
<path d="M324.21 414.087C326.235 416.647 326.737 421.117 326.221 425.906C325.706 430.694 323.645 433.333 319.699 433.163C315.754 432.993 315.521 428.332 315.521 428.332" stroke="#100D14" stroke-width="0.98" stroke-miterlimit="10" stroke-linecap="round" stroke-linejoin="round"/>
<path d="M307.107 418.125C307.107 418.125 307.425 424.258 307.065 429.393C306.712 434.528 315.725 435.561 317.045 426.825C317.928 420.954 316.671 416.35 316.671 416.35L307.107 418.125Z" fill="#E5987D"/>
<path d="M317.001 418.125C317.001 420.863 314.785 423.084 312.053 423.084C309.322 423.084 307.105 420.863 307.105 418.125C307.105 415.388 309.322 413.167 312.053 413.167C314.785 413.167 317.001 415.388 317.001 418.125Z" fill="#E5987D"/>
<path d="M307.785 410.974C307.785 410.974 312.119 412.495 315.111 413.867C318.104 415.239 317.356 423.232 317.116 426.344C316.869 429.457 314.737 433.113 311.272 433.318C307.806 433.524 306.818 431.564 307.192 426.854C307.566 422.143 307.107 418.125 307.107 418.125" stroke="#100D14" stroke-width="0.98" stroke-miterlimit="10" stroke-linecap="round" stroke-linejoin="round"/>
<path d="M302.456 420.551L307.248 422.051" stroke="#100D14" stroke-width="0.98" stroke-miterlimit="10" stroke-linecap="round" stroke-linejoin="round"/>
<path d="M310.34 443.787C310.34 443.787 311.624 438.51 317.384 437.004" stroke="#100D14" stroke-width="0.98" stroke-miterlimit="10" stroke-linecap="round" stroke-linejoin="round"/>
<path d="M321.817 446.913L339.011 443.433" stroke="#100D14" stroke-width="0.98" stroke-miterlimit="10" stroke-linecap="round" stroke-linejoin="round"/>
<path d="M531 363.994V408.746C531 414.263 526.532 418.741 521.027 418.741H458.588L432.578 426.493C430.813 427.023 429.366 425.029 430.418 423.508L440.603 408.739V363.994C440.603 363.443 440.653 362.898 440.737 362.368C441.507 357.614 445.615 354 450.57 354H521.027C525.982 354 530.09 357.614 530.866 362.36C530.951 362.898 531 363.443 531 363.994Z" fill="#EFF6FF"/>
<path d="M476.269 387.555V377.497C476.269 375.969 477.921 375.007 479.248 375.778L487.944 380.807L496.64 385.836C497.96 386.6 497.96 388.517 496.64 389.281L487.944 394.31L479.248 399.339C477.928 400.103 476.269 399.148 476.269 397.62V387.555Z" fill="#95BAEA"/>
<path d="M530.859 362.36H440.737C441.507 357.614 445.615 354 450.57 354H521.027C525.982 354 530.09 357.614 530.859 362.36Z" fill="#293E77"/>
<path d="M453.125 358.18C453.125 358.697 452.701 359.121 452.186 359.121C451.671 359.121 451.247 358.697 451.247 358.18C451.247 357.664 451.671 357.24 452.186 357.24C452.701 357.24 453.125 357.664 453.125 358.18Z" fill="#C9493B"/>
<path d="M457.304 359.121C457.822 359.121 458.242 358.7 458.242 358.18C458.242 357.661 457.822 357.24 457.304 357.24C456.785 357.24 456.365 357.661 456.365 358.18C456.365 358.7 456.785 359.121 457.304 359.121Z" fill="#E6C75B"/>
<path d="M462.428 359.121C462.946 359.121 463.367 358.7 463.367 358.18C463.367 357.661 462.946 357.24 462.428 357.24C461.909 357.24 461.489 357.661 461.489 358.18C461.489 358.7 461.909 359.121 462.428 359.121Z" fill="#5E9F63"/>
<path d="M251.19 493.462H357.624C359.156 493.462 360.532 494.374 361.132 495.782L389.041 561.223C390.114 563.748 388.272 566.549 385.533 566.549H278.443C276.904 566.549 275.514 565.622 274.921 564.193L247.668 498.76C246.617 496.234 248.466 493.462 251.19 493.462Z" fill="#EFF6FF"/>
<path d="M458.164 554.779H380.543V566.549H458.164V554.779Z" fill="#EFF6FF"/>
<path d="M386.296 554.779H270.996L275.902 566.549H391.314L386.296 554.779Z" fill="#95BAEA"/>
<path d="M320.518 525.397C321.676 529.542 319.262 532.909 315.126 532.909C310.989 532.909 306.691 529.549 305.533 525.397C304.376 521.252 306.79 517.885 310.926 517.885C315.062 517.885 319.354 521.245 320.518 525.397Z" fill="#4663D8"/>
<path opacity="0.15" d="M284.958 586H522.347C523.13 586 523.772 585.363 523.772 584.571V584.288C523.772 583.503 523.137 582.859 522.347 582.859H284.958C284.175 582.859 283.532 583.496 283.532 584.288V584.571C283.532 585.363 284.175 586 284.958 586Z" fill="black"/>
<path d="M430.884 586H522.347C523.13 586 523.772 585.363 523.772 584.571V584.288C523.772 583.503 523.137 582.859 522.347 582.859H430.884C430.1 582.859 429.458 583.496 429.458 584.288V584.571C429.465 585.363 430.1 586 430.884 586Z" fill="#293E77"/>
</g>
<defs>
<filter id="filter0_d" x="0" y="0" width="739" height="631" filterUnits="userSpaceOnUse" color-interpolation-filters="sRGB">
<feFlood flood-opacity="0" result="BackgroundImageFix"/>
<feColorMatrix in="SourceAlpha" type="matrix" values="0 0 0 0 0 0 0 0 0 0 0 0 0 0 0 0 0 0 127 0" result="hardAlpha"/>
<feOffset/>
<feGaussianBlur stdDeviation="22.5"/>
<feColorMatrix type="matrix" values="0 0 0 0 0 0 0 0 0 0 0 0 0 0 0 0 0 0 0.1 0"/>
<feBlend mode="normal" in2="BackgroundImageFix" result="effect1_dropShadow"/>
<feBlend mode="normal" in="SourceGraphic" in2="effect1_dropShadow" result="shape"/>
</filter>
<linearGradient id="paint0_linear" x1="69.3593" y1="69" x2="694" y2="69" gradientUnits="userSpaceOnUse">
<stop stop-color="#036BB3"/>
<stop offset="0.0001" stop-color="#036BB3"/>
<stop offset="1" stop-color="#03B0A9"/>
</linearGradient>
<clipPath id="clip0">
<rect width="323" height="232" fill="white" transform="translate(208 354)"/>
</clipPath>
</defs>
</svg>
