<svg width="226" height="115" viewBox="0 0 226 115" fill="none" xmlns="http://www.w3.org/2000/svg">
<path d="M181.843 34.0284C181.843 41.1428 176.959 45.9454 169.807 45.9454C162.569 45.9454 157.686 41.1428 157.686 34.0284C157.686 26.9599 162.569 22.1986 169.807 22.1986C176.959 22.2032 181.843 26.9599 181.843 34.0284ZM163.298 34.1156C163.298 38.308 165.954 41.1841 169.807 41.1841C173.574 41.1841 176.23 38.3035 176.23 34.1156C176.23 29.9277 173.574 27.047 169.807 27.047C165.954 27.047 163.298 29.9277 163.298 34.1156Z" fill="white"/>
<path d="M210.019 31.1457V45.7231H204.411V32.8062C204.411 29.5311 202.484 27.5266 199.316 27.5266C195.548 27.5679 193.32 30.4072 193.32 34.2465V45.7231H187.752V22.3754H193.32V26.7377C194.95 23.6369 197.817 22.1966 201.544 22.1553C206.81 22.1553 210.019 25.6047 210.019 31.1457Z" fill="white"/>
<path d="M225.251 68.0982H142.454V0H225.251V68.0982ZM146.901 63.5708H220.809V4.52734H146.901V63.5708Z" fill="white"/>
<path d="M84.1111 89.3494C84.1111 91.3861 85.7135 92.7025 88.3331 92.7025C91.6684 92.7025 94.288 90.8907 94.5985 88.5375V86.3633H88.5986C85.5334 86.3587 84.1111 87.2211 84.1111 89.3494Z" fill="white"/>
<path d="M26.8259 85.0471H37.759L32.3352 71.7311L26.8259 85.0471Z" fill="white"/>
<path d="M118.333 92.2901C122.064 92.2901 125.089 88.9857 125.089 84.9096C125.089 80.8335 122.064 77.5292 118.333 77.5292C114.601 77.5292 111.577 80.8335 111.577 84.9096C111.577 88.9857 114.601 92.2901 118.333 92.2901Z" fill="white"/>
<path d="M0 45.5762V115H146.622V45.5762H0ZM42.6476 96.9548L39.8929 90.2533H24.6928L21.9382 96.9548H15.7582L29.4009 65.2497H35.5809L49.0481 96.9548H42.6476ZM69.8025 96.9548L63.3569 86.3589L59.7111 90.2533V96.9548H53.9317V63.3461H59.7111V82.8224L69.4874 72.7677H76.1535L67.3539 82.0976L76.6891 96.9548H69.8025ZM94.6438 96.9548V94.01C93.0009 96.1383 90.3318 97.2255 86.956 97.2255C81.8428 97.2255 78.647 94.01 78.647 89.7074C78.647 85.2214 81.8923 82.46 87.6672 82.4141H94.5988V81.7811C94.5988 78.9739 92.7759 77.2951 89.22 77.2951C86.9965 77.2951 84.5974 78.0657 82.1534 79.561L80.0649 75.4832C83.4857 73.5338 86.1548 72.4925 90.5073 72.4925C96.7278 72.4925 100.239 75.708 100.284 81.0977L100.329 96.9502H94.6438V96.9548ZM130.864 96.9548H125.084V93.0605C123.397 95.7347 120.642 97.2255 117.086 97.2255C110.285 97.2255 105.752 92.1523 105.752 84.7718C105.752 77.4327 110.285 72.4971 116.951 72.4971C120.597 72.4971 123.352 73.9925 125.084 76.7079V63.3461H130.864V96.9548Z" fill="white"/>
</svg>
