<svg width="155" height="49" viewBox="0 0 155 49" fill="none" xmlns="http://www.w3.org/2000/svg">
<g clip-path="url(#clip0)">
<path d="M53.6702 32.8837L52.0407 30.0432C51.9329 30.0571 51.8252 30.0571 51.7039 30.0571H49.5766V32.8837H47.7725V23.2783H51.7039C54.1407 23.2783 55.5275 24.472 55.5275 26.5857C55.5275 28.0949 54.8675 29.1789 53.6566 29.7L55.7307 32.8837H53.6702ZM49.5766 28.4382H51.7039C53.0498 28.4382 53.8039 27.8476 53.8039 26.6399C53.8039 25.4601 53.0498 24.8834 51.7039 24.8834H49.5766V28.4382Z" fill="white"/>
<path d="M64.2263 29.8377H58.9081C59.1372 30.88 59.9186 31.5123 60.9686 31.5123C61.7091 31.5123 62.3963 31.2246 62.9077 30.6896L63.85 31.6915C63.1368 32.4878 62.0868 32.9533 60.82 32.9533C58.585 32.9533 57.1177 31.4442 57.1177 29.2346C57.1177 26.9986 58.6259 25.488 60.7804 25.488C63.3113 25.488 64.4009 27.1751 64.2263 29.8377ZM62.6377 28.644C62.5968 27.56 61.8836 26.8735 60.7927 26.8735C59.7563 26.8735 59.0281 27.56 58.8672 28.644H62.6377Z" fill="white"/>
<path d="M66.5552 25.5422L68.4411 31.1273L70.2861 25.5422H72.0507L69.3043 32.8839H67.5002L64.7266 25.5561L66.5552 25.5422Z" fill="white"/>
<path d="M80.0731 29.2068C80.0731 31.4428 78.539 32.9533 76.289 32.9533C74.0131 32.9533 72.479 31.4442 72.479 29.2068C72.479 26.9833 74.0145 25.488 76.289 25.488C78.539 25.488 80.0731 26.9833 80.0731 29.2068ZM74.2436 29.2332C74.2436 30.5506 75.0781 31.4567 76.2904 31.4567C77.4754 31.4567 78.3099 30.5506 78.3099 29.2332C78.3099 27.9158 77.4754 27.0097 76.2904 27.0097C75.0781 27.0111 74.2436 27.9158 74.2436 29.2332Z" fill="white"/>
<path d="M83.748 22.7017V32.8838H81.9971V22.7017H83.748Z" fill="white"/>
<path d="M92.9853 25.5422V32.8839H91.2208V31.5248C90.723 32.4989 89.8612 32.952 88.7158 32.952C87.0999 32.952 86.103 31.868 86.103 30.1393V25.5422H87.8662V29.6181C87.8662 30.6479 88.4458 31.2649 89.4153 31.2649C90.5458 31.251 91.2194 30.3449 91.2194 29.1651V25.5422H92.9853Z" fill="white"/>
<path d="M99.7162 32.4308C99.164 32.774 98.5449 32.9658 97.9122 32.9658C96.7408 32.9658 95.7985 32.2793 95.7985 30.7701V27.1472H94.788L94.7744 25.8437H95.7971V23.8259H97.5344V25.8437H99.5949V27.1472H97.5344V30.4547C97.5344 31.1551 97.8167 31.3871 98.2885 31.3871C98.5844 31.3871 98.9212 31.2773 99.3113 31.0856L99.7162 32.4308Z" fill="white"/>
<path d="M103.244 23.4439C103.244 24.0206 102.854 24.4319 102.302 24.4319C101.75 24.4319 101.36 24.0206 101.36 23.4439C101.36 22.8672 101.75 22.4558 102.302 22.4558C102.854 22.4544 103.244 22.8672 103.244 23.4439ZM103.178 25.5423V32.8839H101.427V25.5423H103.178Z" fill="white"/>
<path d="M112.615 29.2068C112.615 31.4428 111.08 32.9533 108.831 32.9533C106.555 32.9533 105.02 31.4442 105.02 29.2068C105.02 26.9833 106.555 25.488 108.831 25.488C111.081 25.488 112.615 26.9833 112.615 29.2068ZM106.785 29.2332C106.785 30.5506 107.62 31.4567 108.832 31.4567C110.017 31.4567 110.852 30.5506 110.852 29.2332C110.852 27.9158 110.017 27.0097 108.832 27.0097C107.62 27.0111 106.785 27.9158 106.785 29.2332Z" fill="white"/>
<path d="M121.475 28.3006V32.8838H119.711V28.8218C119.711 27.792 119.106 27.1611 118.109 27.1611C116.924 27.175 116.225 28.0672 116.225 29.2748V32.8838H114.474V25.5421H116.225V26.9137C116.736 25.9396 117.639 25.4866 118.81 25.4727C120.464 25.474 121.475 26.558 121.475 28.3006Z" fill="white"/>
<path d="M125.595 23.4439C125.595 24.0206 125.205 24.4319 124.652 24.4319C124.1 24.4319 123.71 24.0206 123.71 23.4439C123.71 22.8672 124.1 22.4558 124.652 22.4558C125.205 22.4544 125.595 22.8672 125.595 23.4439ZM125.528 25.5423V32.8839H123.777V25.5423H125.528Z" fill="white"/>
<path d="M130.186 26.8595C129.62 26.8595 129.216 27.0513 129.216 27.5043C129.216 28.7398 133.027 28.0949 133.027 30.7284C133.027 32.2237 131.721 32.9518 130.187 32.9518C129.096 32.9518 127.966 32.5947 127.211 31.9221L127.817 30.6728C128.477 31.2495 129.474 31.5789 130.254 31.5789C130.859 31.5789 131.317 31.3732 131.317 30.8924C131.317 29.5333 127.561 30.2753 127.574 27.6683C127.574 26.1591 128.84 25.4587 130.295 25.4587C131.237 25.4587 132.22 25.7464 132.933 26.2411L132.301 27.5307C131.6 27.1069 130.805 26.8595 130.186 26.8595Z" fill="white"/>
<path d="M136.676 23.4439C136.676 24.0206 136.286 24.4319 135.733 24.4319C135.181 24.4319 134.791 24.0206 134.791 23.4439C134.791 22.8672 135.181 22.4558 135.733 22.4558C136.286 22.4544 136.676 22.8672 136.676 23.4439ZM136.609 25.5423V32.8839H134.858V25.5423H136.609Z" fill="white"/>
<path d="M146.113 28.3006V32.8838H144.349V28.8218C144.349 27.792 143.743 27.1611 142.746 27.1611C141.561 27.175 140.862 28.0672 140.862 29.2748V32.8838H139.111V25.5421H140.862V26.9137C141.373 25.9396 142.276 25.4866 143.447 25.4727C145.104 25.474 146.113 26.558 146.113 28.3006Z" fill="white"/>
<path d="M155 25.5422V32.1835C155 34.2833 153.505 35.6146 151.229 35.6146C150.072 35.6146 149.035 35.2296 148.186 34.6404L148.887 33.3508C149.547 33.8441 150.274 34.1193 151.135 34.1193C152.428 34.1193 153.249 33.3925 153.249 32.2252V31.3608C152.765 32.1015 151.984 32.5128 150.959 32.5128C149.048 32.5128 147.755 31.0856 147.755 28.972C147.755 26.9 149.034 25.4867 150.906 25.4867C151.943 25.4728 152.751 25.898 153.249 26.6387V25.5409H155V25.5422ZM153.249 29.0136C153.249 27.7782 152.468 26.9139 151.337 26.9139C150.205 26.9139 149.425 27.7921 149.412 29.0136C149.425 30.2491 150.193 31.1134 151.337 31.1134C152.468 31.1134 153.249 30.2491 153.249 29.0136Z" fill="white"/>
<path d="M54.6808 38.3534V39.9585H49.578V42.3321H54.1558V43.9371H49.578V46.3524H54.8431V47.9575H47.7739V38.3521H54.6808V38.3534Z" fill="white"/>
<path d="M63.891 37.7783V47.9605H62.1401V46.7806C61.6287 47.5908 60.7928 48.0424 59.7169 48.0424C57.6564 48.0424 56.2832 46.5055 56.2832 44.2695C56.2832 42.046 57.6564 40.5507 59.676 40.5507C60.7805 40.5507 61.6151 41.0038 62.1401 41.8264V37.7783H63.891ZM62.1401 44.3098C62.1401 42.9924 61.3055 42.0738 60.0932 42.0738C58.8946 42.0738 58.06 43.0063 58.0464 44.3098C58.06 45.6272 58.8809 46.5458 60.0932 46.5458C61.3055 46.5458 62.1401 45.6272 62.1401 44.3098Z" fill="white"/>
<path d="M73.1266 40.6187V47.9603H71.362V46.6012C70.8643 47.5753 70.0024 48.0284 68.8584 48.0284C67.2424 48.0284 66.2456 46.9444 66.2456 45.2157V40.6187H68.0088V44.6946C68.0088 45.7243 68.5883 46.3413 69.5579 46.3413C70.6884 46.3274 71.362 45.4214 71.362 44.2415V40.6187H73.1266Z" fill="white"/>
<path d="M78.7135 42.1278C77.5557 42.1278 76.7471 43.006 76.7471 44.2956C76.7471 45.6131 77.5557 46.4913 78.7135 46.4913C79.548 46.4913 80.2216 46.2037 80.6526 45.6269L81.7435 46.5469C81.1107 47.4794 80.0335 48.0283 78.6194 48.0283C76.4648 48.0283 74.9839 46.5191 74.9839 44.3095C74.9839 42.0736 76.4784 40.563 78.6466 40.563C79.9666 40.563 81.0167 41.0577 81.663 41.9082L80.5994 42.9379C80.1412 42.4293 79.5085 42.1278 78.7135 42.1278Z" fill="white"/>
<path d="M87.5735 47.959V47.0668C87.0757 47.7116 86.2671 48.041 85.2443 48.041C83.6966 48.041 82.7271 47.0668 82.7271 45.7633C82.7271 44.4042 83.7102 43.5676 85.4598 43.5537H87.5598V43.3619C87.5598 42.5115 87.0075 42.0028 85.9303 42.0028C85.2566 42.0028 84.5298 42.2363 83.7893 42.6893L83.1566 41.4539C84.193 40.8633 85.0016 40.5479 86.3216 40.5479C88.2062 40.5479 89.2698 41.522 89.2835 43.1549L89.2971 47.9576H87.5735V47.959ZM87.5598 45.4075V44.7488H85.7421C84.8134 44.7488 84.3825 45.0101 84.3825 45.6549C84.3825 46.2719 84.8666 46.6707 85.6616 46.6707C86.6707 46.6694 87.4657 46.1204 87.5598 45.4075Z" fill="white"/>
<path d="M95.8139 47.506C95.2616 47.8492 94.6425 48.041 94.0098 48.041C92.8384 48.041 91.8962 47.3545 91.8962 45.8453V42.2224H90.8857L90.8721 40.9189H91.8948V38.9011H93.6321V40.9189H95.6925V42.2224H93.6321V45.5299C93.6321 46.2303 93.9157 46.4623 94.3862 46.4623C94.6821 46.4623 95.0189 46.3525 95.4089 46.1608L95.8139 47.506Z" fill="white"/>
<path d="M99.3401 38.5191C99.3401 39.0958 98.9501 39.5071 98.3978 39.5071C97.8456 39.5071 97.4556 39.0958 97.4556 38.5191C97.4556 37.9423 97.8456 37.531 98.3978 37.531C98.9501 37.531 99.3401 37.9423 99.3401 38.5191ZM99.2733 40.6189V47.9605H97.5224V40.6189H99.2733Z" fill="white"/>
<path d="M108.711 44.2817C108.711 46.5177 107.176 48.0283 104.927 48.0283C102.651 48.0283 101.117 46.5191 101.117 44.2817C101.117 42.0583 102.651 40.563 104.927 40.563C107.177 40.563 108.711 42.0583 108.711 44.2817ZM102.882 44.3095C102.882 45.6269 103.716 46.533 104.929 46.533C106.114 46.533 106.948 45.6269 106.948 44.3095C106.948 42.9921 106.114 42.0861 104.929 42.0861C103.716 42.0861 102.882 42.9921 102.882 44.3095Z" fill="white"/>
<path d="M117.571 43.3758V47.959H115.808V43.897C115.808 42.8672 115.202 42.2363 114.205 42.2363C113.02 42.2502 112.321 43.1424 112.321 44.35V47.959H110.57V40.6173H112.321V41.9889C112.832 41.0148 113.735 40.5617 114.906 40.5479C116.562 40.5492 117.571 41.6332 117.571 43.3758Z" fill="white"/>
<path d="M55.0911 10.3098C55.0911 12.4652 53.6116 13.9202 51.4448 13.9202C49.252 13.9202 47.7725 12.4652 47.7725 10.3098C47.7725 8.16831 49.252 6.72583 51.4448 6.72583C53.6116 6.72722 55.0911 8.16831 55.0911 10.3098ZM49.4729 10.3362C49.4729 11.6064 50.2775 12.4777 51.4448 12.4777C52.5861 12.4777 53.3907 11.605 53.3907 10.3362C53.3907 9.06743 52.5861 8.19471 51.4448 8.19471C50.2775 8.19471 49.4729 9.06743 49.4729 10.3362Z" fill="white"/>
<path d="M63.6278 9.43591V13.8523H61.9287V9.93897C61.9287 8.94675 61.345 8.33946 60.385 8.33946C59.2437 8.35197 58.5687 9.21218 58.5687 10.3753V13.8523H56.8818V6.77886H58.5687V8.10044C59.0623 7.16102 59.9309 6.72467 61.06 6.71216C62.6555 6.71216 63.6278 7.75719 63.6278 9.43591Z" fill="white"/>
<path d="M68.2424 20.6311H43.1582V0H68.2424V20.6311ZM44.5055 19.2595H66.8965V1.37161H44.5055V19.2595Z" fill="white"/>
<path d="M25.4824 27.0695C25.4824 27.6865 25.9679 28.0853 26.7615 28.0853C27.772 28.0853 28.5656 27.5364 28.6597 26.8235V26.1648H26.842C25.9133 26.1634 25.4824 26.4247 25.4824 27.0695Z" fill="white"/>
<path d="M8.12744 25.7659H11.4397L9.79654 21.7317L8.12744 25.7659Z" fill="white"/>
<path d="M35.85 27.9602C36.9805 27.9602 37.8969 26.9592 37.8969 25.7243C37.8969 24.4894 36.9805 23.4883 35.85 23.4883C34.7196 23.4883 33.8032 24.4894 33.8032 25.7243C33.8032 26.9592 34.7196 27.9602 35.85 27.9602Z" fill="white"/>
<path d="M0 13.8079V34.8405H44.4207V13.8079H0ZM12.9205 29.3736L12.086 27.3433H7.48095L6.6464 29.3736H4.77412L8.90732 19.7682H10.7796L14.8596 29.3736H12.9205ZM21.1474 29.3736L19.1947 26.1634L18.0901 27.3433V29.3736H16.3392V19.1914H18.0901V25.092L21.0519 22.0458H23.0715L20.4056 24.8724L23.2338 29.3736H21.1474ZM28.6733 29.3736V28.4814C28.1756 29.1262 27.367 29.4556 26.3442 29.4556C24.7951 29.4556 23.827 28.4814 23.827 27.1779C23.827 25.8188 24.8101 24.9822 26.5597 24.9683H28.6597V24.7765C28.6597 23.9261 28.1074 23.4174 27.0302 23.4174C26.3565 23.4174 25.6297 23.6509 24.8892 24.1039L24.2565 22.8685C25.2929 22.2779 26.1015 21.9625 27.4202 21.9625C29.3047 21.9625 30.3684 22.9366 30.382 24.5695L30.3956 29.3722H28.6733V29.3736ZM39.6466 29.3736H37.8957V28.1937C37.3843 29.0039 36.5498 29.4556 35.4725 29.4556C33.412 29.4556 32.0388 27.9186 32.0388 25.6826C32.0388 23.4591 33.412 21.9638 35.4316 21.9638C36.5361 21.9638 37.3707 22.4169 37.8957 23.2396V19.1914H39.6466V29.3736Z" fill="white"/>
</g>
<defs>
<clipPath id="clip0">
<rect width="155" height="48.0409" fill="white"/>
</clipPath>
</defs>
</svg>
