<svg width="66" height="66" viewBox="0 0 66 66" fill="none" xmlns="http://www.w3.org/2000/svg">
<path d="M18.8571 61.2857C18.8571 61.9366 18.3294 62.4643 17.6786 62.4643C17.0277 62.4643 16.5 61.9366 16.5 61.2857C16.5 60.6349 17.0277 60.1072 17.6786 60.1072C18.3294 60.1072 18.8571 60.6349 18.8571 61.2857Z" fill="#FF6D34"/>
<path d="M35.3571 33H14.1429V14.1429H35.3571V3.53571C35.3571 1.58313 33.774 0 31.8214 0H29.4643V1.17857C29.4643 3.13116 27.8812 4.71429 25.9286 4.71429H9.42857C7.47599 4.71429 5.89286 3.13116 5.89286 1.17857V0H3.53571C1.58313 0 0 1.58313 0 3.53571V62.4643C0 64.4169 1.58313 66 3.53571 66H31.8214C33.774 66 35.3571 64.4169 35.3571 62.4643V33ZM17.6786 64.8214C15.726 64.8214 14.1429 63.2383 14.1429 61.2857C14.1429 59.3331 15.726 57.75 17.6786 57.75C19.6312 57.75 21.2143 59.3331 21.2143 61.2857C21.2143 63.2383 19.6312 64.8214 17.6786 64.8214ZM33 56.5714H2.35714V54.2143H33V56.5714Z" fill="#FF6D34"/>
<path d="M9.42857 2.35714H25.9286C26.5794 2.35714 27.1071 1.82943 27.1071 1.17857V0H8.25V1.17857C8.25 1.82943 8.77771 2.35714 9.42857 2.35714Z" fill="#FF6D34"/>
<path d="M66 16.5H16.5V30.6429H66V16.5ZM28.2431 24.9077L27.0646 26.9495L24.75 25.6126V28.2857H22.3929V25.6126L20.0783 26.9495L18.8997 24.9077L21.2143 23.5714L18.8997 22.2352L20.0783 20.1934L22.3929 21.5302V18.8571H24.75V21.5302L27.0646 20.1934L28.2431 22.2352L25.9286 23.5714L28.2431 24.9077ZM40.0288 24.9077L38.8503 26.9495L36.5357 25.6126V28.2857H34.1786V25.6126L31.864 26.9495L30.6854 24.9077L33 23.5714L30.6854 22.2352L31.864 20.1934L34.1786 21.5302V18.8571H36.5357V21.5302L38.8503 20.1934L40.0288 22.2352L37.7143 23.5714L40.0288 24.9077ZM51.8146 24.9077L50.636 26.9495L48.3214 25.6126V28.2857H45.9643V25.6126L43.6497 26.9495L42.4712 24.9077L44.7857 23.5714L42.4712 22.2352L43.6497 20.1934L45.9643 21.5302V18.8571H48.3214V21.5302L50.636 20.1934L51.8146 22.2352L49.5 23.5714L51.8146 24.9077ZM63.6003 24.9077L62.4217 26.9495L60.1071 25.6126V28.2857H57.75V25.6126L55.4354 26.9495L54.2569 24.9077L56.5714 23.5714L54.2569 22.2352L55.4354 20.1934L57.75 21.5302V18.8571H60.1071V21.5302L62.4217 20.1934L63.6003 22.2352L61.2857 23.5714L63.6003 24.9077Z" fill="#FF6D34"/>
</svg>
