<svg width="179" height="162" viewBox="0 0 179 162" fill="none" xmlns="http://www.w3.org/2000/svg">
<g clip-path="url(#clip0)">
<g opacity="0.85">
<g opacity="0.85">
<g opacity="0.41">
<g opacity="0.41">
<g opacity="0.41">
<path opacity="0.41" d="M178.91 103.983C179.077 101.129 179.003 98.259 178.68 95.4202C177.163 82.0787 170.282 69.4962 160.159 60.6199C156.547 57.452 152.437 54.6172 150.087 50.4347C146.129 43.3941 146.428 35.3039 141.517 28.3524C136.597 21.3931 129.432 15.9674 121.349 13.1791C97.2463 4.86818 63.5075 18.3995 66.5432 47.2939C66.5548 47.3985 66.5665 47.5495 66.5782 47.7393C66.983 53.742 62.2465 58.7881 56.2219 58.9314C33.9836 59.4581 14.8432 76.5175 10.7489 98.1273C8.11413 112.027 12.4263 127.258 22.6426 137.087C30.2668 144.426 40.5025 148.457 50.7382 151.226C71.264 156.78 92.8641 157.945 114.028 155.819C133.838 153.833 154.734 148.163 167.546 132.997C174.38 124.915 178.295 114.54 178.91 103.983Z" fill="#BFDDE8"/>
</g>
</g>
</g>
<g opacity="0.31">
<path opacity="0.31" d="M79.0433 10.7223C81.6825 9.63446 82.9358 6.62363 81.8425 3.99742C80.7493 1.3712 77.7236 0.124105 75.0844 1.21194C72.4452 2.29978 71.1919 5.31061 72.2851 7.93682C73.3783 10.563 76.4041 11.8101 79.0433 10.7223Z" fill="#BFDDE8"/>
</g>
<g opacity="0.31">
<path opacity="0.31" d="M146.969 5.48721C148.443 5.48721 149.639 4.29777 149.639 2.83052C149.639 1.36327 148.443 0.173828 146.969 0.173828C145.494 0.173828 144.299 1.36327 144.299 2.83052C144.299 4.29777 145.494 5.48721 146.969 5.48721Z" fill="#BFDDE8"/>
</g>
<g opacity="0.31">
<path opacity="0.31" d="M55.2668 20.0107C56.6636 18.6209 56.6636 16.3674 55.2668 14.9775C53.8701 13.5877 51.6055 13.5877 50.2087 14.9775C48.812 16.3674 48.812 18.6209 50.2087 20.0107C51.6055 21.4006 53.8701 21.4006 55.2668 20.0107Z" fill="#BFDDE8"/>
</g>
</g>
</g>
<g opacity="0.85">
<g opacity="0.85">
<g opacity="0.85">
<g opacity="0.47">
<path opacity="0.47" d="M1.39753 20.8161C-0.925932 16.316 0.860448 10.7935 5.38283 8.48536C9.90522 6.17334 18.5958 6.34374 20.9193 10.8438C23.2427 15.344 16.2801 19.2089 13.443 23.407C9.481 29.2587 3.72099 25.3201 1.39753 20.8161Z" fill="#BFDDE8"/>
</g>
<g opacity="0.47">
<path opacity="0.47" d="M22.729 160.71C18.9734 163.123 13.9606 162.05 11.5321 158.309C9.10741 154.572 8.50027 146.985 12.2559 144.569C16.0116 142.156 20.0164 147.884 23.955 149.991C29.4542 152.934 26.4847 158.298 22.729 160.71Z" fill="#BFDDE8"/>
</g>
</g>
<g opacity="0.85">
<g opacity="0.47">
<path opacity="0.47" d="M174.571 38.8317C177.778 45.7638 178.658 53.7533 177.117 61.2238C175.307 70.0071 169.811 76.7534 171.718 86.1215C172.878 91.8299 173.17 97.1162 173.758 102.763C174.968 114.358 167.402 124.574 158.015 130.092C150.391 134.573 141.455 136.254 132.691 136.134C124.802 136.025 116.928 134.577 109.285 132.629C101.917 130.751 94.7173 128.276 86.9958 129.058C80.5742 129.709 74.7908 132.47 68.809 134.531C54.5296 139.449 37.2379 140.142 24.1806 132.656C15.8013 127.85 9.93624 120.05 7.33645 111.658C5.25818 104.955 4.99353 98.6846 6.55029 91.8377C8.14986 84.8087 10.8508 77.7254 10.0141 70.4021C9.43029 65.2979 7.08348 60.3756 7.51548 55.2559C7.79959 51.8556 9.30575 48.6645 11.1466 45.7871C17.864 35.2726 29.1116 28.232 41.013 24.3554C52.21 20.7034 63.7612 18.0622 75.4174 18.9413C99.5238 20.7576 104.435 16.9469 129.071 11.7032C144.973 8.31845 162.763 20.3859 172.069 34.3625C173.018 35.7838 173.851 37.2826 174.571 38.8317Z" fill="#BFDDE8"/>
</g>
<g opacity="0.85">
<g opacity="0.81">
<path opacity="0.81" d="M157.984 49.6322C158.478 55.1663 156.602 60.8708 158.17 66.3508C160.046 72.915 165.483 77.8295 167.698 84.2737C170.971 93.7929 170.815 104.462 166.838 113.741C164.923 118.214 162.125 122.366 158.303 125.239C152.41 129.67 144.689 130.642 137.431 130.08C126.627 129.244 115.223 124.589 104.361 125.859C98.3676 126.56 96.5345 133.016 93.4405 137.276C89.9378 142.094 85.1702 145.877 79.8967 148.394C70.1864 153.034 58.5301 153.472 48.6058 149.266C38.0082 144.773 28.7727 133.81 29.3798 121.405C29.6601 115.666 31.968 109.969 30.9016 104.331C29.5589 97.2551 24.2036 90.807 20.3195 85.0444C16.0306 78.6776 13.4347 71.0871 12.9288 63.3416C12.9249 63.2526 12.9171 63.1674 12.9132 63.0783C12.1154 49.7174 20.588 37.5299 33.3651 33.3474L60.5539 24.4479C88.1436 15.4205 115.706 15.7187 141.073 28.9673C146.561 31.8331 155.501 40.3764 157.342 46.2668C157.684 47.3821 157.882 48.5014 157.984 49.6322Z" fill="#BFDDE8"/>
</g>
</g>
</g>
</g>
</g>
<path opacity="0.58" d="M116.726 3.85292C117.747 3.85292 118.574 3.02933 118.574 2.01337C118.574 0.99742 117.747 0.173828 116.726 0.173828C115.705 0.173828 114.877 0.99742 114.877 2.01337C114.877 3.02933 115.705 3.85292 116.726 3.85292Z" fill="#3D85FD"/>
<path opacity="0.58" d="M33.6146 161.64C34.5819 161.64 35.366 160.86 35.366 159.897C35.366 158.935 34.5819 158.154 33.6146 158.154C32.6474 158.154 31.8633 158.935 31.8633 159.897C31.8633 160.86 32.6474 161.64 33.6146 161.64Z" fill="#2F4770"/>
<path opacity="0.58" d="M140.922 161.613C141.674 161.613 142.284 161.006 142.284 160.258C142.284 159.509 141.674 158.902 140.922 158.902C140.169 158.902 139.56 159.509 139.56 160.258C139.56 161.006 140.169 161.613 140.922 161.613Z" fill="#FFB44F"/>
<path opacity="0.58" d="M30.9754 15.289C31.7278 15.289 32.3376 14.6822 32.3376 13.9336C32.3376 13.185 31.7278 12.5781 30.9754 12.5781C30.2231 12.5781 29.6133 13.185 29.6133 13.9336C29.6133 14.6822 30.2231 15.289 30.9754 15.289Z" fill="#FFB44F"/>
<path opacity="0.58" d="M20.1053 29.4597C20.4277 29.4597 20.6891 29.1996 20.6891 28.8788C20.6891 28.5579 20.4277 28.2979 20.1053 28.2979C19.7829 28.2979 19.5215 28.5579 19.5215 28.8788C19.5215 29.1996 19.7829 29.4597 20.1053 29.4597Z" fill="#3D85FD"/>
<path opacity="0.58" d="M45.6603 0.991656C45.5668 1.43315 45.1271 1.71586 44.6795 1.62291C44.2358 1.52996 43.9517 1.09235 44.0451 0.646983C44.1385 0.205492 44.5783 -0.0772166 45.0259 0.0157288C45.4734 0.112547 45.7576 0.550165 45.6603 0.991656Z" fill="#3D85FD"/>
<path opacity="0.58" d="M163.229 8.2104C163.229 9.67816 162.035 10.8671 160.559 10.8671C159.084 10.8671 157.89 9.67816 157.89 8.2104C157.89 6.74264 159.084 5.55371 160.559 5.55371C162.031 5.55371 163.229 6.74264 163.229 8.2104Z" fill="#FFB44F"/>
<path opacity="0.47" d="M4.26941 89.9826C4.26941 91.156 3.312 92.1087 2.13276 92.1087C0.953515 92.1087 0 91.156 0 89.9826C0 88.8091 0.957406 87.8564 2.13665 87.8564C3.3159 87.8564 4.26941 88.8091 4.26941 89.9826Z" fill="#BFDDE8"/>
<g opacity="0.86">
<g opacity="0.86">
<g opacity="0.44">
<path opacity="0.44" d="M90.7508 133.497C63.9668 133.497 42.2539 111.891 42.2539 85.2385C42.2539 58.5864 63.9668 36.9805 90.7508 36.9805C117.535 36.9805 139.248 58.5864 139.248 85.2385C139.252 111.891 117.535 133.497 90.7508 133.497Z" fill="#F2F9FF"/>
</g>
<g opacity="0.86">
<path opacity="0.86" d="M90.7508 133.497C63.9668 133.497 42.2539 111.891 42.2539 85.2385C42.2539 58.5864 63.9668 36.9805 90.7508 36.9805C117.535 36.9805 139.248 58.5864 139.248 85.2385C139.252 111.891 117.535 133.497 90.7508 133.497Z" fill="#F2F9FF"/>
</g>
<path opacity="0.86" d="M44.8535 59.1132C44.8535 59.1132 49.8546 47.739 64.1418 39.9199" stroke="#F2F9FF" stroke-width="3" stroke-miterlimit="10" stroke-linecap="round" stroke-linejoin="round"/>
<path opacity="0.86" d="M106.287 134.817C106.287 134.817 127.72 129.131 135.577 111.716" stroke="#F2F9FF" stroke-width="3" stroke-miterlimit="10" stroke-linecap="round" stroke-linejoin="round"/>
<g opacity="0.86">
<path opacity="0.86" d="M118.613 42.2324C118.613 42.2324 130.044 47.2089 137.902 61.4257" stroke="#F2F9FF" stroke-width="3" stroke-miterlimit="10" stroke-linecap="round" stroke-linejoin="round"/>
</g>
<g opacity="0.86">
<path opacity="0.86" d="M42.5342 103.362C42.5342 103.362 48.2475 124.689 65.7493 132.508" stroke="#F2F9FF" stroke-width="3" stroke-miterlimit="10" stroke-linecap="round" stroke-linejoin="round"/>
</g>
</g>
</g>
<path d="M85.7187 127.916L86.9836 128.311C88.7155 128.849 90.5758 127.877 91.1168 126.154L119.991 34.1183C120.532 32.3949 119.555 30.5438 117.823 30.0054L116.558 29.6104C114.826 29.0721 112.966 30.0442 112.425 31.7675L83.5509 123.803C83.01 125.526 83.9829 127.377 85.7187 127.916Z" fill="#233863"/>
<path d="M87.9645 129.039C87.5754 129.039 87.1901 128.981 86.8086 128.861L85.5438 128.47C84.5552 128.164 83.7457 127.49 83.2631 126.572C82.7805 125.655 82.6832 124.609 82.9907 123.629L111.865 31.5938C112.172 30.6101 112.849 29.8046 113.772 29.3244C114.694 28.8442 115.745 28.7474 116.73 29.0533L117.994 29.4483C120.038 30.0835 121.182 32.2561 120.544 34.2892L91.6735 126.328C91.3661 127.312 90.6889 128.118 89.7665 128.598C89.2022 128.892 88.5834 129.039 87.9645 129.039Z" fill="#233863"/>
<path d="M135.434 149.433L92.6657 136.15C88.0538 134.717 85.4813 129.833 86.9213 125.244L115.581 33.8865C117.021 29.2973 121.929 26.7374 126.541 28.1703L169.309 41.4538C173.921 42.8867 176.493 47.7702 175.053 52.3594L146.393 143.717C144.949 148.306 140.046 150.866 135.434 149.433Z" fill="#2F4770"/>
<path d="M138.034 150.409C137.115 150.409 136.181 150.274 135.259 149.987L92.4909 136.704C90.113 135.964 88.1632 134.349 87.0073 132.149C85.8514 129.953 85.6218 127.436 86.3651 125.07L115.025 33.7124C116.558 28.825 121.801 26.087 126.716 27.6167L169.484 40.9002C174.396 42.426 177.144 47.6426 175.61 52.5338L146.95 143.891C145.701 147.861 142.008 150.409 138.034 150.409ZM135.605 148.879C137.688 149.526 139.898 149.329 141.829 148.318C143.759 147.311 145.183 145.615 145.833 143.543L174.493 52.1853C175.836 47.9098 173.431 43.3438 169.13 42.0078L126.362 28.7243C122.065 27.3882 117.477 29.7816 116.134 34.0609L87.4743 125.419C86.8243 127.49 87.0228 129.69 88.0386 131.611C89.0505 133.532 90.7552 134.949 92.8373 135.596L135.605 148.879Z" fill="#233863"/>
<path d="M119.924 36.7431L108.504 73.1465L158.429 88.6549L169.849 52.2515L119.924 36.7431Z" fill="white"/>
<path d="M158.424 89.2355C158.365 89.2355 158.307 89.2277 158.249 89.2083L108.327 73.702C108.179 73.6555 108.055 73.5548 107.985 73.4154C107.911 73.2798 107.899 73.121 107.946 72.9739L119.365 36.5703C119.411 36.4231 119.512 36.2992 119.653 36.2295C119.789 36.1559 119.948 36.1443 120.096 36.1907L170.018 51.6971C170.165 51.7436 170.29 51.8443 170.36 51.9837C170.434 52.1192 170.446 52.278 170.399 52.4252L158.98 88.8288C158.902 89.0767 158.673 89.2355 158.424 89.2355ZM109.234 72.7686L158.042 87.9303L169.115 52.6343L120.306 37.4726L109.234 72.7686Z" fill="#233863"/>
<path d="M163.825 45.4538C163.786 45.4538 163.747 45.4461 163.708 45.4345L128.86 34.6102C128.654 34.5483 128.541 34.3275 128.603 34.1261C128.665 33.9209 128.887 33.8086 129.09 33.8705L163.938 44.6948C164.144 44.7568 164.257 44.9775 164.194 45.1789C164.144 45.3493 163.992 45.4538 163.825 45.4538Z" fill="white"/>
<path d="M128.829 46.4801L121.057 44.0674C120.816 43.9939 120.68 43.7344 120.754 43.4943L121.201 42.0614C121.275 41.8212 121.536 41.6857 121.777 41.7593L129.549 44.172C129.791 44.2456 129.927 44.5051 129.853 44.7452L129.405 46.1781C129.331 46.4182 129.071 46.5537 128.829 46.4801Z" fill="#FFB44F"/>
<path d="M128.969 46.8871C128.884 46.8871 128.798 46.8755 128.716 46.8483L120.944 44.4356C120.497 44.2962 120.248 43.8237 120.388 43.3784L120.839 41.9455C120.905 41.7286 121.053 41.5543 121.256 41.4498C121.458 41.3452 121.688 41.3258 121.902 41.3917L129.674 43.8044C129.892 43.8702 130.067 44.0174 130.172 44.2188C130.277 44.4201 130.296 44.6486 130.23 44.8616L129.783 46.2945C129.717 46.5114 129.569 46.6857 129.366 46.7903C129.238 46.8561 129.102 46.8871 128.969 46.8871ZM128.946 46.1087C128.981 46.1203 129.024 46.1009 129.035 46.0622L129.483 44.6293C129.495 44.5983 129.467 44.5518 129.436 44.5402L121.664 42.1275C121.633 42.1197 121.586 42.143 121.575 42.174L121.123 43.6069C121.112 43.6456 121.131 43.6843 121.17 43.6959L128.946 46.1087Z" fill="#233863"/>
<path d="M140.381 50.067L132.609 47.6543C132.368 47.5808 132.231 47.3213 132.305 47.0812L132.753 45.6483C132.827 45.4082 133.088 45.2726 133.329 45.3462L141.101 47.7589C141.342 47.8325 141.478 48.092 141.405 48.3321L140.957 49.765C140.879 50.009 140.622 50.1445 140.381 50.067Z" fill="#FFB44F"/>
<path d="M140.517 50.4776C140.432 50.4776 140.346 50.4659 140.264 50.4388L132.492 48.0222C132.044 47.8828 131.795 47.4104 131.936 46.965L132.383 45.5321C132.523 45.0867 132.998 44.8389 133.446 44.9783L141.218 47.391C141.436 47.4568 141.611 47.604 141.716 47.8054C141.821 48.0068 141.84 48.2352 141.774 48.4482L141.323 49.8812C141.257 50.098 141.109 50.2723 140.906 50.3769C140.79 50.4427 140.653 50.4776 140.517 50.4776ZM140.498 49.6991C140.529 49.7108 140.576 49.6836 140.587 49.6527L141.039 48.2198C141.05 48.1888 141.023 48.1423 140.992 48.1307L133.22 45.718C133.189 45.7102 133.142 45.7335 133.13 45.7644L132.683 47.1974C132.671 47.2361 132.691 47.2748 132.729 47.2864L140.498 49.6991Z" fill="#233863"/>
<path d="M152.8 53.9235L145.028 51.5108C144.787 51.4372 144.65 51.1777 144.724 50.9376L145.172 49.5047C145.246 49.2646 145.506 49.1291 145.748 49.2026L153.52 51.6153C153.761 51.6889 153.897 51.9484 153.823 52.1885L153.376 53.6214C153.298 53.8654 153.041 54.0009 152.8 53.9235Z" fill="#FFB44F"/>
<path d="M152.936 54.3343C152.854 54.3343 152.769 54.3227 152.683 54.2956L144.911 51.8829C144.463 51.7435 144.214 51.271 144.354 50.8256L144.802 49.3927C144.868 49.1759 145.016 49.0016 145.218 48.897C145.421 48.7925 145.65 48.7731 145.865 48.8389L153.637 51.2516C154.084 51.3911 154.333 51.8635 154.193 52.3089L153.742 53.7418C153.633 54.102 153.298 54.3343 152.936 54.3343ZM152.917 53.5559C152.952 53.5675 152.994 53.5482 153.006 53.5094L153.458 52.0765C153.469 52.0378 153.45 51.9991 153.411 51.9875L145.639 49.5748C145.608 49.5631 145.561 49.5902 145.549 49.6212L145.102 51.0541C145.09 51.0929 145.109 51.1316 145.148 51.1432L152.917 53.5559Z" fill="#233863"/>
<path d="M164.491 57.5563L156.719 55.1436C156.478 55.07 156.342 54.8106 156.416 54.5704L156.863 53.1375C156.937 52.8974 157.198 52.7619 157.439 52.8355L165.211 55.2482C165.453 55.3218 165.589 55.5812 165.515 55.8213L165.067 57.2542C164.993 57.4982 164.733 57.6299 164.491 57.5563Z" fill="#FFB44F"/>
<path d="M164.631 57.9668C164.545 57.9668 164.459 57.9552 164.378 57.9281L156.606 55.5154C156.388 55.4496 156.213 55.3024 156.107 55.101C156.002 54.8996 155.983 54.6712 156.049 54.4582L156.497 53.0252C156.637 52.5799 157.112 52.332 157.559 52.4714L165.331 54.8842C165.779 55.0236 166.028 55.496 165.888 55.9414L165.436 57.3743C165.37 57.5912 165.222 57.7655 165.02 57.87C164.899 57.932 164.767 57.9668 164.631 57.9668ZM164.607 57.1884C164.642 57.2 164.685 57.1807 164.697 57.142L165.148 55.709C165.16 55.6703 165.141 55.6316 165.102 55.62L157.33 53.2073C157.291 53.1956 157.252 53.215 157.24 53.2537L156.792 54.6866C156.781 54.7176 156.808 54.7641 156.839 54.7757L164.607 57.1884Z" fill="#233863"/>
<path d="M108.462 75.6697L105.655 84.6162L154.22 99.7022L157.027 90.7557L108.462 75.6697Z" fill="#233863"/>
<path d="M154.212 100.284C154.154 100.284 154.096 100.277 154.037 100.257L105.474 85.173C105.167 85.0762 104.995 84.7509 105.093 84.445L107.899 75.499C107.945 75.3518 108.047 75.2279 108.187 75.1582C108.323 75.0846 108.483 75.073 108.63 75.1194L157.194 90.2037C157.501 90.3005 157.672 90.6258 157.575 90.9318L154.769 99.8778C154.722 100.025 154.621 100.149 154.481 100.219C154.399 100.261 154.306 100.284 154.212 100.284ZM106.381 84.2358L153.831 98.9754L156.291 91.1409L108.845 76.4013L106.381 84.2358Z" fill="#233863"/>
<path d="M121.984 86.9466C121.886 86.9466 121.789 86.9311 121.696 86.904L113.079 84.2279C112.565 84.0692 112.281 83.5231 112.441 83.0158L113.192 80.6224C113.27 80.3746 113.437 80.1732 113.671 80.0531C113.9 79.9331 114.165 79.9098 114.414 79.9873L123.031 82.6634C123.28 82.7408 123.482 82.9073 123.603 83.1397C123.723 83.3682 123.747 83.6315 123.669 83.8794L122.918 86.2727C122.782 86.6833 122.396 86.9466 121.984 86.9466ZM121.809 86.5322C122.112 86.629 122.443 86.4586 122.54 86.1527L123.291 83.7593C123.338 83.6122 123.323 83.4534 123.253 83.3178C123.179 83.1823 123.058 83.0777 122.91 83.0313L114.293 80.3552C114.146 80.3087 113.986 80.3242 113.85 80.3939C113.71 80.4675 113.608 80.5876 113.562 80.7347L112.811 83.1281C112.713 83.434 112.888 83.7593 113.192 83.8562L121.809 86.5322Z" fill="white"/>
<path d="M135.302 91.0872C135.205 91.0872 135.107 91.0717 135.01 91.0446L126.393 88.3685C126.144 88.2911 125.942 88.1245 125.821 87.8922C125.701 87.6637 125.677 87.4003 125.755 87.1525L126.506 84.7591C126.584 84.5113 126.751 84.3099 126.985 84.1898C127.215 84.0698 127.479 84.0466 127.728 84.124L136.345 86.8001C136.594 86.8775 136.796 87.044 136.917 87.2764C137.038 87.5049 137.061 87.7683 136.983 88.0161L136.232 90.4095C136.154 90.6573 135.987 90.8587 135.753 90.9787C135.613 91.0485 135.458 91.0872 135.302 91.0872ZM135.127 90.6728C135.275 90.7193 135.434 90.7038 135.57 90.6341C135.711 90.5605 135.812 90.4404 135.858 90.2933L136.61 87.8999C136.656 87.7528 136.641 87.594 136.571 87.4584C136.497 87.319 136.376 87.2183 136.228 87.1718L127.612 84.4958C127.464 84.4493 127.304 84.4648 127.168 84.5345C127.028 84.6081 126.927 84.7282 126.88 84.8753L126.129 87.2687C126.082 87.4158 126.098 87.5746 126.168 87.7102C126.242 87.8457 126.362 87.9503 126.51 87.9967L135.127 90.6728Z" fill="white"/>
<path d="M148.768 95.2688C148.671 95.2688 148.573 95.2533 148.476 95.2262L139.859 92.5502C139.346 92.3914 139.062 91.8454 139.221 91.338L139.972 88.9447C140.05 88.6968 140.217 88.4954 140.451 88.3754C140.681 88.2553 140.945 88.2321 141.194 88.3096L149.811 90.9856C150.06 91.0631 150.262 91.2296 150.383 91.462C150.504 91.6904 150.527 91.9538 150.449 92.2016L149.698 94.595C149.62 94.8428 149.453 95.0442 149.219 95.1643C149.075 95.2301 148.924 95.2688 148.768 95.2688ZM148.593 94.8545C148.741 94.9009 148.9 94.8854 149.036 94.8157C149.177 94.7421 149.278 94.6221 149.324 94.4749L150.076 92.0816C150.122 91.9344 150.107 91.7756 150.037 91.6401C149.963 91.5007 149.842 91.4 149.694 91.3535L141.078 88.6775C140.93 88.631 140.77 88.6465 140.634 88.7162C140.494 88.7898 140.393 88.9098 140.346 89.057L139.595 91.4503C139.497 91.7563 139.673 92.0816 139.98 92.1784L148.593 94.8545Z" fill="white"/>
<path d="M111.324 103.216L105.143 101.295C103.411 100.756 102.434 98.9053 102.975 97.182L104.092 93.6152C104.633 91.8918 106.494 90.9198 108.226 91.4581L114.406 93.3789C116.138 93.9173 117.115 95.7684 116.574 97.4918L115.457 101.059C114.916 102.782 113.055 103.754 111.324 103.216Z" fill="#5A6F8E"/>
<path d="M112.304 103.944C111.915 103.944 111.53 103.886 111.149 103.766L104.968 101.849C102.925 101.214 101.781 99.0411 102.419 97.0079L103.536 93.4411C104.174 91.408 106.358 90.2694 108.401 90.9045L114.581 92.8254C116.624 93.4605 117.769 95.6331 117.13 97.6663L116.013 101.233C115.706 102.217 115.029 103.022 114.106 103.502C113.542 103.797 112.923 103.944 112.304 103.944ZM107.249 91.892C106.093 91.892 105.015 92.6356 104.653 93.7897L103.536 97.3565C103.088 98.7778 103.89 100.3 105.318 100.745L111.499 102.666C112.188 102.879 112.923 102.813 113.569 102.476C114.215 102.139 114.69 101.578 114.904 100.892L116.021 97.3255C116.469 95.9042 115.667 94.3822 114.239 93.9368L108.058 92.016C107.79 91.9308 107.517 91.892 107.249 91.892Z" fill="#233863"/>
<path d="M128.21 108.461L122.03 106.54C120.298 106.002 119.321 104.15 119.862 102.427L120.979 98.8603C121.52 97.1369 123.38 96.1649 125.112 96.7032L131.293 98.6241C133.025 99.1624 134.001 101.014 133.46 102.737L132.343 106.304C131.802 108.031 129.942 108.999 128.21 108.461Z" fill="#5A6F8E"/>
<path d="M129.191 109.192C128.806 109.192 128.417 109.134 128.035 109.018L121.855 107.097C119.812 106.462 118.667 104.289 119.306 102.256L120.423 98.6895C120.73 97.7058 121.407 96.9003 122.33 96.4201C123.252 95.9399 124.303 95.8431 125.288 96.149L131.468 98.0699C133.511 98.705 134.655 100.878 134.017 102.911L132.896 106.478C132.589 107.461 131.912 108.267 130.989 108.747C130.425 109.041 129.81 109.192 129.191 109.192ZM128.382 107.907C129.071 108.12 129.806 108.054 130.452 107.717C131.098 107.38 131.573 106.818 131.787 106.133L132.908 102.566C133.122 101.881 133.056 101.149 132.717 100.506C132.379 99.8629 131.814 99.3905 131.125 99.1775L124.945 97.2566C124.256 97.0436 123.521 97.1094 122.875 97.4464C122.229 97.7833 121.754 98.3448 121.54 99.0303L120.423 102.597C120.209 103.283 120.275 104.014 120.613 104.657C120.952 105.3 121.516 105.773 122.205 105.986L128.382 107.907Z" fill="#233863"/>
<path d="M144.841 113.626L138.661 111.705C136.929 111.167 135.952 109.315 136.493 107.592L137.61 104.025C138.151 102.302 140.011 101.33 141.743 101.868L147.923 103.789C149.655 104.327 150.632 106.179 150.091 107.902L148.974 111.469C148.433 113.196 146.573 114.164 144.841 113.626Z" fill="#5A6F8E"/>
<path d="M145.822 114.358C145.441 114.358 145.051 114.3 144.666 114.18L138.486 112.259C136.443 111.624 135.298 109.452 135.937 107.418L137.054 103.852C137.361 102.868 138.038 102.062 138.961 101.582C139.883 101.102 140.934 101.005 141.918 101.311L148.099 103.232C150.142 103.867 151.286 106.04 150.648 108.073L149.531 111.64C149.013 113.297 147.476 114.358 145.822 114.358ZM140.77 102.303C140.334 102.303 139.906 102.407 139.505 102.616C138.859 102.953 138.385 103.515 138.171 104.2L137.054 107.767C136.606 109.188 137.408 110.71 138.836 111.156L145.016 113.076C146.445 113.522 147.974 112.724 148.422 111.303L149.539 107.736C149.986 106.315 149.185 104.793 147.756 104.347L141.576 102.426C141.311 102.345 141.039 102.303 140.77 102.303Z" fill="#233863"/>
<path d="M107.194 116.372L101.013 114.451C99.2814 113.913 98.3046 112.062 98.8455 110.338L99.9625 106.771C100.503 105.048 102.364 104.076 104.096 104.614L110.276 106.535C112.008 107.074 112.985 108.925 112.444 110.648L111.327 114.215C110.79 115.938 108.929 116.91 107.194 116.372Z" fill="#5A6F8E"/>
<path d="M108.175 117.104C107.794 117.104 107.404 117.046 107.019 116.93L100.839 115.009C99.8502 114.703 99.0407 114.029 98.5581 113.111C98.0755 112.194 97.9782 111.148 98.2856 110.168L99.4065 106.601C100.045 104.568 102.224 103.43 104.271 104.065L110.452 105.986C111.44 106.291 112.25 106.965 112.732 107.883C113.215 108.801 113.312 109.847 113.005 110.826L111.888 114.393C111.37 116.043 109.833 117.104 108.175 117.104ZM107.369 115.818C108.798 116.26 110.327 115.466 110.775 114.041L111.892 110.474C112.106 109.789 112.04 109.057 111.701 108.414C111.362 107.771 110.798 107.298 110.109 107.085L103.929 105.165C103.24 104.952 102.504 105.017 101.858 105.354C101.212 105.691 100.738 106.253 100.523 106.938L99.4026 110.505C99.1885 111.19 99.2547 111.922 99.5933 112.565C99.9319 113.208 100.496 113.681 101.185 113.894L107.369 115.818Z" fill="#233863"/>
<path d="M124.08 121.615L117.9 119.694C116.168 119.156 115.191 117.305 115.732 115.581L116.849 112.015C117.39 110.291 119.251 109.319 120.982 109.857L127.163 111.778C128.895 112.317 129.871 114.168 129.331 115.891L128.214 119.458C127.673 121.185 125.812 122.153 124.08 121.615Z" fill="#5A6F8E"/>
<path d="M125.062 122.347C124.68 122.347 124.291 122.289 123.906 122.173L117.725 120.252C116.737 119.946 115.927 119.272 115.445 118.354C114.962 117.437 114.865 116.391 115.172 115.411L116.289 111.844C116.928 109.811 119.111 108.673 121.154 109.308L127.335 111.229C128.323 111.535 129.133 112.208 129.615 113.126C130.098 114.044 130.195 115.09 129.888 116.07L128.771 119.636C128.253 121.286 126.716 122.347 125.062 122.347ZM124.256 121.062C125.684 121.507 127.214 120.709 127.661 119.288L128.778 115.721C128.992 115.036 128.926 114.304 128.588 113.661C128.249 113.018 127.685 112.545 126.996 112.332L120.816 110.412C119.387 109.97 117.858 110.764 117.41 112.185L116.293 115.752C116.079 116.438 116.145 117.169 116.484 117.812C116.822 118.455 117.387 118.928 118.076 119.141L124.256 121.062Z" fill="#233863"/>
<path d="M140.715 126.782L134.535 124.861C132.803 124.323 131.826 122.472 132.367 120.748L133.484 117.182C134.025 115.458 135.885 114.486 137.617 115.024L143.798 116.945C145.529 117.484 146.506 119.335 145.965 121.058L144.848 124.625C144.307 126.352 142.447 127.32 140.715 126.782Z" fill="#5A6F8E"/>
<path d="M141.696 127.514C141.315 127.514 140.925 127.456 140.54 127.34L134.36 125.419C132.317 124.784 131.172 122.611 131.811 120.578L132.932 117.011C133.57 114.978 135.749 113.84 137.796 114.475L143.977 116.396C144.965 116.702 145.775 117.375 146.257 118.293C146.74 119.211 146.837 120.257 146.53 121.237L145.413 124.803C144.887 126.453 143.35 127.514 141.696 127.514ZM140.887 126.229C142.315 126.674 143.844 125.876 144.292 124.455L145.409 120.888C145.623 120.203 145.557 119.471 145.218 118.828C144.88 118.185 144.315 117.712 143.626 117.499L137.446 115.579C136.757 115.366 136.022 115.431 135.376 115.768C134.73 116.105 134.255 116.667 134.041 117.352L132.92 120.919C132.472 122.34 133.274 123.862 134.702 124.308L140.887 126.229Z" fill="#233863"/>
<path d="M103.07 129.527L96.8893 127.606C95.1574 127.068 94.1805 125.217 94.7215 123.493L95.8385 119.927C96.3795 118.203 98.2398 117.231 99.9717 117.77L106.152 119.69C107.884 120.229 108.861 122.08 108.32 123.803L107.203 127.37C106.662 129.097 104.802 130.066 103.07 129.527Z" fill="#3AAED5"/>
<path d="M104.05 130.26C103.661 130.26 103.275 130.202 102.894 130.082L96.7176 128.161C95.7291 127.855 94.9196 127.181 94.437 126.263C93.9544 125.345 93.8571 124.3 94.1645 123.32L95.2815 119.753C95.589 118.769 96.2662 117.964 97.1885 117.484C98.1109 117.003 99.1617 116.907 100.146 117.212L106.327 119.133C108.37 119.768 109.514 121.941 108.876 123.974L107.759 127.541C107.451 128.525 106.774 129.33 105.852 129.81C105.288 130.109 104.669 130.26 104.05 130.26ZM103.24 128.974C103.929 129.187 104.665 129.121 105.311 128.784C105.957 128.447 106.432 127.886 106.646 127.2L107.763 123.633C107.977 122.948 107.911 122.216 107.572 121.573C107.234 120.93 106.669 120.458 105.98 120.245L99.8 118.324C99.1111 118.111 98.3756 118.177 97.7295 118.514C97.0834 118.851 96.6086 119.412 96.3946 120.098L95.2776 123.664C95.0636 124.35 95.1297 125.082 95.4683 125.725C95.8069 126.368 96.3712 126.84 97.0601 127.053L103.24 128.974Z" fill="#233863"/>
<path d="M119.955 134.774L113.775 132.853C112.043 132.315 111.066 130.464 111.607 128.741L112.724 125.174C113.265 123.45 115.126 122.478 116.857 123.017L123.038 124.938C124.77 125.476 125.747 127.327 125.206 129.05L124.089 132.617C123.548 134.341 121.687 135.313 119.955 134.774Z" fill="#FFB44F"/>
<path d="M120.937 135.503C120.551 135.503 120.162 135.445 119.781 135.325L113.6 133.404C112.612 133.098 111.802 132.424 111.32 131.506C110.837 130.588 110.74 129.543 111.047 128.563L112.168 124.996C112.476 124.012 113.153 123.207 114.075 122.727C114.998 122.247 116.048 122.15 117.033 122.456L123.213 124.377C125.257 125.012 126.401 127.184 125.763 129.217L124.646 132.784C124.338 133.768 123.661 134.573 122.739 135.054C122.17 135.356 121.555 135.503 120.937 135.503ZM115.881 123.451C115.445 123.451 115.017 123.555 114.616 123.765C113.97 124.102 113.495 124.663 113.281 125.349L112.16 128.915C111.946 129.601 112.013 130.333 112.351 130.976C112.69 131.619 113.254 132.091 113.943 132.304L120.123 134.225C120.812 134.438 121.548 134.372 122.194 134.035C122.84 133.698 123.315 133.137 123.529 132.451L124.646 128.884C125.093 127.463 124.291 125.941 122.863 125.496L116.683 123.575C116.422 123.49 116.154 123.451 115.881 123.451Z" fill="#233863"/>
<path d="M136.585 139.94L130.405 138.019C128.673 137.481 127.696 135.63 128.237 133.907L129.354 130.34C129.895 128.616 131.755 127.644 133.487 128.183L139.668 130.104C141.4 130.642 142.376 132.493 141.835 134.216L140.718 137.783C140.177 139.507 138.317 140.479 136.585 139.94Z" fill="#3D85FD"/>
<path d="M137.567 140.669C137.177 140.669 136.792 140.611 136.411 140.491L130.23 138.57C129.242 138.264 128.432 137.59 127.95 136.672C127.467 135.754 127.37 134.709 127.677 133.729L128.794 130.162C129.102 129.179 129.779 128.373 130.701 127.893C131.624 127.413 132.674 127.316 133.659 127.622L139.839 129.543C140.828 129.848 141.637 130.522 142.12 131.44C142.603 132.358 142.7 133.404 142.392 134.383L141.276 137.95C140.968 138.934 140.291 139.739 139.368 140.22C138.804 140.522 138.189 140.669 137.567 140.669ZM136.761 139.387C137.45 139.6 138.185 139.534 138.831 139.197C139.477 138.86 139.952 138.299 140.166 137.613L141.283 134.047C141.497 133.361 141.431 132.629 141.093 131.986C140.754 131.343 140.19 130.871 139.501 130.658L133.32 128.737C132.632 128.524 131.896 128.59 131.25 128.927C130.604 129.264 130.129 129.825 129.915 130.511L128.798 134.077C128.584 134.763 128.65 135.495 128.989 136.138C129.327 136.781 129.892 137.253 130.581 137.466L136.761 139.387Z" fill="#233863"/>
<path d="M134.757 151.451L92.0704 138.19C90.6927 137.764 89.9182 136.293 90.3502 134.922C90.7783 133.551 92.2572 132.78 93.635 133.21L136.321 146.47C137.699 146.896 138.474 148.368 138.042 149.739C137.61 151.106 136.131 151.876 134.757 151.451Z" fill="#233863"/>
<path d="M135.535 152.148C135.22 152.148 134.901 152.101 134.582 152L91.8952 138.74C90.2101 138.217 89.2643 136.424 89.7897 134.744C90.3151 133.067 92.1171 132.126 93.8062 132.648L136.492 145.909C137.306 146.16 137.975 146.718 138.372 147.473C138.769 148.228 138.851 149.092 138.594 149.901C138.17 151.272 136.901 152.148 135.535 152.148ZM134.932 150.893C136.002 151.226 137.15 150.629 137.485 149.561C137.644 149.046 137.594 148.499 137.341 148.015C137.088 147.535 136.664 147.179 136.146 147.02L93.4559 133.764C92.3856 133.431 91.2375 134.027 90.9028 135.096C90.5681 136.165 91.1675 137.303 92.2416 137.636L134.932 150.893Z" fill="#233863"/>
<path d="M134.075 131.061C134.075 131.573 133.659 131.983 133.149 131.983C132.635 131.983 132.223 131.569 132.223 131.061C132.223 130.55 132.639 130.14 133.149 130.14C133.659 130.14 134.075 130.554 134.075 131.061Z" fill="white"/>
<path d="M117.441 126.008C117.441 126.519 117.025 126.929 116.515 126.929C116.001 126.929 115.589 126.515 115.589 126.008C115.589 125.5 116.005 125.086 116.515 125.086C117.025 125.086 117.441 125.5 117.441 126.008Z" fill="white"/>
<path d="M100.006 120.466C100.006 120.977 99.5894 121.387 99.0796 121.387C98.5659 121.387 98.1533 120.973 98.1533 120.466C98.1533 119.954 98.5698 119.544 99.0796 119.544C99.5933 119.544 100.006 119.958 100.006 120.466Z" fill="white"/>
<path d="M138.536 137.796C138.536 138.059 138.322 138.276 138.054 138.276C137.789 138.276 137.571 138.063 137.571 137.796C137.571 137.532 137.785 137.315 138.054 137.315C138.322 137.315 138.536 137.528 138.536 137.796Z" fill="white"/>
<path d="M141.404 103.979C141.404 104.32 141.127 104.595 140.785 104.595C140.442 104.595 140.166 104.32 140.166 103.979C140.166 103.638 140.442 103.363 140.785 103.363C141.127 103.363 141.404 103.638 141.404 103.979Z" fill="#233863"/>
<path d="M136.967 117.797C136.967 118.138 136.691 118.413 136.348 118.413C136.006 118.413 135.729 118.138 135.729 117.797C135.729 117.457 136.006 117.182 136.348 117.182C136.691 117.182 136.967 117.457 136.967 117.797Z" fill="#233863"/>
<path d="M156.704 81.8815C156.704 82.7723 155.976 83.4965 155.081 83.4965C154.186 83.4965 153.458 82.7723 153.458 81.8815C153.458 80.9908 154.186 80.2666 155.081 80.2666C155.98 80.2627 156.704 80.9869 156.704 81.8815Z" fill="#2F4770"/>
<path d="M155.081 84.0772C153.863 84.0772 152.874 83.0936 152.874 81.8814C152.874 80.6692 153.863 79.6855 155.081 79.6855C156.299 79.6855 157.287 80.6692 157.287 81.8814C157.287 83.0936 156.299 84.0772 155.081 84.0772ZM155.081 80.8435C154.509 80.8435 154.042 81.3082 154.042 81.8775C154.042 82.4468 154.509 82.9115 155.081 82.9115C155.653 82.9115 156.12 82.4468 156.12 81.8775C156.12 81.3082 155.653 80.8435 155.081 80.8435Z" fill="#233863"/>
<path d="M63.2814 152.995C74.0823 152.995 82.8382 144.282 82.8382 133.535C82.8382 122.787 74.0823 114.074 63.2814 114.074C52.4805 114.074 43.7246 122.787 43.7246 133.535C43.7246 144.282 52.4805 152.995 63.2814 152.995Z" fill="#233863"/>
<path d="M80.4296 136.97C82.9116 126.51 76.4025 116.029 65.8911 113.559C55.3796 111.089 44.8463 117.566 42.3643 128.026C39.8822 138.486 46.3913 148.967 56.9028 151.437C67.4142 153.907 77.9475 147.43 80.4296 136.97Z" fill="#233863"/>
<path d="M80.4296 136.97C82.9116 126.51 76.4025 116.029 65.8911 113.559C55.3796 111.089 44.8463 117.566 42.3643 128.026C39.8822 138.486 46.3913 148.967 56.9028 151.437C67.4142 153.907 77.9475 147.43 80.4296 136.97Z" fill="#FFB44F"/>
<path d="M61.4023 152.531C50.2987 152.531 41.2617 143.542 41.2617 132.49C41.2617 121.441 50.2948 112.448 61.4023 112.448C72.5098 112.448 81.5429 121.437 81.5429 132.49C81.539 143.538 72.5059 152.531 61.4023 152.531ZM61.4023 113.61C50.9409 113.61 42.4293 122.08 42.4293 132.49C42.4293 142.899 50.9409 151.369 61.4023 151.369C71.8637 151.369 80.3753 142.899 80.3753 132.49C80.3714 122.08 71.8598 113.61 61.4023 113.61Z" fill="#233863"/>
<path d="M61.4024 148.55C52.5016 148.55 45.2627 141.347 45.2627 132.49C45.2627 123.633 52.5016 116.43 61.4024 116.43C70.3032 116.43 77.5421 123.633 77.5421 132.49C77.5382 141.347 70.2993 148.55 61.4024 148.55ZM61.4024 117.204C52.9336 117.204 46.0411 124.063 46.0411 132.49C46.0411 140.917 52.9336 147.776 61.4024 147.776C69.8712 147.776 76.7637 140.917 76.7637 132.49C76.7598 124.063 69.8712 117.204 61.4024 117.204Z" fill="white"/>
<path d="M61.2194 146.812C53.2838 146.812 46.8271 140.387 46.8271 132.49C46.8271 124.594 53.2838 118.169 61.2194 118.169C69.155 118.169 75.6116 124.594 75.6116 132.49C75.6155 140.387 69.1589 146.812 61.2194 146.812ZM61.2194 118.943C53.7119 118.943 47.6055 125.02 47.6055 132.49C47.6055 139.961 53.7119 146.037 61.2194 146.037C68.7269 146.037 74.8332 139.961 74.8332 132.49C74.8371 125.02 68.7269 118.943 61.2194 118.943Z" fill="white"/>
<path d="M66.6134 134.732C66.6134 135.998 66.1036 137.222 65.2318 138.113C64.6441 138.728 63.9358 139.158 63.1302 139.391V140.316C63.1302 140.758 62.9628 141.176 62.667 141.482C62.3674 141.792 61.9587 141.966 61.515 141.966C61.0402 141.966 60.6277 141.788 60.3202 141.482C60.0089 141.172 59.8221 140.754 59.8221 140.316V139.569H58.2848C57.5881 139.569 57.0121 139.348 56.6151 138.984C56.2259 138.62 56.0158 138.101 56.0158 137.497C56.0158 136.296 56.8253 135.688 58.2848 135.688H61.9276C62.0716 135.688 62.2701 135.634 62.4141 135.51C62.6009 135.367 62.6904 135.181 62.6904 134.96C62.6904 134.639 62.5697 134.43 62.3245 134.31C62.2039 134.255 62.1261 134.232 62.0716 134.221C61.9937 134.209 61.9509 134.197 61.9509 134.197H60.2113C59.0048 134.166 57.8878 133.69 57.0783 132.908C56.2688 132.114 55.7939 131.057 55.7939 129.856C55.7939 128.613 56.3271 127.412 57.2106 126.529C57.9189 125.824 58.8374 125.352 59.8221 125.185V124.57C59.8221 124.117 59.9894 123.733 60.3202 123.404C60.6433 123.083 61.0402 122.92 61.5034 122.92C61.9354 122.92 62.344 123.098 62.6554 123.404C62.9745 123.733 63.1302 124.12 63.1302 124.57V125.12H63.7178C65.1695 125.12 66.0219 125.813 66.0219 127.013C66.0219 128.334 65.1695 129.039 63.7178 129.039H60.3202C59.931 129.039 59.6781 129.291 59.6781 129.643C59.6781 130.007 59.8765 130.305 60.1996 130.305H61.8692C63.1652 130.305 64.36 130.758 65.2357 131.548C66.1153 132.35 66.6134 133.465 66.6134 134.732Z" fill="#233863"/>
<path d="M72.4202 133.09C72.4202 133.865 71.7898 134.496 71.0075 134.496C70.2291 134.496 69.5947 133.869 69.5947 133.09C69.5947 132.316 70.2252 131.685 71.0075 131.685C71.7898 131.688 72.4202 132.316 72.4202 133.09Z" fill="#233863"/>
<path d="M52.595 133.09C52.595 133.865 51.9645 134.496 51.1823 134.496C50.4039 134.496 49.7695 133.869 49.7695 133.09C49.7695 132.316 50.4 131.685 51.1823 131.685C51.9607 131.688 52.595 132.316 52.595 133.09Z" fill="#233863"/>
<path d="M48.1232 109.694C47.2709 113.482 43.4957 115.867 39.6894 115.019C35.8832 114.171 33.4857 110.415 34.3381 106.627C35.1904 102.84 38.9655 100.454 42.7718 101.302C46.5781 102.15 48.9716 105.907 48.1232 109.694Z" fill="#233863"/>
<path d="M46.5269 111.542C48.6925 108.313 47.8174 103.948 44.5724 101.793C41.3273 99.6384 36.9412 100.509 34.7756 103.738C32.61 106.967 33.4851 111.332 36.7302 113.487C39.9752 115.642 44.3614 114.771 46.5269 111.542Z" fill="#233863"/>
<path d="M46.5269 111.542C48.6925 108.313 47.8174 103.948 44.5724 101.793C41.3273 99.6384 36.9412 100.509 34.7756 103.738C32.61 106.967 33.4851 111.332 36.7302 113.487C39.9752 115.642 44.3614 114.771 46.5269 111.542Z" fill="#FFB44F"/>
<path d="M40.6474 115.062C40.1103 115.062 39.5655 115.004 39.0206 114.884C37.0786 114.45 35.4206 113.292 34.3542 111.619C33.2878 109.946 32.9415 107.959 33.3735 106.027C33.8094 104.094 34.973 102.445 36.6543 101.383C38.3356 100.322 40.3283 99.9737 42.2742 100.407C44.2163 100.841 45.8742 101.999 46.9406 103.672C48.007 105.345 48.3534 107.332 47.9214 109.264C47.1469 112.711 44.0606 115.062 40.6474 115.062ZM40.6358 101C39.3826 101 38.1566 101.352 37.0747 102.034C35.5685 102.983 34.5255 104.462 34.1363 106.193C33.7471 107.924 34.0584 109.702 35.012 111.201C35.9655 112.7 37.4522 113.737 39.1919 114.125C42.7802 114.922 46.3568 112.669 47.1625 109.094C47.5517 107.363 47.2403 105.585 46.2868 104.087C45.3333 102.588 43.8466 101.55 42.1069 101.163C41.6165 101.054 41.1261 101 40.6358 101Z" fill="#233863"/>
<path d="M40.655 113.451C40.2308 113.451 39.7988 113.404 39.3746 113.308C36.2338 112.607 34.2528 109.497 34.9534 106.372C35.292 104.861 36.2066 103.572 37.522 102.739C38.8375 101.906 40.3981 101.635 41.9199 101.972C45.0606 102.673 47.0416 105.783 46.3411 108.904C46.0025 110.415 45.0879 111.704 43.7724 112.537C42.8228 113.145 41.7486 113.451 40.655 113.451ZM39.4368 113.029C40.8807 113.35 42.3635 113.091 43.6128 112.301C44.866 111.511 45.73 110.283 46.0531 108.85C46.7225 105.884 44.8388 102.929 41.8537 102.263C40.4098 101.941 38.927 102.201 37.6777 102.991C36.4245 103.781 35.5605 105.004 35.2375 106.441C34.572 109.408 36.4556 112.363 39.4368 113.029Z" fill="white"/>
<path d="M40.5849 112.812C40.2113 112.812 39.8298 112.769 39.4484 112.688C36.6502 112.064 34.8794 109.292 35.506 106.503C35.8095 105.156 36.6229 104.005 37.7983 103.262C38.9736 102.518 40.3669 102.278 41.7213 102.58C44.5196 103.204 46.2904 105.977 45.6638 108.765C45.1228 111.17 42.9667 112.808 40.5849 112.812ZM40.5771 102.743C39.6547 102.743 38.7518 103.002 37.954 103.506C36.8448 104.207 36.0781 105.291 35.7901 106.565C35.1985 109.195 36.8681 111.813 39.5107 112.401C40.7911 112.688 42.1027 112.456 43.2119 111.759C44.3211 111.058 45.0917 109.973 45.3758 108.699C45.6638 107.429 45.4303 106.12 44.7297 105.016C44.0253 103.912 42.9356 103.146 41.6551 102.863C41.2971 102.782 40.939 102.743 40.5771 102.743Z" fill="white"/>
<path d="M42.3053 108.846C42.2041 109.292 41.9278 109.683 41.5503 109.931C41.2934 110.101 41.0132 110.198 40.7096 110.217L40.6357 110.542C40.6006 110.697 40.5072 110.833 40.3788 110.918C40.2504 111.003 40.0908 111.034 39.9351 110.999C39.7678 110.961 39.6354 110.868 39.5537 110.736C39.4681 110.604 39.4369 110.442 39.472 110.287L39.5304 110.024L38.9894 109.903C38.7442 109.849 38.5574 109.725 38.4484 109.567C38.3394 109.408 38.3083 109.21 38.355 108.997C38.4484 108.575 38.7831 108.424 39.2968 108.54L40.5812 108.827C40.6318 108.838 40.7057 108.835 40.768 108.804C40.8458 108.769 40.8925 108.711 40.9081 108.629C40.9353 108.517 40.9081 108.436 40.8302 108.37C40.7913 108.343 40.7641 108.327 40.7485 108.32C40.7213 108.308 40.7057 108.304 40.7057 108.304L40.0947 108.168C39.6705 108.064 39.3163 107.808 39.0945 107.468C38.8726 107.123 38.787 106.716 38.8843 106.29C38.9816 105.853 39.2657 105.469 39.6471 105.229C39.9546 105.035 40.3126 104.942 40.6746 104.962L40.7252 104.745C40.7602 104.586 40.8497 104.462 40.9937 104.373C41.1299 104.284 41.2856 104.261 41.4491 104.296C41.6008 104.331 41.7332 104.424 41.8149 104.555C41.9005 104.695 41.9278 104.846 41.8888 105.004L41.846 105.198L42.0523 105.245C42.5621 105.357 42.8073 105.671 42.7139 106.093C42.6088 106.557 42.2508 106.739 41.741 106.627L40.5422 106.36C40.406 106.329 40.2971 106.399 40.2659 106.523C40.2387 106.65 40.2854 106.77 40.3982 106.798L40.9859 106.929C41.4413 107.03 41.8266 107.286 42.0718 107.63C42.3208 107.967 42.4065 108.397 42.3053 108.846Z" fill="#233863"/>
<path d="M44.4847 108.722C44.4224 108.997 44.15 109.168 43.8776 109.106C43.6012 109.044 43.43 108.773 43.4923 108.502C43.5545 108.227 43.827 108.056 44.0994 108.118C44.3718 108.176 44.547 108.447 44.4847 108.722Z" fill="#233863"/>
<path d="M37.4954 107.166C37.4332 107.441 37.1607 107.611 36.8883 107.549C36.612 107.487 36.4407 107.216 36.503 106.945C36.5653 106.67 36.8377 106.5 37.1101 106.562C37.3865 106.62 37.5577 106.891 37.4954 107.166Z" fill="#233863"/>
<path d="M35.0477 133.549C39.1436 130.275 39.7973 124.317 36.5077 120.242C33.2182 116.166 27.231 115.515 23.1351 118.789C19.0392 122.062 18.3855 128.02 21.675 132.096C24.9646 136.171 30.9517 136.822 35.0477 133.549Z" fill="#233863"/>
<path d="M37.5784 126.148C37.7013 120.922 33.5436 116.587 28.292 116.464C23.0403 116.342 18.6834 120.479 18.5605 125.705C18.4375 130.931 22.5952 135.266 27.8468 135.388C33.0985 135.511 37.4554 131.374 37.5784 126.148Z" fill="#233863"/>
<path d="M37.5784 126.148C37.7013 120.922 33.5436 116.587 28.292 116.464C23.0403 116.342 18.6834 120.479 18.5605 125.705C18.4375 130.931 22.5952 135.266 27.8468 135.388C33.0985 135.511 37.4554 131.374 37.5784 126.148Z" fill="#FFB44F"/>
<path d="M28.0761 135.972C23.6744 135.972 19.6151 133.079 18.358 128.664C16.8402 123.335 19.9654 117.77 25.3206 116.259C30.6798 114.749 36.2685 117.859 37.7864 123.188C39.3042 128.517 36.179 134.082 30.8238 135.592C29.9092 135.848 28.9868 135.972 28.0761 135.972ZM28.0878 117.034C27.2705 117.034 26.4493 117.146 25.6437 117.375C20.9072 118.711 18.144 123.629 19.4867 128.342C20.8294 133.055 25.7721 135.805 30.5085 134.469C32.8047 133.822 34.7079 132.324 35.8716 130.255C37.0352 128.184 37.3155 125.786 36.6655 123.501C36.0156 121.217 34.5094 119.323 32.4311 118.165C31.0767 117.417 29.59 117.034 28.0878 117.034Z" fill="#233863"/>
<path d="M28.0767 133.69C24.6713 133.69 21.5344 131.456 20.5614 128.04C19.39 123.919 21.8029 119.617 25.9439 118.447C27.9483 117.882 30.0538 118.13 31.8752 119.144C33.6966 120.159 35.012 121.813 35.5803 123.807C36.1485 125.801 35.8994 127.897 34.8797 129.709C33.86 131.522 32.1982 132.83 30.1939 133.396C29.4933 133.597 28.7772 133.69 28.0767 133.69ZM28.0806 118.443C27.3956 118.443 26.7067 118.536 26.0295 118.73C22.0442 119.853 19.7169 123.997 20.8455 127.962C21.9742 131.932 26.1385 134.24 30.1238 133.121C32.0503 132.579 33.6538 131.316 34.6345 129.57C35.6153 127.823 35.8527 125.805 35.3078 123.888C34.763 121.967 33.4942 120.376 31.739 119.4C30.5986 118.765 29.3454 118.443 28.0806 118.443Z" fill="white"/>
<path d="M27.9822 132.873C26.8107 132.873 25.6509 132.575 24.5962 131.99C22.9733 131.088 21.7979 129.612 21.292 127.835C20.786 126.057 21.0079 124.191 21.9147 122.576C22.8215 120.961 24.3043 119.791 26.0907 119.288C27.8771 118.784 29.753 119.005 31.3759 119.907C32.9988 120.81 34.1742 122.285 34.6801 124.063C35.1861 125.84 34.9642 127.707 34.0574 129.322C33.1506 130.937 31.6678 132.106 29.8814 132.61C29.2587 132.784 28.6204 132.873 27.9822 132.873ZM27.9938 119.311C27.3867 119.311 26.7757 119.396 26.1724 119.563C24.4639 120.047 23.0433 121.162 22.1716 122.711C21.3037 124.26 21.0896 126.05 21.5761 127.75C22.0626 129.45 23.1835 130.863 24.7402 131.731C26.297 132.594 28.095 132.807 29.8036 132.323C31.5121 131.839 32.9365 130.724 33.8044 129.175C34.6723 127.626 34.8864 125.837 34.3999 124.136C33.9134 122.436 32.7925 121.023 31.2358 120.155C30.2278 119.598 29.1147 119.311 27.9938 119.311Z" fill="white"/>
<path d="M30.8124 126.282C30.9797 126.875 30.9058 127.514 30.6139 128.048C30.4193 128.416 30.1469 128.71 29.8005 128.923L29.925 129.357C29.9834 129.562 29.9601 129.779 29.8628 129.965C29.7655 130.147 29.5942 130.286 29.3879 130.345C29.1661 130.406 28.9482 130.379 28.7652 130.275C28.5784 130.17 28.4344 130 28.3761 129.795L28.2749 129.442L27.5549 129.647C27.2279 129.74 26.9283 129.713 26.6947 129.593C26.4651 129.473 26.2978 129.26 26.216 128.977C26.0565 128.416 26.3523 128.025 27.0372 127.831L28.7419 127.351C28.808 127.332 28.8937 127.281 28.9482 127.204C29.0182 127.111 29.0338 127.014 29.0026 126.909C28.9598 126.758 28.8742 126.677 28.7458 126.654C28.6796 126.642 28.6407 126.642 28.6135 126.646C28.5745 126.65 28.5551 126.65 28.5551 126.65L27.7417 126.878C27.1735 127.022 26.5858 126.948 26.1032 126.689C25.6206 126.425 25.2548 125.992 25.0952 125.43C24.9278 124.845 25.0173 124.214 25.317 123.687C25.5544 123.265 25.9242 122.92 26.36 122.711L26.2783 122.421C26.216 122.212 26.2433 122.007 26.3562 121.809C26.4651 121.615 26.6286 121.488 26.8465 121.426C27.0489 121.368 27.263 121.398 27.4498 121.499C27.6444 121.612 27.7689 121.77 27.8273 121.983L27.9012 122.243L28.1776 122.165C28.8586 121.976 29.349 122.185 29.5086 122.746C29.6837 123.366 29.3802 123.807 28.6991 124.001L27.1073 124.45C26.9244 124.501 26.8387 124.655 26.8893 124.818C26.9399 124.989 27.0723 125.101 27.2202 125.058L28.0024 124.837C28.6096 124.667 29.2284 124.721 29.7421 124.977C30.2636 125.232 30.645 125.689 30.8124 126.282Z" fill="#233863"/>
<path d="M33.3109 124.752C33.416 125.116 33.202 125.492 32.8361 125.596C32.4703 125.701 32.0928 125.488 31.9877 125.124C31.8826 124.76 32.0967 124.384 32.4625 124.28C32.8283 124.175 33.2059 124.388 33.3109 124.752Z" fill="#233863"/>
<path d="M23.9635 127.887C24.1482 127.558 24.0301 127.143 23.7 126.959C23.3698 126.776 22.9525 126.893 22.7679 127.222C22.5832 127.55 22.7013 127.965 23.0314 128.149C23.3616 128.333 23.7789 128.215 23.9635 127.887Z" fill="#233863"/>
<path d="M98.6348 88.8986L58.1318 86.8886C56.2326 86.7957 54.7692 85.1846 54.8626 83.2947L57.8983 22.6594C58.1863 16.9356 63.0784 12.5284 68.8306 12.815L95.7159 14.1472C101.468 14.4338 105.897 19.3018 105.609 25.0257L102.589 85.3395C102.488 87.4076 100.717 89.0031 98.6348 88.8986Z" fill="#233863"/>
<path d="M96.0313 88.8986L55.5283 86.8886C53.6291 86.7957 52.1657 85.1846 52.2591 83.2947L55.2948 22.6594C55.5828 16.9356 60.4749 12.5284 66.2271 12.815L93.1123 14.1472C98.8646 14.4338 103.294 19.3018 103.006 25.0257L99.9854 85.3395C99.8804 87.4076 98.1095 89.0031 96.0313 88.8986Z" fill="white"/>
<path d="M96.2225 89.4835C96.1485 89.4835 96.0785 89.4835 96.0045 89.4796L55.5015 87.4697C53.2832 87.3612 51.5668 85.4752 51.6758 83.2639L54.7115 22.6286C54.8594 19.7047 56.1398 17.017 58.3193 15.0536C60.4987 13.0901 63.3243 12.0909 66.2549 12.2342L93.1401 13.5664C99.2037 13.8685 103.89 19.0192 103.586 25.053L100.566 85.3668C100.453 87.6788 98.5226 89.4835 96.2225 89.4835ZM96.059 88.3178C97.8298 88.4069 99.3126 87.0553 99.4021 85.3087L102.422 24.9949C102.691 19.6002 98.5031 14.9955 93.0817 14.7244L66.1965 13.3922C63.5695 13.2605 61.0514 14.1551 59.1016 15.9133C57.1517 17.6677 56.0075 20.0726 55.8752 22.6867L52.8395 83.322C52.7617 84.8904 53.9798 86.2304 55.556 86.3079L96.059 88.3178Z" fill="#233863"/>
<path d="M92.6308 14.1358V14.1242L54.3073 12.2227C49.8978 12.0019 46.1343 15.5377 45.9047 20.1153L45.7451 23.2638L84.5006 25.1847L84.6602 22.0362C84.882 17.6135 88.4081 14.1629 92.6308 14.1358Z" fill="white"/>
<path d="M84.5041 25.7695C84.4963 25.7695 84.4846 25.7695 84.4768 25.7695L45.7213 23.8486C45.3983 23.8331 45.1531 23.5581 45.1687 23.2406L45.3282 20.0921C45.445 17.7258 46.4452 15.5455 48.1421 13.9538C49.8467 12.3543 52.0457 11.5333 54.3419 11.6495L92.6654 13.551C92.821 13.5588 92.9689 13.6285 93.0701 13.7447C93.1752 13.8608 93.2258 14.0119 93.218 14.1668C93.1986 14.4727 92.9456 14.7245 92.6381 14.7245C88.6995 14.7477 85.4537 17.9775 85.2513 22.0749L85.0917 25.2234C85.084 25.3783 85.0139 25.5216 84.901 25.6262C84.7882 25.7153 84.6481 25.7695 84.5041 25.7695ZM46.3596 22.7139L83.9475 24.5767L84.076 22.0091C84.2394 18.7172 86.1192 15.9173 88.789 14.5153L54.2757 12.8036C52.2986 12.7068 50.4072 13.4116 48.936 14.7942C47.461 16.1806 46.5892 18.0821 46.4841 20.1463L46.3596 22.7139Z" fill="#233863"/>
<g opacity="0.11">
<path opacity="0.11" d="M92.6308 14.1358V14.1242L54.3073 12.2227C49.8978 12.0019 46.1343 15.5377 45.9047 20.1153L45.7451 23.2638L84.5006 25.1847L84.6602 22.0362C84.882 17.6135 88.4081 14.1629 92.6308 14.1358Z" fill="#233863"/>
</g>
<path d="M73.86 30.8703C73.8483 30.8703 73.8405 30.8703 73.8289 30.8703L64.0602 30.3862C63.7372 30.3707 63.492 30.0957 63.5075 29.7782C63.5231 29.4567 63.8072 29.2127 64.1186 29.2282L73.8872 29.7123C74.2103 29.7278 74.4555 30.0028 74.4399 30.3203C74.4282 30.6302 74.1675 30.8703 73.86 30.8703Z" fill="#233863"/>
<path d="M96.0123 32.2486C96.0006 32.2486 95.9929 32.2486 95.9812 32.2486L86.2125 31.7645C85.8895 31.749 85.6443 31.474 85.6599 31.1565C85.6754 30.835 85.9596 30.5872 86.2709 30.6065L96.0396 31.0906C96.3626 31.1061 96.6078 31.3811 96.5922 31.6986C96.5766 32.0085 96.3198 32.2486 96.0123 32.2486Z" fill="#233863"/>
<path d="M82.9201 42.6894C82.9124 42.6894 82.9046 42.6894 82.8929 42.6894L63.4918 41.8452C63.1688 41.8297 62.9197 41.5586 62.9353 41.241C62.9508 40.9196 63.2077 40.6717 63.5424 40.6872L82.9435 41.5315C83.2665 41.547 83.5156 41.8181 83.5 42.1356C83.4884 42.4454 83.2315 42.6894 82.9201 42.6894Z" fill="#233863"/>
<path d="M71.0658 48.6108C71.0541 48.6108 71.0424 48.6108 71.0347 48.6108L62.9434 48.1616C62.6204 48.1422 62.3752 47.8711 62.3946 47.5497C62.4141 47.2283 62.6904 46.9881 63.0096 47.0036L71.1008 47.4529C71.4238 47.4722 71.669 47.7433 71.6496 48.0648C71.6301 48.3707 71.3733 48.6108 71.0658 48.6108Z" fill="#233863"/>
<path d="M77.7362 36.8099C77.7246 36.8099 77.7168 36.8099 77.7051 36.8099L63.776 36.1206C63.453 36.1051 63.2078 35.8301 63.2234 35.5125C63.2389 35.1911 63.5153 34.9471 63.8344 34.9626L77.7635 35.652C78.0865 35.6674 78.3317 35.9424 78.3161 36.26C78.3006 36.5698 78.0437 36.8099 77.7362 36.8099Z" fill="#233863"/>
<path d="M82.9206 37.0704C82.9089 37.0704 82.9011 37.0704 82.8895 37.0704L81.0797 36.9813C80.7567 36.9658 80.5115 36.6908 80.5271 36.3733C80.5426 36.0518 80.8034 35.804 81.1381 35.8233L82.9478 35.9124C83.2709 35.9279 83.5161 36.2029 83.5005 36.5204C83.4849 36.8264 83.2281 37.0704 82.9206 37.0704Z" fill="#233863"/>
<path d="M96.2421 46.3335C96.1954 47.3907 95.7284 48.3899 94.9694 49.1025C94.4596 49.5943 93.8525 49.9274 93.1714 50.0939L93.1403 50.8646C93.1247 51.2325 92.9729 51.5733 92.7121 51.8211C92.4514 52.069 92.105 52.2007 91.7353 52.1852C91.3383 52.1697 91.0036 52.007 90.7545 51.7398C90.5054 51.4726 90.3653 51.1163 90.3809 50.7484L90.4081 50.1249L89.1238 50.0707C88.5439 50.0474 88.0691 49.8422 87.75 49.5246C87.4386 49.207 87.2829 48.7694 87.3024 48.2621C87.3452 47.2629 88.0419 46.7866 89.26 46.8369L92.2957 46.9647C92.4164 46.9686 92.5837 46.9299 92.7083 46.8369C92.8717 46.7246 92.9495 46.5697 92.9573 46.3877C92.969 46.1205 92.8756 45.9423 92.6771 45.8339C92.5759 45.7835 92.5137 45.7642 92.4669 45.7526C92.4047 45.7409 92.3658 45.7293 92.3658 45.7293L90.918 45.6674C89.9139 45.5977 88.9993 45.1639 88.3532 44.4823C87.7072 43.793 87.3491 42.8945 87.3919 41.8953C87.4347 40.8574 87.9212 39.8776 88.6918 39.1728C89.3067 38.6113 90.089 38.2472 90.918 38.1465L90.9413 37.6315C90.9569 37.2558 91.1087 36.9382 91.3967 36.6749C91.6769 36.4193 92.0116 36.2954 92.4008 36.3109C92.7588 36.3264 93.0974 36.489 93.3426 36.7562C93.5995 37.0428 93.7124 37.3681 93.6968 37.7476L93.6773 38.2085L94.1677 38.2279C95.3781 38.2782 96.0631 38.8862 96.0203 39.8893C95.9735 40.9891 95.238 41.5468 94.0276 41.4964L91.1943 41.3764C90.8713 41.3609 90.6494 41.5661 90.6378 41.8605C90.6261 42.1625 90.7818 42.4181 91.0464 42.4298L92.4397 42.4879C93.5178 42.5343 94.4985 42.9526 95.1991 43.6458C95.9113 44.3351 96.2849 45.2801 96.2421 46.3335Z" fill="#233863" stroke="white" stroke-width="2" stroke-miterlimit="10"/>
<path d="M46.4883 20.1465L54.7858 20.4834" stroke="#233863" stroke-width="3" stroke-miterlimit="10" stroke-linecap="round"/>
<path d="M19.416 52.3866L51.0416 94.6574L78.1525 74.5696L45.9315 31.501L45.6513 36.2877L41.2029 35.2382L40.9382 39.7809L36.7233 38.7856L36.4703 43.1695L32.3371 42.1936L32.088 46.4962L27.9548 45.5164L27.7291 49.4123L23.195 48.3435L22.9226 53.0488L19.416 52.3866Z" fill="#3AAED5"/>
<path d="M51.0419 95.2385C51.0146 95.2385 50.9874 95.2385 50.9563 95.2307C50.8045 95.2075 50.6644 95.1262 50.571 95.0022L18.9493 52.7353C18.8053 52.5417 18.7936 52.2822 18.9221 52.0808C19.0505 51.8794 19.2879 51.7749 19.5253 51.8175L22.3781 52.3596L22.6116 48.3126C22.6233 48.1422 22.7089 47.9835 22.8451 47.8789C22.9813 47.7743 23.1603 47.7395 23.3277 47.7782L27.1807 48.6883L27.3675 45.4855C27.3792 45.3151 27.4648 45.1564 27.601 45.0518C27.7372 44.9511 27.9162 44.9124 28.0836 44.9511L31.5396 45.7683L31.7498 42.1589C31.7614 41.9885 31.8471 41.8297 31.9833 41.7251C32.1195 41.6206 32.2985 41.5857 32.4659 41.6244L35.9219 42.4416L36.1359 38.7509C36.1476 38.5805 36.2332 38.4217 36.3694 38.3171C36.5057 38.2126 36.6847 38.1777 36.852 38.2164L40.3859 39.0529L40.6116 35.1996C40.6233 35.0292 40.7089 34.8704 40.8451 34.7658C40.9813 34.6613 41.1604 34.6264 41.3277 34.6651L45.1029 35.5559L45.3403 31.4585C45.3558 31.2145 45.5193 31.0054 45.7567 30.9357C45.9902 30.866 46.2471 30.9473 46.3911 31.1448L78.6121 74.2134C78.8067 74.469 78.7522 74.8331 78.4914 75.0267L51.3766 95.1107C51.2871 95.1959 51.1664 95.2385 51.0419 95.2385ZM20.7785 53.2349L51.1586 93.8404L77.3355 74.4497L46.4222 33.1277L46.2354 36.3227C46.2237 36.4931 46.1381 36.6519 46.0019 36.7564C45.8618 36.861 45.6866 36.8958 45.5193 36.8571L41.7442 35.9664L41.5184 39.8197C41.5067 39.9901 41.4211 40.1489 41.2849 40.2535C41.1448 40.3581 40.9697 40.3929 40.8023 40.3542L37.2685 39.5177L37.0544 43.2084C37.0427 43.3788 36.9571 43.5376 36.8209 43.6421C36.6847 43.7428 36.5057 43.7815 36.3383 43.7428L32.8823 42.9257L32.6721 46.5351C32.6605 46.7055 32.5748 46.8642 32.4386 46.9688C32.2985 47.0695 32.1234 47.1082 31.956 47.0695L28.5 46.2523L28.3132 49.4551C28.3015 49.6255 28.2159 49.7843 28.0797 49.8888C27.9435 49.9934 27.7645 50.0283 27.5971 49.9895L23.7402 49.0678L23.5067 53.0838C23.4989 53.2504 23.4172 53.4053 23.2849 53.5098C23.1526 53.6144 22.9813 53.6531 22.8179 53.6221L20.7785 53.2349Z" fill="#233863"/>
<path d="M29.0915 58.3781C28.9125 58.3781 28.7374 58.2968 28.6245 58.1458C28.4299 57.8902 28.4844 57.5261 28.7452 57.3325L37.0816 51.1555C37.3385 50.9657 37.7043 51.0161 37.8989 51.2755C38.0935 51.5311 38.039 51.8952 37.7783 52.0888L29.4418 58.2658C29.3367 58.3433 29.2161 58.3781 29.0915 58.3781Z" fill="white"/>
<path d="M31.5593 61.6771C31.3803 61.6771 31.2052 61.5958 31.0923 61.4447C30.8977 61.1891 30.9522 60.8251 31.2129 60.6314L46.5392 49.2805C46.7961 49.0907 47.1619 49.1411 47.3565 49.4005C47.5511 49.6561 47.4966 50.0202 47.2359 50.2138L31.9096 61.5648C31.8045 61.6384 31.6839 61.6771 31.5593 61.6771Z" fill="#233863"/>
<path d="M48.5437 49.0942C48.3647 49.0942 48.1895 49.0129 48.0767 48.8618C47.8821 48.6062 47.9366 48.2422 48.1973 48.0486L50.2484 46.5266C50.5052 46.3368 50.8711 46.3872 51.0657 46.6466C51.2603 46.9022 51.2058 47.2663 50.945 47.4599L48.894 48.9819C48.7889 49.0593 48.6644 49.0942 48.5437 49.0942Z" fill="white"/>
<path d="M35.1121 66.4258C34.933 66.4258 34.7579 66.3444 34.645 66.1934C34.4504 65.9378 34.5049 65.5738 34.7657 65.3801L40.3973 61.2092C40.6541 61.0194 41.0239 61.0698 41.2146 61.3293C41.4092 61.5849 41.3547 61.9489 41.0939 62.1425L35.4623 66.3134C35.3572 66.387 35.2327 66.4258 35.1121 66.4258Z" fill="#233863"/>
<path d="M43.1765 60.4501C42.9975 60.4501 42.8223 60.3688 42.7095 60.2177C42.5149 59.9621 42.5694 59.5981 42.8301 59.4045L53.8014 51.2756C54.0583 51.0858 54.4241 51.1362 54.6187 51.3957C54.8133 51.6513 54.7588 52.0153 54.498 52.2089L43.5268 60.3378C43.4178 60.4152 43.2972 60.4501 43.1765 60.4501Z" fill="#233863"/>
<path d="M40.3279 73.3963C40.1489 73.3963 39.9737 73.315 39.8608 73.1639C39.6663 72.9083 39.7207 72.5443 39.9815 72.3507L52.3383 63.1955C52.5951 63.0058 52.961 63.0561 53.1556 63.3156C53.3502 63.5712 53.2957 63.9352 53.0349 64.1289L40.6781 73.284C40.5692 73.3576 40.4485 73.3963 40.3279 73.3963Z" fill="white"/>
<path d="M58.6541 70.1861C58.475 70.1861 58.2999 70.1047 58.187 69.9537C57.9924 69.6981 58.0469 69.3341 58.3077 69.1404L64.0054 64.9192C64.2623 64.7294 64.632 64.7797 64.8227 65.0392C65.0173 65.2948 64.9628 65.6588 64.702 65.8525L59.0043 70.0738C58.8953 70.1473 58.7747 70.1861 58.6541 70.1861Z" fill="#233863"/>
<path d="M62.1222 44.4862L58.1836 75.9172L82.2277 78.9031L86.2403 46.8756L83.765 48.7926L81.9358 46.4535L79.5812 48.2737L77.8493 46.0585L75.5804 47.8167L73.8835 45.6441L71.6573 47.3675L69.9566 45.1949L67.9406 46.7556L66.0764 44.3739L63.6439 46.2599L62.1533 44.3545" fill="#FFB44F"/>
<path d="M82.2278 79.4845C82.2044 79.4845 82.1811 79.4845 82.1538 79.4806L58.1058 76.4986C57.7867 76.4599 57.5571 76.1694 57.5999 75.8519L61.5385 44.417C61.5424 44.3705 61.554 44.3279 61.5696 44.2892C61.5891 44.142 61.663 43.9987 61.7914 43.898C62.0444 43.7005 62.4102 43.747 62.6087 43.9987L63.7413 45.4471L65.7184 43.9174C65.839 43.8244 65.9947 43.7818 66.1504 43.8012C66.3021 43.8206 66.4423 43.898 66.5396 44.0219L68.0457 45.9467L69.6025 44.7423C69.8554 44.5448 70.2213 44.5912 70.4198 44.843L71.7625 46.5586L73.5294 45.1915C73.7824 44.994 74.1482 45.0405 74.3467 45.2922L75.6894 47.0078L77.4952 45.6098C77.7482 45.4122 78.1141 45.4587 78.3125 45.7104L79.6864 47.4687L81.5778 46.0048C81.8308 45.8073 82.1967 45.8537 82.3951 46.1055L83.8663 47.9876L85.8823 46.4269C86.0691 46.2836 86.3221 46.2642 86.5283 46.3804C86.7346 46.4966 86.8475 46.7251 86.8202 46.9575L82.8077 78.9849C82.7882 79.1359 82.7104 79.2754 82.5858 79.3722C82.4847 79.4419 82.3601 79.4845 82.2278 79.4845ZM58.8336 75.4142L81.7218 78.253L85.4892 48.1929L84.1231 49.2501C83.8702 49.4476 83.5004 49.4012 83.3058 49.1494L81.8347 47.2673L79.9433 48.7312C79.6903 48.9287 79.3205 48.8822 79.1259 48.6305L77.7521 46.8723L75.9463 48.2703C75.8256 48.3633 75.6699 48.4097 75.5143 48.3865C75.3625 48.3671 75.2224 48.2897 75.1251 48.1658L73.7824 46.4501L72.0155 47.8172C71.7625 48.0147 71.3928 47.9682 71.1982 47.7165L69.8555 46.0009L68.2987 47.2053C68.178 47.2983 68.0224 47.3447 67.8667 47.3215C67.7149 47.3021 67.5748 47.2247 67.4775 47.1008L65.9713 45.176L63.9943 46.7057C63.7413 46.9032 63.3715 46.8568 63.177 46.605L62.5387 45.7879L58.8336 75.4142Z" fill="#233863"/>
<path d="M71.9725 52.2092C71.9569 52.2092 71.9414 52.2092 71.9219 52.2053L64.5273 51.2875C64.3133 51.2604 64.1615 51.0667 64.1887 50.8537C64.216 50.6407 64.4106 50.4897 64.6246 50.5168L72.0192 51.4346C72.2333 51.4618 72.3851 51.6554 72.3578 51.8684C72.3345 52.0659 72.1632 52.2092 71.9725 52.2092Z" fill="white"/>
<path d="M77.8608 55.4311C77.8452 55.4311 77.8297 55.4311 77.8102 55.4272L64.2197 53.7426C64.0056 53.7155 63.8538 53.5218 63.8811 53.3088C63.9083 53.0958 64.099 52.9448 64.317 52.9719L77.9075 54.6565C78.1215 54.6836 78.2733 54.8773 78.2461 55.0903C78.2227 55.2878 78.0554 55.4311 77.8608 55.4311Z" fill="#233863"/>
<path d="M81.1542 55.8373C81.1386 55.8373 81.1231 55.8373 81.1036 55.8334L79.2822 55.6088C79.0681 55.5817 78.9163 55.388 78.9436 55.175C78.9708 54.962 79.1615 54.811 79.3795 54.8381L81.2009 55.0627C81.415 55.0898 81.5667 55.2835 81.5395 55.4965C81.5161 55.694 81.3488 55.8373 81.1542 55.8373Z" fill="white"/>
<path d="M68.8241 57.8944C68.8086 57.8944 68.793 57.8944 68.7735 57.8905L63.7802 57.2709C63.5662 57.2438 63.4144 57.0501 63.4416 56.8371C63.4689 56.6241 63.6635 56.4731 63.8775 56.5002L68.8708 57.1199C69.0849 57.147 69.2367 57.3406 69.2094 57.5536C69.1822 57.7511 69.0148 57.8944 68.8241 57.8944Z" fill="#233863"/>
<path d="M80.71 59.3659C80.6944 59.3659 80.6788 59.3659 80.6594 59.362L70.9296 58.1537C70.7156 58.1266 70.5638 57.933 70.5911 57.72C70.6183 57.507 70.8129 57.3559 71.0269 57.383L80.7567 58.5913C80.9707 58.6184 81.1225 58.8121 81.0953 59.0251C81.0719 59.2226 80.9046 59.3659 80.71 59.3659Z" fill="#233863"/>
<path d="M74.1361 63.8157C74.1206 63.8157 74.105 63.8157 74.0855 63.8118L63.1259 62.4525C62.9119 62.4254 62.7601 62.2318 62.7873 62.0188C62.8146 61.8058 63.0053 61.6547 63.2232 61.6819L74.1828 63.0412C74.3969 63.0683 74.5487 63.2619 74.5214 63.4749C74.4981 63.6724 74.3307 63.8157 74.1361 63.8157Z" fill="#233863"/>
<path d="M79.4414 69.7055C79.418 69.7055 79.3947 69.7055 79.3674 69.7016L74.3119 69.0743C73.9927 69.0355 73.7631 68.7451 73.8059 68.4275C73.8448 68.1099 74.1328 67.8815 74.4559 67.9241L79.5115 68.5476C79.8306 68.5863 80.0602 68.8767 80.0174 69.1943C79.9824 69.4886 79.7294 69.7055 79.4414 69.7055Z" fill="#233863"/>
<path d="M127.102 102.628L64.3135 117.712C62.3365 118.188 60.3438 116.976 59.869 115.009L49.8785 73.8263C49.3998 71.859 50.618 69.8761 52.595 69.4037L115.383 54.3194C117.36 53.843 119.353 55.0552 119.828 57.0226L129.818 98.2051C130.293 100.172 129.079 102.155 127.102 102.628Z" fill="#3D85FD"/>
<path d="M63.4378 118.398C62.6633 118.398 61.9005 118.185 61.2194 117.774C60.2464 117.181 59.5653 116.248 59.2968 115.148L49.3063 73.9657C48.7536 71.6886 50.1664 69.392 52.4548 68.8421L115.243 53.7579C117.527 53.2079 119.839 54.6137 120.392 56.8909L130.382 98.0735C130.935 100.351 129.522 102.647 127.234 103.197L64.4497 118.277C64.115 118.359 63.7764 118.398 63.4378 118.398ZM116.243 54.7996C116.002 54.7996 115.76 54.8267 115.515 54.8848L52.7273 69.9691C51.0654 70.368 50.0419 72.0371 50.4427 73.6908L60.4332 114.873C60.6278 115.675 61.1221 116.353 61.8304 116.783C62.5387 117.212 63.3716 117.344 64.1733 117.151L126.961 102.066C128.623 101.667 129.651 99.9982 129.25 98.3445L119.259 57.162C118.917 55.7484 117.644 54.7996 116.243 54.7996Z" fill="#233863"/>
<path opacity="0.36" d="M107.876 55.4501L89.4241 59.927L93.713 77.4317C94.2695 79.7011 92.3197 82.1255 89.3541 82.8458C83.7264 84.209 80.0252 88.8137 81.0799 93.124C81.5275 94.9481 79.959 96.896 77.5772 97.4731C70.9337 99.0841 66.5553 104.521 67.8046 109.614L69.4937 116.508L125.86 102.833C128.647 102.155 130.355 99.363 129.674 96.5862L120.33 58.4476C119.563 55.3107 116.383 53.386 113.231 54.1528L107.876 55.4501Z" fill="#233863"/>
<path d="M74.0006 94.5924L65.4734 96.6605C65.2594 96.7108 65.0453 96.583 64.9947 96.37L64.5589 94.5924C64.5083 94.3794 64.6367 94.1664 64.8507 94.1161L73.3779 92.0481C73.5919 91.9977 73.806 92.1255 73.8566 92.3385L74.2925 94.1161C74.347 94.3252 74.2147 94.5382 74.0006 94.5924Z" fill="#233863"/>
<path d="M84.9283 91.9391L76.4012 94.0072C76.1871 94.0575 75.9731 93.9297 75.9225 93.7167L75.4866 91.9391C75.436 91.7261 75.5644 91.5131 75.7785 91.4628L84.3056 89.3947C84.5197 89.3444 84.7337 89.4722 84.7843 89.6852L85.2202 91.4628C85.2747 91.6719 85.1424 91.8888 84.9283 91.9391Z" fill="#233863"/>
<path d="M95.6236 89.3444L87.0965 91.4124C86.8824 91.4628 86.6684 91.335 86.6178 91.122L86.1819 89.3444C86.1313 89.1314 86.2597 88.9184 86.4738 88.868L95.0009 86.8C95.215 86.7497 95.429 86.8775 95.4796 87.0905L95.9155 88.868C95.97 89.0772 95.8377 89.294 95.6236 89.3444Z" fill="#233863"/>
<path d="M106.319 86.7497L97.7918 88.8177C97.5778 88.8681 97.3637 88.7403 97.3131 88.5273L96.8772 86.7497C96.8266 86.5367 96.9551 86.3237 97.1691 86.2733L105.696 84.2053C105.91 84.1549 106.124 84.2827 106.175 84.4957L106.611 86.2733C106.665 86.4825 106.533 86.6993 106.319 86.7497Z" fill="#233863"/>
<path d="M73.7208 100.889L66.6999 102.593C66.4858 102.644 66.2717 102.516 66.2211 102.303L66.0071 101.428C65.9565 101.215 66.0849 101.002 66.299 100.951L73.32 99.2473C73.534 99.1969 73.7481 99.3247 73.7987 99.5377L74.0127 100.413C74.0672 100.622 73.9349 100.839 73.7208 100.889Z" fill="white"/>
<path d="M114.344 62.0034L107.214 63.1729C106.996 63.2078 106.794 63.0645 106.759 62.8476L106.611 61.9569C106.576 61.74 106.723 61.5386 106.938 61.5038L114.067 60.3342C114.285 60.2994 114.488 60.4465 114.523 60.6595L114.671 61.5502C114.706 61.7632 114.558 61.9685 114.344 62.0034Z" fill="white"/>
<path d="M88.2527 68.8927L60.0598 75.7319C59.7718 75.8016 59.4838 75.6273 59.4138 75.3408L59.1258 74.1635C59.0557 73.8769 59.2309 73.5903 59.5189 73.5206L87.7118 66.6814C87.9998 66.6117 88.2878 66.7859 88.3578 67.0725L88.6458 68.2498C88.7159 68.5364 88.5407 68.823 88.2527 68.8927Z" fill="white"/>
<path d="M83.6681 98.4342L76.6471 100.138C76.4331 100.189 76.219 100.061 76.1684 99.8478L75.9544 98.9725C75.9038 98.7595 76.0322 98.5465 76.2463 98.4962L83.2672 96.7922C83.4813 96.7419 83.6953 96.8697 83.7459 97.0827L83.96 97.9579C84.0106 98.167 83.8822 98.38 83.6681 98.4342Z" fill="white"/>
<path d="M93.3702 96.1569L86.3493 97.8609C86.1352 97.9112 85.9212 97.7834 85.8706 97.5704L85.6565 96.6952C85.6059 96.4822 85.7343 96.2692 85.9484 96.2189L92.9694 94.5149C93.1834 94.4645 93.3975 94.5923 93.4481 94.8053L93.6621 95.6805C93.7127 95.8897 93.5843 96.1027 93.3702 96.1569Z" fill="white"/>
<path d="M74.7247 105.998L67.7038 107.702C67.4897 107.752 67.2757 107.624 67.2251 107.411L67.011 106.536C66.9604 106.323 67.0888 106.11 67.3029 106.06L74.3239 104.356C74.5379 104.305 74.752 104.433 74.8026 104.646L75.0166 105.521C75.0711 105.73 74.9388 105.943 74.7247 105.998Z" fill="#FFB44F"/>
<path d="M74.6661 86.9351L64.3993 89.402C63.8311 89.5376 63.259 89.189 63.1228 88.6275L62.3755 85.5525L61.6905 82.7293C61.5543 82.1639 61.9046 81.5946 62.4689 81.4591L72.7357 78.9921C73.304 78.8566 73.8761 79.2051 74.0123 79.7667L75.4445 85.6649C75.5807 86.2303 75.2343 86.7957 74.6661 86.9351Z" fill="#FFB44F"/>
<path d="M61.7372 86.335C61.4765 86.335 61.2391 86.1608 61.1729 85.8974C61.0951 85.5876 61.2819 85.27 61.5971 85.1926L74.5377 81.9472C74.849 81.8698 75.1682 82.0557 75.246 82.3694C75.3238 82.6792 75.137 82.9967 74.8218 83.0742L61.8812 86.3157C61.8345 86.3273 61.7839 86.335 61.7372 86.335Z" fill="#3D85FD"/>
<path d="M70.405 83.8993C70.5101 84.9798 69.7161 85.9363 68.6303 86.0409C67.5445 86.1454 66.5832 85.3554 66.4781 84.2749C66.373 83.1944 67.167 82.2379 68.2528 82.1333C69.3386 82.0288 70.2999 82.8188 70.405 83.8993Z" fill="#FFB44F"/>
<path d="M68.4394 86.6292C67.1396 86.6292 66.0265 85.6417 65.898 84.3288C65.8319 83.6511 66.0342 82.9927 66.4701 82.466C66.906 81.9432 67.5171 81.6179 68.1981 81.5521C69.5992 81.4165 70.8524 82.4428 70.9886 83.8409C71.1249 85.235 70.0935 86.4821 68.6885 86.6176C68.6029 86.6254 68.5212 86.6292 68.4394 86.6292ZM68.4433 82.7061C68.3966 82.7061 68.3538 82.71 68.3071 82.7139C67.9374 82.7487 67.6066 82.9269 67.3692 83.2096C67.1318 83.4962 67.0228 83.8525 67.0578 84.2204C67.1318 84.9794 67.809 85.5371 68.5718 85.4635C68.9415 85.4287 69.2723 85.2505 69.5097 84.9678C69.7471 84.6812 69.8561 84.3249 69.8211 83.957C69.786 83.5891 69.607 83.2599 69.3229 83.0237C69.0738 82.8146 68.7664 82.7061 68.4433 82.7061Z" fill="#3D85FD"/>
<path d="M113.963 95.8931C113.659 94.8242 113.846 93.736 114.391 92.8607C113.566 92.4463 112.589 92.3263 111.631 92.5974C109.6 93.1705 108.421 95.2773 108.997 97.2989C109.573 99.3204 111.69 100.494 113.721 99.9207C114.679 99.6496 115.445 99.0377 115.928 98.2554C115.002 97.7868 114.266 96.9619 113.963 95.8931Z" fill="white"/>
<path d="M117.901 90.8387C116.944 91.1098 116.177 91.7217 115.694 92.504C115.154 93.3792 114.963 94.4713 115.266 95.5363C115.57 96.6052 116.306 97.4339 117.232 97.8948C118.057 98.3092 119.034 98.4292 119.991 98.1581C122.023 97.585 123.202 95.4782 122.626 93.4566C122.05 91.439 119.933 90.2655 117.901 90.8387Z" fill="#FFB44F"/>
<path d="M120.501 23.5459C120.548 23.453 120.618 23.3716 120.715 23.3136L127.055 19.5841C127.316 19.4292 127.654 19.5183 127.81 19.7778C127.966 20.0411 127.876 20.3742 127.615 20.5291L121.276 24.2585C121.015 24.4134 120.676 24.3243 120.521 24.0649C120.423 23.9022 120.419 23.7047 120.501 23.5459Z" fill="#233863"/>
<path d="M116.188 22.5349C116.18 22.4613 116.184 22.3839 116.211 22.3103L119.263 12.5626C119.352 12.2722 119.664 12.1134 119.952 12.2025C120.243 12.2915 120.403 12.6014 120.314 12.8879L117.262 22.6356C117.173 22.926 116.861 23.0848 116.573 22.9958C116.355 22.9299 116.211 22.744 116.188 22.5349Z" fill="#233863"/>
<path d="M105.618 13.399C105.498 13.1356 105.603 12.8219 105.86 12.6825C106.128 12.5392 106.463 12.6438 106.603 12.911L111.822 22.74C111.958 23.0188 111.861 23.3403 111.592 23.4797C111.324 23.623 110.989 23.5184 110.849 23.2512L105.63 13.4222C105.626 13.4183 105.622 13.4067 105.618 13.399Z" fill="#233863"/>
<path d="M90.0039 143.181C89.9572 143.259 89.8872 143.321 89.7977 143.36L84.0065 146.009C83.7652 146.117 83.485 146.012 83.3722 145.776C83.2632 145.536 83.3683 145.257 83.6057 145.145L89.3968 142.496C89.6381 142.388 89.9183 142.492 90.0312 142.728C90.1012 142.883 90.0857 143.054 90.0039 143.181Z" fill="#233863"/>
<path d="M93.6227 144.437C93.6227 144.503 93.611 144.565 93.5838 144.63L90.081 152.748C89.976 152.988 89.6958 153.1 89.4545 152.996C89.2132 152.891 89.1003 152.612 89.2054 152.372L92.7081 144.255C92.8132 144.015 93.0934 143.902 93.3347 144.007C93.5137 144.081 93.6227 144.255 93.6227 144.437Z" fill="#233863"/>
<path d="M101.902 153.238C101.983 153.475 101.867 153.738 101.629 153.831C101.384 153.928 101.108 153.812 101.007 153.568L97.3949 144.645C97.3015 144.393 97.4144 144.126 97.6596 144.025C97.9048 143.928 98.1811 144.045 98.2823 144.289L101.894 153.211C101.898 153.223 101.902 153.231 101.902 153.238Z" fill="#233863"/>
<path d="M29.4185 86.5741L29.1538 79.9092L40.6894 90.5824L30.0295 102.123L29.7648 95.4582C29.7648 95.4582 19.8094 93.4676 13.524 104.993C13.524 104.993 11.5041 96.4651 18.7819 89.9434C18.7819 89.9395 22.0628 86.64 29.4185 86.5741Z" fill="#FFB44F"/>
<path d="M13.5277 105.57C13.5004 105.57 13.4771 105.57 13.4498 105.566C13.2085 105.535 13.0139 105.357 12.9595 105.125C12.94 105.036 10.9473 96.1825 18.3925 89.5137C18.5054 89.3975 21.724 86.2413 28.8112 86.0089L28.5699 79.9326C28.5621 79.6964 28.6944 79.4795 28.9085 79.3827C29.1225 79.2859 29.3755 79.3246 29.5506 79.4834L41.0862 90.1566C41.3197 90.3735 41.3353 90.7414 41.1173 90.9737L30.4574 102.514C30.2979 102.689 30.0488 102.747 29.8269 102.665C29.6051 102.584 29.4533 102.379 29.4455 102.143L29.2003 95.9579C27.2233 95.7333 19.3538 95.5164 14.0375 105.264C13.9363 105.454 13.7378 105.57 13.5277 105.57ZM29.7958 81.2919L30.0021 86.5511C30.0099 86.7099 29.9515 86.8609 29.8425 86.9732C29.7335 87.0855 29.5818 87.1514 29.4261 87.1514C22.3934 87.2133 19.2332 90.3154 19.2021 90.3463C14.127 94.8929 13.7339 100.497 13.8974 103.215C20.3385 93.1115 29.788 94.8619 29.8853 94.8813C30.15 94.9355 30.3446 95.1601 30.3523 95.4274L30.5586 100.69L39.868 90.6136L29.7958 81.2919Z" fill="#233863"/>
<path d="M147.375 109.404L147.188 116.073L136.396 104.656L147.807 93.851L147.62 100.52C147.62 100.52 157.42 103.169 164.468 92.0889C164.468 92.0889 165.908 100.733 158.21 106.755C158.21 106.755 154.715 109.83 147.375 109.404Z" fill="#FFB44F"/>
<path d="M147.187 116.654C147.028 116.654 146.876 116.592 146.763 116.472L135.971 105.055C135.749 104.823 135.761 104.455 135.994 104.238L147.405 93.4328C147.576 93.2702 147.829 93.2276 148.044 93.3244C148.258 93.4212 148.398 93.6342 148.39 93.8705L148.219 100.055C150.172 100.411 158.011 101.151 163.977 91.7792C164.105 91.5778 164.347 91.4732 164.588 91.5197C164.825 91.5662 165.008 91.756 165.047 91.9922C165.063 92.0813 166.452 101.047 158.575 107.208C158.454 107.317 155.033 110.252 147.942 110.012L147.771 116.088C147.763 116.325 147.615 116.53 147.394 116.615C147.327 116.642 147.257 116.654 147.187 116.654ZM137.216 104.679L146.642 114.651L146.79 109.392C146.794 109.234 146.864 109.086 146.977 108.982C147.094 108.877 147.25 108.819 147.405 108.831C154.387 109.23 157.789 106.352 157.824 106.321C163.206 102.112 163.969 96.5504 163.985 93.8317C156.878 103.486 147.565 101.112 147.468 101.085C147.207 101.016 147.028 100.776 147.036 100.508L147.183 95.2492L137.216 104.679Z" fill="#233863"/>
</g>
<defs>
<clipPath id="clip0">
<rect width="179" height="162" fill="white"/>
</clipPath>
</defs>
</svg>
