<svg width="375" height="210" viewBox="0 0 375 210" fill="none" xmlns="http://www.w3.org/2000/svg">
<rect x="-2" y="83" width="382" height="4" rx="2" fill="#EAF4FC"/>
<circle cx="86" cy="85" r="8" fill="#FF6D34"/>
<circle cx="86" cy="85" r="4" fill="#EAF4FC"/>
<circle cx="272" cy="86" r="8" fill="#FF6D34"/>
<circle cx="272" cy="86" r="4" fill="#EAF4FC"/>
<path d="M28.4093 113.552H22.9693V108.8H21.4813V120H22.9693V114.96H28.4093V120H29.8813V108.8H28.4093V113.552ZM35.8941 123.232C36.4061 123.232 36.8221 122.816 36.8221 122.304C36.8221 121.792 36.4061 121.36 35.8941 121.36C35.3661 121.36 34.9501 121.792 34.9501 122.304C34.9501 122.816 35.3661 123.232 35.8941 123.232ZM38.8861 118.992C39.7021 118.176 40.1181 117.184 40.1181 116C40.1181 114.816 39.7021 113.824 38.8861 113.008C38.0701 112.192 37.0621 111.792 35.8941 111.792C34.7261 111.792 33.7181 112.192 32.9021 113.008C32.0861 113.824 31.6861 114.816 31.6861 116C31.6861 117.184 32.0861 118.176 32.9021 118.992C33.7181 119.808 34.7261 120.208 35.8941 120.208C37.0621 120.208 38.0701 119.808 38.8861 118.992ZM35.8941 118.848C35.1101 118.848 34.4381 118.576 33.8941 118.032C33.3501 117.488 33.0781 116.816 33.0781 116C33.0781 115.184 33.3501 114.512 33.8941 113.968C34.4381 113.424 35.1101 113.152 35.8941 113.152C36.6941 113.152 37.3661 113.424 37.9101 113.968C38.4541 114.512 38.7261 115.184 38.7261 116C38.7261 116.816 38.4541 117.488 37.9101 118.032C37.3661 118.576 36.6941 118.848 35.8941 118.848ZM45.5191 120.208C47.0711 120.208 48.4311 119.392 49.1191 118.128L47.9351 117.44C47.4871 118.288 46.5911 118.832 45.5191 118.832C44.7191 118.832 44.0471 118.56 43.5031 118.016C42.9751 117.472 42.7031 116.8 42.7031 116C42.7031 115.184 42.9751 114.512 43.5031 113.968C44.0471 113.424 44.7191 113.152 45.5191 113.152C46.5911 113.152 47.4871 113.712 47.8871 114.56L49.0551 113.888C48.4311 112.608 47.1031 111.792 45.5191 111.792C44.3191 111.792 43.3111 112.192 42.5111 113.008C41.7111 113.808 41.3111 114.8 41.3111 116C41.3111 117.2 41.7111 118.192 42.5111 119.008C43.3111 119.808 44.3191 120.208 45.5191 120.208ZM57.5971 118.512L55.0851 112H53.5811L56.7811 120H58.4131L61.6131 112H60.1091L57.5971 118.512ZM63.4944 111.008C64.0064 111.008 64.4224 110.592 64.4224 110.08C64.4224 109.568 64.0064 109.136 63.4944 109.136C62.9664 109.136 62.5504 109.568 62.5504 110.08C62.5504 110.592 62.9664 111.008 63.4944 111.008ZM64.1824 120V112H62.7904V120H64.1824ZM71.074 110.944H72.562L70.866 108.784H69.33L67.634 110.944H69.122L70.098 109.648L71.074 110.944ZM73.986 116.64C74.018 116.432 74.034 116.224 74.034 116.016C74.034 114.848 73.666 113.856 72.914 113.04C72.178 112.208 71.218 111.792 70.05 111.792C68.818 111.792 67.81 112.192 67.026 112.992C66.242 113.792 65.858 114.8 65.858 116C65.858 117.216 66.258 118.224 67.042 119.024C67.842 119.808 68.882 120.208 70.146 120.208C71.714 120.208 72.882 119.6 73.666 118.4L72.482 117.728C72.002 118.512 71.234 118.896 70.178 118.896C68.658 118.896 67.554 118.064 67.282 116.64H73.986ZM70.05 113.104C71.33 113.104 72.386 113.904 72.626 115.424H67.282C67.522 114.016 68.562 113.104 70.05 113.104ZM79.6181 111.792C78.4501 111.792 77.5861 112.24 77.0261 113.152V112H75.6341V120H77.0261V115.76C77.0261 113.968 77.9541 113.12 79.3461 113.12C80.5781 113.12 81.3301 113.872 81.3301 115.168V120H82.7221V115.088C82.7221 113.056 81.4901 111.792 79.6181 111.792ZM90.0574 120V108.32H88.6654V120H90.0574ZM95.189 123.232C95.701 123.232 96.117 122.816 96.117 122.304C96.117 121.792 95.701 121.36 95.189 121.36C94.661 121.36 94.245 121.792 94.245 122.304C94.245 122.816 94.661 123.232 95.189 123.232ZM99.157 111.008C99.157 111.712 99.045 112 98.341 112H97.701V116.24C97.701 118.032 96.773 118.88 95.381 118.88C94.149 118.88 93.397 118.128 93.397 116.832V112H92.005V116.912C92.005 118.944 93.237 120.208 95.109 120.208C96.277 120.208 97.141 119.76 97.701 118.848V120H99.093V113.008C100.069 112.816 100.389 112.16 100.389 111.008V110.816H99.157V111.008ZM107.836 113.376C107.148 112.32 106.14 111.792 104.812 111.792C103.692 111.792 102.732 112.208 101.948 113.024C101.164 113.84 100.764 114.832 100.764 116C100.764 117.168 101.164 118.176 101.948 118.992C102.732 119.808 103.692 120.208 104.812 120.208C106.14 120.208 107.148 119.68 107.836 118.624V120H109.228V112H107.836V113.376ZM104.988 118.864C104.188 118.864 103.516 118.592 102.972 118.048C102.428 117.488 102.156 116.816 102.156 116C102.156 115.184 102.428 114.512 102.972 113.968C103.516 113.408 104.188 113.136 104.988 113.136C105.804 113.136 106.476 113.408 107.02 113.968C107.564 114.512 107.836 115.184 107.836 116C107.836 116.816 107.564 117.488 107.02 118.048C106.476 118.592 105.804 118.864 104.988 118.864ZM119.097 120.208C120.649 120.208 122.009 119.392 122.697 118.128L121.513 117.44C121.065 118.288 120.169 118.832 119.097 118.832C118.297 118.832 117.625 118.56 117.081 118.016C116.553 117.472 116.281 116.8 116.281 116C116.281 115.184 116.553 114.512 117.081 113.968C117.625 113.424 118.297 113.152 119.097 113.152C120.169 113.152 121.065 113.712 121.465 114.56L122.633 113.888C122.009 112.608 120.681 111.792 119.097 111.792C117.897 111.792 116.889 112.192 116.089 113.008C115.289 113.808 114.889 114.8 114.889 116C114.889 117.2 115.289 118.192 116.089 119.008C116.889 119.808 117.897 120.208 119.097 120.208ZM128.071 111.792C126.903 111.792 126.039 112.24 125.479 113.152V108.8H124.087V120H125.479V115.76C125.479 113.968 126.407 113.12 127.799 113.12C129.031 113.12 129.783 113.872 129.783 115.168V120H131.175V115.088C131.175 113.056 129.943 111.792 128.071 111.792ZM136.879 123.232C137.391 123.232 137.807 122.816 137.807 122.304C137.807 121.792 137.391 121.36 136.879 121.36C136.351 121.36 135.935 121.792 135.935 122.304C135.935 122.816 136.351 123.232 136.879 123.232ZM139.871 118.992C140.687 118.176 141.102 117.184 141.102 116C141.102 114.816 140.687 113.824 139.871 113.008C139.055 112.192 138.047 111.792 136.879 111.792C135.711 111.792 134.703 112.192 133.887 113.008C133.071 113.824 132.671 114.816 132.671 116C132.671 117.184 133.071 118.176 133.887 118.992C134.703 119.808 135.711 120.208 136.879 120.208C138.047 120.208 139.055 119.808 139.871 118.992ZM136.879 118.848C136.095 118.848 135.423 118.576 134.879 118.032C134.335 117.488 134.062 116.816 134.062 116C134.062 115.184 134.335 114.512 134.879 113.968C135.423 113.424 136.095 113.152 136.879 113.152C137.679 113.152 138.351 113.424 138.895 113.968C139.439 114.512 139.711 115.184 139.711 116C139.711 116.816 139.439 117.488 138.895 118.032C138.351 118.576 137.679 118.848 136.879 118.848ZM146.728 111.792C145.56 111.792 144.696 112.24 144.136 113.152V112H142.743V120H144.136V115.76C144.136 113.968 145.064 113.12 146.456 113.12C147.688 113.12 148.44 113.872 148.44 115.168V120H149.832V115.088C149.832 113.056 148.6 111.792 146.728 111.792ZM29.1101 134.376C28.4221 133.32 27.4141 132.792 26.1021 132.792C24.9661 132.792 23.9901 133.192 23.2061 134.008C22.4221 134.808 22.0221 135.784 22.0221 136.952C22.0221 138.12 22.4221 139.096 23.2061 139.912C23.9901 140.728 24.9661 141.128 26.1021 141.128C27.3981 141.128 28.4061 140.6 29.1101 139.528V140.664C29.1101 142.184 28.1021 143.112 26.4381 143.112C25.1421 143.112 24.2621 142.664 23.8301 141.768L22.6141 142.456C23.2701 143.72 24.6141 144.408 26.4061 144.408C27.5261 144.408 28.4861 144.072 29.2861 143.416C30.0861 142.76 30.4861 141.848 30.4861 140.664V133H29.1101V134.376ZM29.1101 136.952C29.1101 137.768 28.8381 138.44 28.2941 138.984C27.7501 139.528 27.0781 139.8 26.2621 139.8C25.4461 139.8 24.7741 139.528 24.2301 138.984C23.6861 138.44 23.4141 137.768 23.4141 136.952C23.4141 136.152 23.6861 135.48 24.2301 134.936C24.7741 134.392 25.4461 134.12 26.2621 134.12C27.0781 134.12 27.7501 134.392 28.2941 134.936C28.8381 135.48 29.1101 136.152 29.1101 136.952ZM33.2991 132.008C33.8111 132.008 34.2271 131.592 34.2271 131.08C34.2271 130.568 33.8111 130.136 33.2991 130.136C32.7711 130.136 32.3551 130.568 32.3551 131.08C32.3551 131.592 32.7711 132.008 33.2991 132.008ZM33.9871 141V133H32.5951V141H33.9871ZM42.7347 134.376C42.0467 133.32 41.0387 132.792 39.7107 132.792C38.5907 132.792 37.6307 133.208 36.8467 134.024C36.0627 134.84 35.6627 135.832 35.6627 137C35.6627 138.168 36.0627 139.176 36.8467 139.992C37.6307 140.808 38.5907 141.208 39.7107 141.208C41.0387 141.208 42.0467 140.68 42.7347 139.624V141H44.1267V133H42.7347V134.376ZM39.8867 139.864C39.0867 139.864 38.4147 139.592 37.8707 139.048C37.3267 138.488 37.0547 137.816 37.0547 137C37.0547 136.184 37.3267 135.512 37.8707 134.968C38.4147 134.408 39.0867 134.136 39.8867 134.136C40.7027 134.136 41.3747 134.408 41.9187 134.968C42.4627 135.512 42.7347 136.184 42.7347 137C42.7347 137.816 42.4627 138.488 41.9187 139.048C41.3747 139.592 40.7027 139.864 39.8867 139.864ZM51.4357 135.16C51.4357 134.472 52.0757 134.088 52.8597 134.088C53.7077 134.088 54.2837 134.424 54.5717 135.112L55.7397 134.456C55.2277 133.416 54.1557 132.792 52.8597 132.792C52.0437 132.792 51.3717 133.016 50.8277 133.464C50.2997 133.912 50.0277 134.488 50.0277 135.176C50.0277 136.872 51.6597 137.288 52.9237 137.624C53.8037 137.832 54.5077 138.184 54.5077 138.808C54.5077 139.56 53.8357 139.896 52.9237 139.896C51.9477 139.896 51.1957 139.416 50.9397 138.648L49.7397 139.336C50.2037 140.472 51.3717 141.208 52.9237 141.208C53.8037 141.208 54.5077 140.984 55.0677 140.552C55.6277 140.12 55.9157 139.528 55.9157 138.808C55.9317 137.096 54.2677 136.632 53.0197 136.36C52.1397 136.12 51.4357 135.784 51.4357 135.16ZM64.5398 132.008C64.5398 132.712 64.4278 133 63.7238 133H63.0838V137.24C63.0838 139.032 62.1558 139.88 60.7638 139.88C59.5318 139.88 58.7798 139.128 58.7798 137.832V133H57.3878V137.912C57.3878 139.944 58.6198 141.208 60.4918 141.208C61.6598 141.208 62.5238 140.76 63.0838 139.848V141H64.4758V134.008C65.4518 133.816 65.7718 133.16 65.7718 132.008V131.816H64.5398V132.008ZM75.0111 132.792C73.6831 132.792 72.6751 133.32 71.9871 134.376V133H70.5951V144.2H71.9871V139.624C72.6751 140.68 73.6831 141.208 75.0111 141.208C76.1311 141.208 77.0911 140.808 77.8751 139.992C78.6591 139.176 79.0591 138.168 79.0591 137C79.0591 135.832 78.6591 134.84 77.8751 134.024C77.0911 133.208 76.1311 132.792 75.0111 132.792ZM74.8351 139.864C74.0191 139.864 73.3471 139.592 72.8031 139.048C72.2591 138.488 71.9871 137.816 71.9871 137C71.9871 136.184 72.2591 135.512 72.8031 134.968C73.3471 134.408 74.0191 134.136 74.8351 134.136C75.6351 134.136 76.3071 134.408 76.8511 134.968C77.3951 135.512 77.6671 136.184 77.6671 137C77.6671 137.816 77.3951 138.488 76.8511 139.048C76.3071 139.592 75.6351 139.864 74.8351 139.864ZM84.7041 132.792C83.5361 132.792 82.6721 133.24 82.1121 134.152V129.8H80.7201V141H82.1121V136.76C82.1121 134.968 83.0401 134.12 84.4321 134.12C85.6641 134.12 86.4161 134.872 86.4161 136.168V141H87.8081V136.088C87.8081 134.056 86.5761 132.792 84.7041 132.792ZM92.8873 129.8H91.2073L92.8233 131.912H94.1673L92.8873 129.8ZM95.2713 137.24C95.2713 139.032 94.3433 139.88 92.9513 139.88C91.7193 139.88 90.9673 139.128 90.9673 137.832V133H89.5753V137.912C89.5753 139.944 90.8073 141.208 92.6793 141.208C93.8473 141.208 94.7113 140.76 95.2713 139.848V141H96.6633V133H95.2713V137.24ZM106.767 132.792C105.599 132.792 104.735 133.24 104.175 134.152V129.8H102.783V141H104.175V136.76C104.175 134.968 105.103 134.12 106.495 134.12C107.727 134.12 108.479 134.872 108.479 136.168V141H109.871V136.088C109.871 134.056 108.639 132.792 106.767 132.792ZM115.574 144.232C116.086 144.232 116.502 143.816 116.502 143.304C116.502 142.792 116.086 142.36 115.574 142.36C115.046 142.36 114.63 142.792 114.63 143.304C114.63 143.816 115.046 144.232 115.574 144.232ZM118.566 139.992C119.382 139.176 119.798 138.184 119.798 137C119.798 135.816 119.382 134.824 118.566 134.008C118.534 133.992 118.518 133.976 118.502 133.944C119.27 133.688 119.542 133.048 119.542 132.008V131.816H118.31V132.008C118.31 132.712 118.198 133 117.494 133H116.95C116.518 132.856 116.054 132.792 115.574 132.792C114.406 132.792 113.398 133.192 112.582 134.008C111.766 134.824 111.366 135.816 111.366 137C111.366 138.184 111.766 139.176 112.582 139.992C113.398 140.808 114.406 141.208 115.574 141.208C116.742 141.208 117.75 140.808 118.566 139.992ZM115.574 139.848C114.79 139.848 114.118 139.576 113.574 139.032C113.03 138.488 112.758 137.816 112.758 137C112.758 136.184 113.03 135.512 113.574 134.968C114.118 134.424 114.79 134.152 115.574 134.152C116.374 134.152 117.046 134.424 117.59 134.968C118.134 135.512 118.406 136.184 118.406 137C118.406 137.816 118.134 138.488 117.59 139.032C117.046 139.576 116.374 139.848 115.574 139.848ZM125.855 132.792C124.527 132.792 123.519 133.32 122.831 134.376V133H121.439V144.2H122.831V139.624C123.519 140.68 124.527 141.208 125.855 141.208C126.975 141.208 127.935 140.808 128.719 139.992C129.503 139.176 129.903 138.168 129.903 137C129.903 135.832 129.503 134.84 128.719 134.024C127.935 133.208 126.975 132.792 125.855 132.792ZM125.679 139.864C124.863 139.864 124.191 139.592 123.647 139.048C123.103 138.488 122.831 137.816 122.831 137C122.831 136.184 123.103 135.512 123.647 134.968C124.191 134.408 124.863 134.136 125.679 134.136C126.479 134.136 127.151 134.408 127.695 134.968C128.239 135.512 128.511 136.184 128.511 137C128.511 137.816 128.239 138.488 127.695 139.048C127.151 139.592 126.479 139.864 125.679 139.864ZM139.916 133H137.788V130.76L136.396 131.176V133H134.812V134.344H136.396V138.68C136.396 140.664 137.484 141.32 139.916 141V139.752C138.492 139.816 137.788 139.912 137.788 138.68V134.344H139.916V133ZM144.747 129.8H143.067L144.683 131.912H146.027L144.747 129.8ZM148.587 132.008C148.587 132.712 148.475 133 147.771 133H147.131V137.24C147.131 139.032 146.203 139.88 144.811 139.88C143.579 139.88 142.827 139.128 142.827 137.832V133H141.435V137.912C141.435 139.944 142.667 141.208 144.539 141.208C145.707 141.208 146.571 140.76 147.131 139.848V141H148.523V134.008C149.499 133.816 149.819 133.16 149.819 132.008V131.816H148.587V132.008ZM32.6331 155.376C31.9451 154.32 30.9371 153.792 29.6091 153.792C28.4891 153.792 27.5291 154.208 26.7451 155.024C25.9611 155.84 25.5611 156.832 25.5611 158C25.5611 159.168 25.9611 160.176 26.7451 160.992C27.5291 161.808 28.4891 162.208 29.6091 162.208C30.9371 162.208 31.9451 161.68 32.6331 160.624V162H34.0251V150.8H32.6331V155.376ZM29.7851 160.864C28.9851 160.864 28.3131 160.592 27.7691 160.048C27.2251 159.488 26.9531 158.816 26.9531 158C26.9531 157.184 27.2251 156.512 27.7691 155.968C28.3131 155.408 28.9851 155.136 29.7851 155.136C30.6011 155.136 31.2731 155.408 31.8171 155.968C32.3611 156.512 32.6331 157.184 32.6331 158C32.6331 158.816 32.3611 159.488 31.8171 160.048C31.2731 160.592 30.6011 160.864 29.7851 160.864ZM42.7581 155.376C42.0701 154.32 41.0621 153.792 39.7341 153.792C38.6141 153.792 37.6541 154.208 36.8701 155.024C36.0861 155.84 35.6861 156.832 35.6861 158C35.6861 159.168 36.0861 160.176 36.8701 160.992C37.6541 161.808 38.6141 162.208 39.7341 162.208C41.0621 162.208 42.0701 161.68 42.7581 160.624V162H44.1501V154H42.7581V155.376ZM39.9101 160.864C39.1101 160.864 38.4381 160.592 37.8941 160.048C37.3501 159.488 37.0781 158.816 37.0781 158C37.0781 157.184 37.3501 156.512 37.8941 155.968C38.4381 155.408 39.1101 155.136 39.9101 155.136C40.7261 155.136 41.3981 155.408 41.9421 155.968C42.4861 156.512 42.7581 157.184 42.7581 158C42.7581 158.816 42.4861 159.488 41.9421 160.048C41.3981 160.592 40.7261 160.864 39.9101 160.864ZM50.2431 153.792C49.0751 153.792 48.2111 154.24 47.6511 155.152V154H46.2591V162H47.6511V157.76C47.6511 155.968 48.5791 155.12 49.9711 155.12C51.2031 155.12 51.9551 155.872 51.9551 157.168V162H53.3471V157.088C53.3471 155.056 52.1151 153.792 50.2431 153.792ZM59.2744 153.792C58.1064 153.792 57.2424 154.24 56.6824 155.152V150.8H55.2904V162H56.6824V157.76C56.6824 155.968 57.6104 155.12 59.0024 155.12C60.2344 155.12 60.9864 155.872 60.9864 157.168V162H62.3784V157.088C62.3784 155.056 61.1464 153.792 59.2744 153.792ZM69.5216 156.16C69.5216 155.472 70.1616 155.088 70.9456 155.088C71.7936 155.088 72.3696 155.424 72.6576 156.112L73.8256 155.456C73.3136 154.416 72.2416 153.792 70.9456 153.792C70.1296 153.792 69.4576 154.016 68.9136 154.464C68.3856 154.912 68.1136 155.488 68.1136 156.176C68.1136 157.872 69.7456 158.288 71.0096 158.624C71.8896 158.832 72.5936 159.184 72.5936 159.808C72.5936 160.56 71.9216 160.896 71.0096 160.896C70.0336 160.896 69.2816 160.416 69.0256 159.648L67.8256 160.336C68.2896 161.472 69.4576 162.208 71.0096 162.208C71.8896 162.208 72.5936 161.984 73.1536 161.552C73.7136 161.12 74.0016 160.528 74.0016 159.808C74.0176 158.096 72.3536 157.632 71.1056 157.36C70.2256 157.12 69.5216 156.784 69.5216 156.16ZM80.4338 150.8L79.1538 152.912H80.4978L82.1138 150.8H80.4338ZM82.2738 155.376C81.5858 154.32 80.5778 153.792 79.2498 153.792C78.1298 153.792 77.1698 154.208 76.3858 155.024C75.6018 155.84 75.2018 156.832 75.2018 158C75.2018 159.168 75.6018 160.176 76.3858 160.992C77.1698 161.808 78.1298 162.208 79.2498 162.208C80.5778 162.208 81.5858 161.68 82.2738 160.624V162H83.6658V154H82.2738V155.376ZM79.4258 160.864C78.6258 160.864 77.9538 160.592 77.4098 160.048C76.8658 159.488 76.5938 158.816 76.5938 158C76.5938 157.184 76.8658 156.512 77.4098 155.968C77.9538 155.408 78.6258 155.136 79.4258 155.136C80.2418 155.136 80.9138 155.408 81.4578 155.968C82.0018 156.512 82.2738 157.184 82.2738 158C82.2738 158.816 82.0018 159.488 81.4578 160.048C80.9138 160.592 80.2418 160.864 79.4258 160.864ZM89.5348 162.208C91.0868 162.208 92.4468 161.392 93.1348 160.128L91.9508 159.44C91.5028 160.288 90.6068 160.832 89.5348 160.832C88.7348 160.832 88.0628 160.56 87.5188 160.016C86.9908 159.472 86.7188 158.8 86.7188 158C86.7188 157.184 86.9908 156.512 87.5188 155.968C88.0628 155.424 88.7348 155.152 89.5348 155.152C90.6068 155.152 91.5028 155.712 91.9028 156.56L93.0708 155.888C92.4468 154.608 91.1188 153.792 89.5348 153.792C88.3348 153.792 87.3268 154.192 86.5268 155.008C85.7268 155.808 85.3268 156.8 85.3268 158C85.3268 159.2 85.7268 160.192 86.5268 161.008C87.3268 161.808 88.3348 162.208 89.5348 162.208ZM98.5088 153.792C97.3408 153.792 96.4768 154.24 95.9168 155.152V150.8H94.5247V162H95.9168V157.76C95.9168 155.968 96.8448 155.12 98.2368 155.12C99.4688 155.12 100.221 155.872 100.221 157.168V162H101.613V157.088C101.613 155.056 100.381 153.792 98.5088 153.792ZM115.572 151.872V150.8H114.18V151.872H111.412V152.896H114.18V155.376C113.492 154.32 112.484 153.792 111.156 153.792C110.036 153.792 109.076 154.208 108.292 155.024C107.508 155.84 107.108 156.832 107.108 158C107.108 159.168 107.508 160.176 108.292 160.992C109.076 161.808 110.036 162.208 111.156 162.208C112.484 162.208 113.492 161.68 114.18 160.624V162H115.572V152.896H116.644V151.872H115.572ZM111.332 160.864C110.532 160.864 109.86 160.592 109.316 160.048C108.772 159.488 108.5 158.816 108.5 158C108.5 157.184 108.772 156.512 109.316 155.968C109.86 155.408 110.532 155.136 111.332 155.136C112.148 155.136 112.82 155.408 113.364 155.968C113.908 156.512 114.18 157.184 114.18 158C114.18 158.816 113.908 159.488 113.364 160.048C112.82 160.592 112.148 160.864 111.332 160.864ZM122.398 153.088C123.886 153.088 124.782 152.288 124.782 150.928H123.486C123.486 151.616 123.118 151.968 122.398 151.968C121.678 151.968 121.31 151.616 121.31 150.928H120.014C120.014 152.288 120.926 153.088 122.398 153.088ZM124.446 155.376C123.758 154.32 122.75 153.792 121.422 153.792C120.302 153.792 119.342 154.208 118.558 155.024C117.774 155.84 117.374 156.832 117.374 158C117.374 159.168 117.774 160.176 118.558 160.992C119.342 161.808 120.302 162.208 121.422 162.208C122.75 162.208 123.758 161.68 124.446 160.624V162H125.838V154H124.446V155.376ZM121.598 160.864C120.798 160.864 120.126 160.592 119.582 160.048C119.038 159.488 118.766 158.816 118.766 158C118.766 157.184 119.038 156.512 119.582 155.968C120.126 155.408 120.798 155.136 121.598 155.136C122.414 155.136 123.086 155.408 123.63 155.968C124.174 156.512 124.446 157.184 124.446 158C124.446 158.816 124.174 159.488 123.63 160.048C123.086 160.592 122.414 160.864 121.598 160.864ZM131.931 153.792C130.763 153.792 129.899 154.24 129.339 155.152V154H127.947V162H129.339V157.76C129.339 155.968 130.267 155.12 131.659 155.12C132.891 155.12 133.643 155.872 133.643 157.168V162H135.035V157.088C135.035 155.056 133.803 153.792 131.931 153.792ZM143.618 155.376C142.93 154.32 141.922 153.792 140.61 153.792C139.474 153.792 138.498 154.192 137.714 155.008C136.93 155.808 136.53 156.784 136.53 157.952C136.53 159.12 136.93 160.096 137.714 160.912C138.498 161.728 139.474 162.128 140.61 162.128C141.906 162.128 142.914 161.6 143.618 160.528V161.664C143.618 163.184 142.61 164.112 140.946 164.112C139.65 164.112 138.77 163.664 138.338 162.768L137.122 163.456C137.778 164.72 139.122 165.408 140.914 165.408C142.034 165.408 142.994 165.072 143.794 164.416C144.594 163.76 144.994 162.848 144.994 161.664V154H143.618V155.376ZM143.618 157.952C143.618 158.768 143.346 159.44 142.802 159.984C142.258 160.528 141.586 160.8 140.77 160.8C139.954 160.8 139.282 160.528 138.738 159.984C138.194 159.44 137.922 158.768 137.922 157.952C137.922 157.152 138.194 156.48 138.738 155.936C139.282 155.392 139.954 155.12 140.77 155.12C141.586 155.12 142.258 155.392 142.802 155.936C143.346 156.48 143.618 157.152 143.618 157.952ZM30.997 178.872L34.821 175H33.029L29.573 178.536V171.8H28.181V183H29.573V179.208L33.221 183H34.949L30.997 178.872ZM39.7795 171.8L38.4995 173.912H39.8435L41.4595 171.8H39.7795ZM39.5235 181.272L36.8035 175H35.3155L38.8035 182.968L38.6595 183.272C38.1955 184.44 37.4755 184.984 36.4995 184.904V186.2C38.0995 186.312 39.3635 185.304 40.0515 183.496L43.3155 175H41.8275L39.5235 181.272ZM51.5659 181.512L49.0539 175H47.5499L50.7499 183H52.3819L55.5819 175H54.0779L51.5659 181.512ZM61.0951 171.8H59.4151L61.0311 173.912H62.3751L61.0951 171.8ZM63.3831 176.376C62.6951 175.32 61.6871 174.792 60.3591 174.792C59.2391 174.792 58.2791 175.208 57.4951 176.024C56.7111 176.84 56.3111 177.832 56.3111 179C56.3111 180.168 56.7111 181.176 57.4951 181.992C58.2791 182.808 59.2391 183.208 60.3591 183.208C61.6871 183.208 62.6951 182.68 63.3831 181.624V183H64.7751V175H63.3831V176.376ZM60.5351 181.864C59.7351 181.864 59.0631 181.592 58.5191 181.048C57.9751 180.488 57.7031 179.816 57.7031 179C57.7031 178.184 57.9751 177.512 58.5191 176.968C59.0631 176.408 59.7351 176.136 60.5351 176.136C61.3511 176.136 62.0231 176.408 62.5671 176.968C63.1111 177.512 63.3831 178.184 63.3831 179C63.3831 179.816 63.1111 180.488 62.5671 181.048C62.0231 181.592 61.3511 181.864 60.5351 181.864ZM77.5241 176.376C76.8361 175.32 75.8281 174.792 74.5161 174.792C73.3801 174.792 72.4041 175.192 71.6201 176.008C70.8361 176.808 70.4361 177.784 70.4361 178.952C70.4361 180.12 70.8361 181.096 71.6201 181.912C72.4041 182.728 73.3801 183.128 74.5161 183.128C75.8121 183.128 76.8201 182.6 77.5241 181.528V182.664C77.5241 184.184 76.5161 185.112 74.8521 185.112C73.5561 185.112 72.6761 184.664 72.2441 183.768L71.0281 184.456C71.6841 185.72 73.0281 186.408 74.8201 186.408C75.9401 186.408 76.9001 186.072 77.7001 185.416C78.5001 184.76 78.9001 183.848 78.9001 182.664V175H77.5241V176.376ZM77.5241 178.952C77.5241 179.768 77.2521 180.44 76.7081 180.984C76.1641 181.528 75.4921 181.8 74.6761 181.8C73.8601 181.8 73.1881 181.528 72.6441 180.984C72.1001 180.44 71.8281 179.768 71.8281 178.952C71.8281 178.152 72.1001 177.48 72.6441 176.936C73.1881 176.392 73.8601 176.12 74.6761 176.12C75.4921 176.12 76.1641 176.392 76.7081 176.936C77.2521 177.48 77.5241 178.152 77.5241 178.952ZM84.9451 173.96C84.8971 173.592 85.0251 173.496 85.2331 173.4C85.5371 173.24 85.8251 172.888 85.8251 172.28C85.8251 171.464 85.2011 171.08 84.4491 171.08C83.7451 171.08 83.1211 171.384 82.8171 172.136L83.7131 172.52C83.8411 172.136 84.1611 172.024 84.4491 172.024C84.7211 172.024 84.8491 172.136 84.8491 172.296C84.8491 172.552 84.6411 172.648 84.5451 172.696C84.5291 172.712 84.2891 172.856 84.2891 172.856C83.9851 173.096 83.9691 173.256 83.9691 173.96H84.9451ZM87.9851 174.008C87.9851 174.712 87.8731 175 87.1691 175H86.5291V179.24C86.5291 181.032 85.6011 181.88 84.2091 181.88C82.9771 181.88 82.2251 181.128 82.2251 179.832V175H80.8331V179.912C80.8331 181.944 82.0651 183.208 83.9371 183.208C85.1051 183.208 85.9691 182.76 86.5291 181.848V183H87.9211V176.008C88.8971 175.816 89.2171 175.16 89.2171 174.008V173.816H87.9851V174.008ZM90.7444 174.008C91.2564 174.008 91.6724 173.592 91.6724 173.08C91.6724 172.568 91.2564 172.136 90.7444 172.136C90.2164 172.136 89.8004 172.568 89.8004 173.08C89.8004 173.592 90.2164 174.008 90.7444 174.008ZM91.4324 183V175H90.0404V183H91.4324ZM98.948 183V171.32H97.556V183H98.948ZM105.968 173.864L104.688 171.752H103.008L104.624 173.864H105.968ZM107.824 181.992C108.64 181.176 109.056 180.184 109.056 179C109.056 177.816 108.64 176.824 107.824 176.008C107.792 175.992 107.776 175.976 107.76 175.944C108.528 175.688 108.8 175.048 108.8 174.008V173.816H107.568V174.008C107.568 174.712 107.456 175 106.752 175H106.208C105.776 174.856 105.312 174.792 104.832 174.792C103.664 174.792 102.656 175.192 101.84 176.008C101.024 176.824 100.624 177.816 100.624 179C100.624 180.184 101.024 181.176 101.84 181.992C102.656 182.808 103.664 183.208 104.832 183.208C106 183.208 107.008 182.808 107.824 181.992ZM104.832 181.848C104.048 181.848 103.376 181.576 102.832 181.032C102.288 180.488 102.016 179.816 102.016 179C102.016 178.184 102.288 177.512 102.832 176.968C103.376 176.424 104.048 176.152 104.832 176.152C105.632 176.152 106.304 176.424 106.848 176.968C107.392 177.512 107.664 178.184 107.664 179C107.664 179.816 107.392 180.488 106.848 181.032C106.304 181.576 105.632 181.848 104.832 181.848ZM111.401 174.008C111.913 174.008 112.329 173.592 112.329 173.08C112.329 172.568 111.913 172.136 111.401 172.136C110.873 172.136 110.457 172.568 110.457 173.08C110.457 173.592 110.873 174.008 111.401 174.008ZM112.089 183V175H110.697V183H112.089ZM126.852 174.792C125.732 174.792 124.9 175.24 124.34 176.152C123.844 175.24 123.06 174.792 121.988 174.792C120.948 174.792 120.148 175.224 119.604 176.072V175H118.212V183H119.604V178.552C119.604 176.936 120.484 176.12 121.652 176.12C122.692 176.12 123.348 176.84 123.348 178.072V183H124.74V178.552C124.74 176.904 125.508 176.12 126.708 176.12C127.78 176.12 128.468 176.84 128.468 178.072V183H129.86V178.024C129.86 176.04 128.644 174.792 126.852 174.792ZM136.686 173.864L135.406 171.752H133.726L135.342 173.864H136.686ZM138.542 181.992C139.358 181.176 139.774 180.184 139.774 179C139.774 177.816 139.358 176.824 138.542 176.008C138.51 175.992 138.494 175.976 138.478 175.944C139.246 175.688 139.518 175.048 139.518 174.008V173.816H138.286V174.008C138.286 174.712 138.174 175 137.47 175H136.926C136.494 174.856 136.03 174.792 135.55 174.792C134.382 174.792 133.374 175.192 132.558 176.008C131.742 176.824 131.342 177.816 131.342 179C131.342 180.184 131.742 181.176 132.558 181.992C133.374 182.808 134.382 183.208 135.55 183.208C136.718 183.208 137.726 182.808 138.542 181.992ZM135.55 181.848C134.766 181.848 134.094 181.576 133.55 181.032C133.006 180.488 132.734 179.816 132.734 179C132.734 178.184 133.006 177.512 133.55 176.968C134.094 176.424 134.766 176.152 135.55 176.152C136.35 176.152 137.022 176.424 137.566 176.968C138.11 177.512 138.382 178.184 138.382 179C138.382 179.816 138.11 180.488 137.566 181.032C137.022 181.576 136.35 181.848 135.55 181.848ZM142.119 174.008C142.631 174.008 143.047 173.592 143.047 173.08C143.047 172.568 142.631 172.136 142.119 172.136C141.591 172.136 141.175 172.568 141.175 173.08C141.175 173.592 141.591 174.008 142.119 174.008ZM142.807 183V175H141.415V183H142.807ZM78.9378 197.376C78.2498 196.32 77.2418 195.792 75.9138 195.792C74.7938 195.792 73.8338 196.208 73.0498 197.024C72.2658 197.84 71.8658 198.832 71.8658 200C71.8658 201.168 72.2658 202.176 73.0498 202.992C73.8338 203.808 74.7938 204.208 75.9138 204.208C77.2418 204.208 78.2498 203.68 78.9378 202.624V204H80.3298V192.8H78.9378V197.376ZM76.0898 202.864C75.2898 202.864 74.6178 202.592 74.0738 202.048C73.5298 201.488 73.2578 200.816 73.2578 200C73.2578 199.184 73.5298 198.512 74.0738 197.968C74.6178 197.408 75.2898 197.136 76.0898 197.136C76.9058 197.136 77.5778 197.408 78.1218 197.968C78.6658 198.512 78.9378 199.184 78.9378 200C78.9378 200.816 78.6658 201.488 78.1218 202.048C77.5778 202.592 76.9058 202.864 76.0898 202.864ZM86.3108 207.232C86.8228 207.232 87.2388 206.816 87.2388 206.304C87.2388 205.792 86.8228 205.36 86.3108 205.36C85.7828 205.36 85.3668 205.792 85.3668 206.304C85.3668 206.816 85.7828 207.232 86.3108 207.232ZM89.0628 197.376C88.3748 196.32 87.3668 195.792 86.0388 195.792C84.9188 195.792 83.9588 196.208 83.1748 197.024C82.3908 197.84 81.9908 198.832 81.9908 200C81.9908 201.168 82.3908 202.176 83.1748 202.992C83.9588 203.808 84.9188 204.208 86.0388 204.208C87.3668 204.208 88.3748 203.68 89.0628 202.624V204H90.4548V196H89.0628V197.376ZM86.2148 202.864C85.4148 202.864 84.7428 202.592 84.1988 202.048C83.6548 201.488 83.3828 200.816 83.3828 200C83.3828 199.184 83.6548 198.512 84.1988 197.968C84.7428 197.408 85.4148 197.136 86.2148 197.136C87.0308 197.136 87.7028 197.408 88.2468 197.968C88.7908 198.512 89.0628 199.184 89.0628 200C89.0628 200.816 88.7908 201.488 88.2468 202.048C87.7028 202.592 87.0308 202.864 86.2148 202.864ZM95.8438 202.272L93.1238 196H91.6358L95.1238 203.968L94.9798 204.272C94.5158 205.44 93.7958 205.984 92.8198 205.904V207.2C94.4198 207.312 95.6838 206.304 96.3718 204.496L99.6358 196H98.1478L95.8438 202.272Z" fill="#212E5E"/>
<path d="M70.6811 43.9801C81.3552 43.9801 84.0237 47.2572 84.0237 48.8958C87.5352 41.8734 89.6414 43.9801 97.3661 37.6599C107.9 25.7218 101.58 12.3791 95.2594 6.05896C88.9392 -0.261227 66.4677 -5.17693 56.6363 10.2724C46.8049 25.7218 58.743 43.2778 70.6811 43.9801Z" fill="#FF6D34"/>
<path d="M88.2373 60.1316C88.2373 62.8465 86.6652 65.0473 84.7261 65.0473C82.7869 65.0473 81.2148 62.8465 81.2148 60.1316C81.2148 57.4168 84.0238 58.0249 84.7261 55.2159C85.4283 58.0249 88.2373 57.4168 88.2373 60.1316Z" fill="#FF6D34"/>
<path d="M81.7816 18.28V16H72.9816V18.58H78.4616L75.7016 22.18L76.7616 23.78H77.3616C78.7816 23.78 79.6016 24.54 79.6016 25.68C79.6016 26.86 78.7816 27.58 77.3616 27.58C76.0816 27.58 75.2616 27.04 74.9216 25.96L72.5616 27.32C73.3416 29.26 75.1816 30.28 77.3616 30.28C78.7616 30.28 79.9416 29.88 80.9016 29.06C81.8816 28.24 82.3616 27.12 82.3616 25.68C82.3616 23.7 81.0616 22.24 79.1616 21.68L81.7816 18.28Z" fill="white"/>
<path d="M203.5 10.754V12.266H208.126C207.784 14.228 206.164 15.596 203.644 15.596C202.168 15.596 200.962 15.128 200.026 14.192C199.108 13.256 198.64 12.086 198.64 10.7C198.64 9.314 199.108 8.144 200.026 7.208C200.944 6.254 202.132 5.786 203.572 5.786C205.318 5.786 206.884 6.686 207.604 8.054L209.044 7.208C208.522 6.29 207.766 5.57 206.794 5.012C205.822 4.454 204.76 4.166 203.59 4.166C201.7 4.166 200.116 4.796 198.856 6.074C197.614 7.334 196.984 8.882 196.984 10.7C196.984 12.518 197.614 14.066 198.856 15.344C200.116 16.604 201.7 17.234 203.626 17.234C205.48 17.234 206.974 16.694 208.108 15.614C209.242 14.516 209.8 13.148 209.8 11.51V10.754H203.5ZM212.465 6.884C213.041 6.884 213.509 6.416 213.509 5.84C213.509 5.264 213.041 4.778 212.465 4.778C211.871 4.778 211.403 5.264 211.403 5.84C211.403 6.416 211.871 6.884 212.465 6.884ZM213.239 17V8H211.673V17H213.239ZM223.08 9.548C222.306 8.36 221.172 7.766 219.678 7.766C218.418 7.766 217.338 8.234 216.456 9.152C215.574 10.07 215.124 11.186 215.124 12.5C215.124 13.814 215.574 14.948 216.456 15.866C217.338 16.784 218.418 17.234 219.678 17.234C221.172 17.234 222.306 16.64 223.08 15.452V17H224.646V8H223.08V9.548ZM219.876 15.722C218.976 15.722 218.22 15.416 217.608 14.804C216.996 14.174 216.69 13.418 216.69 12.5C216.69 11.582 216.996 10.826 217.608 10.214C218.22 9.584 218.976 9.278 219.876 9.278C220.794 9.278 221.55 9.584 222.162 10.214C222.774 10.826 223.08 11.582 223.08 12.5C223.08 13.418 222.774 14.174 222.162 14.804C221.55 15.416 220.794 15.722 219.876 15.722ZM232.869 10.43C232.869 9.656 233.589 9.224 234.471 9.224C235.425 9.224 236.073 9.602 236.397 10.376L237.711 9.638C237.135 8.468 235.929 7.766 234.471 7.766C233.553 7.766 232.797 8.018 232.185 8.522C231.591 9.026 231.285 9.674 231.285 10.448C231.285 12.356 233.121 12.824 234.543 13.202C235.533 13.436 236.325 13.832 236.325 14.534C236.325 15.38 235.569 15.758 234.543 15.758C233.445 15.758 232.599 15.218 232.311 14.354L230.961 15.128C231.483 16.406 232.797 17.234 234.543 17.234C235.533 17.234 236.325 16.982 236.955 16.496C237.585 16.01 237.909 15.344 237.909 14.534C237.927 12.608 236.055 12.086 234.651 11.78C233.661 11.51 232.869 11.132 232.869 10.43ZM247.611 6.884C247.611 7.676 247.485 8 246.693 8H245.973V12.77C245.973 14.786 244.929 15.74 243.363 15.74C241.977 15.74 241.131 14.894 241.131 13.436V8H239.565V13.526C239.565 15.812 240.951 17.234 243.057 17.234C244.371 17.234 245.343 16.73 245.973 15.704V17H247.539V9.134C248.637 8.918 248.997 8.18 248.997 6.884V6.668H247.611V6.884ZM257.897 15.326L255.071 8H253.379L256.979 17H258.815L262.415 8H260.723L257.897 15.326ZM268.618 4.4H266.728L268.546 6.776H270.058L268.618 4.4ZM271.192 9.548C270.418 8.36 269.284 7.766 267.79 7.766C266.53 7.766 265.45 8.234 264.568 9.152C263.686 10.07 263.236 11.186 263.236 12.5C263.236 13.814 263.686 14.948 264.568 15.866C265.45 16.784 266.53 17.234 267.79 17.234C269.284 17.234 270.418 16.64 271.192 15.452V17H272.758V8H271.192V9.548ZM267.988 15.722C267.088 15.722 266.332 15.416 265.72 14.804C265.108 14.174 264.802 13.418 264.802 12.5C264.802 11.582 265.108 10.826 265.72 10.214C266.332 9.584 267.088 9.278 267.988 9.278C268.906 9.278 269.662 9.584 270.274 10.214C270.886 10.826 271.192 11.582 271.192 12.5C271.192 13.418 270.886 14.174 270.274 14.804C269.662 15.416 268.906 15.722 267.988 15.722ZM284.112 7.766C282.798 7.766 281.826 8.27 281.196 9.296V4.4H279.63V17H281.196V12.23C281.196 10.214 282.24 9.26 283.806 9.26C285.192 9.26 286.038 10.106 286.038 11.564V17H287.604V11.474C287.604 9.188 286.218 7.766 284.112 7.766ZM294.021 20.636C294.597 20.636 295.065 20.168 295.065 19.592C295.065 19.016 294.597 18.53 294.021 18.53C293.427 18.53 292.959 19.016 292.959 19.592C292.959 20.168 293.427 20.636 294.021 20.636ZM297.387 15.866C298.305 14.948 298.773 13.832 298.773 12.5C298.773 11.168 298.305 10.052 297.387 9.134C296.469 8.216 295.335 7.766 294.021 7.766C292.707 7.766 291.573 8.216 290.655 9.134C289.737 10.052 289.287 11.168 289.287 12.5C289.287 13.832 289.737 14.948 290.655 15.866C291.573 16.784 292.707 17.234 294.021 17.234C295.335 17.234 296.469 16.784 297.387 15.866ZM294.021 15.704C293.139 15.704 292.383 15.398 291.771 14.786C291.159 14.174 290.853 13.418 290.853 12.5C290.853 11.582 291.159 10.826 291.771 10.214C292.383 9.602 293.139 9.296 294.021 9.296C294.921 9.296 295.677 9.602 296.289 10.214C296.901 10.826 297.207 11.582 297.207 12.5C297.207 13.418 296.901 14.174 296.289 14.786C295.677 15.398 294.921 15.704 294.021 15.704ZM304.849 17.234C306.595 17.234 308.125 16.316 308.899 14.894L307.567 14.12C307.063 15.074 306.055 15.686 304.849 15.686C303.949 15.686 303.193 15.38 302.581 14.768C301.987 14.156 301.681 13.4 301.681 12.5C301.681 11.582 301.987 10.826 302.581 10.214C303.193 9.602 303.949 9.296 304.849 9.296C306.055 9.296 307.063 9.926 307.513 10.88L308.827 10.124C308.125 8.684 306.631 7.766 304.849 7.766C303.499 7.766 302.365 8.216 301.465 9.134C300.565 10.034 300.115 11.15 300.115 12.5C300.115 13.85 300.565 14.966 301.465 15.884C302.365 16.784 303.499 17.234 304.849 17.234ZM318.436 15.326L315.61 8H313.918L317.518 17H319.354L322.954 8H321.262L318.436 15.326ZM325.071 6.884C325.647 6.884 326.115 6.416 326.115 5.84C326.115 5.264 325.647 4.778 325.071 4.778C324.477 4.778 324.009 5.264 324.009 5.84C324.009 6.416 324.477 6.884 325.071 6.884ZM325.845 17V8H324.279V17H325.845ZM333.598 6.812H335.272L333.364 4.382H331.636L329.728 6.812H331.402L332.5 5.354L333.598 6.812ZM336.874 13.22C336.91 12.986 336.928 12.752 336.928 12.518C336.928 11.204 336.514 10.088 335.668 9.17C334.84 8.234 333.76 7.766 332.446 7.766C331.06 7.766 329.926 8.216 329.044 9.116C328.162 10.016 327.73 11.15 327.73 12.5C327.73 13.868 328.18 15.002 329.062 15.902C329.962 16.784 331.132 17.234 332.554 17.234C334.318 17.234 335.632 16.55 336.514 15.2L335.182 14.444C334.642 15.326 333.778 15.758 332.59 15.758C330.88 15.758 329.638 14.822 329.332 13.22H336.874ZM332.446 9.242C333.886 9.242 335.074 10.142 335.344 11.852H329.332C329.602 10.268 330.772 9.242 332.446 9.242ZM343.21 7.766C341.896 7.766 340.924 8.27 340.294 9.296V8H338.728V17H340.294V12.23C340.294 10.214 341.338 9.26 342.904 9.26C344.29 9.26 345.136 10.106 345.136 11.564V17H346.702V11.474C346.702 9.188 345.316 7.766 343.21 7.766ZM204.985 32H202.591V29.48L201.025 29.948V32H199.243V33.512H201.025V38.39C201.025 40.622 202.249 41.36 204.985 41V39.596C203.383 39.668 202.591 39.776 202.591 38.39V33.512H204.985V32ZM211.374 31.766C210.06 31.766 209.088 32.27 208.458 33.296V28.4H206.892V41H208.458V36.23C208.458 34.214 209.502 33.26 211.068 33.26C212.454 33.26 213.3 34.106 213.3 35.564V41H214.866V35.474C214.866 33.188 213.48 31.766 211.374 31.766ZM222.272 30.776H223.838L222.056 28.508H220.454L218.672 30.776H220.238L221.264 29.408L222.272 30.776ZM217.916 33.134C216.998 34.052 216.548 35.168 216.548 36.5C216.548 37.832 216.998 38.948 217.916 39.866C218.834 40.784 219.968 41.234 221.282 41.234C222.596 41.234 223.73 40.784 224.648 39.866C225.566 38.948 226.034 37.832 226.034 36.5C226.034 35.168 225.566 34.052 224.648 33.134C223.73 32.216 222.596 31.766 221.282 31.766C219.968 31.766 218.834 32.216 217.916 33.134ZM221.282 39.704C220.4 39.704 219.644 39.398 219.032 38.786C218.42 38.174 218.114 37.418 218.114 36.5C218.114 35.582 218.42 34.826 219.032 34.214C219.644 33.602 220.4 33.296 221.282 33.296C222.182 33.296 222.938 33.602 223.55 34.214C224.162 34.826 224.468 35.582 224.468 36.5C224.468 37.418 224.162 38.174 223.55 38.786C222.938 39.398 222.182 39.704 221.282 39.704ZM223.064 29.12H224.468L226.178 26.906H224.396L223.064 29.12ZM232.362 31.766C231.048 31.766 230.076 32.27 229.446 33.296V32H227.88V41H229.446V36.23C229.446 34.214 230.49 33.26 232.056 33.26C233.442 33.26 234.288 34.106 234.288 35.564V41H235.854V35.474C235.854 33.188 234.468 31.766 232.362 31.766ZM245.511 33.548C244.737 32.36 243.603 31.766 242.127 31.766C240.849 31.766 239.751 32.216 238.869 33.134C237.987 34.034 237.537 35.132 237.537 36.446C237.537 37.76 237.987 38.858 238.869 39.776C239.751 40.694 240.849 41.144 242.127 41.144C243.585 41.144 244.719 40.55 245.511 39.344V40.622C245.511 42.332 244.377 43.376 242.505 43.376C241.047 43.376 240.057 42.872 239.571 41.864L238.203 42.638C238.941 44.06 240.453 44.834 242.469 44.834C243.729 44.834 244.809 44.456 245.709 43.718C246.609 42.98 247.059 41.954 247.059 40.622V32H245.511V33.548ZM245.511 36.446C245.511 37.364 245.205 38.12 244.593 38.732C243.981 39.344 243.225 39.65 242.307 39.65C241.389 39.65 240.633 39.344 240.021 38.732C239.409 38.12 239.103 37.364 239.103 36.446C239.103 35.546 239.409 34.79 240.021 34.178C240.633 33.566 241.389 33.26 242.307 33.26C243.225 33.26 243.981 33.566 244.593 34.178C245.205 34.79 245.511 35.546 245.511 36.446ZM258.413 31.766C257.099 31.766 256.127 32.27 255.497 33.296V32H253.931V41H255.497V36.23C255.497 34.214 256.541 33.26 258.107 33.26C259.493 33.26 260.339 34.106 260.339 35.564V41H261.905V35.474C261.905 33.188 260.519 31.766 258.413 31.766ZM268.573 31.766C267.259 31.766 266.287 32.27 265.657 33.296V28.4H264.091V41H265.657V36.23C265.657 34.214 266.701 33.26 268.267 33.26C269.653 33.26 270.499 34.106 270.499 35.564V41H272.065V35.474C272.065 33.188 270.679 31.766 268.573 31.766ZM280.299 30.83H281.865L280.083 28.562H278.481L276.699 30.83H278.265L279.291 29.462L280.299 30.83ZM281.703 33.548C280.929 32.36 279.795 31.766 278.301 31.766C277.041 31.766 275.961 32.234 275.079 33.152C274.197 34.07 273.747 35.186 273.747 36.5C273.747 37.814 274.197 38.948 275.079 39.866C275.961 40.784 277.041 41.234 278.301 41.234C279.795 41.234 280.929 40.64 281.703 39.452V41H283.269V32H281.703V33.548ZM278.499 39.722C277.599 39.722 276.843 39.416 276.231 38.804C275.619 38.174 275.313 37.418 275.313 36.5C275.313 35.582 275.619 34.826 276.231 34.214C276.843 33.584 277.599 33.278 278.499 33.278C279.417 33.278 280.173 33.584 280.785 34.214C281.397 34.826 281.703 35.582 281.703 36.5C281.703 37.418 281.397 38.174 280.785 38.804C280.173 39.416 279.417 39.722 278.499 39.722ZM281.091 29.174H282.495L284.205 26.96H282.423L281.091 29.174ZM290.538 32H288.144V29.48L286.578 29.948V32H284.796V33.512H286.578V38.39C286.578 40.622 287.802 41.36 290.538 41V39.596C288.936 39.668 288.144 39.776 288.144 38.39V33.512H290.538V32ZM301.841 32H299.447V29.48L297.881 29.948V32H296.099V33.512H297.881V38.39C297.881 40.622 299.105 41.36 301.841 41V39.596C300.239 39.668 299.447 39.776 299.447 38.39V33.512H301.841V32ZM308.23 31.766C306.916 31.766 305.944 32.27 305.314 33.296V28.4H303.748V41H305.314V36.23C305.314 34.214 306.358 33.26 307.924 33.26C309.31 33.26 310.156 34.106 310.156 35.564V41H311.722V35.474C311.722 33.188 310.336 31.766 308.23 31.766ZM319.218 30.776H320.892L318.984 28.346H317.256L315.348 30.776H317.022L318.12 29.318L319.218 30.776ZM314.772 33.134C313.854 34.052 313.404 35.168 313.404 36.5C313.404 37.832 313.854 38.948 314.772 39.866C315.69 40.784 316.824 41.234 318.138 41.234C319.452 41.234 320.586 40.784 321.504 39.866C322.422 38.948 322.89 37.832 322.89 36.5C322.89 35.168 322.422 34.052 321.504 33.134C320.586 32.216 319.452 31.766 318.138 31.766C316.824 31.766 315.69 32.216 314.772 33.134ZM318.138 39.704C317.256 39.704 316.5 39.398 315.888 38.786C315.276 38.174 314.97 37.418 314.97 36.5C314.97 35.582 315.276 34.826 315.888 34.214C316.5 33.602 317.256 33.296 318.138 33.296C319.038 33.296 319.794 33.602 320.406 34.214C321.018 34.826 321.324 35.582 321.324 36.5C321.324 37.418 321.018 38.174 320.406 38.786C319.794 39.398 319.038 39.704 318.138 39.704ZM329.218 31.766C327.904 31.766 326.932 32.27 326.302 33.296V32H324.736V41H326.302V36.23C326.302 34.214 327.346 33.26 328.912 33.26C330.298 33.26 331.144 34.106 331.144 35.564V41H332.71V35.474C332.71 33.188 331.324 31.766 329.218 31.766ZM342.366 33.548C341.592 32.36 340.458 31.766 338.982 31.766C337.704 31.766 336.606 32.216 335.724 33.134C334.842 34.034 334.392 35.132 334.392 36.446C334.392 37.76 334.842 38.858 335.724 39.776C336.606 40.694 337.704 41.144 338.982 41.144C340.44 41.144 341.574 40.55 342.366 39.344V40.622C342.366 42.332 341.232 43.376 339.36 43.376C337.902 43.376 336.912 42.872 336.426 41.864L335.058 42.638C335.796 44.06 337.308 44.834 339.324 44.834C340.584 44.834 341.664 44.456 342.564 43.718C343.464 42.98 343.914 41.954 343.914 40.622V32H342.366V33.548ZM342.366 36.446C342.366 37.364 342.06 38.12 341.448 38.732C340.836 39.344 340.08 39.65 339.162 39.65C338.244 39.65 337.488 39.344 336.876 38.732C336.264 38.12 335.958 37.364 335.958 36.446C335.958 35.546 336.264 34.79 336.876 34.178C337.488 33.566 338.244 33.26 339.162 33.26C340.08 33.26 340.836 33.566 341.448 34.178C342.06 34.79 342.366 35.546 342.366 36.446ZM226.984 56H224.59V53.48L223.024 53.948V56H221.242V57.512H223.024V62.39C223.024 64.622 224.248 65.36 226.984 65V63.596C225.382 63.668 224.59 63.776 224.59 62.39V57.512H226.984V56ZM229.683 54.884C230.259 54.884 230.727 54.416 230.727 53.84C230.727 53.264 230.259 52.778 229.683 52.778C229.089 52.778 228.621 53.264 228.621 53.84C228.621 54.416 229.089 54.884 229.683 54.884ZM230.457 65V56H228.891V65H230.457ZM237.328 55.766C236.014 55.766 235.042 56.27 234.412 57.296V56H232.846V65H234.412V60.23C234.412 58.214 235.456 57.26 237.022 57.26C238.408 57.26 239.254 58.106 239.254 59.564V65H240.82V59.474C240.82 57.188 239.434 55.766 237.328 55.766ZM250.674 60.356L254.976 56H252.96L249.072 59.978V52.4H247.506V65H249.072V60.734L253.176 65H255.12L250.674 60.356ZM261.059 55.766C259.745 55.766 258.773 56.27 258.143 57.296V52.4H256.577V65H258.143V60.23C258.143 58.214 259.187 57.26 260.753 57.26C262.139 57.26 262.985 58.106 262.985 59.564V65H264.551V59.474C264.551 57.188 263.165 55.766 261.059 55.766ZM270.121 54.722H271.633L273.451 52.346H271.561L270.121 54.722ZM274.333 63.866C273.415 64.784 272.281 65.234 270.967 65.234C269.653 65.234 268.519 64.784 267.601 63.866C266.683 62.948 266.233 61.832 266.233 60.5C266.233 59.168 266.683 58.052 267.601 57.134C268.519 56.216 269.653 55.766 270.967 55.766C272.281 55.766 273.415 56.216 274.333 57.134C275.251 58.052 275.719 59.168 275.719 60.5C275.719 61.832 275.251 62.948 274.333 63.866ZM270.967 63.704C271.867 63.704 272.623 63.398 273.235 62.786C273.847 62.174 274.153 61.418 274.153 60.5C274.153 59.582 273.847 58.826 273.235 58.214C272.623 57.602 271.867 57.296 270.967 57.296C270.085 57.296 269.329 57.602 268.717 58.214C268.105 58.826 267.799 59.582 267.799 60.5C267.799 61.418 268.105 62.174 268.717 62.786C269.329 63.398 270.085 63.704 270.967 63.704ZM285.017 57.548C284.243 56.36 283.109 55.766 281.615 55.766C280.355 55.766 279.275 56.234 278.393 57.152C277.511 58.07 277.061 59.186 277.061 60.5C277.061 61.814 277.511 62.948 278.393 63.866C279.275 64.784 280.355 65.234 281.615 65.234C283.109 65.234 284.243 64.64 285.017 63.452V65H286.583V56H285.017V57.548ZM281.813 63.722C280.913 63.722 280.157 63.416 279.545 62.804C278.933 62.174 278.627 61.418 278.627 60.5C278.627 59.582 278.933 58.826 279.545 58.214C280.157 57.584 280.913 57.278 281.813 57.278C282.731 57.278 283.487 57.584 284.099 58.214C284.711 58.826 285.017 59.582 285.017 60.5C285.017 61.418 284.711 62.174 284.099 62.804C283.487 63.416 282.731 63.722 281.813 63.722ZM297.938 55.766C296.624 55.766 295.652 56.27 295.022 57.296V52.4H293.456V65H295.022V60.23C295.022 58.214 296.066 57.26 297.632 57.26C299.018 57.26 299.864 58.106 299.864 59.564V65H301.43V59.474C301.43 57.188 300.044 55.766 297.938 55.766ZM307.846 68.636C308.422 68.636 308.89 68.168 308.89 67.592C308.89 67.016 308.422 66.53 307.846 66.53C307.252 66.53 306.784 67.016 306.784 67.592C306.784 68.168 307.252 68.636 307.846 68.636ZM311.212 63.866C312.13 62.948 312.598 61.832 312.598 60.5C312.598 59.168 312.13 58.052 311.212 57.134C310.294 56.216 309.16 55.766 307.846 55.766C306.532 55.766 305.398 56.216 304.48 57.134C303.562 58.052 303.112 59.168 303.112 60.5C303.112 61.832 303.562 62.948 304.48 63.866C305.398 64.784 306.532 65.234 307.846 65.234C309.16 65.234 310.294 64.784 311.212 63.866ZM307.846 63.704C306.964 63.704 306.208 63.398 305.596 62.786C304.984 62.174 304.678 61.418 304.678 60.5C304.678 59.582 304.984 58.826 305.596 58.214C306.208 57.602 306.964 57.296 307.846 57.296C308.746 57.296 309.502 57.602 310.114 58.214C310.726 58.826 311.032 59.582 311.032 60.5C311.032 61.418 310.726 62.174 310.114 62.786C309.502 63.398 308.746 63.704 307.846 63.704ZM318.674 65.234C320.42 65.234 321.95 64.316 322.724 62.894L321.392 62.12C320.888 63.074 319.88 63.686 318.674 63.686C317.774 63.686 317.018 63.38 316.406 62.768C315.812 62.156 315.506 61.4 315.506 60.5C315.506 59.582 315.812 58.826 316.406 58.214C317.018 57.602 317.774 57.296 318.674 57.296C319.88 57.296 320.888 57.926 321.338 58.88L322.652 58.124C321.95 56.684 320.456 55.766 318.674 55.766C317.324 55.766 316.19 56.216 315.29 57.134C314.39 58.034 313.94 59.15 313.94 60.5C313.94 61.85 314.39 62.966 315.29 63.884C316.19 64.784 317.324 65.234 318.674 65.234Z" fill="#212E5E"/>
<path d="M256.681 127.067C267.355 127.067 270.024 123.79 270.024 122.152C273.535 129.174 275.641 127.067 283.366 133.387C293.9 145.326 287.58 158.668 281.259 164.988C274.939 171.309 252.468 176.224 242.636 160.775C232.805 145.326 244.743 127.77 256.681 127.067Z" fill="#FF6D34"/>
<path d="M274.237 110.916C274.237 108.201 272.665 106 270.726 106C268.787 106 267.215 108.201 267.215 110.916C267.215 113.631 270.024 113.022 270.726 115.831C271.428 113.022 274.237 113.631 274.237 110.916Z" fill="#FF6D34"/>
<path d="M267.218 148.107V144.787H264.438V148.107H260.798L265.438 139.047H262.478L257.818 148.107V150.667H264.438V153.047H267.218V150.667H268.718V148.107H267.218Z" fill="white"/>
</svg>
