<svg width="368" height="184" viewBox="0 0 368 184" fill="none" xmlns="http://www.w3.org/2000/svg">
<path d="M20.6905 126.552H15.2505V121.8H13.7625V133H15.2505V127.96H20.6905V133H22.1625V121.8H20.6905V126.552ZM28.1754 136.232C28.6874 136.232 29.1034 135.816 29.1034 135.304C29.1034 134.792 28.6874 134.36 28.1754 134.36C27.6474 134.36 27.2314 134.792 27.2314 135.304C27.2314 135.816 27.6474 136.232 28.1754 136.232ZM31.1674 131.992C31.9834 131.176 32.3994 130.184 32.3994 129C32.3994 127.816 31.9834 126.824 31.1674 126.008C30.3514 125.192 29.3434 124.792 28.1754 124.792C27.0074 124.792 25.9994 125.192 25.1834 126.008C24.3674 126.824 23.9674 127.816 23.9674 129C23.9674 130.184 24.3674 131.176 25.1834 131.992C25.9994 132.808 27.0074 133.208 28.1754 133.208C29.3434 133.208 30.3514 132.808 31.1674 131.992ZM28.1754 131.848C27.3914 131.848 26.7194 131.576 26.1754 131.032C25.6314 130.488 25.3594 129.816 25.3594 129C25.3594 128.184 25.6314 127.512 26.1754 126.968C26.7194 126.424 27.3914 126.152 28.1754 126.152C28.9754 126.152 29.6474 126.424 30.1914 126.968C30.7354 127.512 31.0074 128.184 31.0074 129C31.0074 129.816 30.7354 130.488 30.1914 131.032C29.6474 131.576 28.9754 131.848 28.1754 131.848ZM37.8004 133.208C39.3524 133.208 40.7124 132.392 41.4004 131.128L40.2164 130.44C39.7684 131.288 38.8724 131.832 37.8004 131.832C37.0004 131.832 36.3284 131.56 35.7844 131.016C35.2564 130.472 34.9844 129.8 34.9844 129C34.9844 128.184 35.2564 127.512 35.7844 126.968C36.3284 126.424 37.0004 126.152 37.8004 126.152C38.8724 126.152 39.7684 126.712 40.1684 127.56L41.3364 126.888C40.7124 125.608 39.3844 124.792 37.8004 124.792C36.6004 124.792 35.5924 125.192 34.7924 126.008C33.9924 126.808 33.5924 127.8 33.5924 129C33.5924 130.2 33.9924 131.192 34.7924 132.008C35.5924 132.808 36.6004 133.208 37.8004 133.208ZM49.8784 131.512L47.3664 125H45.8624L49.0624 133H50.6944L53.8944 125H52.3904L49.8784 131.512ZM55.7756 124.008C56.2876 124.008 56.7036 123.592 56.7036 123.08C56.7036 122.568 56.2876 122.136 55.7756 122.136C55.2476 122.136 54.8316 122.568 54.8316 123.08C54.8316 123.592 55.2476 124.008 55.7756 124.008ZM56.4636 133V125H55.0716V133H56.4636ZM63.3553 123.944H64.8433L63.1473 121.784H61.6113L59.9153 123.944H61.4033L62.3793 122.648L63.3553 123.944ZM66.2673 129.64C66.2993 129.432 66.3153 129.224 66.3153 129.016C66.3153 127.848 65.9473 126.856 65.1953 126.04C64.4593 125.208 63.4993 124.792 62.3313 124.792C61.0993 124.792 60.0913 125.192 59.3073 125.992C58.5233 126.792 58.1393 127.8 58.1393 129C58.1393 130.216 58.5393 131.224 59.3233 132.024C60.1233 132.808 61.1633 133.208 62.4273 133.208C63.9953 133.208 65.1633 132.6 65.9473 131.4L64.7633 130.728C64.2833 131.512 63.5153 131.896 62.4593 131.896C60.9393 131.896 59.8353 131.064 59.5633 129.64H66.2673ZM62.3313 126.104C63.6113 126.104 64.6673 126.904 64.9073 128.424H59.5633C59.8033 127.016 60.8433 126.104 62.3313 126.104ZM71.8994 124.792C70.7314 124.792 69.8674 125.24 69.3074 126.152V125H67.9154V133H69.3074V128.76C69.3074 126.968 70.2354 126.12 71.6274 126.12C72.8594 126.12 73.6114 126.872 73.6114 128.168V133H75.0034V128.088C75.0034 126.056 73.7714 124.792 71.8994 124.792ZM88.9626 122.872V121.8H87.5706V122.872H84.8026V123.896H87.5706V126.376C86.8826 125.32 85.8746 124.792 84.5466 124.792C83.4266 124.792 82.4666 125.208 81.6826 126.024C80.8986 126.84 80.4986 127.832 80.4986 129C80.4986 130.168 80.8986 131.176 81.6826 131.992C82.4666 132.808 83.4266 133.208 84.5466 133.208C85.8746 133.208 86.8826 132.68 87.5706 131.624V133H88.9626V123.896H90.0346V122.872H88.9626ZM84.7226 131.864C83.9226 131.864 83.2506 131.592 82.7066 131.048C82.1626 130.488 81.8906 129.816 81.8906 129C81.8906 128.184 82.1626 127.512 82.7066 126.968C83.2506 126.408 83.9226 126.136 84.7226 126.136C85.5386 126.136 86.2106 126.408 86.7546 126.968C87.2986 127.512 87.5706 128.184 87.5706 129C87.5706 129.816 87.2986 130.488 86.7546 131.048C86.2106 131.592 85.5386 131.864 84.7226 131.864ZM95.7883 124.088C97.2763 124.088 98.1723 123.288 98.1723 121.928H96.8763C96.8763 122.616 96.5083 122.968 95.7883 122.968C95.0683 122.968 94.7003 122.616 94.7003 121.928H93.4043C93.4043 123.288 94.3163 124.088 95.7883 124.088ZM97.8363 126.376C97.1483 125.32 96.1403 124.792 94.8123 124.792C93.6923 124.792 92.7323 125.208 91.9483 126.024C91.1643 126.84 90.7643 127.832 90.7643 129C90.7643 130.168 91.1643 131.176 91.9483 131.992C92.7323 132.808 93.6923 133.208 94.8123 133.208C96.1403 133.208 97.1483 132.68 97.8363 131.624V133H99.2283V125H97.8363V126.376ZM94.9883 131.864C94.1883 131.864 93.5163 131.592 92.9723 131.048C92.4283 130.488 92.1562 129.816 92.1562 129C92.1562 128.184 92.4283 127.512 92.9723 126.968C93.5163 126.408 94.1883 126.136 94.9883 126.136C95.8043 126.136 96.4763 126.408 97.0203 126.968C97.5643 127.512 97.8363 128.184 97.8363 129C97.8363 129.816 97.5643 130.488 97.0203 131.048C96.4763 131.592 95.8043 131.864 94.9883 131.864ZM105.321 124.792C104.153 124.792 103.289 125.24 102.729 126.152V125H101.337V133H102.729V128.76C102.729 126.968 103.657 126.12 105.049 126.12C106.281 126.12 107.033 126.872 107.033 128.168V133H108.425V128.088C108.425 126.056 107.193 124.792 105.321 124.792ZM117.009 126.376C116.321 125.32 115.313 124.792 114.001 124.792C112.865 124.792 111.889 125.192 111.105 126.008C110.321 126.808 109.921 127.784 109.921 128.952C109.921 130.12 110.321 131.096 111.105 131.912C111.889 132.728 112.865 133.128 114.001 133.128C115.297 133.128 116.305 132.6 117.009 131.528V132.664C117.009 134.184 116.001 135.112 114.337 135.112C113.041 135.112 112.161 134.664 111.729 133.768L110.513 134.456C111.169 135.72 112.513 136.408 114.305 136.408C115.425 136.408 116.385 136.072 117.185 135.416C117.985 134.76 118.385 133.848 118.385 132.664V125H117.009V126.376ZM117.009 128.952C117.009 129.768 116.737 130.44 116.193 130.984C115.649 131.528 114.977 131.8 114.161 131.8C113.345 131.8 112.673 131.528 112.129 130.984C111.585 130.44 111.312 129.768 111.312 128.952C111.312 128.152 111.585 127.48 112.129 126.936C112.673 126.392 113.345 126.12 114.161 126.12C114.977 126.12 115.649 126.392 116.193 126.936C116.737 127.48 117.009 128.152 117.009 128.952ZM13.6329 152.272L10.9129 146H9.42488L12.9129 153.968L12.7689 154.272C12.3049 155.44 11.5849 155.984 10.6089 155.904V157.2C12.2089 157.312 13.4729 156.304 14.1609 154.496L17.4249 146H15.9369L13.6329 152.272ZM23.3553 144.944H24.8433L23.1473 142.784H21.6113L19.9153 144.944H21.4033L22.3793 143.648L23.3553 144.944ZM26.2673 150.64C26.2993 150.432 26.3153 150.224 26.3153 150.016C26.3153 148.848 25.9473 147.856 25.1953 147.04C24.4593 146.208 23.4993 145.792 22.3313 145.792C21.0993 145.792 20.0913 146.192 19.3073 146.992C18.5233 147.792 18.1393 148.8 18.1393 150C18.1393 151.216 18.5393 152.224 19.3233 153.024C20.1233 153.808 21.1633 154.208 22.4273 154.208C23.9953 154.208 25.1633 153.6 25.9473 152.4L24.7633 151.728C24.2833 152.512 23.5153 152.896 22.4593 152.896C20.9393 152.896 19.8353 152.064 19.5633 150.64H26.2673ZM22.3313 147.104C23.6113 147.104 24.6673 147.904 24.9073 149.424H19.5633C19.8033 148.016 20.8433 147.104 22.3313 147.104ZM33.4354 150.24C33.4354 152.032 32.5074 152.88 31.1154 152.88C29.8834 152.88 29.1314 152.128 29.1314 150.832V146H27.7394V150.912C27.7394 152.944 28.9714 154.208 30.8434 154.208C32.0114 154.208 32.8754 153.76 33.4354 152.848V154H34.8274V146H33.4354V150.24ZM44.7066 154.208C46.2586 154.208 47.6186 153.392 48.3066 152.128L47.1226 151.44C46.6746 152.288 45.7786 152.832 44.7066 152.832C43.9066 152.832 43.2346 152.56 42.6906 152.016C42.1626 151.472 41.8906 150.8 41.8906 150C41.8906 149.184 42.1626 148.512 42.6906 147.968C43.2346 147.424 43.9066 147.152 44.7066 147.152C45.7786 147.152 46.6746 147.712 47.0746 148.56L48.2426 147.888C47.6186 146.608 46.2906 145.792 44.7066 145.792C43.5066 145.792 42.4986 146.192 41.6986 147.008C40.8986 147.808 40.4986 148.8 40.4986 150C40.4986 151.2 40.8986 152.192 41.6986 153.008C42.4986 153.808 43.5066 154.208 44.7066 154.208ZM55.0726 144.96H56.4646L54.8806 142.944H53.4566L51.8726 144.96H53.2646L54.1766 143.744L55.0726 144.96ZM56.3206 147.376C55.6326 146.32 54.6246 145.792 53.2966 145.792C52.1766 145.792 51.2166 146.208 50.4326 147.024C49.6486 147.84 49.2486 148.832 49.2486 150C49.2486 151.168 49.6486 152.176 50.4326 152.992C51.2166 153.808 52.1766 154.208 53.2966 154.208C54.6246 154.208 55.6326 153.68 56.3206 152.624V154H57.7126V146H56.3206V147.376ZM53.4726 152.864C52.6726 152.864 52.0006 152.592 51.4566 152.048C50.9126 151.488 50.6406 150.816 50.6406 150C50.6406 149.184 50.9126 148.512 51.4566 147.968C52.0006 147.408 52.6726 147.136 53.4726 147.136C54.2886 147.136 54.9606 147.408 55.5046 147.968C56.0486 148.512 56.3206 149.184 56.3206 150C56.3206 150.816 56.0486 151.488 55.5046 152.048C54.9606 152.592 54.2886 152.864 53.4726 152.864ZM57.3126 143.488L56.1126 141.52H54.5606L56.0486 143.488H57.3126ZM65.3416 150.24C65.3416 152.032 64.4136 152.88 63.0216 152.88C61.7896 152.88 61.0376 152.128 61.0376 150.832V146H59.6456V150.912C59.6456 152.944 60.8776 154.208 62.7496 154.208C63.9176 154.208 64.7816 153.76 65.3416 152.848V154H66.7336V146H65.3416V150.24ZM77.2049 146H75.0769V143.76L73.6849 144.176V146H72.1009V147.344H73.6849V151.68C73.6849 153.664 74.7729 154.32 77.2049 154V152.752C75.7809 152.816 75.0769 152.912 75.0769 151.68V147.344H77.2049V146ZM80.5958 144.96L79.8278 142.8H78.1958L79.2518 144.96H80.5958ZM80.2918 154H78.8997V146H80.2918V154ZM91.0554 145.792C89.9354 145.792 89.1034 146.24 88.5434 147.152C88.0474 146.24 87.2634 145.792 86.1914 145.792C85.1514 145.792 84.3514 146.224 83.8074 147.072V146H82.4154V154H83.8074V149.552C83.8074 147.936 84.6874 147.12 85.8554 147.12C86.8954 147.12 87.5514 147.84 87.5514 149.072V154H88.9434V149.552C88.9434 147.904 89.7114 147.12 90.9114 147.12C91.9834 147.12 92.6714 147.84 92.6714 149.072V154H94.0634V149.024C94.0634 147.04 92.8474 145.792 91.0554 145.792ZM106.634 147.376C105.946 146.32 104.938 145.792 103.626 145.792C102.49 145.792 101.514 146.192 100.73 147.008C99.9455 147.808 99.5455 148.784 99.5455 149.952C99.5455 151.12 99.9455 152.096 100.73 152.912C101.514 153.728 102.49 154.128 103.626 154.128C104.922 154.128 105.93 153.6 106.634 152.528V153.664C106.634 155.184 105.626 156.112 103.962 156.112C102.666 156.112 101.786 155.664 101.354 154.768L100.138 155.456C100.794 156.72 102.138 157.408 103.93 157.408C105.05 157.408 106.01 157.072 106.81 156.416C107.61 155.76 108.01 154.848 108.01 153.664V146H106.634V147.376ZM106.634 149.952C106.634 150.768 106.362 151.44 105.818 151.984C105.274 152.528 104.602 152.8 103.786 152.8C102.97 152.8 102.298 152.528 101.754 151.984C101.21 151.44 100.938 150.768 100.938 149.952C100.938 149.152 101.21 148.48 101.754 147.936C102.298 147.392 102.97 147.12 103.786 147.12C104.602 147.12 105.274 147.392 105.818 147.936C106.362 148.48 106.634 149.152 106.634 149.952ZM110.823 145.008C111.335 145.008 111.751 144.592 111.751 144.08C111.751 143.568 111.335 143.136 110.823 143.136C110.295 143.136 109.879 143.568 109.879 144.08C109.879 144.592 110.295 145.008 110.823 145.008ZM111.511 154V146H110.118V154H111.511ZM120.258 147.376C119.57 146.32 118.562 145.792 117.234 145.792C116.114 145.792 115.154 146.208 114.37 147.024C113.586 147.84 113.186 148.832 113.186 150C113.186 151.168 113.586 152.176 114.37 152.992C115.154 153.808 116.114 154.208 117.234 154.208C118.562 154.208 119.57 153.68 120.258 152.624V154H121.65V146H120.258V147.376ZM117.41 152.864C116.61 152.864 115.938 152.592 115.394 152.048C114.85 151.488 114.578 150.816 114.578 150C114.578 149.184 114.85 148.512 115.394 147.968C115.938 147.408 116.61 147.136 117.41 147.136C118.226 147.136 118.898 147.408 119.442 147.968C119.986 148.512 120.258 149.184 120.258 150C120.258 150.816 119.986 151.488 119.442 152.048C118.898 152.592 118.226 152.864 117.41 152.864ZM22.881 169.16C22.881 168.472 23.521 168.088 24.305 168.088C25.153 168.088 25.729 168.424 26.017 169.112L27.185 168.456C26.673 167.416 25.601 166.792 24.305 166.792C23.489 166.792 22.817 167.016 22.273 167.464C21.745 167.912 21.473 168.488 21.473 169.176C21.473 170.872 23.105 171.288 24.369 171.624C25.249 171.832 25.953 172.184 25.953 172.808C25.953 173.56 25.281 173.896 24.369 173.896C23.393 173.896 22.641 173.416 22.385 172.648L21.185 173.336C21.649 174.472 22.817 175.208 24.369 175.208C25.249 175.208 25.953 174.984 26.513 174.552C27.073 174.12 27.361 173.528 27.361 172.808C27.377 171.096 25.713 170.632 24.465 170.36C23.585 170.12 22.881 169.784 22.881 169.16ZM35.9851 166.008C35.9851 166.712 35.8731 167 35.1691 167H34.5291V171.24C34.5291 173.032 33.6011 173.88 32.2091 173.88C30.9771 173.88 30.2251 173.128 30.2251 171.832V167H28.8331V171.912C28.8331 173.944 30.0651 175.208 31.9371 175.208C33.1051 175.208 33.9691 174.76 34.5291 173.848V175H35.9211V168.008C36.8971 167.816 37.2171 167.16 37.2171 166.008V165.816H35.9851V166.008ZM45.0644 176.6C42.7124 171.912 42.7124 166.888 45.0644 162.2H43.6724C41.3204 166.888 41.3204 171.912 43.6724 176.6H45.0644ZM55.4688 163.8L51.9168 169.72L48.3488 163.8H46.6688V175H48.1568V166.264L51.8208 172.344H52.0128L55.6768 166.248V175H57.1488V163.8H55.4688ZM60.1038 166.008C60.6158 166.008 61.0318 165.592 61.0318 165.08C61.0318 164.568 60.6158 164.136 60.1038 164.136C59.5758 164.136 59.1598 164.568 59.1598 165.08C59.1598 165.592 59.5758 166.008 60.1038 166.008ZM60.7918 175V167H59.3997V175H60.7918ZM67.6034 165.944H68.9954L67.4114 163.928H65.9874L64.4034 165.944H65.7954L66.7074 164.728L67.6034 165.944ZM70.5954 171.64C70.6274 171.432 70.6434 171.224 70.6434 171.016C70.6434 169.848 70.2754 168.856 69.5234 168.04C68.7874 167.208 67.8274 166.792 66.6594 166.792C65.4274 166.792 64.4194 167.192 63.6354 167.992C62.8514 168.792 62.4674 169.8 62.4674 171C62.4674 172.216 62.8674 173.224 63.6514 174.024C64.4514 174.808 65.4914 175.208 66.7554 175.208C68.3234 175.208 69.4914 174.6 70.2754 173.4L69.0914 172.728C68.6114 173.512 67.8434 173.896 66.7874 173.896C65.2674 173.896 64.1634 173.064 63.8914 171.64H70.5954ZM66.6594 168.104C67.9394 168.104 68.9954 168.904 69.2354 170.424H63.8914C64.1314 169.016 65.1714 168.104 66.6594 168.104ZM65.5714 163.496C65.5714 162.536 65.9234 162.552 66.6434 163.144C67.7634 163.928 68.9314 163.656 68.9314 161.688H67.8434C67.8434 162.632 67.5074 162.616 66.7714 162.024C65.6674 161.24 64.4834 161.496 64.4834 163.496H65.5714ZM76.2275 166.792C75.0595 166.792 74.1955 167.24 73.6355 168.152V167H72.2435V175H73.6355V170.76C73.6355 168.968 74.5635 168.12 75.9555 168.12C77.1875 168.12 77.9395 168.872 77.9395 170.168V175H79.3315V170.088C79.3315 168.056 78.0995 166.792 76.2275 166.792ZM89.6908 166.792C88.3628 166.792 87.3548 167.32 86.6668 168.376V167H85.2747V178.2H86.6668V173.624C87.3548 174.68 88.3628 175.208 89.6908 175.208C90.8108 175.208 91.7708 174.808 92.5548 173.992C93.3388 173.176 93.7388 172.168 93.7388 171C93.7388 169.832 93.3388 168.84 92.5548 168.024C91.7708 167.208 90.8108 166.792 89.6908 166.792ZM89.5148 173.864C88.6988 173.864 88.0268 173.592 87.4828 173.048C86.9388 172.488 86.6668 171.816 86.6668 171C86.6668 170.184 86.9388 169.512 87.4828 168.968C88.0268 168.408 88.6988 168.136 89.5148 168.136C90.3148 168.136 90.9868 168.408 91.5308 168.968C92.0748 169.512 92.3468 170.184 92.3468 171C92.3468 171.816 92.0748 172.488 91.5308 173.048C90.9868 173.592 90.3148 173.864 89.5148 173.864ZM99.3838 166.792C98.2158 166.792 97.3518 167.24 96.7918 168.152V163.8H95.3997V175H96.7918V170.76C96.7918 168.968 97.7198 168.12 99.1118 168.12C100.344 168.12 101.096 168.872 101.096 170.168V175H102.488V170.088C102.488 168.056 101.256 166.792 99.3838 166.792ZM104.159 165.96H105.503L106.559 163.8H104.911L104.159 165.96ZM104.431 175V167H105.823V175H104.431ZM108.683 176.6C111.035 171.912 111.035 166.888 108.683 162.2H107.291C109.643 166.888 109.643 171.912 107.291 176.6H108.683Z" fill="#212E5E"/>
<path d="M252.681 139.067C263.355 139.067 266.024 135.79 266.024 134.152C269.535 141.174 271.641 139.067 279.366 145.387C289.9 157.326 283.58 170.668 277.259 176.988C270.939 183.309 248.468 188.224 238.636 172.775C228.805 157.326 240.743 139.77 252.681 139.067Z" fill="#FF6D34"/>
<path d="M270.237 122.916C270.237 120.201 268.665 118 266.726 118C264.787 118 263.215 120.201 263.215 122.916C263.215 125.631 266.024 125.022 266.726 127.831C267.428 125.022 270.237 125.631 270.237 122.916Z" fill="#FF6D34"/>
<path d="M264.275 165.047V162.387H259.015L261.755 159.647C263.295 158.107 264.055 156.627 264.055 155.167C264.055 153.827 263.595 152.747 262.695 151.967C261.795 151.167 260.695 150.767 259.435 150.767C257.455 150.767 255.695 151.807 254.815 153.727L257.135 155.087C257.635 153.987 258.415 153.447 259.475 153.447C260.535 153.447 261.295 154.167 261.295 155.267C261.295 156.007 260.755 156.947 259.695 158.067L254.915 162.987V165.047H264.275Z" fill="white"/>
<path d="M199.236 9.448V10.792H203.348C203.044 12.536 201.604 13.752 199.364 13.752C198.052 13.752 196.98 13.336 196.148 12.504C195.332 11.672 194.916 10.632 194.916 9.4C194.916 8.168 195.332 7.128 196.148 6.296C196.964 5.448 198.02 5.032 199.3 5.032C200.852 5.032 202.244 5.832 202.884 7.048L204.164 6.296C203.7 5.48 203.028 4.84 202.164 4.344C201.3 3.848 200.356 3.592 199.316 3.592C197.636 3.592 196.228 4.152 195.108 5.288C194.004 6.408 193.444 7.784 193.444 9.4C193.444 11.016 194.004 12.392 195.108 13.528C196.228 14.648 197.636 15.208 199.348 15.208C200.996 15.208 202.324 14.728 203.332 13.768C204.34 12.792 204.836 11.576 204.836 10.12V9.448H199.236ZM207.205 6.008C207.717 6.008 208.133 5.592 208.133 5.08C208.133 4.568 207.717 4.136 207.205 4.136C206.677 4.136 206.261 4.568 206.261 5.08C206.261 5.592 206.677 6.008 207.205 6.008ZM207.893 15V7H206.501V15H207.893ZM216.641 8.376C215.953 7.32 214.945 6.792 213.617 6.792C212.497 6.792 211.537 7.208 210.753 8.024C209.969 8.84 209.569 9.832 209.569 11C209.569 12.168 209.969 13.176 210.753 13.992C211.537 14.808 212.497 15.208 213.617 15.208C214.945 15.208 215.953 14.68 216.641 13.624V15H218.033V7H216.641V8.376ZM213.793 13.864C212.993 13.864 212.321 13.592 211.777 13.048C211.233 12.488 210.961 11.816 210.961 11C210.961 10.184 211.233 9.512 211.777 8.968C212.321 8.408 212.993 8.136 213.793 8.136C214.609 8.136 215.281 8.408 215.825 8.968C216.369 9.512 216.641 10.184 216.641 11C216.641 11.816 216.369 12.488 215.825 13.048C215.281 13.592 214.609 13.864 213.793 13.864ZM225.342 9.16C225.342 8.472 225.982 8.088 226.766 8.088C227.614 8.088 228.19 8.424 228.478 9.112L229.646 8.456C229.134 7.416 228.062 6.792 226.766 6.792C225.95 6.792 225.278 7.016 224.734 7.464C224.206 7.912 223.934 8.488 223.934 9.176C223.934 10.872 225.566 11.288 226.83 11.624C227.71 11.832 228.414 12.184 228.414 12.808C228.414 13.56 227.742 13.896 226.83 13.896C225.854 13.896 225.102 13.416 224.846 12.648L223.646 13.336C224.11 14.472 225.278 15.208 226.83 15.208C227.71 15.208 228.414 14.984 228.974 14.552C229.534 14.12 229.822 13.528 229.822 12.808C229.838 11.096 228.174 10.632 226.926 10.36C226.046 10.12 225.342 9.784 225.342 9.16ZM238.446 6.008C238.446 6.712 238.334 7 237.63 7H236.99V11.24C236.99 13.032 236.062 13.88 234.67 13.88C233.438 13.88 232.686 13.128 232.686 11.832V7H231.294V11.912C231.294 13.944 232.526 15.208 234.398 15.208C235.566 15.208 236.43 14.76 236.99 13.848V15H238.382V8.008C239.358 7.816 239.678 7.16 239.678 6.008V5.816H238.446V6.008ZM248.485 6.792C247.317 6.792 246.453 7.24 245.893 8.152V7H244.501V15H245.893V10.76C245.893 8.968 246.821 8.12 248.213 8.12C249.445 8.12 250.197 8.872 250.197 10.168V15H251.589V10.088C251.589 8.056 250.357 6.792 248.485 6.792ZM257.517 6.792C256.349 6.792 255.485 7.24 254.925 8.152V3.8H253.533V15H254.925V10.76C254.925 8.968 255.853 8.12 257.245 8.12C258.477 8.12 259.229 8.872 259.229 10.168V15H260.621V10.088C260.621 8.056 259.389 6.792 257.517 6.792ZM267.94 5.96H269.332L267.748 3.944H266.324L264.74 5.96H266.132L267.044 4.744L267.94 5.96ZM269.188 8.376C268.5 7.32 267.492 6.792 266.164 6.792C265.044 6.792 264.084 7.208 263.3 8.024C262.516 8.84 262.116 9.832 262.116 11C262.116 12.168 262.516 13.176 263.3 13.992C264.084 14.808 265.044 15.208 266.164 15.208C267.492 15.208 268.5 14.68 269.188 13.624V15H270.58V7H269.188V8.376ZM266.34 13.864C265.54 13.864 264.868 13.592 264.324 13.048C263.78 12.488 263.508 11.816 263.508 11C263.508 10.184 263.78 9.512 264.324 8.968C264.868 8.408 265.54 8.136 266.34 8.136C267.156 8.136 267.828 8.408 268.372 8.968C268.916 9.512 269.188 10.184 269.188 11C269.188 11.816 268.916 12.488 268.372 13.048C267.828 13.592 267.156 13.864 266.34 13.864ZM266.436 18.232C266.948 18.232 267.364 17.816 267.364 17.304C267.364 16.792 266.948 16.36 266.436 16.36C265.908 16.36 265.492 16.792 265.492 17.304C265.492 17.816 265.908 18.232 266.436 18.232ZM276.673 6.792C275.505 6.792 274.641 7.24 274.081 8.152V7H272.689V15H274.081V10.76C274.081 8.968 275.009 8.12 276.401 8.12C277.633 8.12 278.385 8.872 278.385 10.168V15H279.777V10.088C279.777 8.056 278.545 6.792 276.673 6.792ZM289 13.272L286.28 7H284.792L288.28 14.968L288.136 15.272C287.672 16.44 286.952 16.984 285.976 16.904V18.2C287.576 18.312 288.84 17.304 289.528 15.496L292.792 7H291.304L289 13.272ZM298.722 5.944H300.21L298.514 3.784H296.978L295.282 5.944H296.77L297.746 4.648L298.722 5.944ZM301.634 11.64C301.666 11.432 301.682 11.224 301.682 11.016C301.682 9.848 301.314 8.856 300.562 8.04C299.826 7.208 298.866 6.792 297.698 6.792C296.466 6.792 295.458 7.192 294.674 7.992C293.89 8.792 293.506 9.8 293.506 11C293.506 12.216 293.906 13.224 294.69 14.024C295.49 14.808 296.53 15.208 297.794 15.208C299.362 15.208 300.53 14.6 301.314 13.4L300.13 12.728C299.65 13.512 298.882 13.896 297.826 13.896C296.306 13.896 295.202 13.064 294.93 11.64H301.634ZM297.698 8.104C298.978 8.104 300.034 8.904 300.274 10.424H294.93C295.17 9.016 296.21 8.104 297.698 8.104ZM308.803 11.24C308.803 13.032 307.875 13.88 306.483 13.88C305.251 13.88 304.499 13.128 304.499 11.832V7H303.107V11.912C303.107 13.944 304.339 15.208 306.211 15.208C307.379 15.208 308.243 14.76 308.803 13.848V15H310.195V7H308.803V11.24ZM320.074 15.208C321.626 15.208 322.986 14.392 323.674 13.128L322.49 12.44C322.042 13.288 321.146 13.832 320.074 13.832C319.274 13.832 318.602 13.56 318.058 13.016C317.53 12.472 317.258 11.8 317.258 11C317.258 10.184 317.53 9.512 318.058 8.968C318.602 8.424 319.274 8.152 320.074 8.152C321.146 8.152 322.042 8.712 322.442 9.56L323.61 8.888C322.986 7.608 321.658 6.792 320.074 6.792C318.874 6.792 317.866 7.192 317.066 8.008C316.266 8.808 315.866 9.8 315.866 11C315.866 12.2 316.266 13.192 317.066 14.008C317.866 14.808 318.874 15.208 320.074 15.208ZM330.44 5.96H331.832L330.248 3.944H328.824L327.24 5.96H328.632L329.544 4.744L330.44 5.96ZM331.688 8.376C331 7.32 329.992 6.792 328.664 6.792C327.544 6.792 326.584 7.208 325.8 8.024C325.016 8.84 324.616 9.832 324.616 11C324.616 12.168 325.016 13.176 325.8 13.992C326.584 14.808 327.544 15.208 328.664 15.208C329.992 15.208 331 14.68 331.688 13.624V15H333.08V7H331.688V8.376ZM328.84 13.864C328.04 13.864 327.368 13.592 326.824 13.048C326.28 12.488 326.008 11.816 326.008 11C326.008 10.184 326.28 9.512 326.824 8.968C327.368 8.408 328.04 8.136 328.84 8.136C329.656 8.136 330.328 8.408 330.872 8.968C331.416 9.512 331.688 10.184 331.688 11C331.688 11.816 331.416 12.488 330.872 13.048C330.328 13.592 329.656 13.864 328.84 13.864ZM332.68 4.488L331.48 2.52H329.928L331.416 4.488H332.68ZM340.709 11.24C340.709 13.032 339.781 13.88 338.389 13.88C337.157 13.88 336.405 13.128 336.405 11.832V7H335.013V11.912C335.013 13.944 336.245 15.208 338.117 15.208C339.285 15.208 340.149 14.76 340.709 13.848V15H342.101V7H340.709V11.24ZM193.971 28H191.843V25.76L190.451 26.176V28H188.867V29.344H190.451V33.68C190.451 35.664 191.539 36.32 193.971 36V34.752C192.547 34.816 191.843 34.912 191.843 33.68V29.344H193.971V28ZM202.641 27.008C202.641 27.712 202.529 28 201.825 28H201.185V32.24C201.185 34.032 200.257 34.88 198.865 34.88C197.633 34.88 196.881 34.128 196.881 32.832V28H195.489V32.912C195.489 34.944 196.721 36.208 198.593 36.208C199.761 36.208 200.625 35.76 201.185 34.848V36H202.577V29.008C203.553 28.816 203.873 28.16 203.873 27.008V26.816H202.641V27.008ZM211.449 34.992C212.265 34.176 212.681 33.184 212.681 32C212.681 30.816 212.265 29.824 211.449 29.008C211.417 28.992 211.401 28.976 211.385 28.944C212.153 28.688 212.425 28.048 212.425 27.008V26.816H211.193V27.008C211.193 27.712 211.081 28 210.377 28H209.833C209.401 27.856 208.937 27.792 208.457 27.792C207.289 27.792 206.281 28.192 205.465 29.008C204.649 29.824 204.249 30.816 204.249 32C204.249 33.184 204.649 34.176 205.465 34.992C206.281 35.808 207.289 36.208 208.457 36.208C209.625 36.208 210.633 35.808 211.449 34.992ZM208.457 34.848C207.673 34.848 207.001 34.576 206.457 34.032C205.913 33.488 205.641 32.816 205.641 32C205.641 31.184 205.913 30.512 206.457 29.968C207.001 29.424 207.673 29.152 208.457 29.152C209.257 29.152 209.929 29.424 210.473 29.968C211.017 30.512 211.289 31.184 211.289 32C211.289 32.816 211.017 33.488 210.473 34.032C209.929 34.576 209.257 34.848 208.457 34.848ZM218.306 27.792C217.138 27.792 216.274 28.24 215.714 29.152V28H214.322V36H215.714V31.76C215.714 29.968 216.642 29.12 218.034 29.12C219.266 29.12 220.018 29.872 220.018 31.168V36H221.41V31.088C221.41 29.056 220.178 27.792 218.306 27.792ZM229.993 29.376C229.305 28.32 228.297 27.792 226.985 27.792C225.849 27.792 224.873 28.192 224.089 29.008C223.305 29.808 222.905 30.784 222.905 31.952C222.905 33.12 223.305 34.096 224.089 34.912C224.873 35.728 225.849 36.128 226.985 36.128C228.281 36.128 229.289 35.6 229.993 34.528V35.664C229.993 37.184 228.985 38.112 227.321 38.112C226.025 38.112 225.145 37.664 224.713 36.768L223.497 37.456C224.153 38.72 225.497 39.408 227.289 39.408C228.409 39.408 229.369 39.072 230.169 38.416C230.969 37.76 231.369 36.848 231.369 35.664V28H229.993V29.376ZM229.993 31.952C229.993 32.768 229.721 33.44 229.177 33.984C228.633 34.528 227.961 34.8 227.145 34.8C226.329 34.8 225.657 34.528 225.113 33.984C224.569 33.44 224.297 32.768 224.297 31.952C224.297 31.152 224.569 30.48 225.113 29.936C225.657 29.392 226.329 29.12 227.145 29.12C227.961 29.12 228.633 29.392 229.177 29.936C229.721 30.48 229.993 31.152 229.993 31.952ZM241.558 24.8L240.278 26.912H241.622L243.238 24.8H241.558ZM244.454 27.008C244.454 27.712 244.342 28 243.638 28H242.998V32.24C242.998 34.032 242.07 34.88 240.678 34.88C239.446 34.88 238.694 34.128 238.694 32.832V28H237.302V32.912C237.302 34.944 238.534 36.208 240.406 36.208C241.574 36.208 242.438 35.76 242.998 34.848V36H244.39V29.008C245.366 28.816 245.686 28.16 245.686 27.008V26.816H244.454V27.008ZM250.493 27.792C249.325 27.792 248.461 28.24 247.901 29.152V28H246.509V36H247.901V31.76C247.901 29.968 248.829 29.12 250.221 29.12C251.453 29.12 252.205 29.872 252.205 31.168V36H253.597V31.088C253.597 29.056 252.365 27.792 250.493 27.792ZM262.18 29.376C261.492 28.32 260.484 27.792 259.172 27.792C258.036 27.792 257.06 28.192 256.276 29.008C255.492 29.808 255.092 30.784 255.092 31.952C255.092 33.12 255.492 34.096 256.276 34.912C257.06 35.728 258.036 36.128 259.172 36.128C260.468 36.128 261.476 35.6 262.18 34.528V35.664C262.18 37.184 261.172 38.112 259.508 38.112C258.212 38.112 257.332 37.664 256.9 36.768L255.684 37.456C256.34 38.72 257.684 39.408 259.476 39.408C260.596 39.408 261.556 39.072 262.356 38.416C263.156 37.76 263.556 36.848 263.556 35.664V28H262.18V29.376ZM262.18 31.952C262.18 32.768 261.908 33.44 261.364 33.984C260.82 34.528 260.148 34.8 259.332 34.8C258.516 34.8 257.844 34.528 257.3 33.984C256.756 33.44 256.484 32.768 256.484 31.952C256.484 31.152 256.756 30.48 257.3 29.936C257.844 29.392 258.516 29.12 259.332 29.12C260.148 29.12 260.82 29.392 261.364 29.936C261.908 30.48 262.18 31.152 262.18 31.952ZM272.753 34.512L270.241 28H268.737L271.937 36H273.569L276.769 28H275.265L272.753 34.512ZM280.955 26.864H282.299L283.915 24.752H282.235L280.955 26.864ZM284.699 34.992C285.515 34.176 285.931 33.184 285.931 32C285.931 30.816 285.515 29.824 284.699 29.008C284.667 28.992 284.651 28.976 284.635 28.944C285.403 28.688 285.675 28.048 285.675 27.008V26.816H284.443V27.008C284.443 27.712 284.331 28 283.627 28H283.083C282.651 27.856 282.187 27.792 281.707 27.792C280.539 27.792 279.531 28.192 278.715 29.008C277.899 29.824 277.499 30.816 277.499 32C277.499 33.184 277.899 34.176 278.715 34.992C279.531 35.808 280.539 36.208 281.707 36.208C282.875 36.208 283.883 35.808 284.699 34.992ZM281.707 34.848C280.923 34.848 280.251 34.576 279.707 34.032C279.163 33.488 278.891 32.816 278.891 32C278.891 31.184 279.163 30.512 279.707 29.968C280.251 29.424 280.923 29.152 281.707 29.152C282.507 29.152 283.179 29.424 283.723 29.968C284.267 30.512 284.539 31.184 284.539 32C284.539 32.816 284.267 33.488 283.723 34.032C283.179 34.576 282.507 34.848 281.707 34.848ZM288.276 27.008C288.788 27.008 289.204 26.592 289.204 26.08C289.204 25.568 288.788 25.136 288.276 25.136C287.748 25.136 287.332 25.568 287.332 26.08C287.332 26.592 287.748 27.008 288.276 27.008ZM288.964 36V28H287.572V36H288.964ZM298.847 36.208C300.399 36.208 301.759 35.392 302.447 34.128L301.263 33.44C300.815 34.288 299.919 34.832 298.847 34.832C298.047 34.832 297.375 34.56 296.831 34.016C296.303 33.472 296.031 32.8 296.031 32C296.031 31.184 296.303 30.512 296.831 29.968C297.375 29.424 298.047 29.152 298.847 29.152C299.919 29.152 300.815 29.712 301.215 30.56L302.383 29.888C301.759 28.608 300.431 27.792 298.847 27.792C297.647 27.792 296.639 28.192 295.839 29.008C295.039 29.808 294.639 30.8 294.639 32C294.639 33.2 295.039 34.192 295.839 35.008C296.639 35.808 297.647 36.208 298.847 36.208ZM307.821 27.792C306.653 27.792 305.789 28.24 305.229 29.152V24.8H303.837V36H305.229V31.76C305.229 29.968 306.157 29.12 307.549 29.12C308.781 29.12 309.533 29.872 309.533 31.168V36H310.925V31.088C310.925 29.056 309.693 27.792 307.821 27.792ZM318.389 32.24C318.389 34.032 317.461 34.88 316.069 34.88C314.837 34.88 314.085 34.128 314.085 32.832V28H312.693V32.912C312.693 34.944 313.924 36.208 315.797 36.208C316.965 36.208 317.829 35.76 318.389 34.848V36H319.781V28H318.389V32.24ZM325.18 34.272L322.46 28H320.972L324.46 35.968L324.316 36.272C323.852 37.44 323.132 37.984 322.156 37.904V39.2C323.756 39.312 325.02 38.304 325.708 36.496L328.972 28H327.484L325.18 34.272ZM334.902 26.944H336.39L334.694 24.784H333.158L331.462 26.944H332.95L333.926 25.648L334.902 26.944ZM337.814 32.64C337.846 32.432 337.862 32.224 337.862 32.016C337.862 30.848 337.494 29.856 336.742 29.04C336.006 28.208 335.046 27.792 333.878 27.792C332.646 27.792 331.638 28.192 330.854 28.992C330.07 29.792 329.686 30.8 329.686 32C329.686 33.216 330.086 34.224 330.87 35.024C331.67 35.808 332.71 36.208 333.974 36.208C335.542 36.208 336.71 35.6 337.494 34.4L336.31 33.728C335.83 34.512 335.062 34.896 334.006 34.896C332.486 34.896 331.382 34.064 331.11 32.64H337.814ZM333.878 29.104C335.158 29.104 336.214 29.904 336.454 31.424H331.11C331.35 30.016 332.39 29.104 333.878 29.104ZM343.446 27.792C342.278 27.792 341.414 28.24 340.854 29.152V28H339.462V36H340.854V31.76C340.854 29.968 341.782 29.12 343.174 29.12C344.406 29.12 345.158 29.872 345.158 31.168V36H346.55V31.088C346.55 29.056 345.318 27.792 343.446 27.792ZM193.071 48.792C191.951 48.792 191.119 49.24 190.559 50.152C190.063 49.24 189.279 48.792 188.207 48.792C187.167 48.792 186.367 49.224 185.823 50.072V49H184.431V57H185.823V52.552C185.823 50.936 186.703 50.12 187.871 50.12C188.911 50.12 189.567 50.84 189.567 52.072V57H190.959V52.552C190.959 50.904 191.727 50.12 192.927 50.12C193.999 50.12 194.687 50.84 194.687 52.072V57H196.079V52.024C196.079 50.04 194.863 48.792 193.071 48.792ZM202.729 47.912H204.217L202.521 45.752H200.985L199.289 47.912H200.777L201.753 46.616L202.729 47.912ZM198.777 50.008C197.961 50.824 197.561 51.816 197.561 53C197.561 54.184 197.961 55.176 198.777 55.992C199.593 56.808 200.601 57.208 201.769 57.208C202.937 57.208 203.945 56.808 204.761 55.992C205.577 55.176 205.993 54.184 205.993 53C205.993 51.816 205.577 50.824 204.761 50.008C203.945 49.192 202.937 48.792 201.769 48.792C200.601 48.792 199.593 49.192 198.777 50.008ZM201.769 55.848C200.985 55.848 200.313 55.576 199.769 55.032C199.225 54.488 198.953 53.816 198.953 53C198.953 52.184 199.225 51.512 199.769 50.968C200.313 50.424 200.985 50.152 201.769 50.152C202.569 50.152 203.241 50.424 203.785 50.968C204.329 51.512 204.601 52.184 204.601 53C204.601 53.816 204.329 54.488 203.785 55.032C203.241 55.576 202.569 55.848 201.769 55.848ZM211.618 48.792C210.45 48.792 209.586 49.24 209.026 50.152V49H207.634V57H209.026V52.76C209.026 50.968 209.954 50.12 211.346 50.12C212.578 50.12 213.33 50.872 213.33 52.168V57H214.722V52.088C214.722 50.056 213.49 48.792 211.618 48.792ZM224.425 57.208C225.977 57.208 227.337 56.392 228.025 55.128L226.841 54.44C226.393 55.288 225.497 55.832 224.425 55.832C223.625 55.832 222.953 55.56 222.409 55.016C221.881 54.472 221.609 53.8 221.609 53C221.609 52.184 221.881 51.512 222.409 50.968C222.953 50.424 223.625 50.152 224.425 50.152C225.497 50.152 226.393 50.712 226.793 51.56L227.961 50.888C227.337 49.608 226.009 48.792 224.425 48.792C223.225 48.792 222.217 49.192 221.417 50.008C220.617 50.808 220.217 51.8 220.217 53C220.217 54.2 220.617 55.192 221.417 56.008C222.217 56.808 223.225 57.208 224.425 57.208ZM233.351 47.96C233.303 47.592 233.431 47.496 233.639 47.4C233.943 47.24 234.231 46.888 234.231 46.28C234.231 45.464 233.607 45.08 232.855 45.08C232.151 45.08 231.527 45.384 231.223 46.136L232.119 46.52C232.247 46.136 232.567 46.024 232.855 46.024C233.127 46.024 233.255 46.136 233.255 46.296C233.255 46.552 233.047 46.648 232.951 46.696C232.935 46.712 232.695 46.856 232.695 46.856C232.391 47.096 232.375 47.256 232.375 47.96H233.351ZM234.935 53.24C234.935 55.032 234.007 55.88 232.615 55.88C231.383 55.88 230.631 55.128 230.631 53.832V49H229.239V53.912C229.239 55.944 230.471 57.208 232.343 57.208C233.511 57.208 234.375 56.76 234.935 55.848V57H236.327V49H234.935V53.24ZM245.071 50.376C244.383 49.32 243.375 48.792 242.047 48.792C240.927 48.792 239.967 49.208 239.183 50.024C238.399 50.84 237.999 51.832 237.999 53C237.999 54.168 238.399 55.176 239.183 55.992C239.967 56.808 240.927 57.208 242.047 57.208C243.375 57.208 244.383 56.68 245.071 55.624V57H246.463V49H245.071V50.376ZM242.223 55.864C241.423 55.864 240.751 55.592 240.207 55.048C239.663 54.488 239.391 53.816 239.391 53C239.391 52.184 239.663 51.512 240.207 50.968C240.751 50.408 241.423 50.136 242.223 50.136C243.039 50.136 243.711 50.408 244.255 50.968C244.799 51.512 245.071 52.184 245.071 53C245.071 53.816 244.799 54.488 244.255 55.048C243.711 55.592 243.039 55.864 242.223 55.864ZM261.212 48.792C260.092 48.792 259.26 49.24 258.7 50.152C258.204 49.24 257.42 48.792 256.348 48.792C255.308 48.792 254.508 49.224 253.964 50.072V49H252.572V57H253.964V52.552C253.964 50.936 254.844 50.12 256.012 50.12C257.052 50.12 257.708 50.84 257.708 52.072V57H259.1V52.552C259.1 50.904 259.868 50.12 261.068 50.12C262.14 50.12 262.828 50.84 262.828 52.072V57H264.22V52.024C264.22 50.04 263.004 48.792 261.212 48.792ZM267.846 47.96L267.078 45.8H265.446L266.502 47.96H267.846ZM267.542 57H266.15V49H267.542V57ZM273.649 48.792C272.481 48.792 271.617 49.24 271.057 50.152V49H269.665V57H271.057V52.76C271.057 50.968 271.985 50.12 273.377 50.12C274.609 50.12 275.361 50.872 275.361 52.168V57H276.753V52.088C276.753 50.056 275.521 48.792 273.649 48.792ZM282.681 48.792C281.513 48.792 280.649 49.24 280.089 50.152V45.8H278.697V57H280.089V52.76C280.089 50.968 281.017 50.12 282.409 50.12C283.641 50.12 284.393 50.872 284.393 52.168V57H285.785V52.088C285.785 50.056 284.553 48.792 282.681 48.792ZM294.816 55.512L292.304 49H290.8L294 57H295.632L298.832 49H297.328L294.816 55.512ZM304.345 45.8H302.665L304.281 47.912H305.625L304.345 45.8ZM306.633 50.376C305.945 49.32 304.937 48.792 303.609 48.792C302.489 48.792 301.529 49.208 300.745 50.024C299.961 50.84 299.561 51.832 299.561 53C299.561 54.168 299.961 55.176 300.745 55.992C301.529 56.808 302.489 57.208 303.609 57.208C304.937 57.208 305.945 56.68 306.633 55.624V57H308.025V49H306.633V50.376ZM303.785 55.864C302.985 55.864 302.313 55.592 301.769 55.048C301.225 54.488 300.953 53.816 300.953 53C300.953 52.184 301.225 51.512 301.769 50.968C302.313 50.408 302.985 50.136 303.785 50.136C304.601 50.136 305.273 50.408 305.817 50.968C306.361 51.512 306.633 52.184 306.633 53C306.633 53.816 306.361 54.488 305.817 55.048C305.273 55.592 304.601 55.864 303.785 55.864ZM322.15 46.872V45.8H320.758V46.872H317.99V47.896H320.758V50.376C320.07 49.32 319.062 48.792 317.734 48.792C316.614 48.792 315.654 49.208 314.87 50.024C314.086 50.84 313.686 51.832 313.686 53C313.686 54.168 314.086 55.176 314.87 55.992C315.654 56.808 316.614 57.208 317.734 57.208C319.062 57.208 320.07 56.68 320.758 55.624V57H322.15V47.896H323.222V46.872H322.15ZM317.91 55.864C317.11 55.864 316.438 55.592 315.894 55.048C315.35 54.488 315.078 53.816 315.078 53C315.078 52.184 315.35 51.512 315.894 50.968C316.438 50.408 317.11 50.136 317.91 50.136C318.726 50.136 319.398 50.408 319.942 50.968C320.486 51.512 320.758 52.184 320.758 53C320.758 53.816 320.486 54.488 319.942 55.048C319.398 55.592 318.726 55.864 317.91 55.864ZM328.976 48.088C330.464 48.088 331.36 47.288 331.36 45.928H330.064C330.064 46.616 329.696 46.968 328.976 46.968C328.256 46.968 327.888 46.616 327.888 45.928H326.592C326.592 47.288 327.504 48.088 328.976 48.088ZM331.024 50.376C330.336 49.32 329.328 48.792 328 48.792C326.88 48.792 325.92 49.208 325.136 50.024C324.352 50.84 323.952 51.832 323.952 53C323.952 54.168 324.352 55.176 325.136 55.992C325.92 56.808 326.88 57.208 328 57.208C329.328 57.208 330.336 56.68 331.024 55.624V57H332.416V49H331.024V50.376ZM328.176 55.864C327.376 55.864 326.704 55.592 326.16 55.048C325.616 54.488 325.344 53.816 325.344 53C325.344 52.184 325.616 51.512 326.16 50.968C326.704 50.408 327.376 50.136 328.176 50.136C328.992 50.136 329.664 50.408 330.208 50.968C330.752 51.512 331.024 52.184 331.024 53C331.024 53.816 330.752 54.488 330.208 55.048C329.664 55.592 328.992 55.864 328.176 55.864ZM338.509 48.792C337.341 48.792 336.477 49.24 335.917 50.152V49H334.525V57H335.917V52.76C335.917 50.968 336.845 50.12 338.237 50.12C339.469 50.12 340.221 50.872 340.221 52.168V57H341.613V52.088C341.613 50.056 340.381 48.792 338.509 48.792ZM350.196 50.376C349.508 49.32 348.5 48.792 347.188 48.792C346.052 48.792 345.076 49.192 344.292 50.008C343.508 50.808 343.108 51.784 343.108 52.952C343.108 54.12 343.508 55.096 344.292 55.912C345.076 56.728 346.052 57.128 347.188 57.128C348.484 57.128 349.492 56.6 350.196 55.528V56.664C350.196 58.184 349.188 59.112 347.524 59.112C346.228 59.112 345.348 58.664 344.916 57.768L343.7 58.456C344.356 59.72 345.7 60.408 347.492 60.408C348.612 60.408 349.572 60.072 350.372 59.416C351.172 58.76 351.572 57.848 351.572 56.664V49H350.196V50.376ZM350.196 52.952C350.196 53.768 349.924 54.44 349.38 54.984C348.836 55.528 348.164 55.8 347.348 55.8C346.532 55.8 345.86 55.528 345.316 54.984C344.772 54.44 344.5 53.768 344.5 52.952C344.5 52.152 344.772 51.48 345.316 50.936C345.86 50.392 346.532 50.12 347.348 50.12C348.164 50.12 348.836 50.392 349.38 50.936C349.924 51.48 350.196 52.152 350.196 52.952ZM247.481 73.872L251.305 70H249.513L246.057 73.536V66.8H244.665V78H246.057V74.208L249.705 78H251.433L247.481 73.872ZM256.264 66.8L254.984 68.912H256.328L257.944 66.8H256.264ZM256.008 76.272L253.288 70H251.8L255.288 77.968L255.144 78.272C254.68 79.44 253.96 79.984 252.984 79.904V81.2C254.584 81.312 255.848 80.304 256.536 78.496L259.8 70H258.312L256.008 76.272ZM271.586 71.376C270.898 70.32 269.89 69.792 268.562 69.792C267.442 69.792 266.482 70.208 265.698 71.024C264.914 71.84 264.514 72.832 264.514 74C264.514 75.168 264.914 76.176 265.698 76.992C266.482 77.808 267.442 78.208 268.562 78.208C269.89 78.208 270.898 77.68 271.586 76.624V78H272.978V66.8H271.586V71.376ZM268.738 76.864C267.938 76.864 267.266 76.592 266.722 76.048C266.178 75.488 265.906 74.816 265.906 74C265.906 73.184 266.178 72.512 266.722 71.968C267.266 71.408 267.938 71.136 268.738 71.136C269.554 71.136 270.226 71.408 270.77 71.968C271.314 72.512 271.586 73.184 271.586 74C271.586 74.816 271.314 75.488 270.77 76.048C270.226 76.592 269.554 76.864 268.738 76.864ZM278.959 81.232C279.471 81.232 279.887 80.816 279.887 80.304C279.887 79.792 279.471 79.36 278.959 79.36C278.431 79.36 278.015 79.792 278.015 80.304C278.015 80.816 278.431 81.232 278.959 81.232ZM281.711 71.376C281.023 70.32 280.015 69.792 278.687 69.792C277.567 69.792 276.607 70.208 275.823 71.024C275.039 71.84 274.639 72.832 274.639 74C274.639 75.168 275.039 76.176 275.823 76.992C276.607 77.808 277.567 78.208 278.687 78.208C280.015 78.208 281.023 77.68 281.711 76.624V78H283.103V70H281.711V71.376ZM278.863 76.864C278.063 76.864 277.391 76.592 276.847 76.048C276.303 75.488 276.031 74.816 276.031 74C276.031 73.184 276.303 72.512 276.847 71.968C277.391 71.408 278.063 71.136 278.863 71.136C279.679 71.136 280.351 71.408 280.895 71.968C281.439 72.512 281.711 73.184 281.711 74C281.711 74.816 281.439 75.488 280.895 76.048C280.351 76.592 279.679 76.864 278.863 76.864ZM288.492 76.272L285.772 70H284.284L287.772 77.968L287.628 78.272C287.164 79.44 286.444 79.984 285.468 79.904V81.2C287.068 81.312 288.332 80.304 289.02 78.496L292.284 70H290.796L288.492 76.272Z" fill="#212E5E"/>
<rect y="96" width="373" height="4" rx="2" fill="#EAF4FC"/>
<path d="M58.6811 56.9801C69.3552 56.9801 72.0237 60.2572 72.0237 61.8958C75.5352 54.8734 77.6414 56.9801 85.3661 50.6599C95.8998 38.7218 89.5796 25.3791 83.2594 19.059C76.9392 12.7388 54.4677 7.82307 44.6363 23.2724C34.8049 38.7218 46.743 56.2778 58.6811 56.9801Z" fill="#FF6D34"/>
<path d="M76.2373 73.1316C76.2373 75.8465 74.6652 78.0473 72.7261 78.0473C70.7869 78.0473 69.2148 75.8465 69.2148 73.1316C69.2148 70.4168 72.0238 71.0249 72.7261 68.2159C73.4283 71.0249 76.2373 70.4168 76.2373 73.1316Z" fill="#FF6D34"/>
<path d="M61.4856 30.3L62.1656 32.66L64.8056 31.92V43H67.5656V29H65.1656L61.4856 30.3Z" fill="white"/>
<circle cx="73" cy="98" r="8" fill="#FF6D34"/>
<circle cx="73" cy="98" r="4" fill="#EAF4FC"/>
<circle cx="268" cy="98" r="8" fill="#FF6D34"/>
<circle cx="268" cy="98" r="4" fill="#EAF4FC"/>
</svg>
