<svg width="368" height="217" viewBox="0 0 368 217" fill="none" xmlns="http://www.w3.org/2000/svg">
<rect y="113" width="373" height="4" rx="2" fill="#EAF4FC"/>
<circle cx="266" cy="115" r="8" fill="#FF6D34"/>
<circle cx="266" cy="115" r="4" fill="#EAF4FC"/>
<circle cx="79" cy="115" r="8" fill="#FF6D34"/>
<circle cx="79" cy="115" r="4" fill="#EAF4FC"/>
<path d="M63.6811 73.9801C74.3552 73.9801 77.0237 77.2572 77.0237 78.8958C80.5352 71.8734 82.6414 73.9801 90.3661 67.6599C100.9 55.7218 94.5796 42.3791 88.2594 36.059C81.9392 29.7388 59.4677 24.8231 49.6363 40.2724C39.8049 55.7218 51.743 73.2778 63.6811 73.9801Z" fill="#FF6D34"/>
<path d="M81.2373 90.1316C81.2373 92.8465 79.6652 95.0473 77.7261 95.0473C75.7869 95.0473 74.2148 92.8465 74.2148 90.1316C74.2148 87.4168 77.0238 88.0249 77.7261 85.2159C78.4283 88.0249 81.2373 87.4168 81.2373 90.1316Z" fill="#FF6D34"/>
<path d="M69.203 51.1L69.383 48.58H74.763V46H66.823L66.263 53.78H70.503C71.843 53.78 72.663 54.54 72.663 55.68C72.663 56.86 71.843 57.58 70.423 57.58C69.083 57.58 68.243 57.02 67.903 55.9L65.543 57.28C66.323 59.26 68.163 60.28 70.423 60.28C71.823 60.28 73.003 59.88 73.963 59.06C74.943 58.24 75.423 57.12 75.423 55.68C75.423 54.24 74.963 53.12 74.043 52.32C73.123 51.5 71.983 51.1 70.643 51.1H69.203Z" fill="white"/>
<path d="M17.6109 142.448V143.792H21.7229C21.4189 145.536 19.9789 146.752 17.7389 146.752C16.4269 146.752 15.3549 146.336 14.5229 145.504C13.7069 144.672 13.2909 143.632 13.2909 142.4C13.2909 141.168 13.7069 140.128 14.5229 139.296C15.3389 138.448 16.3949 138.032 17.6749 138.032C19.2269 138.032 20.6189 138.832 21.2589 140.048L22.5389 139.296C22.0749 138.48 21.4029 137.84 20.5389 137.344C19.6749 136.848 18.7309 136.592 17.6909 136.592C16.0109 136.592 14.6029 137.152 13.4829 138.288C12.3789 139.408 11.8189 140.784 11.8189 142.4C11.8189 144.016 12.3789 145.392 13.4829 146.528C14.6029 147.648 16.0109 148.208 17.7229 148.208C19.3709 148.208 20.6989 147.728 21.7069 146.768C22.7149 145.792 23.2109 144.576 23.2109 143.12V142.448H17.6109ZM25.5803 139.008C26.0923 139.008 26.5083 138.592 26.5083 138.08C26.5083 137.568 26.0923 137.136 25.5803 137.136C25.0523 137.136 24.6363 137.568 24.6363 138.08C24.6363 138.592 25.0523 139.008 25.5803 139.008ZM26.2683 148V140H24.8763V148H26.2683ZM35.0159 141.376C34.3279 140.32 33.3199 139.792 31.9919 139.792C30.8719 139.792 29.9119 140.208 29.1279 141.024C28.3439 141.84 27.9439 142.832 27.9439 144C27.9439 145.168 28.3439 146.176 29.1279 146.992C29.9119 147.808 30.8719 148.208 31.9919 148.208C33.3199 148.208 34.3279 147.68 35.0159 146.624V148H36.4079V140H35.0159V141.376ZM32.1679 146.864C31.3679 146.864 30.6959 146.592 30.1519 146.048C29.6079 145.488 29.3359 144.816 29.3359 144C29.3359 143.184 29.6079 142.512 30.1519 141.968C30.6959 141.408 31.3679 141.136 32.1679 141.136C32.9839 141.136 33.6559 141.408 34.1999 141.968C34.7439 142.512 35.0159 143.184 35.0159 144C35.0159 144.816 34.7439 145.488 34.1999 146.048C33.6559 146.592 32.9839 146.864 32.1679 146.864ZM43.7169 142.16C43.7169 141.472 44.3569 141.088 45.1409 141.088C45.9889 141.088 46.5649 141.424 46.8529 142.112L48.0209 141.456C47.5089 140.416 46.4369 139.792 45.1409 139.792C44.3249 139.792 43.6529 140.016 43.1089 140.464C42.5809 140.912 42.3089 141.488 42.3089 142.176C42.3089 143.872 43.9409 144.288 45.2049 144.624C46.0849 144.832 46.7889 145.184 46.7889 145.808C46.7889 146.56 46.1169 146.896 45.2049 146.896C44.2289 146.896 43.4769 146.416 43.2209 145.648L42.0209 146.336C42.4849 147.472 43.6529 148.208 45.2049 148.208C46.0849 148.208 46.7889 147.984 47.3489 147.552C47.9089 147.12 48.1969 146.528 48.1969 145.808C48.2129 144.096 46.5489 143.632 45.3009 143.36C44.4209 143.12 43.7169 142.784 43.7169 142.16ZM56.8211 139.008C56.8211 139.712 56.7091 140 56.0051 140H55.3651V144.24C55.3651 146.032 54.4371 146.88 53.0451 146.88C51.8131 146.88 51.0611 146.128 51.0611 144.832V140H49.6691V144.912C49.6691 146.944 50.9011 148.208 52.7731 148.208C53.9411 148.208 54.8051 147.76 55.3651 146.848V148H56.7571V141.008C57.7331 140.816 58.0531 140.16 58.0531 139.008V138.816H56.8211V139.008ZM65.9643 146.512L63.4523 140H61.9483L65.1483 148H66.7803L69.9803 140H68.4763L65.9643 146.512ZM75.4936 136.8H73.8136L75.4296 138.912H76.7736L75.4936 136.8ZM77.7816 141.376C77.0936 140.32 76.0856 139.792 74.7576 139.792C73.6376 139.792 72.6776 140.208 71.8936 141.024C71.1096 141.84 70.7096 142.832 70.7096 144C70.7096 145.168 71.1096 146.176 71.8936 146.992C72.6776 147.808 73.6376 148.208 74.7576 148.208C76.0856 148.208 77.0936 147.68 77.7816 146.624V148H79.1736V140H77.7816V141.376ZM74.9336 146.864C74.1336 146.864 73.4616 146.592 72.9176 146.048C72.3736 145.488 72.1016 144.816 72.1016 144C72.1016 143.184 72.3736 142.512 72.9176 141.968C73.4616 141.408 74.1336 141.136 74.9336 141.136C75.7496 141.136 76.4216 141.408 76.9656 141.968C77.5096 142.512 77.7816 143.184 77.7816 144C77.7816 144.816 77.5096 145.488 76.9656 146.048C76.4216 146.592 75.7496 146.864 74.9336 146.864ZM89.2666 139.792C88.0986 139.792 87.2346 140.24 86.6746 141.152V136.8H85.2826V148H86.6746V143.76C86.6746 141.968 87.6026 141.12 88.9946 141.12C90.2266 141.12 90.9786 141.872 90.9786 143.168V148H92.3706V143.088C92.3706 141.056 91.1386 139.792 89.2666 139.792ZM98.0738 151.232C98.5858 151.232 99.0018 150.816 99.0018 150.304C99.0018 149.792 98.5858 149.36 98.0738 149.36C97.5458 149.36 97.1298 149.792 97.1298 150.304C97.1298 150.816 97.5458 151.232 98.0738 151.232ZM101.066 146.992C101.882 146.176 102.298 145.184 102.298 144C102.298 142.816 101.882 141.824 101.066 141.008C100.25 140.192 99.2418 139.792 98.0738 139.792C96.9058 139.792 95.8978 140.192 95.0818 141.008C94.2658 141.824 93.8658 142.816 93.8658 144C93.8658 145.184 94.2658 146.176 95.0818 146.992C95.8978 147.808 96.9058 148.208 98.0738 148.208C99.2418 148.208 100.25 147.808 101.066 146.992ZM98.0738 146.848C97.2898 146.848 96.6178 146.576 96.0738 146.032C95.5298 145.488 95.2578 144.816 95.2578 144C95.2578 143.184 95.5298 142.512 96.0738 141.968C96.6178 141.424 97.2898 141.152 98.0738 141.152C98.8738 141.152 99.5458 141.424 100.09 141.968C100.634 142.512 100.906 143.184 100.906 144C100.906 144.816 100.634 145.488 100.09 146.032C99.5458 146.576 98.8738 146.848 98.0738 146.848ZM107.699 148.208C109.251 148.208 110.611 147.392 111.299 146.128L110.115 145.44C109.667 146.288 108.771 146.832 107.699 146.832C106.899 146.832 106.227 146.56 105.683 146.016C105.155 145.472 104.883 144.8 104.883 144C104.883 143.184 105.155 142.512 105.683 141.968C106.227 141.424 106.899 141.152 107.699 141.152C108.771 141.152 109.667 141.712 110.067 142.56L111.235 141.888C110.611 140.608 109.283 139.792 107.699 139.792C106.499 139.792 105.491 140.192 104.691 141.008C103.891 141.808 103.491 142.8 103.491 144C103.491 145.2 103.891 146.192 104.691 147.008C105.491 147.808 106.499 148.208 107.699 148.208ZM119.777 146.512L117.265 140H115.761L118.961 148H120.593L123.793 140H122.289L119.777 146.512ZM125.674 139.008C126.186 139.008 126.602 138.592 126.602 138.08C126.602 137.568 126.186 137.136 125.674 137.136C125.146 137.136 124.73 137.568 124.73 138.08C124.73 138.592 125.146 139.008 125.674 139.008ZM126.362 148V140H124.97V148H126.362ZM133.254 138.944H134.742L133.046 136.784H131.51L129.814 138.944H131.302L132.278 137.648L133.254 138.944ZM136.166 144.64C136.198 144.432 136.214 144.224 136.214 144.016C136.214 142.848 135.846 141.856 135.094 141.04C134.358 140.208 133.398 139.792 132.23 139.792C130.998 139.792 129.99 140.192 129.206 140.992C128.422 141.792 128.038 142.8 128.038 144C128.038 145.216 128.438 146.224 129.222 147.024C130.022 147.808 131.062 148.208 132.326 148.208C133.894 148.208 135.062 147.6 135.846 146.4L134.662 145.728C134.182 146.512 133.414 146.896 132.358 146.896C130.838 146.896 129.734 146.064 129.462 144.64H136.166ZM132.23 141.104C133.51 141.104 134.566 141.904 134.806 143.424H129.462C129.702 142.016 130.742 141.104 132.23 141.104ZM141.798 139.792C140.63 139.792 139.766 140.24 139.206 141.152V140H137.814V148H139.206V143.76C139.206 141.968 140.134 141.12 141.526 141.12C142.758 141.12 143.51 141.872 143.51 143.168V148H144.902V143.088C144.902 141.056 143.67 139.792 141.798 139.792ZM24.7767 160.792C23.4487 160.792 22.4407 161.32 21.7527 162.376V157.8H20.3607V169H21.7527V167.624C22.4407 168.68 23.4487 169.208 24.7767 169.208C25.8967 169.208 26.8567 168.808 27.6407 167.992C28.4247 167.176 28.8247 166.168 28.8247 165C28.8247 163.832 28.4247 162.84 27.6407 162.024C26.8567 161.208 25.8967 160.792 24.7767 160.792ZM24.6007 167.864C23.7847 167.864 23.1127 167.592 22.5687 167.048C22.0247 166.488 21.7527 165.816 21.7527 165C21.7527 164.184 22.0247 163.512 22.5687 162.968C23.1127 162.408 23.7847 162.136 24.6007 162.136C25.4007 162.136 26.0727 162.408 26.6167 162.968C27.1607 163.512 27.4327 164.184 27.4327 165C27.4327 165.816 27.1607 166.488 26.6167 167.048C26.0727 167.592 25.4007 167.864 24.6007 167.864ZM35.0297 160.088C36.4057 160.088 37.2377 159.336 37.2377 158.072H36.0377C36.0377 158.712 35.6857 159.048 35.0297 159.048C34.3577 159.048 34.0057 158.712 34.0057 158.072H32.8057C32.8057 159.336 33.6537 160.088 35.0297 160.088ZM37.1097 162.376C36.4217 161.32 35.4137 160.792 34.0857 160.792C32.9657 160.792 32.0057 161.208 31.2217 162.024C30.4377 162.84 30.0377 163.832 30.0377 165C30.0377 166.168 30.4377 167.176 31.2217 167.992C32.0057 168.808 32.9657 169.208 34.0857 169.208C35.4137 169.208 36.4217 168.68 37.1097 167.624V169H38.5017V161H37.1097V162.376ZM34.2617 167.864C33.4617 167.864 32.7897 167.592 32.2457 167.048C31.7017 166.488 31.4297 165.816 31.4297 165C31.4297 164.184 31.7017 163.512 32.2457 162.968C32.7897 162.408 33.4617 162.136 34.2617 162.136C35.0777 162.136 35.7497 162.408 36.2937 162.968C36.8377 163.512 37.1097 164.184 37.1097 165C37.1097 165.816 36.8377 166.488 36.2937 167.048C35.7497 167.592 35.0777 167.864 34.2617 167.864ZM34.3737 157.8H35.6217L37.1417 155.832H35.5577L34.3737 157.8ZM44.9627 161H42.8347V158.76L41.4427 159.176V161H39.8587V162.344H41.4427V166.68C41.4427 168.664 42.5307 169.32 44.9627 169V167.752C43.5387 167.816 42.8347 167.912 42.8347 166.68V162.344H44.9627V161ZM58.6736 158.872V157.8H57.2816V158.872H54.5136V159.896H57.2816V162.376C56.5936 161.32 55.5856 160.792 54.2576 160.792C53.1376 160.792 52.1776 161.208 51.3936 162.024C50.6096 162.84 50.2096 163.832 50.2096 165C50.2096 166.168 50.6096 167.176 51.3936 167.992C52.1776 168.808 53.1376 169.208 54.2576 169.208C55.5856 169.208 56.5936 168.68 57.2816 167.624V169H58.6736V159.896H59.7456V158.872H58.6736ZM54.4336 167.864C53.6336 167.864 52.9616 167.592 52.4176 167.048C51.8736 166.488 51.6016 165.816 51.6016 165C51.6016 164.184 51.8736 163.512 52.4176 162.968C52.9616 162.408 53.6336 162.136 54.4336 162.136C55.2496 162.136 55.9216 162.408 56.4656 162.968C57.0096 163.512 57.2816 164.184 57.2816 165C57.2816 165.816 57.0096 166.488 56.4656 167.048C55.9216 167.592 55.2496 167.864 54.4336 167.864ZM66.2992 159.96H67.6912L66.1072 157.944H64.6832L63.0992 159.96H64.4912L65.4032 158.744L66.2992 159.96ZM67.5472 162.376C66.8592 161.32 65.8512 160.792 64.5232 160.792C63.4032 160.792 62.4432 161.208 61.6592 162.024C60.8752 162.84 60.4752 163.832 60.4752 165C60.4752 166.168 60.8752 167.176 61.6592 167.992C62.4432 168.808 63.4032 169.208 64.5232 169.208C65.8512 169.208 66.8592 168.68 67.5472 167.624V169H68.9392V161H67.5472V162.376ZM64.6992 167.864C63.8992 167.864 63.2272 167.592 62.6832 167.048C62.1392 166.488 61.8672 165.816 61.8672 165C61.8672 164.184 62.1392 163.512 62.6832 162.968C63.2272 162.408 63.8992 162.136 64.6992 162.136C65.5152 162.136 66.1872 162.408 66.7312 162.968C67.2752 163.512 67.5472 164.184 67.5472 165C67.5472 165.816 67.2752 166.488 66.7312 167.048C66.1872 167.592 65.5152 167.864 64.6992 167.864ZM68.5392 158.488L67.3392 156.52H65.7872L67.2752 158.488H68.5392ZM76.5682 165.24C76.5682 167.032 75.6402 167.88 74.2482 167.88C73.0162 167.88 72.2642 167.128 72.2642 165.832V161H70.8722V165.912C70.8722 167.944 72.1042 169.208 73.9762 169.208C75.1442 169.208 76.0082 168.76 76.5682 167.848V169H77.9602V161H76.5682V165.24ZM85.4714 169V157.32H84.0794V169H85.4714ZM90.6031 159.864H91.9471L93.5631 157.752H91.8831L90.6031 159.864ZM94.3471 167.992C95.1631 167.176 95.5791 166.184 95.5791 165C95.5791 163.816 95.1631 162.824 94.3471 162.008C94.3151 161.992 94.2991 161.976 94.2831 161.944C95.0511 161.688 95.3231 161.048 95.3231 160.008V159.816H94.0911V160.008C94.0911 160.712 93.9791 161 93.2751 161H92.7311C92.2991 160.856 91.8351 160.792 91.3551 160.792C90.1871 160.792 89.1791 161.192 88.3631 162.008C87.5471 162.824 87.1471 163.816 87.1471 165C87.1471 166.184 87.5471 167.176 88.3631 167.992C89.1791 168.808 90.1871 169.208 91.3551 169.208C92.5231 169.208 93.5311 168.808 94.3471 167.992ZM91.3551 167.848C90.5711 167.848 89.8991 167.576 89.3551 167.032C88.8111 166.488 88.5391 165.816 88.5391 165C88.5391 164.184 88.8111 163.512 89.3551 162.968C89.8991 162.424 90.5711 162.152 91.3551 162.152C92.1551 162.152 92.8271 162.424 93.3711 162.968C93.9151 163.512 94.1871 164.184 94.1871 165C94.1871 165.816 93.9151 166.488 93.3711 167.032C92.8271 167.576 92.1551 167.848 91.3551 167.848ZM101.636 160.792C100.308 160.792 99.3001 161.32 98.6121 162.376V161H97.2201V172.2H98.6121V167.624C99.3001 168.68 100.308 169.208 101.636 169.208C102.756 169.208 103.716 168.808 104.5 167.992C105.284 167.176 105.684 166.168 105.684 165C105.684 163.832 105.284 162.84 104.5 162.024C103.716 161.208 102.756 160.792 101.636 160.792ZM101.46 167.864C100.644 167.864 99.9721 167.592 99.4281 167.048C98.8841 166.488 98.6121 165.816 98.6121 165C98.6121 164.184 98.8841 163.512 99.4281 162.968C99.9721 162.408 100.644 162.136 101.46 162.136C102.26 162.136 102.932 162.408 103.476 162.968C104.02 163.512 104.292 164.184 104.292 165C104.292 165.816 104.02 166.488 103.476 167.048C102.932 167.592 102.26 167.864 101.46 167.864ZM115.329 160.792C114.161 160.792 113.297 161.24 112.737 162.152V157.8H111.345V169H112.737V164.76C112.737 162.968 113.665 162.12 115.057 162.12C116.289 162.12 117.041 162.872 117.041 164.168V169H118.433V164.088C118.433 162.056 117.201 160.792 115.329 160.792ZM124.136 172.232C124.648 172.232 125.064 171.816 125.064 171.304C125.064 170.792 124.648 170.36 124.136 170.36C123.608 170.36 123.192 170.792 123.192 171.304C123.192 171.816 123.608 172.232 124.136 172.232ZM127.128 167.992C127.944 167.176 128.36 166.184 128.36 165C128.36 163.816 127.944 162.824 127.128 162.008C126.312 161.192 125.304 160.792 124.136 160.792C122.968 160.792 121.96 161.192 121.144 162.008C120.328 162.824 119.928 163.816 119.928 165C119.928 166.184 120.328 167.176 121.144 167.992C121.96 168.808 122.968 169.208 124.136 169.208C125.304 169.208 126.312 168.808 127.128 167.992ZM124.136 167.848C123.352 167.848 122.68 167.576 122.136 167.032C121.592 166.488 121.32 165.816 121.32 165C121.32 164.184 121.592 163.512 122.136 162.968C122.68 162.424 123.352 162.152 124.136 162.152C124.936 162.152 125.608 162.424 126.152 162.968C126.696 163.512 126.968 164.184 126.968 165C126.968 165.816 126.696 166.488 126.152 167.032C125.608 167.576 124.936 167.848 124.136 167.848ZM133.761 169.208C135.313 169.208 136.673 168.392 137.361 167.128L136.177 166.44C135.729 167.288 134.833 167.832 133.761 167.832C132.961 167.832 132.289 167.56 131.745 167.016C131.217 166.472 130.945 165.8 130.945 165C130.945 164.184 131.217 163.512 131.745 162.968C132.289 162.424 132.961 162.152 133.761 162.152C134.833 162.152 135.729 162.712 136.129 163.56L137.297 162.888C136.673 161.608 135.345 160.792 133.761 160.792C132.561 160.792 131.553 161.192 130.753 162.008C129.953 162.808 129.553 163.8 129.553 165C129.553 166.2 129.953 167.192 130.753 168.008C131.553 168.808 132.561 169.208 133.761 169.208ZM37.5488 191.6C35.1968 186.912 35.1968 181.888 37.5488 177.2H36.1568C33.8048 181.888 33.8048 186.912 36.1568 191.6H37.5488ZM45.7611 188.992C46.5771 188.176 46.9931 187.184 46.9931 186C46.9931 184.816 46.5771 183.824 45.7611 183.008C44.9451 182.192 43.9371 181.792 42.7691 181.792C41.6011 181.792 40.5931 182.192 39.7771 183.008C38.9611 183.824 38.5611 184.816 38.5611 186C38.5611 187.184 38.9611 188.176 39.7771 188.992C40.5931 189.808 41.6011 190.208 42.7691 190.208C43.9371 190.208 44.9451 189.808 45.7611 188.992ZM42.7691 188.848C41.9851 188.848 41.3131 188.576 40.7691 188.032C40.2251 187.488 39.9531 186.816 39.9531 186C39.9531 185.184 40.2251 184.512 40.7691 183.968C41.3131 183.424 41.9851 183.152 42.7691 183.152C43.5691 183.152 44.2411 183.424 44.7851 183.968C45.3291 184.512 45.6011 185.184 45.6011 186C45.6011 186.816 45.3291 187.488 44.7851 188.032C44.2411 188.576 43.5691 188.848 42.7691 188.848ZM52.6181 181.792C51.4501 181.792 50.5861 182.24 50.0261 183.152V182H48.6341V190H50.0261V185.76C50.0261 183.968 50.9541 183.12 52.3461 183.12C53.5781 183.12 54.3301 183.872 54.3301 185.168V190H55.7221V185.088C55.7221 183.056 54.4901 181.792 52.6181 181.792ZM59.0574 190V178.32H57.6654V190H59.0574ZM61.885 181.008C62.397 181.008 62.813 180.592 62.813 180.08C62.813 179.568 62.397 179.136 61.885 179.136C61.357 179.136 60.941 179.568 60.941 180.08C60.941 180.592 61.357 181.008 61.885 181.008ZM62.573 190V182H61.181V190H62.573ZM68.6806 181.792C67.5126 181.792 66.6486 182.24 66.0886 183.152V182H64.6966V190H66.0886V185.76C66.0886 183.968 67.0166 183.12 68.4086 183.12C69.6406 183.12 70.3926 183.872 70.3926 185.168V190H71.7846V185.088C71.7846 183.056 70.5526 181.792 68.6806 181.792ZM81.4079 186.64C81.4399 186.432 81.4559 186.224 81.4559 186.016C81.4559 184.848 81.0879 183.856 80.3359 183.04C79.5999 182.208 78.6399 181.792 77.4719 181.792C76.2399 181.792 75.2319 182.192 74.4479 182.992C73.6639 183.792 73.2799 184.8 73.2799 186C73.2799 187.216 73.6799 188.224 74.4639 189.024C75.2639 189.808 76.3039 190.208 77.5679 190.208C79.1359 190.208 80.3039 189.6 81.0879 188.4L79.9039 187.728C79.4239 188.512 78.6559 188.896 77.5999 188.896C76.0799 188.896 74.9759 188.064 74.7039 186.64H81.4079ZM77.4719 183.104C78.7519 183.104 79.8079 183.904 80.0479 185.424H74.7039C74.9439 184.016 75.9839 183.104 77.4719 183.104ZM91.04 181.792C89.872 181.792 89.008 182.24 88.448 183.152V178.8H87.056V190H88.448V185.76C88.448 183.968 89.376 183.12 90.768 183.12C92 183.12 92.752 183.872 92.752 185.168V190H94.144V185.088C94.144 183.056 92.912 181.792 91.04 181.792ZM102.839 188.992C103.655 188.176 104.071 187.184 104.071 186C104.071 184.816 103.655 183.824 102.839 183.008C102.023 182.192 101.015 181.792 99.8473 181.792C98.6793 181.792 97.6713 182.192 96.8553 183.008C96.0393 183.824 95.6393 184.816 95.6393 186C95.6393 187.184 96.0393 188.176 96.8553 188.992C97.6713 189.808 98.6793 190.208 99.8473 190.208C101.015 190.208 102.023 189.808 102.839 188.992ZM99.8473 188.848C99.0633 188.848 98.3913 188.576 97.8473 188.032C97.3033 187.488 97.0312 186.816 97.0312 186C97.0312 185.184 97.3033 184.512 97.8473 183.968C98.3913 183.424 99.0633 183.152 99.8473 183.152C100.647 183.152 101.319 183.424 101.863 183.968C102.407 184.512 102.679 185.184 102.679 186C102.679 186.816 102.407 187.488 101.863 188.032C101.319 188.576 100.647 188.848 99.8473 188.848ZM112.336 183.376C111.648 182.32 110.64 181.792 109.312 181.792C108.192 181.792 107.232 182.208 106.448 183.024C105.664 183.84 105.264 184.832 105.264 186C105.264 187.168 105.664 188.176 106.448 188.992C107.232 189.808 108.192 190.208 109.312 190.208C110.64 190.208 111.648 189.68 112.336 188.624V190H113.728V182H112.336V183.376ZM109.488 188.864C108.688 188.864 108.016 188.592 107.472 188.048C106.928 187.488 106.656 186.816 106.656 186C106.656 185.184 106.928 184.512 107.472 183.968C108.016 183.408 108.688 183.136 109.488 183.136C110.304 183.136 110.976 183.408 111.52 183.968C112.064 184.512 112.336 185.184 112.336 186C112.336 186.816 112.064 187.488 111.52 188.048C110.976 188.592 110.304 188.864 109.488 188.864ZM109.584 193.232C110.096 193.232 110.512 192.816 110.512 192.304C110.512 191.792 110.096 191.36 109.584 191.36C109.056 191.36 108.64 191.792 108.64 192.304C108.64 192.816 109.056 193.232 109.584 193.232ZM110.256 181.088C111.632 181.088 112.464 180.336 112.464 179.072H111.264C111.264 179.712 110.912 180.048 110.256 180.048C109.584 180.048 109.232 179.712 109.232 179.072H108.032C108.032 180.336 108.88 181.088 110.256 181.088ZM119.597 190.208C121.149 190.208 122.509 189.392 123.197 188.128L122.013 187.44C121.565 188.288 120.669 188.832 119.597 188.832C118.797 188.832 118.125 188.56 117.581 188.016C117.053 187.472 116.781 186.8 116.781 186C116.781 185.184 117.053 184.512 117.581 183.968C118.125 183.424 118.797 183.152 119.597 183.152C120.669 183.152 121.565 183.712 121.965 184.56L123.133 183.888C122.509 182.608 121.181 181.792 119.597 181.792C118.397 181.792 117.389 182.192 116.589 183.008C115.789 183.808 115.389 184.8 115.389 186C115.389 187.2 115.789 188.192 116.589 189.008C117.389 189.808 118.397 190.208 119.597 190.208ZM62.0502 209.992C62.8662 209.176 63.2822 208.184 63.2822 207C63.2822 205.816 62.8662 204.824 62.0502 204.008C61.2342 203.192 60.2262 202.792 59.0582 202.792C57.8902 202.792 56.8822 203.192 56.0662 204.008C55.2502 204.824 54.8502 205.816 54.8502 207C54.8502 208.184 55.2502 209.176 56.0662 209.992C56.8822 210.808 57.8902 211.208 59.0582 211.208C60.2262 211.208 61.2342 210.808 62.0502 209.992ZM59.0582 209.848C58.2742 209.848 57.6022 209.576 57.0582 209.032C56.5142 208.488 56.2422 207.816 56.2422 207C56.2422 206.184 56.5142 205.512 57.0582 204.968C57.6022 204.424 58.2742 204.152 59.0582 204.152C59.8582 204.152 60.5302 204.424 61.0742 204.968C61.6182 205.512 61.8902 206.184 61.8902 207C61.8902 207.816 61.6182 208.488 61.0742 209.032C60.5302 209.576 59.8582 209.848 59.0582 209.848ZM73.0903 199.432C70.7703 199.432 69.6023 200.488 69.6023 202.6V203H66.6263V202.76C66.6263 201.432 67.3303 200.824 68.7383 200.936V199.592C66.4823 199.448 65.2343 200.6 65.2343 202.76V203H63.9543V204.344H65.2343V211H66.6263V204.344H69.6023V211H70.9943V204.344H72.6583V203H70.9943V202.6C70.9943 201.24 71.6663 200.68 73.0903 200.68C73.2823 200.68 73.5703 200.696 73.9543 200.712V211H75.3463V199.672C74.4983 199.512 73.7463 199.432 73.0903 199.432ZM78.1584 202.008C78.6704 202.008 79.0864 201.592 79.0864 201.08C79.0864 200.568 78.6704 200.136 78.1584 200.136C77.6304 200.136 77.2144 200.568 77.2144 201.08C77.2144 201.592 77.6304 202.008 78.1584 202.008ZM78.8464 211V203H77.4544V211H78.8464ZM84.9541 202.792C83.7861 202.792 82.9221 203.24 82.3621 204.152V203H80.9701V211H82.3621V206.76C82.3621 204.968 83.2901 204.12 84.6821 204.12C85.9141 204.12 86.6661 204.872 86.6661 206.168V211H88.0581V206.088C88.0581 204.056 86.8261 202.792 84.9541 202.792ZM97.6813 207.64C97.7133 207.432 97.7293 207.224 97.7293 207.016C97.7293 205.848 97.3613 204.856 96.6093 204.04C95.8733 203.208 94.9133 202.792 93.7453 202.792C92.5133 202.792 91.5053 203.192 90.7213 203.992C89.9373 204.792 89.5533 205.8 89.5533 207C89.5533 208.216 89.9533 209.224 90.7373 210.024C91.5373 210.808 92.5773 211.208 93.8413 211.208C95.4093 211.208 96.5773 210.6 97.3613 209.4L96.1773 208.728C95.6973 209.512 94.9293 209.896 93.8733 209.896C92.3533 209.896 91.2493 209.064 90.9773 207.64H97.6813ZM93.7453 204.104C95.0253 204.104 96.0813 204.904 96.3213 206.424H90.9773C91.2173 205.016 92.2573 204.104 93.7453 204.104ZM100.065 212.6C102.417 207.912 102.417 202.888 100.065 198.2H98.6734C101.025 202.888 101.025 207.912 98.6734 212.6H100.065Z" fill="#212E5E"/>
<path d="M250.681 154.067C261.355 154.067 264.024 150.79 264.024 149.152C267.535 156.174 269.641 154.067 277.366 160.387C287.9 172.326 281.58 185.668 275.259 191.988C268.939 198.309 246.468 203.224 236.636 187.775C226.805 172.326 238.743 154.77 250.681 154.067Z" fill="#FF6D34"/>
<path d="M268.237 137.916C268.237 135.201 266.665 133 264.726 133C262.787 133 261.215 135.201 261.215 137.916C261.215 140.631 264.024 140.022 264.726 142.831C265.428 140.022 268.237 140.631 268.237 137.916Z" fill="#FF6D34"/>
<path d="M260.745 166.047H257.585L253.225 172.627C252.685 173.447 252.405 174.387 252.405 175.447C252.405 176.887 252.865 178.067 253.805 178.967C254.745 179.867 255.965 180.327 257.465 180.327C258.965 180.327 260.185 179.867 261.125 178.967C262.065 178.047 262.545 176.867 262.545 175.447C262.545 174.047 262.085 172.907 261.185 172.007C260.285 171.107 259.105 170.627 257.645 170.587L260.745 166.047ZM259.805 175.447C259.805 176.827 258.805 177.727 257.465 177.727C256.125 177.727 255.145 176.827 255.145 175.447C255.145 174.067 256.125 173.187 257.465 173.187C258.805 173.187 259.805 174.087 259.805 175.447Z" fill="white"/>
<path d="M190.594 9.746H184.474V4.4H182.8V17H184.474V11.33H190.594V17H192.25V4.4H190.594V9.746ZM199.015 20.636C199.591 20.636 200.059 20.168 200.059 19.592C200.059 19.016 199.591 18.53 199.015 18.53C198.421 18.53 197.953 19.016 197.953 19.592C197.953 20.168 198.421 20.636 199.015 20.636ZM202.381 15.866C203.299 14.948 203.767 13.832 203.767 12.5C203.767 11.168 203.299 10.052 202.381 9.134C201.463 8.216 200.329 7.766 199.015 7.766C197.701 7.766 196.567 8.216 195.649 9.134C194.731 10.052 194.281 11.168 194.281 12.5C194.281 13.832 194.731 14.948 195.649 15.866C196.567 16.784 197.701 17.234 199.015 17.234C200.329 17.234 201.463 16.784 202.381 15.866ZM199.015 15.704C198.133 15.704 197.377 15.398 196.765 14.786C196.153 14.174 195.847 13.418 195.847 12.5C195.847 11.582 196.153 10.826 196.765 10.214C197.377 9.602 198.133 9.296 199.015 9.296C199.915 9.296 200.671 9.602 201.283 10.214C201.895 10.826 202.201 11.582 202.201 12.5C202.201 13.418 201.895 14.174 201.283 14.786C200.671 15.398 199.915 15.704 199.015 15.704ZM209.843 17.234C211.589 17.234 213.119 16.316 213.893 14.894L212.561 14.12C212.057 15.074 211.049 15.686 209.843 15.686C208.943 15.686 208.187 15.38 207.575 14.768C206.981 14.156 206.675 13.4 206.675 12.5C206.675 11.582 206.981 10.826 207.575 10.214C208.187 9.602 208.943 9.296 209.843 9.296C211.049 9.296 212.057 9.926 212.507 10.88L213.821 10.124C213.119 8.684 211.625 7.766 209.843 7.766C208.493 7.766 207.359 8.216 206.459 9.134C205.559 10.034 205.109 11.15 205.109 12.5C205.109 13.85 205.559 14.966 206.459 15.884C207.359 16.784 208.493 17.234 209.843 17.234ZM223.431 15.326L220.605 8H218.913L222.513 17H224.349L227.949 8H226.257L223.431 15.326ZM230.065 6.884C230.641 6.884 231.109 6.416 231.109 5.84C231.109 5.264 230.641 4.778 230.065 4.778C229.471 4.778 229.003 5.264 229.003 5.84C229.003 6.416 229.471 6.884 230.065 6.884ZM230.839 17V8H229.273V17H230.839ZM238.592 6.812H240.266L238.358 4.382H236.63L234.722 6.812H236.396L237.494 5.354L238.592 6.812ZM241.868 13.22C241.904 12.986 241.922 12.752 241.922 12.518C241.922 11.204 241.508 10.088 240.662 9.17C239.834 8.234 238.754 7.766 237.44 7.766C236.054 7.766 234.92 8.216 234.038 9.116C233.156 10.016 232.724 11.15 232.724 12.5C232.724 13.868 233.174 15.002 234.056 15.902C234.956 16.784 236.126 17.234 237.548 17.234C239.312 17.234 240.626 16.55 241.508 15.2L240.176 14.444C239.636 15.326 238.772 15.758 237.584 15.758C235.874 15.758 234.632 14.822 234.326 13.22H241.868ZM237.44 9.242C238.88 9.242 240.068 10.142 240.338 11.852H234.326C234.596 10.268 235.766 9.242 237.44 9.242ZM248.204 7.766C246.89 7.766 245.918 8.27 245.288 9.296V8H243.722V17H245.288V12.23C245.288 10.214 246.332 9.26 247.898 9.26C249.284 9.26 250.13 10.106 250.13 11.564V17H251.696V11.474C251.696 9.188 250.31 7.766 248.204 7.766ZM263.278 8H260.884V5.48L259.318 5.948V8H257.536V9.512H259.318V14.39C259.318 16.622 260.542 17.36 263.278 17V15.596C261.676 15.668 260.884 15.776 260.884 14.39V9.512H263.278V8ZM269.667 7.766C268.353 7.766 267.381 8.27 266.751 9.296V4.4H265.185V17H266.751V12.23C266.751 10.214 267.795 9.26 269.361 9.26C270.747 9.26 271.593 10.106 271.593 11.564V17H273.159V11.474C273.159 9.188 271.773 7.766 269.667 7.766ZM282.797 9.548C282.023 8.36 280.889 7.766 279.395 7.766C278.135 7.766 277.055 8.234 276.173 9.152C275.291 10.07 274.841 11.186 274.841 12.5C274.841 13.814 275.291 14.948 276.173 15.866C277.055 16.784 278.135 17.234 279.395 17.234C280.889 17.234 282.023 16.64 282.797 15.452V17H284.363V8H282.797V9.548ZM279.593 15.722C278.693 15.722 277.937 15.416 277.325 14.804C276.713 14.174 276.407 13.418 276.407 12.5C276.407 11.582 276.713 10.826 277.325 10.214C277.937 9.584 278.693 9.278 279.593 9.278C280.511 9.278 281.267 9.584 281.879 10.214C282.491 10.826 282.797 11.582 282.797 12.5C282.797 13.418 282.491 14.174 281.879 14.804C281.267 15.416 280.511 15.722 279.593 15.722ZM291.218 7.766C289.904 7.766 288.932 8.27 288.302 9.296V8H286.736V17H288.302V12.23C288.302 10.214 289.346 9.26 290.912 9.26C292.298 9.26 293.144 10.106 293.144 11.564V17H294.71V11.474C294.71 9.188 293.324 7.766 291.218 7.766ZM301.378 7.766C300.064 7.766 299.092 8.27 298.462 9.296V4.4H296.896V17H298.462V12.23C298.462 10.214 299.506 9.26 301.072 9.26C302.458 9.26 303.304 10.106 303.304 11.564V17H304.87V11.474C304.87 9.188 303.484 7.766 301.378 7.766ZM316.452 8H314.058V5.48L312.492 5.948V8H310.71V9.512H312.492V14.39C312.492 16.622 313.716 17.36 316.452 17V15.596C314.85 15.668 314.058 15.776 314.058 14.39V9.512H316.452V8ZM325.955 15.866C326.873 14.948 327.341 13.832 327.341 12.5C327.341 11.168 326.873 10.052 325.955 9.134C325.037 8.216 323.903 7.766 322.589 7.766C321.275 7.766 320.141 8.216 319.223 9.134C318.305 10.052 317.855 11.168 317.855 12.5C317.855 13.832 318.305 14.948 319.223 15.866C320.141 16.784 321.275 17.234 322.589 17.234C323.903 17.234 325.037 16.784 325.955 15.866ZM322.589 15.704C321.707 15.704 320.951 15.398 320.339 14.786C319.727 14.174 319.421 13.418 319.421 12.5C319.421 11.582 319.727 10.826 320.339 10.214C320.951 9.602 321.707 9.296 322.589 9.296C323.489 9.296 324.245 9.602 324.857 10.214C325.469 10.826 325.775 11.582 325.775 12.5C325.775 13.418 325.469 14.174 324.857 14.786C324.245 15.398 323.489 15.704 322.589 15.704ZM334.569 4.4L333.129 6.776H334.641L336.459 4.4H334.569ZM336.639 9.548C335.865 8.36 334.731 7.766 333.237 7.766C331.977 7.766 330.897 8.234 330.015 9.152C329.133 10.07 328.683 11.186 328.683 12.5C328.683 13.814 329.133 14.948 330.015 15.866C330.897 16.784 331.977 17.234 333.237 17.234C334.731 17.234 335.865 16.64 336.639 15.452V17H338.205V8H336.639V9.548ZM333.435 15.722C332.535 15.722 331.779 15.416 331.167 14.804C330.555 14.174 330.249 13.418 330.249 12.5C330.249 11.582 330.555 10.826 331.167 10.214C331.779 9.584 332.535 9.278 333.435 9.278C334.353 9.278 335.109 9.584 335.721 10.214C336.333 10.826 336.639 11.582 336.639 12.5C336.639 13.418 336.333 14.174 335.721 14.804C335.109 15.416 334.353 15.722 333.435 15.722ZM345.06 7.766C343.746 7.766 342.774 8.27 342.144 9.296V8H340.578V17H342.144V12.23C342.144 10.214 343.188 9.26 344.754 9.26C346.14 9.26 346.986 10.106 346.986 11.564V17H348.552V11.474C348.552 9.188 347.166 7.766 345.06 7.766ZM197.142 31.766C195.648 31.766 194.514 32.36 193.74 33.548V32H192.174V44.6H193.74V39.452C194.514 40.64 195.648 41.234 197.142 41.234C198.402 41.234 199.482 40.784 200.364 39.866C201.246 38.948 201.696 37.814 201.696 36.5C201.696 35.186 201.246 34.07 200.364 33.152C199.482 32.234 198.402 31.766 197.142 31.766ZM196.944 39.722C196.026 39.722 195.27 39.416 194.658 38.804C194.046 38.174 193.74 37.418 193.74 36.5C193.74 35.582 194.046 34.826 194.658 34.214C195.27 33.584 196.026 33.278 196.944 33.278C197.844 33.278 198.6 33.584 199.212 34.214C199.824 34.826 200.13 35.582 200.13 36.5C200.13 37.418 199.824 38.174 199.212 38.804C198.6 39.416 197.844 39.722 196.944 39.722ZM208.047 31.766C206.733 31.766 205.761 32.27 205.131 33.296V28.4H203.565V41H205.131V36.23C205.131 34.214 206.175 33.26 207.741 33.26C209.127 33.26 209.973 34.106 209.973 35.564V41H211.539V35.474C211.539 33.188 210.153 31.766 208.047 31.766ZM213.419 30.83H214.931L216.119 28.4H214.265L213.419 30.83ZM213.725 41V32H215.291V41H213.725ZM226.41 41.234C228.156 41.234 229.686 40.316 230.46 38.894L229.128 38.12C228.624 39.074 227.616 39.686 226.41 39.686C225.51 39.686 224.754 39.38 224.142 38.768C223.548 38.156 223.242 37.4 223.242 36.5C223.242 35.582 223.548 34.826 224.142 34.214C224.754 33.602 225.51 33.296 226.41 33.296C227.616 33.296 228.624 33.926 229.074 34.88L230.388 34.124C229.686 32.684 228.192 31.766 226.41 31.766C225.06 31.766 223.926 32.216 223.026 33.134C222.126 34.034 221.676 35.15 221.676 36.5C221.676 37.85 222.126 38.966 223.026 39.884C223.926 40.784 225.06 41.234 226.41 41.234ZM236.506 31.766C235.192 31.766 234.22 32.27 233.59 33.296V28.4H232.024V41H233.59V36.23C233.59 34.214 234.634 33.26 236.2 33.26C237.586 33.26 238.432 34.106 238.432 35.564V41H239.998V35.474C239.998 33.188 238.612 31.766 236.506 31.766ZM249.78 39.866C250.698 38.948 251.166 37.832 251.166 36.5C251.166 35.168 250.698 34.052 249.78 33.134C248.862 32.216 247.728 31.766 246.414 31.766C245.1 31.766 243.966 32.216 243.048 33.134C242.13 34.052 241.68 35.168 241.68 36.5C241.68 37.832 242.13 38.948 243.048 39.866C243.966 40.784 245.1 41.234 246.414 41.234C247.728 41.234 248.862 40.784 249.78 39.866ZM246.414 39.704C245.532 39.704 244.776 39.398 244.164 38.786C243.552 38.174 243.246 37.418 243.246 36.5C243.246 35.582 243.552 34.826 244.164 34.214C244.776 33.602 245.532 33.296 246.414 33.296C247.314 33.296 248.07 33.602 248.682 34.214C249.294 34.826 249.6 35.582 249.6 36.5C249.6 37.418 249.294 38.174 248.682 38.786C248.07 39.398 247.314 39.704 246.414 39.704ZM264.982 33.548C264.208 32.36 263.074 31.766 261.598 31.766C260.32 31.766 259.222 32.216 258.34 33.134C257.458 34.034 257.008 35.132 257.008 36.446C257.008 37.76 257.458 38.858 258.34 39.776C259.222 40.694 260.32 41.144 261.598 41.144C263.056 41.144 264.19 40.55 264.982 39.344V40.622C264.982 42.332 263.848 43.376 261.976 43.376C260.518 43.376 259.528 42.872 259.042 41.864L257.674 42.638C258.412 44.06 259.924 44.834 261.94 44.834C263.2 44.834 264.28 44.456 265.18 43.718C266.08 42.98 266.53 41.954 266.53 40.622V32H264.982V33.548ZM264.982 36.446C264.982 37.364 264.676 38.12 264.064 38.732C263.452 39.344 262.696 39.65 261.778 39.65C260.86 39.65 260.104 39.344 259.492 38.732C258.88 38.12 258.574 37.364 258.574 36.446C258.574 35.546 258.88 34.79 259.492 34.178C260.104 33.566 260.86 33.26 261.778 33.26C262.696 33.26 263.452 33.566 264.064 34.178C264.676 34.79 264.982 35.546 264.982 36.446ZM269.695 30.884C270.271 30.884 270.739 30.416 270.739 29.84C270.739 29.264 270.271 28.778 269.695 28.778C269.101 28.778 268.633 29.264 268.633 29.84C268.633 30.416 269.101 30.884 269.695 30.884ZM270.469 41V32H268.903V41H270.469ZM280.31 33.548C279.536 32.36 278.402 31.766 276.908 31.766C275.648 31.766 274.568 32.234 273.686 33.152C272.804 34.07 272.354 35.186 272.354 36.5C272.354 37.814 272.804 38.948 273.686 39.866C274.568 40.784 275.648 41.234 276.908 41.234C278.402 41.234 279.536 40.64 280.31 39.452V41H281.876V32H280.31V33.548ZM277.106 39.722C276.206 39.722 275.45 39.416 274.838 38.804C274.226 38.174 273.92 37.418 273.92 36.5C273.92 35.582 274.226 34.826 274.838 34.214C275.45 33.584 276.206 33.278 277.106 33.278C278.024 33.278 278.78 33.584 279.392 34.214C280.004 34.826 280.31 35.582 280.31 36.5C280.31 37.418 280.004 38.174 279.392 38.804C278.78 39.416 278.024 39.722 277.106 39.722ZM290.099 34.43C290.099 33.656 290.819 33.224 291.701 33.224C292.655 33.224 293.303 33.602 293.627 34.376L294.941 33.638C294.365 32.468 293.159 31.766 291.701 31.766C290.783 31.766 290.027 32.018 289.415 32.522C288.821 33.026 288.515 33.674 288.515 34.448C288.515 36.356 290.351 36.824 291.773 37.202C292.763 37.436 293.555 37.832 293.555 38.534C293.555 39.38 292.799 39.758 291.773 39.758C290.675 39.758 289.829 39.218 289.541 38.354L288.191 39.128C288.713 40.406 290.027 41.234 291.773 41.234C292.763 41.234 293.555 40.982 294.185 40.496C294.815 40.01 295.139 39.344 295.139 38.534C295.157 36.608 293.285 36.086 291.881 35.78C290.891 35.51 290.099 35.132 290.099 34.43ZM304.841 30.884C304.841 31.676 304.715 32 303.923 32H303.203V36.77C303.203 38.786 302.159 39.74 300.593 39.74C299.207 39.74 298.361 38.894 298.361 37.436V32H296.795V37.526C296.795 39.812 298.181 41.234 300.287 41.234C301.601 41.234 302.573 40.73 303.203 39.704V41H304.769V33.134C305.867 32.918 306.227 32.18 306.227 30.884V30.668H304.841V30.884ZM313.003 34.43C313.003 33.656 313.723 33.224 314.605 33.224C315.559 33.224 316.207 33.602 316.531 34.376L317.845 33.638C317.269 32.468 316.063 31.766 314.605 31.766C313.687 31.766 312.931 32.018 312.319 32.522C311.725 33.026 311.419 33.674 311.419 34.448C311.419 36.356 313.255 36.824 314.677 37.202C315.667 37.436 316.459 37.832 316.459 38.534C316.459 39.38 315.703 39.758 314.677 39.758C313.579 39.758 312.733 39.218 312.445 38.354L311.095 39.128C311.617 40.406 312.931 41.234 314.677 41.234C315.667 41.234 316.459 40.982 317.089 40.496C317.719 40.01 318.043 39.344 318.043 38.534C318.061 36.608 316.189 36.086 314.785 35.78C313.795 35.51 313.003 35.132 313.003 34.43ZM327.103 33.548C326.329 32.36 325.195 31.766 323.701 31.766C322.441 31.766 321.361 32.234 320.479 33.152C319.597 34.07 319.147 35.186 319.147 36.5C319.147 37.814 319.597 38.948 320.479 39.866C321.361 40.784 322.441 41.234 323.701 41.234C325.195 41.234 326.329 40.64 327.103 39.452V41H328.669V32H327.103V33.548ZM323.899 39.722C322.999 39.722 322.243 39.416 321.631 38.804C321.019 38.174 320.713 37.418 320.713 36.5C320.713 35.582 321.019 34.826 321.631 34.214C322.243 33.584 322.999 33.278 323.899 33.278C324.817 33.278 325.573 33.584 326.185 34.214C326.797 34.826 327.103 35.582 327.103 36.5C327.103 37.418 326.797 38.174 326.185 38.804C325.573 39.416 324.817 39.722 323.899 39.722ZM337.252 36.77C337.252 38.786 336.208 39.74 334.642 39.74C333.256 39.74 332.41 38.894 332.41 37.436V32H330.844V37.526C330.844 39.812 332.23 41.234 334.336 41.234C335.65 41.234 336.622 40.73 337.252 39.704V41H338.818V32H337.252V36.77ZM201.56 55.766C200.3 55.766 199.364 56.27 198.734 57.296C198.176 56.27 197.294 55.766 196.088 55.766C194.918 55.766 194.018 56.252 193.406 57.206V56H191.84V65H193.406V59.996C193.406 58.178 194.396 57.26 195.71 57.26C196.88 57.26 197.618 58.07 197.618 59.456V65H199.184V59.996C199.184 58.142 200.048 57.26 201.398 57.26C202.604 57.26 203.378 58.07 203.378 59.456V65H204.944V59.402C204.944 57.17 203.576 55.766 201.56 55.766ZM212.336 54.776H213.902L212.12 52.508H210.518L208.736 54.776H210.302L211.328 53.408L212.336 54.776ZM207.98 57.134C207.062 58.052 206.612 59.168 206.612 60.5C206.612 61.832 207.062 62.948 207.98 63.866C208.898 64.784 210.032 65.234 211.346 65.234C212.66 65.234 213.794 64.784 214.712 63.866C215.63 62.948 216.098 61.832 216.098 60.5C216.098 59.168 215.63 58.052 214.712 57.134C213.794 56.216 212.66 55.766 211.346 55.766C210.032 55.766 208.898 56.216 207.98 57.134ZM211.346 63.704C210.464 63.704 209.708 63.398 209.096 62.786C208.484 62.174 208.178 61.418 208.178 60.5C208.178 59.582 208.484 58.826 209.096 58.214C209.708 57.602 210.464 57.296 211.346 57.296C212.246 57.296 213.002 57.602 213.614 58.214C214.226 58.826 214.532 59.582 214.532 60.5C214.532 61.418 214.226 62.174 213.614 62.786C213.002 63.398 212.246 63.704 211.346 63.704ZM210.05 52.022C210.05 50.942 210.446 50.96 211.256 51.626C212.516 52.508 213.83 52.202 213.83 49.988H212.606C212.606 51.05 212.228 51.032 211.4 50.366C210.158 49.484 208.826 49.772 208.826 52.022H210.05ZM218.736 54.884C219.312 54.884 219.78 54.416 219.78 53.84C219.78 53.264 219.312 52.778 218.736 52.778C218.142 52.778 217.674 53.264 217.674 53.84C217.674 54.416 218.142 54.884 218.736 54.884ZM219.51 65V56H217.944V65H219.51ZM231.367 55.766C229.873 55.766 228.739 56.36 227.965 57.548V52.4H226.399V65H227.965V63.452C228.739 64.64 229.873 65.234 231.367 65.234C232.627 65.234 233.707 64.784 234.589 63.866C235.471 62.948 235.921 61.814 235.921 60.5C235.921 59.186 235.471 58.07 234.589 57.152C233.707 56.234 232.627 55.766 231.367 55.766ZM231.169 63.722C230.251 63.722 229.495 63.416 228.883 62.804C228.271 62.174 227.965 61.418 227.965 60.5C227.965 59.582 228.271 58.826 228.883 58.214C229.495 57.584 230.251 57.278 231.169 57.278C232.069 57.278 232.825 57.584 233.437 58.214C234.049 58.826 234.355 59.582 234.355 60.5C234.355 61.418 234.049 62.174 233.437 62.804C232.825 63.416 232.069 63.722 231.169 63.722ZM244 60.77C244 62.786 242.956 63.74 241.39 63.74C240.004 63.74 239.158 62.894 239.158 61.436V56H237.592V61.526C237.592 63.812 238.978 65.234 241.084 65.234C242.398 65.234 243.37 64.73 244 63.704V65H245.566V56H244V60.77ZM253.17 54.776H254.736L252.954 52.508H251.352L249.57 54.776H251.136L252.162 53.408L253.17 54.776ZM248.814 57.134C247.896 58.052 247.446 59.168 247.446 60.5C247.446 61.832 247.896 62.948 248.814 63.866C249.732 64.784 250.866 65.234 252.18 65.234C253.494 65.234 254.628 64.784 255.546 63.866C256.464 62.948 256.932 61.832 256.932 60.5C256.932 59.168 256.464 58.052 255.546 57.134C254.628 56.216 253.494 55.766 252.18 55.766C250.866 55.766 249.732 56.216 248.814 57.134ZM252.18 63.704C251.298 63.704 250.542 63.398 249.93 62.786C249.318 62.174 249.012 61.418 249.012 60.5C249.012 59.582 249.318 58.826 249.93 58.214C250.542 57.602 251.298 57.296 252.18 57.296C253.08 57.296 253.836 57.602 254.448 58.214C255.06 58.826 255.366 59.582 255.366 60.5C255.366 61.418 255.06 62.174 254.448 62.786C253.836 63.398 253.08 63.704 252.18 63.704ZM255.042 53.12C254.988 52.724 255.114 52.634 255.33 52.526C255.654 52.364 255.96 51.986 255.96 51.356C255.96 50.492 255.312 50.096 254.52 50.096C253.782 50.096 253.134 50.42 252.81 51.212L253.746 51.608C253.89 51.212 254.214 51.086 254.52 51.086C254.808 51.086 254.934 51.212 254.934 51.374C254.934 51.644 254.718 51.734 254.61 51.788C254.61 51.806 254.358 51.95 254.358 51.95C254.034 52.202 254.016 52.382 254.016 53.12H255.042ZM259.57 54.884C260.146 54.884 260.614 54.416 260.614 53.84C260.614 53.264 260.146 52.778 259.57 52.778C258.976 52.778 258.508 53.264 258.508 53.84C258.508 54.416 258.976 54.884 259.57 54.884ZM260.344 65V56H258.778V65H260.344ZM274.685 57.548C273.911 56.36 272.777 55.766 271.283 55.766C270.023 55.766 268.943 56.234 268.061 57.152C267.179 58.07 266.729 59.186 266.729 60.5C266.729 61.814 267.179 62.948 268.061 63.866C268.943 64.784 270.023 65.234 271.283 65.234C272.777 65.234 273.911 64.64 274.685 63.452V65H276.251V52.4H274.685V57.548ZM271.481 63.722C270.581 63.722 269.825 63.416 269.213 62.804C268.601 62.174 268.295 61.418 268.295 60.5C268.295 59.582 268.601 58.826 269.213 58.214C269.825 57.584 270.581 57.278 271.481 57.278C272.399 57.278 273.155 57.584 273.767 58.214C274.379 58.826 274.685 59.582 274.685 60.5C274.685 61.418 274.379 62.174 273.767 62.804C273.155 63.416 272.399 63.722 271.481 63.722ZM282.98 68.636C283.556 68.636 284.024 68.168 284.024 67.592C284.024 67.016 283.556 66.53 282.98 66.53C282.386 66.53 281.918 67.016 281.918 67.592C281.918 68.168 282.386 68.636 282.98 68.636ZM286.076 57.548C285.302 56.36 284.168 55.766 282.674 55.766C281.414 55.766 280.334 56.234 279.452 57.152C278.57 58.07 278.12 59.186 278.12 60.5C278.12 61.814 278.57 62.948 279.452 63.866C280.334 64.784 281.414 65.234 282.674 65.234C284.168 65.234 285.302 64.64 286.076 63.452V65H287.642V56H286.076V57.548ZM282.872 63.722C281.972 63.722 281.216 63.416 280.604 62.804C279.992 62.174 279.686 61.418 279.686 60.5C279.686 59.582 279.992 58.826 280.604 58.214C281.216 57.584 281.972 57.278 282.872 57.278C283.79 57.278 284.546 57.584 285.158 58.214C285.77 58.826 286.076 59.582 286.076 60.5C286.076 61.418 285.77 62.174 285.158 62.804C284.546 63.416 283.79 63.722 282.872 63.722ZM293.704 63.056L290.644 56H288.97L292.894 64.964L292.732 65.306C292.21 66.62 291.4 67.232 290.302 67.142V68.6C292.102 68.726 293.524 67.592 294.298 65.558L297.97 56H296.296L293.704 63.056ZM307.18 66.8C304.534 61.526 304.534 55.874 307.18 50.6H305.614C302.968 55.874 302.968 61.526 305.614 66.8H307.18ZM313.719 56H311.325V53.48L309.759 53.948V56H307.977V57.512H309.759V62.39C309.759 64.622 310.983 65.36 313.719 65V63.596C312.117 63.668 311.325 63.776 311.325 62.39V57.512H313.719V56ZM317.192 56H315.625V65H317.192V60.23C317.192 59.24 317.462 58.538 318.02 58.088C318.578 57.638 319.226 57.44 320 57.476V55.838C318.65 55.838 317.714 56.396 317.192 57.512V56ZM324.916 68.636C325.492 68.636 325.96 68.168 325.96 67.592C325.96 67.016 325.492 66.53 324.916 66.53C324.322 66.53 323.854 67.016 323.854 67.592C323.854 68.168 324.322 68.636 324.916 68.636ZM329.38 54.884C329.38 55.676 329.254 56 328.462 56H327.742V60.77C327.742 62.786 326.698 63.74 325.132 63.74C323.746 63.74 322.9 62.894 322.9 61.436V56H321.334V61.526C321.334 63.812 322.72 65.234 324.826 65.234C326.14 65.234 327.112 64.73 327.742 63.704V65H329.308V57.134C330.406 56.918 330.766 56.18 330.766 54.884V54.668H329.38V54.884ZM335.922 65.234C337.668 65.234 339.198 64.316 339.972 62.894L338.64 62.12C338.136 63.074 337.128 63.686 335.922 63.686C335.022 63.686 334.266 63.38 333.654 62.768C333.06 62.156 332.754 61.4 332.754 60.5C332.754 59.582 333.06 58.826 333.654 58.214C334.266 57.602 335.022 57.296 335.922 57.296C337.128 57.296 338.136 57.926 338.586 58.88L339.9 58.124C339.198 56.684 337.704 55.766 335.922 55.766C334.572 55.766 333.438 56.216 332.538 57.134C331.638 58.034 331.188 59.15 331.188 60.5C331.188 61.85 331.638 62.966 332.538 63.884C333.438 64.784 334.572 65.234 335.922 65.234ZM202.353 80H199.959V77.48L198.393 77.948V80H196.611V81.512H198.393V86.39C198.393 88.622 199.617 89.36 202.353 89V87.596C200.751 87.668 199.959 87.776 199.959 86.39V81.512H202.353V80ZM205.051 78.884C205.627 78.884 206.095 78.416 206.095 77.84C206.095 77.264 205.627 76.778 205.051 76.778C204.457 76.778 203.989 77.264 203.989 77.84C203.989 78.416 204.457 78.884 205.051 78.884ZM205.825 89V80H204.259V89H205.825ZM213.488 78.812H215.054L213.272 76.544H211.67L209.888 78.812H211.454L212.48 77.444L213.488 78.812ZM216.854 85.22C216.89 84.986 216.908 84.752 216.908 84.518C216.908 83.204 216.494 82.088 215.648 81.17C214.82 80.234 213.74 79.766 212.426 79.766C211.04 79.766 209.906 80.216 209.024 81.116C208.142 82.016 207.71 83.15 207.71 84.5C207.71 85.868 208.16 87.002 209.042 87.902C209.942 88.784 211.112 89.234 212.534 89.234C214.298 89.234 215.612 88.55 216.494 87.2L215.162 86.444C214.622 87.326 213.758 87.758 212.57 87.758C210.86 87.758 209.618 86.822 209.312 85.22H216.854ZM212.426 81.242C213.866 81.242 215.054 82.142 215.324 83.852H209.312C209.582 82.268 210.752 81.242 212.426 81.242ZM214.28 77.156H215.684L217.394 74.942H215.612L214.28 77.156ZM223.677 79.766C222.183 79.766 221.049 80.36 220.275 81.548V80H218.709V92.6H220.275V87.452C221.049 88.64 222.183 89.234 223.677 89.234C224.937 89.234 226.017 88.784 226.899 87.866C227.781 86.948 228.231 85.814 228.231 84.5C228.231 83.186 227.781 82.07 226.899 81.152C226.017 80.234 224.937 79.766 223.677 79.766ZM223.479 87.722C222.561 87.722 221.805 87.416 221.193 86.804C220.581 86.174 220.275 85.418 220.275 84.5C220.275 83.582 220.581 82.826 221.193 82.214C221.805 81.584 222.561 81.278 223.479 81.278C224.379 81.278 225.135 81.584 225.747 82.214C226.359 82.826 226.665 83.582 226.665 84.5C226.665 85.418 226.359 86.174 225.747 86.804C225.135 87.416 224.379 87.722 223.479 87.722ZM239.081 79.766C237.767 79.766 236.795 80.27 236.165 81.296V76.4H234.599V89H236.165V84.23C236.165 82.214 237.209 81.26 238.775 81.26C240.161 81.26 241.007 82.106 241.007 83.564V89H242.573V83.474C242.573 81.188 241.187 79.766 239.081 79.766ZM252.355 87.866C253.273 86.948 253.741 85.832 253.741 84.5C253.741 83.168 253.273 82.052 252.355 81.134C251.437 80.216 250.303 79.766 248.989 79.766C247.675 79.766 246.541 80.216 245.623 81.134C244.705 82.052 244.255 83.168 244.255 84.5C244.255 85.832 244.705 86.948 245.623 87.866C246.541 88.784 247.675 89.234 248.989 89.234C250.303 89.234 251.437 88.784 252.355 87.866ZM248.989 87.704C248.107 87.704 247.351 87.398 246.739 86.786C246.127 86.174 245.821 85.418 245.821 84.5C245.821 83.582 246.127 82.826 246.739 82.214C247.351 81.602 248.107 81.296 248.989 81.296C249.889 81.296 250.645 81.602 251.257 82.214C251.869 82.826 252.175 83.582 252.175 84.5C252.175 85.418 251.869 86.174 251.257 86.786C250.645 87.398 249.889 87.704 248.989 87.704ZM263.039 81.548C262.265 80.36 261.131 79.766 259.637 79.766C258.377 79.766 257.297 80.234 256.415 81.152C255.533 82.07 255.083 83.186 255.083 84.5C255.083 85.814 255.533 86.948 256.415 87.866C257.297 88.784 258.377 89.234 259.637 89.234C261.131 89.234 262.265 88.64 263.039 87.452V89H264.605V80H263.039V81.548ZM259.835 87.722C258.935 87.722 258.179 87.416 257.567 86.804C256.955 86.174 256.649 85.418 256.649 84.5C256.649 83.582 256.955 82.826 257.567 82.214C258.179 81.584 258.935 81.278 259.835 81.278C260.753 81.278 261.509 81.584 262.121 82.214C262.733 82.826 263.039 83.582 263.039 84.5C263.039 85.418 262.733 86.174 262.121 86.804C261.509 87.416 260.753 87.722 259.835 87.722ZM259.943 92.636C260.519 92.636 260.987 92.168 260.987 91.592C260.987 91.016 260.519 90.53 259.943 90.53C259.349 90.53 258.881 91.016 258.881 91.592C258.881 92.168 259.349 92.636 259.943 92.636ZM260.699 78.974C262.247 78.974 263.183 78.128 263.183 76.706H261.833C261.833 77.426 261.437 77.804 260.699 77.804C259.943 77.804 259.547 77.426 259.547 76.706H258.197C258.197 78.128 259.151 78.974 260.699 78.974ZM271.208 89.234C272.954 89.234 274.484 88.316 275.258 86.894L273.926 86.12C273.422 87.074 272.414 87.686 271.208 87.686C270.308 87.686 269.552 87.38 268.94 86.768C268.346 86.156 268.04 85.4 268.04 84.5C268.04 83.582 268.346 82.826 268.94 82.214C269.552 81.602 270.308 81.296 271.208 81.296C272.414 81.296 273.422 81.926 273.872 82.88L275.186 82.124C274.484 80.684 272.99 79.766 271.208 79.766C269.858 79.766 268.724 80.216 267.824 81.134C266.924 82.034 266.474 83.15 266.474 84.5C266.474 85.85 266.924 86.966 267.824 87.884C268.724 88.784 269.858 89.234 271.208 89.234ZM288.918 87.866C289.836 86.948 290.304 85.832 290.304 84.5C290.304 83.168 289.836 82.052 288.918 81.134C288 80.216 286.866 79.766 285.552 79.766C284.238 79.766 283.104 80.216 282.186 81.134C281.268 82.052 280.818 83.168 280.818 84.5C280.818 85.832 281.268 86.948 282.186 87.866C283.104 88.784 284.238 89.234 285.552 89.234C286.866 89.234 288 88.784 288.918 87.866ZM285.552 87.704C284.67 87.704 283.914 87.398 283.302 86.786C282.69 86.174 282.384 85.418 282.384 84.5C282.384 83.582 282.69 82.826 283.302 82.214C283.914 81.602 284.67 81.296 285.552 81.296C286.452 81.296 287.208 81.602 287.82 82.214C288.432 82.826 288.738 83.582 288.738 84.5C288.738 85.418 288.432 86.174 287.82 86.786C287.208 87.398 286.452 87.704 285.552 87.704ZM296.632 79.766C295.318 79.766 294.346 80.27 293.716 81.296V80H292.15V89H293.716V84.23C293.716 82.214 294.76 81.26 296.326 81.26C297.712 81.26 298.558 82.106 298.558 83.564V89H300.124V83.474C300.124 81.188 298.738 79.766 296.632 79.766ZM303.876 89V75.86H302.31V89H303.876ZM307.057 78.884C307.633 78.884 308.101 78.416 308.101 77.84C308.101 77.264 307.633 76.778 307.057 76.778C306.463 76.778 305.995 77.264 305.995 77.84C305.995 78.416 306.463 78.884 307.057 78.884ZM307.831 89V80H306.265V89H307.831ZM314.702 79.766C313.388 79.766 312.416 80.27 311.786 81.296V80H310.22V89H311.786V84.23C311.786 82.214 312.83 81.26 314.396 81.26C315.782 81.26 316.628 82.106 316.628 83.564V89H318.194V83.474C318.194 81.188 316.808 79.766 314.702 79.766ZM329.02 85.22C329.056 84.986 329.074 84.752 329.074 84.518C329.074 83.204 328.66 82.088 327.814 81.17C326.986 80.234 325.906 79.766 324.592 79.766C323.206 79.766 322.072 80.216 321.19 81.116C320.308 82.016 319.876 83.15 319.876 84.5C319.876 85.868 320.326 87.002 321.208 87.902C322.108 88.784 323.278 89.234 324.7 89.234C326.464 89.234 327.778 88.55 328.66 87.2L327.328 86.444C326.788 87.326 325.924 87.758 324.736 87.758C323.026 87.758 321.784 86.822 321.478 85.22H329.02ZM324.592 81.242C326.032 81.242 327.22 82.142 327.49 83.852H321.478C321.748 82.268 322.918 81.242 324.592 81.242ZM331.703 90.8C334.349 85.526 334.349 79.874 331.703 74.6H330.137C332.783 79.874 332.783 85.526 330.137 90.8H331.703Z" fill="#212E5E"/>
</svg>
