<svg width="360" height="269" viewBox="0 0 360 269" fill="none" xmlns="http://www.w3.org/2000/svg">
<path d="M360 236.397H0V236.578H360V236.397Z" fill="#EBEBEB"/>
<path d="M323.928 248.013H300.082V248.194H323.928V248.013Z" fill="#EBEBEB"/>
<path d="M238.478 249.977H232.222V250.158H238.478V249.977Z" fill="#EBEBEB"/>
<path d="M299.361 241.314H285.545V241.494H299.361V241.314Z" fill="#EBEBEB"/>
<path d="M68.868 242.527H37.7712V242.707H68.868V242.527Z" fill="#EBEBEB"/>
<path d="M79.8408 242.527H75.2832V242.707H79.8408V242.527Z" fill="#EBEBEB"/>
<path d="M162.108 245.573H94.6584V245.754H162.108V245.573Z" fill="#EBEBEB"/>
<path d="M170.647 204.199H31.6224C29.3544 204.199 27.5112 202.351 27.5112 200.077V4.12225C27.5112 1.84815 29.3544 0 31.6224 0H170.654C172.922 0 174.766 1.84815 174.766 4.12225V200.077C174.758 202.351 172.915 204.199 170.647 204.199ZM31.6224 0.180484C29.4552 0.180484 27.6912 1.94922 27.6912 4.12225V200.077C27.6912 202.25 29.4552 204.019 31.6224 204.019H170.654C172.822 204.019 174.586 202.25 174.586 200.077V4.12225C174.586 1.94922 172.822 0.180484 170.654 0.180484H31.6224Z" fill="#EBEBEB"/>
<path d="M326.383 204.199H187.351C185.083 204.199 183.24 202.351 183.24 200.077V4.12225C183.24 1.84815 185.083 0 187.351 0H326.383C328.651 0 330.494 1.84815 330.494 4.12225V200.077C330.494 202.351 328.651 204.199 326.383 204.199ZM187.351 0.180484C185.184 0.180484 183.42 1.94922 183.42 4.12225V200.077C183.42 202.25 185.184 204.019 187.351 204.019H326.383C328.55 204.019 330.314 202.25 330.314 200.077V4.12225C330.314 1.94922 328.55 0.180484 326.383 0.180484H187.351Z" fill="#EBEBEB"/>
<path d="M43.8158 102.467H96.6062L96.6062 14.9464H43.8158L43.8158 102.467Z" fill="#F5F5F5"/>
<path d="M43.8118 14.9441H42.7678V102.464H43.8118V14.9441Z" fill="#E0E0E0"/>
<path d="M49.1728 98.6113H91.2568L91.2568 18.7943H49.1728L49.1728 98.6113Z" fill="#FAFAFA"/>
<path d="M109.065 133.193H161.855V45.6732H109.065L109.065 133.193Z" fill="#F5F5F5"/>
<path d="M109.065 45.6697H108.021V133.19H109.065V45.6697Z" fill="#E0E0E0"/>
<path d="M114.422 129.338H156.506V49.5213H114.422V129.338Z" fill="#FAFAFA"/>
<path d="M75.0239 213.772C76.3343 189.97 72.8711 151.664 69.1199 138.417C68.6231 136.662 68.0543 134.619 67.2047 134.352C64.7495 133.572 63.6479 137.428 63.9575 138.749C65.4263 145.152 66.7439 161.02 68.0615 188.634C68.7167 202.38 68.0471 211.794 69.8183 213.779L75.0239 213.772Z" fill="#E6E6E6"/>
<path d="M71.1215 160.681C74.5631 149.527 118.62 138.07 105.933 150.069C102.773 153.058 88.0559 160.934 82.0151 169.214C77.3207 175.647 72.5759 186.462 71.3231 192.468C70.7759 179.841 68.8319 168.117 71.1215 160.681Z" fill="#E6E6E6"/>
<path d="M76.1399 174.824C83.8151 157.851 108.367 154.805 101.765 163.764C99.1727 167.28 89.6687 171.286 83.6207 179.574C78.9263 186.007 74.1815 196.821 72.9287 202.828C72.3815 190.201 72.9359 181.913 76.1399 174.824Z" fill="#E6E6E6"/>
<path d="M66.4918 173.38C57.4054 151.541 24.5806 149.809 33.3142 159.952C36.6334 163.807 48.2326 170.882 56.995 179.993C63.8062 187.068 71.4814 198.792 74.095 205.224C72.403 191.869 70.1566 182.187 66.4918 173.38Z" fill="#E6E6E6"/>
<path d="M70.308 148.95C78.444 133.991 103.068 132.396 96.0408 140.575C93.2832 143.788 84.3048 147.874 78.444 155.909C73.8864 162.147 68.4144 170.29 67.1976 176.109C66.6648 163.865 66.7008 155.577 70.308 148.95Z" fill="#E6E6E6"/>
<path d="M63.2231 149.246C56.8007 139.954 28.0367 129.725 35.5319 138.15C43.3871 146.979 48.9671 145.456 56.3903 153.173C62.1575 159.165 68.6591 169.092 70.8695 174.542C69.4439 163.222 67.8167 155.888 63.2231 149.246Z" fill="#E6E6E6"/>
<path d="M70.8478 138.539C74.9158 131.19 91.7494 125.783 87.3358 131.421C84.2758 135.334 80.6038 138.02 76.7158 143.347C73.6918 147.484 69.5878 152.697 68.7814 156.552C68.4358 148.43 68.4214 142.914 70.8478 138.539Z" fill="#E6E6E6"/>
<path d="M64.2167 140.763C60.1127 136.208 38.1671 125.371 43.1783 132.331C45.1439 135.06 53.5175 141.723 59.1623 147.585C63.5471 152.141 68.3567 155.844 70.0343 159.981C68.9399 151.383 68.3279 145.318 64.2167 140.763Z" fill="#E6E6E6"/>
<path d="M69.8399 156.776C63.8423 150.119 20.1167 141.543 31.3559 148.885C35.2079 151.397 52.1063 155.722 60.3503 164.284C66.7511 170.94 69.0551 181.964 71.5103 188.014C77.9759 177.394 75.8447 163.439 69.8399 156.776Z" fill="#E6E6E6"/>
<path d="M62.3519 212.812L62.9135 232.73C62.9783 236.506 63.8495 236.398 64.9151 236.398H79.0487C80.1143 236.398 80.9927 236.513 81.0503 232.73L81.6119 212.812C81.6767 208.712 80.7623 205.261 79.6103 205.261H64.3535C63.2015 205.254 62.2871 208.712 62.3519 212.812Z" fill="#F5F5F5"/>
<path d="M61.5096 208.878H82.4544C82.764 208.878 83.0232 208.683 83.052 208.423L83.5488 204.611C83.5848 204.308 83.3112 204.048 82.9512 204.048H61.0056C60.6456 204.048 60.3648 204.315 60.408 204.611L60.9048 208.423C60.9408 208.683 61.2 208.878 61.5096 208.878Z" fill="#F5F5F5"/>
<path d="M209.426 124.606H193.572V231.568H209.426V124.606Z" fill="#F0F0F0"/>
<path d="M316.8 231.575H196.617V236.397H316.8V231.575Z" fill="#F0F0F0"/>
<path d="M209.426 231.576H319.845V124.614L209.426 124.614V231.576Z" fill="#F5F5F5"/>
<path d="M207.785 120.404H191.577V124.613H207.785V120.404Z" fill="#F0F0F0"/>
<path d="M207.781 124.606L321.837 124.606V120.397L207.781 120.397V124.606Z" fill="#FAFAFA"/>
<path d="M314.064 175.112H215.208V133.522H314.064V175.112ZM216.115 174.203H313.164V134.431H216.115V174.203Z" fill="#E0E0E0"/>
<path d="M314.064 222.659H215.208V181.653H314.064V222.659ZM216.115 221.749H313.164V182.555H216.115V221.749Z" fill="#E0E0E0"/>
<path d="M283.881 141.701H245.383C244.447 141.701 243.677 140.929 243.677 139.99C243.677 139.052 244.447 138.279 245.383 138.279H283.881C284.817 138.279 285.588 139.052 285.588 139.99C285.588 140.929 284.824 141.701 283.881 141.701Z" fill="#E0E0E0"/>
<path d="M283.881 189.833H245.383C244.447 189.833 243.677 189.06 243.677 188.122C243.677 187.183 244.447 186.411 245.383 186.411H283.881C284.817 186.411 285.588 187.183 285.588 188.122C285.588 189.06 284.824 189.833 283.881 189.833Z" fill="#E0E0E0"/>
<path d="M259.495 120.361H305.287L309.002 79.4199H263.21L259.495 120.361Z" fill="#E6E6E6"/>
<path d="M257.94 120.361H303.732L307.447 79.4199H261.655L257.94 120.361Z" fill="#F0F0F0"/>
<path d="M299.62 115.827L302.515 83.9536H265.766L262.872 115.827H299.62Z" fill="white"/>
<path d="M248.889 90.4656L246.175 120.361H268.121L270.835 90.4656H248.889Z" fill="#E6E6E6"/>
<path d="M247.752 90.4656L245.037 120.361H266.99L269.697 90.4656H247.752Z" fill="#F0F0F0"/>
<path d="M250.754 93.772L248.637 117.047H263.988L266.097 93.772H250.754Z" fill="white"/>
<path d="M180 269C257.099 269 319.601 265.341 319.601 260.828C319.601 256.314 257.099 252.656 180 252.656C102.901 252.656 40.3992 256.314 40.3992 260.828C40.3992 265.341 102.901 269 180 269Z" fill="#F5F5F5"/>
<path d="M213.35 42.4281C210.564 35.3604 202.471 31.9817 195.466 35.0788C189.338 37.7933 186.005 45.684 188.316 51.9865C189.533 55.3074 191.916 57.8486 194.817 59.3286C196.056 59.9567 197.143 60.8519 197.885 62.0358L199.786 65.0824C201.067 67.1471 203.638 67.9918 205.891 67.1038L210.686 65.2051C212.94 64.3099 214.236 61.9348 213.775 59.5452L213.055 55.885C212.803 54.5927 212.976 53.2716 213.437 52.0371C214.56 49.041 214.618 45.6335 213.35 42.4281Z" fill="#0367B4"/>
<path d="M206.51 73.1826C206.208 73.1826 205.905 73.1176 205.617 72.9949C205.07 72.7567 204.646 72.3163 204.422 71.7604C203.969 70.6125 204.538 69.3058 205.682 68.851L212.04 66.3314C212.594 66.1149 213.206 66.1221 213.754 66.3603C214.301 66.5986 214.726 67.0389 214.949 67.5948C215.165 68.1507 215.158 68.7571 214.92 69.313C214.682 69.8617 214.243 70.2876 213.689 70.5114L207.331 73.031C207.065 73.1248 206.784 73.1826 206.51 73.1826ZM212.861 66.8945C212.674 66.8945 212.486 66.9306 212.306 67.0028L205.949 69.5224C205.171 69.8328 204.782 70.7208 205.092 71.5005C205.243 71.8759 205.531 72.1719 205.898 72.3379C206.273 72.504 206.683 72.5112 207.057 72.3596L213.415 69.84C213.79 69.6884 214.085 69.3997 214.25 69.0315C214.416 68.6561 214.423 68.2446 214.272 67.8692C214.121 67.4938 213.833 67.1978 213.466 67.0317C213.271 66.9379 213.062 66.8945 212.861 66.8945Z" fill="#263238"/>
<path d="M209.75 77.0593C209.563 77.0593 209.376 77.0232 209.196 76.9438C208.85 76.7922 208.591 76.5179 208.454 76.1785L208.346 75.897C208.066 75.1823 208.418 74.3665 209.131 74.0849L213.106 72.5111C213.818 72.2296 214.632 72.5833 214.913 73.298L215.021 73.5796C215.158 73.9261 215.15 74.3015 214.999 74.648C214.848 74.9946 214.581 75.2545 214.236 75.3916L210.262 76.9655C210.089 77.0304 209.923 77.0593 209.75 77.0593ZM213.602 73.132C213.523 73.132 213.437 73.1464 213.357 73.1825L209.383 74.7563C209.038 74.8935 208.865 75.2906 209.002 75.6371L209.11 75.9186C209.174 76.0847 209.304 76.2219 209.469 76.2868C209.635 76.359 209.822 76.359 209.988 76.2941L213.962 74.7202C214.128 74.6553 214.257 74.5253 214.329 74.3593C214.401 74.1932 214.401 74.0127 214.337 73.8395L214.229 73.5579C214.128 73.298 213.876 73.132 213.602 73.132Z" fill="#263238"/>
<path d="M197.935 55.228C196.855 55.228 195.84 54.5783 195.422 53.5171C194.875 52.1309 195.559 50.5499 196.942 50.0012C198.331 49.4526 199.901 50.1384 200.448 51.5245L201.442 54.0441L198.929 55.0403C198.598 55.1703 198.266 55.228 197.935 55.228ZM197.928 50.5355C197.683 50.5355 197.438 50.5788 197.201 50.6726C196.186 51.0769 195.682 52.232 196.085 53.2499C196.488 54.2679 197.64 54.7732 198.655 54.3689L200.498 53.6398L199.771 51.7916C199.469 51.0119 198.72 50.5355 197.928 50.5355Z" fill="white"/>
<path d="M205.898 67.3495L200.506 53.6399L205.466 51.6763L210.859 65.3858L210.19 65.6457L205.056 52.6148L201.434 54.0442L206.568 67.0823L205.898 67.3495Z" fill="white"/>
<path d="M205.056 52.6147L204.062 50.0952C203.515 48.7091 204.199 47.128 205.581 46.5794C206.964 46.0307 208.541 46.7165 209.088 48.1026C209.635 49.4888 208.951 51.0698 207.569 51.6185L205.056 52.6147ZM206.575 47.1136C206.33 47.1136 206.085 47.1569 205.848 47.2508C204.833 47.655 204.329 48.8101 204.732 49.8281L205.459 51.6762L207.302 50.9471C208.317 50.5428 208.821 49.3877 208.418 48.3698C208.116 47.5901 207.367 47.1136 206.575 47.1136Z" fill="white"/>
<path d="M216.237 87.0221C213.516 87.0221 210.801 86.7983 208.166 86.3651L208.281 85.6504C210.873 86.0836 213.552 86.3001 216.237 86.3001V87.0221Z" fill="#407BFF"/>
<path d="M231.134 94.4939L231.516 93.7143C233.093 90.4944 232.927 86.7115 232.272 84.2858C229.543 85.2748 226.642 86.0112 223.646 86.466L223.538 85.7513C226.62 85.2821 229.594 84.5168 232.38 83.4772L232.74 83.3473L232.855 83.7155C233.575 86.0617 233.87 89.8591 232.517 93.2522C241.366 89.722 250.603 77.1892 250.603 62.2596C250.603 48.9976 235.188 38.2119 216.245 38.2119C197.302 38.2119 181.886 48.9976 181.886 62.2596C181.886 71.8974 190.073 80.575 202.738 84.3724L202.529 85.0655C189.547 81.1743 181.159 72.2223 181.159 62.2596C181.159 48.6006 196.898 37.49 216.238 37.49C235.584 37.49 251.316 48.6006 251.316 62.2596C251.316 77.9544 241.265 91.072 231.948 94.2268L231.134 94.4939Z" fill="#0367B4"/>
<path d="M254.772 64.18L230.781 68.4755C229.068 68.786 227.419 67.6309 227.109 65.9127L224.553 51.5823C224.244 49.8641 225.396 48.2108 227.109 47.9004L251.1 43.6049C252.813 43.2945 254.462 44.4496 254.772 46.1678L257.328 60.4982C257.637 62.2164 256.485 63.8768 254.772 64.18Z" fill="#0367B4"/>
<path d="M245.347 55.257L236.851 52.1743L238.442 61.0902L245.347 55.257Z" fill="white"/>
<path d="M154.994 182.383H93.8161C92.5561 182.383 91.5193 181.35 91.5193 180.08V176.802C91.5193 175.539 92.5489 174.499 93.8161 174.499H154.994C156.255 174.499 157.291 175.531 157.291 176.802V180.08C157.284 181.343 156.255 182.383 154.994 182.383Z" fill="#0367B4"/>
<path d="M154.296 256.496H156.118L154.023 182.383H151.495L154.296 256.496Z" fill="#0367B4"/>
<path opacity="0.3" d="M154.296 256.496H156.118L154.023 182.383H151.495L154.296 256.496Z" fill="#0367B4"/>
<path d="M137.498 256.496H135.677L137.779 182.383H140.299L137.498 256.496Z" fill="#0367B4"/>
<path opacity="0.3" d="M137.498 256.496H135.677L137.779 182.383H140.299L137.498 256.496Z" fill="#0367B4"/>
<path d="M111.305 256.496H113.127L111.031 182.383H108.504L111.305 256.496Z" fill="#0367B4"/>
<path opacity="0.3" d="M111.305 256.496H113.127L111.031 182.383H108.504L111.305 256.496Z" fill="#0367B4"/>
<path d="M94.5144 256.496H92.6855L94.7879 182.383H97.308L94.5144 256.496Z" fill="#0367B4"/>
<path opacity="0.3" d="M94.5144 256.496H92.6855L94.7879 182.383H97.308L94.5144 256.496Z" fill="#0367B4"/>
<path d="M173.743 237.661L180.238 235.452L174.902 220.248L168.408 222.457L173.743 237.661Z" fill="#FFC3BD"/>
<path d="M179.755 232.947L172.634 236.08C172.375 236.195 172.274 236.448 172.397 236.701L175.097 242.202C175.378 242.772 176.227 243.054 176.818 242.786C179.273 241.653 180.382 240.996 183.506 239.617C185.436 238.773 189.317 237.256 191.722 235.712C194.069 234.195 192.24 231.914 191.059 232.369C188.258 233.437 183.607 233.394 181.058 232.845C180.598 232.737 180.137 232.78 179.755 232.947Z" fill="#263238"/>
<path opacity="0.2" d="M168.408 222.464L174.902 220.255L177.948 228.947L171.346 230.846L168.408 222.464Z" fill="black"/>
<path d="M127.742 153.945C127.742 153.945 160.157 159.807 162.756 170.478C167.89 191.573 179.467 224.565 179.467 224.565L167.141 228.146C167.141 228.146 149.522 190.316 147.298 177.581C129.125 177.56 106.963 179.054 104.098 171.308C101.57 164.464 102.47 153.945 102.47 153.945H127.742Z" fill="#263238"/>
<path d="M166.464 230.333L180.864 225.568L179.633 219.049L163.93 224.594L166.464 230.333Z" fill="#407BFF"/>
<path d="M145.519 239.971L152.691 240.52L148.479 222.774L141.79 224.29L145.519 239.971Z" fill="#FFC3BD"/>
<path d="M152.51 238.787L144.785 237.928C144.504 237.899 144.288 238.072 144.274 238.347L143.87 244.469C143.827 245.104 144.418 245.775 145.066 245.833C147.758 246.086 149.04 246.064 152.438 246.447C154.526 246.678 158.645 247.32 161.503 247.176C164.297 247.039 163.843 244.151 162.598 243.949C159.638 243.472 155.635 241.097 153.698 239.35C153.346 239.025 152.921 238.83 152.51 238.787Z" fill="#263238"/>
<path opacity="0.2" d="M141.79 224.298L148.479 222.782L150.603 231.748L143.842 232.939L141.79 224.298Z" fill="black"/>
<path d="M110.909 153.945C110.909 153.945 150.3 159.858 148.493 174.809C145.894 196.366 152.568 227.547 152.568 227.547L139.932 229.813C139.932 229.813 130.637 191.06 130.558 178.13C117.742 178.13 95.3425 179.047 92.4841 171.308C89.9569 164.464 90.8569 153.945 90.8569 153.945H110.909Z" fill="#263238"/>
<path d="M139.032 231.921L153.857 228.687L153.31 222.074L137.11 225.944L139.032 231.921Z" fill="#407BFF"/>
<path d="M131.659 112.398C132.711 116.527 133.74 120.693 134.748 124.844C135.756 128.995 136.743 133.154 137.787 137.254L138.571 140.315L138.975 141.817L139.183 142.56L139.212 142.654L139.227 142.698C139.234 142.719 139.205 142.633 139.191 142.604C139.126 142.438 139.039 142.272 138.982 142.178C138.953 142.12 138.91 142.062 138.874 142.019C138.845 141.983 138.823 141.947 138.795 141.911C138.723 141.831 138.694 141.795 138.651 141.752C138.492 141.607 138.478 141.629 138.514 141.665C138.543 141.708 138.658 141.788 138.773 141.875C139.025 142.048 139.378 142.25 139.767 142.438C140.544 142.82 141.451 143.174 142.38 143.535C146.131 144.928 150.264 146.112 154.282 147.39L153.648 151.996C151.409 152.025 149.227 151.924 147.017 151.736C144.807 151.541 142.603 151.26 140.343 150.798C139.205 150.574 138.067 150.285 136.843 149.888C136.231 149.686 135.605 149.448 134.907 149.123C134.554 148.949 134.201 148.769 133.791 148.502C133.387 148.235 132.948 147.917 132.43 147.376C132.3 147.231 132.178 147.101 132.034 146.906L131.832 146.632C131.76 146.531 131.688 146.408 131.623 146.293C131.494 146.076 131.357 145.795 131.249 145.499L131.127 145.159L130.853 144.365L130.313 142.791C129.96 141.745 129.615 140.705 129.298 139.658C127.995 135.493 126.807 131.334 125.683 127.154C124.567 122.974 123.523 118.802 122.559 114.571L131.659 112.398Z" fill="#FFC3BD"/>
<path d="M121.536 107.402C125.489 102.984 131.76 106.074 134.395 115.957C135.677 120.765 135.274 123.285 135.274 123.285L121.637 127.494C118.707 121.003 116.158 113.416 121.536 107.402Z" fill="#ED5B21"/>
<g opacity="0.2">
<path opacity="0.2" d="M121.536 107.402C125.489 102.984 131.76 106.074 134.395 115.957C135.677 120.765 135.274 123.285 135.274 123.285L121.637 127.494C118.707 121.003 116.158 113.416 121.536 107.402Z" fill="#ED5B21"/>
</g>
<path d="M161.388 145.506L160.164 145.13C159.422 144.899 158.645 144.834 157.874 144.921L155.246 145.232C153.482 145.679 151.999 146.82 151.236 148.314L150.343 150.054C150.79 153.281 157.298 152.241 157.298 152.241H163.418L163.217 147.867C163.174 146.776 162.439 145.831 161.388 145.506Z" fill="#FFC3BD"/>
<path d="M165.615 138.46C165.492 139.781 164.794 140.719 164.124 141.672C163.469 142.632 162.792 143.585 162.108 144.531C160.733 146.408 159.329 148.271 157.781 150.04C157.63 150.213 157.363 150.234 157.191 150.076C157.047 149.946 157.011 149.736 157.097 149.57C158.163 147.477 159.365 145.477 160.596 143.499C161.215 142.51 161.849 141.535 162.497 140.568C163.131 139.593 163.743 138.597 164.923 137.99C165.154 137.868 165.442 137.962 165.564 138.2C165.607 138.286 165.622 138.373 165.615 138.46Z" fill="#263238"/>
<path d="M122.451 103.121L114.768 100.927L104.883 100.457C101.801 100.313 99.0145 102.255 98.0497 105.193C96.1633 110.954 94.4353 119.293 93.1681 126.49C91.7497 134.561 91.0153 142.921 90.8569 153.953H127.743C128.491 133.406 130.903 123.379 132.336 116.109C133.207 111.669 130.975 107.2 126.9 105.258L122.451 103.121Z" fill="#FF6D34"/>
<path d="M112.147 104.565C113.083 106.976 116.712 112.124 120.924 114.138C123.264 112.442 123.761 108.745 124.121 107.005L112.147 104.565Z" fill="white"/>
<path d="M124.114 107.012C124.315 106.023 124.33 105.013 123.797 104.168C123.199 103.23 123.351 102.154 123.948 101.049C124.337 100.327 125.41 98.7896 125.712 98.6452L120.881 92.978L116.943 88.4082C116.604 92.6893 116.273 97.9883 112.911 101.316C111.723 102.493 111.478 102.847 112.147 104.572C113.083 106.984 116.431 110.348 120.643 112.362C122.983 110.665 123.761 108.745 124.114 107.012Z" fill="#FFC3BD"/>
<path opacity="0.2" d="M124.229 97.6706L121.507 93.2307C121.45 93.339 121.385 93.4689 121.32 93.5989C121.104 94.0754 120.895 94.6674 120.737 95.3027C120.233 97.2735 121.903 100.089 123.739 101.432C123.811 101.302 123.876 101.179 123.955 101.049C124.301 100.4 125.273 98.9918 125.604 98.7174C125.64 98.6813 125.676 98.6597 125.712 98.638L124.229 97.6706Z" fill="black"/>
<path d="M133.762 87.0583C134.395 91.1516 140.234 80.6186 136.973 78.3012C132.984 75.4784 132.566 79.2686 133.762 87.0583Z" fill="#263238"/>
<path d="M117.123 81.7159C116.748 88.365 116.179 92.2273 119.225 96.068C123.804 101.843 132.595 99.9376 135.022 93.5701C137.203 87.8379 137.448 77.933 131.076 74.4244C124.798 70.9736 117.497 75.0669 117.123 81.7159Z" fill="#FFC3BD"/>
<path d="M130.19 77.7236C130.19 77.7236 134.431 81.8964 137.455 80.171C140.472 78.4455 141.098 73.9768 137.455 70.0639C135.706 68.1796 133.056 66.3387 127.858 66.4831C128.239 66.9812 129.326 67.3855 129.326 67.3855C129.326 67.3855 122.738 66.2809 118.138 68.1796C118.138 68.1796 118.735 69.1037 119.606 69.5224C115.135 69.1831 110.794 70.9374 113.875 75.1752C109.822 75.565 108.914 80.7702 111.074 84.1993C113.234 87.6285 113.616 90.1986 116.503 91.758C116.532 87.0871 117.576 85.9897 117.576 85.9897C119.657 85.109 122.054 80.6546 121.579 78.4094C125.935 80.171 130.68 80.7629 130.19 77.7236Z" fill="#263238"/>
<path d="M114.854 74.9947C113.587 73.9479 112.493 72.9949 111.694 70.9807C111.175 73.3053 113.58 75.9548 113.58 75.9548L114.854 74.9947Z" fill="#263238"/>
<path d="M113.81 85.3473C113.846 86.9789 114.581 88.4805 115.488 89.4407C116.863 90.8845 118.735 89.6572 119.059 87.8019C119.354 86.1342 118.649 83.5786 116.928 82.8277C115.243 82.0914 113.767 83.4847 113.81 85.3473Z" fill="#FFC3BD"/>
<path d="M127.98 85.145C127.872 85.6937 128.066 86.2063 128.419 86.2857C128.772 86.3723 129.146 85.9969 129.262 85.4483C129.37 84.8996 129.175 84.387 128.822 84.3076C128.47 84.221 128.088 84.5964 127.98 85.145Z" fill="#263238"/>
<path d="M134.1 86.6034C133.992 87.1521 134.187 87.6647 134.539 87.7441C134.892 87.8307 135.267 87.4553 135.382 86.9066C135.49 86.358 135.295 85.8454 134.943 85.766C134.583 85.6866 134.208 86.062 134.1 86.6034Z" fill="#263238"/>
<path d="M132.062 86.5674C132.062 86.5674 132.372 89.5345 133.157 91.1589C132.149 91.6642 130.882 90.899 130.882 90.899L132.062 86.5674Z" fill="#ED847E"/>
<path d="M129.751 93.9672C127.613 93.4979 126.706 91.8952 126.662 91.823C126.619 91.7436 126.648 91.6425 126.727 91.5992C126.806 91.5559 126.907 91.5848 126.95 91.6642C126.958 91.6859 127.987 93.5051 130.421 93.7434C130.514 93.7506 130.579 93.83 130.565 93.9239C130.558 94.0105 130.478 94.0827 130.385 94.0682C130.162 94.0394 129.953 94.0105 129.751 93.9672Z" fill="#263238"/>
<path d="M127.174 82.9359C127.123 82.9143 127.08 82.8854 127.044 82.8421C126.929 82.7049 126.951 82.4956 127.087 82.3801C128.463 81.2394 129.91 81.7159 129.967 81.7375C130.133 81.7736 130.234 81.983 130.169 82.1563C130.111 82.3295 129.924 82.4162 129.759 82.3584C129.701 82.3367 128.585 81.9974 127.505 82.8926C127.411 82.9576 127.282 82.9793 127.174 82.9359Z" fill="#263238"/>
<path d="M134.856 83.066C134.842 83.0154 134.842 82.9577 134.863 82.8999C134.914 82.7267 135.094 82.6256 135.267 82.6761C136.987 83.1598 137.419 84.6181 137.434 84.6831C137.499 84.8419 137.383 85.0368 137.211 85.0874C137.038 85.1379 136.858 85.0368 136.807 84.8636C136.786 84.8058 136.44 83.694 135.087 83.3114C134.971 83.2753 134.885 83.1815 134.856 83.066Z" fill="#263238"/>
<path d="M106.423 110.398C105.034 114.354 103.659 118.484 102.42 122.519C101.794 124.548 101.232 126.577 100.714 128.577C100.217 130.576 99.7922 132.576 99.569 134.403C99.5474 134.626 99.5114 134.857 99.497 135.067L99.4754 135.384C99.4682 135.485 99.461 135.637 99.4538 135.586C99.4322 135.572 99.3962 135.623 99.4394 135.774C99.5042 136.07 99.8066 136.669 100.311 137.261C101.319 138.474 102.852 139.745 104.487 140.885C107.777 143.203 111.593 145.268 115.323 147.195L113.839 151.599C111.55 151.108 109.419 150.487 107.244 149.736C105.084 148.986 102.953 148.112 100.829 147.044C98.7194 145.932 96.6026 144.719 94.5578 142.777C93.5498 141.788 92.5058 140.618 91.7354 138.879C91.3538 138.019 91.0802 136.98 91.0154 135.875C90.9938 135.55 91.001 135.435 90.9938 135.254L90.9866 134.749C90.9794 134.41 91.001 134.099 91.0082 133.774C91.109 131.226 91.4834 128.909 91.9154 126.62C92.3474 124.339 92.8874 122.13 93.4634 119.935C94.6442 115.546 96.0122 111.337 97.6466 107.07L106.423 110.398Z" fill="#FFC3BD"/>
<path d="M104.415 100.45C111.456 100.385 112.788 105.879 108.958 114.586C106.956 119.141 103.601 123.487 103.601 123.487L91.9585 117.286C93.5137 110.326 96.3577 100.522 104.415 100.45Z" fill="#ED5B22"/>
<path d="M123.84 146.495L121.262 145.08C120.845 144.849 120.355 144.762 119.88 144.827L116.784 145.253C114.703 145.47 113.191 147.065 112.054 148.451L110.729 150.069C110.664 153.332 118.886 152.567 118.886 152.567L126.079 152.473L125.856 149.628C125.755 148.314 124.999 147.138 123.84 146.495Z" fill="#FFC3BD"/>
<path d="M277.445 150.841H82.5481V159.988H277.445V150.841Z" fill="#0367B4"/>
<path opacity="0.3" d="M145.764 150.841H82.5481V159.988H145.764V150.841Z" fill="#1A96F4"/>
<path d="M87.7682 159.98H84.7874V260.82H87.7682V159.98Z" fill="#407BFF"/>
<path opacity="0.7" d="M87.7682 159.98H84.7874V260.82H87.7682V159.98Z" fill="#EAF4FC"/>
<path d="M143.532 159.98H140.551V260.82H143.532V159.98Z" fill="#407BFF"/>
<path opacity="0.7" d="M143.532 159.98H140.551V260.82H143.532V159.98Z" fill="#EAF4FC"/>
<path d="M219.449 159.98H216.468V260.82H219.449V159.98Z" fill="#407BFF"/>
<path opacity="0.7" d="M219.449 159.98H216.468V260.82H219.449V159.98Z" fill="#EAF4FC"/>
<path d="M275.213 159.98H272.232V260.82H275.213V159.98Z" fill="#407BFF"/>
<path opacity="0.7" d="M275.213 159.98H272.232V260.82H275.213V159.98Z" fill="#EAF4FC"/>
<path d="M256.284 110.413H203.004C201.197 110.413 199.483 111.893 199.181 113.705L193.623 147.556C193.327 149.368 194.559 150.848 196.366 150.848H249.646C251.453 150.848 253.167 149.368 253.469 147.556L259.027 113.705C259.323 111.893 258.091 110.413 256.284 110.413Z" fill="#263238"/>
<path d="M222.487 148.632H172.325C171.994 148.632 171.727 148.906 171.727 149.231V150.235C171.727 150.567 172.001 150.834 172.325 150.834H222.487C222.819 150.834 223.085 150.559 223.085 150.235V149.231C223.085 148.906 222.819 148.632 222.487 148.632Z" fill="#263238"/>
<path opacity="0.2" d="M256.284 110.413H204.207C202.399 110.413 200.686 111.893 200.383 113.705L194.825 147.556C194.53 149.368 195.761 150.848 197.568 150.848H249.646C251.453 150.848 253.167 149.368 253.469 147.556L259.027 113.705C259.323 111.893 258.091 110.413 256.284 110.413Z" fill="white"/>
<path d="M118.411 148.632C118.411 148.632 135.569 151.195 143.849 147.809C147.723 149.679 161.525 150.603 166.32 148.632C164.837 150.357 161.352 150.841 161.352 150.841C161.352 150.841 128.635 150.841 125.158 150.841C121.68 150.841 119.023 149.318 118.411 148.632Z" fill="#407BFF"/>
<path opacity="0.7" d="M118.411 148.632C118.411 148.632 135.569 151.195 143.849 147.809C147.723 149.679 161.525 150.603 166.32 148.632C164.837 150.357 161.352 150.841 161.352 150.841C161.352 150.841 128.635 150.841 125.158 150.841C121.68 150.841 119.023 149.318 118.411 148.632Z" fill="white"/>
</svg>
