<svg width="26" height="26" viewBox="0 0 26 26" fill="none" xmlns="http://www.w3.org/2000/svg">
<path d="M12.9997 15.5984L5.24365 13.2112V15.5598V17.1982C5.24365 19.0414 8.71732 20.5358 13.0021 20.5358C17.2866 20.5358 20.7608 19.0414 20.7608 17.1982C20.7608 17.1837 20.7561 17.1691 20.7558 17.1549V13.2112L12.9997 15.5984Z" fill="#0367B4"/>
<path d="M0 10.4662L2.77084 11.4574L3.00697 10.9517L4.0249 10.8652L4.17003 11.0162L3.29655 11.2233L3.16924 11.6001C3.16901 11.6001 1.1962 15.7245 1.48595 17.7422C1.48595 17.7422 2.71738 18.4767 3.94829 17.7422L4.2754 12.2257V11.7665L6.10768 11.3531L5.97827 11.6718L4.61214 12.116L5.24398 12.3418L13.0001 14.729L20.7561 12.3418L26 10.4663L13.0001 5.46484L0 10.4662Z" fill="#0367B4"/>
</svg>
