<svg width="347" height="300" viewBox="0 0 347 300" fill="none" xmlns="http://www.w3.org/2000/svg">
<g opacity="0.12">
<path d="M329.767 266.157C329.767 275.218 284.229 282.564 228.054 282.564C171.88 282.564 126.342 275.218 126.342 266.157C126.342 257.097 171.88 249.751 228.054 249.751C284.229 249.751 329.767 257.097 329.767 266.157Z" fill="#1C487D"/>
<path d="M105.656 299.23C153.521 299.23 192.322 293.658 192.322 286.785C192.322 279.912 153.521 274.34 105.656 274.34C57.7919 274.34 18.9902 279.912 18.9902 286.785C18.9902 293.658 57.7919 299.23 105.656 299.23Z" fill="#1C487D"/>
<path d="M200.56 165.531C202.125 169.14 200.469 173.336 196.858 174.905L79.6589 225.752C76.048 227.317 71.8504 225.659 70.2837 222.049L38.8799 149.661C37.3149 146.05 38.9711 141.854 42.582 140.288L159.783 89.4409C163.392 87.8742 167.588 89.5339 169.156 93.1432L200.56 165.531Z" fill="#00B1C3"/>
<path d="M200.56 165.531C202.125 169.14 200.469 173.336 196.858 174.905L79.6589 225.752C76.048 227.317 71.8504 225.659 70.2837 222.049L38.8799 149.661C37.3149 146.05 38.9711 141.854 42.582 140.288L159.783 89.4409C163.392 87.8742 167.588 89.5339 169.156 93.1432L200.56 165.531Z" fill="#5094D0"/>
<path d="M159.784 89.4378L151.111 93.2009C154.724 91.6341 158.918 93.2903 160.485 96.9032L191.887 169.291C193.452 172.9 191.796 177.1 188.186 178.665L196.857 174.902C200.468 173.335 202.124 169.137 200.559 165.528L169.155 93.1383C167.589 89.529 163.393 87.871 159.784 89.4378Z" fill="#58B3E6"/>
<path d="M84.9802 215.105C81.3711 216.672 77.1735 215.012 75.6068 211.403L44.4104 139.49L42.5808 140.284C38.9699 141.851 37.312 146.049 38.8787 149.658L70.2825 222.046C71.8492 225.655 76.0468 227.313 79.6577 225.748L196.857 174.902C200.468 173.335 202.124 169.137 200.559 165.528L200.351 165.051L84.9802 215.105Z" fill="#4382BB"/>
<path d="M60.7479 153.285L61.3292 154.623C62.0249 156.233 61.6207 157.503 60.0683 158.175C58.5159 158.85 57.3123 158.279 56.6148 156.669L54.3452 151.438C53.6459 149.828 54.0519 148.558 55.6043 147.886C57.1567 147.211 58.3621 147.784 59.0596 149.392L59.4835 150.37L57.9883 151.018L57.5197 149.937C57.2085 149.22 56.7739 149.084 56.2714 149.302C55.767 149.522 55.5703 149.934 55.8815 150.649L58.2387 156.083C58.5517 156.802 58.9791 156.923 59.4835 156.707C59.9878 156.489 60.1899 156.093 59.8787 155.373L59.2546 153.936L60.7479 153.285Z" fill="#EAF4FC"/>
<path d="M66.6425 155.185C66.4439 154.965 66.3187 154.831 65.9628 154.013L65.2761 152.432C64.8701 151.499 64.4051 151.291 63.6861 151.601L63.1406 151.84L64.9166 155.936L63.3356 156.621L58.9717 146.561L61.3575 145.525C62.9958 144.813 64.0313 145.271 64.7037 146.824L65.0471 147.616C65.496 148.65 65.4585 149.469 64.8969 150.104C65.8323 150.091 66.4207 150.742 66.875 151.79L67.5492 153.341C67.7603 153.829 67.9319 154.183 68.2503 154.487L66.6425 155.185ZM61.1769 147.31L62.5164 150.399L63.1353 150.132C63.7237 149.875 63.9723 149.462 63.6217 148.657L63.1925 147.666C62.8813 146.945 62.4986 146.736 61.937 146.981L61.1769 147.31Z" fill="#EAF4FC"/>
<path d="M68.1704 147.609L70.3398 146.666L70.964 148.104L68.7946 149.047L70.0733 151.994L72.8043 150.808L73.4267 152.246L69.1147 154.115L64.749 144.056L69.061 142.186L69.6852 143.624L66.9542 144.808L68.1704 147.609Z" fill="#EAF4FC"/>
<path d="M70.0371 141.76L72.5374 140.674C74.1202 139.988 75.2773 140.528 75.9731 142.137L78.18 147.226C78.8793 148.834 78.4841 150.05 76.9013 150.733L74.401 151.819L70.0371 141.76ZM72.2423 142.511L75.3596 149.698L76.2503 149.311C76.7528 149.095 76.9442 148.705 76.6294 147.986L74.3599 142.756C74.0487 142.037 73.6337 141.908 73.1312 142.127L72.2423 142.511Z" fill="#EAF4FC"/>
<path d="M75.9023 139.217L77.4816 138.53L81.8454 148.59L80.2644 149.276L75.9023 139.217Z" fill="#EAF4FC"/>
<path d="M78.1689 138.233L83.0551 136.11L83.6792 137.548L82.0249 138.263L85.7664 146.888L84.1854 147.574L80.4457 138.952L78.7931 139.667L78.1689 138.233Z" fill="#EAF4FC"/>
<path d="M93.2946 139.167L93.8741 140.503C94.5734 142.112 94.1674 143.382 92.6132 144.055C91.0608 144.729 89.8571 144.157 89.1614 142.549L86.89 137.317C86.1908 135.708 86.5967 134.438 88.1509 133.763C89.7015 133.091 90.907 133.661 91.6045 135.271L92.0283 136.248L90.5332 136.897L90.0646 135.818C89.7534 135.099 89.3188 134.965 88.8162 135.183C88.3137 135.402 88.1152 135.811 88.4264 136.528L90.7836 141.962C91.0948 142.679 91.524 142.803 92.0266 142.584C92.5291 142.366 92.7348 141.971 92.4218 141.25L91.7994 139.814L93.2946 139.167Z" fill="#EAF4FC"/>
<path d="M101.001 140.279L99.4062 140.973L98.342 139.265L96.3997 140.107L96.9202 142.053L95.4679 142.681L92.7119 131.923L95.0262 130.92L101.001 140.279ZM96.0099 138.655L97.5336 137.993L94.5648 133.236L96.0099 138.655Z" fill="#EAF4FC"/>
<path d="M105.039 138.528C104.839 138.306 104.713 138.174 104.359 137.355L103.673 135.774C103.268 134.84 102.803 134.631 102.083 134.942L101.537 135.178L103.313 139.274L101.734 139.962L97.3682 129.9L99.754 128.864C101.392 128.154 102.428 128.61 103.1 130.163L103.444 130.953C103.893 131.987 103.855 132.806 103.293 133.443C104.227 133.431 104.815 134.08 105.271 135.13L105.946 136.682C106.157 137.171 106.327 137.523 106.649 137.829L105.039 138.528ZM99.5734 130.653L100.915 133.745L101.534 133.477C102.122 133.221 102.369 132.806 102.02 132.002L101.589 131.009C101.278 130.29 100.897 130.081 100.335 130.324L99.5734 130.653Z" fill="#EAF4FC"/>
<path d="M103.144 127.396L105.646 126.31C107.225 125.625 108.382 126.166 109.081 127.777L111.288 132.864C111.986 134.473 111.591 135.688 110.01 136.373L107.509 137.459L103.144 127.396ZM105.349 128.149L108.466 135.336L109.359 134.949C109.861 134.731 110.052 134.341 109.739 133.622L107.47 128.391C107.159 127.672 106.744 127.545 106.241 127.761L105.349 128.149Z" fill="#EAF4FC"/>
<path d="M177.281 149.17L137.124 166.592L137.926 168.44L178.083 151.017L177.281 149.17Z" fill="#EAF4FC"/>
<path d="M181.29 158.401L161.211 167.113L162.012 168.96L182.092 160.249L181.29 158.401Z" fill="#EAF4FC"/>
<path d="M131.391 171.269L106.457 182.09L105.656 180.242L130.588 169.427L131.391 171.269Z" fill="#EAF4FC"/>
<path d="M173.147 139.632L101.523 170.706L102.325 172.554L173.949 141.48L173.147 139.632Z" fill="#EAF4FC"/>
<path d="M128.579 131.769C126.25 132.78 123.648 132.907 121.248 132.123C118.404 131.208 116.094 129.113 114.906 126.377C113.613 123.395 113.778 120.044 115.357 117.187C116.475 115.172 118.186 113.619 120.307 112.702C122.423 111.782 124.723 111.594 126.957 112.156C130.122 112.954 132.682 115.12 133.975 118.105C135.162 120.843 135.112 123.962 133.837 126.663C132.769 128.951 130.9 130.762 128.579 131.769ZM120.706 113.624C118.791 114.454 117.245 115.857 116.239 117.676C114.81 120.256 114.661 123.283 115.829 125.976C116.9 128.448 118.987 130.34 121.557 131.167C123.723 131.873 126.075 131.759 128.177 130.846C130.273 129.936 131.959 128.298 132.923 126.237C134.077 123.796 134.121 120.977 133.05 118.509C131.881 115.814 129.57 113.853 126.708 113.134C124.693 112.625 122.616 112.796 120.706 113.624Z" fill="#EAF4FC"/>
<path d="M128.577 131.769C126.481 132.68 123.302 128.359 121.247 123.623C119.193 118.885 118.209 113.614 120.305 112.703C122.401 111.793 125.579 116.114 127.634 120.85C129.689 125.588 130.673 130.861 128.577 131.769ZM120.706 113.628C119.758 114.04 119.856 117.889 122.172 123.222C124.486 128.555 127.228 131.258 128.176 130.847C129.124 130.435 129.026 126.588 126.711 121.253C124.397 115.918 121.653 113.217 120.706 113.628Z" fill="#EAF4FC"/>
<path d="M125.52 124.726C122.222 126.157 115.762 128.343 114.908 126.373C114.054 124.406 120.065 121.178 123.361 119.749C126.659 118.318 133.121 116.134 133.974 118.101C134.827 120.071 128.816 123.295 125.52 124.726ZM123.761 120.672C118.079 123.136 115.627 125.504 115.831 125.971C116.035 126.44 119.439 126.266 125.119 123.801C130.801 121.339 133.253 118.971 133.049 118.502C132.845 118.033 129.442 118.207 123.761 120.672Z" fill="#EAF4FC"/>
<path d="M122.425 117.588C120.279 118.518 117.872 118.634 115.642 117.912L115.951 116.955C117.947 117.601 120.102 117.497 122.025 116.662C123.94 115.832 125.484 114.329 126.378 112.432L127.288 112.859C126.292 114.98 124.564 116.658 122.425 117.588Z" fill="#EAF4FC"/>
<path d="M121.874 131.825L120.934 131.467C121.867 129.017 123.702 127.094 126.101 126.053C128.502 125.012 131.155 124.987 133.573 125.983L133.188 126.913C131.024 126.023 128.649 126.044 126.499 126.976C124.353 127.91 122.71 129.63 121.874 131.825Z" fill="#EAF4FC"/>
<path d="M94.2475 179.406C94.7215 180.5 94.2189 181.77 93.1262 182.246L76.8242 189.318C75.7296 189.794 74.4598 189.289 73.9841 188.196L67.8729 174.106C67.3971 173.013 67.8997 171.742 68.9942 171.266L85.298 164.194C86.3908 163.718 87.6624 164.223 88.1381 165.315L94.2475 179.406Z" fill="#F1BF5B"/>
<path d="M71.6339 170.115L70.71 170.515L78.5295 188.571L79.4535 188.171L71.6339 170.115Z" fill="#E99352"/>
<path d="M91.778 182.833L90.8552 183.231L83.0234 165.181L83.9463 164.779L91.778 182.833Z" fill="#E99352"/>
<path d="M88.7126 166.669L68.467 175.453L68.0664 174.527L88.312 165.747L88.7126 166.669Z" fill="#E99352"/>
<path d="M93.6524 178.063L73.4072 186.847L73.8073 187.769L94.0525 178.986L93.6524 178.063Z" fill="#E99352"/>
<path d="M86.5772 178.933L78.8832 182.273L75.5459 174.576L83.2399 171.239L86.5772 178.933ZM79.4054 180.947L85.252 178.409L82.7159 172.561L76.8676 175.099L79.4054 180.947Z" fill="#E99352"/>
<path d="M76.0056 175.297L72.2158 173.652L72.6182 172.729L76.4062 174.378L76.0056 175.297Z" fill="#E99352"/>
<path d="M78.6769 181.436L77.29 185.328L78.2385 185.666L79.6255 181.774L78.6769 181.436Z" fill="#E99352"/>
<path d="M84.2609 167.648L82.5107 171.7L83.4351 172.099L85.1852 168.047L84.2609 167.648Z" fill="#E99352"/>
<path d="M89.9007 180.636L85.7461 179.146L86.0841 178.198L90.2405 179.686L89.9007 180.636Z" fill="#E99352"/>
<path d="M232.693 64.3358C235.707 64.4055 238.166 62.5669 242.634 59.2008C246.361 56.3946 253.543 50.1722 258.71 52.6977C267.168 56.8364 255.382 73.4681 252.717 79.0144C248.344 88.1038 241.632 99.1123 240.539 108.849C239.116 121.539 250.651 125.887 259.211 132.336C278.634 146.972 293.156 166.775 301.355 189.473C307.323 205.998 315.194 237.893 304.635 253.605C307.139 259.955 309.803 260.754 312.431 267.595C310.367 272.095 304.536 270.709 300.525 268.595C292.332 264.281 284.733 257.503 275.388 261.6C271.151 263.457 263.897 265.052 259.912 267.263C255.221 269.863 249.244 271.019 243.886 272.113C227.757 275.401 212.875 273.537 197.249 269.575C186.617 266.882 173.704 260.895 162.617 261.434C150.312 262.029 138.863 258.969 127.767 264.101C123.625 266.014 119.679 270.817 117.775 266.263C115.983 261.983 120.49 255.578 122.271 252.11C127.642 241.642 131.344 242.684 131.97 230.801C132.619 218.43 130.625 206.35 132.118 194.172C135.255 168.563 155.367 149.177 169.283 129.505C176.381 119.466 184.07 117.021 178.443 105.184C172.4 92.4696 164.692 73.9528 155.957 62.8745C154.278 60.7426 172.676 50.6605 173.724 50.3064C190.931 44.4632 209.776 52.5295 224.495 61.145C228.124 63.2698 230.551 64.2875 232.693 64.3358Z" fill="#5AB676"/>
<path d="M203.164 118.601C203.833 117.399 205.45 111.491 206.378 111.016C205.147 111.647 203.971 112.597 203.058 113.763C200.631 116.868 194.542 125.379 190.866 118.123C187.762 111.985 189.741 103.409 191.036 96.9612C191.771 93.3001 196.178 83.0356 192.633 80.1149C188.82 76.9742 182.384 78.9953 177.857 78.1672C169.902 76.7041 163.249 68.3033 168.78 60.5875C175.029 51.8684 186.147 51.5357 195.738 54.1237C201.794 55.7584 207.29 59.577 213.346 60.8898C216.617 61.5981 219.396 60.9953 221.775 59.5931C207.497 51.609 189.89 44.825 173.726 50.3123C172.678 50.6664 154.279 60.7503 155.959 62.8805C164.694 73.9569 172.402 92.4756 178.445 105.19C184.072 117.027 176.383 119.47 169.285 129.511C155.369 149.181 135.257 168.569 132.12 194.178C130.627 206.356 132.621 218.436 131.972 230.807C131.346 242.69 127.644 241.648 122.273 252.116C120.492 255.584 115.985 261.989 117.777 266.269C119.681 270.822 123.627 266.02 127.769 264.106C138.866 258.977 150.316 262.037 162.619 261.44C173.704 260.903 186.617 266.888 197.251 269.581C212.875 273.543 227.759 275.407 243.888 272.119C249.244 271.025 255.223 269.869 259.914 267.269C263.897 265.058 271.153 263.463 275.39 261.606C284.736 257.509 292.336 264.287 300.527 268.601C304.538 270.715 310.369 272.101 312.433 267.601C309.805 260.76 307.141 259.961 304.637 253.611C315.196 237.897 307.323 206.004 301.357 189.479C295.052 172.023 284.996 156.293 271.858 143.297C269.736 151.932 277.965 162.934 282.274 169.641C293.228 186.693 309.913 219.829 298.876 240.133C296.013 245.4 295.312 248.516 290.563 248.682C288.363 249.834 285.536 250.12 282.297 249.557C273.388 248.004 264.301 242.132 255.048 244.864C243.144 248.373 234.421 258.287 221.984 260.916C210.591 263.325 198.246 262.309 187.821 256.847C183.768 254.724 179.363 252.268 176.997 248.163C174.684 244.15 173.767 239.339 171.107 235.533C167.961 231.027 162.859 231.006 158.724 227.938C155.784 225.755 153.514 223.285 152.339 219.742C149.397 210.877 150.808 200.708 152.958 191.813C157.002 175.08 165.921 159.924 177.701 147.463C177.696 147.461 198.661 126.694 203.164 118.601Z" fill="#4BA364"/>
<path d="M228.764 186.932C223.436 181.42 215.074 180.815 209.538 180.413C207.102 180.237 205.33 179.225 204.672 177.637C203.971 175.943 204.579 173.74 206.303 171.751C207.825 169.994 210.656 168.948 214.072 168.878C217.84 168.8 220.521 169.944 221.11 170.484C222.288 172.484 224.849 173.212 226.913 172.099C229.027 170.964 229.818 168.326 228.68 166.213C226.42 162.017 220.591 160.762 217.742 160.393V156.476C217.742 154.076 215.796 152.13 213.396 152.13C210.996 152.13 209.05 154.076 209.05 156.476V160.783C205.262 161.652 201.996 163.446 199.732 166.063C195.81 170.592 194.653 176.165 196.64 180.965C198.575 185.635 203.162 188.672 208.912 189.087C213.38 189.409 219.498 189.853 222.514 192.975C224.113 194.63 224.925 196.882 224.798 199.312C224.669 201.755 223.59 204.127 221.836 205.819C218.515 209.026 213.137 210.174 208.46 208.677C206.374 208.013 202.751 206.225 201.91 201.732C201.469 199.373 199.192 197.819 196.836 198.259C194.477 198.7 192.923 200.97 193.365 203.331C194.587 209.856 199.126 214.824 205.815 216.962C206.881 217.301 207.963 217.55 209.052 217.727V221.716C209.052 224.116 210.998 226.062 213.398 226.062C215.798 226.062 217.744 224.114 217.744 221.716V217.441C221.539 216.581 225.078 214.772 227.872 212.077C231.241 208.825 233.234 204.454 233.479 199.768C233.731 194.898 232.057 190.339 228.764 186.932Z" fill="#48915F"/>
<path d="M231.77 186.932C226.443 181.42 218.08 180.815 212.544 180.413C210.108 180.237 208.334 179.225 207.68 177.637C206.977 175.943 207.587 173.74 209.309 171.751C210.831 169.994 213.662 168.948 217.08 168.878C220.846 168.8 223.527 169.944 224.116 170.484C225.296 172.484 227.857 173.212 229.919 172.099C232.033 170.964 232.824 168.326 231.686 166.213C229.427 162.017 223.597 160.762 220.748 160.393V156.476C220.748 154.076 218.804 152.13 216.402 152.13C214.002 152.13 212.056 154.076 212.056 156.476V160.783C208.268 161.652 205.002 163.446 202.736 166.063C198.814 170.592 197.659 176.165 199.646 180.965C201.581 185.635 206.168 188.672 211.918 189.087C216.386 189.409 222.504 189.853 225.52 192.975C227.12 194.63 227.931 196.882 227.802 199.312C227.675 201.755 226.595 204.127 224.842 205.817C221.521 209.026 216.144 210.172 211.466 208.677C209.38 208.013 205.757 206.225 204.916 201.732C204.475 199.371 202.198 197.819 199.844 198.259C197.485 198.699 195.931 200.97 196.373 203.331C197.596 209.856 202.134 214.824 208.822 216.962C209.89 217.301 210.97 217.55 212.06 217.727V221.716C212.06 224.116 214.005 226.062 216.406 226.062C218.808 226.062 220.752 224.114 220.752 221.716V217.441C224.549 216.581 228.086 214.772 230.88 212.077C234.249 208.825 236.242 204.454 236.487 199.766C236.737 194.894 235.063 190.339 231.77 186.932Z" fill="#FCD2A0"/>
<path d="M253.528 192.625C254.832 197.325 255.895 202.988 253.645 207.658C251.677 211.743 247.564 214.25 245.223 218.128C241.217 224.767 245.459 236.115 253.942 234.869C257.771 234.303 261.389 232.016 265.109 230.597C268.893 229.152 273.166 229.249 276.957 227.954C291.836 222.869 285.894 200.405 281.278 190.124C277.771 182.316 272.4 172.048 263.85 168.937C247.424 162.964 251.066 183.764 253.528 192.625Z" fill="#7BBE75"/>
<path d="M247.403 89.5365C247.403 89.5365 253.829 76.9773 255.407 74.1389C255.407 74.1389 258.318 70.3061 254.298 70.256C250.167 72.6848 246.802 74.6129 243.782 78.6049C241.233 81.971 238.96 85.7144 237.411 89.7243C236.081 93.1655 236.009 99.0319 232.411 101.201C224.218 106.141 225.273 82.6578 220.029 93.6931C218.423 97.0699 220.147 102.666 218.444 105.714C215.59 110.82 213.612 105.421 212.936 101.579C212.147 97.1075 212.737 75.4911 203.723 82.4771C199.465 85.7788 201.897 90.5864 202.337 94.8789C202.901 100.375 200.717 105.719 201.427 111.183C202.724 121.147 209.769 122.723 218.418 122.288C225.566 121.931 236.986 121.006 239.514 113.292C242.102 105.401 242.63 98.363 246.942 90.463" fill="#4BA364"/>
<path d="M247.404 109.094C247.404 111.512 246.172 113.474 244.655 113.474H174.196C172.678 113.474 171.447 111.512 171.447 109.094C171.447 106.674 172.678 104.712 174.196 104.712H244.655C246.172 104.712 247.404 106.674 247.404 109.094Z" fill="#FCD2A0"/>
<path d="M247.404 117.855C247.404 120.276 246.172 122.236 244.655 122.236H174.196C172.678 122.236 171.447 120.276 171.447 117.855C171.447 115.436 172.678 113.474 174.196 113.474H244.655C246.172 113.474 247.404 115.436 247.404 117.855Z" fill="#F7AF7E"/>
<path d="M185.243 243.582C185.243 267.443 165.901 286.785 142.042 286.785C118.184 286.785 98.8398 267.442 98.8398 243.582C98.8398 219.721 118.18 200.378 142.04 200.378C165.901 200.378 185.243 219.721 185.243 243.582Z" fill="#D2763E"/>
<path d="M180.857 243.582C180.857 267.444 161.515 286.785 137.655 286.785C113.795 286.785 94.4541 267.442 94.4541 243.582C94.4541 219.721 113.795 200.378 137.655 200.378C161.515 200.378 180.857 219.721 180.857 243.582Z" fill="#FECB50"/>
<path d="M170.64 243.582C170.64 261.801 155.873 276.57 137.654 276.57C119.436 276.57 104.669 261.801 104.669 243.582C104.669 225.364 119.436 210.594 137.654 210.594C155.873 210.594 170.64 225.364 170.64 243.582Z" fill="#BF6718"/>
<path d="M170.64 243.582C170.64 260.772 156.704 274.709 139.513 274.709C122.324 274.709 108.387 260.774 108.387 243.582C108.387 226.391 122.323 212.454 139.513 212.454C156.704 212.454 170.64 226.391 170.64 243.582Z" fill="#F6A33E"/>
<path d="M147.838 242.127C144.252 238.415 138.621 238.006 134.893 237.737C133.255 237.619 132.06 236.938 131.617 235.867C131.145 234.726 131.554 233.241 132.715 231.903C133.738 230.719 135.645 230.016 137.946 229.968C140.482 229.916 142.289 230.685 142.686 231.046C143.48 232.395 145.204 232.883 146.594 232.137C148.017 231.37 148.548 229.596 147.783 228.172C146.261 225.348 142.335 224.502 140.418 224.255V221.617C140.418 220.002 139.109 218.691 137.492 218.691C135.875 218.691 134.564 220.002 134.564 221.617V224.515C132.014 225.101 129.816 226.31 128.29 228.07C125.649 231.122 124.871 234.872 126.21 238.106C127.512 241.25 130.601 243.294 134.473 243.573C137.481 243.792 141.6 244.089 143.632 246.192C144.709 247.306 145.254 248.821 145.17 250.458C145.082 252.103 144.356 253.698 143.176 254.84C140.94 256.997 137.319 257.773 134.169 256.766C132.765 256.315 130.326 255.111 129.76 252.087C129.464 250.499 127.931 249.454 126.344 249.749C124.756 250.046 123.708 251.575 124.007 253.165C124.83 257.558 127.884 260.904 132.389 262.341C133.107 262.57 133.835 262.738 134.568 262.856V265.542C134.568 267.159 135.879 268.468 137.496 268.468C139.112 268.468 140.422 267.157 140.422 265.542V262.663C142.977 262.085 145.36 260.867 147.241 259.052C149.511 256.862 150.852 253.918 151.016 250.763C151.183 247.489 150.056 244.421 147.838 242.127Z" fill="#D4831A"/>
<path d="M149.863 242.127C146.277 238.415 140.645 238.006 136.918 237.736C135.278 237.618 134.083 236.938 133.641 235.867C133.169 234.726 133.579 233.241 134.74 231.903C135.764 230.719 137.671 230.016 139.971 229.968C142.507 229.916 144.315 230.685 144.71 231.046C145.504 232.395 147.228 232.883 148.618 232.137C150.042 231.37 150.575 229.596 149.807 228.172C148.287 225.348 144.362 224.502 142.444 224.255V221.617C142.444 220 141.133 218.691 139.517 218.691C137.9 218.691 136.591 220 136.591 221.617V224.515C134.04 225.101 131.84 226.31 130.317 228.07C127.675 231.122 126.897 234.872 128.235 238.106C129.537 241.25 132.626 243.294 136.498 243.573C139.506 243.792 143.625 244.089 145.655 246.19C146.733 247.306 147.279 248.821 147.191 250.458C147.105 252.103 146.379 253.698 145.199 254.84C142.961 256.997 139.341 257.771 136.19 256.766C134.786 256.315 132.347 255.111 131.78 252.087C131.483 250.497 129.95 249.454 128.365 249.749C126.777 250.046 125.731 251.575 126.028 253.165C126.851 257.558 129.905 260.901 134.409 262.341C135.128 262.57 135.856 262.738 136.589 262.856V265.542C136.589 267.159 137.898 268.468 139.515 268.468C141.132 268.468 142.443 267.157 142.443 265.542V262.663C144.998 262.085 147.38 260.867 149.262 259.052C151.532 256.862 152.871 253.918 153.037 250.763C153.207 247.489 152.081 244.421 149.863 242.127Z" fill="#FECB50"/>
<path d="M105.779 252.092L96.7993 257.637C95.2773 253.23 94.4492 248.506 94.4492 243.581C94.4492 243.212 94.4582 242.853 94.4653 242.495L105.645 235.579C105.001 238.147 104.667 240.821 104.667 243.581C104.669 246.523 105.053 249.374 105.779 252.092Z" fill="#FFF151"/>
<path d="M168.492 213.334L159.521 218.879C155.406 215.234 150.373 212.599 144.812 211.371L155.999 204.463C160.691 206.661 164.913 209.679 168.492 213.334Z" fill="#FFF151"/>
<path d="M111.157 263.246L102.453 268.622C101.09 266.717 99.8772 264.684 98.8398 262.561L107.577 257.157C108.557 259.316 109.76 261.357 111.157 263.246Z" fill="#BF6718"/>
<path d="M175.8 223.293L167.095 228.687C166.026 226.564 164.729 224.581 163.241 222.76L171.978 217.359C173.407 219.222 174.687 221.202 175.8 223.293Z" fill="#BF6718"/>
<path d="M130.505 275.789L119.307 282.703C115.453 280.899 111.917 278.54 108.789 275.721L117.962 270.051C121.634 272.779 125.882 274.769 130.505 275.789Z" fill="#F69F1D"/>
<path d="M180.858 243.579C180.858 243.949 180.851 244.316 180.842 244.675L169.587 251.633C170.274 249.064 170.64 246.364 170.64 243.579C170.64 241.615 170.456 239.69 170.106 237.825L179.32 232.132C180.323 235.777 180.858 239.615 180.858 243.579Z" fill="#F69F1D"/>
<path d="M117.767 247.143C117.767 271.004 98.4259 290.347 74.5659 290.347C50.7058 290.347 31.3652 271.004 31.3652 247.143C31.3652 223.282 50.7058 203.941 74.5659 203.941C98.4259 203.941 117.767 223.284 117.767 247.143Z" fill="#D2763E"/>
<path d="M113.381 247.143C113.381 271.004 94.0383 290.347 70.1782 290.347C46.3181 290.347 26.9775 271.004 26.9775 247.143C26.9775 223.282 46.3181 203.941 70.1782 203.941C94.0383 203.941 113.381 223.284 113.381 247.143Z" fill="#FECB50"/>
<path d="M103.164 247.143C103.164 265.361 88.3945 280.131 70.1771 280.131C51.9597 280.131 37.1904 265.361 37.1904 247.143C37.1904 228.925 51.9597 214.157 70.1771 214.157C88.3945 214.157 103.164 228.927 103.164 247.143Z" fill="#BF6718"/>
<path d="M103.163 247.143C103.163 264.335 89.2276 278.269 72.0368 278.269C54.846 278.269 40.9102 264.335 40.9102 247.143C40.9102 229.953 54.846 216.017 72.0368 216.017C89.2276 216.017 103.163 229.953 103.163 247.143Z" fill="#F6A33E"/>
<path d="M80.3626 245.689C76.7767 241.976 71.1448 241.57 67.4176 241.3C65.7794 241.182 64.5847 240.501 64.1411 239.431C63.669 238.29 64.0785 236.809 65.2392 235.468C66.2622 234.285 68.1688 233.581 70.4705 233.532C73.0066 233.48 74.8129 234.251 75.2082 234.613C76.0023 235.959 77.7264 236.449 79.116 235.702C80.5397 234.935 81.0708 233.16 80.3054 231.737C78.7834 228.913 74.8577 228.067 72.9404 227.818V225.18C72.9404 223.563 71.6295 222.254 70.0145 222.254C68.3977 222.254 67.0867 223.563 67.0867 225.18V228.079C64.5364 228.664 62.3383 229.871 60.8128 231.633C58.1712 234.684 57.3932 238.435 58.7328 241.668C60.0348 244.813 63.1235 246.857 66.9955 247.138C70.0037 247.354 74.1226 247.653 76.1543 249.756C77.231 250.871 77.7765 252.385 77.6924 254.022C77.6048 255.667 76.8786 257.263 75.6982 258.404C73.4609 260.563 69.841 261.337 66.6915 260.33C65.2875 259.883 62.848 258.678 62.2829 255.653C61.986 254.063 60.4533 253.019 58.8669 253.314C57.2787 253.612 56.2307 255.14 56.5294 256.73C57.3521 261.124 60.4068 264.469 64.9119 265.905C65.6291 266.136 66.357 266.304 67.0903 266.422V269.105C67.0903 270.72 68.4013 272.031 70.018 272.031C71.6348 272.031 72.944 270.72 72.944 269.105V266.227C75.4997 265.646 77.882 264.428 79.7635 262.616C82.033 260.425 83.3744 257.481 83.5389 254.328C83.707 251.051 82.5803 247.984 80.3626 245.689Z" fill="#D4831A"/>
<path d="M82.3866 245.689C78.8007 241.976 73.1688 241.568 69.4416 241.3C67.8016 241.182 66.6069 240.501 66.1651 239.431C65.6929 238.29 66.1043 236.809 67.2632 235.468C68.2862 234.285 70.1928 233.581 72.4945 233.532C75.0306 233.48 76.837 234.251 77.234 234.613C78.0281 235.959 79.7522 236.449 81.1418 235.702C82.5654 234.935 83.0984 233.16 82.3312 231.737C80.8092 228.913 76.8852 228.067 74.968 227.818V225.18C74.968 223.563 73.657 222.254 72.0403 222.254C70.4235 222.254 69.1143 223.563 69.1143 225.18V228.079C66.5639 228.664 64.3641 229.871 62.8385 231.633C60.197 234.684 59.419 238.435 60.7585 241.668C62.0606 244.813 65.1493 246.857 69.0213 247.136C72.0295 247.354 76.1484 247.653 78.1801 249.756C79.2586 250.871 79.804 252.385 79.7164 254.022C79.6306 255.667 78.9044 257.263 77.724 258.404C75.4867 260.563 71.8668 261.337 68.7155 260.33C67.3115 259.883 64.872 258.678 64.3051 255.653C64.0082 254.063 62.4755 253.019 60.8909 253.314C59.3009 253.612 58.2565 255.14 58.5533 256.73C59.376 261.121 62.4308 264.465 66.9342 265.905C67.6531 266.136 68.381 266.302 69.1143 266.422V269.105C69.1143 270.72 70.4235 272.031 72.0403 272.031C73.657 272.031 74.968 270.72 74.968 269.105V266.227C77.5237 265.646 79.906 264.428 81.7875 262.614C84.0552 260.425 85.3966 257.481 85.5629 254.326C85.7311 251.051 84.6043 247.984 82.3866 245.689Z" fill="#FECB50"/>
<path d="M38.3046 255.653L29.3247 261.198C27.8027 256.792 26.9746 252.067 26.9746 247.141C26.9746 246.775 26.9818 246.413 26.9907 246.054L38.1705 239.139C37.5266 241.708 37.1922 244.382 37.1922 247.143C37.1922 250.085 37.5767 252.936 38.3046 255.653Z" fill="#FFF151"/>
<path d="M101.015 216.897L92.0444 222.441C87.9291 218.796 82.8963 216.162 77.3359 214.933L88.5229 208.026C93.214 210.224 97.4366 213.243 101.015 216.897Z" fill="#FFF151"/>
<path d="M43.6805 266.81L34.976 272.186C33.6132 270.28 32.4006 268.248 31.3633 266.123L40.1 260.72C41.0801 262.879 42.2837 264.92 43.6805 266.81Z" fill="#BF6718"/>
<path d="M108.323 226.856L99.6188 232.25C98.5475 230.125 97.2527 228.144 95.7646 226.321L104.503 220.918C105.93 222.783 107.211 224.765 108.323 226.856Z" fill="#BF6718"/>
<path d="M63.0301 279.351L51.8325 286.266C47.9783 284.46 44.4425 282.1 41.3145 279.283L50.4875 273.614C54.1575 276.341 58.4051 278.33 63.0301 279.351Z" fill="#F69F1D"/>
<path d="M113.381 247.141C113.381 247.508 113.374 247.877 113.365 248.236L102.11 255.193C102.797 252.625 103.164 249.924 103.164 247.141C103.164 245.176 102.98 243.253 102.629 241.389L111.843 235.695C112.847 239.34 113.381 243.178 113.381 247.141Z" fill="#F69F1D"/>
<path d="M248.589 13.9362C248.589 15.3832 247.414 16.5547 245.971 16.5547H192.656C191.211 16.5547 190.038 15.3832 190.038 13.9362C190.038 12.4911 191.211 11.3196 192.656 11.3196H245.971C247.414 11.3196 248.589 12.4911 248.589 13.9362Z" fill="#EAF4FC"/>
<path d="M16.6592 201.854C16.6592 200.407 17.8306 199.235 19.2775 199.235H44.6256C46.0707 199.235 47.2421 200.407 47.2421 201.854C47.2421 203.301 46.0707 204.472 44.6256 204.472H19.2775C17.8306 204.472 16.6592 203.301 16.6592 201.854Z" fill="#EAF4FC"/>
<path d="M0 201.854C0 200.407 1.17324 199.235 2.61833 199.235H8.33072C9.77581 199.235 10.9473 200.407 10.9473 201.854C10.9473 203.301 9.77581 204.472 8.33072 204.472H2.61833C1.17324 204.472 0 203.301 0 201.854Z" fill="#EAF4FC"/>
<path d="M330.34 201.142C330.34 202.589 329.168 203.759 327.721 203.759H302.375C300.928 203.759 299.757 202.587 299.757 201.142C299.757 199.695 300.928 198.523 302.375 198.523H327.721C329.168 198.523 330.34 199.695 330.34 201.142Z" fill="#EAF4FC"/>
<path d="M347 201.142C347 202.589 345.827 203.759 344.383 203.759H338.671C337.226 203.759 336.053 202.587 336.053 201.142C336.053 199.695 337.226 198.523 338.671 198.523H344.383C345.827 198.523 347 199.695 347 201.142Z" fill="#EAF4FC"/>
<path d="M298.685 115.406C298.685 116.853 297.513 118.024 296.066 118.024H273.043C271.596 118.024 270.425 116.853 270.425 115.406C270.425 113.959 271.596 112.789 273.043 112.789H296.066C297.515 112.789 298.685 113.961 298.685 115.406Z" fill="#EAF4FC"/>
<path d="M315.346 115.406C315.346 116.853 314.174 118.024 312.729 118.024H307.017C305.572 118.024 304.398 116.853 304.398 115.406C304.398 113.959 305.572 112.789 307.017 112.789H312.729C314.174 112.789 315.346 113.961 315.346 115.406Z" fill="#EAF4FC"/>
<path d="M193.834 296.003C193.834 294.556 195.005 293.385 196.451 293.385H219.474C220.92 293.385 222.092 294.556 222.092 296.003C222.092 297.45 220.92 298.62 219.474 298.62H196.451C195.005 298.62 193.834 297.45 193.834 296.003Z" fill="#EAF4FC"/>
<path d="M177.177 296.003C177.177 294.557 178.346 293.385 179.795 293.385H185.506C186.951 293.385 188.124 294.557 188.124 296.003C188.124 297.45 186.949 298.62 185.506 298.62H179.795C178.346 298.62 177.177 297.45 177.177 296.003Z" fill="#EAF4FC"/>
<path d="M228.087 296.003C228.087 294.556 229.258 293.385 230.705 293.385H236.418C237.861 293.385 239.034 294.556 239.034 296.003C239.034 297.45 237.859 298.62 236.418 298.62H230.705C229.258 298.62 228.087 297.45 228.087 296.003Z" fill="#EAF4FC"/>
<path d="M52.7147 49.7648C52.7147 51.2118 51.5432 52.3833 50.0963 52.3833H44.384C42.9371 52.3833 41.7656 51.2118 41.7656 49.7648C41.7656 48.3179 42.9371 47.1482 44.384 47.1482H50.0963C51.5432 47.1482 52.7147 48.3197 52.7147 49.7648Z" fill="#EAF4FC"/>
<path d="M81.8372 49.7647C81.8372 51.2117 80.6676 52.3832 79.2207 52.3832H62.7131C61.2662 52.3832 60.0947 51.2117 60.0947 49.7647C60.0947 48.3178 61.2662 47.1481 62.7131 47.1481H79.2207C80.6676 47.1481 81.8372 48.3196 81.8372 49.7647Z" fill="#EAF4FC"/>
<path d="M315.45 57.4787C315.45 59.1456 314.098 60.4977 312.431 60.4977C310.762 60.4977 309.41 59.1474 309.41 57.4787C309.41 55.8117 310.762 54.4596 312.431 54.4596C314.098 54.4596 315.45 55.8117 315.45 57.4787Z" fill="#EAF4FC"/>
<path d="M15.6775 90.7726C15.6775 92.4395 14.3255 93.7916 12.6586 93.7916C10.9917 93.7916 9.63965 92.4395 9.63965 90.7726C9.63965 89.1056 10.9917 87.7517 12.6586 87.7517C14.3272 87.7535 15.6775 89.1056 15.6775 90.7726Z" fill="#EAF4FC"/>
<path d="M117.059 74.2659C117.059 75.9346 115.707 77.2867 114.04 77.2867C112.374 77.2867 111.021 75.9346 111.021 74.2659C111.021 72.6008 112.372 71.2468 114.04 71.2468C115.707 71.2486 117.059 72.6008 117.059 74.2659Z" fill="#EAF4FC"/>
<path d="M147.83 3.01907C147.83 4.68779 146.48 6.03814 144.811 6.03814C143.142 6.03814 141.792 4.68779 141.792 3.01907C141.794 1.35035 143.144 0 144.813 0C146.48 0 147.83 1.35035 147.83 3.01907Z" fill="#EAF4FC"/>
<path d="M344.544 239.619C344.544 241.286 343.191 242.638 341.525 242.638C339.858 242.638 338.504 241.288 338.504 239.619C338.504 237.95 339.856 236.6 341.525 236.6C343.191 236.6 344.544 237.95 344.544 239.619Z" fill="#EAF4FC"/>
</g>
</svg>
