<svg width="269" height="192" viewBox="0 0 269 192" fill="none" xmlns="http://www.w3.org/2000/svg">
<g clip-path="url(#clip0)">
<path opacity="0.22" d="M217.015 179.393C229.81 179.506 242.596 179.55 255.356 179.489C256.731 179.484 258.147 179.484 259.412 180.148C262.918 181.983 261.782 185.819 258.47 187.046C251.562 189.608 242.087 189.344 234.765 189.96C225.835 190.709 216.881 191.121 207.924 191.346C190.259 191.794 172.585 191.517 154.915 191.692C134.447 191.895 113.977 192.03 93.5074 191.876C73.577 191.725 52.3976 193.027 32.7137 189.633C27.7832 188.782 22.9074 187.582 17.9385 186.969C13.2408 186.39 8.50471 186.656 3.80699 186.038C1.2431 185.701 0.385731 183.356 2.6127 181.752C5.11906 179.948 9.51547 180.961 12.4081 180.923C17.3687 180.857 22.3459 180.491 27.3065 180.277C49.2968 179.324 71.1474 177.04 93.1267 177.421C115.93 177.817 138.734 178.215 161.535 178.61C180.028 178.932 198.531 179.231 217.015 179.393Z" fill="black"/>
<path d="M126.945 152.555L127.123 163.42C127.049 166.436 127.321 169.44 127.504 172.446C127.674 175.236 127.112 178.114 128.433 180.701C128.846 181.511 129.728 182.076 130.399 181.14C130.917 180.418 130.679 179.169 130.805 178.331C131.764 172.032 133.55 165.889 134.442 159.579C135.377 152.967 132.826 153.142 126.945 152.555Z" fill="#EAC5B0"/>
<path d="M127.562 178.844L126.863 180.657L130.293 183.683L133.435 183.812L134.451 182.151L130.227 178.468L127.562 178.844Z" fill="#3B455A"/>
<path d="M119.267 152.662L117.29 163.346C116.605 168.127 115.046 172.782 114.361 177.562C114.205 178.661 114.282 179.863 113.825 180.901C113.375 181.915 112.499 181.956 111.724 181.267C110.685 180.344 111.165 178.696 111.184 177.439C111.31 169.05 110.653 160.779 110.494 152.376C110.491 152.266 110.496 152.14 110.581 152.069C110.65 152.011 110.748 152.014 110.839 152.019C111.652 152.074 119.223 152.893 119.267 152.662Z" fill="#EAC5B0"/>
<path d="M111.159 179.289L110.075 180.898L112.732 184.622L115.764 185.459L117.128 184.07L113.841 179.525L111.159 179.289Z" fill="#3B455A"/>
<path d="M138.116 159.469L136.636 143.935L135.924 133.841L133.528 125.598L120.579 123.582L104.571 126.333L103.802 129.45L106.883 158.307L122.324 159.469L122.113 141.508L124.496 152.64L124.395 159.469H138.116Z" fill="#3B455A"/>
<path d="M107.971 95.2432C107.949 95.7677 107.936 96.2922 107.925 96.8139C107.738 107.471 108.324 118.263 108.39 129.005C113.88 128.143 119.429 127.67 124.984 127.585C126.269 127.566 132.117 128.469 132.931 127.7C134.035 126.657 132.821 126.852 132.901 125.493C133.005 123.733 132.161 122.291 132.481 120.204C132.857 117.752 133.602 115.327 134.032 112.875C134.892 107.96 135.41 102.984 135.579 97.9946C135.727 93.5709 135.569 88.9824 133.67 84.9843C128.989 75.1291 113.901 75.3048 109.763 85.5966C108.533 88.6501 108.108 91.9508 107.971 95.2432Z" fill="white"/>
<path d="M124.976 63.986C125.622 65.1201 125.932 66.4244 125.989 67.7287C126.006 68.0747 126.028 68.4756 126.307 68.6816C126.606 68.9012 126.343 69.3818 126.57 69.088C126.797 68.7942 127.57 67.7781 127.605 67.4074C127.688 66.5397 127.685 65.6665 127.603 64.8015C127.529 64.0491 127.375 63.2611 126.885 62.6872C126.595 62.3467 126.203 62.1078 125.822 61.8744C125.266 61.5366 124.694 61.1988 124.055 61.078C122.954 60.8721 122.28 61.2675 123.25 62.0364C123.946 62.5883 124.535 63.2116 124.976 63.986Z" fill="#3B455A"/>
<path d="M118.103 78.7757C118.111 79.3084 118.002 79.8631 118.47 80.2777C118.695 80.4754 119.002 80.5551 119.297 80.6045C120.064 80.7253 120.859 80.6704 121.601 80.4397C121.908 80.3464 122.212 80.2173 122.442 79.9949C122.713 79.734 122.727 79.4841 122.741 79.1409C122.757 78.74 122.836 78.3308 122.888 77.9217C123.004 77.0293 123.056 76.1313 123.08 75.2307C124.398 75.0028 125.948 74.5771 126.4 73.1932C126.543 72.7566 126.548 72.2843 126.551 71.8202C126.564 69.9035 126.578 67.9841 126.592 66.0674C126.597 65.4029 126.597 64.7219 126.373 64.104C125.976 63.0249 124.965 62.3796 123.973 61.9759C121.445 60.9435 118.498 60.9846 116.166 62.4537C115.545 62.8464 114.959 63.3489 114.602 64.0327C114.052 65.0871 114.12 66.3859 114.205 67.6024C114.285 68.7255 114.364 69.8458 114.444 70.9689C114.534 72.2595 114.728 73.7451 115.728 74.4261C116.26 74.7886 116.944 74.8545 117.402 75.324C118.199 76.1423 117.821 77.3615 118.057 78.3528C118.089 78.4874 118.1 78.6302 118.103 78.7757Z" fill="#EAC5B0"/>
<path d="M127.017 71.0546C126.995 70.7004 126.841 69.6569 126.307 70.3132C126.167 70.4835 126.135 70.7279 126.124 70.9558C126.115 71.1837 126.126 71.4171 126.052 71.634C125.888 72.1256 125.343 72.3507 124.858 72.3425C124.666 72.3398 124.469 72.3068 124.299 72.2107C124.135 72.1173 124.003 71.9663 123.875 71.818C123.562 71.461 123.253 71.1013 122.941 70.7443C122.407 70.1292 121.346 70.3956 120.626 70.489C119.796 70.5988 118.966 70.8487 118.287 71.3951C118.218 71.4501 118.153 71.5077 118.084 71.5654C117.92 71.7082 117.755 71.8482 117.566 71.9388C116.925 72.2519 116.131 71.9251 115.682 71.3402C115.476 71.0711 115.285 70.7279 114.964 70.6812C114.715 70.6455 114.471 70.8267 114.342 71.0601C114.214 71.2963 114.181 71.5736 114.162 71.8482C114.099 72.8395 114.235 73.861 114.663 74.7397C115.591 76.6454 117.388 76.8788 119.191 76.8349C119.903 76.8184 120.618 76.802 121.33 76.7855C122.634 76.7553 124.012 76.7003 125.11 75.9397C126.08 75.2697 126.655 74.1301 126.891 72.9356C127.017 72.3205 127.055 71.6835 127.017 71.0546ZM122.245 73.7567C121.557 74.2207 120.801 74.2455 120.037 74.0148C119.711 73.9159 119.851 73.3695 120.177 73.4683C120.812 73.6606 121.409 73.6551 121.982 73.2706C122.267 73.0729 122.533 73.5617 122.245 73.7567Z" fill="#3B455A"/>
<path d="M127.288 60.6636C127.414 60.1995 127.507 59.7245 127.567 59.2467C127.126 59.4032 126.644 59.4444 126.184 59.3648C126.184 59.0902 126.181 58.8128 126.181 58.5382C126.178 58.3076 123.083 58.1483 122.834 58.1263C120.481 57.9314 118.328 57.7474 116.197 59.016C114.378 60.0979 113.211 61.7126 112.934 63.816C112.669 65.826 113.323 68.4484 114.482 70.118C114.477 69.5825 114.167 68.3221 114.293 67.8141C114.37 67.3033 114.545 66.8146 114.789 66.3587C115.274 65.4526 116.021 64.6919 116.887 64.1482C118.268 63.2805 119.87 62.8219 121.472 62.5995C122.941 62.3936 124.729 62.2041 126.181 62.594C126.877 62.7807 126.995 62.9565 127.416 62.2508C127.49 62.1272 128.082 60.6746 128.025 60.6746C127.778 60.6718 127.534 60.6691 127.288 60.6636Z" fill="#3B455A"/>
<path d="M140.431 51.2268C152.12 39.5092 152.12 20.5113 140.431 8.79369C128.742 -2.9239 109.791 -2.92391 98.1023 8.79368C86.4136 20.5113 86.4136 39.5092 98.1023 51.2268C109.791 62.9444 128.742 62.9444 140.431 51.2268Z" fill="#EBB044"/>
<g opacity="0.08">
<g opacity="0.08">
<path opacity="0.08" d="M131.218 2.46338C134.818 6.66744 137.299 11.9177 138.127 17.8105C140.428 34.2204 129.022 49.3945 112.652 51.7011C106.966 52.5029 101.432 51.6434 96.5293 49.4988C102.953 57.0008 112.937 61.1664 123.428 59.6863C139.798 57.3797 151.204 42.2056 148.903 25.7958C147.399 15.0865 140.43 6.49719 131.218 2.46338Z" fill="black"/>
</g>
</g>
<g opacity="0.2">
<g opacity="0.2">
<path opacity="0.2" d="M94.0939 36.7546C91.9573 21.5201 102.547 7.43056 117.744 5.28872C126.627 4.03656 135.119 7.14498 141.068 12.9856C135.157 5.38483 125.471 1.07093 115.265 2.50981C100.065 4.65166 89.4783 18.7384 91.6149 33.9757C92.5024 40.3051 95.4498 45.8382 99.6791 49.9874C96.7865 46.2666 94.7951 41.7605 94.0939 36.7546Z" fill="white"/>
</g>
</g>
<path d="M107.521 37.864C109.124 44.1056 115.183 48.2794 121.7 47.3595C128.216 46.4424 132.892 40.7555 132.717 34.3135L107.521 37.864Z" fill="#1C222D"/>
<path d="M112.51 45.116C115.082 46.9475 118.328 47.8372 121.7 47.3621C124.927 46.9063 127.699 45.2835 129.657 42.9796L129.501 42.7215C120.462 39.7806 112.619 45.0446 112.51 45.116Z" fill="#D34E4E"/>
<path d="M125.943 24.074C126.488 21.8552 128.298 20.2132 130.555 19.8946C132.766 19.5843 134.935 20.6223 136.083 22.5417C136.302 22.9097 136.237 23.3683 135.919 23.6593C135.601 23.9504 135.138 23.9751 134.793 23.7225C132.925 22.355 130.145 21.4378 127.512 24.8373C127.364 25.0296 127.153 25.1449 126.931 25.1778C126.762 25.2026 126.584 25.1751 126.417 25.0955C126.036 24.9087 125.841 24.4886 125.943 24.074Z" fill="#1C222D"/>
<path d="M100.476 27.6628C101.021 25.4414 102.832 23.802 105.089 23.4835C107.299 23.1732 109.469 24.2112 110.617 26.1306C110.836 26.4985 110.77 26.9571 110.452 27.2482C110.135 27.5393 109.672 27.564 109.326 27.3114C107.458 25.9439 104.678 25.0267 102.046 28.4262C101.898 28.6184 101.687 28.7338 101.465 28.7667C101.295 28.7914 101.117 28.764 100.95 28.6843C100.572 28.4976 100.375 28.0775 100.476 27.6628Z" fill="#1C222D"/>
<path d="M102.098 43.1601C104.85 42.2874 106.375 39.3435 105.504 36.5848C104.634 33.8261 101.697 32.2971 98.9452 33.1698C96.1933 34.0425 94.6681 36.9864 95.5387 39.7451C96.4092 42.5039 99.3458 44.0328 102.098 43.1601Z" fill="#D34E4E"/>
<path d="M141.606 36.9047C144.473 36.5731 146.529 33.974 146.199 31.0996C145.868 28.2251 143.275 26.1637 140.408 26.4953C137.54 26.8269 135.484 29.4259 135.815 32.3004C136.146 35.1749 138.738 37.2363 141.606 36.9047Z" fill="#D34E4E"/>
<path d="M99.1451 47.4806C99.189 47.5548 99.2355 47.6289 99.2547 47.7086C99.4492 48.4555 99.1068 48.9607 99.0903 49.7296C99.0821 50.0728 99.8135 50.5671 99.2054 50.9433C98.9808 51.0833 98.3836 51.3469 97.9015 51.638C97.2003 52.0636 96.5675 53.0275 96.206 53.887C95.5595 55.4357 95.1048 57.053 94.7734 58.6951C94.4803 60.156 93.7845 62.3994 94.0447 63.874C94.283 65.2085 96.0553 66.8863 96.8524 68.0231C97.855 69.4538 98.8356 70.9009 99.7971 72.3617C100.474 73.3915 101.15 74.4542 101.427 75.6542C101.594 76.3818 101.588 77.2084 101.134 77.7987C100.841 78.1804 100.4 78.4138 99.9751 78.6363C99.2218 79.0289 98.4083 79.4326 97.5646 79.331C96.5265 79.2047 95.7458 78.3507 95.0856 77.5379C93.601 75.7008 92.2259 73.7622 91.1412 71.656C90.377 70.1677 88.9334 67.5398 89.2731 65.8456C90.0455 61.9793 91.1521 58.2036 92.3437 54.4307C92.6697 53.3927 93.4996 52.6623 93.7927 51.6984C93.979 51.0861 93.6859 50.4682 93.7352 49.8504C93.7845 49.238 94.0037 48.4472 94.2721 47.898C94.8035 46.8134 96.0307 46.5937 97.0825 46.2971C97.3455 46.223 97.5208 46.1736 97.77 46.2257C98.1754 46.3136 98.4384 46.6212 98.7069 46.915C98.8767 47.0907 99.0219 47.2802 99.1451 47.4806Z" fill="#EAC5B0"/>
<path d="M141.293 46.132C141.249 46.2061 141.203 46.2803 141.183 46.3599C140.989 47.1068 141.331 47.6121 141.348 48.3809C141.356 48.7242 140.625 49.2185 141.233 49.5947C141.457 49.7347 142.054 49.9983 142.537 50.2894C143.238 50.715 143.871 51.6788 144.232 52.5383C144.879 54.087 145.333 55.7044 145.665 57.3465C145.958 58.8073 146.654 61.0508 146.393 62.5254C146.155 63.8599 144.383 65.5377 143.586 66.6745C142.583 68.1051 141.603 69.5523 140.641 71.0131C139.964 72.0428 139.288 73.1055 139.011 74.3055C138.844 75.0332 138.85 75.8597 139.304 76.4501C139.597 76.8318 140.038 77.0652 140.463 77.2876C141.216 77.6803 142.03 78.0839 142.874 77.9823C143.912 77.856 144.692 77.002 145.352 76.1892C146.837 74.3522 148.212 72.4136 149.297 70.3074C150.061 68.8191 151.505 66.1912 151.165 64.497C150.393 60.6307 149.286 56.855 148.094 53.082C147.768 52.044 146.938 51.3136 146.645 50.3498C146.459 49.7374 146.752 49.1196 146.703 48.5018C146.654 47.8894 146.434 47.0986 146.166 46.5494C145.635 45.4647 144.407 45.2451 143.356 44.9485C143.093 44.8744 142.917 44.8249 142.668 44.8771C142.263 44.965 142 45.2725 141.731 45.5663C141.561 45.7421 141.416 45.9288 141.293 46.132Z" fill="#EAC5B0"/>
<path d="M118.755 78.9322L118.648 77.5839C117.095 77.9464 115.175 78.1222 113.504 78.5505C111.365 77.8009 108.965 77.7542 107.001 76.6146C105.618 75.8128 104.58 74.5414 103.571 73.2975C102.29 71.7158 101.706 70.0573 99.8298 70.6834C98.43 71.1502 96.5729 73.6517 95.458 74.665C94.9156 75.1565 94.3733 75.648 93.8337 76.1396C93.7077 76.2549 93.5734 76.384 93.5488 76.5542C93.5323 76.6778 93.5789 76.8013 93.6255 76.9167C95.1046 80.4425 97.3015 83.9903 100.246 86.4699C102.081 88.0158 103.489 89.7568 104.829 91.6378C104.155 96.4816 104.823 101.652 104.829 106.469C104.832 108.454 103.492 129.738 104.508 129.79C108.036 129.969 111.74 129.367 115.257 129.049C116.865 128.903 118.752 129.257 119.108 127.459C119.363 126.171 119.188 124.639 119.226 123.329C119.36 118.617 119.492 113.907 119.626 109.195C119.662 107.957 120.094 89.6057 120.182 89.6057L116.084 82.1203L118.755 78.9322Z" fill="#474EBB"/>
<path d="M146.889 75.2061C146.867 75.0358 146.733 74.9068 146.605 74.7914C146.062 74.2999 145.52 73.8084 144.98 73.3168C143.863 72.3036 142.008 69.802 140.608 69.3352C138.732 68.7091 138.149 70.3677 136.867 71.9494C135.859 73.1933 134.82 74.4647 133.437 75.2637C131.331 76.4829 128.729 76.4472 126.477 77.3726C126.345 77.4275 126.217 77.488 126.091 77.5594C125.674 77.4742 125.231 77.3781 124.746 77.2573C123.806 77.0266 121.779 76.2907 122.289 78.158C122.579 79.2261 124.28 80.5579 124.998 81.4174L120.9 88.9029C121.114 96.4653 121.327 104.028 121.544 111.593C121.642 115.077 121.741 118.565 121.839 122.049C121.875 123.26 121.902 124.471 121.944 125.679C121.96 126.223 121.812 127.138 122.119 127.58C122.79 128.541 125.242 128.241 126.313 128.327C127.981 128.458 129.674 128.596 131.246 129.172C132.292 129.557 133.284 130.136 134.388 130.29C134.637 130.326 134.914 130.331 135.108 130.172C135.324 129.996 135.363 129.683 135.385 129.403C135.768 124.21 135.776 118.859 136.064 113.611C136.3 109.316 136.9 104.777 136.527 100.477C136.522 100.406 136.513 100.334 136.5 100.263C135.787 96.3939 136.253 93.0191 136.02 89.7239C137.239 88.0571 138.546 86.5084 140.198 85.119C143.142 82.6394 145.339 79.0916 146.818 75.5658C146.859 75.4532 146.906 75.3296 146.889 75.2061Z" fill="#474EBB"/>
<path d="M198.871 68.3632C198.961 68.3687 199.054 68.3714 199.136 68.4016C199.903 68.6707 200.142 69.2721 200.804 69.7389C201.1 69.9476 201.96 69.5989 201.933 70.354C201.922 70.6341 201.799 71.3123 201.771 71.9082C201.73 72.7759 202.199 73.899 202.736 74.7228C204.845 77.9576 207.773 80.5305 210.751 82.9827C210.92 83.1227 211.098 83.2655 211.315 83.3122C211.698 83.3945 212.068 83.1474 212.389 82.9168C213.873 81.8568 215.456 80.9342 217.114 80.1653C218.59 79.4788 220.168 78.9104 221.795 78.9296C223.422 78.9488 225.115 79.6546 225.969 81.044C226.61 82.0847 226.706 83.4385 226.221 84.5588C225.016 87.3377 220.603 87.2856 218.053 87.7442C215.64 88.178 213.199 88.4416 210.751 88.535C210.449 88.546 210.137 88.5542 209.855 88.4444C209.553 88.329 209.318 88.0929 209.091 87.8622C206.171 84.9021 203.527 81.703 200.936 78.4299C200.224 77.5319 200.073 76.3704 199.407 75.5466C198.983 75.0194 198.271 74.9123 197.761 74.5059C197.254 74.1022 196.696 73.4432 196.375 72.883C195.742 71.7764 196.274 70.5709 196.635 69.4698C196.726 69.1952 196.786 69.0112 196.981 68.8245C197.296 68.5197 197.72 68.473 198.137 68.4099C198.369 68.3687 198.621 68.3522 198.871 68.3632Z" fill="#EAC5B0"/>
<path d="M219.242 89.6556C216.596 90.0537 213.879 90.202 211.422 90.0043C210.8 89.9549 210.162 89.8752 209.617 89.5704C209.165 89.3178 208.809 88.9279 208.461 88.5435C206.434 86.311 204.407 84.0813 202.38 81.8488C202.089 81.5303 201.78 81.1211 201.917 80.712C201.999 80.4648 202.226 80.3028 202.44 80.1546C203.418 79.479 204.396 78.8063 205.374 78.1308C205.552 78.0072 205.746 77.8809 205.96 77.8891C206.16 77.8974 206.332 78.0209 206.483 78.1528C207.439 78.9875 207.94 80.2754 208.97 81.0113C209.915 81.6868 211.172 81.7857 212.307 81.5413C217.054 80.517 221.324 76.6507 225.446 74.237C227.63 72.9602 229.9 71.6503 232.418 71.4032C237.789 70.876 241.123 77.167 237.187 81.1376C233.848 84.5096 229.547 86.948 225.033 88.343C223.239 88.9004 221.261 89.3508 219.242 89.6556Z" fill="#8EC3CB"/>
<path d="M231.399 170.743L232.243 176.834L228.641 177.334L227.707 170.579L231.399 170.743Z" fill="#EDCEAF"/>
<path d="M228.843 176.337L232.108 176.985L233.168 177.877L233.308 180.288L224.91 182.007C224.063 181.052 224.354 179.574 225.499 179.014L225.877 178.83L228.843 176.337Z" fill="#3B455A"/>
<path d="M257.479 146.688C258.999 146.183 260.478 145.186 262.01 144.827C262.086 146.021 262.201 147.213 262.303 148.407C260.451 149.281 258.542 149.973 256.523 150.338C256.843 149.13 257.254 147.921 257.479 146.688Z" fill="#EDCEAF"/>
<path d="M262.407 148.341C262.3 148.19 262.289 148.185 262.198 147.831C261.974 146.955 261.388 144.522 262.215 143.778C262.349 143.657 262.412 143.775 262.533 143.832C264.549 144.791 266 145.897 267.606 147.523C268.293 148.218 268.953 149.091 269 150.104C269.019 150.549 268.838 150.892 268.671 151.244C268.425 151.763 268.134 152.219 267.808 152.666C267.688 152.831 267.589 153.012 267.356 152.996C266.891 152.965 266.663 152.427 266.573 151.985C266.483 151.543 266.447 151.008 266.154 150.637C266.022 150.469 265.831 150.368 265.672 150.277C264.491 149.599 263.248 149.533 262.407 148.341Z" fill="#3B455A"/>
<path d="M231.289 143.481C234.226 148.715 238.548 150.994 243.75 152.612C249.702 154.462 254.83 153.452 260.131 150.481C260.221 148.707 260.051 146.944 260.183 145.277C254.285 146.214 251.439 146.008 247.456 140.727C241.704 133.093 247.415 121.857 245.84 112.636C245.659 111.576 245.372 110.522 244.832 109.591C238.587 98.7773 227.342 106.005 225.954 115.907C224.715 124.765 226.909 135.677 231.289 143.481Z" fill="#3B455A"/>
<path d="M242.183 111.793C241.783 108.501 240.989 105.378 240.074 103.036C234.976 103.396 229.323 104.673 224.441 106.318C219.67 107.924 216.75 109.374 217.377 114.698C218.53 124.499 215.747 133.316 215.27 142.932C214.991 148.52 217.256 153.205 219.719 158.043C222.538 163.576 225.06 169.263 227.268 175.068C228.964 174.846 230.659 174.623 232.352 174.401C233.086 166.641 231.421 158.883 230.602 151.134C230.032 145.747 229.898 140.178 231.24 134.892C232.716 129.079 236.11 130.894 239.29 127.234C242.383 123.675 242.871 117.48 242.183 111.793Z" fill="#3B455A"/>
<path d="M235.379 73.8849C235.962 74.2967 236.483 74.7993 236.995 75.299C237.455 75.7466 237.915 76.1942 238.376 76.6418C239.97 78.1933 240.83 80.5575 241.578 82.5978C245.511 93.3399 247.445 108.242 245.76 119.742C237.368 120.871 227.512 119.201 219.048 118.446C218.226 118.372 217.289 118.232 216.832 117.543C216.555 117.125 216.522 116.595 216.498 116.093C216.158 108.86 217.319 101.015 218.412 93.815C218.875 90.778 219.478 87.7602 220.294 84.7973C221.157 81.6614 222.14 78.2729 224.392 75.8235C226.803 73.2039 231.582 71.7403 234.839 73.5443C235.026 73.6487 235.204 73.7613 235.379 73.8849Z" fill="#8EC3CB"/>
<path d="M234.53 75.4479C234.637 74.4566 234.741 73.4653 234.848 72.474C235.048 72.3669 235.237 72.2488 235.412 72.1253C238.822 69.7088 244.15 57.352 234.653 55.0894C226.03 53.0354 227.024 64.7469 228.914 69.5605C229.238 70.3843 229.654 71.1587 230.248 71.8177C230.654 72.2681 230.739 72.1747 230.709 72.7211C230.679 73.2511 230.185 73.8689 230.092 74.4319C229.994 75.0305 230.073 75.684 230.437 76.1646C230.662 76.4611 230.98 76.6726 231.314 76.8318C231.845 77.0845 232.459 77.208 233.031 77.0707C233.714 76.906 234.453 76.1591 234.53 75.4479Z" fill="#FEE0D4"/>
<path d="M226.709 65.2244C227.304 66.7594 228.104 68.2175 229.079 69.5411C228.895 66.6551 229.106 63.7444 229.709 60.9188C229.755 60.7018 229.799 60.4602 229.673 60.2762C229.558 60.106 229.336 60.0511 229.133 60.0181C225.515 59.4112 225.674 62.5471 226.709 65.2244Z" fill="#1A3151"/>
<path d="M236.327 69.1291C236.94 69.9117 238.189 69.6343 239.055 69.1456C242.61 67.1383 244.547 62.6212 243.55 58.6533C242.717 55.3334 238.384 53.0213 237.729 57.2116C237.496 58.6972 238.485 60.6963 238.359 62.3383C238.173 64.6889 237.192 66.9708 236.327 69.1291Z" fill="#1A3151"/>
<path d="M226.145 52.409C225.745 52.5902 225.337 52.7797 224.907 52.9719C224.017 53.37 223.367 53.5211 222.409 53.0323C222.135 52.8923 220.267 51.2831 220.68 50.9097C217.936 53.3783 220.442 56.6734 221.628 59.035C222.425 60.6276 222.683 62.915 224.354 63.9008C226.192 64.9854 227.345 63.4505 228.933 62.7118C230.333 62.061 231.864 61.6711 233.292 61.0834C235.664 60.1059 239.181 58.4226 238.23 55.2483C237.121 51.5412 233.286 50.7861 229.892 51.2337C228.446 51.4204 227.323 51.8735 226.145 52.409Z" fill="#1A3151"/>
<path d="M224.964 78.7948C225.052 78.7756 225.145 78.7591 225.23 78.7673C226.038 78.8387 226.418 79.3632 227.174 79.6542C227.511 79.7833 228.262 79.2341 228.418 79.9755C228.476 80.2474 228.522 80.9394 228.64 81.5215C228.81 82.3727 229.541 83.3476 230.262 84.0121C231.628 85.2725 236.699 87.126 236.307 89.4903C235.387 95.0453 228.048 86.2445 227.229 85.6294C226.69 85.223 225.972 85.2944 225.378 85.0253C224.789 84.759 224.085 84.2565 223.635 83.7924C222.751 82.8753 222.973 81.5737 223.055 80.4204C223.074 80.132 223.088 79.9398 223.23 79.7092C223.463 79.3357 223.86 79.1847 224.249 79.0227C224.479 78.9238 224.72 78.8442 224.964 78.7948Z" fill="#EAC5B0"/>
<path d="M246.929 96.3112C246.217 98.6041 241.75 97.1076 240.183 96.4211C236.896 94.9767 233.787 93.2275 230.949 91.0143C230.774 90.877 230.585 90.715 230.552 90.4925C230.522 90.2729 230.656 90.0697 230.784 89.8884C231.584 88.7626 232.381 87.634 233.181 86.5082C233.354 86.2665 233.537 86.0139 233.806 85.8876C234.822 85.4153 236.216 86.7498 237.249 86.8569C237.537 84.3142 236.016 82.1586 235.266 79.8465C234.241 76.6804 237.849 75.8346 239.802 77.4603C242.191 79.4511 243.798 82.4167 244.823 85.3027C245.935 88.4331 246.455 91.7365 246.973 95.0206C247.058 95.5451 247.033 95.968 246.929 96.3112Z" fill="#8EC3CB"/>
<path d="M156.506 68.086C156.055 67.6247 155.616 67.1469 155.186 66.7487C155.115 66.1281 155.041 65.5075 154.97 64.887C154.959 64.7908 154.948 64.6865 154.997 64.6014C155.038 64.5272 155.118 64.4833 155.192 64.4421C155.52 64.2636 155.852 64.0851 156.181 63.9039C156.246 63.8682 156.315 63.8325 156.389 63.827C156.55 63.8188 156.679 63.9561 156.78 64.0851C157.131 64.5272 158.38 66.01 158.413 64.8073C158.418 64.6233 158.583 64.4751 158.761 64.4284C158.939 64.3817 159.125 64.4119 159.309 64.4421C159.44 64.4641 159.594 64.5053 159.637 64.6288C159.657 64.6865 159.648 64.7469 159.64 64.8073C159.547 65.4444 159.421 65.9771 159.55 66.6224C159.676 67.3308 159.799 68.0393 159.925 68.7478C159.931 68.7835 158.996 69.2613 158.912 69.3134C158.418 69.6182 158.621 69.7528 158.068 69.4095C157.517 69.0773 157.002 68.5912 156.506 68.086Z" fill="#EAC5B0"/>
<path d="M178.519 79.5694L166.288 81.1016L160.106 67.4487L156.879 69.3682L160.191 89.4658L164.466 93.9609L172.881 93.2662L178.519 79.5694Z" fill="#CCD2D9"/>
<path d="M188.988 122.945L184.498 151.909L186.093 172.836L182.825 173.858L179.899 154.523L173.657 119.188L188.988 122.945Z" fill="#EAC5B0"/>
<path d="M182.833 174.448L182.472 176.617L183.291 180.736L185.989 180.508L186.498 174.404L186.101 173.426L182.833 174.448Z" fill="#3B455A"/>
<path d="M162.546 122.082L163.99 146.651L170.09 180.997L173.396 180.956L171.928 149.111L176.218 119.754L162.546 122.082Z" fill="#EAC5B0"/>
<path d="M170.145 180.41L165.918 183.189L166.444 185.267L174.185 183.611L173.555 180.61L170.145 180.41Z" fill="#3B455A"/>
<path d="M161.818 125.765L161.955 154.282L165.844 173.509L174.703 172.224L174.446 150.001L176.284 125.589L175.374 121.893L162.56 123.2L161.818 125.765Z" fill="#3B455A"/>
<path d="M177.538 150.421L180.28 170.645L187.985 169.568L186.218 150.316L189.075 125.696L187.399 119.029L174.454 120.984L177.538 150.421Z" fill="#3B455A"/>
<path d="M192.79 89.9137C191.938 87.0525 190.44 82.1784 187.922 80.8027C187.87 80.7752 187.816 80.745 187.764 80.7175C187.265 80.4539 186.728 80.2205 186.169 80.0173C185.167 79.383 183.723 79.1112 182.299 79.2073C180.99 79.1194 179.691 79.2237 178.519 79.5725C177.968 79.7345 177.448 80.0063 176.93 80.2754C175.423 81.0635 174.265 81.4013 173.328 82.95C172.514 84.2928 172.027 85.8607 171.411 87.3106C166.253 99.4312 162.062 115.613 158.714 128.426C160.295 128.275 161.881 128.014 163.459 127.764C170.72 128.585 179.012 130.782 185.413 132.965C187.333 134.11 189.224 135.315 191.097 136.537C190.618 136.224 192.902 126.086 193.083 124.944C193.735 120.809 194.305 116.657 194.694 112.491C195.42 104.745 194.987 97.2976 192.79 89.9137Z" fill="#CCD2D9"/>
<path d="M189.722 70.0524C188.388 64.9697 181.351 62.8086 179.359 68.5037C178.762 70.2144 178.354 72.046 178.593 73.8446C178.831 75.6459 179.798 77.4171 181.386 78.2436C181.395 78.2491 181.406 78.2518 181.414 78.2573C181.688 78.3974 180.154 81.3191 180.047 81.5525C179.877 81.9177 179.707 82.2884 179.622 82.6838C179.436 83.5625 179.702 84.4687 180.011 85.309C180.296 86.0778 180.622 86.833 180.989 87.5661C181.022 87.6293 181.055 87.6952 181.113 87.7364C181.252 87.8352 181.444 87.7391 181.584 87.643C182.718 86.8687 183.72 85.8993 184.534 84.79C184.72 84.5373 184.898 84.271 184.999 83.9744C185.117 83.6367 185.131 83.2715 185.131 82.9117C185.131 81.9122 184.285 79.4463 184.789 78.6637C184.98 78.3672 185.917 78.1475 186.24 77.9498C186.777 77.6203 187.259 77.2029 187.689 76.7416C189.297 75.0254 190.341 72.403 189.722 70.0524Z" fill="#EAC5B0"/>
<path d="M179.439 70.0685C178.642 71.3591 178.688 72.938 178.891 74.3906C179.088 75.8103 178.932 77.1997 179.261 78.6084C179.11 78.8281 178.773 78.6825 178.562 78.5205C177.33 77.5732 176.111 76.6093 174.906 75.6263C174.785 75.5274 174.659 75.4231 174.588 75.283C174.497 75.1046 174.506 74.8931 174.522 74.6927C174.81 70.744 176.349 67.858 178.554 64.7413C179.625 63.2283 182.488 61.556 184.112 63.3629C184.482 63.7748 184.616 64.3459 184.712 64.8951C184.769 65.2219 184.816 65.5624 184.742 65.8864C184.446 67.1797 183.238 67.1083 182.293 67.523C181.132 68.0365 180.113 68.9811 179.439 70.0685Z" fill="#3B455A"/>
<path d="M188.418 72.6718C188.418 73.8086 188.153 75.102 187.813 76.1784C187.695 76.5518 186.983 77.4168 186.961 77.6694C186.895 78.3999 188.396 80.1161 188.785 80.7559C191.13 79.4516 193.475 78.1472 195.82 76.8429C196 76.7441 196.187 76.6342 196.291 76.4557C196.387 76.2937 196.398 76.096 196.403 75.9065C196.535 72.1858 195.579 68.8412 194.165 65.4774C192.752 62.1136 189.582 59.3786 185.846 59.6121C182.828 59.8015 180.718 62.0312 181.82 65.1479C182.652 67.5012 185.572 68.0009 187.161 69.6073C188.166 70.6178 188.451 71.6201 188.418 72.6718Z" fill="#3B455A"/>
<path d="M45.4183 56.4629C45.3717 56.5288 45.3251 56.5974 45.3032 56.6715C45.0813 57.3635 45.3772 57.8578 45.3525 58.58C45.3416 58.904 44.6294 59.3296 45.1827 59.7168C45.3854 59.8596 45.936 60.1369 46.3715 60.439C47.0097 60.8756 47.5521 61.8147 47.8479 62.6413C49.0066 65.887 49.2531 69.3606 49.3873 72.804C49.3956 72.999 49.401 73.2049 49.3161 73.3834C49.1655 73.702 48.7929 73.831 48.456 73.9354C46.9029 74.4214 45.3963 75.053 43.9583 75.8191C42.6763 76.5028 41.4218 77.3184 40.5589 78.4909C39.6961 79.6607 39.2852 81.2479 39.8084 82.6071C40.2001 83.6231 41.1095 84.4222 42.1668 84.6803C44.7855 85.3201 47.1275 82.143 48.8258 80.5751C50.4337 79.0895 51.9375 77.4914 53.3208 75.7944C53.4907 75.5857 53.666 75.366 53.7399 75.1079C53.8194 74.8306 53.781 74.534 53.7399 74.2484C53.214 70.5716 52.3676 66.9634 51.4445 63.3525C51.1897 62.3612 50.4502 61.628 50.2228 60.7081C50.0776 60.1205 50.3872 59.5575 50.3707 58.9727C50.357 58.396 50.1927 57.6409 49.9653 57.1082C49.5216 56.0592 48.3793 55.7901 47.4042 55.4551C47.1604 55.3727 46.9988 55.315 46.7605 55.3535C46.3742 55.4139 46.1113 55.6885 45.8428 55.9521C45.6922 56.1086 45.5443 56.2789 45.4183 56.4629Z" fill="#EAC5B0"/>
<path d="M47.7877 80.6626C46.8701 78.68 45.9525 76.6974 45.0348 74.7148C45.0924 74.8412 35.8092 78.3395 35.2614 78.5674C33.1796 79.4351 31.0266 80.3495 29.4954 82.0081C26.2275 85.5531 28.8927 91.3169 33.8288 90.6524C39.1894 89.9302 44.7226 87.0991 48.5492 83.285C48.6314 83.2026 48.719 83.112 48.7492 82.9994C48.793 82.8429 48.7218 82.6809 48.656 82.5353C48.3684 81.912 48.0781 81.2887 47.7877 80.6626Z" fill="#D34E4E"/>
<path d="M0.862515 137.556C0.739251 138.303 0.657075 139.055 0.596813 139.744C0.489984 140.928 0.678989 142.279 0.380417 143.432C0.262631 143.888 0.101018 144.33 0.0325386 144.8C-0.0359413 145.269 -0.00581016 145.788 0.2325 146.173C0.522855 146.645 1.0433 146.81 1.52814 146.92C1.97463 147.021 2.43755 147.098 2.88404 146.988C3.7825 146.766 4.44538 145.794 4.7193 144.75C5.04801 143.501 4.88092 142.271 4.83709 141.008C4.83709 139.014 4.30568 137.314 4.38786 135.304C4.40156 134.966 4.40977 134.601 4.22077 134.318C4.02081 134.022 3.64006 133.89 3.28396 133.901C2.57177 133.92 1.88697 134.121 1.6021 134.799C1.25148 135.623 1.02139 136.587 0.862515 137.556Z" fill="#3B455A"/>
<path d="M2.72257 135.977C2.33635 136.279 2.06243 136.699 1.79398 137.111C1.6132 137.388 1.42967 137.754 1.6132 138.031C1.68168 138.135 1.79398 138.207 1.90081 138.27C2.35278 138.544 2.80201 138.819 3.25398 139.094C3.34711 139.149 3.44846 139.206 3.55255 139.192C3.6402 139.181 3.71416 139.121 3.78264 139.063C4.21817 138.693 4.63179 138.3 5.0235 137.883C6.7848 135.999 4.30309 134.741 2.72257 135.977Z" fill="#EAC5B0"/>
<path d="M33.8424 119.213C33.7274 118.776 33.3548 118.463 32.9631 118.197C28.942 115.462 24.5565 113.597 19.8123 112.54C19.4123 112.452 16.8676 120.383 16.6211 121.154C15.6706 124.142 14.8598 127.173 14.1668 130.23C13.408 133.58 12.6191 136.924 11.8138 140.263C10.2662 138.742 8.60347 137.336 6.84764 136.062C6.54633 135.842 6.21763 135.62 5.8451 135.595C5.39313 135.568 4.97951 135.84 4.62067 136.114C3.9934 136.598 3.40721 137.13 2.87033 137.712C2.68954 137.907 2.50875 138.122 2.46493 138.382C2.42384 138.643 2.52519 138.901 2.62928 139.146C4.37415 143.32 7.14073 150.034 9.35948 153.982C10.4332 155.893 12.4876 156.547 14.5749 156.382C15.1091 156.341 15.4788 156.19 15.9445 156.025C16.4951 155.83 17.0922 155.833 17.6483 155.641C18.0126 155.514 18.2975 155.232 18.555 154.943C20.7901 152.45 22.3131 148.954 23.6608 145.92C25.1236 142.625 26.3179 139.214 27.3916 135.774C27.4711 135.521 27.5532 135.269 27.6354 135.019C29.3282 129.873 31.6127 125.446 33.6562 120.394C33.8068 120.012 33.9575 119.65 33.8424 119.213Z" fill="#474EBB"/>
<path d="M27.5176 177.94C28.2462 178.223 29.0077 178.174 29.7555 178.317C30.5143 175.752 30.9991 173.217 31.2347 170.526C29.7254 171.424 29.0077 170.403 28.3174 172.762C28.0901 173.522 28.0216 176.831 27.5176 177.94Z" fill="#EAC5B0"/>
<path d="M30.517 177.545C30.5197 178.995 31.6565 180.558 32.2865 181.862C32.3605 182.016 32.4372 182.175 32.4399 182.345C32.4454 182.598 32.2893 182.823 32.1413 183.029C31.9359 183.314 31.714 183.614 31.3853 183.74C31.0648 183.866 30.7033 183.803 30.3663 183.729C29.8021 183.606 29.246 183.455 28.6954 183.282C28.5585 183.238 28.4188 183.191 28.3065 183.1C28.175 182.993 28.0956 182.834 28.0189 182.683C27.6299 181.898 27.3012 181.343 27.3204 180.47C27.3423 179.566 27.4546 178.633 27.2902 177.737C27.2081 177.304 27.1012 176.749 27.471 176.51C27.7586 176.326 28.2818 176.579 28.5941 176.631C29.1447 176.721 29.6542 176.686 30.1609 176.977C30.265 177.034 30.3636 177.106 30.4293 177.207C30.4978 177.309 30.517 177.424 30.517 177.545Z" fill="#3B455A"/>
<path d="M26.767 131.55C27.0875 137.99 27.775 144.404 27.2902 150.887C26.6903 158.897 27.1998 167.05 26.2986 174.98C27.2107 175.299 28.1448 175.546 29.0926 175.724C30.18 175.928 31.9304 176.164 32.6672 175.134C33.0425 174.607 33.1329 173.591 33.2945 172.973C33.8067 170.993 34.2724 169 34.7353 167.006C36.0419 161.369 37.4992 155.701 38.1757 149.951C38.8879 143.902 39.6522 137.85 40.4904 131.841C40.9232 128.736 41.2409 125.614 41.4107 122.483C41.4546 121.676 41.8819 113.356 41.4765 113.295C36.6665 112.595 31.9085 112.779 27.1806 113.905C26.7204 114.015 26.2602 114.171 26 114.542C25.7398 114.913 25.7507 115.302 25.759 115.714C25.8466 119.638 26.4027 123.469 26.5752 127.404C26.63 128.769 26.6958 130.142 26.767 131.55Z" fill="#474EBB"/>
<path d="M24.0665 79.8798C23.987 79.9073 23.9103 79.9348 23.8336 79.965C22.5435 80.4565 21.445 81.3407 20.3713 82.2112C18.7579 83.5182 17.9635 84.0894 17.339 86.0253C16.7583 87.8294 16.394 89.7351 16.0379 91.5968C14.2108 101.145 13.8575 110.654 12.5454 120.273C12.1893 122.892 11.9126 125.971 13.8438 127.769C17.2705 125.095 21.5793 124.941 25.7374 124.938C28.6573 124.935 31.5116 123.988 34.437 124.315C37.2338 124.628 39.6771 123.928 42.5149 124.112C43.1997 124.156 44.0708 124.15 44.342 123.516C43.3586 120.564 43.3778 117.39 43.1532 114.287C42.5779 106.26 39.9264 98.5578 38.8554 90.5836C38.4911 87.8733 38.2966 83.3755 36.2038 81.3242C33.9276 79.0945 28.7395 79.0506 25.8168 79.4844C25.2224 79.5668 24.6335 79.6876 24.0665 79.8798Z" fill="#D34E4E"/>
<path d="M26.2387 79.7457C26.288 79.839 26.351 79.9297 26.4359 80.0148C26.7756 80.3498 27.2467 80.542 27.7124 80.6079C28.3287 80.6958 28.9532 80.5942 29.5641 80.4761C30.3886 80.3196 30.3612 79.8335 30.4789 79.0812C30.5447 78.672 30.5858 78.2574 30.6159 77.8427C30.6323 77.6148 30.5447 76.802 30.6899 76.6427C30.7885 76.5357 31.1857 76.5714 31.361 76.4807C31.6376 76.3352 31.8705 76.0688 32.0348 75.808C32.3033 75.3906 32.4512 74.9073 32.5963 74.4295C32.8484 73.6002 33.1004 72.7737 33.3524 71.9444C33.6098 71.0987 33.8673 70.2447 33.9495 69.3632C34.0728 68.0369 33.8591 66.1614 32.8593 65.1921C31.9472 64.3079 30.6186 63.9976 29.397 63.8411C27.7808 63.6352 26.1072 63.9317 24.7129 64.7912C24.1487 65.1372 23.6145 65.5875 23.2831 66.2081C22.7709 67.161 22.8092 68.3527 22.864 69.4676C22.916 70.4946 22.9653 71.5243 23.0174 72.5513C23.0749 73.7348 23.2228 75.0968 24.1076 75.7366C24.576 76.0771 25.1896 76.1485 25.5922 76.5851C26.0962 77.1315 26.0634 77.9526 26.0825 78.6446C26.099 79.0427 26.0716 79.4189 26.2387 79.7457Z" fill="#EAC5B0"/>
<path d="M31.3502 66.4581C31.405 66.5542 31.4516 66.6558 31.4872 66.7574C31.6762 67.3011 31.5475 67.9189 31.731 68.4654C32.0213 69.3331 33.0321 69.8521 33.1828 70.7555C33.306 71.4942 32.8048 72.1944 32.7609 72.9413C32.7144 73.7568 33.2348 74.5284 33.1554 75.333C33.0842 76.0332 32.6431 77.0163 32.2268 77.5765C32.3555 77.4035 33.5224 77.4639 33.8265 77.2799C34.2894 76.9943 34.3442 76.8158 34.4811 76.3325C34.6181 75.852 34.5113 75.377 34.7249 74.8827C34.9879 74.2786 35.5248 73.8337 35.7138 73.1884C35.9713 72.307 35.5029 71.3788 35.5412 70.4617C35.596 69.075 36.793 67.7679 36.3575 66.4471C36.1027 65.6727 35.3522 65.1785 34.9331 64.481C34.6126 63.951 34.4948 63.3277 34.273 62.751C34.0511 62.1744 33.6703 61.595 33.0787 61.422C32.75 61.3259 32.3966 61.3643 32.0597 61.3012C31.4762 61.1913 30.9941 60.7904 30.4326 60.5982C29.63 60.3264 28.2139 61.1392 27.7427 61.8229C27.2771 62.5012 27.5126 63.0751 27.9865 63.6737C28.7836 64.6705 30.6983 65.324 31.3502 66.4581Z" fill="#3B455A"/>
<path d="M20.5355 62.358C20.0534 62.7122 19.459 62.9676 19.0207 63.3822C18.1633 64.1895 18.0017 65.4774 17.9689 66.6554C17.9415 67.7043 17.484 68.6352 17.5963 69.7281C17.673 70.4613 17.9826 71.2054 18.5797 71.6393C19.322 72.1802 20.4862 72.2681 20.8176 73.1248C21.1765 74.0557 20.215 75.2282 20.7984 76.0383C21.1217 76.4859 21.7517 76.549 22.2119 76.8483C22.7268 77.1833 22.9898 77.7792 23.3048 78.3092C23.6198 78.8364 24.091 79.3664 24.7045 79.3774C24.7292 78.4437 24.7566 77.7023 24.3594 76.8483C24.1266 76.3513 23.4445 75.4314 23.9704 74.8932C24.3019 74.4456 25.0825 74.3001 25.1017 73.7427C25.1099 73.4818 24.9291 73.2594 24.7867 73.0397C24.2307 72.194 24.1731 71.0654 24.5511 70.1263C24.9291 69.1871 25.7043 68.4347 26.6138 67.9926C27.6793 67.4764 27.5095 67.2128 27.819 66.1913C28.1039 65.2494 28.638 65.0298 29.4817 64.6865C30.2404 64.379 30.4842 64.1868 30.7664 63.4728C30.9718 62.9511 31.2238 62.3277 30.9252 61.7456C30.6897 61.2843 30.2624 60.952 29.8515 60.639C28.9914 59.98 28.0244 59.288 26.9425 59.3676C26.3426 59.4115 25.7783 59.6944 25.1784 59.7273C24.7785 59.7493 24.3786 59.6614 23.9786 59.6477C23.2966 59.6257 22.5734 59.8344 22.0229 60.2408C21.4641 60.6527 21.4805 61.0838 21.171 61.666C21.0203 61.9488 20.793 62.1685 20.5355 62.358Z" fill="#3B455A"/>
<path d="M22.9541 58.5165C23.0582 57.8657 22.9924 57.0172 22.3706 56.7975C22.031 56.6767 21.6502 56.8085 21.2969 56.7371C20.5436 56.5834 20.2888 55.6689 19.8944 55.0099C19.8341 54.9111 19.7656 54.8095 19.6588 54.7628C19.5082 54.6969 19.3356 54.7545 19.174 54.7765C18.4262 54.8671 17.8564 54.1257 17.1497 53.8594C16.2759 53.5271 15.1775 54.0735 14.9145 54.9715C14.8077 55.3394 14.8241 55.7376 14.7228 56.1083C14.3119 57.6103 12.1151 58.2501 12.0603 59.8099C12.0219 60.8616 13.0491 61.8721 12.6519 62.8441C12.3972 63.4675 11.5974 63.8931 11.6877 64.5604C11.7453 64.9887 12.2027 65.2825 12.6355 65.2771C13.0683 65.2716 13.4655 65.0327 13.7915 64.7471C14.3092 64.294 14.6981 63.7146 15.1912 63.2341C15.6842 62.7563 16.3389 62.3663 17.021 62.4515C17.6811 62.5338 18.2783 63.0473 18.9329 62.9375C19.4561 62.8496 19.8451 62.3801 20.36 62.2483C20.8421 62.1247 21.3434 62.3142 21.8392 62.3444C22.335 62.3746 22.9458 62.1165 22.9595 61.6167C22.9623 61.4959 22.9294 61.3723 22.9678 61.257C23.0746 60.9357 23.6224 60.9549 23.7238 60.6309C23.4636 60.23 23.0992 60.3728 22.913 59.851C22.7678 59.4474 22.8883 58.9257 22.9541 58.5165Z" fill="#3B455A"/>
<path d="M23.1927 117.464C23.2091 117.384 23.2255 117.304 23.22 117.225C23.1625 116.5 22.7023 116.156 22.4503 115.478C22.338 115.176 22.8338 114.509 22.1764 114.363C21.9354 114.308 21.3218 114.259 20.8041 114.149C20.0481 113.987 19.1879 113.325 18.6018 112.675C16.3008 110.113 14.7559 106.993 13.3261 103.86C13.2439 103.682 13.1617 103.495 13.1727 103.297C13.1891 102.946 13.4877 102.685 13.7589 102.46C15.0107 101.419 16.1666 100.26 17.2048 99.0052C18.1306 97.8849 18.9825 96.652 19.3359 95.2405C19.6892 93.8291 19.4701 92.2035 18.4703 91.1491C17.7225 90.3582 16.5775 89.9656 15.5037 90.1303C12.8385 90.5367 11.8743 94.3646 10.8991 96.4652C9.97603 98.4505 9.18988 100.502 8.55165 102.6C8.47221 102.858 8.39552 103.127 8.42565 103.396C8.45578 103.682 8.60643 103.942 8.75161 104.19C10.6307 107.391 12.781 110.406 15.0025 113.394C15.6133 114.215 16.5775 114.61 17.1336 115.374C17.4896 115.863 17.4184 116.5 17.654 117.035C17.8868 117.565 18.3251 118.199 18.7332 118.606C19.5413 119.405 20.7 119.221 21.7272 119.158C21.9819 119.141 22.1572 119.133 22.3627 119.007C22.6969 118.804 22.8338 118.449 22.9845 118.103C23.0721 117.892 23.1461 117.68 23.1927 117.464Z" fill="#EAC5B0"/>
<path d="M11.8276 95.9794C13.4273 97.4622 15.027 98.9478 16.6295 100.431C16.5281 100.334 23.7897 93.563 24.2088 93.1456C25.8058 91.5502 27.4493 89.8861 28.2382 87.7662C29.9173 83.2437 25.2689 78.9243 20.9519 81.4203C16.2679 84.1279 12.2194 88.8564 10.1266 93.8403C10.08 93.9474 10.0362 94.0627 10.0499 94.1808C10.0691 94.3401 10.1951 94.4636 10.3129 94.5735C10.8169 95.043 11.3236 95.5098 11.8276 95.9794Z" fill="#D34E4E"/>
<path d="M51.3795 58.119C61.1439 48.3306 61.1439 32.4604 51.3795 22.672C41.6152 12.8835 25.7841 12.8835 16.0197 22.672C6.2554 32.4604 6.2554 48.3306 16.0197 58.119C25.7841 67.9075 41.6152 67.9075 51.3795 58.119Z" fill="#EBB044"/>
<g opacity="0.08">
<g opacity="0.08">
<path opacity="0.08" d="M52.0858 23.3682C53.4253 27.7974 53.5622 32.6495 52.2145 37.433C48.4646 50.7563 34.6508 58.5082 21.3602 54.749C16.7447 53.4446 12.8002 50.9211 9.77344 47.6259C12.1675 55.5288 18.4019 62.0834 26.9181 64.4916C40.2086 68.2508 54.0224 60.499 57.7724 47.1756C60.2185 38.4792 57.7751 29.5603 52.0858 23.3682Z" fill="black"/>
</g>
</g>
<path opacity="0.2" d="M12.1889 37.0598C15.6704 24.6893 28.4953 17.4921 40.8354 20.9822C48.0477 23.0225 53.496 28.2645 56.0845 34.7367C54.1178 26.93 48.1573 20.3671 39.874 18.0221C27.5339 14.532 14.709 21.7291 11.2275 34.0997C9.78116 39.2401 10.1756 44.4629 12.0163 49.0624C11.0521 45.24 11.0467 41.1238 12.1889 37.0598Z" fill="white"/>
<path d="M28.2548 32.5368C27.7891 34.1926 26.6167 35.3074 25.6388 35.0301C24.6582 34.7527 24.2446 33.1876 24.7103 31.5317C25.1759 29.8759 26.3483 28.7611 27.3262 29.0384C28.3041 29.3158 28.7204 30.8809 28.2548 32.5368Z" fill="#1C222D"/>
<path d="M45.9858 37.5509C45.5201 39.2067 44.3477 40.3216 43.3698 40.0442C42.3919 39.7669 41.9756 38.2017 42.4412 36.5459C42.9069 34.8901 44.0793 33.7752 45.0572 34.0526C46.0351 34.3327 46.4514 35.8979 45.9858 37.5509Z" fill="#1C222D"/>
<path d="M16.8869 38.103C15.5118 46.5029 20.6177 54.7792 28.9832 57.1462C37.3487 59.5132 46.0182 55.1334 49.2258 47.2526L16.8869 38.103Z" fill="#1C222D"/>
<path d="M19.0703 49.5288C21.2069 53.1123 24.6583 55.9214 28.9862 57.1434C33.1251 58.3132 37.338 57.8326 40.9291 56.0917L40.8771 55.699C31.5117 47.3211 19.2374 49.4986 19.0703 49.5288Z" fill="#D34E4E"/>
<path d="M184.071 161.059C201.473 143.614 201.473 115.33 184.071 97.8851C166.669 80.4401 138.455 80.4401 121.053 97.8852C103.651 115.33 103.651 143.614 121.053 161.059C138.455 178.504 166.669 178.504 184.071 161.059Z" fill="#EBB044"/>
<g opacity="0.08">
<g opacity="0.08">
<path opacity="0.08" d="M175.878 91.3477C180.315 98.2922 182.887 106.549 182.887 115.41C182.887 140.083 162.938 160.082 138.326 160.082C129.78 160.082 121.795 157.668 115.013 153.486C122.932 165.881 136.789 174.094 152.564 174.094C177.176 174.094 197.126 154.096 197.126 129.423C197.126 113.318 188.626 99.2066 175.878 91.3477Z" fill="black"/>
</g>
</g>
<g opacity="0.2">
<g opacity="0.2">
<path opacity="0.2" d="M114.06 134.187C114.06 111.28 132.582 92.712 155.433 92.712C168.789 92.712 180.663 99.0579 188.229 108.905C181.085 96.4712 167.696 88.1016 152.354 88.1016C129.503 88.1016 110.981 106.67 110.981 129.576C110.981 139.094 114.18 147.859 119.557 154.858C116.059 148.771 114.06 141.714 114.06 134.187Z" fill="white"/>
</g>
</g>
<path d="M134.3 134.077C133.152 132.96 131.314 134.195 131.908 135.687C135.201 143.933 143.243 149.76 152.647 149.76C161.892 149.76 169.824 144.128 173.215 136.098C173.835 134.635 171.98 133.366 170.841 134.473C164.319 140.81 150.475 149.828 134.3 134.077Z" fill="#1C222D"/>
<path d="M136.149 123.854C137.962 123.854 139.433 121.37 139.433 118.307C139.433 115.244 137.962 112.76 136.149 112.76C134.335 112.76 132.864 115.244 132.864 118.307C132.864 121.37 134.335 123.854 136.149 123.854Z" fill="#1C222D"/>
<path d="M168.981 123.854C170.794 123.854 172.265 121.37 172.265 118.307C172.265 115.244 170.794 112.76 168.981 112.76C167.167 112.76 165.696 115.244 165.696 118.307C165.696 121.37 167.167 123.854 168.981 123.854Z" fill="#1C222D"/>
<path d="M252.109 55.5878C252.434 41.0485 240.94 28.9979 226.437 28.6721C211.933 28.3464 199.912 39.8687 199.587 54.4081C199.262 68.9474 210.756 80.998 225.26 81.3238C239.764 81.6495 251.785 70.1272 252.109 55.5878Z" fill="#EBB044"/>
<g opacity="0.08">
<g opacity="0.08">
<path opacity="0.08" d="M238.518 31.8833C241.323 35.8512 243.067 40.6402 243.311 45.8575C243.993 60.3863 232.798 72.7184 218.308 73.4021C213.276 73.641 208.507 72.4411 204.396 70.1647C209.403 77.2437 217.79 81.6949 227.079 81.2556C241.572 80.5718 252.764 68.2398 252.082 53.7109C251.638 44.2319 246.242 36.1588 238.518 31.8833Z" fill="black"/>
</g>
</g>
<path opacity="0.2" d="M203.303 58.8293C202.67 45.3412 213.062 33.8906 226.517 33.2562C234.382 32.8855 241.55 36.2905 246.278 41.8785C241.728 34.7555 233.612 30.2 224.578 30.6256C211.123 31.2599 200.731 42.7106 201.363 56.1987C201.626 61.8032 203.755 66.875 207.113 70.8484C204.883 67.3638 203.511 63.2613 203.303 58.8293Z" fill="white"/>
<path d="M218.812 49.7976C217.982 47.9716 216.152 46.854 214.156 46.9473C212.2 47.0407 210.496 48.2901 209.819 50.1326C209.691 50.4869 209.822 50.8713 210.143 51.069C210.463 51.2667 210.866 51.2145 211.123 50.94C212.512 49.4571 214.761 48.2105 217.582 50.712C217.741 50.8521 217.941 50.9207 218.138 50.9097C218.289 50.9015 218.437 50.8521 218.568 50.756C218.867 50.5335 218.968 50.1409 218.812 49.7976Z" fill="#1C222D"/>
<path d="M241.356 48.7351C240.526 46.9091 238.699 45.7915 236.699 45.8848C234.743 45.9782 233.04 47.2276 232.363 49.0701C232.232 49.4216 232.366 49.8088 232.686 50.0065C233.007 50.2042 233.409 50.152 233.667 49.8774C235.056 48.3946 237.305 47.148 240.126 49.6495C240.285 49.7896 240.485 49.8582 240.682 49.8472C240.833 49.839 240.981 49.7896 241.112 49.6935C241.411 49.4683 241.512 49.0756 241.356 48.7351Z" fill="#1C222D"/>
<path d="M214.347 60.4958C214.347 60.482 214.347 60.4683 214.347 60.4546C214.224 57.8294 212.216 55.5146 209.37 55.6491C207.107 55.7562 205.872 57.4477 205.497 58.9937C204.976 57.4889 203.588 55.921 201.325 56.0281C198.479 56.1626 196.696 58.656 196.819 61.2811C196.819 61.2948 196.822 61.3086 196.822 61.3223C196.833 61.8934 197.12 67.7039 206.105 72.026H206.108C214.648 66.8774 214.388 61.0669 214.347 60.4958Z" fill="#D34E4E"/>
<path d="M226.531 69.6124C224.145 69.725 222.113 67.8715 222 65.4798C221.951 64.4391 222.271 63.4368 222.896 62.6295C222.2 61.8826 221.787 60.916 221.737 59.8753C221.625 57.4836 223.474 55.4461 225.86 55.3335C227.314 55.2648 228.695 55.9266 229.558 57.1046C229.801 57.4369 229.73 57.9009 229.399 58.1453C229.067 58.3897 228.604 58.3183 228.361 57.9861C227.794 57.2117 226.884 56.7751 225.928 56.8218C224.361 56.8959 223.145 58.236 223.219 59.8066C223.26 60.6744 223.688 61.4652 224.392 61.9787C224.572 62.1105 224.685 62.3192 224.696 62.5444C224.707 62.7695 224.613 62.9892 224.446 63.1375C223.794 63.7141 223.444 64.5434 223.485 65.4111C223.559 66.9818 224.896 68.201 226.462 68.1269C227.407 68.083 228.268 67.5695 228.761 66.7594C228.974 66.4079 229.432 66.2981 229.78 66.5123C230.13 66.7264 230.24 67.185 230.026 67.5338C229.278 68.7667 227.972 69.5438 226.531 69.6124Z" fill="#1C222D"/>
<path d="M185.011 123.101C184.874 123.502 184.693 123.889 184.471 124.249C184.356 124.433 184.23 124.617 184.055 124.746C183.931 124.837 183.792 124.9 183.652 124.963C183.32 125.108 182.992 125.257 182.66 125.402C182.548 125.452 182.427 125.501 182.31 125.479C182.222 125.463 182.148 125.408 182.077 125.353C181.704 125.07 181.34 124.773 180.987 124.466C180.929 124.416 180.869 124.361 180.841 124.29C180.787 124.145 180.88 123.988 180.978 123.864C181.469 123.255 181.291 123.027 181.447 122.368C181.554 121.923 181.869 121.703 182.206 121.404C182.764 120.904 183.329 120.41 183.887 119.913C183.95 119.858 185.252 120.778 185.408 120.877C185.202 121.371 185.295 121.989 185.175 122.522C185.131 122.717 185.076 122.912 185.011 123.101Z" fill="#EAC5B0"/>
<path d="M185.756 84.5482C185.52 84.7679 185.304 85.0397 185.115 85.3637C184.329 86.7065 184.211 88.3706 184.479 89.9083C184.904 92.344 186.095 94.6615 186.791 97.034C187.588 99.7471 188.385 102.46 189.18 105.173L182.748 120.394L185.86 122.149L197.121 105.264C195.888 101.713 194.672 98.2505 193.669 94.6506C192.771 91.4213 192.467 87.761 190.193 85.1441C188.914 83.6667 187.046 83.34 185.756 84.5482Z" fill="#CCD2D9"/>
<path d="M63.4153 162.369C62.8428 165.488 62.3716 169.044 64.3932 171.526C66.3407 173.918 69.8277 174.349 72.9477 174.599C78.1576 175.014 83.7839 175.338 88.2105 172.625C91.2784 170.744 93.4012 167.468 93.8313 163.959C93.8587 163.736 93.8779 163.508 93.8176 163.294C93.73 162.989 93.4862 162.75 93.2533 162.531C91.3742 160.746 89.4924 158.958 87.6133 157.173C87.1559 156.737 86.6875 156.297 86.1232 156.004C85.6466 155.756 85.1179 155.622 84.5947 155.496C79.6368 154.301 73.175 152.717 68.0472 153.502C63.6015 154.178 64.0918 158.689 63.4153 162.369Z" fill="#3B455A"/>
<path d="M66.4993 139.166C67.1978 137.795 66.954 136.137 65.8885 135.022C63.9409 132.987 61.9961 130.95 60.0485 128.915C58.9556 127.773 57.2929 126.567 56.6601 125.153C55.5398 122.654 55.1946 119.417 54.6468 116.745C54.3674 115.388 53.7018 113.587 53.8744 112.209C53.9072 111.951 54.9153 109.735 54.8577 109.693C54.8522 109.691 54.3866 109.303 54.3866 109.303L54.0031 109.776L53.5758 109.817L54.2661 108.153L52.3267 107.475L50.4668 108.963C50.7873 110.427 51.494 111.835 51.4611 113.351C51.4474 113.994 51.3296 114.625 51.2612 115.265C51.1434 116.361 51.1735 117.464 51.1598 118.563C51.1461 119.625 50.9215 120.691 50.9215 121.737C50.9215 124.074 50.9379 126.411 50.9462 128.748L60.4347 139.869C62.133 141.857 65.3132 141.486 66.4993 139.166Z" fill="#B97262"/>
<path d="M58.1282 127.194C58.1912 126.889 58.2597 126.584 58.3254 126.282C59.6019 126.227 60.8893 126.395 62.174 126.299C63.7573 126.183 65.3131 125.823 66.8936 125.67C67.6031 125.601 68.318 125.574 69.033 125.543C72.183 125.42 70.0328 130.173 69.6137 131.832C68.9891 134.306 68.2276 136.752 67.2744 139.119C66.7731 140.363 66.2198 141.591 65.5788 142.769C65.2529 143.367 64.6119 145.292 63.9353 145.471C63.3902 145.614 62.9437 145.051 62.6397 144.573C61.1413 142.206 59.139 140.163 56.8024 138.622C56.6436 138.518 56.471 138.4 56.408 138.221C56.3642 138.092 56.3833 137.95 56.4025 137.812C56.9202 134.265 57.3941 130.678 58.1282 127.194Z" fill="#7FC5A3"/>
<path d="M84.3288 138.119C83.6303 136.749 83.8741 135.09 84.9396 133.975C86.8872 131.94 88.832 129.903 90.7796 127.868C91.8725 126.726 93.5352 125.52 94.168 124.106C95.2883 121.607 95.6334 118.37 96.1813 115.698C96.4607 114.342 97.1263 112.54 96.9537 111.162C96.9209 110.904 95.9128 108.688 95.9704 108.646C95.9758 108.644 96.4415 108.257 96.4415 108.257L96.825 108.729L97.2523 108.77L96.562 107.106L98.5014 106.428L100.361 107.916C100.041 109.38 99.3341 110.788 99.367 112.304C99.3807 112.947 99.4985 113.578 99.5669 114.218C99.6847 115.314 99.6546 116.418 99.6683 117.516C99.682 118.579 99.9066 119.644 99.9066 120.69C99.9066 123.027 99.8902 125.364 99.8819 127.701L90.3934 138.822C88.6951 140.81 85.5121 140.439 84.3288 138.119Z" fill="#B97262"/>
<path d="M92.6999 126.147C92.6369 125.842 92.5685 125.537 92.5027 125.235C91.2263 125.18 89.9388 125.348 88.6541 125.252C87.0709 125.136 85.515 124.777 83.9345 124.623C83.2251 124.554 82.5101 124.527 81.7952 124.497C78.6451 124.373 80.7954 129.126 81.2145 130.785C81.839 133.259 82.6005 135.706 83.5538 138.073C84.055 139.316 84.6084 140.541 85.2493 141.722C85.5753 142.321 86.2163 144.245 86.8928 144.424C87.4379 144.567 87.8844 144.004 88.1885 143.526C89.6868 141.159 91.6892 139.116 94.0257 137.576C94.1846 137.471 94.3572 137.353 94.4202 137.175C94.464 137.046 94.4448 136.903 94.4256 136.765C93.9052 133.218 93.4313 129.631 92.6999 126.147Z" fill="#7FC5A3"/>
<path d="M72.7008 124.183C70.1396 124.669 67.9291 125.668 66.4554 128.211C65.3981 130.034 64.957 132.168 64.5133 134.206C63.3491 139.533 62.8287 144.962 62.248 150.377C61.6919 155.558 60.21 161.023 61.8563 166.133C62.0754 166.817 62.7054 167.638 63.33 167.283C63.6532 166.152 63.9792 165.023 64.3024 163.892C64.4421 163.406 64.59 162.904 64.9132 162.516C65.1954 162.181 65.5871 161.959 65.9788 161.761C68.1455 160.655 70.5313 159.985 72.9528 159.803C75.6454 159.6 78.3408 159.996 80.9485 160.66C83.5178 161.314 85.9968 162.475 88.5826 162.959C90.2782 163.274 91.96 163.672 93.6173 164.153C93.672 164.169 93.7323 164.186 93.7843 164.167C93.8857 164.134 93.9186 164.007 93.9323 163.9C94.0774 162.758 93.9843 161.588 93.6693 160.482C93.3516 159.364 93.3707 158.139 93.2612 156.975C93.0201 154.471 92.6996 151.966 92.1847 149.503C91.0643 144.146 89.1222 138.995 88.1772 133.596C87.7691 131.265 87.5171 127.401 85.323 125.616C82.9371 123.678 77.5519 123.579 74.5223 123.919C73.9005 123.985 73.2897 124.07 72.7008 124.183Z" fill="#7FC5A3"/>
<path d="M76.6312 124.861C76.13 125.193 74.8809 125.451 73.4976 125.103C73.2182 125.031 73.0073 124.798 72.9744 124.512C72.884 123.711 72.8457 122.9 72.8621 122.093C72.8676 121.884 70.0188 120.978 69.6983 120.745C67.9151 119.449 67.6056 117.131 67.507 115.085C67.4604 114.146 67.4412 113.144 67.9151 112.334C68.4575 111.409 69.5257 110.936 70.5557 110.637C72.2485 110.143 74.029 109.956 75.7876 110.085C77.3927 110.203 79.1349 110.689 80.0114 112.043C81.2687 113.987 80.9482 117.804 79.8799 119.751C79.2609 120.877 78.2693 121.234 77.4804 122.11C76.749 122.917 76.9654 123.878 76.6312 124.861Z" fill="#736052"/>
<path d="M81.4277 109.742C81.6769 109.297 81.9207 108.86 81.7618 108.402C81.6523 108.086 81.3729 107.864 81.2167 107.57C80.836 106.848 81.2962 105.928 81.0305 105.156C80.6826 104.14 79.2199 103.723 79.1185 102.652C78.7323 102.309 78.2776 102.97 77.8448 103.253C76.8642 103.898 75.6918 102.394 74.5331 102.567C73.6511 102.698 73.0676 103.778 72.1774 103.736C71.509 103.706 70.8598 103.036 70.2709 103.349C70.0107 103.489 69.8737 103.783 69.6436 103.97C68.9123 104.568 67.4742 103.97 67.0688 104.821C66.8305 105.321 66.9318 105.763 66.4169 106.098C65.9676 106.392 65.0774 105.909 64.8007 106.554C64.7405 106.694 64.7487 106.856 64.7597 107.01C64.8665 108.561 64.9733 110.115 65.0774 111.667C65.1075 112.092 65.1431 112.54 65.3924 112.886C65.5677 113.13 65.8389 113.303 65.9567 113.581C66.1019 113.921 65.9759 114.322 66.0635 114.682C66.206 115.267 68.0987 118.263 68.663 117.269C68.8657 116.912 68.7945 116.467 68.726 116.063C68.6247 115.47 68.5534 114.819 68.8575 114.3C69.3369 113.479 70.4599 113.397 71.4077 113.336C72.2897 113.281 73.1909 113.158 73.9743 112.743C74.5167 112.455 75.2398 112.054 75.6534 112.507C75.7603 112.625 75.8205 112.787 75.9465 112.883C76.1711 113.059 76.4998 112.963 76.7464 112.815C76.9902 112.669 77.2285 112.471 77.5106 112.46C77.7955 112.449 78.0968 112.765 77.9407 113.004C78.0393 113.29 78.4502 112.916 78.7515 112.935C79.0007 112.952 79.113 113.251 79.1651 113.498C79.324 114.237 79.4801 114.976 79.639 115.712C80.2443 115.797 80.8333 115.36 81.0825 114.8C81.7235 113.347 80.7319 111.952 81.0633 110.566C81.1291 110.28 81.2797 110.008 81.4277 109.742Z" fill="#1A1A1A"/>
<path d="M91.4411 118.984C100.989 109.412 100.989 93.8933 91.4411 84.3215C81.8929 74.7497 66.4121 74.7497 56.8638 84.3215C47.3156 93.8933 47.3156 109.412 56.8638 118.984C66.4121 128.556 81.8929 128.556 91.4411 118.984Z" fill="#EBB044"/>
<g opacity="0.08">
<g opacity="0.08">
<path opacity="0.08" d="M85.8984 80.1245C88.5171 83.8096 90.1524 88.2635 90.3907 93.1184C91.0591 106.637 80.6666 118.14 67.1788 118.81C62.4947 119.043 58.0545 117.936 54.2251 115.827C58.9009 122.404 66.7158 126.528 75.3607 126.1C88.8458 125.43 99.2383 113.93 98.5727 100.409C98.1344 91.5889 93.097 84.0869 85.8984 80.1245Z" fill="black"/>
</g>
</g>
<path opacity="0.2" d="M53.1811 105.28C52.562 92.7281 62.2095 82.0491 74.7304 81.4285C82.0495 81.066 88.7276 84.2211 93.1405 89.411C88.8893 82.7932 81.3263 78.57 72.9197 78.9873C60.3989 79.6079 50.7514 90.287 51.3705 102.839C51.628 108.053 53.6194 112.771 56.753 116.459C54.6712 113.218 53.3838 109.404 53.1811 105.28Z" fill="white"/>
<path d="M64.2694 104.67C63.6093 104.088 62.6368 104.816 63.0012 105.618C65.0282 110.047 69.5944 113.021 74.7468 112.765C79.8143 112.513 84.008 109.212 85.6488 104.72C85.9474 103.901 84.8983 103.256 84.3039 103.893C80.9018 107.543 73.558 112.861 64.2694 104.67Z" fill="#1C222D"/>
<path d="M80.1374 94.8815C80.7428 93.1159 82.337 91.9159 84.1969 91.8225C86.0184 91.7319 87.7058 92.7369 88.5001 94.3818C88.6508 94.6976 88.5631 95.0655 88.2837 95.277C88.0043 95.4884 87.6263 95.4774 87.3634 95.2467C85.9445 93.9973 83.7504 93.0472 81.3591 95.6175C81.2249 95.763 81.0468 95.8426 80.8605 95.8509C80.7209 95.8591 80.5784 95.8234 80.4497 95.7465C80.1538 95.5653 80.0251 95.2111 80.1374 94.8815Z" fill="#1C222D"/>
<path d="M59.1579 95.9221C59.7633 94.1564 61.3575 92.9564 63.2174 92.8631C65.039 92.7725 66.7263 93.7775 67.5207 95.4223C67.6741 95.7381 67.5837 96.1061 67.3043 96.3175C67.0249 96.5317 66.6469 96.5179 66.3839 96.2873C64.965 95.0379 62.7709 94.0878 60.3796 96.658C60.2454 96.8035 60.0673 96.8832 59.8811 96.8914C59.7414 96.8996 59.5989 96.8639 59.4702 96.7871C59.1743 96.6058 59.0456 96.2516 59.1579 95.9221Z" fill="#1C222D"/>
<path d="M58.6656 109.553C60.6511 108.28 61.2312 105.635 59.9613 103.644C58.6913 101.654 56.0523 101.072 54.0668 102.345C52.0813 103.618 51.5012 106.264 52.7711 108.254C54.041 110.245 56.6801 110.826 58.6656 109.553Z" fill="#D34E4E"/>
<path d="M96.5376 103.956C96.6554 106.318 94.8393 108.325 92.4863 108.44C90.1306 108.559 88.1283 106.738 88.0132 104.379C87.8954 102.018 89.7115 100.01 92.0645 99.8951C94.4175 99.777 96.4226 101.598 96.5376 103.956Z" fill="#D34E4E"/>
<path d="M72.0875 178.487C71.3835 178.641 70.6932 178.487 69.992 178.512C69.6605 176.063 69.5784 173.682 69.7427 171.191C70.9945 172.227 71.7944 171.397 72.0902 173.646C72.1888 174.374 71.7834 177.403 72.0875 178.487Z" fill="#B97262"/>
<path d="M69.6551 177.32C68.8032 177.15 68.9073 179.116 68.9703 179.572C69.0086 179.847 69.0799 180.121 69.0525 180.396C69.0196 180.698 68.8635 180.973 68.7128 181.236C68.3951 181.788 68.0746 182.34 67.7568 182.895C67.6144 183.142 67.4692 183.397 67.4144 183.68C67.2802 184.378 67.7815 185.108 68.4553 185.33C70.7919 186.105 72.3806 183.145 72.5888 181.316C72.6216 181.036 72.6326 180.753 72.6436 180.47C72.6682 179.888 72.912 178.586 72.6052 178.065C72.2464 177.458 71.5232 178.045 70.9672 177.878C70.4494 177.727 70.0002 177.392 69.6551 177.32Z" fill="#3B455A"/>
<path d="M75.4509 143.498C75.6591 143.732 75.8509 143.976 76.0262 144.231C77.4232 146.263 77.919 148.809 77.8642 151.278C77.8094 153.743 77.2424 156.168 76.6808 158.571C76.0015 161.47 75.125 164.362 74.9825 167.314C74.9058 168.882 74.6456 170.458 74.4703 172.018C74.3142 173.41 74.1471 174.802 74.043 176.2C74.0074 176.691 73.9252 176.719 73.4048 176.801C72.7638 176.9 72.1146 176.944 71.4654 176.933C70.1944 176.911 68.9262 176.675 67.7346 176.233C66.8855 175.917 67.1402 174.28 67.0663 173.542C66.8526 171.392 66.6882 169.239 66.5266 167.086C66.2061 162.783 65.8117 158.48 65.6857 154.166C65.5761 150.432 64.9817 146.755 67.5949 143.704C68.5783 142.556 69.9342 141.628 71.4435 141.562C72.9829 141.491 74.4101 142.334 75.4509 143.498Z" fill="#3B455A"/>
<path d="M82.1323 177.312C82.8609 177.436 83.5594 177.244 84.2771 177.235C84.4962 174.715 84.4661 172.273 84.173 169.733C82.9431 170.854 82.0857 170.044 81.8912 172.359C81.8282 173.108 82.3897 176.189 82.1323 177.312Z" fill="#B97262"/>
<path d="M84.5643 175.999C85.4272 175.785 85.4162 177.801 85.3751 178.27C85.3505 178.553 85.2875 178.836 85.334 179.116C85.3833 179.423 85.5559 179.695 85.723 179.959C86.0763 180.508 86.4297 181.057 86.7803 181.607C86.9392 181.854 87.1008 182.106 87.1693 182.392C87.3419 183.1 86.8625 183.869 86.1832 184.13C83.8302 185.039 82.0607 182.087 81.7566 180.225C81.7101 179.94 81.6854 179.651 81.658 179.363C81.6032 178.767 81.291 177.449 81.5786 176.903C81.9155 176.263 82.6852 176.829 83.2468 176.631C83.7699 176.452 84.2137 176.087 84.5643 175.999Z" fill="#3B455A"/>
<path d="M77.6808 143.539C77.4891 143.776 77.3137 144.023 77.1576 144.278C75.8948 146.316 75.5333 148.812 75.7004 151.203C75.8674 153.595 76.5303 155.921 77.1877 158.228C77.9821 161.009 78.9655 163.777 79.2421 166.636C79.3134 167.383 80.7542 175.763 80.598 175.771C81.6088 175.722 82.6141 175.999 83.6358 175.89C84.737 175.769 85.8381 175.697 86.9366 175.535C86.9092 174.937 87.1146 174.539 87.1803 173.973C87.2461 173.421 87.1858 172.866 87.2132 172.312C87.32 170.216 87.3803 168.116 87.4378 166.018C87.5501 161.825 87.7309 157.632 87.6542 153.436C87.5857 149.806 87.9939 146.209 85.3149 143.369C84.3069 142.301 82.9455 141.464 81.4801 141.472C79.9845 141.477 78.6368 142.361 77.6808 143.539Z" fill="#3B455A"/>
</g>
<defs>
<clipPath id="clip0">
<rect width="269" height="192" fill="white"/>
</clipPath>
</defs>
</svg>
