<svg width="388" height="394" viewBox="0 0 388 394" fill="none" xmlns="http://www.w3.org/2000/svg">
<g opacity="0.25" clip-path="url(#clip0)">
<path d="M343.142 278.804C335.195 283.882 327.676 287.157 321.735 289.744C251.903 320.157 169.273 311.292 151.712 309.127C125.78 305.93 75.653 299.75 39.4124 273.882C-15.4161 234.745 -6.87953 173.086 35.6497 132.384C43.4289 124.939 84.5211 83.6168 168.041 76.9903C218.586 72.9797 277.505 81.0684 320.173 102.766C409.738 148.312 403.362 240.323 343.142 278.804Z" fill="url(#paint0_linear)"/>
<path d="M4.8424 26.8524C4.42396 25.0738 6.92895 23.8918 8.46181 25.1343C24.0342 37.7465 61.4498 75.5142 52.1258 141.515C40.4265 224.324 60.4284 254.539 85.3247 272.97C85.3247 272.97 51.134 264.302 29.6218 233.642C-23.1943 158.364 12.2785 58.4681 4.8424 26.8524Z" fill="#BDD0FB"/>
<path d="M16.6942 52.717C18.6427 61.9352 20.3784 71.1829 21.7196 80.4714C23.1173 89.7515 24.1894 99.0654 24.922 108.393C25.6138 117.723 26.1027 127.063 26.1294 136.407C26.2055 145.75 25.8167 155.085 25.3884 164.458C25.0206 173.827 24.5881 183.263 25.2757 192.766C25.9505 202.25 27.9497 211.815 31.9157 220.783C32.9076 223.018 33.9501 225.247 35.1336 227.4C36.272 229.572 37.523 231.703 38.8164 233.812C41.4299 238.021 44.3716 242.089 47.6501 245.948C54.2309 253.655 62.1671 260.493 70.9092 266.279C71.8292 266.888 73.148 266.738 73.8538 265.944C74.547 265.164 74.392 264.054 73.5157 263.438L73.51 263.434C71.4291 261.974 69.3722 260.497 67.3969 258.945C66.3952 258.182 65.4343 257.383 64.4566 256.599C63.514 255.784 62.5349 255.002 61.6233 254.163C57.9109 250.864 54.4719 247.343 51.3512 243.62C45.0746 236.208 40.0506 227.95 36.2438 219.389C34.3953 215.088 32.9188 210.677 31.841 206.184C30.7661 201.69 30.0912 197.116 29.7164 192.508C28.9683 183.284 29.3065 173.942 29.5953 164.571C29.8714 155.198 30.0729 145.778 29.8249 136.365C29.7164 131.659 29.5093 126.955 29.2036 122.257C29.0669 119.907 28.8782 117.559 28.6936 115.212C28.4837 112.867 28.2568 110.522 28.0103 108.181C26.9987 98.8135 25.6575 89.4771 23.9753 80.1914C22.2423 70.9113 20.2234 61.6748 17.7959 52.5214C17.7269 52.2597 17.424 52.0964 17.1211 52.1555C16.828 52.2146 16.6406 52.4637 16.6942 52.717Z" fill="#BDD0FB"/>
<path d="M45.1827 225.062C43.2736 227.086 39.9149 226.503 38.7666 223.972C32.4295 209.998 18.0871 168.868 41.7732 121.484C61.7751 81.4692 68.8138 57.8742 71.2653 46.9421C71.7837 44.6302 74.9565 44.3234 75.9132 46.4904C86.4769 70.4048 114.369 151.746 45.1827 225.062Z" fill="#91B3FA"/>
<path d="M41.7144 223.588C41.6467 223.601 41.5763 223.606 41.5045 223.605C40.9043 223.595 40.4253 223.102 40.4337 222.503C40.4436 221.823 41.7679 153.898 67.0629 97.007C67.3066 96.4596 67.9491 96.2119 68.4972 96.4553C69.0452 96.6988 69.2932 97.3404 69.0494 97.8878C43.9404 154.364 42.6189 221.86 42.6076 222.535C42.6006 223.063 42.2159 223.498 41.7144 223.588Z" fill="white"/>
<path d="M358.139 360.941C353.112 309.881 340.531 183.062 337.784 164.527C334.332 141.231 305.978 146.372 305.978 146.372L299.907 382.131H339.44C344.753 382.131 349.82 379.824 353.381 375.782C356.942 371.738 358.672 366.362 358.139 360.941Z" fill="url(#paint1_linear)"/>
<path d="M38.2992 388.073C25.9546 387.81 16.1586 377.519 16.4207 365.089L20.4529 173.693C20.6755 163.134 29.0766 154.603 39.5615 154.29L315.456 146.049C323.661 145.804 330.436 152.447 330.412 160.713L329.75 380.161C329.726 387.927 323.38 394.163 315.67 393.997L38.2992 388.073Z" fill="url(#paint2_linear)"/>
<path d="M20.5189 372.006C16.5684 371.944 13.5858 368.383 14.1987 364.453C18.269 338.391 31.0503 248.746 26.9505 174.316C26.7631 170.921 29.3752 168.035 32.7508 167.927L309.887 159.025C313.687 158.903 316.871 161.89 317.016 165.716C318.194 197.008 322.584 325.872 316.842 371.679C316.492 374.466 314.111 376.537 311.32 376.494L20.5189 372.006Z" fill="url(#paint3_linear)"/>
<path d="M27.5211 369.075C23.7199 369.016 20.8486 365.588 21.439 361.806C25.3557 336.725 37.6566 250.456 33.7103 178.828C33.53 175.562 36.0434 172.785 39.2909 172.679L305.992 164.112C309.649 163.996 312.714 166.87 312.852 170.551C313.986 200.666 318.21 324.676 312.684 368.757C312.347 371.441 310.057 373.433 307.371 373.392L27.5211 369.075Z" fill="#BDD0FB"/>
<path opacity="0.72" d="M191.441 218.187L191.034 237.527C190.972 240.479 193.322 242.911 196.255 242.928L215.957 243.04C218.825 243.057 221.177 240.752 221.237 237.865L221.666 217.533C221.73 214.477 219.216 212.003 216.182 212.138L196.461 213.019C193.695 213.14 191.5 215.401 191.441 218.187Z" fill="white"/>
<path opacity="0.72" d="M122.56 242.763L142.262 242.876C145.13 242.891 147.482 240.588 147.542 237.7L147.907 220.408C147.97 217.37 145.484 214.901 142.467 215.011L122.749 215.725C119.966 215.825 117.746 218.094 117.687 220.897L117.34 237.365C117.278 240.316 119.628 242.748 122.56 242.763Z" fill="white"/>
<path opacity="0.72" d="M139.822 328.908L121.081 328.725C117.942 328.694 115.362 331.213 115.296 334.374L114.924 352.045C114.858 355.184 117.297 357.8 120.412 357.932L139.14 358.73C142.35 358.866 145.045 356.321 145.112 353.087L145.498 334.801C145.565 331.589 143.013 328.939 139.822 328.908Z" fill="white"/>
<path opacity="0.72" d="M108.294 351.618L108.657 334.341C108.724 331.184 106.216 328.58 103.081 328.549L84.1443 328.365C81.0588 328.336 78.5229 330.811 78.4581 333.916L78.1072 350.573C78.0424 353.657 80.4389 356.23 83.5004 356.359L102.424 357.165C105.578 357.299 108.226 354.797 108.294 351.618Z" fill="white"/>
<path opacity="0.72" d="M109.936 273.619L110.235 259.436C110.306 256.011 107.566 253.197 104.164 253.204L86.0793 253.237C82.7854 253.242 80.1 255.895 80.0296 259.211L79.7436 272.765C79.6731 276.108 82.2866 278.884 85.6059 278.994L103.676 279.589C107.051 279.701 109.864 277.016 109.936 273.619Z" fill="white"/>
<path opacity="0.72" d="M109.069 314.834L109.525 293.141C109.591 290.036 107.162 287.455 104.078 287.352L85.584 286.743C82.2111 286.632 79.3962 289.315 79.3257 292.714L78.865 314.592C78.7988 317.771 81.339 320.384 84.4963 320.384L103.437 320.385C106.5 320.385 109.004 317.918 109.069 314.834Z" fill="white"/>
<path opacity="0.72" d="M159.405 242.974L179.107 243.087C181.975 243.104 184.327 240.799 184.387 237.911L184.784 219.075C184.849 216.037 182.361 213.569 179.346 213.679L159.627 214.392C156.845 214.494 154.625 216.762 154.565 219.565L154.186 237.575C154.122 240.526 156.473 242.957 159.405 242.974Z" fill="white"/>
<path opacity="0.72" d="M145.919 314.741L146.346 294.452C146.412 291.291 143.941 288.665 140.803 288.561L122.072 287.944C118.883 287.838 116.223 290.377 116.155 293.589L115.714 314.494C115.647 317.727 118.23 320.387 121.443 320.387L140.188 320.388C143.307 320.389 145.853 317.879 145.919 314.741Z" fill="white"/>
<path opacity="0.72" d="M179.62 253.066L158.105 253.106C155.744 253.11 153.816 255.012 153.767 257.389L153.355 276.897C153.305 279.295 155.18 281.286 157.56 281.365L179.058 282.073C181.477 282.153 183.494 280.228 183.546 277.792L183.973 257.535C184.025 255.078 182.06 253.061 179.62 253.066Z" fill="white"/>
<path opacity="0.72" d="M190.593 258.42L190.201 277C190.138 280.013 192.494 282.516 195.485 282.615L214.753 283.249C217.793 283.349 220.329 280.93 220.394 277.868L220.8 258.619C220.864 255.531 218.395 252.996 215.327 253.001L196.045 253.037C193.077 253.041 190.657 255.431 190.593 258.42Z" fill="white"/>
<path opacity="0.72" d="M120.735 280.151L142.235 280.86C144.654 280.94 146.671 279.015 146.722 276.578L147.122 257.601C147.174 255.146 145.209 253.128 142.769 253.132L121.254 253.172C118.893 253.176 116.967 255.078 116.916 257.455L116.533 275.683C116.482 278.081 118.356 280.072 120.735 280.151Z" fill="white"/>
<path opacity="0.72" d="M177.627 289.776L158.896 289.158C155.707 289.052 153.047 291.591 152.979 294.803L152.565 314.498C152.497 317.731 155.081 320.391 158.293 320.391L177.037 320.394C180.155 320.394 182.701 317.885 182.767 314.745L183.168 295.666C183.236 292.506 180.765 289.878 177.627 289.776Z" fill="white"/>
<path opacity="0.72" d="M215.1 291.011L195.057 290.351C192.232 290.258 189.877 292.506 189.818 295.349L189.399 315.177C189.339 318.041 191.628 320.395 194.473 320.395L214.529 320.398C217.291 320.398 219.545 318.176 219.604 315.397L220.009 296.227C220.066 293.427 217.878 291.103 215.1 291.011Z" fill="white"/>
<path opacity="0.72" d="M88.4707 242.314L103.423 242.399C107.4 242.421 110.661 239.227 110.744 235.222L111.006 222.801C111.085 219.048 108.013 216.001 104.287 216.136L87.645 216.738C83.8692 216.874 80.8556 219.955 80.7753 223.758L80.557 234.132C80.464 238.604 84.027 242.289 88.4707 242.314Z" fill="white"/>
<path opacity="0.72" d="M71.8066 334.417C71.8785 331.019 69.1805 328.218 65.8048 328.185L59.2916 328.122C54.3408 328.074 50.293 331.368 50.2057 335.518L49.9521 347.525C49.8662 351.641 53.7082 355.088 58.6139 355.298L65.6076 355.596C68.762 355.731 71.4107 353.228 71.4769 350.051L71.8066 334.417Z" fill="white"/>
<path opacity="0.72" d="M281.262 330.289L268.451 330.163C265.309 330.133 262.726 332.653 262.66 335.816L262.187 358.315C262.121 361.456 264.561 364.074 267.679 364.208L280.43 364.751C285.515 364.968 289.781 361.63 289.871 357.365L290.279 338.07C290.367 333.84 286.31 330.339 281.262 330.289Z" fill="white"/>
<path opacity="0.72" d="M59.8085 320.38L66.1668 320.381C69.465 320.381 72.1574 317.727 72.2278 314.408L72.6928 292.355C72.7632 289.013 70.1497 286.235 66.8304 286.125L60.4299 285.914C55.3832 285.748 51.1834 289.073 51.0932 293.305L50.6874 312.598C50.5987 316.863 54.7197 320.38 59.8085 320.38Z" fill="white"/>
<path opacity="0.72" d="M60.3437 278.161L68.3475 278.424C70.899 278.509 73.0264 276.478 73.0813 273.909L73.4166 257.981C73.4716 255.391 71.3977 253.263 68.8251 253.267L60.7424 253.283C55.8409 253.291 51.8678 256.57 51.7819 260.679L51.5776 270.385C51.4903 274.534 55.3957 277.998 60.3437 278.161Z" fill="white"/>
<path opacity="0.72" d="M283.307 209.661L270.461 210.126C267.567 210.23 265.257 212.591 265.195 215.507L264.727 237.73C264.662 240.8 267.108 243.33 270.158 243.347L283.386 243.422C288.32 243.45 292.341 240.161 292.428 236.026L292.82 217.436C292.911 213.043 288.544 209.471 283.307 209.661Z" fill="white"/>
<path opacity="0.72" d="M176.664 329.267L157.923 329.084C154.784 329.053 152.204 331.572 152.136 334.733L151.739 353.612C151.673 356.751 154.112 359.367 157.227 359.5L175.954 360.297C179.163 360.434 181.858 357.888 181.926 354.655L182.337 335.16C182.405 331.948 179.855 329.3 176.664 329.267Z" fill="white"/>
<path opacity="0.72" d="M282.768 252.878L269.747 252.902C266.779 252.907 264.358 255.298 264.295 258.285L263.85 279.426C263.786 282.439 266.142 284.942 269.133 285.041L282.206 285.471C287.251 285.637 291.452 282.312 291.541 278.081L291.908 260.659C291.999 256.388 287.865 252.869 282.768 252.878Z" fill="white"/>
<path opacity="0.72" d="M282.293 293.225L268.703 292.777C265.878 292.684 263.522 294.931 263.463 297.775L263.097 315.184C263.036 318.048 265.326 320.402 268.17 320.402L281.825 320.403C286.735 320.403 290.719 317.123 290.807 313.008L291.06 301C291.146 296.852 287.241 293.388 282.293 293.225Z" fill="white"/>
<path opacity="0.72" d="M226.64 296.562L226.247 315.18C226.186 318.044 228.476 320.398 231.32 320.399L251.377 320.402C254.138 320.402 256.393 318.18 256.452 315.4L256.831 297.439C256.89 294.64 254.702 292.316 251.922 292.224L231.879 291.564C229.056 291.47 226.699 293.717 226.64 296.562Z" fill="white"/>
<path opacity="0.72" d="M250.341 329.988L231.61 329.805C228.469 329.774 225.886 332.294 225.82 335.457L225.372 356.746C225.306 359.887 227.746 362.505 230.864 362.639L249.582 363.437C252.794 363.575 255.491 361.026 255.56 357.788L256.022 335.885C256.088 332.67 253.535 330.019 250.341 329.988Z" fill="white"/>
<path opacity="0.72" d="M61.3965 242.159L69.2355 242.204C71.7391 242.218 73.7918 240.208 73.8454 237.686L74.1736 222.108C74.23 219.455 72.0589 217.301 69.4257 217.396L61.1232 217.696C56.371 217.868 52.6164 221.097 52.5332 225.085L52.3374 234.378C52.2472 238.622 56.3302 242.13 61.3965 242.159Z" fill="white"/>
<path opacity="0.72" d="M213.5 329.627L195.085 329.447C191.768 329.415 189.044 332.076 188.973 335.414L188.557 355.176C188.491 358.318 190.931 360.935 194.049 361.069L212.768 361.866C215.98 362.003 218.677 359.455 218.746 356.218L219.182 335.523C219.247 332.311 216.693 329.658 213.5 329.627Z" fill="white"/>
<path opacity="0.72" d="M228.319 216.841L227.884 237.52C227.819 240.59 230.265 243.121 233.315 243.137L252.592 243.247C255.576 243.264 258.022 240.868 258.085 237.863L258.538 216.376C258.604 213.216 256.017 210.649 252.88 210.762L233.585 211.46C230.69 211.564 228.379 213.925 228.319 216.841Z" fill="white"/>
<path opacity="0.72" d="M227.444 258.353L227.025 278.213C226.962 281.226 229.317 283.729 232.308 283.828L251.576 284.462C254.617 284.562 257.153 282.143 257.218 279.081L257.65 258.551C257.715 255.464 255.245 252.928 252.178 252.934L232.896 252.969C229.927 252.973 227.507 255.364 227.444 258.353Z" fill="white"/>
<path d="M59.2574 200.943L60.145 207.492C60.4295 209.588 62.1864 211.166 64.2871 211.211L64.5942 211.218C66.9527 211.268 68.9068 209.383 68.9561 207.008L69.097 200.304C69.1519 197.706 66.9231 195.652 64.3575 195.938L63.0219 196.085C60.6352 196.35 58.9333 198.545 59.2574 200.943Z" fill="white"/>
<path d="M89.4481 199.257L90.3357 205.806C90.6203 207.903 92.3772 209.48 94.4778 209.525L94.785 209.532C97.1448 209.583 99.0976 207.697 99.1469 205.322L99.2878 198.618C99.3427 196.021 97.1139 193.966 94.5483 194.25L93.2126 194.398C90.8246 194.664 89.1227 196.861 89.4481 199.257Z" fill="white"/>
<path d="M126.592 199.772L127.48 206.321C127.765 208.417 129.521 209.995 131.622 210.04L131.929 210.047C134.288 210.098 136.242 208.212 136.291 205.837L136.432 199.133C136.487 196.536 134.258 194.483 131.692 194.767L130.357 194.915C127.97 195.179 126.268 197.374 126.592 199.772Z" fill="white"/>
<path d="M162.782 198.14L163.67 204.689C163.954 206.785 165.711 208.363 167.812 208.408L168.119 208.413C170.477 208.464 172.431 206.578 172.481 204.204L172.622 197.501C172.677 194.903 170.448 192.849 167.884 193.133L166.548 193.281C164.16 193.547 162.457 195.743 162.782 198.14Z" fill="white"/>
<path d="M199.953 193.381L200.84 199.93C201.125 202.026 202.882 203.604 204.982 203.649L205.289 203.656C207.648 203.706 209.602 201.821 209.651 199.446L209.792 192.742C209.847 190.144 207.618 188.09 205.053 188.374L203.717 188.522C201.329 188.788 199.627 190.984 199.953 193.381Z" fill="white"/>
<path d="M239.329 194.222L240.217 200.771C240.501 202.868 242.258 204.445 244.359 204.49L244.666 204.497C247.024 204.548 248.978 202.662 249.028 200.287L249.168 193.583C249.223 190.986 246.995 188.931 244.429 189.216L243.093 189.363C240.705 189.629 239.004 191.824 239.329 194.222Z" fill="white"/>
<path d="M272.565 193.522L273.453 200.07C273.737 202.167 275.494 203.744 277.595 203.789L277.902 203.797C280.26 203.847 282.215 201.962 282.264 199.586L282.405 192.883C282.46 190.285 280.231 188.231 277.665 188.516L276.33 188.664C273.943 188.929 272.241 191.124 272.565 193.522Z" fill="white"/>
<path d="M259.31 268.149C259.229 266.734 257.761 266.127 256.679 266.986C253.624 269.409 252.381 273.171 250.877 276.681C249.123 280.77 247.44 284.891 245.947 289.086C244.372 293.507 243.029 298.009 242.008 302.579C239.98 297.12 237.625 291.803 234.636 286.757C233.843 285.418 231.603 286.202 232.047 287.792C234.631 297.041 237.811 306.101 240.244 315.397C241.103 318.677 245.558 317.902 245.889 314.75C246.795 306.141 248.861 297.906 251.791 289.776C253.184 285.91 254.74 282.105 256.352 278.327C257.78 274.981 259.526 271.863 259.31 268.149Z" fill="url(#paint4_linear)"/>
<path d="M263.507 275.009C260.85 274.508 259.883 277.933 262.319 279.012C278.444 286.155 280.552 306.283 268.903 318.472C263.516 324.109 256.367 328.483 249.597 332.245C242.732 336.059 235.067 338.974 227.1 338.167C208.633 336.3 206.122 317.374 211.643 302.771C216.953 288.724 228.327 277.881 242.251 272.683C244.05 272.012 243.353 269.064 241.509 269.729C228.444 274.446 217.324 283.752 210.436 295.929C204.099 307.13 200.298 322.929 208.593 334.172C217.176 345.807 233.467 346.016 245.743 341.165C259.244 335.83 276.056 325.931 281.431 311.568C287.064 296.521 280.114 278.137 263.507 275.009Z" fill="url(#paint5_linear)"/>
<path d="M330.412 378.496C330.028 378.496 329.715 378.184 329.713 377.797L328.864 254.23C328.861 253.842 329.172 253.524 329.558 253.521C329.56 253.521 329.561 253.521 329.563 253.521C329.947 253.521 330.259 253.833 330.261 254.22L331.111 377.787C331.114 378.175 330.802 378.493 330.416 378.496C330.415 378.496 330.414 378.496 330.412 378.496Z" fill="#91B3FA"/>
<path d="M329.367 226.557C328.982 226.557 328.671 226.245 328.668 225.858L328.371 182.701C328.368 182.312 328.679 181.994 329.065 181.991C329.067 181.991 329.068 181.991 329.069 181.991C329.454 181.991 329.765 182.304 329.768 182.691L330.066 225.848C330.068 226.238 329.757 226.554 329.371 226.557C329.37 226.556 329.368 226.557 329.367 226.557Z" fill="#91B3FA"/>
<path d="M66.6966 190.323C70.826 190.323 74.1735 186.952 74.1735 182.793C74.1735 178.635 70.826 175.264 66.6966 175.264C62.5672 175.264 59.2197 178.635 59.2197 182.793C59.2197 186.952 62.5672 190.323 66.6966 190.323Z" fill="#91B3FA"/>
<path d="M127.963 189.745C132.093 189.745 135.44 186.374 135.44 182.215C135.44 178.057 132.093 174.686 127.963 174.686C123.834 174.686 120.486 178.057 120.486 182.215C120.486 186.374 123.834 189.745 127.963 189.745Z" fill="#91B3FA"/>
<path d="M189.806 187.717C193.936 187.717 197.283 184.346 197.283 180.187C197.283 176.029 193.936 172.658 189.806 172.658C185.677 172.658 182.329 176.029 182.329 180.187C182.329 184.346 185.677 187.717 189.806 187.717Z" fill="#91B3FA"/>
<path d="M251.073 184.821C255.202 184.821 258.55 181.45 258.55 177.292C258.55 173.133 255.202 169.762 251.073 169.762C246.943 169.762 243.596 173.133 243.596 177.292C243.596 181.45 246.943 184.821 251.073 184.821Z" fill="#91B3FA"/>
<path d="M273.84 147.388C271.198 141.733 266.073 135.198 256.76 136.849C244.177 139.079 245.364 165.978 246.377 176.897C246.615 179.467 249.249 181.45 252.421 181.45C253.301 181.45 254.14 181.141 254.728 180.609C255.316 180.078 255.598 179.364 255.503 178.654C254.416 170.399 252.104 146.631 261.367 145.361C261.367 145.361 263.721 145.023 265.863 146.954C268.523 146.917 271.181 147.196 273.84 147.388Z" fill="url(#paint6_linear)"/>
<path d="M213.059 149.849C210.582 143.994 205.413 136.473 195.493 138.232C182.91 140.462 184.096 167.37 185.109 178.291C185.347 180.86 187.982 182.847 191.153 182.847C192.034 182.847 192.872 182.542 193.461 182.008C194.05 181.476 194.33 180.764 194.236 180.054C193.15 171.801 190.836 148.013 200.1 146.742C200.1 146.742 203.574 146.355 205.921 150.008C208.299 150.044 210.69 149.972 213.059 149.849Z" fill="url(#paint7_linear)"/>
<path d="M152.049 151.859C149.682 145.935 144.505 137.8 134.225 139.621C121.643 141.851 122.829 168.766 123.842 179.685C124.08 182.255 126.715 184.246 129.886 184.246C130.767 184.246 131.605 183.942 132.194 183.41C132.783 182.878 133.063 182.167 132.969 181.455C131.881 173.201 129.569 149.402 138.832 148.131C138.832 148.131 142.415 147.809 144.761 151.713C147.172 151.901 149.636 152.004 152.049 151.859Z" fill="url(#paint8_linear)"/>
<path d="M72.9588 141.229C60.3761 143.46 61.5624 170.388 62.5754 181.309C62.8135 183.878 65.4481 185.876 68.6195 185.876C69.5 185.876 70.3383 185.575 70.9272 185.043C71.5147 184.512 71.7965 183.802 71.7021 183.092C70.6145 174.837 68.3025 151.01 77.5659 149.74C77.5659 149.74 80.8852 149.351 83.2268 152.735C85.705 152.826 88.1832 153.16 90.66 153.148C88.2396 147.26 83.0633 139.438 72.9588 141.229Z" fill="url(#paint9_linear)"/>
<path d="M359.948 185.105C359.89 185.083 328.931 130.935 324.748 125.839C324.044 124.982 322.955 124.546 321.853 124.677L313.212 125.706L303.062 147.64L319.974 137.803C318.3 149.363 340.026 166.541 347.476 172.81C348.233 173.446 348.295 174.586 347.612 175.299L344.638 178.409C349.521 183.353 355.156 186.528 361.517 187.996L359.948 185.105Z" fill="url(#paint10_linear)"/>
<path d="M346.359 176.73C346.359 176.73 344.459 177.342 343.817 179.031C343.51 179.838 343.841 180.755 344.544 181.257C347.67 183.494 357.982 190.716 362.74 192.13C363.13 192.245 363.5 191.893 363.413 191.497C363.169 190.392 362.379 188.188 359.835 184.96L360.063 185.422C360.352 186.006 359.715 186.614 359.147 186.293C355.966 184.499 349.484 180.572 346.359 176.73Z" fill="url(#paint11_linear)"/>
<path d="M347.89 198.396C347.838 198.362 343.193 187.185 343.142 187.153C338.883 161.256 328.493 139.076 325.428 133.241C324.913 132.259 323.935 131.611 322.829 131.517L314.159 130.778L299.772 150.207L318.327 143.991C314.346 154.973 332.142 176.188 338.169 183.832C338.78 184.607 338.61 185.736 337.797 186.297L334.253 188.741C338.035 194.57 342.91 198.818 348.841 201.542L347.89 198.396Z" fill="url(#paint12_linear)"/>
<path d="M336.278 187.445C336.278 187.445 334.294 187.662 333.323 189.186C332.858 189.915 332.998 190.879 333.584 191.513C336.192 194.336 344.827 203.492 349.2 205.84C349.558 206.032 349.993 205.762 349.988 205.356C349.972 204.226 349.645 201.907 347.807 198.231L347.936 198.729C348.101 199.36 347.354 199.825 346.864 199.398C344.113 196.996 338.56 191.84 336.278 187.445Z" fill="url(#paint13_linear)"/>
<path d="M273.571 126.686C273.571 126.686 265.728 138.339 265.084 143.654C264.44 148.969 267.252 150.808 275.463 151.485C299.895 153.501 311.938 146.188 311.938 146.188C313.609 135.546 314.798 132.839 328.756 127.051C328.756 127.051 311.101 128.451 307.549 127.073C303.995 125.697 273.571 126.686 273.571 126.686Z" fill="url(#paint14_linear)"/>
<path d="M304.85 61.4035C304.85 61.4035 299.386 54.9475 293.579 62.8683C292.526 64.3022 288.487 63.1188 287.005 66.1216C286.24 67.6723 284.589 68.5532 282.887 68.2394C278.649 67.4584 271.721 67.3923 268.3 74.0256C265.69 79.0885 267.706 82.0519 270.315 83.7405C272.231 84.9816 272.916 87.5004 271.756 89.4661C270.645 91.3517 270.436 93.9043 273.306 96.9775C279.739 103.864 292.473 92.6069 292.473 92.6069L302.583 68.7445L304.85 61.4035Z" fill="url(#paint15_linear)"/>
<path d="M294.785 125.143C294.785 125.143 303.918 116.457 308.414 110.703C310.844 107.593 311.608 103.498 310.484 99.7158C308.431 92.8081 304.783 85.6542 304.451 84.5412C303.941 82.8343 293.7 82.9061 293.7 82.9061C293.7 82.9061 273.546 95.97 265.628 118.099L274.521 120.864C274.521 120.864 279.783 112.047 284.982 106.441C284.982 106.441 275.985 118.311 275.669 123.17L294.785 125.143Z" fill="url(#paint16_linear)"/>
<path d="M312.187 128.572L305.325 121.114L297.398 123.246C297.398 123.246 288.157 124.676 282.868 123.246C277.579 121.816 277.579 121.816 277.579 121.816L265.628 118.1L263.751 123.398C263.275 124.743 263.754 126.236 264.918 127.064C265.952 127.798 267.164 128.604 267.937 128.942C269.511 129.63 304.195 129.16 304.195 129.16L312.187 128.572Z" fill="url(#paint17_linear)"/>
<path d="M300.737 70.6076L293.854 83.3915C294.309 86.1818 301.346 86.2606 302.432 84.5946C302.544 84.4257 302.606 84.2287 302.648 84.0303L306.766 75.4889C306.942 74.6559 304.657 71.8487 303.905 71.449L301.168 69.9941C300.116 69.434 304.512 69.3904 300.737 70.6076Z" fill="url(#paint18_linear)"/>
<path d="M314.669 67.6076C314.669 67.6076 315.446 71.9261 312.047 77.4182C308.647 82.9103 305.263 82.6613 303.543 80.7039C301.822 78.7452 299.763 75.4834 300.701 70.0068C301.639 64.5288 313.495 62.0986 314.669 67.6076Z" fill="url(#paint19_linear)"/>
<path d="M304.816 70.6005C304.816 70.6005 310.319 63.3805 314.546 69.6746L314.474 71.8487C314.474 71.8487 319.969 71.5926 319.373 66.5339C318.777 61.4752 314.291 58.0207 308.072 59.7487C301.853 61.4766 298.218 63.4452 297.517 67.7581C296.815 72.071 300.34 71.366 300.34 71.366C300.34 71.366 301.687 68.3899 303.313 68.1873C304.939 67.9847 304.351 70.3374 304.351 70.3374L304.816 70.6005Z" fill="url(#paint20_linear)"/>
<path d="M303.554 70.4078C303.554 70.4078 306.406 66.7126 303.81 65.9457C301.215 65.1788 301.313 69.5663 301.482 71.1986L303.554 70.4078Z" fill="url(#paint21_linear)"/>
<path d="M289.469 131.523C289.493 131.524 289.517 131.524 289.542 131.524L321.111 131.49C321.892 131.49 322.523 130.857 322.523 130.078C322.522 129.298 321.886 128.654 321.109 128.668L289.54 128.702C288.759 128.702 288.128 129.335 288.128 130.114C288.128 130.87 288.723 131.486 289.469 131.523Z" fill="url(#paint22_linear)"/>
<path d="M349.489 102.896H323.198C321.258 102.896 319.493 104.013 318.666 105.765L306.511 131.505H339.183C340.433 131.505 341.556 130.742 342.015 129.581L351.44 105.762C351.986 104.388 350.97 102.896 349.489 102.896Z" fill="url(#paint23_linear)"/>
<path d="M330.966 116.093C330.397 117.861 330.817 119.578 331.906 119.928C332.995 120.278 334.339 119.129 334.91 117.361C335.479 115.594 335.059 113.877 333.97 113.527C332.881 113.176 331.537 114.326 330.966 116.093Z" fill="#91B3FA"/>
</g>
<defs>
<linearGradient id="paint0_linear" x1="438.32" y1="381.654" x2="268.727" y2="34.6524" gradientUnits="userSpaceOnUse">
<stop stop-color="#DAE3FE"/>
<stop offset="1" stop-color="#E9EFFD"/>
</linearGradient>
<linearGradient id="paint1_linear" x1="335.366" y1="133.511" x2="329.728" y2="343.695" gradientUnits="userSpaceOnUse">
<stop stop-color="#09005D"/>
<stop offset="1" stop-color="#1A0F91"/>
</linearGradient>
<linearGradient id="paint2_linear" x1="26.3992" y1="148.239" x2="416.591" y2="458.977" gradientUnits="userSpaceOnUse">
<stop stop-color="#09005D"/>
<stop offset="1" stop-color="#1A0F91"/>
</linearGradient>
<linearGradient id="paint3_linear" x1="383.531" y1="420.003" x2="60.5459" y2="190.658" gradientUnits="userSpaceOnUse">
<stop stop-color="#4F52FF"/>
<stop offset="1" stop-color="#4042E2"/>
</linearGradient>
<linearGradient id="paint4_linear" x1="321.996" y1="203.575" x2="227.971" y2="314.443" gradientUnits="userSpaceOnUse">
<stop stop-color="#E1473D"/>
<stop offset="1" stop-color="#E9605A"/>
</linearGradient>
<linearGradient id="paint5_linear" x1="327.617" y1="208.343" x2="233.592" y2="319.211" gradientUnits="userSpaceOnUse">
<stop stop-color="#E1473D"/>
<stop offset="1" stop-color="#E9605A"/>
</linearGradient>
<linearGradient id="paint6_linear" x1="253.966" y1="48.8757" x2="259.052" y2="143.716" gradientUnits="userSpaceOnUse">
<stop stop-color="#4F52FF"/>
<stop offset="1" stop-color="#4042E2"/>
</linearGradient>
<linearGradient id="paint7_linear" x1="193.014" y1="52.1439" x2="198.1" y2="146.984" gradientUnits="userSpaceOnUse">
<stop stop-color="#4F52FF"/>
<stop offset="1" stop-color="#4042E2"/>
</linearGradient>
<linearGradient id="paint8_linear" x1="131.96" y1="55.4181" x2="137.046" y2="150.259" gradientUnits="userSpaceOnUse">
<stop stop-color="#4F52FF"/>
<stop offset="1" stop-color="#4042E2"/>
</linearGradient>
<linearGradient id="paint9_linear" x1="70.7305" y1="58.7015" x2="75.8163" y2="153.542" gradientUnits="userSpaceOnUse">
<stop stop-color="#4F52FF"/>
<stop offset="1" stop-color="#4042E2"/>
</linearGradient>
<linearGradient id="paint10_linear" x1="367.369" y1="139.745" x2="318.59" y2="167.622" gradientUnits="userSpaceOnUse">
<stop stop-color="#FEBBBA"/>
<stop offset="1" stop-color="#FF928E"/>
</linearGradient>
<linearGradient id="paint11_linear" x1="360.989" y1="167.566" x2="339.05" y2="220.729" gradientUnits="userSpaceOnUse">
<stop stop-color="#4F52FF"/>
<stop offset="1" stop-color="#4042E2"/>
</linearGradient>
<linearGradient id="paint12_linear" x1="362.648" y1="146.684" x2="529.529" y2="42.0849" gradientUnits="userSpaceOnUse">
<stop stop-color="#FEBBBA"/>
<stop offset="1" stop-color="#FF928E"/>
</linearGradient>
<linearGradient id="paint13_linear" x1="352.462" y1="181.431" x2="320.219" y2="229.063" gradientUnits="userSpaceOnUse">
<stop stop-color="#4F52FF"/>
<stop offset="1" stop-color="#4042E2"/>
</linearGradient>
<linearGradient id="paint14_linear" x1="321.651" y1="104.808" x2="281.562" y2="148.796" gradientUnits="userSpaceOnUse">
<stop stop-color="#E1473D"/>
<stop offset="1" stop-color="#E9605A"/>
</linearGradient>
<linearGradient id="paint15_linear" x1="313.214" y1="45.2016" x2="292.023" y2="69.6961" gradientUnits="userSpaceOnUse">
<stop stop-color="#09005D"/>
<stop offset="1" stop-color="#1A0F91"/>
</linearGradient>
<linearGradient id="paint16_linear" x1="311.601" y1="86.6089" x2="196.678" y2="197.6" gradientUnits="userSpaceOnUse">
<stop stop-color="#E1473D"/>
<stop offset="1" stop-color="#E9605A"/>
</linearGradient>
<linearGradient id="paint17_linear" x1="281.884" y1="123.707" x2="233.263" y2="123.707" gradientUnits="userSpaceOnUse">
<stop stop-color="#FEBBBA"/>
<stop offset="1" stop-color="#FF928E"/>
</linearGradient>
<linearGradient id="paint18_linear" x1="327.703" y1="32.8768" x2="285.242" y2="105.485" gradientUnits="userSpaceOnUse">
<stop stop-color="#FEBBBA"/>
<stop offset="1" stop-color="#FF928E"/>
</linearGradient>
<linearGradient id="paint19_linear" x1="300.018" y1="85.6979" x2="321.133" y2="45.2381" gradientUnits="userSpaceOnUse">
<stop stop-color="#FEBBBA"/>
<stop offset="1" stop-color="#FF928E"/>
</linearGradient>
<linearGradient id="paint20_linear" x1="326.452" y1="62.7642" x2="296.829" y2="68.715" gradientUnits="userSpaceOnUse">
<stop stop-color="#09005D"/>
<stop offset="1" stop-color="#1A0F91"/>
</linearGradient>
<linearGradient id="paint21_linear" x1="295.176" y1="83.1702" x2="316.291" y2="42.7111" gradientUnits="userSpaceOnUse">
<stop stop-color="#FEBBBA"/>
<stop offset="1" stop-color="#FF928E"/>
</linearGradient>
<linearGradient id="paint22_linear" x1="284.113" y1="123.146" x2="309.167" y2="131.374" gradientUnits="userSpaceOnUse">
<stop stop-color="#09005D"/>
<stop offset="1" stop-color="#1A0F91"/>
</linearGradient>
<linearGradient id="paint23_linear" x1="350.127" y1="119.057" x2="121.373" y2="99.7868" gradientUnits="userSpaceOnUse">
<stop stop-color="#09005D"/>
<stop offset="1" stop-color="#1A0F91"/>
</linearGradient>
<clipPath id="clip0">
<rect width="388" height="394" fill="white"/>
</clipPath>
</defs>
</svg>
